<svg xmlns="http://www.w3.org/2000/svg" xmlns:xlink="http://www.w3.org/1999/xlink" width="520" height="398" viewBox="0 0 520 398">
  <defs>
    <radialGradient id="radial-gradient" cx="0.5" cy="0.5" r="4.706" gradientTransform="translate(0.454 1770.178) scale(0.092 0.128)" gradientUnits="objectBoundingBox">
      <stop offset="0" stop-color="#020203"/>
      <stop offset="0.083" stop-color="#1a1a1f"/>
      <stop offset="0.219" stop-color="#46444a"/>
      <stop offset="0.356" stop-color="#747277"/>
      <stop offset="0.492" stop-color="#a19ea3"/>
      <stop offset="0.625" stop-color="#c8c6c9"/>
      <stop offset="0.756" stop-color="#e6e4e7"/>
      <stop offset="0.882" stop-color="#f9f8f9"/>
      <stop offset="1" stop-color="#fff"/>
    </radialGradient>
  </defs>
  <g id="Grupo_54094" data-name="Grupo 54094" transform="translate(76)">
    <g id="Grupo_1" data-name="Grupo 1" transform="translate(221.586 336.641)">
      <path id="Trazado_1" data-name="Trazado 1" d="M233.427,374.352a1.447,1.447,0,0,1-.289-2.865l111.924-22.528a1.447,1.447,0,1,1,.579,2.836L233.717,374.323A1.47,1.47,0,0,1,233.427,374.352Z" transform="translate(-231.981 -348.931)" fill="#263101"/>
    </g>
    <g id="Grupo_2" data-name="Grupo 2" transform="translate(253.807 225.493)">
      <path id="Trazado_2" data-name="Trazado 2" d="M266.827,239.277a1.448,1.448,0,0,1-.048-2.894l79.7-2.653a1.448,1.448,0,0,1,.1,2.894l-79.7,2.653Z" transform="translate(-265.379 -233.725)" fill="#263101"/>
    </g>
    <g id="Grupo_3" data-name="Grupo 3" transform="translate(222.474 113.974)">
      <path id="Trazado_3" data-name="Trazado 3" d="M234.347,138.776a1.451,1.451,0,0,1-.27-2.875l92.214-17.742a1.449,1.449,0,1,1,.55,2.846l-92.214,17.742A1.379,1.379,0,0,1,234.347,138.776Z" transform="translate(-232.902 -118.135)" fill="#263101"/>
    </g>
    <g id="Grupo_4" data-name="Grupo 4" transform="translate(55.174 114.542)">
      <path id="Trazado_4" data-name="Trazado 4" d="M152.167,142.589a1.32,1.32,0,0,1-.328-.039l-91.22-20.965a1.45,1.45,0,1,1,.646-2.827l91.22,20.965a1.451,1.451,0,0,1-.318,2.865Z" transform="translate(-59.493 -118.723)" fill="#263101"/>
    </g>
    <g id="Grupo_5" data-name="Grupo 5" transform="translate(36.851 274.5)">
      <path id="Trazado_5" data-name="Trazado 5" d="M41.947,349.363a1.43,1.43,0,0,1-1.129-.54,1.445,1.445,0,0,1,.232-2.036L118.6,284.838a1.449,1.449,0,0,1,1.8,2.267L42.854,349.044A1.464,1.464,0,0,1,41.947,349.363Z" transform="translate(-40.501 -284.522)" fill="#263101"/>
    </g>
    <g id="Grupo_6" data-name="Grupo 6" transform="translate(36.845 160.689)">
      <path id="Trazado_6" data-name="Trazado 6" d="M41.947,238.214a1.443,1.443,0,0,1-.714-2.7l122.151-68.769a1.445,1.445,0,1,1,1.418,2.518L42.661,238.021A1.371,1.371,0,0,1,41.947,238.214Z" transform="translate(-40.495 -166.555)" fill="#263101"/>
    </g>
    <g id="Grupo_7" data-name="Grupo 7" transform="translate(184.856 39.074)">
      <path id="Trazado_7" data-name="Trazado 7" d="M195.357,97.634h0a1.445,1.445,0,0,1-1.447-1.447l.077-54.24a1.445,1.445,0,0,1,1.447-1.447h0a1.445,1.445,0,0,1,1.447,1.447l-.077,54.24A1.445,1.445,0,0,1,195.357,97.634Z" transform="translate(-193.91 -40.5)" fill="#263101"/>
    </g>
    <g id="Grupo_8" data-name="Grupo 8" transform="translate(145.859)">
      <circle id="Elipse_1" data-name="Elipse 1" cx="40.521" cy="40.521" r="40.521" fill="#95af3d"/>
      <path id="Trazado_8" data-name="Trazado 8" d="M194.2,5.25a35.456,35.456,0,1,0,35.456,35.456A35.451,35.451,0,0,0,194.2,5.25ZM216.53,48.819A103.163,103.163,0,0,1,194.2,51.1a103.163,103.163,0,0,1-22.335-2.277c-4.573,0-6.831-.849-1.93-4.93a24.952,24.952,0,0,1,8.606-14.568,1.785,1.785,0,0,1,.675-2.393l3.107-1.785a1.784,1.784,0,0,1,2.441.656l.029.039a25.98,25.98,0,0,1,5.827-1.38v-.232a1.791,1.791,0,0,1,1.795-1.794H196a1.789,1.789,0,0,1,1.785,1.794v.232a25.98,25.98,0,0,1,5.827,1.38l.029-.039a1.786,1.786,0,0,1,2.441-.656l3.107,1.785a1.788,1.788,0,0,1,.675,2.393,25,25,0,0,1,8.606,14.568C223.371,47.98,221.113,48.819,216.53,48.819Z" transform="translate(-153.675 -0.185)" fill="#f5f5f5"/>
    </g>
    <g id="Grupo_9" data-name="Grupo 9" transform="translate(-2.224 186.424)">
      <circle id="Elipse_2" data-name="Elipse 2" cx="40.521" cy="40.521" r="40.521" fill="#95af3d"/>
      <path id="Trazado_9" data-name="Trazado 9" d="M40.706,198.48a35.456,35.456,0,1,0,35.456,35.456A35.451,35.451,0,0,0,40.706,198.48ZM15.94,225.909c0-2.827.685-4.457,2.084-4.978,3.116-1.167,8.239,4.168,13.729,10.468-.357.4-.7.81-1.032,1.245-3.309-3.821-9.783-11.085-12.137-10.217-.675.251-1.042,1.486-1.042,3.483,0,7.612,5.335,14.028,10.072,17.839a12.076,12.076,0,0,0,.781,2.576C22.857,242.455,15.94,234.871,15.94,225.909Zm24.766,26.3c-6.474,0-11.722-4.3-11.722-10.786,0-3.975,2.643-8.114,5.779-10.719,1.968-1.64,2.817-3.994,5.943-3.994,3.222,0,3.975,2.354,5.953,3.994,3.126,2.6,5.769,6.753,5.769,10.719C52.428,247.906,47.179,252.209,40.706,252.209Zm12.311-5.885a11.549,11.549,0,0,0,.781-2.576c4.737-3.811,10.072-10.217,10.072-17.839,0-2-.367-3.232-1.042-3.483-2.344-.878-8.818,6.4-12.137,10.217-.338-.434-.685-.849-1.032-1.245,5.49-6.3,10.6-11.635,13.729-10.468,1.4.521,2.084,2.151,2.084,4.978C65.471,234.871,58.554,242.455,53.016,246.323ZM46.3,233.9c-.8,0-2.393-3.193-5.6-3.193s-4.795,3.193-5.6,3.193a.759.759,0,0,0-.8.8.8.8,0,0,0,.8.8c.8,0,3.994-3.193,5.6-3.193S45.5,235.5,46.3,235.5a.77.77,0,0,0,.8-.8A.818.818,0,0,0,46.3,233.9Z" transform="translate(-0.185 -193.415)" fill="#f5f5f5"/>
    </g>
    <g id="Grupo_10" data-name="Grupo 10" transform="translate(275.612 75.475)">
      <path id="Trazado_10" data-name="Trazado 10" d="M369.021,118.751A40.521,40.521,0,1,1,328.5,78.23,40.522,40.522,0,0,1,369.021,118.751Z" transform="translate(-287.98 -78.23)" fill="#95af3d"/>
      <path id="Trazado_11" data-name="Trazado 11" d="M328.686,83.48a35.456,35.456,0,1,0,35.456,35.456A35.457,35.457,0,0,0,328.686,83.48Zm24.775,35.456a1.6,1.6,0,0,1-1.6,1.6h-.907a12.789,12.789,0,0,1-12.677,11.182,12.529,12.529,0,0,1-6.387-1.6c-.531-.251-1.592-1.6-3.193-1.524-1.6-.077-2.663,1.274-3.193,1.524a12.937,12.937,0,0,1-19.054-9.58h-.907a1.6,1.6,0,0,1-1.6-1.6v-6.387a1.6,1.6,0,0,1,1.6-1.6h.8v-1.6a3.2,3.2,0,0,1,3.193-3.193h38.35a3.191,3.191,0,0,1,3.193,3.193v1.6h.781a1.6,1.6,0,0,1,1.6,1.6Zm-15.186-9.185h-19.17c-7.728,0-9.185,1.457-9.185,9.185a9.19,9.19,0,0,0,9.185,9.185,10.871,10.871,0,0,0,4.911-1.63,10.494,10.494,0,0,1,4.67-1.563,10.615,10.615,0,0,1,4.669,1.563,10.909,10.909,0,0,0,4.911,1.63,9.194,9.194,0,0,0,9.185-9.185c0-4.2-.473-6.3-1.679-7.506S342.472,109.751,338.275,109.751Z" transform="translate(-288.165 -78.415)" fill="#f5f5f5"/>
    </g>
    <g id="Grupo_11" data-name="Grupo 11" transform="translate(16.106 75.475)">
      <circle id="Elipse_3" data-name="Elipse 3" cx="40.521" cy="40.521" r="40.521" fill="#95af3d"/>
      <path id="Trazado_12" data-name="Trazado 12" d="M59.706,83.48a35.456,35.456,0,1,0,35.456,35.456A35.451,35.451,0,0,0,59.706,83.48Zm19.653,52.86A1.914,1.914,0,0,1,77.39,138.2a1.943,1.943,0,0,1-1.756-2.084l.965-17.762a1.9,1.9,0,0,1,1.978-1.852,1.938,1.938,0,0,1,1.756,2.084c.058,0,.106.019.164.019a22.688,22.688,0,0,0-5.875-12.523c-.81.058-2.267-.637-3.714-1.852a11.55,11.55,0,0,1-1.708-1.756,7.64,7.64,0,0,1-3.7-.781,9.921,9.921,0,0,1-2.6-1.592,10.048,10.048,0,0,1-6.387,0,9.921,9.921,0,0,1-2.6,1.592,7.513,7.513,0,0,1-3.685.781,11.648,11.648,0,0,1-1.717,1.756c-1.447,1.216-2.9,1.91-3.714,1.852a22.719,22.719,0,0,0-5.876,12.523c.058,0,.106-.019.164-.019a1.932,1.932,0,0,1,1.756-2.084,1.9,1.9,0,0,1,1.968,1.852l.965,17.762a1.938,1.938,0,0,1-1.756,2.084,1.9,1.9,0,0,1-1.968-1.862c-3.1.183-5.808-3.637-6.078-8.538a12.177,12.177,0,0,1,1.138-6.059v-.029c0-14.327,11.037-25.991,24.592-25.991s24.6,11.664,24.6,25.991v.029a12.2,12.2,0,0,1,1.138,6.059C85.176,132.7,82.455,136.524,79.358,136.34Z" transform="translate(-19.185 -78.415)" fill="#f5f5f5"/>
    </g>
    <g id="Grupo_12" data-name="Grupo 12" transform="translate(293.943 297.374)">
      <circle id="Elipse_4" data-name="Elipse 4" cx="40.521" cy="40.521" r="40.521" fill="#95af3d"/>
      <path id="Trazado_13" data-name="Trazado 13" d="M347.686,313.48a35.456,35.456,0,1,0,35.456,35.456A35.451,35.451,0,0,0,347.686,313.48Zm-5.74,12.484h19.141v2.229H346.73v4.149h-4.554l-.116-1.283c-.068-.695-.116-1.843-.116-2.547Zm-9.136,42.1h-2.981a3.1,3.1,0,0,1-1.592-.318,2.259,2.259,0,0,1-.318-1.274c0-.521.145-.955.318-.955s.174-.289,0-.637a5.437,5.437,0,0,1-.318-1.91,3.117,3.117,0,0,1,.637-1.91,5.794,5.794,0,0,1,1.852-1.042l1.409-.463a19.662,19.662,0,0,1,2.47-.617l5.142-.859a4.732,4.732,0,0,0,2.161-1.109l2.026-2.026a2.976,2.976,0,0,0,.743-2.171l-.955-7.67c-.087-.695-.212-1.833-.27-2.537l-.762-8.3h4.448c.019.28.039.55.058.781l.135,1.447.917,10.043c.068.714.193,1.881.28,2.586l.965,7.68a1.47,1.47,0,0,1-.289.839l-2.026,2.026a3.125,3.125,0,0,1-1.293.666l-5.142.859a20.6,20.6,0,0,0-2.711.675l-1.409.473a7.2,7.2,0,0,0-2.47,1.428,4.649,4.649,0,0,0-1.1,3.039A5.233,5.233,0,0,0,332.809,368.067Zm33.5-21.679c-.067.695-.212,1.833-.328,2.528l-.859,5.133a18.617,18.617,0,0,0-.212,2.537,9.449,9.449,0,0,0,.405,2.479l.473,1.409a9.454,9.454,0,0,1,.405,2.489v4.457a3.394,3.394,0,0,1-.318,1.274c-.174.357-.174.637,0,.637s.318.434.318.955a4.1,4.1,0,0,1-.154,1.273c-.087.174-.733.318-1.438.318h-6.059c-.7,0-1.274-.289-1.274-.637s-.569-.637-1.273-.637h-1.274a3.117,3.117,0,0,0-1.91.637,3.079,3.079,0,0,1-1.91.637H336.224a3.1,3.1,0,0,1-1.592-.318,2.235,2.235,0,0,1-.318-1.273c0-.521.145-.955.318-.955s.174-.28,0-.637a5.438,5.438,0,0,1-.318-1.91,3.117,3.117,0,0,1,.637-1.91,5.737,5.737,0,0,1,1.843-1.042l1.409-.473a19.624,19.624,0,0,1,2.47-.608l5.142-.859a4.731,4.731,0,0,0,2.161-1.109L350,358.767a2.99,2.99,0,0,0,.743-2.171l-.965-7.68c-.087-.695-.2-1.843-.27-2.537l-.753-8.3h18.321Zm1.158-14.038c0,.7-.058,1.843-.116,2.547l-.116,1.283H348.564l-.116-1.283c-.068-.695-.116-1.843-.116-2.547v-2.557h19.132Z" transform="translate(-307.165 -308.415)" fill="#f5f5f5"/>
    </g>
    <g id="Grupo_13" data-name="Grupo 13" transform="translate(-2.224 297.374)">
      <circle id="Elipse_5" data-name="Elipse 5" cx="40.521" cy="40.521" r="40.521" fill="#95af3d"/>
      <path id="Trazado_14" data-name="Trazado 14" d="M40.706,313.48a35.456,35.456,0,1,0,35.456,35.456A35.451,35.451,0,0,0,40.706,313.48ZM26.263,355.506l-10-5.837A2.821,2.821,0,1,1,19.1,344.8l4.023,2.344L18.9,335.911a2.446,2.446,0,0,1,4.573-1.737l-.859-2.277v-.01a2.449,2.449,0,1,1,4.583-1.727h0l.425,1.138a2.447,2.447,0,0,1,4.583-1.717h0l1.293,3.435a2.447,2.447,0,0,1,4.583-1.717l.965,2.566a4.37,4.37,0,0,0-2.672,5.219l2.779,10.574-5.133,9.05a2.857,2.857,0,0,0-2.335,1.65,2.826,2.826,0,0,0-.241,1.032l-3.222,1.216Zm3.994,14.038a1.21,1.21,0,0,1-1.573-.714,1.224,1.224,0,0,1,.714-1.582l.106-.039-.762-2.759,3.29-1.245a2.805,2.805,0,0,0,1.071.868l5.287,2.393ZM54.83,369.5a1.224,1.224,0,0,1-1.013,2.229l-20.067-9.1a1.224,1.224,0,1,1,1.013-2.229l.1.048,1.409-2.489,19.382,8.78-.936,2.7Zm3.936-11.645h0l-2.46,7.081L37.232,356.3l3.637-6.406L37.927,338.68a2.823,2.823,0,0,1,5.461-1.437l1.187,4.505,4.949-10.931a2.45,2.45,0,0,1,4.467,2.016l1-2.209v-.01a2.448,2.448,0,0,1,4.457,2.026h0l-.5,1.109a2.444,2.444,0,1,1,4.448,2.026h0l-1.515,3.338a2.448,2.448,0,0,1,4.457,2.026Z" transform="translate(-0.185 -308.415)" fill="#f5f5f5"/>
    </g>
    <g id="Grupo_14" data-name="Grupo 14" transform="translate(293.943 186.424)">
      <circle id="Elipse_6" data-name="Elipse 6" cx="40.521" cy="40.521" r="40.521" fill="#95af3d"/>
      <path id="Trazado_15" data-name="Trazado 15" d="M347.686,198.48a35.456,35.456,0,1,0,35.456,35.456A35.457,35.457,0,0,0,347.686,198.48Zm-21.544,36.034c4.2-1.91,6.879-6.831,6.242-12.1l-1.167-11.288L335,210.6l5.345,29.049H326.152v-5.133ZM347.686,253.9a4.054,4.054,0,0,1-3.8,4.274l-13.941-1.428a4.06,4.06,0,0,1-3.8-4.274v-2.856h21.544Zm0-7.13H326.142v-4.274h21.543Zm0-7.13h-4.361L337.9,210.183l3.454-.482,6.329,15.687Zm6.339-29.947,3.454.482-5.422,29.455h-2.769V225.06l-.733-1.823Zm15.2,42.778a4.054,4.054,0,0,1-3.8,4.274l-13.941,1.428a3.6,3.6,0,0,1-2.856-1.486,6.251,6.251,0,0,0,.646-2.8V249.6h19.952Zm0-5.7H349.278v-4.274h19.952Zm0-7.13H355.037l5.354-29.049,3.782.531L363,222.407c-.637,5.277,2.045,10.188,6.242,12.1v5.133Z" transform="translate(-307.165 -193.415)" fill="#f5f5f5"/>
    </g>
    <path id="Trazado_16" data-name="Trazado 16" d="M314.526,398.172c0,7.39-65.142,13.381-145.508,13.381S23.51,405.562,23.51,398.172,88.652,384.79,169.018,384.79,314.526,390.781,314.526,398.172Z" transform="translate(-3.052 -13.553)" opacity="0.15" fill="url(#radial-gradient)"/>
    <g id="Grupo_36" data-name="Grupo 36" transform="translate(122.429 104.428)">
      <path id="Trazado_17" data-name="Trazado 17" d="M207.893,180.968c0,8.615-7.236,3.116-12.967,3.116s-12.967,5.5-12.967-3.116,7.236-65.518,12.967-65.518S207.893,172.353,207.893,180.968Z" transform="translate(-131.062 -108.494)" fill="#681e1e"/>
      <g id="Grupo_17" data-name="Grupo 17" transform="translate(0 76.353)">
        <path id="Trazado_18" data-name="Trazado 18" d="M145.3,256.2H132.67c0-36.864,19.643-64.524,27.1-68.808l6.29,10.95.125-.077C162.5,200.858,145.3,224.264,145.3,256.2Z" transform="translate(-129.326 -187.38)" fill="#fccc82"/>
        <path id="Trazado_19" data-name="Trazado 19" d="M166.061,198.33l-6.29-10.95c-.077.048-.174.116-.251.164l5.731,9.966.125-.077c-3.685,2.6-20.887,26.01-20.887,57.945h-11.8c0,.27-.01.54-.01.82h12.629c0-31.934,17.2-55.33,20.887-57.945Z" transform="translate(-129.327 -187.38)" fill="#202121" opacity="0.05"/>
        <g id="Grupo_15" data-name="Grupo 15" transform="translate(0 60.106)">
          <path id="Trazado_20" data-name="Trazado 20" d="M129.219,271.269c-.28,7.438,3.309,13.671,8.027,13.912,12.812.637,8.77-5.605,9.05-13.053s-3.309-13.671-8.027-13.912C130.31,257.82,129.731,257.792,129.219,271.269Z" transform="translate(-129.204 -249.977)" fill="#f28e1c"/>
          <path id="Trazado_21" data-name="Trazado 21" d="M143.533,268.742c2.856,4.313,6.31,6.821,7.718,5.586s.241-5.721-2.615-10.043-6.31-6.821-7.718-5.6C139.51,259.933,140.677,264.429,143.533,268.742Z" transform="translate(-129.596 -249.986)" fill="#f28e1c"/>
          <path id="Trazado_22" data-name="Trazado 22" d="M147.239,251.108c.241,3.454-1.341,10.3-1.341,10.3l-15.2,1.032s-1.785-9.85-.646-12.764C132.641,250.77,144.074,252.227,147.239,251.108Z" transform="translate(-129.22 -249.68)" fill="#f28e1c"/>
        </g>
        <path id="Trazado_23" data-name="Trazado 23" d="M148.379,264.04a22.9,22.9,0,0,0-2.287-2.943c.318-1.466,1.466-6.956,1.264-9.928a4.886,4.886,0,0,1-.8.193,53.961,53.961,0,0,1-1.283,8.915,22.907,22.907,0,0,1,2.286,2.943c2.856,4.313,4.023,8.808,2.615,10.043-.907.791-2.672.019-4.573-1.775-.125,7.255,3.521,13.266-9.05,12.639a6.19,6.19,0,0,1-3.821-1.679,6.646,6.646,0,0,0,4.641,2.5c12.571.627,8.915-5.374,9.05-12.639,1.9,1.794,3.666,2.566,4.573,1.775C152.4,272.849,151.225,268.353,148.379,264.04Z" transform="translate(-129.328 -189.627)" fill="#202121" opacity="0.5"/>
        <path id="Trazado_24" data-name="Trazado 24" d="M256.9,256.2H244.267c0-31.934-17.2-55.33-20.887-57.945L229.8,187.38C237.263,191.673,256.9,219.324,256.9,256.2Z" transform="translate(-132.521 -187.38)" fill="#fccc82"/>
        <path id="Trazado_25" data-name="Trazado 25" d="M230.013,187.38l-.473.8c8.152,6.194,25.933,32.918,25.933,68.017h1.64C257.113,219.324,237.48,191.673,230.013,187.38Z" transform="translate(-132.738 -187.38)" fill="#202121" opacity="0.05"/>
        <g id="Grupo_16" data-name="Grupo 16" transform="translate(105.466 60.106)">
          <path id="Trazado_26" data-name="Trazado 26" d="M260.932,271.269c.28,7.438-3.309,13.671-8.027,13.912-12.812.637-8.77-5.605-9.05-13.053s3.309-13.671,8.027-13.912C259.842,257.82,260.421,257.792,260.932,271.269Z" transform="translate(-238.695 -249.977)" fill="#f28e1c"/>
          <path id="Trazado_27" data-name="Trazado 27" d="M246.836,268.742c-2.856,4.313-6.31,6.821-7.718,5.586s-.241-5.721,2.615-10.043,6.31-6.821,7.718-5.6C250.86,259.933,249.692,264.429,246.836,268.742Z" transform="translate(-238.521 -249.986)" fill="#f28e1c"/>
          <path id="Trazado_28" data-name="Trazado 28" d="M242.909,251.108c-.241,3.454,1.341,10.3,1.341,10.3l15.2,1.032s1.785-9.85.646-12.764C257.516,250.77,246.074,252.227,242.909,251.108Z" transform="translate(-238.675 -249.68)" fill="#f28e1c"/>
        </g>
        <path id="Trazado_29" data-name="Trazado 29" d="M260.76,270.973c-.2-5.412-.434-8.625-1.129-10.526.453-3.039,1.138-8.673.318-10.757a10.261,10.261,0,0,1-1.293.4,49.674,49.674,0,0,1-.666,8.722c.695,1.91.926,5.123,1.129,10.526.28,7.438-3.309,13.681-8.027,13.912-3.579.183-5.837-.183-7.245-.955.945,1.852,3.328,2.865,8.886,2.586C257.45,284.654,261.049,278.421,260.76,270.973Zm-21.64,3.058c.617.54,1.63.338,2.817-.4,1.119-.8,2.113-1.389,2.007-2.566-1.312,1.245-4.438,1.524-5.383,1.611A2.011,2.011,0,0,0,239.12,274.031Z" transform="translate(-133.056 -189.575)" fill="#202121" opacity="0.5"/>
      </g>
      <g id="Grupo_19" data-name="Grupo 19" transform="translate(27.56 150.747)">
        <g id="Grupo_18" data-name="Grupo 18" transform="translate(0 3.145)">
          <path id="Trazado_30" data-name="Trazado 30" d="M220.432,374.783H206.819L197.75,274.05l34.028-6.3Z" transform="translate(-159.178 -267.75)" fill="#1a4054"/>
          <path id="Trazado_31" data-name="Trazado 31" d="M169.116,374.783h13.613l9.079-100.732-34.037-6.3Z" transform="translate(-157.77 -267.75)" fill="#1a4054"/>
        </g>
        <path id="Trazado_32" data-name="Trazado 32" d="M204.137,299.116l-6.155-3.637h-5.827l-6.165,3.637V264.49h18.147Z" transform="translate(-158.764 -264.49)" fill="#1a4054"/>
      </g>
      <path id="Trazado_33" data-name="Trazado 33" d="M227.076,268.435,216.155,371.5H205.523l.3,3.271h13.613L230.781,267.74Zm-30.333,23.878h-8.451l-1.37.81L179.86,371.5H169.18l.347,3.271H183.14l7.062-78.379,1.37-.81H197.4l1.37.81Z" transform="translate(-130.612 -113.858)" fill="#202121" opacity="0.4"/>
      <g id="Grupo_21" data-name="Grupo 21" transform="translate(14.371 59.99)">
        <g id="Grupo_20" data-name="Grupo 20">
          <path id="Trazado_34" data-name="Trazado 34" d="M158.75,229.7c0-46.8,15.832-59.276,35.349-59.276s35.349,12.475,35.349,59.276Z" transform="translate(-144.616 -170.42)" fill="#173d51"/>
          <path id="Trazado_35" data-name="Trazado 35" d="M229.05,214.293c14.144,0,16.5-12.475,16.5-15.6s-7.072-15.6-23.57-21.843-2.354,24.959-2.354,24.959Z" transform="translate(-146.561 -170.617)" fill="#173d51"/>
          <path id="Trazado_36" data-name="Trazado 36" d="M160.6,214.293c-14.144,0-16.5-12.475-16.5-15.6s7.072-15.6,23.57-21.843,2.354,24.959,2.354,24.959Z" transform="translate(-144.1 -170.617)" fill="#173d51"/>
        </g>
        <path id="Trazado_37" data-name="Trazado 37" d="M233.994,193.816c0,12.918-17.935,23.4-40.067,23.4s-40.067-10.477-40.067-23.4,17.935-23.4,40.067-23.4S233.994,180.9,233.994,193.816Z" transform="translate(-144.444 -170.42)" fill="#173d51"/>
      </g>
      <g id="Grupo_24" data-name="Grupo 24" transform="translate(25.292 59.99)">
        <g id="Grupo_22" data-name="Grupo 22" transform="translate(38.562 0.01)">
          <path id="Trazado_38" data-name="Trazado 38" d="M230.768,224.988c-10.555-5.239-12.832-22.585-7.988-46.657.145-.733.289-1.447.444-2.171l-14.973-5.731-12.86,34.684v60.7c0,4.785,3.049,8.673,6.8,8.673l24.959-2.894c3.753,0,6.811-3.888,6.811-8.673l-2.373-36.353C231.434,225.683,231.868,225.528,230.768,224.988Z" transform="translate(-195.39 -170.43)" fill="#f7a416"/>
          <path id="Trazado_39" data-name="Trazado 39" d="M231.647,226.735c-.154-.868.27-1.032-.81-1.573l.945,35.687c0,4.785-3.049,8.673-6.811,8.673l-24.959,2.894a5.552,5.552,0,0,1-2.952-.9,6.318,6.318,0,0,0,5.2,3.136l24.959-2.894c3.753,0,6.811-3.888,6.811-8.673Zm-5.75-5.605c-6.213-7.738-7.014-22.923-3.058-42.624.145-.733.289-1.447.444-2.171l-2.508-.955c-.058.3-.116.589-.183.888C216.2,198.11,217.687,214.376,225.9,221.13Z" transform="translate(-195.449 -170.604)" fill="#e2690e"/>
          <path id="Trazado_40" data-name="Trazado 40" d="M232.438,242.119H195.4V236.33h36.681Z" transform="translate(-195.39 -172.751)" fill="#202121"/>
          <path id="Trazado_41" data-name="Trazado 41" d="M233.393,257.1H195.4V251.31h37.617Z" transform="translate(-195.39 -173.279)" fill="#202121"/>
          <path id="Trazado_42" data-name="Trazado 42" d="M217.507,173.968l-11.259,60.125-.55,2.894-4.428-1.331.3-1.563,12.938-61.273Z" transform="translate(-195.597 -170.514)" fill="#202121"/>
        </g>
        <g id="Grupo_23" data-name="Grupo 23">
          <path id="Trazado_43" data-name="Trazado 43" d="M158.623,224.988c10.555-5.239,12.822-22.585,7.988-46.657-.145-.733-.3-1.447-.444-2.171l14.964-5.731,12.861,34.684v60.7c0,4.785-3.049,8.673-6.811,8.673L162.222,271.6c-3.763,0-6.8-3.888-6.8-8.673l2.373-36.353C157.957,225.683,157.523,225.528,158.623,224.988Z" transform="translate(-155.42 -170.42)" fill="#f7a416"/>
          <path id="Trazado_44" data-name="Trazado 44" d="M181.2,170.42l-.9.347,12.127,32.706v60.7c0,4.785-3.049,8.673-6.811,8.673l-24.959-2.894a5.663,5.663,0,0,1-3.338-1.158,6.239,6.239,0,0,0,4.978,2.8l24.959,2.894c3.763,0,6.811-3.888,6.811-8.673v-60.7Z" transform="translate(-155.487 -170.42)" fill="#e2690e"/>
          <path id="Trazado_45" data-name="Trazado 45" d="M157,242.119h37.048V236.33H157.357Z" transform="translate(-155.476 -172.741)" fill="#202121"/>
          <path id="Trazado_46" data-name="Trazado 46" d="M156.01,257.1h38V251.31H156.4Z" transform="translate(-155.441 -173.269)" fill="#202121"/>
          <path id="Trazado_47" data-name="Trazado 47" d="M172.77,173.939l11.191,60.154.54,2.894,4.428-1.331-.3-1.563L175.7,172.82Z" transform="translate(-156.031 -170.505)" fill="#202121"/>
        </g>
        <path id="Trazado_48" data-name="Trazado 48" d="M196.487,265.627a1.314,1.314,0,0,1-1.129,1.447h0a1.321,1.321,0,0,1-1.138-1.447V207.817a1.321,1.321,0,0,1,1.138-1.447h0a1.314,1.314,0,0,1,1.129,1.447Z" transform="translate(-156.787 -171.686)" fill="#202121"/>
        <path id="Trazado_49" data-name="Trazado 49" d="M196.4,209.37h-2.267l-2.267,8.673L193,220.938h4.544l1.138-2.894ZM195.276,219.6a1.775,1.775,0,1,1,1.775-1.775A1.771,1.771,0,0,1,195.276,219.6Z" transform="translate(-156.704 -171.792)" fill="#e0e0e0"/>
      </g>
      <path id="Trazado_50" data-name="Trazado 50" d="M207.158,171.189c-1.785,3.734-6.561,6.4-12.214,6.4s-10.429-2.672-12.214-6.4c.289-2.47.617-5.21,1-8.1,2.238-2.865,6.4-4.795,11.211-4.795s8.963,1.93,11.2,4.795C206.55,165.979,206.869,168.71,207.158,171.189Z" transform="translate(-131.089 -110.003)" fill="#f9b651"/>
      <g id="Grupo_32" data-name="Grupo 32" transform="translate(34.919)">
        <path id="Trazado_51" data-name="Trazado 51" d="M215.534,140.614c0,15.543-9.358,33.1-20.9,33.1s-20.9-17.559-20.9-33.1,9.358-23.174,20.9-23.174S215.534,125.081,215.534,140.614Z" transform="translate(-165.692 -108.564)" fill="#fccc82"/>
        <path id="Trazado_52" data-name="Trazado 52" d="M217.324,147.266c-.511,3.946.463,7.294-1.708,7.062s-3.512-3.618-3.01-7.564,2.682-6.956,4.853-6.725S217.835,143.32,217.324,147.266Z" transform="translate(-167.057 -109.36)" fill="#fccc82"/>
        <path id="Trazado_53" data-name="Trazado 53" d="M173.247,147.266c.511,3.946-.463,7.294,1.708,7.062s3.521-3.618,3.01-7.564-2.682-6.956-4.853-6.725S172.736,143.32,173.247,147.266Z" transform="translate(-165.633 -109.36)" fill="#fccc82"/>
        <g id="Grupo_26" data-name="Grupo 26" transform="translate(7.243 31.782)">
          <path id="Trazado_54" data-name="Trazado 54" d="M206.758,161.42c0,6.512-5.277,10.854-11.8,10.854s-11.8-4.332-11.8-10.854c0-3.994,2.663-8.162,5.818-10.786,1.987-1.65,2.836-4.013,5.982-4.013,3.242,0,4,2.364,5.991,4.023C204.105,153.258,206.758,157.426,206.758,161.42Z" transform="translate(-173.266 -141.374)" fill="#f5f5f5"/>
          <path id="Trazado_55" data-name="Trazado 55" d="M186.561,154.456a.782.782,0,0,1-.54-.212L173.17,142.589a.806.806,0,0,1,1.081-1.2L187.1,153.047a.808.808,0,0,1,.058,1.138A.773.773,0,0,1,186.561,154.456Z" transform="translate(-172.905 -141.182)" fill="#f5f5f5"/>
          <path id="Trazado_56" data-name="Trazado 56" d="M203.7,154.455a.792.792,0,0,1-.588-.261.807.807,0,0,1,.039-1.138L215.606,141.4a.805.805,0,1,1,1.1,1.177l-12.455,11.655A.757.757,0,0,1,203.7,154.455Z" transform="translate(-173.961 -141.182)" fill="#f5f5f5"/>
          <path id="Trazado_57" data-name="Trazado 57" d="M185.077,167.918a.811.811,0,0,1-.569-.232l-8.037-8.037a.8.8,0,0,1,1.138-1.138l8.046,8.037a.8.8,0,0,1,0,1.138A.851.851,0,0,1,185.077,167.918Z" transform="translate(-173.022 -141.784)" fill="#f5f5f5"/>
          <path id="Trazado_58" data-name="Trazado 58" d="M205.361,167.918a.789.789,0,0,1-.56-.232.8.8,0,0,1,0-1.138l8.037-8.037a.8.8,0,0,1,1.138,1.138l-8.037,8.037A.834.834,0,0,1,205.361,167.918Z" transform="translate(-174.02 -141.784)" fill="#f5f5f5"/>
          <path id="Trazado_59" data-name="Trazado 59" d="M201.591,154.793a.77.77,0,0,1-.8.8c-.8,0-4.023-3.222-5.625-3.213s-4.824,3.213-5.625,3.213a.8.8,0,0,1-.8-.8h0a.759.759,0,0,1,.8-.8c.8,0,2.412-3.213,5.625-3.213s4.824,3.213,5.625,3.213a.8.8,0,0,1,.8.8Z" transform="translate(-173.463 -141.52)" fill="#767676"/>
          <g id="Grupo_25" data-name="Grupo 25" transform="translate(16.126 18.367)">
            <path id="Trazado_60" data-name="Trazado 60" d="M199.871,160.76a.528.528,0,0,1-.444.56c-2.8.087-5.615.087-8.413,0a.521.521,0,0,1-.434-.56h0a.5.5,0,0,1,.444-.54h8.413a.5.5,0,0,1,.434.54Z" transform="translate(-189.654 -160.22)" fill="#bdbdbc"/>
            <path id="Trazado_61" data-name="Trazado 61" d="M200.754,164.133a.638.638,0,0,1-.521.608,34.68,34.68,0,0,1-10.092,0,.638.638,0,0,1-.521-.608h0a.457.457,0,0,1,.521-.463,45.165,45.165,0,0,0,10.082,0,.461.461,0,0,1,.531.463Z" transform="translate(-189.62 -160.341)" fill="#bdbdbc"/>
            <path id="Trazado_62" data-name="Trazado 62" d="M200.3,167.644a.7.7,0,0,1-.473.656,19.865,19.865,0,0,1-9.223,0,.693.693,0,0,1-.473-.656h0a.4.4,0,0,1,.473-.434,23.145,23.145,0,0,0,9.214,0,.4.4,0,0,1,.482.434Z" transform="translate(-189.638 -160.466)" fill="#bdbdbc"/>
          </g>
        </g>
        <g id="Grupo_28" data-name="Grupo 28" transform="translate(8.039 27.342)">
          <g id="Grupo_27" data-name="Grupo 27">
            <path id="Trazado_63" data-name="Trazado 63" d="M212.438,145.512c0,13.459-14.472,4.486-17.694,4.486s-17.684,8.934-17.684-4.515c0-9.648,0-8.037,17.684-8.037S212.438,135.835,212.438,145.512Z" transform="translate(-173.847 -136.607)" fill="#263339"/>
            <path id="Trazado_64" data-name="Trazado 64" d="M215.534,138.606a1.846,1.846,0,0,1-1.6,2.016H175.341a1.853,1.853,0,0,1-1.611-2.016h0a1.856,1.856,0,0,1,1.611-2.026h38.591a1.856,1.856,0,0,1,1.6,2.026Z" transform="translate(-173.73 -136.58)" fill="#263339"/>
            <path id="Trazado_65" data-name="Trazado 65" d="M213.671,145.487c.888,0,1.611-3.6,1.611-8.037H212.06C212.06,141.888,212.774,145.487,213.671,145.487Z" transform="translate(-175.08 -136.611)" fill="#263339"/>
            <path id="Trazado_66" data-name="Trazado 66" d="M177,145.487c.888,0,1.611-3.6,1.611-8.037H175.39C175.4,141.888,176.114,145.487,177,145.487Z" transform="translate(-173.788 -136.611)" fill="#263339"/>
          </g>
          <path id="Trazado_67" data-name="Trazado 67" d="M193.636,143.96v-3.213l-.405-.8c-2.537,0-3.107-.029-4.978-.058-1.38-.019-2.586-.039-3.637-.039-3.714,0-4.525.3-4.67.482-.386.463-.386,3.01-.386,5.248,0,2.016.376,3.473,1.081,4.216a3.045,3.045,0,0,0,2.479.8c2.248,0,5.084-.984,7.352-1.785a7.008,7.008,0,0,0,2.354-1.129Z" transform="translate(-173.935 -136.695)" fill="#bddef6"/>
          <path id="Trazado_68" data-name="Trazado 68" d="M186.784,146.869a1.538,1.538,0,1,1,1.8-1.515A1.678,1.678,0,0,1,186.784,146.869Z" transform="translate(-174.126 -136.836)" fill="#94c8ee"/>
          <path id="Trazado_69" data-name="Trazado 69" d="M210.33,140.322c-.145-.183-.955-.482-4.689-.482-1.052,0-2.258.019-3.637.039-1.862.029-2.431.058-4.959.058l-.405.8v3.213l.8,3.714A7.264,7.264,0,0,0,199.8,148.8c2.277.8,5.1,1.794,7.361,1.794,1.409,0,3.541,0,3.541-5.007C210.716,143.226,210.716,140.786,210.33,140.322Z" transform="translate(-174.537 -136.695)" fill="#bddef6"/>
          <path id="Trazado_70" data-name="Trazado 70" d="M203.874,146.879a1.538,1.538,0,1,1,1.8-1.515A1.678,1.678,0,0,1,203.874,146.879Z" transform="translate(-174.728 -136.836)" fill="#94c8ee"/>
        </g>
        <g id="Grupo_29" data-name="Grupo 29" transform="translate(0 2.451)">
          <path id="Trazado_71" data-name="Trazado 71" d="M194.519,113.993c11.751,0,21.273,10.8,21.273,24.119h2.836c0-15.1-10.8-27.332-24.119-27.332s-24.119,12.233-24.119,27.332h2.836C173.236,124.8,182.758,113.993,194.519,113.993Z" transform="translate(-165.574 -110.78)" fill="#f28e1c"/>
          <path id="Trazado_72" data-name="Trazado 72" d="M175.585,152.971a1.907,1.907,0,0,1-1.794,2.007h0a1.906,1.906,0,0,1-2.007-1.785l-.984-17.077a1.9,1.9,0,0,1,1.785-2.007h0a1.9,1.9,0,0,1,2.007,1.785Z" transform="translate(-165.588 -111.602)" fill="#202121"/>
          <path id="Trazado_73" data-name="Trazado 73" d="M171.6,153.267c-3.145.183-5.914-3.493-6.184-8.21s2.055-8.683,5.2-8.866Z" transform="translate(-165.398 -111.675)" fill="#f28e1c"/>
          <path id="Trazado_74" data-name="Trazado 74" d="M168.99,152.494c1.341-2.75,2.113-9.947,1.93-13.324l.82,14.192A4.266,4.266,0,0,1,168.99,152.494Z" transform="translate(-165.524 -111.78)" fill="#202121" opacity="0.1"/>
        </g>
        <g id="Grupo_30" data-name="Grupo 30" transform="translate(47.881 24.956)">
          <path id="Trazado_75" data-name="Trazado 75" d="M215.03,152.971a1.906,1.906,0,0,0,1.785,2.007h0a1.906,1.906,0,0,0,2.007-1.785l.974-17.077a1.887,1.887,0,0,0-1.785-2.007h0A1.906,1.906,0,0,0,216,135.895Z" transform="translate(-215.027 -134.107)" fill="#202121"/>
          <path id="Trazado_76" data-name="Trazado 76" d="M218.96,153.267c3.145.183,5.9-3.493,6.184-8.21s-2.055-8.683-5.2-8.866Z" transform="translate(-215.165 -134.18)" fill="#f28e1c"/>
          <path id="Trazado_77" data-name="Trazado 77" d="M225.164,144.49c0,.28,0,.569-.019.868-.28,4.718-3.049,8.384-6.184,8.2l.116-1.9C222.829,151.388,224.421,146.613,225.164,144.49Z" transform="translate(-215.166 -134.473)" fill="#202121" opacity="0.1"/>
        </g>
        <g id="Grupo_31" data-name="Grupo 31" transform="translate(3.485)">
          <path id="Trazado_78" data-name="Trazado 78" d="M215.493,133.064a104.385,104.385,0,0,1-42.074,0c-4.3,0-6.435-.781-1.8-4.631a23.387,23.387,0,0,1,8.1-13.729,1.651,1.651,0,0,1,.637-2.238l2.914-1.7a1.7,1.7,0,0,1,2.306.627l.019.048a.369.369,0,0,1,.1-.029,23.516,23.516,0,0,1,5.4-1.273v-.212a.939.939,0,0,1,.019-.232,1.694,1.694,0,0,1,1.669-1.457h3.367a1.69,1.69,0,0,1,1.688,1.688v.212a.092.092,0,0,1,.068.019,23.282,23.282,0,0,1,5.432,1.293l.019-.048c0-.019.019-.019.039-.029a1.671,1.671,0,0,1,2.277-.589l2.914,1.7a1.654,1.654,0,0,1,.637,2.238,23.465,23.465,0,0,1,8.1,13.729C221.947,132.273,219.815,133.064,215.493,133.064Z" transform="translate(-169.01 -108.24)" fill="#f07f1f"/>
          <path id="Trazado_79" data-name="Trazado 79" d="M204.4,111.415l-.9,8.49a2.781,2.781,0,0,1-5.547-.28,1.607,1.607,0,0,1,.019-.3l.945-9.136a23.283,23.283,0,0,1,5.432,1.293l.019-.048S204.385,111.435,204.4,111.415Z" transform="translate(-170.03 -108.309)" fill="#e2690e"/>
          <path id="Trazado_80" data-name="Trazado 80" d="M192.735,119.336a1.365,1.365,0,0,1,.019.28,2.791,2.791,0,0,1-5.567.289l-.888-8.442a23.517,23.517,0,0,1,5.4-1.273Z" transform="translate(-169.619 -108.309)" fill="#e2690e"/>
          <path id="Trazado_81" data-name="Trazado 81" d="M218.246,128.865c-15.369,4.3-19.064,3.039-22.846,3.039,4.65-1.206,22.7-.753,19.527-11.394A26.165,26.165,0,0,1,218.246,128.865Z" transform="translate(-169.939 -108.672)" fill="#e2690e"/>
        </g>
      </g>
      <g id="Grupo_35" data-name="Grupo 35" transform="translate(18.848 241.619)">
        <g id="Grupo_33" data-name="Grupo 33" transform="translate(52.494 0)">
          <path id="Trazado_82" data-name="Trazado 82" d="M240.169,394.3a1.131,1.131,0,0,1,.145-.54,6.16,6.16,0,0,0,.367-2.19,3.54,3.54,0,0,0-.733-2.19,6.638,6.638,0,0,0-2.113-1.2l-1.611-.54a23.722,23.722,0,0,0-2.827-.7l-5.885-.984a5.451,5.451,0,0,1-2.479-1.274l-2.315-2.315a3.4,3.4,0,0,1-.849-2.489l1.1-8.789c.1-.8.241-2.1.309-2.9l.859-9.5H203.15l.859,9.5c.077.8.241,2.1.376,2.894l.984,5.885a20.811,20.811,0,0,1,.241,2.9,10.577,10.577,0,0,1-.463,2.846l-.531,1.611a10.575,10.575,0,0,0-.463,2.846v5.113a3.818,3.818,0,0,0,.367,1.457,1,1,0,0,1,.135.579C209.749,393.489,228.225,394.917,240.169,394.3Z" transform="translate(-203.15 -358.68)" fill="#dedede"/>
          <path id="Trazado_83" data-name="Trazado 83" d="M240.569,389.379a6.638,6.638,0,0,0-2.113-1.2l-1.611-.54a23.731,23.731,0,0,0-2.827-.7l-5.885-.984a5.451,5.451,0,0,1-2.479-1.274l-2.315-2.315a3.4,3.4,0,0,1-.849-2.489l1.1-8.789c.1-.8.241-2.1.309-2.9l.859-9.5h-1.64l-.859,9.5c-.077.8-.212,2.1-.318,2.9l-1.1,8.789a3.39,3.39,0,0,0,.849,2.489L224,384.681a5.357,5.357,0,0,0,2.479,1.274l5.885.984a20.519,20.519,0,0,1,2.827.7l1.611.54a6.265,6.265,0,0,1,2.113,1.2,3.62,3.62,0,0,1,.724,2.19,6.159,6.159,0,0,1-.367,2.19,1.051,1.051,0,0,0-.145.54c-2.016.106-4.226.145-6.522.154,2.885.01,5.663-.029,8.162-.154a1.131,1.131,0,0,1,.145-.54,6.16,6.16,0,0,0,.367-2.19A3.477,3.477,0,0,0,240.569,389.379Z" transform="translate(-203.772 -358.68)" fill="#202121" opacity="0.5"/>
          <path id="Trazado_84" data-name="Trazado 84" d="M240.35,395.614c-.1,0-.135-.077-.145-.193-11.944.608-30.419-.81-35.523.039-.019.087-.058.154-.135.154-.2,0-.367.492-.367,1.09a4.572,4.572,0,0,0,.183,1.466c.1.2.839.367,1.64.367h6.946c.8,0,1.457-.328,1.457-.733s.656-.733,1.466-.733h1.457a3.54,3.54,0,0,1,2.19.733,3.57,3.57,0,0,0,2.2.733h16.806a3.5,3.5,0,0,0,1.823-.367,2.566,2.566,0,0,0,.367-1.466C240.716,396.1,240.552,395.614,240.35,395.614Z" transform="translate(-203.186 -359.966)" fill="#202121"/>
        </g>
        <g id="Grupo_34" data-name="Grupo 34" transform="translate(0 0)">
          <path id="Trazado_85" data-name="Trazado 85" d="M149.251,394.3a1.131,1.131,0,0,0-.145-.54,6.16,6.16,0,0,1-.367-2.19,3.54,3.54,0,0,1,.733-2.19,6.637,6.637,0,0,1,2.113-1.2l1.611-.54a23.72,23.72,0,0,1,2.827-.7l5.885-.984a5.451,5.451,0,0,0,2.48-1.274l2.315-2.315a3.4,3.4,0,0,0,.849-2.489l-1.1-8.789c-.1-.8-.241-2.1-.309-2.9l-.859-9.5H186.27l-.859,9.5c-.077.8-.241,2.1-.376,2.894l-.984,5.885a20.807,20.807,0,0,0-.241,2.9,10.969,10.969,0,0,0,.463,2.846l.531,1.611a10.575,10.575,0,0,1,.463,2.846v5.113a3.819,3.819,0,0,1-.367,1.457,1,1,0,0,0-.135.579C179.68,393.489,161.2,394.917,149.251,394.3Z" transform="translate(-148.74 -358.68)" fill="#dedede"/>
          <path id="Trazado_86" data-name="Trazado 86" d="M186.255,371.1c.135-.791.3-2.094.376-2.894l.859-9.5h-1.64l-.859,9.5c-.077.8-.241,2.1-.376,2.894l-.984,5.885a20.809,20.809,0,0,0-.241,2.9,10.97,10.97,0,0,0,.463,2.846l.531,1.611a10.575,10.575,0,0,1,.463,2.846V392.3a3.819,3.819,0,0,1-.367,1.457,1.17,1.17,0,0,0-.125.415c.617.039,1.187.1,1.63.164a1.086,1.086,0,0,1,.135-.579,3.908,3.908,0,0,0,.367-1.457V387.19a10.577,10.577,0,0,0-.463-2.846l-.531-1.611a10.575,10.575,0,0,1-.463-2.846,20.934,20.934,0,0,1,.241-2.9Z" transform="translate(-149.96 -358.681)" fill="#202121" opacity="0.5"/>
          <path id="Trazado_87" data-name="Trazado 87" d="M149.107,395.614c.087,0,.135-.077.145-.193,11.944.608,30.419-.81,35.523.039.01.087.058.154.135.154.2,0,.367.492.367,1.09a4.572,4.572,0,0,1-.183,1.466c-.1.2-.839.367-1.64.367h-6.937c-.8,0-1.457-.328-1.457-.733s-.656-.733-1.466-.733h-1.457a3.54,3.54,0,0,0-2.19.733,3.562,3.562,0,0,1-2.19.733H150.95a3.531,3.531,0,0,1-1.823-.367,2.567,2.567,0,0,1-.367-1.466C148.76,396.1,148.914,395.614,149.107,395.614Z" transform="translate(-148.741 -359.966)" fill="#202121"/>
        </g>
      </g>
    </g>
    <rect id="Rectángulo_5072" data-name="Rectángulo 5072" width="520" height="365" transform="translate(-76 15)" fill="none"/>
  </g>
</svg>
