<svg xmlns="http://www.w3.org/2000/svg" width="810.297" height="182.92" viewBox="0 0 810.297 182.92">
  <g id="Grupo_54292" data-name="Grupo 54292" transform="translate(-1129.004 -509.916)">
    <path id="Trazado_100898" data-name="Trazado 100898" d="M1139.2,520.112v69.777c0,16.459,15.44,29.8,34.487,29.8h716.107c19.046,0,34.486-13.343,34.486-29.8V520.112" transform="translate(2.413 2.413)" fill="none" stroke="#6a771a" stroke-miterlimit="10" stroke-width="2"/>
    <circle id="Elipse_4237" data-name="Elipse 4237" cx="11.609" cy="11.609" r="11.609" transform="translate(1130.004 510.915)" fill="#fff" stroke="#212513" stroke-miterlimit="10" stroke-width="2"/>
    <circle id="Elipse_4238" data-name="Elipse 4238" cx="11.609" cy="11.609" r="11.609" transform="translate(1915.084 510.915)" fill="#fff" stroke="#212513" stroke-miterlimit="10" stroke-width="2"/>
    <g id="Grupo_54213" data-name="Grupo 54213" transform="translate(1238.829 551.033)">
      <circle id="Elipse_4239" data-name="Elipse 4239" cx="54.266" cy="54.266" r="54.266" transform="translate(0 100.27) rotate(-67.5)" fill="#d6db7c"/>
      <path id="Trazado_100899" data-name="Trazado 100899" d="M1284.178,667.453a56.79,56.79,0,1,1,56.791-56.789A56.854,56.854,0,0,1,1284.178,667.453Zm0-111.055a54.265,54.265,0,1,0,54.266,54.266A54.326,54.326,0,0,0,1284.178,556.4Z" transform="translate(-1213.277 -539.762)" fill="#212513"/>
    </g>
    <g id="Grupo_54214" data-name="Grupo 54214" transform="translate(1388.331 551.033)">
      <circle id="Elipse_4240" data-name="Elipse 4240" cx="54.266" cy="54.266" r="54.266" transform="translate(0 100.27) rotate(-67.5)" fill="#d6db7c"/>
      <path id="Trazado_100900" data-name="Trazado 100900" d="M1402.607,667.453a56.79,56.79,0,1,1,56.791-56.789A56.855,56.855,0,0,1,1402.607,667.453Zm0-111.055a54.265,54.265,0,1,0,54.266,54.266A54.327,54.327,0,0,0,1402.607,556.4Z" transform="translate(-1331.706 -539.762)" fill="#212513"/>
    </g>
    <g id="Grupo_54215" data-name="Grupo 54215" transform="translate(1538.172 550.692)">
      <circle id="Elipse_4241" data-name="Elipse 4241" cx="54.266" cy="54.266" r="54.266" transform="translate(0 100.27) rotate(-67.5)" fill="#d6db7c"/>
      <path id="Trazado_100901" data-name="Trazado 100901" d="M1521.305,667.184a56.791,56.791,0,1,1,56.791-56.791A56.855,56.855,0,0,1,1521.305,667.184Zm0-111.057a54.266,54.266,0,1,0,54.266,54.266A54.327,54.327,0,0,0,1521.305,556.128Z" transform="translate(-1450.404 -539.492)" fill="#212513"/>
    </g>
    <g id="Grupo_54216" data-name="Grupo 54216" transform="translate(1687.674 550.692)">
      <circle id="Elipse_4242" data-name="Elipse 4242" cx="54.266" cy="54.266" r="54.266" transform="translate(0 100.27) rotate(-67.5)" fill="#d6db7c"/>
      <path id="Trazado_100902" data-name="Trazado 100902" d="M1639.734,667.184a56.791,56.791,0,1,1,56.791-56.791A56.855,56.855,0,0,1,1639.734,667.184Zm0-111.057A54.266,54.266,0,1,0,1694,610.394,54.328,54.328,0,0,0,1639.734,556.128Z" transform="translate(-1568.832 -539.492)" fill="#212513"/>
    </g>
    <g id="Grupo_54219" data-name="Grupo 54219" transform="translate(1424.165 588.663)">
      <path id="Trazado_100903" data-name="Trazado 100903" d="M1379.269,572.5v15.629h3.489V576.117H1404.9v12.016h3.489V572.5Z" transform="translate(-1358.764 -572.504)" fill="#004062"/>
      <g id="Grupo_54217" data-name="Grupo 54217" transform="translate(20.505)">
        <path id="Trazado_100904" data-name="Trazado 100904" d="M1404.879,574.741h-23.016v12.016h-2.595v.789h3.489V575.53h22.122Z" transform="translate(-1379.269 -571.917)" fill="#004062"/>
        <path id="Trazado_100905" data-name="Trazado 100905" d="M1402.167,572.5v14.84h-2.595v.789h3.489V572.5Z" transform="translate(-1373.941 -572.504)" fill="#004062"/>
      </g>
      <g id="Grupo_54218" data-name="Grupo 54218" transform="translate(4.517 8.175)">
        <rect id="Rectángulo_5137" data-name="Rectángulo 5137" width="8.66" height="2.199" fill="#004062"/>
        <rect id="Rectángulo_5138" data-name="Rectángulo 5138" width="8.663" height="2.199" transform="translate(52.436)" fill="#004062"/>
      </g>
      <rect id="Rectángulo_5139" data-name="Rectángulo 5139" width="70.133" height="48.376" transform="translate(0 9.244)" fill="#e13430"/>
      <path id="Trazado_100906" data-name="Trazado 100906" d="M1404.319,596.775h-6.651v-6.646H1388.6v6.646h-6.653v9.072h6.653v6.645h9.073v-6.645h6.651Z" transform="translate(-1358.062 -567.88)" fill="#fff"/>
      <path id="Trazado_100907" data-name="Trazado 100907" d="M1394.341,619.542a17.018,17.018,0,1,1,17.017-17.017A17.037,17.037,0,0,1,1394.341,619.542Zm0-32.773a15.756,15.756,0,1,0,15.756,15.756A15.773,15.773,0,0,0,1394.341,586.769Z" transform="translate(-1359.274 -569.092)" fill="#fdfefe"/>
      <path id="Trazado_100908" data-name="Trazado 100908" d="M1366.087,628.2V582.889h67.071v-3.062h-70.133V628.2Z" transform="translate(-1363.026 -570.582)" fill="#e13430"/>
      <path id="Trazado_100909" data-name="Trazado 100909" d="M1430.1,582.252V624.5h-67.071v3.062h70.133V582.252Z" transform="translate(-1363.026 -569.946)" fill="#e13430"/>
    </g>
    <g id="Grupo_54220" data-name="Grupo 54220" transform="translate(1266.559 580.455)">
      <circle id="Elipse_4243" data-name="Elipse 4243" cx="43.171" cy="43.171" r="43.171" fill="#237139"/>
      <circle id="Elipse_4244" data-name="Elipse 4244" cx="34.713" cy="34.713" r="34.713" transform="translate(8.458 8.458)" fill="none" stroke="#fff" stroke-miterlimit="10" stroke-width="0.25"/>
      <path id="Trazado_100910" data-name="Trazado 100910" d="M1283.04,589.216a5.645,5.645,0,0,0-3.463-1.434h-5.18a2.1,2.1,0,0,0-1.5,3.571l7.672,7.851h-20.99a2.256,2.256,0,0,0-1.709.747c-2.93,3.386-.582,7.264,2.671,7.264h20.028l-7.672,7.851a2.1,2.1,0,0,0,1.5,3.571h5.18a5.646,5.646,0,0,0,3.463-1.434l13.136-13.136a1.211,1.211,0,0,0,0-1.713Z" transform="translate(-1233.361 -560.287)" fill="#fcfeff"/>
    </g>
    <g id="Grupo_54237" data-name="Grupo 54237" transform="translate(1579.937 580.839)">
      <g id="Grupo_54222" data-name="Grupo 54222" transform="translate(26.888 5.837)">
        <g id="Grupo_54221" data-name="Grupo 54221">
          <rect id="Rectángulo_5140" data-name="Rectángulo 5140" width="5.837" height="13.754" fill="#3c4254"/>
        </g>
      </g>
      <g id="Grupo_54223" data-name="Grupo 54223" transform="translate(29.806 5.837)" opacity="0.2">
        <path id="Trazado_100911" data-name="Trazado 100911" d="M1512.95,584.489V570.93h-2.919v13.279A15.883,15.883,0,0,1,1512.95,584.489Z" transform="translate(-1510.032 -570.93)" fill="#040506"/>
      </g>
      <g id="Grupo_54224" data-name="Grupo 54224" transform="translate(13.972 19.116)">
        <path id="Trazado_100912" data-name="Trazado 100912" d="M1525.125,644.862h-23.6a4.031,4.031,0,0,1-4.032-4.031v-43.55a15.833,15.833,0,0,1,15.834-15.833h0a15.832,15.832,0,0,1,15.833,15.833v43.55A4.03,4.03,0,0,1,1525.125,644.862Z" transform="translate(-1497.489 -581.449)" fill="#e1302b"/>
      </g>
      <g id="Grupo_54225" data-name="Grupo 54225" transform="translate(29.806 19.396)">
        <path id="Trazado_100913" data-name="Trazado 100913" d="M1525.865,597.225a15.83,15.83,0,0,0-12.914-15.554h-2.919V644.8h11.8a4.03,4.03,0,0,0,4.031-4.031Z" transform="translate(-1510.032 -581.671)" fill="#dc190f"/>
      </g>
      <g id="Grupo_54227" data-name="Grupo 54227" transform="translate(34.49 2.825)">
        <g id="Grupo_54226" data-name="Grupo 54226">
          <path id="Trazado_100914" data-name="Trazado 100914" d="M1535.279,577.758l-21.538-6.417.835-2.8,18.845,5.615a2.807,2.807,0,0,1,1.89,3.493Z" transform="translate(-1513.742 -568.544)" fill="#262a38"/>
        </g>
      </g>
      <g id="Grupo_54229" data-name="Grupo 54229" transform="translate(26.048 16.49)">
        <g id="Grupo_54228" data-name="Grupo 54228">
          <rect id="Rectángulo_5141" data-name="Rectángulo 5141" width="7.516" height="2.918" fill="#040506"/>
        </g>
      </g>
      <g id="Grupo_54230" data-name="Grupo 54230" transform="translate(22.62)">
        <path id="Trazado_100915" data-name="Trazado 100915" d="M1504.339,569.225h0a2.919,2.919,0,0,0,2.919,2.919h.51v2.919h7.516v-2.919h.353a9.394,9.394,0,0,0,4.536-1.168h0a9.387,9.387,0,0,1,4.535-1.168h11.443a3.5,3.5,0,0,0,3.5-3.5h-32.4A2.918,2.918,0,0,0,1504.339,569.225Z" transform="translate(-1504.339 -566.306)" fill="#040506"/>
      </g>
      <g id="Grupo_54232" data-name="Grupo 54232" transform="translate(5.983 11.382)">
        <g id="Grupo_54231" data-name="Grupo 54231">
          <path id="Trazado_100916" data-name="Trazado 100916" d="M1494.079,605.238h-2.919v-5.181a24.736,24.736,0,0,1,24.735-24.735h2.847v2.919h-3.5a21.161,21.161,0,0,0-21.16,21.16Z" transform="translate(-1491.16 -575.322)" fill="#262a38"/>
        </g>
      </g>
      <g id="Grupo_54233" data-name="Grupo 54233" transform="translate(0 41.297)">
        <path id="Trazado_100917" data-name="Trazado 100917" d="M1501.014,615.072h-14.593l4.67-16.052h5.254Z" transform="translate(-1486.421 -599.02)" fill="#040506"/>
      </g>
      <g id="Grupo_54234" data-name="Grupo 54234" transform="translate(13.972 36.568)">
        <rect id="Rectángulo_5142" data-name="Rectángulo 5142" width="31.667" height="1.519" fill="#c0cedc"/>
      </g>
      <g id="Grupo_54235" data-name="Grupo 54235" transform="translate(13.972 41.773)">
        <rect id="Rectángulo_5143" data-name="Rectángulo 5143" width="31.667" height="1.519" fill="#c0cedc"/>
      </g>
      <g id="Grupo_54236" data-name="Grupo 54236" transform="translate(7.297 41.297)" opacity="0.4">
        <path id="Trazado_100918" data-name="Trazado 100918" d="M1494.827,599.02H1492.2v16.052h7.3Z" transform="translate(-1492.201 -599.02)" fill="#3c4254"/>
      </g>
    </g>
    <g id="Grupo_54291" data-name="Grupo 54291" transform="translate(1721.664 586.757)">
      <g id="Grupo_54239" data-name="Grupo 54239" transform="translate(16.814 4.473)">
        <g id="Grupo_54238" data-name="Grupo 54238">
          <path id="Trazado_100919" data-name="Trazado 100919" d="M1630.136,574.816c-10.34,1.848-14.96-.228-16.719,10.608s-2.711,21.429,2.386,27.936,10.8,10.8,18.274,10.723,12.349-2.07,15.868-8.3,5.862-17.215,6.293-26.589S1639.98,573.057,1630.136,574.816Z" transform="translate(-1612.01 -574.537)" fill="#fff"/>
        </g>
      </g>
      <g id="Grupo_54241" data-name="Grupo 54241" transform="translate(23.831 25.198)">
        <g id="Grupo_54240" data-name="Grupo 54240">
          <path id="Trazado_100920" data-name="Trazado 100920" d="M1617.569,612.293s3.64-13.995,8.169-18.542c4.257-4.274,12.148-3.946,15.511,3.061,3.47,7.231,6.98,17.416,6.98,17.416Z" transform="translate(-1617.569 -590.955)" fill="#b5b4b4"/>
        </g>
      </g>
      <g id="Grupo_54243" data-name="Grupo 54243" transform="translate(15.179 6.291)">
        <g id="Grupo_54242" data-name="Grupo 54242">
          <path id="Trazado_100921" data-name="Trazado 100921" d="M1652.06,579.615c-3.857-4.584-14.5-3.684-17.622-3.307-3.126-.376-13.765-1.276-17.622,3.307-4.543,5.4-8.223,19.313-4.695,26.164S1624.078,622,1624.078,622l1-4.7s-6.7-4.354-7.507-12.037-2.974-19.821,3.114-23.88c1.8-1.2,5.265-1.678,8.371-1.851,1.729-.1,8.723-.1,10.258-.025,3.228.148,6.98.608,8.881,1.876,6.088,4.06,3.92,16.2,3.114,23.88S1643.8,617.3,1643.8,617.3l1,4.7s8.428-9.369,11.956-16.22S1656.6,585.014,1652.06,579.615Z" transform="translate(-1610.715 -575.978)" fill="#272727"/>
        </g>
      </g>
      <g id="Grupo_54245" data-name="Grupo 54245" transform="translate(18.628)">
        <g id="Grupo_54244" data-name="Grupo 54244">
          <path id="Trazado_100922" data-name="Trazado 100922" d="M1619.548,571.725c-4.38,1.612-6.1,3.729-6.1,3.729l2.688,3.633,12.169-3.633.034-4.181C1628.255,571.288,1623.163,570.4,1619.548,571.725Z" transform="translate(-1613.447 -570.994)" fill="#272727"/>
        </g>
      </g>
      <g id="Grupo_54247" data-name="Grupo 54247" transform="translate(43.777)">
        <g id="Grupo_54246" data-name="Grupo 54246">
          <path id="Trazado_100923" data-name="Trazado 100923" d="M1642.159,571.725c4.381,1.612,6.1,3.729,6.1,3.729l-2.686,3.633-12.171-3.633-.034-4.181C1633.452,571.288,1638.543,570.4,1642.159,571.725Z" transform="translate(-1633.369 -570.994)" fill="#272727"/>
        </g>
      </g>
      <g id="Grupo_54250" data-name="Grupo 54250" transform="translate(13.224 2.194)">
        <g id="Grupo_54249" data-name="Grupo 54249">
          <g id="Grupo_54248" data-name="Grupo 54248">
            <path id="Trazado_100924" data-name="Trazado 100924" d="M1639.977,572.732H1628.95c-11.778,0-20.187,6.046-19.769,16.472s-.135,22.169,5.339,29.4,13.837,11.8,19.553,11.849c5.883.046,14.861-4.613,20.334-11.849s4.922-18.977,5.34-29.4S1651.755,572.732,1639.977,572.732Zm12.149,38.67c-2.811,6.77-13.149,12.782-13.149,12.782l-4.154.337v.035l-.216-.018-.215.018v-.035l-4.155-.337s-10.338-6.011-13.148-12.782-2.416-23.523-.792-26.615c3.328-6.331,10.258-6.159,18.308-6.155s14.982-.175,18.309,6.155C1654.542,587.879,1654.936,604.633,1652.126,611.4Z" transform="translate(-1609.166 -572.732)" fill="#333"/>
          </g>
        </g>
      </g>
      <g id="Grupo_54252" data-name="Grupo 54252" transform="translate(27.173 29.252)">
        <g id="Grupo_54251" data-name="Grupo 54251">
          <path id="Trazado_100925" data-name="Trazado 100925" d="M1640.834,603.884c-1.877-3.347-2.816-9.718-9.286-9.718s-7.087,6.371-8.964,9.718-4.224,10.464,0,14.531a13.089,13.089,0,0,0,8.964,3.838,13.63,13.63,0,0,0,9.286-3.838C1645.058,614.348,1642.713,607.23,1640.834,603.884Z" transform="translate(-1620.216 -594.166)" fill="#ffaf00"/>
        </g>
      </g>
      <g id="Grupo_54254" data-name="Grupo 54254" transform="translate(29.54 40.649)">
        <g id="Grupo_54253" data-name="Grupo 54253">
          <ellipse id="Elipse_4245" data-name="Elipse 4245" cx="8.985" cy="8.919" rx="8.985" ry="8.919" fill="#ea9700"/>
        </g>
      </g>
      <g id="Grupo_54256" data-name="Grupo 54256" transform="translate(4.102 42.403)">
        <g id="Grupo_54255" data-name="Grupo 54255">
          <path id="Trazado_100926" data-name="Trazado 100926" d="M1601.941,608.253l3.51-3.67,16.81,19.6-6.623,3.86Z" transform="translate(-1601.941 -604.584)" fill="#ea9700"/>
        </g>
      </g>
      <g id="Grupo_54272" data-name="Grupo 54272" transform="translate(0 40.65)">
        <g id="Grupo_54259" data-name="Grupo 54259" transform="translate(3.857)">
          <g id="Grupo_54258" data-name="Grupo 54258">
            <g id="Grupo_54257" data-name="Grupo 54257">
              <path id="Trazado_100927" data-name="Trazado 100927" d="M1621.72,609.081c4.267,5.759,3.948,13.381.592,15.464-4.96,3.078-13.312,2.881-17.578-2.878s-3.922-13.244.768-16.719S1617.453,603.324,1621.72,609.081Z" transform="translate(-1601.746 -603.195)" fill="#ea9700"/>
            </g>
          </g>
        </g>
        <g id="Grupo_54262" data-name="Grupo 54262" transform="translate(0 4.259)">
          <g id="Grupo_54261" data-name="Grupo 54261">
            <g id="Grupo_54260" data-name="Grupo 54260">
              <path id="Trazado_100928" data-name="Trazado 100928" d="M1617.2,612.025c3.955,5.336,3.635,12.274-.711,15.494s-11.077,1.506-15.031-3.831-3.636-12.274.711-15.494S1613.249,606.688,1617.2,612.025Z" transform="translate(-1598.691 -606.568)" fill="#fff"/>
            </g>
          </g>
        </g>
        <g id="Grupo_54265" data-name="Grupo 54265" transform="translate(2.22 6.613)">
          <g id="Grupo_54264" data-name="Grupo 54264">
            <g id="Grupo_54263" data-name="Grupo 54263">
              <path id="Trazado_100929" data-name="Trazado 100929" d="M1615.1,612.753c3.13,4.223,2.878,9.713-.563,12.261s-8.766,1.192-11.894-3.031-2.878-9.714.562-12.263S1611.969,608.529,1615.1,612.753Z" transform="translate(-1600.449 -608.434)" fill="#ffc03b"/>
            </g>
          </g>
        </g>
        <g id="Grupo_54268" data-name="Grupo 54268" transform="translate(4.694 9.258)">
          <g id="Grupo_54267" data-name="Grupo 54267">
            <g id="Grupo_54266" data-name="Grupo 54266">
              <path id="Trazado_100930" data-name="Trazado 100930" d="M1609.454,623.1a7.074,7.074,0,0,1-5.518-3.008,7.428,7.428,0,0,1-1.52-4.719,4.855,4.855,0,0,1,6.288-4.658,7.427,7.427,0,0,1,4.071,2.826h0a7.415,7.415,0,0,1,1.519,4.719,5.029,5.029,0,0,1-1.964,3.921A4.773,4.773,0,0,1,1609.454,623.1Zm-2.194-11.894a4.11,4.11,0,0,0-2.475.792,4.367,4.367,0,0,0-1.69,3.407,6.745,6.745,0,0,0,1.386,4.283c1.969,2.657,5.312,3.531,7.447,1.949a4.372,4.372,0,0,0,1.69-3.408,6.753,6.753,0,0,0-1.386-4.283h0a6.75,6.75,0,0,0-3.695-2.574A5.134,5.134,0,0,0,1607.26,611.207Z" transform="translate(-1602.41 -610.528)" fill="#fff"/>
            </g>
          </g>
        </g>
        <g id="Grupo_54271" data-name="Grupo 54271" transform="translate(14.262 2.988)">
          <g id="Grupo_54270" data-name="Grupo 54270">
            <g id="Grupo_54269" data-name="Grupo 54269">
              <path id="Trazado_100931" data-name="Trazado 100931" d="M1609.989,605.562a18.062,18.062,0,0,1,7.019,7.119c1.78,3.29,2.925,8.94,0,13.074,1.357-.786,3.142-1.83,3.142-1.83a12.992,12.992,0,0,0-.853-12.432C1615.508,605.393,1609.989,605.562,1609.989,605.562Z" transform="translate(-1609.989 -605.561)" fill="#333"/>
            </g>
          </g>
        </g>
      </g>
      <g id="Grupo_54290" data-name="Grupo 54290" transform="translate(50.325 40.65)">
        <g id="Grupo_54275" data-name="Grupo 54275">
          <g id="Grupo_54274" data-name="Grupo 54274">
            <g id="Grupo_54273" data-name="Grupo 54273">
              <path id="Trazado_100932" data-name="Trazado 100932" d="M1641.712,609.081c-4.267,5.759-3.948,13.381-.592,15.464,4.961,3.078,13.312,2.881,17.578-2.878s3.922-13.244-.767-16.719S1645.979,603.324,1641.712,609.081Z" transform="translate(-1638.556 -603.195)" fill="#ea9700"/>
            </g>
          </g>
        </g>
        <g id="Grupo_54277" data-name="Grupo 54277" transform="translate(2.563 1.753)">
          <g id="Grupo_54276" data-name="Grupo 54276">
            <path id="Trazado_100933" data-name="Trazado 100933" d="M1661.529,608.714l-4.132-4.13-16.81,19.6,6.623,3.86Z" transform="translate(-1640.587 -604.584)" fill="#ea9700"/>
          </g>
        </g>
        <g id="Grupo_54280" data-name="Grupo 54280" transform="translate(1.315 0.052)">
          <g id="Grupo_54279" data-name="Grupo 54279" transform="translate(0 0)">
            <g id="Grupo_54278" data-name="Grupo 54278">
              <ellipse id="Elipse_4246" data-name="Elipse 4246" cx="12.027" cy="9.796" rx="12.027" ry="9.796" transform="matrix(0.595, -0.803, 0.803, 0.595, 0, 19.327)" fill="#fff"/>
            </g>
          </g>
        </g>
        <g id="Grupo_54283" data-name="Grupo 54283" transform="translate(7.926 6.613)">
          <g id="Grupo_54282" data-name="Grupo 54282">
            <g id="Grupo_54281" data-name="Grupo 54281">
              <path id="Trazado_100934" data-name="Trazado 100934" d="M1647.026,612.753c-3.129,4.223-2.877,9.713.563,12.261s8.766,1.192,11.9-3.031,2.877-9.714-.563-12.263S1650.156,608.529,1647.026,612.753Z" transform="translate(-1644.835 -608.434)" fill="#ffc03b"/>
            </g>
          </g>
        </g>
        <g id="Grupo_54286" data-name="Grupo 54286" transform="translate(10.401 9.258)">
          <g id="Grupo_54285" data-name="Grupo 54285">
            <g id="Grupo_54284" data-name="Grupo 54284">
              <path id="Trazado_100935" data-name="Trazado 100935" d="M1651.642,623.1a7.079,7.079,0,0,0,5.519-3.008,7.435,7.435,0,0,0,1.519-4.719,4.854,4.854,0,0,0-6.288-4.658,7.429,7.429,0,0,0-4.071,2.826h0a7.418,7.418,0,0,0-1.519,4.719,5.03,5.03,0,0,0,1.964,3.921A4.773,4.773,0,0,0,1651.642,623.1Zm2.194-11.894a4.108,4.108,0,0,1,2.475.792,4.372,4.372,0,0,1,1.692,3.407,6.748,6.748,0,0,1-1.387,4.283c-1.969,2.657-5.312,3.531-7.445,1.949a4.368,4.368,0,0,1-1.692-3.408,6.752,6.752,0,0,1,1.386-4.283h0a6.75,6.75,0,0,1,3.7-2.574A5.132,5.132,0,0,1,1653.836,611.207Z" transform="translate(-1646.795 -610.528)" fill="#fff"/>
            </g>
          </g>
        </g>
        <g id="Grupo_54289" data-name="Grupo 54289" transform="translate(1.373 2.988)">
          <g id="Grupo_54288" data-name="Grupo 54288">
            <g id="Grupo_54287" data-name="Grupo 54287">
              <path id="Trazado_100936" data-name="Trazado 100936" d="M1651,605.562a18.062,18.062,0,0,0-7.019,7.119c-1.779,3.29-2.925,8.94,0,13.074-1.357-.786-3.142-1.83-3.142-1.83a12.993,12.993,0,0,1,.853-12.432C1645.476,605.393,1651,605.562,1651,605.562Z" transform="translate(-1639.644 -605.561)" fill="#333"/>
            </g>
          </g>
        </g>
      </g>
    </g>
  </g>
</svg>
