<svg xmlns="http://www.w3.org/2000/svg" width="100" height="100" viewBox="0 0 100 100">
  <g id="Grupo_55778" data-name="Grupo 55778" transform="translate(-633 -3531)">
    <g id="Grupo_55775" data-name="Grupo 55775">
      <circle id="Elipse_1147" data-name="Elipse 1147" cx="50" cy="50" r="50" transform="translate(633 3531)" fill="#badb4c"/>
      <path id="Trazado_100173" data-name="Trazado 100173" d="M832.1,560.684l-22.841,7.784,1.034,19.663,1.566,16.479,21.366,18.913c15.588-5.257,27.175-21.481,29-38.359Z" transform="translate(-129.947 3001.686)" fill="#95af3d" opacity="0.3" style="mix-blend-mode: multiply;isolation: isolate"/>
      <path id="Trazado_100174" data-name="Trazado 100174" d="M799.667,613.789l43.622.236.316-59.709-35.893-.194-7.77,7.57Z" transform="translate(-138.61 2995.759)" fill="#fff"/>
      <rect id="Rectángulo_5073" data-name="Rectángulo 5073" width="27.818" height="2.791" transform="matrix(-1, -0.005, 0.005, -1, 697.316, 3567.284)" fill="#95c0d9"/>
      <rect id="Rectángulo_5074" data-name="Rectángulo 5074" width="27.818" height="2.791" transform="translate(697.279 3574.242) rotate(-179.69)" fill="#95c0d9"/>
      <rect id="Rectángulo_5075" data-name="Rectángulo 5075" width="27.818" height="2.791" transform="translate(697.239 3581.851) rotate(-179.69)" fill="#95c0d9"/>
      <rect id="Rectángulo_5076" data-name="Rectángulo 5076" width="27.818" height="2.791" transform="matrix(-1, -0.005, 0.005, -1, 697.2, 3589.107)" fill="#95c0d9"/>
      <rect id="Rectángulo_5077" data-name="Rectángulo 5077" width="27.818" height="2.791" transform="translate(697.16 3596.716) rotate(-179.69)" fill="#95c0d9"/>
    </g>
    <path id="Trazado_100175" data-name="Trazado 100175" d="M799.812,561.546l7.73.042.04-7.466Z" transform="translate(-138.479 2995.759)" fill="#f49b11"/>
  </g>
</svg>
