<svg xmlns="http://www.w3.org/2000/svg" width="126" height="126" viewBox="0 0 126 126">
  <g id="Grupo_55773" data-name="Grupo 55773" transform="translate(-232 -8032)">
    <g id="Elipse_4247" data-name="Elipse 4247" transform="translate(232 8032)" fill="#cfe194" stroke="#95af3d" stroke-width="3">
      <circle cx="63" cy="63" r="63" stroke="none"/>
      <circle cx="63" cy="63" r="61.5" fill="none"/>
    </g>
    <g id="Grupo_54298" data-name="Grupo 54298" transform="translate(-991.202 7547.869)">
      <path id="Trazado_100938" data-name="Trazado 100938" d="M1292.452,511.381l-32,35.75,21.834,12.622,1.9,19.963,25.887,22.915c18.886-6.37,32.925-26.025,35.132-46.473Z" fill="#95af3d" opacity="0.5"/>
      <path id="Trazado_100939" data-name="Trazado 100939" d="M1272.34,578.846h7.235s1.252-15.721,0-19.478-6.122-7.651-6.122-7.651l-13.217-5.565-12.1,29.911s.418,2.783,3.061,2.783h4.731l9.738-27.129s5.7,5.7,6.817,9.46S1272.34,578.846,1272.34,578.846Z" fill="#212513"/>
      <path id="Trazado_100940" data-name="Trazado 100940" d="M1252.028,534.883s6.713-8.243,9.495-9.635,10.678-2.747,16.243-1.356a12.917,12.917,0,0,1,7.93,5.982,42.31,42.31,0,0,1,3.478,9.043c.835,4.035.012,13.093.012,13.093l-5.577-1.267a68.606,68.606,0,0,0,.139-10.295c-.417-4.035-1.808-5.843-1.808-5.843l-6.817,10.016-12.8-4.173,8.556-11.826a17.331,17.331,0,0,0-6.017.9c-2.6,1.036-7.269,8-7.269,8Z" fill="#c6d1de"/>
      <rect id="Rectángulo_5151" data-name="Rectángulo 5151" width="53.98" height="4.452" transform="translate(1250.076 533.479) rotate(23.186)" fill="#6c6d6d"/>
      <path id="Trazado_100941" data-name="Trazado 100941" d="M1294.461,516.866a7.165,7.165,0,1,1-7.165-7.165A7.165,7.165,0,0,1,1294.461,516.866Z" fill="#fff"/>
      <path id="Trazado_100942" data-name="Trazado 100942" d="M1285.14,579.263s5.982-13.217,8.347-14.747a4.563,4.563,0,0,1,4.73,0s5.843-11.408,8.208-12.382a3.105,3.105,0,0,1,3.757,1.252l18.5,26.434Z" fill="#ffaf00"/>
      <rect id="Rectángulo_5152" data-name="Rectángulo 5152" width="7.561" height="5.107" transform="translate(1272.34 573.739)" fill="#25424d"/>
      <path id="Trazado_100943" data-name="Trazado 100943" d="M1257.665,573.739h-9.417v5.107h7.561Z" fill="#25424d"/>
      <rect id="Rectángulo_5153" data-name="Rectángulo 5153" width="53.98" height="1.817" transform="translate(1249.557 533.479) rotate(23.186)" fill="#8f97a2"/>
      <path id="Trazado_100944" data-name="Trazado 100944" d="M1277.266,528.764h7.963a12.936,12.936,0,0,0-7.291-4.986,19.383,19.383,0,0,0-2.905-.47Z" fill="#fff"/>
      <path id="Trazado_100945" data-name="Trazado 100945" d="M1295.035,516.266a7.647,7.647,0,0,0-5.158-7.577c-4.016-1.521-8.38.172-9.746,3.78l8.78,3.324,5.764,2.182,4.742,1.8.612-1.614Z" fill="#ffaf00"/>
      <path id="Trazado_100946" data-name="Trazado 100946" d="M1297.407,564.622a4.432,4.432,0,0,0-4.35.2c-2.365,1.531-8.348,14.748-8.348,14.748l19.5.249Z" fill="#ffcb6d"/>
    </g>
  </g>
</svg>
