<svg xmlns="http://www.w3.org/2000/svg" width="126" height="126" viewBox="0 0 126 126">
  <g id="Grupo_55775" data-name="Grupo 55775" transform="translate(-232 -8447)">
    <g id="Elipse_4249" data-name="Elipse 4249" transform="translate(232 8447)" fill="#cfe194" stroke="#95af3d" stroke-width="3">
      <circle cx="63" cy="63" r="63" stroke="none"/>
      <circle cx="63" cy="63" r="61.5" fill="none"/>
    </g>
    <g id="Grupo_54305" data-name="Grupo 54305" transform="translate(-1271.779 7961.642)">
      <path id="Trazado_100953" data-name="Trazado 100953" d="M1589.283,527.224l-27.674,9.432,1.254,23.823-6.5,12.858,34.285,30.021c18.886-6.37,32.924-26.026,35.132-46.473Z" fill="#95af3d" opacity="0.5"/>
      <g id="Grupo_54303" data-name="Grupo 54303">
        <rect id="Rect치ngulo_5156" data-name="Rect치ngulo 5156" width="9.385" height="19.496" transform="translate(1560.671 578.308)" fill="#212513" opacity="0.8"/>
        <g id="Grupo_54302" data-name="Grupo 54302">
          <rect id="Rect치ngulo_5157" data-name="Rect치ngulo 5157" width="53.586" height="53.586" transform="translate(1527.472 543.054) rotate(-45)" fill="#ffca43"/>
          <path id="Trazado_100954" data-name="Trazado 100954" d="M1565.363,505.162l37.891,37.891-37.891,37.892-37.891-37.892,37.891-37.891m0-4.5a4.485,4.485,0,0,0-3.181,1.318l-37.891,37.891a4.5,4.5,0,0,0,0,6.363l37.891,37.891a4.5,4.5,0,0,0,6.362,0l37.892-37.891a4.5,4.5,0,0,0,0-6.363l-37.892-37.891a4.485,4.485,0,0,0-3.181-1.318Z" fill="#212513" opacity="0.8"/>
        </g>
      </g>
      <g id="Grupo_54304" data-name="Grupo 54304">
        <path id="Trazado_100955" data-name="Trazado 100955" d="M1586.541,543.806a21.337,21.337,0,0,1-21.731,21.075c-11.284-.209-20.641-9.8-20.625-21.543.016-11.406,9.737-20.859,21.422-20.832A21.244,21.244,0,0,1,1586.541,543.806Zm-41.116-.093a19.956,19.956,0,1,0,19.832-20A19.983,19.983,0,0,0,1545.425,543.713Z" fill="#212513"/>
        <path id="Trazado_100956" data-name="Trazado 100956" d="M1562.3,549.424a6.725,6.725,0,0,0,6.247-.054q3.093,5.351,6.158,10.647c-3.309,3.375-14.418,3.377-18.523,0Z" fill="#212513"/>
        <path id="Trazado_100957" data-name="Trazado 100957" d="M1568.892,538l5.987-10.369c5.2,2.5,9.548,9.521,9.336,15.745H1572.06a18.124,18.124,0,0,0-1.113-2.927A18.33,18.33,0,0,0,1568.892,538Z" fill="#212513"/>
        <path id="Trazado_100958" data-name="Trazado 100958" d="M1546.75,543.459c-.167-5.975,3.715-13.031,9.262-15.8l6.024,10.427a6.864,6.864,0,0,0-3.127,4.875.729.729,0,0,1-.518.477C1554.531,543.466,1550.671,543.459,1546.75,543.459Z" fill="#212513"/>
        <path id="Trazado_100959" data-name="Trazado 100959" d="M1570.786,543.7a5.421,5.421,0,0,1-10.841.037,5.421,5.421,0,1,1,10.841-.037Z" fill="#212513"/>
      </g>
    </g>
  </g>
</svg>
