<svg xmlns="http://www.w3.org/2000/svg" xmlns:xlink="http://www.w3.org/1999/xlink" width="126" height="126" viewBox="0 0 126 126">
  <defs>
    <clipPath id="clip-path">
      <circle id="Elipse_4335" data-name="Elipse 4335" cx="60" cy="60" r="60" transform="translate(235 8851)" fill="#cfe194"/>
    </clipPath>
  </defs>
  <g id="Grupo_55827" data-name="Grupo 55827" transform="translate(-232 -8848)">
    <g id="Elipse_4251" data-name="Elipse 4251" transform="translate(232 8848)" fill="#cfe194" stroke="#95af3d" stroke-width="3">
      <circle cx="63" cy="63" r="63" stroke="none"/>
      <circle cx="63" cy="63" r="61.5" fill="none"/>
    </g>
    <path id="Trazado_100967" data-name="Trazado 100967" d="M1893.74,574.411l-47.3-47.306h-.009l-11.317-6.54-11.326,6.54v13.079l23.84,23.841v8.3a2.853,2.853,0,0,1-.078.648l-25.318-25.317c-.031-.032-.072-.057-.11-.089a1.138,1.138,0,0,0-.7-.245,1.2,1.2,0,0,0-.532.132c-.04.026-.078.047-.116.069-.481.3-.949.61-1.411.934-.11.078-.217.16-.324.242-.345.251-.688.5-1.021.767-.135.113-.267.229-.4.342-.3.245-.591.49-.877.751-.144.132-.283.271-.427.406-.261.248-.525.5-.78.757-.147.151-.289.311-.434.468-.235.252-.471.5-.7.764-.148.17-.289.349-.431.525-.21.254-.421.512-.622.776-.144.188-.279.383-.421.575-.185.261-.374.519-.553.786-.138.2-.267.418-.4.625-.163.264-.329.528-.486.795-.129.223-.252.45-.378.676-.144.264-.289.531-.424.8-.119.239-.236.481-.349.723-.125.267-.245.534-.361.8-.11.254-.214.509-.314.767s-.208.537-.305.81-.189.538-.274.808-.169.541-.248.814-.157.566-.229.852c-.069.267-.129.537-.192.81-.063.3-.126.591-.182.893-.051.264-.092.534-.132.8-.051.308-.095.62-.132.934-.032.264-.057.528-.079.795-.028.327-.059.65-.075.98,0,.079-.016.157-.019.236l.009.009c-.019.418-.041.833-.041,1.254a27.287,27.287,0,0,0,7.546,18.866c.305.311.616.622.93.93l8.9,8.909,19.607,19.608A60.6,60.6,0,0,0,1893.74,574.411Z" transform="translate(-1540.095 8350.906)" fill="#95af3d" opacity="0.5"/>
    <g id="Grupo_54315" data-name="Grupo 54315" transform="translate(-1540.095 8350.906)">
      <path id="Trazado_100970" data-name="Trazado 100970" d="M1835.107,520.568l-11.326,6.537v13.079l11.326,6.54,11.323-6.54,0-13.079Zm0,18.554a5.476,5.476,0,1,1,5.474-5.474A5.476,5.476,0,0,1,1835.107,539.122Z" fill="#212513"/>
      <path id="Trazado_100971" data-name="Trazado 100971" d="M1835.095,527.007a6.639,6.639,0,1,0,6.64,6.641A6.638,6.638,0,0,0,1835.095,527.007Zm0,10.544a3.9,3.9,0,1,1,3.906-3.9A3.9,3.9,0,0,1,1835.095,537.551Z" fill="#272d34"/>
    </g>
    <g id="Enmascarar_grupo_46" data-name="Enmascarar grupo 46" clip-path="url(#clip-path)">
      <g id="Grupo_54312" data-name="Grupo 54312" transform="translate(-1540.095 8350.679)">
        <path id="Trazado_100968" data-name="Trazado 100968" d="M1849.419,547.526a1.341,1.341,0,0,0-.113-.073,1.148,1.148,0,0,0-1.682,1.012v23.856a3.035,3.035,0,0,1-3.035,3.036H1825.6a3.035,3.035,0,0,1-3.036-3.036V548.465a1.148,1.148,0,0,0-1.682-1.012.95.95,0,0,0-.11.073,27.337,27.337,0,1,0,28.646,0Z" fill="#fff"/>
        <path id="Trazado_100969" data-name="Trazado 100969" d="M1845.459,623.77H1824.73L1825.3,590h19.585Z" fill="#fff"/>
      </g>
    </g>
  </g>
</svg>
