<svg xmlns="http://www.w3.org/2000/svg" width="126" height="126" viewBox="0 0 126 126">
  <g id="Grupo_55778" data-name="Grupo 55778" transform="translate(-232 -9039.5)">
    <g id="Elipse_4252" data-name="Elipse 4252" transform="translate(232 9039.5)" fill="#cfe194" stroke="#95af3d" stroke-width="3">
      <circle cx="63" cy="63" r="63" stroke="none"/>
      <circle cx="63" cy="63" r="61.5" fill="none"/>
    </g>
    <g id="Grupo_54318" data-name="Grupo 54318" transform="translate(-1691.992 8553.854)">
      <path id="Trazado_100972" data-name="Trazado 100972" d="M2044.992,563.17l-32.323-44.809-17.24-5.861-9.067-3.176-11.326,6.54v13.079l23.84,23.84v8.3a2.831,2.831,0,0,1-.078.647L1973.48,536.41c-.031-.031-.072-.056-.11-.088a1.138,1.138,0,0,0-.7-.245,1.186,1.186,0,0,0-.532.132c-.04.025-.078.047-.116.069-.48.3-.949.61-1.411.934-.11.078-.217.16-.324.242-.345.251-.688.5-1.021.767-.135.113-.267.229-.4.342-.3.245-.591.49-.877.751-.144.132-.283.27-.427.406-.261.248-.525.5-.78.757-.147.151-.289.311-.434.468-.235.252-.471.5-.7.764-.148.17-.289.349-.431.525-.21.254-.421.512-.622.776-.144.188-.279.383-.421.575-.185.261-.374.519-.553.786a6.436,6.436,0,0,0,.715,2.075c1.177,1.91,7.967,10.579,1.9,3.581-.168-.194,3.008,2.707-.639-.612-.223-.2-.088.6-.223.871-.12.239,1.321,1.829,1.208,2.071-.126.267.461.9.345,1.165s.273,1.037.172,1.3,1.047.978.95,1.251a2.568,2.568,0,0,0-.095.267c-.087.27-.043.221-.121.494s3.61.636,3.538.922c-.069.267-.628.589-.69.862-.063.3-1.238-.517-1.3-.215-.05.264-.908-1.349-.949-1.079-.05.308.253-.055.216.259-.031.264.151.251.129.518-.028.327.533.5.863.5,9.679.119.046.281.043.36l.993.259c-.019.418,2.157.571,2.157.992,0,7.313-.115,7.967,5.917,4.889,11.865-6.055-4.454,12.785-4.14,13.093l1.773,10.075,19.607,19.608A60.6,60.6,0,0,0,2044.992,563.17Z" fill="#8ea02a" opacity="0.5"/>
      <path id="Trazado_100973" data-name="Trazado 100973" d="M1963.01,571.781l-10.4-9.611,5.231.028-6.535-10.03,11.964,12.166-4.132.655Z" fill="#212513"/>
      <path id="Trazado_100974" data-name="Trazado 100974" d="M1959.63,578.291l-9.929-3.31,1.949,5.02s-10.6.5-10.235.416,14.063,2.715,14.063,2.715l-1.78-4.925Z" fill="#212513"/>
      <path id="Trazado_100975" data-name="Trazado 100975" d="M2010.6,569.337c2.357-2.55,2.712-12.689,2.712-12.689a13.364,13.364,0,0,0,3.875-1.55s-4.643-6.65-1.938-21.7c3.1-17.243-16.015-37.65-40.684-23.83-23.974,13.43-9.171,42.751-4.779,52.05s3.616,21.7-7.233,27.382a61.242,61.242,0,0,0-11.683,8.063,60.427,60.427,0,0,0,71.618-.344c-9.07-8.607-21.3-13.488-22.609-15.34-1.55-2.2-1.485-10.978-1.485-10.978C2006.34,572.728,2009.2,570.86,2010.6,569.337Z" fill="#fff"/>
    </g>
  </g>
</svg>
