<svg xmlns="http://www.w3.org/2000/svg" width="126" height="126" viewBox="0 0 126 126">
  <g id="Grupo_55774" data-name="Grupo 55774" transform="translate(-896 -4545)">
    <g id="Elipse_4275" data-name="Elipse 4275" transform="translate(896 4545)" fill="#cfe194" stroke="#95af3d" stroke-width="3">
      <circle cx="63" cy="63" r="63" stroke="none"/>
      <circle cx="63" cy="63" r="61.5" fill="none"/>
    </g>
    <g id="Grupo_54549" data-name="Grupo 54549" transform="translate(-1106.4 3697.039)">
      <path id="Trazado_101625" data-name="Trazado 101625" d="M2134.829,944.073c1.194.41,2.163.7,3.1,1.071a16.864,16.864,0,0,1,10.237,15.188c0,2.219.025,4.439-.008,6.658a4.173,4.173,0,0,0,1.315,3.22,22.256,22.256,0,0,1,1.767,1.808,5.586,5.586,0,0,1,.985,5.743,5.4,5.4,0,0,1-4.39,3.627,8.684,8.684,0,0,1-1.587.145q-14.714.012-29.427,0c-3.578-.009-5.907-1.984-6.267-5.231a5.473,5.473,0,0,1,1.438-4.415c.5-.561,1.042-1.092,1.589-1.611a4.328,4.328,0,0,0,1.383-3.326,61,61,0,0,1,.2-8.636c1.037-7.184,5.257-11.781,12.183-13.91.21-.065.424-.121.632-.191.03-.01.043-.07.137-.237-.691-.478-1.417-.944-2.1-1.461a4.837,4.837,0,0,1-2.112-4.732,3.185,3.185,0,0,1,4.5-2.5,1.851,1.851,0,0,0,1.818.06c1.156-.583,2.263-.032,3.441.247,1.044.248,2.305-.519,3.4-.355a3.007,3.007,0,0,1,2.226,3.357,5.132,5.132,0,0,1-2.187,3.938C2136.41,943.008,2135.711,943.47,2134.829,944.073Z" transform="translate(-55.151 -42.951)" fill="#7e9434"/>
      <path id="Trazado_101626" data-name="Trazado 101626" d="M2074.032,935.4c-1.615,2.967-.963,5.658,1.017,8.241-.42.251-.789.467-1.154.688-6.1,3.692-9.45,9.021-9.626,16.221a48.2,48.2,0,0,0,.022,5.189,4.714,4.714,0,0,1-1.769,4.3,7.2,7.2,0,0,0-2.627,6.778,29.158,29.158,0,0,0,1.723,4.956,1.824,1.824,0,0,1-.5.066c-2.928.008-5.857.026-8.785,0-3.676-.031-5.852-2.167-6.02-5.843q-.655-14.355-1.315-28.709c-.176-3.93-.312-7.862-.47-11.887Z" transform="translate(-6.743 -43.26)" fill="#7e9434"/>
      <path id="Trazado_101627" data-name="Trazado 101627" d="M2048.55,883.132a25.653,25.653,0,0,1,.359-2.61,5.411,5.411,0,0,1,5.327-4.032c3.683-.065,7.368-.072,11.05.006a5.428,5.428,0,0,1,5.524,5.215c.039.4.053.793.088,1.347.482.025.949.069,1.416.07,3.373.006,6.746.031,10.119-.011,1.259-.015,1.793.5,1.73,1.746-.049.974-.005,1.953-.011,2.929-.01,1.728-.19,1.917-1.9,1.917q-21.17,0-42.34,0c-1.021,0-2.043-.033-3.062.008-1.1.045-1.52-.5-1.5-1.533.019-1.109.042-2.22,0-3.328-.053-1.254.5-1.756,1.744-1.742,3.284.04,6.568.015,9.852.016Zm2.4-.081h17.533c.487-2.643-.851-4.361-3.414-4.386-3.456-.034-6.913-.022-10.369-.005C2051.951,878.673,2050.706,880.088,2050.948,883.051Z" fill="#7e9434"/>
    </g>
  </g>
</svg>
