<svg xmlns="http://www.w3.org/2000/svg" width="126" height="126" viewBox="0 0 126 126">
  <g id="Grupo_55773" data-name="Grupo 55773" transform="translate(-140 -2691)">
    <g id="Elipse_4269" data-name="Elipse 4269" transform="translate(140 2691)" fill="#cfe194" stroke="#263101" stroke-width="3">
      <circle cx="63" cy="63" r="63" stroke="none"/>
      <circle cx="63" cy="63" r="61.5" fill="none"/>
    </g>
    <g id="forest" transform="translate(144.067 2641.287)">
      <path id="Trazado_101559" data-name="Trazado 101559" d="M136.695,176.572a1.465,1.465,0,0,0,1.426.064l8.791-4.4-1.31-2.621-6.671,3.335V168H136v7.326A1.465,1.465,0,0,0,136.695,176.572Z" transform="translate(-99.654 -71.902)" fill="#263101"/>
      <rect id="Rectángulo_5353" data-name="Rectángulo 5353" width="2.93" height="2.93" transform="translate(14.368 141.518)" fill="#263101"/>
      <path id="Trazado_101560" data-name="Trazado 101560" d="M384.864,219.828l-2.467-.822-.927,2.78,4.4,1.465a1.465,1.465,0,0,0,1.928-1.39V216h-2.93Z" transform="translate(-300.167 -111.111)" fill="#263101"/>
      <rect id="Rectángulo_5354" data-name="Rectángulo 5354" width="2.93" height="4.144" transform="translate(16.263 135.229) rotate(-45.002)" fill="#263101"/>
      <rect id="Rectángulo_5355" data-name="Rectángulo 5355" width="2.93" height="4.144" transform="translate(19.193 132.298) rotate(-45)" fill="#263101"/>
      <rect id="Rectángulo_5356" data-name="Rectángulo 5356" width="3.276" height="2.93" transform="matrix(0.447, -0.894, 0.894, 0.447, 24.779, 129.142)" fill="#263101"/>
      <rect id="Rectángulo_5357" data-name="Rectángulo 5357" width="2.93" height="2.93" transform="translate(99.348 141.518)" fill="#263101"/>
      <path id="Trazado_101561" data-name="Trazado 101561" d="M279.157,108.959a2.588,2.588,0,0,1,1.992-.139l.012,0a2.6,2.6,0,0,1,1.778,2.467,1.465,1.465,0,1,0,2.93,0,2.6,2.6,0,0,1,1.772-2.465l.024-.008a2.584,2.584,0,0,1,1.985.141l1.424.712,1.31-2.621-1.424-.712a5.489,5.489,0,0,0-4.216-.3l-.024.008a5.525,5.525,0,0,0-2.317,1.5,5.539,5.539,0,0,0-2.322-1.5l-.012,0a5.5,5.5,0,0,0-4.222.3l-1.424.712,1.31,2.621Z" transform="translate(-214.359 -21.054)" fill="#263101"/>
      <path id="Trazado_101562" data-name="Trazado 101562" d="M348.422,131.05l1.31,2.621,1.424-.712a2.589,2.589,0,0,1,1.992-.139l.012,0a2.6,2.6,0,0,1,1.778,2.467,1.465,1.465,0,1,0,2.93,0,2.6,2.6,0,0,1,1.772-2.465l.024-.008a2.583,2.583,0,0,1,1.985.141l1.424.712,1.31-2.621-1.424-.712a5.489,5.489,0,0,0-4.216-.3l-.024.008a5.525,5.525,0,0,0-2.317,1.5,5.539,5.539,0,0,0-2.322-1.5l-.012,0a5.494,5.494,0,0,0-4.222.3Z" transform="translate(-273.172 -40.658)" fill="#263101"/>
      <rect id="Rectángulo_5358" data-name="Rectángulo 5358" width="2.93" height="3.276" transform="matrix(0.447, -0.894, 0.894, 0.447, 59.133, 139.898)" fill="#263101"/>
      <rect id="Rectángulo_5359" data-name="Rectángulo 5359" width="2.93" height="3.276" transform="matrix(0.447, -0.894, 0.894, 0.447, 59.133, 135.503)" fill="#263101"/>
      <rect id="Rectángulo_5360" data-name="Rectángulo 5360" width="3.276" height="2.93" transform="matrix(0.447, -0.894, 0.894, 0.447, 93.642, 137.932)" fill="#263101"/>
      <rect id="Rectángulo_5361" data-name="Rectángulo 5361" width="3.276" height="2.93" transform="translate(98.037 137.933) rotate(-63.432)" fill="#263101"/>
      <path id="Trazado_101563" data-name="Trazado 101563" d="M92.022,127.783v-8.337a11.72,11.72,0,1,0-11.61-17.487H78.836a8.791,8.791,0,0,0,0,17.582H84.7v4.12a15.39,15.39,0,0,0-12,.056l-.513.22H70.95l-2.525-5.051a1.465,1.465,0,0,0-1.31-.81H65.473a6.165,6.165,0,0,0-3.255-4.086l-.309-.155L60.6,116.456l.31.155a3.263,3.263,0,0,1,1.467,1.465H61.254a1.465,1.465,0,0,0-1.465,1.465v1.465a1.465,1.465,0,0,0,.429,1.036l2.5,2.5v2.324H61.254a1.465,1.465,0,0,0-1.465-1.465h-2.22a3.263,3.263,0,0,1,1.467-1.465l.309-.155-1.311-2.621-.309.155A6.165,6.165,0,0,0,54.47,125.4h-.542a1.465,1.465,0,0,0-1.219.652l-.474.711-2.435-.609a6.81,6.81,0,0,1-3.784-2.513,10.31,10.31,0,0,0-6.74-3.992V113.68H49.532a13.187,13.187,0,1,0,0-26.373h-4.9A14.657,14.657,0,0,0,31.95,79.981h-.733a16.847,16.847,0,1,0-.733,33.686v5.874H27.732a8.91,8.91,0,0,0-6.342,2.627,6,6,0,0,1-4.27,1.769H14.368v2.93h2.753a8.91,8.91,0,0,0,6.342-2.627,6,6,0,0,1,4.27-1.769h2.753v15.673l-2.249,3.374H20.229v2.93H45.137a1.465,1.465,0,0,0,1.39-1l1.131-3.394h1.09l2.5,3.743a1.465,1.465,0,0,0,1.219.652h1.465a1.465,1.465,0,0,0,1.465-1.465v-3.561a6.724,6.724,0,0,0,2.93-5.575v-1.978L60.4,129.8h2.334a6.717,6.717,0,0,0,2.92,5.23v7.957a1.465,1.465,0,0,0,1.465,1.465h2.93a1.465,1.465,0,0,0,1.36-.921l2.562-6.4h.946l2.562,6.4a1.465,1.465,0,0,0,1.36.921H96.418v-2.93h-3.49l-.905-1.811V130.95a27.037,27.037,0,0,0,9.6,1.777h.653V129.8h-.653a24.084,24.084,0,0,1-9.6-2.014ZM33.169,139.4a1.465,1.465,0,0,0,.246-.813V96.1h-2.93V110.73a13.919,13.919,0,0,1,.733-27.819h.733A11.735,11.735,0,0,1,43.672,94.633H46.6a14.6,14.6,0,0,0-.675-4.4h3.6a10.256,10.256,0,1,1,0,20.512H39.276v-.615l9.518-5.439-1.454-2.544-10.256,5.861a1.465,1.465,0,0,0-.738,1.272v29.3a1.465,1.465,0,0,0,.246.813L38,141.518H31.758Zm7.572-3.377v4.318l-1.465-2.2v-15.52a7.363,7.363,0,0,1,4.4,2.777A9.747,9.747,0,0,0,49.09,129l1.419.355-.3.443H46.968A6.234,6.234,0,0,0,40.741,136.024Zm15.081-5.8a1.465,1.465,0,0,0-.429,1.036v2.584a3.815,3.815,0,0,1-2.12,3.431,1.465,1.465,0,0,0-.81,1.31v1.754l-1.711-2.567a1.465,1.465,0,0,0-1.219-.652H46.6a1.465,1.465,0,0,0-1.39,1l-1.131,3.394h-.409v-5.494a3.3,3.3,0,0,1,3.3-3.3H51a1.465,1.465,0,0,0,1.219-.652l2.5-3.743h3ZM80.3,141.518h-.473l-2.562-6.4a1.465,1.465,0,0,0-1.36-.921h-2.93a1.465,1.465,0,0,0-1.36.921l-2.562,6.4H68.58v-7.326a1.465,1.465,0,0,0-.81-1.31,3.815,3.815,0,0,1-2.12-3.431v-5.515a1.465,1.465,0,0,0-.429-1.036l-1.894-1.894h2.883l2.525,5.051a1.465,1.465,0,0,0,1.311.81h5.861a4.4,4.4,0,0,1,4.4,4.4Zm.14-16A12.447,12.447,0,0,1,84.7,126.9v12.8l-.905,1.811h-.56V131.262a7.314,7.314,0,0,0-2.79-5.746Zm6.627,16,.4-.81a1.465,1.465,0,0,0,.155-.655V115.145a1.465,1.465,0,0,0-1.11-1.421l-5.861-1.465-.711,2.843,4.751,1.188v.321H78.836a5.861,5.861,0,1,1,0-11.721h.371a11.7,11.7,0,0,0-.371,2.93h2.93a8.791,8.791,0,1,1,10.256,8.667v-11.6h-2.93v35.164a1.465,1.465,0,0,0,.155.655l.4.81Z" transform="translate(0 0)" fill="#263101"/>
    </g>
  </g>
</svg>
