<svg xmlns="http://www.w3.org/2000/svg" width="126" height="126" viewBox="0 0 126 126">
  <g id="Grupo_55775" data-name="Grupo 55775" transform="translate(-140 -3279)">
    <g id="Elipse_4272" data-name="Elipse 4272" transform="translate(140 3279)" fill="#badb4c" stroke="#263101" stroke-width="3">
      <circle cx="63" cy="63" r="63" stroke="none"/>
      <circle cx="63" cy="63" r="61.5" fill="none"/>
    </g>
    <g id="Grupo_54520" data-name="Grupo 54520" transform="translate(-506.645 2759.752)">
      <path id="Trazado_101573" data-name="Trazado 101573" d="M743.243,632.29c-.258-.273-.33-.313-.335-.361-.379-3.625-3.535-5.124-5.728-7.322a4.055,4.055,0,0,0-2.61-.836c-3.62-.052-7.242.039-10.862.095-.341.005-.834.019-.995.23-1.4,1.826-3.242,1.8-5.262,1.528a2.5,2.5,0,0,0-1.874.76c-1.564,1.757-3.254,2.918-5.757,2.264a8.271,8.271,0,0,0-1.959-.036c-2.944-.026-3.774,1.294-2.512,4,.1.216.211.427.327.635A38.363,38.363,0,0,1,711,653c-.034,1.543.2,3.091.277,4.638a5.043,5.043,0,0,1-4.552,5.443,4.945,4.945,0,0,1-5.387-4.566c-.47-4.323-.86-8.655-1.335-12.977a5.383,5.383,0,0,0-.67-1.495,6.281,6.281,0,0,0-1.189,1.162c-3.1,5.294-6.158,10.613-9.239,15.918-1.614,2.779-4.229,3.74-6.75,2.511s-3.387-3.894-2.17-6.87c1.421-3.472,2.717-7.006,4.35-10.376a58.992,58.992,0,0,0,4.957-17.975c.96-6.96,2.19-13.883,3.336-20.816.442-2.676,1.237-3.309,3.932-3.32,1.848-.008,3.7.069,5.542-.022a3.88,3.88,0,0,1,3.9,2.249c1.61,2.852,3.408,5.6,5.008,8.455a5.251,5.251,0,0,0,4.136,2.992,32.127,32.127,0,0,1,4.54.96c.835.232,2,.528,2.315,1.151,1.086,2.128,2.8,1.578,4.537,1.536,3.325-.08,6.654-.064,9.978.029a3.724,3.724,0,0,1,2.046.868c1.2.972,2.271,2.105,3.414,3.151,1.289,1.18,2.351,2.715,4.4,2.716.325,0,.65.424,1.171.79Zm-29.509-7.425c-2.033-.321-3.693-.576-5.35-.845-2.3-.373-2.811.115-2.614,2.7C708.323,626.367,711.174,627.747,713.734,624.865Z" transform="translate(-2.521 -41.029)" fill="#263101"/>
      <path id="Trazado_101574" data-name="Trazado 101574" d="M727.5,559.65a9.564,9.564,0,0,1-9.66-9.6,9.644,9.644,0,1,1,9.66,9.6Z" transform="translate(-27.188)" fill="#263101"/>
      <path id="Trazado_101575" data-name="Trazado 101575" d="M687.141,602.525c-.285,1.44-.627,3.31-1.029,5.167-.677,3.133-1.36,6.265-2.1,9.383a4.314,4.314,0,0,1-5.147,3.487,4.257,4.257,0,0,1-3.265-5.152c.889-4.851,1.872-9.687,2.909-14.509a4.293,4.293,0,0,1,4.775-3.379C685.622,597.817,687.211,599.692,687.141,602.525Z" transform="translate(0 -36.686)" fill="#263101"/>
      <path id="Trazado_101576" data-name="Trazado 101576" d="M872.687,719.033c-.48-.844-1-1.352-.966-1.826.024-.379.711-.717,1.1-1.074.373.433.974.832,1.045,1.309C873.922,717.8,873.293,718.261,872.687,719.033Z" transform="translate(-126.022 -112.893)" fill="#263101"/>
      <path id="Trazado_101577" data-name="Trazado 101577" d="M864.023,679.506c.548.792,1.116,1.256,1.111,1.714,0,.382-.679.758-1.056,1.136-.4-.405-1.016-.759-1.129-1.233C862.87,680.789,863.472,680.292,864.023,679.506Z" transform="translate(-120.384 -89.367)" fill="#263101"/>
      <path id="Trazado_101578" data-name="Trazado 101578" d="M882.991,685.7c-.925.547-1.432,1.08-1.907,1.054a1.115,1.115,0,0,1,.051-2.22C881.612,684.529,882.091,685.093,882.991,685.7Z" transform="translate(-131.4 -92.594)" fill="#263101"/>
      <path id="Trazado_101579" data-name="Trazado 101579" d="M898.8,688.745c.633.752,1.276,1.189,1.233,1.543-.058.483-.639.9-1,1.351-.4-.346-1.088-.66-1.131-1.046C897.856,690.129,898.353,689.6,898.8,688.745Z" transform="translate(-142.839 -95.301)" fill="#263101"/>
      <path id="Trazado_101580" data-name="Trazado 101580" d="M870.743,698.335c-.624.563-1.061,1.245-1.408,1.2-.489-.06-.91-.659-1.36-1.028.4-.422.741-1.07,1.217-1.19C869.532,697.233,870.051,697.854,870.743,698.335Z" transform="translate(-123.616 -100.803)" fill="#263101"/>
      <path id="Trazado_101581" data-name="Trazado 101581" d="M888.078,703.578c-.909.569-1.405,1.119-1.882,1.1a1.116,1.116,0,0,1,.009-2.225C886.682,702.442,887.174,703,888.078,703.578Z" transform="translate(-134.664 -104.107)" fill="#263101"/>
    </g>
  </g>
</svg>
