<svg xmlns="http://www.w3.org/2000/svg" width="126" height="126" viewBox="0 0 126 126">
  <g id="Grupo_55773" data-name="Grupo 55773" transform="translate(-344 -4545)">
    <g id="Elipse_4274" data-name="Elipse 4274" transform="translate(344 4545)" fill="#cfe194" stroke="#95af3d" stroke-width="3">
      <circle cx="63" cy="63" r="63" stroke="none"/>
      <circle cx="63" cy="63" r="61.5" fill="none"/>
    </g>
    <g id="wave" transform="translate(367.401 4582.365)">
      <path id="Trazado_101564" data-name="Trazado 101564" d="M63.358,265.449a14.3,14.3,0,0,0-9.254,3.207c-1.877,1.32-3.36,2.362-6.586,2.362s-4.708-1.042-6.585-2.362a14.3,14.3,0,0,0-9.254-3.207,14.3,14.3,0,0,0-9.254,3.207c-1.877,1.32-3.359,2.362-6.585,2.362s-4.708-1.042-6.585-2.362A14.3,14.3,0,0,0,0,265.449v4.64c3.226,0,4.708,1.042,6.585,2.363a14.3,14.3,0,0,0,9.254,3.206,14.3,14.3,0,0,0,9.254-3.206c1.877-1.32,3.359-2.363,6.585-2.363s4.708,1.042,6.585,2.363a14.96,14.96,0,0,0,18.509,0c1.877-1.32,3.359-2.363,6.585-2.363s4.708,1.042,6.585,2.363a14.3,14.3,0,0,0,9.254,3.206v-4.64c-3.226,0-4.709-1.042-6.585-2.362A14.3,14.3,0,0,0,63.358,265.449Zm0,0" transform="translate(0 -224.389)" fill="#7e9434"/>
      <path id="Trazado_101565" data-name="Trazado 101565" d="M63.358,88.484A14.3,14.3,0,0,0,54.1,91.69c-1.877,1.32-3.36,2.363-6.586,2.363s-4.708-1.043-6.585-2.363a14.3,14.3,0,0,0-9.254-3.206,14.3,14.3,0,0,0-9.254,3.206c-1.877,1.32-3.359,2.363-6.585,2.363S11.132,93.01,9.255,91.69A14.3,14.3,0,0,0,0,88.484v4.64c3.226,0,4.708,1.042,6.585,2.362a14.3,14.3,0,0,0,9.254,3.207,14.3,14.3,0,0,0,9.254-3.207c1.877-1.32,3.359-2.362,6.585-2.362s4.708,1.042,6.585,2.362a14.957,14.957,0,0,0,18.509,0c1.877-1.32,3.359-2.362,6.585-2.362s4.708,1.042,6.585,2.362A14.3,14.3,0,0,0,79.2,98.693v-4.64c-3.226,0-4.709-1.043-6.585-2.363A14.3,14.3,0,0,0,63.358,88.484Zm0,0" transform="translate(0 -74.798)" fill="#7e9434"/>
      <path id="Trazado_101566" data-name="Trazado 101566" d="M63.358,176.969a14.3,14.3,0,0,0-9.254,3.206c-1.877,1.32-3.36,2.362-6.586,2.362s-4.708-1.043-6.585-2.362a14.3,14.3,0,0,0-9.254-3.206,14.3,14.3,0,0,0-9.254,3.206c-1.877,1.32-3.359,2.362-6.585,2.362s-4.708-1.043-6.585-2.362A14.3,14.3,0,0,0,0,176.969v4.64c3.226,0,4.708,1.042,6.585,2.362a14.3,14.3,0,0,0,9.254,3.207,14.3,14.3,0,0,0,9.254-3.207c1.877-1.32,3.359-2.362,6.585-2.362s4.708,1.042,6.585,2.362a14.957,14.957,0,0,0,18.509,0c1.877-1.32,3.359-2.362,6.585-2.362s4.708,1.042,6.585,2.362a14.3,14.3,0,0,0,9.254,3.207v-4.64c-3.226,0-4.709-1.043-6.585-2.362A14.3,14.3,0,0,0,63.358,176.969Zm0,0" transform="translate(0 -149.595)" fill="#7e9434"/>
      <path id="Trazado_101567" data-name="Trazado 101567" d="M72.612,3.207a14.957,14.957,0,0,0-18.509,0c-1.877,1.32-3.36,2.362-6.586,2.362s-4.708-1.042-6.585-2.362A14.3,14.3,0,0,0,31.678,0a14.3,14.3,0,0,0-9.254,3.207c-1.877,1.32-3.359,2.362-6.585,2.362S11.131,4.526,9.255,3.207A14.3,14.3,0,0,0,0,0V4.64C3.226,4.64,4.709,5.683,6.585,7a14.3,14.3,0,0,0,9.254,3.207A14.3,14.3,0,0,0,25.093,7c1.877-1.32,3.359-2.362,6.585-2.362S36.386,5.683,38.263,7a14.3,14.3,0,0,0,9.254,3.207A14.3,14.3,0,0,0,56.772,7c1.877-1.32,3.359-2.362,6.585-2.362S68.066,5.683,69.943,7A14.3,14.3,0,0,0,79.2,10.209V5.569C75.971,5.569,74.489,4.526,72.612,3.207Zm0,0" transform="translate(0)" fill="#7e9434"/>
    </g>
  </g>
</svg>
