<svg xmlns="http://www.w3.org/2000/svg" width="352" height="338.406" viewBox="0 0 352 338.406">
  <g id="Grupo_55773" data-name="Grupo 55773" transform="translate(-875 -3846.001)">
    <g id="Grupo_54543" data-name="Grupo 54543" transform="translate(-336.678 3116.139)">
      <g id="Grupo_54528" data-name="Grupo 54528" transform="translate(1211.678 729.862)">
        <g id="Grupo_54524" data-name="Grupo 54524" transform="translate(42.538 47.733)">
          <path id="Trazado_101582" data-name="Trazado 101582" d="M1276.138,843.4c4.724-28.868,10.649-34.117,9.523-41.729,0,0,3.861,9.448,8.323,14.172s21.52,24.407,23.094,53.275-12.6,37-12.6,37S1271.413,872.272,1276.138,843.4Z" transform="translate(-1275.676 -801.675)" fill="#b6c63b"/>
          <path id="Trazado_101583" data-name="Trazado 101583" d="M1307.353,888.225a.883.883,0,0,0-.053-.417c-.865-6.76-2.121-14.461-3.944-22.851.009-.026.022-.05.029-.077l4.13-16.65a.883.883,0,1,0-1.715-.425l-3.3,13.322a268.233,268.233,0,0,0-7.692-26.748.884.884,0,0,0-1.67.576,266.758,266.758,0,0,1,7.956,27.938l-12.887-6.918a.883.883,0,1,0-.836,1.557l14.23,7.639c1.68,7.709,2.878,14.832,3.731,21.174l-17.068-10.9a.883.883,0,0,0-.951,1.489l18.317,11.7a190.429,190.429,0,0,1,1.737,28.224.883.883,0,0,0,.844.921h.039a.884.884,0,0,0,.882-.845A192.3,192.3,0,0,0,1307.353,888.225Z" transform="translate(-1279.44 -812.442)" fill="#8ea02a"/>
        </g>
        <path id="Trazado_101584" data-name="Trazado 101584" d="M1293.978,945.624s-34.117-1.312-39.891-36.742C1254.087,908.882,1281.118,901.534,1293.978,945.624Z" transform="translate(-1225.899 -789.737)" fill="#8ea02a"/>
        <path id="Trazado_101585" data-name="Trazado 101585" d="M1349.09,833.617s-24.086-24.2-4.182-54.072C1344.907,779.545,1369.7,792.576,1349.09,833.617Z" transform="translate(-1253.711 -746.522)" fill="#8ea02a"/>
        <path id="Trazado_101586" data-name="Trazado 101586" d="M1354.407,832.161s-8.61-33.039,23.635-48.812C1378.042,783.349,1392.894,807.1,1354.407,832.161Z" transform="translate(-1259.188 -747.797)" fill="#8ea02a"/>
        <path id="Trazado_101587" data-name="Trazado 101587" d="M1290.257,972.054s-41.537,27.528-78.579-9.522C1211.678,962.532,1237.438,930.783,1290.257,972.054Z" transform="translate(-1211.678 -803.97)" fill="#8ea02a"/>
        <path id="Trazado_101588" data-name="Trazado 101588" d="M1251.308,924.354c7.264-8.5,29.045,6.493,35.515,11.26-3.03-5.557-5.485-10.607-7.386-14.8-7.107-1.307-45.53-8.956-35.48-19.851,9.466-10.261,28.644,11.53,34.736,18.194-2.12-4.782-3.436-8.237-3.989-9.746-7.763-11.494-28.4-45.944-20.667-52.26,7.809-6.382,19.04,37.406,22.445,51.632.374,1.02,1.1,2.949,2.2,5.591-1.467-10.993-5.617-44.718,2.99-45.2,9.111-.516-.154,38.926-2.176,47.126,1.513,3.522,3.556,7.988,6.151,13.064-.324-8.32-.809-36.835,7.579-39.944,8.884-3.293-4.382,33.821-7.026,41.017a222.016,222.016,0,0,0,11.506,19.691.944.944,0,0,1-.271,1.305.928.928,0,0,1-.288.126.942.942,0,0,1-1.017-.4q-.955-1.455-1.866-2.893c-6.365,2.154-36.214,11.823-32.225,2.367,3.807-9.026,25.443-4.665,31.7-3.193-2.275-3.626-4.342-7.156-6.2-10.515C1280.582,936.449,1243.536,933.453,1251.308,924.354Z" transform="translate(-1221.943 -772.333)" fill="#212513"/>
        <g id="Grupo_54526" data-name="Grupo 54526" transform="translate(236.438 0.091)">
          <path id="Trazado_101589" data-name="Trazado 101589" d="M1624.042,825.687c1.662.045,59.729-80.765,44.295-94.486S1624.042,825.687,1624.042,825.687Z" transform="translate(-1586.39 -729.998)" fill="#212513"/>
          <path id="Trazado_101590" data-name="Trazado 101590" d="M1615.092,843.537c.05-1.852,16.518-81.947-.9-83.663S1615.092,843.537,1615.092,843.537Z" transform="translate(-1580.566 -740.008)" fill="#212513"/>
          <path id="Trazado_101591" data-name="Trazado 101591" d="M1615.312,875.338c2.089-.36,46.138-53.2,64.278-31.816S1615.312,875.338,1615.312,875.338Z" transform="translate(-1583.462 -766.357)" fill="#212513"/>
          <path id="Trazado_101592" data-name="Trazado 101592" d="M1592.651,922.32s51.044-36.889,65.044-19.046S1592.651,922.32,1592.651,922.32Z" transform="translate(-1575.864 -786.467)" fill="#212513"/>
          <path id="Trazado_101593" data-name="Trazado 101593" d="M1593,883.777s6.813-66.075-9.813-73.038S1593,883.777,1593,883.777Z" transform="translate(-1570.848 -756.928)" fill="#212513"/>
          <path id="Trazado_101594" data-name="Trazado 101594" d="M1573.939,959.992s50.264-11.335,57.17,7.148S1573.939,959.992,1573.939,959.992Z" transform="translate(-1569.589 -805.966)" fill="#212513"/>
          <g id="Grupo_54525" data-name="Grupo 54525" transform="translate(0 85.833)">
            <path id="Trazado_101595" data-name="Trazado 101595" d="M1569.013,933.615a1.617,1.617,0,0,0,1.317-.675c27.023-37.636,40.235-71.263,40.365-71.6a1.62,1.62,0,1,0-3.02-1.174c-.129.332-13.207,33.6-39.977,70.883a1.621,1.621,0,0,0,1.315,2.565Z" transform="translate(-1567.395 -859.133)" fill="#212513"/>
          </g>
        </g>
        <g id="Grupo_54527" data-name="Grupo 54527" transform="translate(185.372)">
          <path id="Trazado_101596" data-name="Trazado 101596" d="M1565.875,806.389c-8.664-52.943-19.53-62.569-17.466-76.527,0,0-7.081,17.327-15.263,25.99s-39.467,44.761-42.354,97.7,23.1,67.864,23.1,67.864S1574.538,859.333,1565.875,806.389Z" transform="translate(-1490.567 -729.862)" fill="#b6c63b"/>
          <path id="Trazado_101597" data-name="Trazado 101597" d="M1526.446,888.589a1.615,1.615,0,0,1,.1-.764c1.585-12.4,3.89-26.522,7.232-41.907-.017-.048-.04-.092-.052-.141l-7.574-30.535a1.62,1.62,0,0,1,3.145-.78l6.06,24.433a491.881,491.881,0,0,1,14.107-49.055,1.62,1.62,0,1,1,3.063,1.057,489.5,489.5,0,0,0-14.592,51.236l23.635-12.687a1.62,1.62,0,1,1,1.532,2.855l-26.1,14.008c-3.081,14.138-5.279,27.2-6.844,38.832l31.3-19.989a1.62,1.62,0,1,1,1.743,2.731l-33.592,21.451c-3.949,31.475-3.2,51.4-3.185,51.762a1.621,1.621,0,0,1-1.549,1.688h-.071a1.62,1.62,0,0,1-1.618-1.549C1523.176,940.87,1522.409,920.584,1526.446,888.589Z" transform="translate(-1501.484 -749.607)" fill="#8ea02a"/>
        </g>
        <path id="Trazado_101598" data-name="Trazado 101598" d="M1514.8,992.329s62.569-2.406,73.158-67.382C1587.958,924.947,1538.384,911.471,1514.8,992.329Z" transform="translate(-1313.321 -794.995)" fill="#8ea02a"/>
      </g>
      <path id="Trazado_101599" data-name="Trazado 101599" d="M1465.294,1033.164l-50.491,2.264H1311.718V826.776H1467.76V981.105Z" transform="translate(-33.545 -32.497)" fill="#f0eeb8"/>
      <path id="Trazado_101600" data-name="Trazado 101600" d="M1450.826,1029.483h-50.859a2.01,2.01,0,0,1-2.01-2.01h0a2.01,2.01,0,0,1,2.01-2.01h50.859a2.01,2.01,0,0,1,2.01,2.01h0A2.01,2.01,0,0,1,1450.826,1029.483Z" transform="translate(-62.463 -99.121)" fill="#92aeb8"/>
      <rect id="Rectángulo_5362" data-name="Rectángulo 5362" width="78.631" height="4.02" rx="2.01" transform="translate(1335.494 915.322)" fill="#92aeb8"/>
      <g id="Grupo_54529" data-name="Grupo 54529" transform="translate(1378.524 820.404)">
        <rect id="Rectángulo_5363" data-name="Rectángulo 5363" width="35.601" height="4.02" rx="2.01" fill="#92aeb8"/>
        <rect id="Rectángulo_5364" data-name="Rectángulo 5364" width="35.601" height="4.02" rx="2.01" transform="translate(0 11.02)" fill="#dd123c"/>
      </g>
      <g id="Grupo_54530" data-name="Grupo 54530" transform="translate(1298.784 852.125)">
        <path id="Trazado_101601" data-name="Trazado 101601" d="M1496.285,917.825H1464.7a2.01,2.01,0,0,1-2.01-2.011h0a2.01,2.01,0,0,1,2.01-2.01h31.581a2.01,2.01,0,0,1,2.01,2.01h0A2.01,2.01,0,0,1,1496.285,917.825Z" transform="translate(-1382.955 -913.804)" fill="#fea401"/>
        <path id="Trazado_101602" data-name="Trazado 101602" d="M1496.285,934.4H1464.7a2.01,2.01,0,0,1-2.01-2.01h0a2.01,2.01,0,0,1,2.01-2.01h31.581a2.01,2.01,0,0,1,2.01,2.01h0A2.01,2.01,0,0,1,1496.285,934.4Z" transform="translate(-1382.955 -919.364)" fill="#92aeb8"/>
        <path id="Trazado_101603" data-name="Trazado 101603" d="M1456.058,957.407h-111.32a2.01,2.01,0,0,1-2.01-2.01h0a2.01,2.01,0,0,1,2.01-2.01h111.32a2.01,2.01,0,0,1,2.01,2.01h0A2.01,2.01,0,0,1,1456.058,957.407Z" transform="translate(-1342.728 -927.077)" fill="#92aeb8"/>
        <rect id="Rectángulo_5365" data-name="Rectángulo 5365" width="115.34" height="4.02" rx="2.01" transform="translate(0 36.127)" fill="#92aeb8"/>
      </g>
      <g id="Grupo_54533" data-name="Grupo 54533" transform="translate(1299.789 914.586)">
        <g id="Grupo_54531" data-name="Grupo 54531" transform="translate(0)">
          <path id="Trazado_101604" data-name="Trazado 101604" d="M1367.752,1031.288H1344.24v-23.512h23.512Zm-20.687-2.825h17.863V1010.6h-17.863Z" transform="translate(-1344.24 -1007.776)" fill="#92aeb8"/>
          <path id="Trazado_101605" data-name="Trazado 101605" d="M1358.076,1028.11l-5.813-4.7,2.161-2.345,3.333,2.7,5.838-6.336,2.479,2Z" transform="translate(-1346.93 -1011.011)" fill="#c1c91f"/>
        </g>
        <g id="Grupo_54532" data-name="Grupo 54532" transform="translate(0)">
          <path id="Trazado_101606" data-name="Trazado 101606" d="M1367.752,1031.288H1344.24v-23.512h23.512Zm-20.687-2.825h17.863V1010.6h-17.863Z" transform="translate(-1344.24 -1007.776)" fill="#92aeb8"/>
          <path id="Trazado_101607" data-name="Trazado 101607" d="M1358.076,1028.11l-5.813-4.7,2.161-2.345,3.333,2.7,5.838-6.336,2.479,2Z" transform="translate(-1346.93 -1011.011)" fill="#c1c91f"/>
        </g>
      </g>
      <g id="Grupo_54534" data-name="Grupo 54534" transform="translate(1299.789 821.003)">
        <rect id="Rectángulo_5366" data-name="Rectángulo 5366" width="20.459" height="30.719" transform="translate(23.796 15.443)" fill="#fea401"/>
        <rect id="Rectángulo_5367" data-name="Rectángulo 5367" width="20.459" height="21.554" transform="translate(0 24.608)" fill="#92aeb8"/>
        <rect id="Rectángulo_5368" data-name="Rectángulo 5368" width="20.459" height="46.162" transform="translate(47.591)" fill="#dd123c"/>
      </g>
      <path id="Trazado_101608" data-name="Trazado 101608" d="M1486.779,1052.24a20.67,20.67,0,1,0,20.03,21.291A20.669,20.669,0,0,0,1486.779,1052.24Zm14.4,21.119a15.038,15.038,0,1,1-14.573-15.49A15.038,15.038,0,0,1,1501.18,1073.359Z" transform="translate(-85.104 -108.096)" fill="#cee9ee" style="mix-blend-mode: multiply;isolation: isolate"/>
      <g id="Grupo_54535" data-name="Grupo 54535" transform="translate(1375.778 939.537)">
        <path id="Trazado_101609" data-name="Trazado 101609" d="M1483.845,1095.847c-.261,0-.522,0-.785-.012a25.267,25.267,0,1,1,.785.012Zm-.028-48.538a23.266,23.266,0,1,0,.724.011C1484.3,1047.314,1484.057,1047.31,1483.817,1047.31Z" transform="translate(-1458.564 -1045.315)" fill="#cee9ee" style="mix-blend-mode: multiply;isolation: isolate"/>
      </g>
      <path id="Trazado_101610" data-name="Trazado 101610" d="M1488.534,1088.884l-8.013-7.985,3.619-3.191,4.595,4.579,9.779-8.622,3.418,3.406Z" transform="translate(-90.149 -115.284)" fill="#c1c91f"/>
      <path id="Trazado_101611" data-name="Trazado 101611" d="M1312.87,1009.063c-6.265-.8-12.21,3.41-13.022,9.224l-5.7,41.766a.319.319,0,0,1-.635-.034l-1.04-35.829V993.172l-29.2,34.67a14.329,14.329,0,0,0-3.19,11.482l9.494,59.664a57.586,57.586,0,0,1-7.154,43.24l-8.141,13.478,20.466-1.2,35.125.494,5.207-22.019a93.424,93.424,0,0,0,2.289-27.768c-.782-11.658.3-26.724.9-34.966l3.686-50.875C1322.327,1014.208,1318.421,1009.772,1312.87,1009.063Z" transform="translate(-14.286 -88.293)" fill="#f7cca4"/>
      <g id="Grupo_54537" data-name="Grupo 54537" transform="translate(1289.038 922.227)">
        <g id="Grupo_54536" data-name="Grupo 54536">
          <path id="Trazado_101612" data-name="Trazado 101612" d="M1336.306,1040.088l-2.311-.2a6.409,6.409,0,0,1-5.928-6.469l.212-7.137a7.075,7.075,0,0,1,7.579-6.983l2.782.243a6.838,6.838,0,0,1,6.033,8.171l-1.236,7.048A6.642,6.642,0,0,1,1336.306,1040.088Z" transform="translate(-1328.065 -1019.271)" fill="#fde9dc"/>
        </g>
      </g>
      <path id="Trazado_101613" data-name="Trazado 101613" d="M1265.785,1201.185l5.642-19.166,55.16,8.366-6.481,26.031Z" transform="translate(-18.143 -151.617)" fill="#efefef"/>
      <path id="Trazado_101614" data-name="Trazado 101614" d="M1324.128,1228.562l.514-2.042-69.7-18.627-7.851,20.668Z" transform="translate(-11.875 -160.293)" fill="#313131"/>
      <path id="Trazado_101615" data-name="Trazado 101615" d="M1342.255,1208.788a2.612,2.612,0,1,1-2.612-2.612A2.612,2.612,0,0,1,1342.255,1208.788Z" transform="translate(-42.033 -159.717)" fill="#313131"/>
      <g id="Grupo_54540" data-name="Grupo 54540" transform="translate(1320.044 816.531)">
        <path id="Trazado_101616" data-name="Trazado 101616" d="M1588.718,1055.613l2.16-3.961-43.038-43.73-9.743-5.2,14.4,26.445Z" transform="translate(-1429.499 -908.027)" fill="#daa87f"/>
        <rect id="Rectángulo_5369" data-name="Rectángulo 5369" width="29.62" height="10.643" transform="translate(94.965 102.201) rotate(-135)" fill="#191919"/>
        <path id="Trazado_101617" data-name="Trazado 101617" d="M1505.992,1004.523l38.71,38.71a9.493,9.493,0,0,0,13.426,0h0a9.494,9.494,0,0,0,0-13.425L1519.417,991.1Z" transform="translate(-1418.733 -904.128)" fill="#252525"/>
        <circle id="Elipse_4273" data-name="Elipse 4273" cx="36.437" cy="36.437" r="36.437" transform="translate(0 51.529) rotate(-45)" fill="#a9d8dd" opacity="0.73"/>
        <g id="Grupo_54539" data-name="Grupo 54539" transform="translate(6.209 5.919)">
          <path id="Trazado_101618" data-name="Trazado 101618" d="M1397.448,882.554a45.733,45.733,0,1,0,64.677,0A45.734,45.734,0,0,0,1397.448,882.554Zm7.4,7.4a35.267,35.267,0,1,1,0,49.876A35.267,35.267,0,0,1,1404.849,889.954Z" transform="translate(-1384.054 -869.159)" fill="#252525"/>
          <g id="Grupo_54538" data-name="Grupo 54538" transform="translate(19.962 19.021)">
            <path id="Trazado_101619" data-name="Trazado 101619" d="M1416.437,920.129a1.5,1.5,0,0,0,.636-.963,22.7,22.7,0,0,1,26.618-17.954,1.507,1.507,0,1,0,.575-2.958,25.717,25.717,0,0,0-30.151,20.337,1.508,1.508,0,0,0,2.322,1.537Z" transform="translate(-1414.087 -897.775)" fill="#fff"/>
          </g>
        </g>
      </g>
      <path id="Trazado_101620" data-name="Trazado 101620" d="M1533.393,1028.468c3.709-5.111,10.851-6.554,15.641-3.161l34.177,27.647-25.615-28.251-21.793-21.98,45.257,2.5a14.328,14.328,0,0,1,10.548,5.545l36.943,47.8a57.585,57.585,0,0,0,36.392,24.424l5.363,1.527.259,29.228-17.8,18.915-30.64-17.658a93.424,93.424,0,0,1-21.79-17.363c-7.953-8.56-19.668-18.1-26.079-23.31l-39.575-32.181C1530.659,1038.883,1530.105,1033,1533.393,1028.468Z" transform="translate(-107.16 -91.495)" fill="#f7cca4"/>
      <g id="Grupo_54542" data-name="Grupo 54542" transform="translate(1425.346 934.114)">
        <g id="Grupo_54541" data-name="Grupo 54541">
          <path id="Trazado_101621" data-name="Trazado 101621" d="M1551.14,1054.329l1.436-1.821a6.409,6.409,0,0,0-.648-8.75l-5.344-4.737a7.075,7.075,0,0,0-10.279.734l-1.729,2.193a6.837,6.837,0,0,0,1.816,9.992l5.979,3.931A6.643,6.643,0,0,0,1551.14,1054.329Z" transform="translate(-1533.137 -1037.156)" fill="#fde9dc"/>
        </g>
      </g>
      <path id="Trazado_101622" data-name="Trazado 101622" d="M1703.121,1113.891l-17.824-9.027-31.711,45.9,23.4,13.121Z" transform="translate(-148.18 -125.745)" fill="#efefef"/>
      <path id="Trazado_101623" data-name="Trazado 101623" d="M1720.451,1196.207l-41.238-21.28,34.2-63.524,7.035,3.155Z" transform="translate(-156.774 -127.938)" fill="#313131"/>
      <path id="Trazado_101624" data-name="Trazado 101624" d="M1672.938,1173.261a2.612,2.612,0,1,0-.112-3.691A2.612,2.612,0,0,0,1672.938,1173.261Z" transform="translate(-154.394 -147.167)" fill="#313131"/>
    </g>
  </g>
</svg>
