<svg xmlns="http://www.w3.org/2000/svg" width="126" height="126" viewBox="0 0 126 126">
  <g id="Grupo_55774" data-name="Grupo 55774" transform="translate(-140 -3071)">
    <g id="Elipse_4271" data-name="Elipse 4271" transform="translate(140 3071)" fill="#cfe194" stroke="#263101" stroke-width="3">
      <circle cx="63" cy="63" r="63" stroke="none"/>
      <circle cx="63" cy="63" r="61.5" fill="none"/>
    </g>
    <g id="Grupo_54519" data-name="Grupo 54519" transform="translate(-200.801 -111.811)">
      <path id="Trazado_101568" data-name="Trazado 101568" d="M1622.142,561.709c.09,21.078-17.849,39.2-40,38.789-20.768-.385-37.99-18.046-37.961-39.65.03-20.993,17.921-38.391,39.428-38.342C1604.767,522.558,1622.175,540.269,1622.142,561.709Zm-75.675-.171a36.729,36.729,0,1,0,73.457-.26c-.011-20.1-16.57-36.475-36.956-36.551C1563.017,524.656,1546.469,541.344,1546.467,561.538Z" transform="translate(-1179.363 2684.305)" fill="#263101"/>
      <path id="Trazado_101569" data-name="Trazado 101569" d="M1567.44,549.469a12.378,12.378,0,0,0,11.5-.1q5.693,9.848,11.334,19.6c-6.09,6.212-26.536,6.215-34.092.005Z" transform="translate(-1169.281 2706.885)" fill="#263101"/>
      <path id="Trazado_101570" data-name="Trazado 101570" d="M1568.892,546.715l11.019-19.084c9.573,4.6,17.573,17.524,17.183,28.979h-22.372a33.364,33.364,0,0,0-2.048-5.387A33.738,33.738,0,0,0,1568.892,546.715Z" transform="translate(-1158.597 2688.613)" fill="#263101"/>
      <path id="Trazado_101571" data-name="Trazado 101571" d="M1546.754,556.739c-.307-11,6.838-23.984,17.047-29.08l11.087,19.191a12.633,12.633,0,0,0-5.755,8.973,1.341,1.341,0,0,1-.954.878C1561.075,556.752,1553.971,556.739,1546.754,556.739Z" transform="translate(-1177.212 2688.636)" fill="#263101"/>
      <path id="Trazado_101572" data-name="Trazado 101572" d="M1579.9,548.268a9.977,9.977,0,0,1-19.953.068,9.977,9.977,0,1,1,19.953-.068Z" transform="translate(-1166.117 2697.541)" fill="#263101"/>
    </g>
  </g>
</svg>
