<?xml version="1.0" encoding="iso-8859-1"?>
<!-- Generator: Adobe Illustrator 25.2.3, SVG Export Plug-In . SVG Version: 6.00 Build 0)  -->
<svg version="1.1" id="Capa_1" xmlns="http://www.w3.org/2000/svg" xmlns:xlink="http://www.w3.org/1999/xlink" x="0px" y="0px"
	 viewBox="-49 141 512 512" style="enable-background:new -49 141 512 512;" xml:space="preserve">
<path style="fill:#FDA260;" d="M463,235.714v352.229c0,6.82-5.532,12.362-12.362,12.362H-36.638c-6.83,0-12.362-5.542-12.362-12.362
	V235.714c0-6.83,5.532-12.362,12.362-12.362h487.276C457.468,223.352,463,228.884,463,235.714z"/>
<g>
	<path style="fill:#FC8D3E;" d="M449.855,223.352v330.235c0,13.629-11.095,24.724-24.724,24.724H-11.131
		c-13.629,0-24.724-11.095-24.724-24.724V223.352H449.855z"/>
	<path style="fill:#FC8D3E;" d="M463,235.714v352.229c0,6.82-5.532,12.362-12.362,12.362H207V223.352h243.638
		C457.468,223.352,463,228.884,463,235.714z"/>
</g>
<path style="fill:#F0710F;" d="M449.855,223.352v330.235c0,13.629-11.095,24.724-24.724,24.724H207V223.352H449.855z"/>
<path style="fill:#ADC9E2;" d="M437.493,498.925v54.661c0,6.83-5.532,12.362-12.362,12.362H-11.131
	c-6.83,0-12.362-5.532-12.362-12.362v-54.661H437.493z"/>
<path style="fill:#84A1C0;" d="M437.493,498.925v54.661c0,6.83-5.532,12.362-12.362,12.362H207v-67.024L437.493,498.925
	L437.493,498.925z"/>
<path style="fill:#E3F4FF;" d="M426.362,523.917H-12.362c-6.147,0-11.13-4.983-11.13-11.13V204.828c0-6.147,4.983-11.13,11.13-11.13
	h438.725c6.147,0,11.13,4.983,11.13,11.13v307.959C437.493,518.934,432.509,523.917,426.362,523.917z"/>
<path style="fill:#BADB47;" d="M-12.362,193.697H207v183.687H-23.493V204.828C-23.493,198.681-18.509,193.697-12.362,193.697z"/>
<rect x="-23.493" y="316.16" style="fill:#82C11F;" width="230.49" height="61.23"/>
<path style="fill:#D6ED72;" d="M-12.362,193.697H207v61.229H-23.493v-50.098C-23.493,198.681-18.509,193.697-12.362,193.697z"/>
<path style="fill:#BDDFF4;" d="M437.493,204.827v307.961c0,6.15-4.981,11.13-11.13,11.13H207V193.696h219.362
	C432.512,193.696,437.493,198.677,437.493,204.827z"/>
<path style="fill:#43A3F9;" d="M436.957,204.831v153.6l-66.715,18.42l-15.453,4.265l-66.169,18.275l-15.453,4.265L207,421.931
	V193.695h218.821C431.971,193.695,436.957,198.681,436.957,204.831z"/>
<path style="fill:#1FC974;" d="M410.749,280.063c0,26.63-21.593,48.233-48.233,48.233c-8.427,0-16.349-2.174-23.251-5.996
	c-0.371-0.196-0.742-0.402-1.102-0.618c-14.289-8.355-23.88-23.869-23.88-41.619c0-7.088,1.535-13.815,4.275-19.872
	c0.175-0.391,0.361-0.773,0.546-1.154c7.798-16.102,24.312-27.207,43.412-27.207C389.157,231.83,410.749,253.433,410.749,280.063z"
	/>
<g>
	<path style="fill:#19AA60;" d="M370.242,280.065v96.785l-15.453,4.265v-77.099l-10.158-2.668c-4.121-1.081-6.593-5.305-5.511-9.426
		c1.082-4.131,5.316-6.593,9.436-5.522l6.233,1.638v-7.974c0-4.265,3.462-7.726,7.726-7.726
		C366.781,272.339,370.242,275.8,370.242,280.065z"/>
	<path style="fill:#19AA60;" d="M341.49,306.034c0,5.635-0.773,11.085-2.225,16.267c-0.371-0.196-0.742-0.402-1.102-0.618
		c-14.289-8.355-23.88-23.869-23.88-41.619c0-7.088,1.535-13.815,4.275-19.872c0.175-0.391,0.361-0.773,0.546-1.154
		C332.754,270.163,341.49,287.099,341.49,306.034z"/>
</g>
<g>
	<path style="fill:#84A1C0;" d="M409.289,502.881c-4.268,0-7.77-3.459-7.77-7.726s3.417-7.726,7.684-7.726h0.086
		c4.268,0,7.726,3.459,7.726,7.726S413.556,502.881,409.289,502.881z"/>
	<path style="fill:#84A1C0;" d="M384.159,502.881h-16.695c-4.268,0-7.726-3.459-7.726-7.726s3.459-7.726,7.726-7.726h16.695
		c4.268,0,7.726,3.459,7.726,7.726S388.427,502.881,384.159,502.881z"/>
</g>
<g>
	<path style="fill:#ADC9E2;" d="M178.332,502.881c-4.267,0-7.769-3.459-7.769-7.726s3.416-7.726,7.683-7.726h0.086
		c4.267,0,7.726,3.459,7.726,7.726S182.6,502.881,178.332,502.881z"/>
	<path style="fill:#ADC9E2;" d="M153.203,502.881h-16.696c-4.267,0-7.726-3.459-7.726-7.726s3.459-7.726,7.726-7.726h16.696
		c4.267,0,7.726,3.459,7.726,7.726S157.47,502.881,153.203,502.881z"/>
</g>
<circle style="fill:#5BE167;" cx="280.89" cy="306.03" r="48.23"/>
<path style="fill:#1FC974;" d="M310.276,313.824l-21.654,18.09v67.477l-15.453,4.265v-97.62c0-4.265,3.462-7.726,7.726-7.726
	c4.265,0,7.726,3.462,7.726,7.726v5.738l11.744-9.818c3.276-2.73,8.149-2.297,10.879,0.979
	C313.984,306.211,313.552,311.084,310.276,313.824z"/>
<g>
	<path style="fill:#84A1C0;" d="M386.327,447.847H257.09c-4.268,0-7.726-3.459-7.726-7.726s3.459-7.726,7.726-7.726h129.237
		c4.268,0,7.726,3.459,7.726,7.726S390.595,447.847,386.327,447.847z"/>
	<path style="fill:#84A1C0;" d="M386.327,470.109h-79.845c-4.268,0-7.726-3.459-7.726-7.726s3.459-7.726,7.726-7.726h79.845
		c4.268,0,7.726,3.459,7.726,7.726S390.595,470.109,386.327,470.109z"/>
	<path style="fill:#84A1C0;" d="M284.917,470.109H257.09c-4.268,0-7.726-3.459-7.726-7.726s3.459-7.726,7.726-7.726h27.827
		c4.268,0,7.726,3.459,7.726,7.726S289.184,470.109,284.917,470.109z"/>
</g>
<g>
	<path style="fill:#ADC9E2;" d="M154.13,424.969h-13.449c-4.267,0-7.726-3.459-7.726-7.726s3.459-7.726,7.726-7.726h13.449
		c4.267,0,7.726,3.459,7.726,7.726S158.397,424.969,154.13,424.969z"/>
	<path style="fill:#ADC9E2;" d="M117.029,424.969H24.894c-4.267,0-7.726-3.459-7.726-7.726s3.459-7.726,7.726-7.726h92.135
		c4.267,0,7.726,3.459,7.726,7.726S121.296,424.969,117.029,424.969z"/>
	<path style="fill:#ADC9E2;" d="M154.13,447.847H73.898c-4.267,0-7.726-3.459-7.726-7.726s3.459-7.726,7.726-7.726h80.232
		c4.267,0,7.726,3.459,7.726,7.726S158.397,447.847,154.13,447.847z"/>
	<path style="fill:#ADC9E2;" d="M51.637,447.847H24.894c-4.267,0-7.726-3.459-7.726-7.726s3.459-7.726,7.726-7.726h26.743
		c4.267,0,7.726,3.459,7.726,7.726S55.904,447.847,51.637,447.847z"/>
	<path style="fill:#ADC9E2;" d="M154.13,470.109H24.894c-4.267,0-7.726-3.459-7.726-7.726s3.459-7.726,7.726-7.726H154.13
		c4.267,0,7.726,3.459,7.726,7.726S158.397,470.109,154.13,470.109z"/>
</g>
<g>
	<path style="fill:#E3F4FF;" d="M30.131,354.496c-4.267,0-7.769-3.459-7.769-7.726c0-4.268,3.416-7.726,7.683-7.726h0.086
		c4.267,0,7.726,3.459,7.726,7.726C37.858,351.037,34.398,354.496,30.131,354.496z"/>
	<path style="fill:#E3F4FF;" d="M91.84,292.788c-4.267,0-7.769-3.459-7.769-7.726c0-4.268,3.416-7.726,7.683-7.726h0.086
		c4.267,0,7.726,3.459,7.726,7.726C99.566,289.329,96.107,292.788,91.84,292.788z"/>
	<path style="fill:#E3F4FF;" d="M153.548,231.079c-4.267,0-7.77-3.459-7.77-7.726c0-4.268,3.417-7.726,7.684-7.726h0.086
		c4.267,0,7.726,3.459,7.726,7.726C161.275,227.621,157.815,231.079,153.548,231.079z"/>
</g>
<g>
	<path style="fill:#84A1C0;" d="M383.542,544.317c0,4.265-3.461,7.726-7.726,7.726H60.374c-4.275,0-7.726-3.461-7.726-7.726
		s3.451-7.726,7.726-7.726h315.441C380.081,536.59,383.542,540.052,383.542,544.317z"/>
	<path style="fill:#84A1C0;" d="M38.266,552.041H19.851c-4.267,0-7.726-3.459-7.726-7.726c0-4.267,3.459-7.726,7.726-7.726h18.415
		c4.267,0,7.726,3.459,7.726,7.726C45.992,548.582,42.533,552.041,38.266,552.041z"/>
</g>
<path style="fill:#618BAA;" d="M378.37,540c0,4.14-3.36,7.5-7.5,7.5H207v-15h163.87C375.01,532.5,378.37,535.86,378.37,540z"/>
</svg>
