<svg xmlns="http://www.w3.org/2000/svg" xmlns:xlink="http://www.w3.org/1999/xlink" width="63.121" height="87.311" viewBox="0 0 63.121 87.311">
  <defs>
    <clipPath id="clip-path">
      <rect id="Rectángulo_5706" data-name="Rectángulo 5706" width="21.53" height="7.238" fill="#212513"/>
    </clipPath>
  </defs>
  <g id="Grupo_55828" data-name="Grupo 55828" transform="translate(-326.904 -4414.064)">
    <g id="Grupo_55597" data-name="Grupo 55597" transform="translate(326.904 4414.064)">
      <g id="Grupo_55586" data-name="Grupo 55586" transform="translate(0 0)">
        <g id="Grupo_55585" data-name="Grupo 55585">
          <g id="Grupo_55582" data-name="Grupo 55582" transform="translate(0 3.071)">
            <rect id="Rectángulo_5701" data-name="Rectángulo 5701" width="62.571" height="83.477" transform="translate(0.275 0.275)" fill="#8ea02a"/>
            <rect id="Rectángulo_5702" data-name="Rectángulo 5702" width="54.912" height="74.779" transform="translate(4.104 5.901)" fill="#161d22" opacity="0.2" style="mix-blend-mode: multiply;isolation: isolate"/>
            <rect id="Rectángulo_5703" data-name="Rectángulo 5703" width="54.912" height="74.779" transform="translate(4.104 4.624)" fill="#fff"/>
            <path id="Trazado_103197" data-name="Trazado 103197" d="M740.136,635.248v-5.471h5.47Z" transform="translate(-740.136 -629.778)" fill="#212513"/>
            <path id="Trazado_103198" data-name="Trazado 103198" d="M792.075,635.248v-5.471H786.6Z" transform="translate(-728.954 -629.778)" fill="#212513"/>
            <path id="Trazado_103199" data-name="Trazado 103199" d="M740.136,693.268v5.471h5.47Z" transform="translate(-740.136 -614.499)" fill="#212513"/>
            <path id="Trazado_103200" data-name="Trazado 103200" d="M792.075,693.268v5.471H786.6Z" transform="translate(-728.954 -614.499)" fill="#212513"/>
          </g>
          <path id="Trazado_103201" data-name="Trazado 103201" d="M766.333,632.7h0c-2.159,0-3.909,1-3.909-1.16v-.333a3.91,3.91,0,0,1,3.909-3.909h0a3.91,3.91,0,0,1,3.909,3.909v.333C770.243,633.7,768.492,632.7,766.333,632.7Z" transform="translate(-734.773 -627.303)" fill="#212513"/>
          <g id="Grupo_55584" data-name="Grupo 55584" transform="translate(20.796 2.383)">
            <rect id="Rectángulo_5704" data-name="Rectángulo 5704" width="21.53" height="7.238" fill="#212513"/>
            <g id="Grupo_55583" data-name="Grupo 55583" clip-path="url(#clip-path)">
              <rect id="Rectángulo_5705" data-name="Rectángulo 5705" width="26.403" height="4.149" transform="translate(-2.151 3.977)" fill="#212513" opacity="0.2" style="mix-blend-mode: multiply;isolation: isolate"/>
            </g>
          </g>
          <path id="Trazado_103202" data-name="Trazado 103202" d="M766.649,628.883a.9.9,0,1,1-.9-.9A.9.9,0,0,1,766.649,628.883Z" transform="translate(-734.189 -627.139)" fill="#fff"/>
        </g>
      </g>
      <g id="Grupo_55588" data-name="Grupo 55588" transform="translate(12.833 17.649)">
        <g id="Grupo_55587" data-name="Grupo 55587">
          <rect id="Rectángulo_5707" data-name="Rectángulo 5707" width="31.232" height="0.949" fill="#8ea02a"/>
          <rect id="Rectángulo_5708" data-name="Rectángulo 5708" width="31.232" height="0.949" transform="translate(0 2.279)" fill="#8ea02a"/>
          <rect id="Rectángulo_5709" data-name="Rectángulo 5709" width="9.655" height="0.949" transform="translate(0 4.557)" fill="#8ea02a"/>
        </g>
      </g>
      <g id="Grupo_55590" data-name="Grupo 55590" transform="translate(12.833 32.166)">
        <g id="Grupo_55589" data-name="Grupo 55589">
          <rect id="Rectángulo_5710" data-name="Rectángulo 5710" width="39.338" height="0.949" fill="#b5b4b4"/>
          <rect id="Rectángulo_5711" data-name="Rectángulo 5711" width="39.338" height="0.949" transform="translate(0 2.279)" fill="#b5b4b4"/>
          <rect id="Rectángulo_5712" data-name="Rectángulo 5712" width="39.338" height="0.949" transform="translate(0 4.324)" fill="#b5b4b4"/>
          <rect id="Rectángulo_5713" data-name="Rectángulo 5713" width="39.338" height="0.949" transform="translate(0 6.603)" fill="#b5b4b4"/>
          <rect id="Rectángulo_5714" data-name="Rectángulo 5714" width="39.338" height="0.949" transform="translate(0 8.649)" fill="#b5b4b4"/>
          <rect id="Rectángulo_5715" data-name="Rectángulo 5715" width="39.338" height="0.949" transform="translate(0 10.927)" fill="#b5b4b4"/>
          <rect id="Rectángulo_5716" data-name="Rectángulo 5716" width="12.161" height="0.949" transform="translate(0 13.175)" fill="#b5b4b4"/>
        </g>
      </g>
      <g id="Grupo_55592" data-name="Grupo 55592" transform="translate(12.833 51.179)">
        <g id="Grupo_55591" data-name="Grupo 55591">
          <rect id="Rectángulo_5717" data-name="Rectángulo 5717" width="39.338" height="0.949" fill="#b5b4b4"/>
          <rect id="Rectángulo_5718" data-name="Rectángulo 5718" width="39.338" height="0.949" transform="translate(0 2.279)" fill="#b5b4b4"/>
          <rect id="Rectángulo_5719" data-name="Rectángulo 5719" width="39.338" height="0.949" transform="translate(0 4.324)" fill="#b5b4b4"/>
          <rect id="Rectángulo_5720" data-name="Rectángulo 5720" width="39.338" height="0.949" transform="translate(0 6.603)" fill="#b5b4b4"/>
          <rect id="Rectángulo_5721" data-name="Rectángulo 5721" width="39.338" height="0.949" transform="translate(0 8.649)" fill="#b5b4b4"/>
          <rect id="Rectángulo_5722" data-name="Rectángulo 5722" width="39.338" height="0.949" transform="translate(0 10.927)" fill="#b5b4b4"/>
        </g>
      </g>
      <g id="Grupo_55594" data-name="Grupo 55594" transform="translate(12.833 73.191)">
        <g id="Grupo_55593" data-name="Grupo 55593">
          <rect id="Rectángulo_5723" data-name="Rectángulo 5723" width="39.338" height="0.949" fill="#b5b4b4"/>
          <rect id="Rectángulo_5724" data-name="Rectángulo 5724" width="39.338" height="0.949" transform="translate(0 2.279)" fill="#b5b4b4"/>
        </g>
      </g>
      <rect id="Rectángulo_5725" data-name="Rectángulo 5725" width="40.395" height="2.344" transform="translate(12.801 13.383)" fill="#8ea02a"/>
      <g id="Grupo_55595" data-name="Grupo 55595" transform="translate(9.128 29.689)">
        <path id="Trazado_103203" data-name="Trazado 103203" d="M747.494,651.233h2.427v1.453h-1.157V686.3h1.157v1.453h-2.427Z" transform="translate(-747.494 -651.233)" fill="#212513"/>
      </g>
      <g id="Grupo_55596" data-name="Grupo 55596" transform="translate(53.196 29.689)">
        <path id="Trazado_103204" data-name="Trazado 103204" d="M785.441,687.751h-2.427V686.3h1.158V652.686h-1.158v-1.453h2.427Z" transform="translate(-783.014 -651.233)" fill="#212513"/>
      </g>
    </g>
  </g>
</svg>
