<svg xmlns="http://www.w3.org/2000/svg" width="46.465" height="46.465" viewBox="0 0 46.465 46.465">
  <g id="administracion" transform="translate(-1 -1)">
    <path id="Trazado_102869" data-name="Trazado 102869" d="M46.416,37.123a5.274,5.274,0,0,0,1.049-3.148V24.232a2.241,2.241,0,0,0-3.085-2.083,2.228,2.228,0,0,0-3.66-1.079,2.179,2.179,0,0,0-2.248-.447V17.242c.271-.122.575-.273.884-.432l1.764,1.006,2.928-2.929-1.012-1.772c.078-.169.15-.341.214-.513l1.967-.538V7.923l-1.967-.538c-.064-.172-.136-.344-.214-.513L44.047,5.1,41.119,2.17,39.345,3.182c-.17-.078-.341-.15-.513-.214L38.295,1H34.153l-.538,1.967c-.172.064-.343.136-.513.214L31.328,2.17,28.4,5.1l1.012,1.772c-.078.169-.15.341-.214.513l-1.968.538V9.244h-4.5a2.251,2.251,0,0,0-2.248,2.248v1.543a6.373,6.373,0,0,0-1.5,0V9.244A2.251,2.251,0,0,0,16.738,7H14.446a6.745,6.745,0,1,0,0,1.5h2.293a.75.75,0,0,1,.749.749v4.141a6.773,6.773,0,0,0-3.356,2.6H4.747A3.751,3.751,0,0,0,1,19.736V34.724a3.751,3.751,0,0,0,3.747,3.747h6v1.5H9.993a3,3,0,0,0-3,3,1.5,1.5,0,0,0,1.5,1.5H24.982a1.5,1.5,0,0,0,1.5-1.5,3,3,0,0,0-3-3h-.749v-1.5h6a3.711,3.711,0,0,0,2.456-.941l.542,1.114v1.326h-1.5v7.494H46.715V39.971h-1.5V38.721ZM4.506,11.864a3.74,3.74,0,0,1,6.478,0,5.218,5.218,0,0,1-6.478,0ZM6.246,7a1.5,1.5,0,1,1,1.5,1.5A1.5,1.5,0,0,1,6.246,7Zm5.792,3.755A5.2,5.2,0,0,0,9.968,8.988a3,3,0,1,0-4.446,0A5.2,5.2,0,0,0,3.451,10.75a5.246,5.246,0,1,1,8.587,0ZM26.8,24.906l.771,1.157a3.336,3.336,0,0,1,.408.876v7.036H5.5V20.485h7.539a6.742,6.742,0,0,0,13.4,0H27.98V22a1.9,1.9,0,0,0-1.18,2.909Zm-8.563-5.92a1.5,1.5,0,1,1,1.5,1.5A1.5,1.5,0,0,1,18.237,18.986Zm1.5,3a3.727,3.727,0,0,1,3.239,1.871,5.218,5.218,0,0,1-6.478,0A3.727,3.727,0,0,1,19.736,21.984Zm8.244-3H26.437a6.7,6.7,0,0,0-.349-1.5h2.642a2.251,2.251,0,0,1,2.248,2.248v3a4.8,4.8,0,0,0-1.5-.636V20.485a1.5,1.5,0,0,0-1.5-1.5Zm3.791-1.422,1.321-.753c.3.156.608.307.884.432V27.99a2.248,2.248,0,0,1-.229.989l-.629-3.143a4.807,4.807,0,0,0-.642-1.6h0v-4.5a3.715,3.715,0,0,0-.705-2.172Zm2.665-5.173a3,3,0,1,1,3.575,0,2.225,2.225,0,0,0-3.575,0ZM28.729,9.066l1.644-.45.121-.393A6,6,0,0,1,30.922,7.2l.193-.364L30.268,5.35l1.311-1.312,1.483.846.364-.193a5.9,5.9,0,0,1,1.027-.428l.393-.121L35.3,2.5H37.15l.45,1.644.393.121a6,6,0,0,1,1.027.429l.363.192,1.483-.846L42.178,5.35l-.847,1.483.193.364a5.941,5.941,0,0,1,.429,1.026l.121.393,1.644.45V10.92l-1.644.45-.121.393a6,6,0,0,1-.429,1.026l-.193.364.847,1.483-1.311,1.312L39.384,15.1l-.363.192c-.2.106-.384.2-.549.285v-1.7a4.5,4.5,0,1,0-4.5,0v1.7c-.16-.081-.338-.173-.548-.284l-.364-.193-1.483.846L30.27,14.637l.847-1.483-.193-.364a5.941,5.941,0,0,1-.429-1.026l-.121-.393-1.645-.45Zm-6.745,2.426a.75.75,0,0,1,.749-.749h4.5v1.321L29.2,12.6c.064.172.136.344.214.513L28.4,14.888l1.219,1.219a3.706,3.706,0,0,0-.89-.118H25.34a6.773,6.773,0,0,0-3.356-2.6Zm-2.248,3a5.239,5.239,0,0,1,4.294,8.251,5.2,5.2,0,0,0-2.071-1.762,3,3,0,1,0-4.446,0,5.2,5.2,0,0,0-2.071,1.762,5.239,5.239,0,0,1,4.294-8.251Zm5.246,28.478H8.494a1.5,1.5,0,0,1,1.5-1.5h13.49A1.5,1.5,0,0,1,24.982,42.968Zm-3.747-3H12.241v-1.5h8.993Zm7.494-3H4.747A2.251,2.251,0,0,1,2.5,34.724V19.736a2.251,2.251,0,0,1,2.248-2.248h8.637a6.656,6.656,0,0,0-.349,1.5H5.5a1.5,1.5,0,0,0-1.5,1.5v13.49a1.5,1.5,0,0,0,1.5,1.5H27.98a1.5,1.5,0,0,0,1.5-1.461l1.006,2.068a2.219,2.219,0,0,1-1.751.891Zm16.488,8.993H31.727v-4.5h13.49Zm-11.991-6V38.3l-2.65-5.446a3.7,3.7,0,0,1-.465-1.393l-.519-4.147a4.841,4.841,0,0,0-.773-2.08l-.772-1.158a.4.4,0,0,1,.333-.624,3.342,3.342,0,0,1,3.267,2.678l.964,4.817h1.827l.64-1.281a3.768,3.768,0,0,0,.4-1.675V13.74a.749.749,0,1,1,1.5,0V25.731h1.5v-3a.749.749,0,1,1,1.5,0v3h1.5v-3a.749.749,0,1,1,1.5,0v3h1.5v-1.5a.749.749,0,1,1,1.5,0v9.743a3.768,3.768,0,0,1-.749,2.248l-1.5,2v1.748Z" fill="#95af3d"/>
    <path id="Trazado_102870" data-name="Trazado 102870" d="M25.488,35h-1.5v3h-1.5v-1.5h-1.5v1.5h-1.5V35h-1.5v3h-1.5V32H15v6H13.5V30.5H12v7.494H10.5V29H9V39.492H26.986v-1.5h-1.5Z" transform="translate(-2.005 -7.016)" fill="#95af3d"/>
  </g>
</svg>
