<svg xmlns="http://www.w3.org/2000/svg" width="35.632" height="38.33" viewBox="0 0 35.632 38.33">
  <g id="Grupo_55446" data-name="Grupo 55446" transform="translate(-1000.173 -1487.085)">
    <path id="Trazado_102871" data-name="Trazado 102871" d="M1000.617,1590.762a.812.812,0,0,1-.373-.72c-.018-3.132-.047-6.263-.071-9.394-.005-.693.156-.85.862-.852h.642v-3.987c0-.087,0-.175,0-.262.018-.4.24-.649.576-.651a.58.58,0,0,1,.575.649c.012.948,0,1.9.005,2.844,0,.447,0,.895,0,1.374h6.355a10.034,10.034,0,0,1-.432-4.957,9.865,9.865,0,0,1,2.129-4.606h-.463q-2.732,0-5.464,0c-.706,0-.852-.148-.852-.858q0-4.4,0-8.8c0-.72.133-.852.847-.852h7.036c.671,0,.823.156.823.843q0,3.724,0,7.448v.413c4.2-2.357,8.21-2.239,11.943.931a8.88,8.88,0,0,1,2.862,4.805,9.733,9.733,0,0,1-.3,5.627h3.1v-.449q0-5.521,0-11.041a1.807,1.807,0,0,1,.012-.373.542.542,0,0,1,.574-.483.523.523,0,0,1,.543.51,3.628,3.628,0,0,1,.012.411q0,5.483,0,10.966v.494h.66c.7,0,.866.168.867.857,0,2.071,0,4.142,0,6.213a.819.819,0,0,0,.264.656c.726.7,1.435,1.423,2.148,2.139.435.437.417.719-.063,1.1h-.449l-4.99-4.991-2.431,2.381c.479.477.975.966,1.467,1.458.471.471.476.664.04,1.152h-22.534a1.738,1.738,0,0,1-.289-.453c-.1-.381.218-.68.7-.68q9.994.022,19.989.01h.426l.038-.094c-.323-.308-.65-.612-.966-.926-.393-.389-.4-.617-.035-1.02.041-.045.079-.093.119-.139l-1.107-1.077c-.621.5-.717.5-1.309-.094-.353-.353-.719-.694-1.054-1.063a.421.421,0,0,0-.6-.111,8.29,8.29,0,0,1-3.175.907,9.5,9.5,0,0,1-9.372-4.791.5.5,0,0,0-.491-.291c-2.57.01-5.14.006-7.711.007-.118,0-.237.014-.321.019v8.672c.9,0,1.745.007,2.59,0,.323,0,.608.036.732.379s-.074.565-.335.747Zm17.63-5.832a8.5,8.5,0,1,0-8.5-8.484A8.471,8.471,0,0,0,1018.247,1584.93Zm-12.969-24.1v8.2h6.366v-8.2Zm26.628,20.143h-5.135c.561.55,1.06,1.031,1.549,1.522a.579.579,0,0,1,.054.89c-.063.076-.132.147-.215.24.326.321.646.636.966.949.043.042.091.08.134.118.682-.526.744-.522,1.367.1.408.411.81.826,1.28,1.306Zm-7.163,4.329,2.325-2.317-.887-.979c-.38.43-.73.868-1.125,1.263s-.826.738-1.24,1.1Zm2.662-.8-1.03,1.024.965.988,1.043-1.019Z" transform="translate(0 -65.346)" fill="#95af3d"/>
    <path id="Trazado_102872" data-name="Trazado 102872" d="M1030.106,1493.065H1016.82c-.487,0-.488,0-.488.5q0,6.774,0,13.548a2.828,2.828,0,0,1-.02.447.523.523,0,0,1-.558.491.541.541,0,0,1-.565-.491,1.584,1.584,0,0,1-.013-.336q0-6.868,0-13.735a1.554,1.554,0,0,1,.618-1.368.4.4,0,0,0,.134-.27c.018-.261.012-.524.005-.786a1.494,1.494,0,0,1,.621-1.365.455.455,0,0,0,.132-.314c.018-.3,0-.6.008-.9a1.328,1.328,0,0,1,1.445-1.4h23.99a1.3,1.3,0,0,1,1.416,1.418c0,.15.011.3,0,.449a.966.966,0,0,0,.368.966,1.62,1.62,0,0,1,.374.816,1.913,1.913,0,0,1,.015.633.927.927,0,0,0,.375.961,1.21,1.21,0,0,1,.39,1.083c-.005,1.447,0,2.894,0,4.342,0,.686,0,1.372,0,2.058,0,.525-.178.755-.565.756s-.574-.249-.575-.751q0-3.125,0-6.25c0-.5,0-.5-.486-.5Zm-13.014-1.18h26.073v-.625c0-.621,0-.621-.638-.621h-24.816a1.062,1.062,0,0,0-.37.012c-.1.04-.229.154-.237.245C1017.074,1491.216,1017.092,1491.541,1017.092,1491.885Zm.755-2.424h24.567v-.7c0-.558,0-.559-.559-.559h-23.465c-.087,0-.192-.03-.258.008-.108.063-.26.161-.271.259A9.433,9.433,0,0,0,1017.848,1489.461Z" transform="translate(-13.497)" fill="#95af3d"/>
    <path id="Trazado_102873" data-name="Trazado 102873" d="M1148.367,1583.723q3.311,0,6.622,0c.146,0,.343-.016.428.067.153.148.342.374.327.551s-.24.365-.414.488c-.1.073-.29.041-.439.041q-6.566,0-13.132,0c-.608,0-.875-.175-.878-.57s.263-.581.863-.581Z" transform="translate(-126.636 -86.972)" fill="#95af3d"/>
    <path id="Trazado_102874" data-name="Trazado 102874" d="M1148.344,1559.661c2.257,0,4.514,0,6.771,0,.315,0,.58.107.621.409a1.036,1.036,0,0,1-.224.614c-.054.082-.248.1-.379.1q-6.808.007-13.616,0a.563.563,0,0,1-.637-.571c.005-.34.248-.548.657-.549Q1144.94,1559.659,1148.344,1559.661Z" transform="translate(-126.633 -65.314)" fill="#95af3d"/>
    <path id="Trazado_102875" data-name="Trazado 102875" d="M1146.28,1609.026c-1.458,0-2.915,0-4.373,0a.779.779,0,0,1-.464-.079.81.81,0,0,1-.307-.529.824.824,0,0,1,.368-.488.889.889,0,0,1,.472-.057q4.316,0,8.633,0a2.137,2.137,0,0,1,.408.033.509.509,0,0,1,.44.525.517.517,0,0,1-.4.558,1.469,1.469,0,0,1-.405.039Q1148.466,1609.028,1146.28,1609.026Z" transform="translate(-126.865 -108.701)" fill="#95af3d"/>
    <path id="Trazado_102876" data-name="Trazado 102876" d="M1115.919,1669.283a7.221,7.221,0,1,1,7.25-7.117A7.212,7.212,0,0,1,1115.919,1669.283Zm.024-13.3a6.089,6.089,0,1,0,6.094,6.085A6.1,6.1,0,0,0,1115.942,1655.981Z" transform="translate(-97.687 -150.978)" fill="#95af3d"/>
  </g>
</svg>
