<svg id="Grupo_55613" data-name="Grupo 55613" xmlns="http://www.w3.org/2000/svg" xmlns:xlink="http://www.w3.org/1999/xlink" width="63.121" height="87.311" viewBox="0 0 63.121 87.311">
  <defs>
    <clipPath id="clip-path">
      <rect id="Rectángulo_5731" data-name="Rectángulo 5731" width="21.53" height="7.238" fill="#212513"/>
    </clipPath>
  </defs>
  <g id="Grupo_55602" data-name="Grupo 55602" transform="translate(0 0)">
    <g id="Grupo_55601" data-name="Grupo 55601">
      <g id="Grupo_55598" data-name="Grupo 55598" transform="translate(0 3.071)">
        <rect id="Rectángulo_5726" data-name="Rectángulo 5726" width="62.571" height="83.477" transform="translate(0.275 0.275)" fill="#8ea02a"/>
        <rect id="Rectángulo_5727" data-name="Rectángulo 5727" width="54.912" height="74.779" transform="translate(4.104 5.901)" fill="#161d22" opacity="0.2" style="mix-blend-mode: multiply;isolation: isolate"/>
        <rect id="Rectángulo_5728" data-name="Rectángulo 5728" width="54.912" height="74.779" transform="translate(4.104 4.624)" fill="#fff"/>
        <path id="Trazado_103205" data-name="Trazado 103205" d="M805.167,635.248v-5.471h5.47Z" transform="translate(-805.167 -629.778)" fill="#212513"/>
        <path id="Trazado_103206" data-name="Trazado 103206" d="M857.105,635.248v-5.471h-5.47Z" transform="translate(-793.984 -629.778)" fill="#212513"/>
        <path id="Trazado_103207" data-name="Trazado 103207" d="M805.167,693.268v5.471h5.47Z" transform="translate(-805.167 -614.499)" fill="#212513"/>
        <path id="Trazado_103208" data-name="Trazado 103208" d="M857.105,693.268v5.471h-5.47Z" transform="translate(-793.984 -614.499)" fill="#212513"/>
      </g>
      <path id="Trazado_103209" data-name="Trazado 103209" d="M831.363,632.7h0c-2.159,0-3.908,1-3.908-1.16v-.333a3.909,3.909,0,0,1,3.908-3.909h0a3.909,3.909,0,0,1,3.909,3.909v.333C835.272,633.7,833.523,632.7,831.363,632.7Z" transform="translate(-799.803 -627.303)" fill="#212513"/>
      <g id="Grupo_55600" data-name="Grupo 55600" transform="translate(20.796 2.383)">
        <rect id="Rectángulo_5729" data-name="Rectángulo 5729" width="21.53" height="7.238" fill="#212513"/>
        <g id="Grupo_55599" data-name="Grupo 55599" clip-path="url(#clip-path)">
          <rect id="Rectángulo_5730" data-name="Rectángulo 5730" width="26.403" height="4.149" transform="translate(-2.151 3.977)" fill="#212513" opacity="0.2" style="mix-blend-mode: multiply;isolation: isolate"/>
        </g>
      </g>
      <path id="Trazado_103210" data-name="Trazado 103210" d="M831.68,628.883a.9.9,0,1,1-.9-.9A.9.9,0,0,1,831.68,628.883Z" transform="translate(-799.22 -627.139)" fill="#fff"/>
    </g>
  </g>
  <g id="Grupo_55604" data-name="Grupo 55604" transform="translate(12.833 17.649)">
    <g id="Grupo_55603" data-name="Grupo 55603">
      <rect id="Rectángulo_5732" data-name="Rectángulo 5732" width="31.232" height="0.949" fill="#b5b4b4"/>
      <rect id="Rectángulo_5733" data-name="Rectángulo 5733" width="31.232" height="0.949" transform="translate(0 2.279)" fill="#b5b4b4"/>
      <rect id="Rectángulo_5734" data-name="Rectángulo 5734" width="9.655" height="0.949" transform="translate(0 4.557)" fill="#b5b4b4"/>
    </g>
  </g>
  <g id="Grupo_55606" data-name="Grupo 55606" transform="translate(12.833 32.166)">
    <g id="Grupo_55605" data-name="Grupo 55605">
      <rect id="Rectángulo_5735" data-name="Rectángulo 5735" width="39.338" height="0.949" fill="#8ea02a"/>
      <rect id="Rectángulo_5736" data-name="Rectángulo 5736" width="39.338" height="0.949" transform="translate(0 2.279)" fill="#8ea02a"/>
      <rect id="Rectángulo_5737" data-name="Rectángulo 5737" width="39.338" height="0.949" transform="translate(0 4.324)" fill="#8ea02a"/>
      <rect id="Rectángulo_5738" data-name="Rectángulo 5738" width="39.338" height="0.949" transform="translate(0 6.603)" fill="#8ea02a"/>
      <rect id="Rectángulo_5739" data-name="Rectángulo 5739" width="39.338" height="0.949" transform="translate(0 8.649)" fill="#8ea02a"/>
      <rect id="Rectángulo_5740" data-name="Rectángulo 5740" width="39.338" height="0.949" transform="translate(0 10.927)" fill="#8ea02a"/>
      <rect id="Rectángulo_5741" data-name="Rectángulo 5741" width="12.161" height="0.949" transform="translate(0 13.175)" fill="#8ea02a"/>
    </g>
  </g>
  <g id="Grupo_55608" data-name="Grupo 55608" transform="translate(12.833 51.179)">
    <g id="Grupo_55607" data-name="Grupo 55607">
      <rect id="Rectángulo_5742" data-name="Rectángulo 5742" width="39.338" height="0.949" fill="#8ea02a"/>
      <rect id="Rectángulo_5743" data-name="Rectángulo 5743" width="39.338" height="0.949" transform="translate(0 2.279)" fill="#8ea02a"/>
      <rect id="Rectángulo_5744" data-name="Rectángulo 5744" width="39.338" height="0.949" transform="translate(0 4.324)" fill="#8ea02a"/>
      <rect id="Rectángulo_5745" data-name="Rectángulo 5745" width="39.338" height="0.949" transform="translate(0 6.603)" fill="#8ea02a"/>
      <rect id="Rectángulo_5746" data-name="Rectángulo 5746" width="39.338" height="0.949" transform="translate(0 8.649)" fill="#8ea02a"/>
      <rect id="Rectángulo_5747" data-name="Rectángulo 5747" width="39.338" height="0.949" transform="translate(0 10.927)" fill="#8ea02a"/>
    </g>
  </g>
  <g id="Grupo_55610" data-name="Grupo 55610" transform="translate(12.833 73.191)">
    <g id="Grupo_55609" data-name="Grupo 55609">
      <rect id="Rectángulo_5748" data-name="Rectángulo 5748" width="39.338" height="0.949" fill="#b5b4b4"/>
      <rect id="Rectángulo_5749" data-name="Rectángulo 5749" width="39.338" height="0.949" transform="translate(0 2.279)" fill="#b5b4b4"/>
    </g>
  </g>
  <rect id="Rectángulo_5750" data-name="Rectángulo 5750" width="40.395" height="2.344" transform="translate(12.801 13.383)" fill="#b5b4b4"/>
  <g id="Grupo_55611" data-name="Grupo 55611" transform="translate(9.128 29.689)">
    <path id="Trazado_103211" data-name="Trazado 103211" d="M812.524,651.233h2.427v1.453h-1.157V686.3h1.157v1.453h-2.427Z" transform="translate(-812.524 -651.233)" fill="#212513"/>
  </g>
  <g id="Grupo_55612" data-name="Grupo 55612" transform="translate(53.196 29.689)">
    <path id="Trazado_103212" data-name="Trazado 103212" d="M850.471,687.751h-2.427V686.3H849.2V652.686h-1.157v-1.453h2.427Z" transform="translate(-848.044 -651.233)" fill="#212513"/>
  </g>
</svg>
