<svg xmlns="http://www.w3.org/2000/svg" width="46.028" height="46" viewBox="0 0 46.028 46">
  <g id="bosquejo" transform="translate(0 -0.153)">
    <g id="Grupo_55414" data-name="Grupo 55414" transform="translate(3.835 7.796)">
      <g id="Grupo_55413" data-name="Grupo 55413">
        <path id="Trazado_102842" data-name="Trazado 102842" d="M45.541,85.179a2.877,2.877,0,0,0-2.877,2.877v7.671h1.918V88.056a.959.959,0,0,1,.959-.959H68.555V85.179Z" transform="translate(-42.664 -85.179)" fill="#95af3d"/>
      </g>
    </g>
    <g id="Grupo_55416" data-name="Grupo 55416" transform="translate(3.835 26.016)">
      <g id="Grupo_55415" data-name="Grupo 55415">
        <path id="Trazado_102843" data-name="Trazado 102843" d="M45.541,298.393a.959.959,0,0,1-.959-.959v-9.589H42.664v9.589a2.877,2.877,0,0,0,2.877,2.877H55.13v-1.918Z" transform="translate(-42.664 -287.845)" fill="#95af3d"/>
      </g>
    </g>
    <g id="Grupo_55418" data-name="Grupo 55418" transform="translate(0 15.468)">
      <g id="Grupo_55417" data-name="Grupo 55417">
        <path id="Trazado_102844" data-name="Trazado 102844" d="M30.4,194.083,7.116,170.795a.959.959,0,0,0-1.356,0L.281,176.274a.959.959,0,0,0,0,1.356l23.288,23.288a.958.958,0,0,0,1.356,0l5.479-5.479A.959.959,0,0,0,30.4,194.083Zm-6.157,4.8L2.315,176.952l4.123-4.123L28.37,194.761Z" transform="translate(0 -170.514)" fill="#95af3d"/>
      </g>
    </g>
    <g id="Grupo_55420" data-name="Grupo 55420" transform="translate(27.808 36.564)">
      <g id="Grupo_55419" data-name="Grupo 55419">
        <path id="Trazado_102845" data-name="Trazado 102845" d="M323.715,405.179H309.331V407.1h10.548v4.795a.959.959,0,0,0,.959.959h2.877a3.836,3.836,0,1,0,0-7.671Zm0,5.754H321.8V407.1h1.918a1.918,1.918,0,0,1,0,3.836Z" transform="translate(-309.331 -405.179)" fill="#95af3d"/>
      </g>
    </g>
    <g id="Grupo_55422" data-name="Grupo 55422" transform="translate(37.398 7.796)">
      <g id="Grupo_55421" data-name="Grupo 55421">
        <path id="Trazado_102846" data-name="Trazado 102846" d="M420.793,85.179H416V87.1h4.795a1.918,1.918,0,0,1,1.918,1.918v28.767h1.918V89.015A3.836,3.836,0,0,0,420.793,85.179Z" transform="translate(-415.998 -85.179)" fill="#95af3d"/>
      </g>
    </g>
    <g id="Grupo_55424" data-name="Grupo 55424" transform="translate(14.665 27.256)">
      <g id="Grupo_55423" data-name="Grupo 55423" transform="translate(0 0)">
        <rect id="Rectángulo_5646" data-name="Rectángulo 5646" width="4.069" height="1.918" transform="translate(0 2.877) rotate(-45)" fill="#95af3d"/>
      </g>
    </g>
    <g id="Grupo_55426" data-name="Grupo 55426" transform="translate(10.829 23.42)">
      <g id="Grupo_55425" data-name="Grupo 55425" transform="translate(0 0)">
        <rect id="Rectángulo_5647" data-name="Rectángulo 5647" width="4.069" height="1.918" transform="translate(0 2.877) rotate(-45)" fill="#95af3d"/>
      </g>
    </g>
    <g id="Grupo_55428" data-name="Grupo 55428" transform="translate(18.498 31.091)">
      <g id="Grupo_55427" data-name="Grupo 55427" transform="translate(0 0)">
        <rect id="Rectángulo_5648" data-name="Rectángulo 5648" width="4.069" height="1.918" transform="translate(0 2.877) rotate(-45)" fill="#95af3d"/>
      </g>
    </g>
    <g id="Grupo_55430" data-name="Grupo 55430" transform="translate(22.336 34.929)">
      <g id="Grupo_55429" data-name="Grupo 55429" transform="translate(0 0)">
        <rect id="Rectángulo_5649" data-name="Rectángulo 5649" width="4.069" height="1.918" transform="translate(0 2.877) rotate(-45)" fill="#95af3d"/>
      </g>
    </g>
    <g id="Grupo_55432" data-name="Grupo 55432" transform="translate(6.991 19.584)">
      <g id="Grupo_55431" data-name="Grupo 55431" transform="translate(0 0)">
        <rect id="Rectángulo_5650" data-name="Rectángulo 5650" width="4.069" height="1.918" transform="translate(0 2.877) rotate(-45)" fill="#95af3d"/>
      </g>
    </g>
    <g id="Grupo_55434" data-name="Grupo 55434" transform="translate(21.167 0.153)">
      <g id="Grupo_55433" data-name="Grupo 55433">
        <path id="Trazado_102847" data-name="Trazado 102847" d="M255.651,2.281,254.325.956a2.9,2.9,0,0,0-4.007,0L235.737,15.537a.959.959,0,0,0,0,1.356l3.977,3.977a.958.958,0,0,0,1.356,0L255.651,6.288h0A2.833,2.833,0,0,0,255.651,2.281ZM254.3,4.931l-13.9,13.9-2.621-2.621,13.9-13.9a.937.937,0,0,1,1.295,0L254.3,3.636h0A.916.916,0,0,1,254.3,4.931Z" transform="translate(-235.456 -0.153)" fill="#95af3d"/>
      </g>
    </g>
    <g id="Grupo_55436" data-name="Grupo 55436" transform="translate(19.178 15.912)">
      <g id="Grupo_55435" data-name="Grupo 55435">
        <path id="Trazado_102848" data-name="Trazado 102848" d="M219.945,178.822l-4.139,1.382,1.382-4.145-1.822-.607-1.989,5.965a.959.959,0,0,0,.91,1.262.974.974,0,0,0,.3-.046l5.965-1.989Z" transform="translate(-213.328 -175.451)" fill="#95af3d"/>
      </g>
    </g>
    <g id="Grupo_55438" data-name="Grupo 55438" transform="translate(33.377 3.606)">
      <g id="Grupo_55437" data-name="Grupo 55437" transform="translate(0 0)">
        <rect id="Rectángulo_5651" data-name="Rectángulo 5651" width="1.918" height="5.624" transform="translate(0 1.356) rotate(-45)" fill="#95af3d"/>
      </g>
    </g>
    <g id="Grupo_55440" data-name="Grupo 55440" transform="translate(20.137 21.221)">
      <g id="Grupo_55439" data-name="Grupo 55439">
        <rect id="Rectángulo_5652" data-name="Rectángulo 5652" width="14.384" height="1.918" fill="#95af3d"/>
      </g>
    </g>
    <g id="Grupo_55442" data-name="Grupo 55442" transform="translate(36.439 21.221)">
      <g id="Grupo_55441" data-name="Grupo 55441">
        <rect id="Rectángulo_5653" data-name="Rectángulo 5653" width="1.918" height="1.918" fill="#95af3d"/>
      </g>
    </g>
    <g id="Grupo_55444" data-name="Grupo 55444" transform="translate(40.274 21.221)">
      <g id="Grupo_55443" data-name="Grupo 55443">
        <rect id="Rectángulo_5654" data-name="Rectángulo 5654" width="1.918" height="1.918" fill="#95af3d"/>
      </g>
    </g>
  </g>
</svg>
