<svg xmlns="http://www.w3.org/2000/svg" xmlns:xlink="http://www.w3.org/1999/xlink" width="201" height="202" viewBox="0 0 201 202">
  <defs>
    <clipPath id="clip-path">
      <ellipse id="Elipse_154" data-name="Elipse 154" cx="90.5" cy="91" rx="90.5" ry="91" transform="translate(0.001 -0.054)" fill="#fff" stroke="#707070" stroke-width="1"/>
    </clipPath>
    <linearGradient id="linear-gradient" y1="0.5" x2="1" y2="0.5" gradientUnits="objectBoundingBox">
      <stop offset="0" stop-color="#fff"/>
      <stop offset="0.354" stop-color="#e8f5ff"/>
      <stop offset="0.702" stop-color="#daefff"/>
      <stop offset="1" stop-color="#d6edff"/>
    </linearGradient>
  </defs>
  <g id="Grupo_55827" data-name="Grupo 55827" transform="translate(-327 -2434)">
    <g id="Grupo_55449" data-name="Grupo 55449" transform="translate(336.578 2444.033)">
      <g id="Elipse_157" data-name="Elipse 157" transform="translate(0.422 -0.034)" fill="#fff" stroke="#95af3d" stroke-linejoin="round" stroke-width="10">
        <ellipse cx="90.5" cy="91" rx="90.5" ry="91" stroke="none"/>
        <ellipse cx="90.5" cy="91" rx="95.5" ry="96" fill="none"/>
      </g>
    </g>
    <g id="Grupo_55542" data-name="Grupo 55542" transform="translate(209.923 2337.41)">
      <g id="Grupo_55453" data-name="Grupo 55453" transform="translate(140.316 161.248)">
        <path id="Trazado_102898" data-name="Trazado 102898" d="M201.924,194.365l-3.59,5.074c-.01-.023-.024-.044-.034-.067-.335-.762-.594-1.54-.876-2.3a.227.227,0,0,0-.007-.125,3.645,3.645,0,0,1-.249-1.943c.1-.479.3-.928.385-1.412a3.927,3.927,0,0,0-1.251-3.909c-.225-.18-.51.166-.283.347a3.766,3.766,0,0,1,.913,4.213,4.536,4.536,0,0,0-.217,1.18,6.673,6.673,0,0,0-1.329-1.8c-.21-.2-.493.148-.284.347,1.679,1.589,2,3.874,2.931,5.892l-.006.009a4.6,4.6,0,0,0-1.209-.466c-1.059-.247-2.514-.018-3.1-1.162-.13-.253-.553-.1-.422.153a2.71,2.71,0,0,0,2.381,1.3,6.145,6.145,0,0,1,2.076.566l-3.086,4.361c-1.1-1.027-2.975-.714-4.01-5.2-.465-2.011-1.353-6.7-2.189-7.756-.854-.95-2.468-3.272-1.642-4.394,1.369-1.861,3.774.4,5.24.177,5.317-.789,8.295,3.625,9.094,5.5A7.921,7.921,0,0,0,201.924,194.365Z" transform="translate(-186.593 -186.533)" fill="#ffd4b3"/>
        <path id="Trazado_102899" data-name="Trazado 102899" d="M210.7,221.869l-.277.39a6.145,6.145,0,0,0-2.076-.566,2.71,2.71,0,0,1-2.381-1.3c-.131-.256.291-.406.422-.153.588,1.144,2.043.914,3.1,1.162A4.6,4.6,0,0,1,210.7,221.869Z" transform="translate(-199.269 -208.528)" fill="#fff"/>
        <path id="Trazado_102900" data-name="Trazado 102900" d="M213.57,199.482c-.09.484-.284.933-.385,1.412a3.645,3.645,0,0,0,.249,1.943.228.228,0,0,1,.007.125c.282.759.541,1.537.876,2.3.01.023.023.044.034.067l-.3.426c-.928-2.018-1.252-4.3-2.931-5.892-.209-.2.074-.546.284-.347a6.672,6.672,0,0,1,1.329,1.8,4.536,4.536,0,0,1,.217-1.18,3.766,3.766,0,0,0-.913-4.213c-.227-.18.058-.526.283-.347A3.927,3.927,0,0,1,213.57,199.482Z" transform="translate(-202.611 -192.421)" fill="#fff"/>
      </g>
      <g id="Grupo_55454" data-name="Grupo 55454" transform="translate(272.5 163.852)">
        <path id="Trazado_102901" data-name="Trazado 102901" d="M569.812,206.251l1.559-6.017c.018.018.038.032.056.051.584.593,1.1,1.229,1.634,1.839a.225.225,0,0,0,.051.114,3.645,3.645,0,0,1,.922,1.728c.075.484.053.973.14,1.457a3.927,3.927,0,0,0,2.555,3.212.224.224,0,0,0,.142-.424,3.766,3.766,0,0,1-2.347-3.616,4.534,4.534,0,0,0-.215-1.181,6.669,6.669,0,0,0,1.88,1.21c.267.111.408-.313.142-.425-2.133-.891-3.246-2.913-4.829-4.471l0-.011a4.587,4.587,0,0,0,1.3.008c1.079-.144,2.358-.874,3.313-.013.211.191.553-.1.34-.292a2.71,2.71,0,0,0-2.686-.372,6.15,6.15,0,0,1-2.142.206l1.34-5.172c1.39.572,3.035-.387,5.593,3.442,1.148,1.716,3.641,5.788,4.8,6.477,1.135.586,3.468,2.184,3.093,3.527-.621,2.225-3.669.968-4.962,1.692-4.693,2.623-9.041-.449-10.453-1.921A7.905,7.905,0,0,0,569.812,206.251Z" transform="translate(-569.812 -194.083)" fill="#ffd4b3"/>
        <path id="Trazado_102902" data-name="Trazado 102902" d="M574.72,208.808l.12-.463a6.15,6.15,0,0,0,2.142-.206,2.71,2.71,0,0,1,2.686.371c.214.193-.128.483-.34.292-.956-.861-2.235-.131-3.313.013A4.586,4.586,0,0,1,574.72,208.808Z" transform="translate(-573.027 -203.173)" fill="#fff"/>
        <path id="Trazado_102903" data-name="Trazado 102903" d="M577.135,216.146c-.088-.484-.065-.973-.14-1.457a3.646,3.646,0,0,0-.922-1.728.225.225,0,0,1-.051-.114c-.533-.61-1.051-1.246-1.634-1.839-.018-.018-.038-.033-.055-.051l.131-.5c1.583,1.557,2.7,3.579,4.829,4.471.266.112.125.536-.142.425a6.67,6.67,0,0,1-1.88-1.21,4.534,4.534,0,0,1,.215,1.181,3.766,3.766,0,0,0,2.347,3.616.224.224,0,0,1-.142.424A3.926,3.926,0,0,1,577.135,216.146Z" transform="translate(-572.773 -204.806)" fill="#fff"/>
      </g>
      <g id="Grupo_55455" data-name="Grupo 55455" transform="translate(140.616 204.282)">
        <path id="Trazado_102904" data-name="Trazado 102904" d="M199.417,318.817l-.342.078a.221.221,0,0,0-.124-.009,3.643,3.643,0,0,1-1.959.007c-.463-.16-.885-.409-1.354-.558a3.925,3.925,0,0,0-4.034.756c-.206.2.1.526.309.324a3.767,3.767,0,0,1,4.294-.383,4.53,4.53,0,0,0,1.145.362,6.7,6.7,0,0,0-1.95,1.1c-.223.184.086.507.309.325a8.529,8.529,0,0,1,3.706-1.562v6.761c-2.317.208-5.848.512-6.816,1.1-1.049.73-3.553,2.043-4.565,1.084-1.676-1.59.862-3.7.827-5.178-.123-5.374,4.627-7.78,6.587-8.34,2.467-.7,3.537-2.065,3.967-3.385Z" transform="translate(-187.463 -311.294)" fill="#ffd4b3"/>
        <path id="Trazado_102905" data-name="Trazado 102905" d="M204.729,331.808a3.644,3.644,0,0,0,1.959-.007.221.221,0,0,1,.124.009l.342-.078v.435a8.529,8.529,0,0,0-3.706,1.562c-.223.183-.532-.141-.309-.325a6.7,6.7,0,0,1,1.95-1.1,4.533,4.533,0,0,1-1.144-.362,3.767,3.767,0,0,0-4.294.382c-.207.2-.515-.123-.309-.324a3.925,3.925,0,0,1,4.034-.756C203.844,331.4,204.266,331.648,204.729,331.808Z" transform="translate(-195.2 -324.21)" fill="#fff"/>
      </g>
      <g id="Grupo_55456" data-name="Grupo 55456" transform="translate(128.834 164.582)">
        <path id="Trazado_102906" data-name="Trazado 102906" d="M158.8,197.271c5.345-.574,8.141,3.956,8.864,5.863,1.664,4.393,5.131,3.939,6.512,3.605a5.557,5.557,0,0,1,2.869.34v11.194c-.315-.272-.633-.539-.953-.8a12.231,12.231,0,0,0-2.77-1.653c-.229-.1-.461-.187-.7-.269a.218.218,0,0,0-.106-.055c-.088-.019-.172-.042-.256-.065l-.127-.041c-2.71-.876-2.892-4.174-1.363-6.324.165-.232-.167-.533-.335-.3a5.475,5.475,0,0,0-1.025,4.206,3.718,3.718,0,0,0,1.059,1.948c-.208-.057-.417-.117-.623-.18a8.786,8.786,0,0,1-2.984-2.119,10.638,10.638,0,0,1-1.162-1.23c0-.008-.006-.015-.01-.022a4.312,4.312,0,0,0-.469-.64,7.227,7.227,0,0,1-.676-1.3c-.3-.774-.532-1.562-.783-2.332a.22.22,0,0,0,0-.125,3.646,3.646,0,0,1-.171-1.951c.12-.474.333-.916.442-1.4a3.928,3.928,0,0,0-1.092-3.957c-.218-.189-.516.146-.3.335a3.765,3.765,0,0,1,.742,4.246,4.536,4.536,0,0,0-.264,1.171,6.682,6.682,0,0,0-1.256-1.851c-.2-.207-.5.129-.3.336,1.614,1.656,1.845,3.953,2.691,6.006a.105.105,0,0,1,.007.016,4.636,4.636,0,0,0-1.2-.523c-1.048-.29-2.511-.12-3.053-1.286-.12-.258-.548-.126-.427.136a2.711,2.711,0,0,0,2.327,1.394,4.887,4.887,0,0,1,2.918,1.317,11.13,11.13,0,0,0,1.31,1.579,14.8,14.8,0,0,0,2.531,2.128,10.885,10.885,0,0,0,3.177,1.094,4.377,4.377,0,0,0,.539.158,11.43,11.43,0,0,1,2.8,1.437,14.668,14.668,0,0,1,1.455,1.176,4.982,4.982,0,0,0-3.446.534,4.7,4.7,0,0,0-1.113.867,14.2,14.2,0,0,1-1.342,1.567c-1.22.945-2.525-.225-3.562-.824-.25-.145-.45.256-.2.4a5.594,5.594,0,0,0,2.764,1.211c1.341-.01,1.894-1.194,2.678-2.056a4.286,4.286,0,0,1,4.62-1.09v3.75a10.549,10.549,0,0,1-6.722,1.957c-8.473-.732-7.83-6.735-9.19-9.7-.865-1.886-3.238-.746-4.226-5.98-.383-2.029-1.081-6.752-1.874-7.839-.815-.984-2.335-3.369-1.464-4.457C155.01,195.079,157.321,197.43,158.8,197.271Z" transform="translate(-153.305 -196.198)" fill="#b3deff"/>
        <path id="Trazado_102907" data-name="Trazado 102907" d="M193.865,243.369a7.238,7.238,0,0,0,2.551,1.723c.206.063.414.123.623.18a3.718,3.718,0,0,1-1.059-1.948,4.4,4.4,0,0,1-.083-.8c-.1.032-.211.068-.335.109A9.55,9.55,0,0,0,193.865,243.369Z" transform="translate(-179.875 -226.544)" fill="#225d6b"/>
        <path id="Trazado_102908" data-name="Trazado 102908" d="M205.516,242.219a14.737,14.737,0,0,0,2.879.109v5.8c-.315-.272-.633-.539-.953-.8a12.231,12.231,0,0,0-2.77-1.653c-.229-.1-.461-.187-.7-.269a.218.218,0,0,0-.106-.055c-.088-.019-.172-.042-.256-.065l-.127-.041a3.332,3.332,0,0,1-2.319-3.361,3.606,3.606,0,0,1,1.282-.1C203.474,241.837,204.5,242.08,205.516,242.219Z" transform="translate(-184.659 -226.058)" fill="#225d6b"/>
        <path id="Trazado_102909" data-name="Trazado 102909" d="M188.287,248.193a4.372,4.372,0,0,0,.539.158,11.43,11.43,0,0,1,2.8,1.437,14.668,14.668,0,0,1,1.455,1.176,4.982,4.982,0,0,0-3.446.534,4.7,4.7,0,0,0-1.113.867,14.2,14.2,0,0,1-1.342,1.567c-1.22.945-2.525-.225-3.562-.824-.25-.145-.451.256-.2.4a5.593,5.593,0,0,0,2.764,1.211c1.341-.01,1.894-1.194,2.678-2.056a4.285,4.285,0,0,1,4.62-1.09v3.75a10.549,10.549,0,0,1-6.722,1.957c-6.316-.546-7.566-4.02-8.356-6.982,1.267-1.31,2.522-2.633,3.9-3.833a8.776,8.776,0,0,1,1.024-.772,13.094,13.094,0,0,0,1.784,1.406A10.885,10.885,0,0,0,188.287,248.193Z" transform="translate(-169.747 -228.621)" fill="#225d6b"/>
        <path id="Trazado_102910" data-name="Trazado 102910" d="M175.915,210.122c-.109.479-.321.921-.442,1.4a3.646,3.646,0,0,0,.171,1.951.22.22,0,0,1,0,.125c.251.77.479,1.558.783,2.332a7.228,7.228,0,0,0,.676,1.3,4.307,4.307,0,0,1,.469.64c0,.007.007.014.01.022a10.64,10.64,0,0,0,1.162,1.23,8.786,8.786,0,0,0,2.984,2.119c.206.063.414.123.623.18a3.718,3.718,0,0,1-1.059-1.948,5.475,5.475,0,0,1,1.025-4.206c.168-.235.5.066.335.3-1.529,2.15-1.348,5.448,1.363,6.324l.127.041c.083.023.168.046.256.065a.218.218,0,0,1,.106.055c.235.081.467.169.7.269a12.23,12.23,0,0,1,2.77,1.653c.32.257.638.525.953.8v.877a4.286,4.286,0,0,0-4.62,1.09c-.783.862-1.337,2.046-2.678,2.056a5.594,5.594,0,0,1-2.764-1.211c-.249-.144-.048-.545.2-.4,1.038.6,2.342,1.768,3.562.824a14.2,14.2,0,0,0,1.342-1.567,4.7,4.7,0,0,1,1.113-.867,4.981,4.981,0,0,1,3.446-.534,14.664,14.664,0,0,0-1.455-1.176,11.43,11.43,0,0,0-2.8-1.437,4.372,4.372,0,0,1-.539-.158,10.884,10.884,0,0,1-3.177-1.094,14.8,14.8,0,0,1-2.531-2.128,11.133,11.133,0,0,1-1.31-1.579,4.887,4.887,0,0,0-2.918-1.317,2.711,2.711,0,0,1-2.327-1.394c-.121-.261.308-.394.427-.136.542,1.166,2.005,1,3.053,1.286a4.636,4.636,0,0,1,1.2.523.1.1,0,0,0-.007-.016c-.847-2.053-1.078-4.35-2.691-6.006-.2-.207.1-.542.3-.336A6.684,6.684,0,0,1,175,211.917a4.535,4.535,0,0,1,.264-1.171,3.765,3.765,0,0,0-.742-4.246c-.22-.189.079-.524.3-.335A3.928,3.928,0,0,1,175.915,210.122Z" transform="translate(-165.188 -202.691)" fill="#fff"/>
      </g>
      <g id="Grupo_55457" data-name="Grupo 55457" transform="translate(137.045 183.345)">
        <path id="Trazado_102911" data-name="Trazado 102911" d="M192.635,251.674v5.632c-.361-.165-.719-.333-1.077-.5a.219.219,0,0,0-.093-.083,3.643,3.643,0,0,1-1.556-1.19c-.269-.409-.452-.863-.732-1.267a3.928,3.928,0,0,0-3.658-1.863.224.224,0,0,0,.048.445,3.766,3.766,0,0,1,3.635,2.316,4.546,4.546,0,0,0,.686.985,6.687,6.687,0,0,0-2.213-.322c-.289.01-.241.455.047.446,1.808-.058,3.335.773,4.913,1.5v1.208c-.864.605-1.7,1.648-2.853,1.283-.271-.086-.463.32-.188.407a2.709,2.709,0,0,0,2.6-.776c.147-.116.294-.225.443-.33v5.038c-.952.1-2.207-.119-4.171-1.333-1.756-1.086-5.713-3.756-7.05-3.9-1.276-.062-4.062-.549-4.278-1.926-.358-2.282,2.937-2.4,3.814-3.6,3.182-4.333,8.413-3.341,10.308-2.589A8.08,8.08,0,0,0,192.635,251.674Z" transform="translate(-177.109 -250.596)" fill="#ffd4b3"/>
        <path id="Trazado_102912" data-name="Trazado 102912" d="M216.089,274.927v.583c-.149.1-.3.214-.443.33a2.71,2.71,0,0,1-2.6.776c-.274-.087-.083-.492.188-.407C214.393,276.575,215.225,275.532,216.089,274.927Z" transform="translate(-200.564 -266.534)" fill="#fff"/>
        <path id="Trazado_102913" data-name="Trazado 102913" d="M204.782,257.667c.28.4.463.859.732,1.267a3.643,3.643,0,0,0,1.556,1.19.218.218,0,0,1,.093.083c.358.162.715.331,1.077.5v.474c-1.578-.729-3.105-1.559-4.913-1.5-.288.009-.336-.436-.047-.446a6.687,6.687,0,0,1,2.213.322,4.546,4.546,0,0,1-.686-.985,3.766,3.766,0,0,0-3.635-2.316.224.224,0,0,1-.048-.445A3.928,3.928,0,0,1,204.782,257.667Z" transform="translate(-192.715 -253.992)" fill="#fff"/>
      </g>
      <g id="Grupo_55458" data-name="Grupo 55458" transform="translate(262.529 149.783)">
        <path id="Trazado_102914" data-name="Trazado 102914" d="M572.363,163.853c-2.694,4.652-8,4.232-9.967,3.689-4.528-1.252-6.209,1.813-6.756,3.124a5.558,5.558,0,0,1-1.97,2.114l-9.032-6.613c.4-.093.809-.192,1.206-.3a12.215,12.215,0,0,0,2.97-1.259c.216-.125.424-.261.628-.4a.218.218,0,0,0,.107-.053c.067-.059.136-.114.2-.168l.108-.079c2.308-1.669,5.076.132,5.908,2.636.09.27.529.18.439-.094a5.472,5.472,0,0,0-2.788-3.312,3.716,3.716,0,0,0-2.2-.3c.169-.134.34-.267.513-.4a8.783,8.783,0,0,1,3.472-1.156,10.676,10.676,0,0,1,1.679-.21l.024,0a4.262,4.262,0,0,0,.793,0,7.209,7.209,0,0,1,1.449.224c.8.212,1.575.494,2.345.746a.225.225,0,0,0,.1.072,3.646,3.646,0,0,1,1.676,1.014c.311.378.542.81.865,1.181a3.928,3.928,0,0,0,3.838,1.456.224.224,0,0,0-.1-.438,3.765,3.765,0,0,1-3.864-1.909,4.532,4.532,0,0,0-.788-.905,6.692,6.692,0,0,0,2.235.08c.286-.041.19-.478-.1-.438-2.29.324-4.279-.846-6.436-1.376l-.017,0a4.645,4.645,0,0,0,1.132-.662c.853-.675,1.58-1.956,2.842-1.7.279.056.425-.368.143-.425a2.71,2.71,0,0,0-2.5,1.054,4.889,4.889,0,0,1-2.786,1.577,11.116,11.116,0,0,0-2.048.124,14.75,14.75,0,0,0-3.212.785,10.877,10.877,0,0,0-2.76,1.916,4.451,4.451,0,0,0-.446.342,11.437,11.437,0,0,1-2.816,1.414,14.751,14.751,0,0,1-1.808.48,4.983,4.983,0,0,0,1.6-3.1,4.7,4.7,0,0,0-.042-1.41,14.207,14.207,0,0,1-.471-2.009c-.042-1.542,1.673-1.9,2.769-2.388.265-.116.059-.515-.2-.4a5.591,5.591,0,0,0-2.61,1.515c-.784,1.088-.156,2.234.077,3.375a4.286,4.286,0,0,1-1.851,4.372l-3.025-2.215a10.546,10.546,0,0,1,2.392-6.58c5.6-6.4,10.06-2.339,13.255-1.685,2.033.416,2.515-2.172,7.321.123,1.863.89,6.087,3.116,7.432,3.119,1.275-.077,4.1.106,4.461,1.452C576.367,162.093,573.105,162.569,572.363,163.853Z" transform="translate(-540.904 -153.296)" fill="#b3deff"/>
        <path id="Trazado_102915" data-name="Trazado 102915" d="M574.223,176.806a7.233,7.233,0,0,0-2.9,1.041c-.173.129-.344.262-.513.4a3.715,3.715,0,0,1,2.2.3,4.393,4.393,0,0,1,.7.406c.035-.1.07-.21.11-.334A9.526,9.526,0,0,0,574.223,176.806Z" transform="translate(-560.496 -168.697)" fill="#225d6b"/>
        <path id="Trazado_102916" data-name="Trazado 102916" d="M558.2,186.266a14.73,14.73,0,0,0-1.789,2.259l-4.683-3.429c.4-.093.809-.192,1.206-.3a12.213,12.213,0,0,0,2.97-1.259c.216-.125.424-.261.628-.4a.218.218,0,0,0,.107-.053c.067-.059.136-.114.2-.168l.108-.079a3.332,3.332,0,0,1,4.082.115,3.616,3.616,0,0,1-.677,1.094C559.716,184.844,558.913,185.531,558.2,186.266Z" transform="translate(-547.995 -172.224)" fill="#225d6b"/>
        <path id="Trazado_102917" data-name="Trazado 102917" d="M549.726,163.454a4.449,4.449,0,0,0-.446.342,11.437,11.437,0,0,1-2.816,1.414,14.754,14.754,0,0,1-1.808.48,4.983,4.983,0,0,0,1.6-3.1,4.7,4.7,0,0,0-.042-1.41,14.207,14.207,0,0,1-.471-2.009c-.042-1.542,1.673-1.9,2.769-2.388.265-.116.059-.515-.2-.4a5.591,5.591,0,0,0-2.61,1.515c-.784,1.088-.156,2.234.077,3.375a4.286,4.286,0,0,1-1.851,4.372l-3.025-2.215a10.546,10.546,0,0,1,2.392-6.58c4.172-4.774,7.713-3.73,10.57-2.618.309,1.8.635,3.59.79,5.409a8.712,8.712,0,0,1,.018,1.282,13.081,13.081,0,0,0-2.188.609A10.877,10.877,0,0,0,549.726,163.454Z" transform="translate(-540.904 -153.296)" fill="#225d6b"/>
        <path id="Trazado_102918" data-name="Trazado 102918" d="M569.884,170.155c-.322-.371-.553-.8-.865-1.181a3.646,3.646,0,0,0-1.676-1.014.224.224,0,0,1-.1-.072c-.77-.252-1.54-.534-2.345-.746a7.209,7.209,0,0,0-1.449-.224,4.262,4.262,0,0,1-.793,0l-.024,0a10.675,10.675,0,0,0-1.679.21,8.782,8.782,0,0,0-3.472,1.156c-.173.129-.344.262-.513.4a3.715,3.715,0,0,1,2.2.3,5.472,5.472,0,0,1,2.788,3.312c.09.275-.348.365-.439.094-.832-2.5-3.6-4.305-5.908-2.636l-.108.079c-.068.053-.137.109-.2.168a.218.218,0,0,1-.107.053c-.2.141-.413.277-.628.4a12.216,12.216,0,0,1-2.97,1.259c-.4.107-.8.205-1.206.3l-.708-.518a4.286,4.286,0,0,0,1.851-4.372c-.233-1.141-.861-2.287-.077-3.375a5.592,5.592,0,0,1,2.61-1.515c.263-.116.468.283.2.4-1.1.484-2.811.845-2.769,2.388a14.216,14.216,0,0,0,.471,2.009,4.7,4.7,0,0,1,.042,1.41,4.984,4.984,0,0,1-1.6,3.1,14.744,14.744,0,0,0,1.808-.48,11.436,11.436,0,0,0,2.816-1.414,4.459,4.459,0,0,1,.446-.342,10.878,10.878,0,0,1,2.76-1.916,14.75,14.75,0,0,1,3.212-.785,11.117,11.117,0,0,1,2.048-.124,4.889,4.889,0,0,0,2.786-1.577,2.71,2.71,0,0,1,2.5-1.054c.282.057.136.481-.143.425-1.261-.252-1.988,1.029-2.842,1.7a4.648,4.648,0,0,1-1.132.662l.017,0c2.157.53,4.146,1.7,6.436,1.376.285-.04.381.4.1.438a6.693,6.693,0,0,1-2.235-.08,4.535,4.535,0,0,1,.789.905,3.765,3.765,0,0,0,3.864,1.909.224.224,0,0,1,.1.438A3.928,3.928,0,0,1,569.884,170.155Z" transform="translate(-546.65 -159.129)" fill="#fff"/>
      </g>
      <g id="Grupo_55459" data-name="Grupo 55459" transform="translate(257.628 147.934)">
        <path id="Trazado_102919" data-name="Trazado 102919" d="M537.132,163.975l-4.545-3.327c.347-.195.694-.383,1.036-.576a.222.222,0,0,0,.122-.026,3.643,3.643,0,0,1,1.88-.552c.489.024.963.146,1.455.158a3.927,3.927,0,0,0,3.664-1.851.224.224,0,0,0-.387-.225,3.766,3.766,0,0,1-4.016,1.565,4.555,4.555,0,0,0-1.2-.029,6.683,6.683,0,0,0,1.567-1.6c.163-.239-.224-.463-.387-.225-1.021,1.493-2.594,2.234-4.114,3.077l-.975-.714c.022-1.054-.328-2.342.65-3.06.23-.169.015-.562-.217-.392a2.71,2.71,0,0,0-.908,2.555c.007.187.008.37,0,.553l-4.065-2.976c.486-.825,1.4-1.711,3.539-2.578,1.913-.775,6.406-2.391,7.315-3.382.8-.993,2.843-2.953,4.081-2.314,2.053,1.059.2,3.789.651,5.2,1.617,5.127-2.273,8.762-4,9.847A8.079,8.079,0,0,0,537.132,163.975Z" transform="translate(-526.695 -147.934)" fill="#ffd4b3"/>
        <path id="Trazado_102920" data-name="Trazado 102920" d="M538.928,175.276l-.47-.344c0-.182,0-.366,0-.553a2.71,2.71,0,0,1,.908-2.555c.232-.17.447.224.217.392C538.6,172.934,538.95,174.221,538.928,175.276Z" transform="translate(-534.392 -163.556)" fill="#fff"/>
        <path id="Trazado_102921" data-name="Trazado 102921" d="M547.544,177.227c-.492-.012-.966-.133-1.455-.158a3.643,3.643,0,0,0-1.88.552.222.222,0,0,1-.122.026c-.342.193-.69.382-1.036.576l-.382-.28c1.52-.843,3.093-1.584,4.114-3.077.163-.238.55-.013.387.225a6.682,6.682,0,0,1-1.567,1.6,4.554,4.554,0,0,1,1.2.029,3.765,3.765,0,0,0,4.016-1.565.224.224,0,0,1,.387.225A3.927,3.927,0,0,1,547.544,177.227Z" transform="translate(-537.16 -165.51)" fill="#fff"/>
      </g>
      <g id="Grupo_55478" data-name="Grupo 55478" transform="translate(151.431 156.791)">
        <path id="Trazado_102922" data-name="Trazado 102922" d="M240.657,461.5c0,1.654-3.163,2.481,17.192,3.227,9.44.347-1.276,2.54,10.27,2.54,6.933,0,48.245.428,62.451-.1,2.216-.082,4.352-2.011,6.4-2.108,16.69-.8,24.173-2.1,24.173-3.564,0-2.421-26.151-4.384-62.591-4.384S240.657,459.082,240.657,461.5Z" transform="translate(-233.007 -359.329)" fill="url(#linear-gradient)" style="mix-blend-mode: multiply;isolation: isolate"/>
        <g id="Grupo_55460" data-name="Grupo 55460" transform="translate(41.102 86.775)">
          <path id="Trazado_102923" data-name="Trazado 102923" d="M338.392,437.982H378.45c-4.346,0-10.464-12.8-10.464-12.8H349.9S343.84,437.982,338.392,437.982Z" transform="translate(-337.975 -425.184)" fill="#fff"/>
        </g>
        <g id="Grupo_55461" data-name="Grupo 55461" transform="translate(28.409 98.02)">
          <path id="Trazado_102924" data-name="Trazado 102924" d="M301.178,460.988a3.2,3.2,0,0,0,3.205,3.2h56.978a3.2,3.2,0,0,0,3.2-3.2h0a3.2,3.2,0,0,0-3.2-3.2H304.383a3.2,3.2,0,0,0-3.205,3.2Z" transform="translate(-301.178 -457.784)" fill="#fff"/>
        </g>
        <g id="Grupo_55462" data-name="Grupo 55462" transform="translate(0 9.496)">
          <path id="Rectángulo_5655" data-name="Rectángulo 5655" d="M7.59,0H114.48a7.593,7.593,0,0,1,7.593,7.593V71.621a7.593,7.593,0,0,1-7.593,7.593H7.594A7.594,7.594,0,0,1,0,71.62V7.59A7.59,7.59,0,0,1,7.59,0Z" fill="#fff"/>
        </g>
        <g id="Grupo_55463" data-name="Grupo 55463" transform="translate(41.102 86.775)" style="mix-blend-mode: multiply;isolation: isolate">
          <path id="Trazado_102925" data-name="Trazado 102925" d="M338.392,437.982H378.45c-4.346,0-10.464-12.8-10.464-12.8H349.9S343.84,437.982,338.392,437.982Z" transform="translate(-337.975 -425.184)" fill="#003aa3"/>
        </g>
        <g id="Grupo_55465" data-name="Grupo 55465" transform="translate(28.409 98.02)">
          <g id="Grupo_55464" data-name="Grupo 55464">
            <path id="Trazado_102926" data-name="Trazado 102926" d="M301.178,460.988a3.2,3.2,0,0,0,3.205,3.2h56.978a3.2,3.2,0,0,0,3.2-3.2h0a3.2,3.2,0,0,0-3.2-3.2H304.383a3.2,3.2,0,0,0-3.205,3.2Z" transform="translate(-301.178 -457.784)" fill="#003aa3"/>
          </g>
        </g>
        <g id="Grupo_55466" data-name="Grupo 55466" transform="translate(0 9.496)" style="mix-blend-mode: multiply;isolation: isolate">
          <path id="Rectángulo_5656" data-name="Rectángulo 5656" d="M7.59,0H114.48a7.593,7.593,0,0,1,7.593,7.593V71.621a7.593,7.593,0,0,1-7.593,7.593H7.594A7.594,7.594,0,0,1,0,71.62V7.59A7.59,7.59,0,0,1,7.59,0Z" fill="#bec3ce"/>
        </g>
        <g id="Grupo_55467" data-name="Grupo 55467" transform="translate(0 0)">
          <path id="Trazado_102927" data-name="Trazado 102927" d="M218.816,250.208v2.62H340.889v-76.6a2.619,2.619,0,0,0-2.619-2.619H221.436a2.62,2.62,0,0,0-2.62,2.619Z" transform="translate(-218.816 -173.613)" fill="#151a23"/>
        </g>
        <g id="Grupo_55469" data-name="Grupo 55469" transform="translate(43.158 86.775)">
          <g id="Grupo_55468" data-name="Grupo 55468">
            <path id="Trazado_102928" data-name="Trazado 102928" d="M344.354,437.982h40.058c-4.346,0-10.464-12.8-10.464-12.8H355.866S349.8,437.982,344.354,437.982Z" transform="translate(-343.938 -425.184)" fill="#64bdff"/>
          </g>
        </g>
        <g id="Grupo_55470" data-name="Grupo 55470" transform="translate(43.575 86.775)">
          <path id="Trazado_102929" data-name="Trazado 102929" d="M356.656,425.184h18.083s.462,1.041,1.559,2.98c-2.5.5-13.46.421-16.438.594-1.733.1-3.838.068-5.266,3.454-.347.819-1.394,3.036-.152,3.2,1.393.184,26.441.682,27.551.814a5.137,5.137,0,0,0,3.211,1.754H345.145C350.592,437.982,356.656,425.184,356.656,425.184Z" transform="translate(-345.145 -425.184)" fill="#003aa3"/>
        </g>
        <g id="Grupo_55472" data-name="Grupo 55472" transform="translate(31.836 98.02)">
          <g id="Grupo_55471" data-name="Grupo 55471">
            <path id="Trazado_102930" data-name="Trazado 102930" d="M311.114,460.988a3.205,3.205,0,0,0,3.206,3.2H371.3a3.2,3.2,0,0,0,3.2-3.2h0a3.2,3.2,0,0,0-3.2-3.2H314.32a3.206,3.206,0,0,0-3.206,3.2Z" transform="translate(-311.114 -457.784)" fill="#64bdff"/>
          </g>
        </g>
        <g id="Grupo_55474" data-name="Grupo 55474" transform="translate(3.035 9.496)">
          <g id="Grupo_55473" data-name="Grupo 55473">
            <path id="Trazado_102931" data-name="Trazado 102931" d="M227.614,277.74a2.619,2.619,0,0,0,2.62,2.618H347.068a2.618,2.618,0,0,0,2.618-2.618l-.666-73.905c0-1.446-.506-2.691-1.952-2.691H230.234a2.62,2.62,0,0,0-2.62,2.619Z" transform="translate(-227.614 -201.143)" fill="#64bdff"/>
          </g>
        </g>
        <g id="Grupo_55476" data-name="Grupo 55476" transform="translate(2.641 0)">
          <g id="Grupo_55475" data-name="Grupo 55475">
            <path id="Trazado_102932" data-name="Trazado 102932" d="M226.472,250.224v2.6H348.645v-76.6a2.619,2.619,0,0,0-2.618-2.619H229.192a2.737,2.737,0,0,0-2.72,2.654Z" transform="translate(-226.472 -173.613)" fill="#0f3871"/>
          </g>
        </g>
        <g id="Grupo_55477" data-name="Grupo 55477" transform="translate(7.715 4.649)">
          <rect id="Rectángulo_5657" data-name="Rectángulo 5657" width="112.128" height="69.451" fill="#fff"/>
        </g>
        <rect id="Rectángulo_5658" data-name="Rectángulo 5658" width="112.093" height="69.435" transform="translate(7.715 4.649)" fill="#44526b"/>
        <path id="Trazado_102933" data-name="Trazado 102933" d="M240.287,326.091v-2.452l10.512,3.73,52.423,18.6h-6.908Z" transform="translate(-232.881 -271.89)" fill="#e2ffff" opacity="0.1"/>
        <path id="Trazado_102934" data-name="Trazado 102934" d="M321.079,187.275H405.46v35.012Z" transform="translate(-285.805 -182.563)" fill="#e2ffff" opacity="0.1"/>
        <path id="Trazado_102935" data-name="Trazado 102935" d="M240.287,257.386V237.774l4.376,1.535L352.39,277.1c.191.067.4.125.608.18v12.468H332.534Z" transform="translate(-232.881 -215.643)" fill="#e2ffff" opacity="0.1"/>
      </g>
      <path id="Trazado_102936" data-name="Trazado 102936" d="M200.629,364.5c.006.47-.569.857-1.285.866s-1.3-.365-1.306-.834.57-.858,1.285-.867S200.623,364.035,200.629,364.5Z" transform="translate(-53.774 -141.322)" fill="#fbda70"/>
      <path id="Trazado_102937" data-name="Trazado 102937" d="M357.8,199.935h-5.1v-2.5h.033V178.167a3.777,3.777,0,0,0-4.469-3.728H320.741s-35.216-.562-41.533-.715c3.189.411,3.462,4.188,3.462,4.188.006.084.011.169.011.255h0v19.268h.021v17.6c-.013.2-.021.391-.021.589s.009.395.021.59v.024h0c0,5.906,1.724,8.413,5.782,8.413l15.937-.287L303.9,262.29h62.92V208.962A9.026,9.026,0,0,0,357.8,199.935Z" transform="translate(-106.946 -16.894)" fill="#aacaf9" style="mix-blend-mode: multiply;isolation: isolate"/>
      <path id="Trazado_102938" data-name="Trazado 102938" d="M352.96,262.828H317.4l6.887-24.64H352.96Z" transform="translate(-131.964 -59.123)" fill="#7189ad"/>
      <rect id="Rectángulo_5659" data-name="Rectángulo 5659" width="75.255" height="58.16" transform="translate(200.797 188.015)" fill="#fff"/>
      <path id="Trazado_102939" data-name="Trazado 102939" d="M325.376,167.523H280.338a3.512,3.512,0,0,1,3.863-3.473h41.175Z" transform="translate(-107.686 -10.557)" fill="#7189ad"/>
      <path id="Trazado_102982" data-name="Trazado 102982" d="M376.98,167.657a3.778,3.778,0,0,0-4.469-3.728H291.537a3.791,3.791,0,0,1,3.116,3.728h0v19.268h.021v17.6c-.013.2-.021.391-.021.589s.009.395.021.59v.024h0c0,5.906,1.724,8.413,5.782,8.413,3.942,0,5.8-2.508,5.8-8.438h0v-7.252l70.691-.777.033-10.749h0Z" transform="translate(-115.022 -10.436)" fill="#fff"/>
      <path id="Trazado_102983" data-name="Trazado 102983" d="M349.524,255.395a.8.8,0,0,1-.828.772H320.3a.8.8,0,0,1-.828-.772h0a.8.8,0,0,1,.828-.772H348.7a.8.8,0,0,1,.828.772Z" transform="translate(-133.324 -69.889)" fill="#bcbcbc"/>
      <path id="Trazado_102984" data-name="Trazado 102984" d="M349.524,263.248a.8.8,0,0,1-.828.773H320.3a.8.8,0,0,1-.828-.773h0a.8.8,0,0,1,.828-.772H348.7a.8.8,0,0,1,.828.772Z" transform="translate(-133.324 -75.033)" fill="#bcbcbc"/>
      <path id="Trazado_102985" data-name="Trazado 102985" d="M324.53,270.262H320.3a.774.774,0,1,0,0,1.544h4.227Z" transform="translate(-133.324 -80.133)" fill="#bcbcbc"/>
      <path id="Trazado_102986" data-name="Trazado 102986" d="M337.883,245.163a1.2,1.2,0,0,1-1.235,1.151H320.516a1.2,1.2,0,0,1-1.235-1.151h0a1.2,1.2,0,0,1,1.235-1.151h16.132a1.2,1.2,0,0,1,1.235,1.151Z" transform="translate(-133.197 -62.938)" fill="#5e98ff"/>
      <path id="Trazado_102987" data-name="Trazado 102987" d="M342.927,230.494c-5.022,0-7,.086-8.342,5.392l11.17,1.24v3.066l59.57-.608V227.4s-.279,3.09-8.327,3.09Z" transform="translate(-143.222 -52.058)" fill="#ccd9f2" style="mix-blend-mode: multiply;isolation: isolate"/>
      <g id="Grupo_55489" data-name="Grupo 55489" transform="translate(215.935 180.473)">
        <path id="Trazado_102988" data-name="Trazado 102988" d="M405.822,252.857V242.268h10.589v10.589Zm9.1-1.486v-7.616h-7.616v7.616Z" transform="translate(-405.822 -242.268)" fill="#5e98ff"/>
        <path id="Trazado_102989" data-name="Trazado 102989" d="M416.783,253.231h-9.762v-9.762h9.762Zm-9.1-.659h8.444v-8.443H407.68Z" transform="translate(-406.607 -243.055)" fill="#5e98ff"/>
      </g>
      <path id="Trazado_102990" data-name="Trazado 102990" d="M492.174,246.993c0,4.985,16.321,9.027,21.306,9.027a9.027,9.027,0,0,0,0-18.053C508.5,237.967,492.174,242.008,492.174,246.993Z" transform="translate(-246.453 -58.978)" fill="#fff"/>
      <path id="Trazado_102991" data-name="Trazado 102991" d="M352.24,252.156H406.19l12.28-14.189H347.135l2.331,2.516a9.693,9.693,0,0,1,2.774,6.51Z" transform="translate(-151.443 -58.978)" fill="#fff"/>
      <path id="Trazado_102992" data-name="Trazado 102992" d="M334.213,245c0,3.423,0,4.773,0,4.773,2.31,0,8.513,1.677,9.579-.2,0,0-.011-3.463-.011-4.577,0-3.424-1.229-6.2-4.654-6.2S334.213,241.575,334.213,245Z" transform="translate(-142.976 -59.524)" fill="#7189ad"/>
      <g id="Grupo_55490" data-name="Grupo 55490" transform="translate(207.172 214.996)">
        <path id="Trazado_102993" data-name="Trazado 102993" d="M380.418,354.034V342.355H392.1v11.679Zm10.04-1.639v-8.4h-8.4v8.4Z" transform="translate(-380.418 -342.355)" fill="#5e98ff"/>
        <path id="Trazado_102994" data-name="Trazado 102994" d="M392.507,354.446H381.74V343.68h10.767Zm-10.04-.726h9.313v-9.314h-9.313Z" transform="translate(-381.284 -343.223)" fill="#5e98ff"/>
      </g>
      <g id="Grupo_55491" data-name="Grupo 55491" transform="translate(208.84 217.203)">
        <path id="Trazado_102995" data-name="Trazado 102995" d="M385.252,352.12l1.159-1.159,2.372,2.372,3.541-4.58,1.3,1-4.68,6.053Z" transform="translate(-385.252 -348.753)" fill="#5e98ff"/>
        <path id="Trazado_102996" data-name="Trazado 102996" d="M390.124,356.335l-3-3,.513-.513,2.417,2.416,3.578-4.629.575.444Z" transform="translate(-386.479 -349.969)" fill="#5e98ff"/>
      </g>
      <path id="Trazado_102997" data-name="Trazado 102997" d="M455.148,346.835a1.047,1.047,0,0,1-1.082,1.009H434.824a1.047,1.047,0,0,1-1.081-1.009h0a1.047,1.047,0,0,1,1.081-1.008h19.242a1.047,1.047,0,0,1,1.082,1.008Z" transform="translate(-208.177 -129.634)" fill="#5e98ff"/>
      <path id="Trazado_102998" data-name="Trazado 102998" d="M471.055,355.8a.7.7,0,0,1-.726.677h-35.69a.7.7,0,0,1-.725-.677h0a.7.7,0,0,1,.725-.676h35.69a.7.7,0,0,1,.726.676Z" transform="translate(-208.289 -135.722)" fill="#bcbcbc"/>
      <path id="Trazado_102999" data-name="Trazado 102999" d="M471.055,362.677a.7.7,0,0,1-.726.676h-35.69a.7.7,0,0,1-.725-.676h0a.7.7,0,0,1,.725-.676h35.69a.7.7,0,0,1,.726.676Z" transform="translate(-208.289 -140.229)" fill="#bcbcbc"/>
      <path id="Trazado_103000" data-name="Trazado 103000" d="M446.529,369.5a.7.7,0,0,1-.725.676H434.638a.7.7,0,0,1-.725-.676h0a.7.7,0,0,1,.725-.676H445.8a.7.7,0,0,1,.725.676Z" transform="translate(-208.289 -144.696)" fill="#bcbcbc"/>
      <g id="Grupo_55492" data-name="Grupo 55492" transform="translate(207.172 199.735)">
        <path id="Trazado_103001" data-name="Trazado 103001" d="M380.418,309.79V298.111H392.1V309.79Zm10.04-1.639v-8.4h-8.4v8.4Z" transform="translate(-380.418 -298.111)" fill="#5e98ff"/>
        <path id="Trazado_103002" data-name="Trazado 103002" d="M392.507,310.2H381.74V299.435h10.767Zm-10.04-.726h9.313v-9.313h-9.313Z" transform="translate(-381.284 -298.978)" fill="#5e98ff"/>
      </g>
      <g id="Grupo_55493" data-name="Grupo 55493" transform="translate(208.84 201.941)">
        <path id="Trazado_103003" data-name="Trazado 103003" d="M385.252,307.876l1.159-1.159,2.372,2.372,3.541-4.58,1.3,1-4.68,6.053Z" transform="translate(-385.252 -304.509)" fill="#5e98ff"/>
        <path id="Trazado_103004" data-name="Trazado 103004" d="M390.124,312.091l-3-3,.513-.513,2.417,2.416,3.578-4.629.575.444Z" transform="translate(-386.479 -305.725)" fill="#5e98ff"/>
      </g>
      <path id="Trazado_103005" data-name="Trazado 103005" d="M455.148,302.59a1.047,1.047,0,0,1-1.082,1.009H434.824a1.047,1.047,0,0,1-1.081-1.009h0a1.047,1.047,0,0,1,1.081-1.008h19.242a1.047,1.047,0,0,1,1.082,1.008Z" transform="translate(-208.177 -100.65)" fill="#5e98ff"/>
      <path id="Trazado_103006" data-name="Trazado 103006" d="M471.055,311.553a.7.7,0,0,1-.726.676h-35.69a.7.7,0,0,1-.725-.676h0a.7.7,0,0,1,.725-.676h35.69a.7.7,0,0,1,.726.676Z" transform="translate(-208.289 -106.739)" fill="#bcbcbc"/>
      <path id="Trazado_103007" data-name="Trazado 103007" d="M471.055,318.432a.7.7,0,0,1-.726.677h-35.69a.7.7,0,0,1-.725-.677h0a.7.7,0,0,1,.725-.676h35.69a.7.7,0,0,1,.726.676Z" transform="translate(-208.289 -111.245)" fill="#bcbcbc"/>
      <path id="Trazado_103008" data-name="Trazado 103008" d="M446.529,325.253a.7.7,0,0,1-.725.677H434.638a.7.7,0,0,1-.725-.677h0a.7.7,0,0,1,.725-.676H445.8a.7.7,0,0,1,.725.676Z" transform="translate(-208.289 -115.713)" fill="#bcbcbc"/>
      <g id="Grupo_55494" data-name="Grupo 55494" transform="translate(207.172 184.464)">
        <path id="Trazado_103009" data-name="Trazado 103009" d="M380.418,265.519V253.84H392.1v11.679Zm10.04-1.639v-8.4h-8.4v8.4Z" transform="translate(-380.418 -253.84)" fill="#5e98ff"/>
        <path id="Trazado_103010" data-name="Trazado 103010" d="M392.507,265.93H381.74V255.164h10.767Zm-10.04-.726h9.313V255.89h-9.313Z" transform="translate(-381.284 -254.707)" fill="#5e98ff"/>
      </g>
      <g id="Grupo_55495" data-name="Grupo 55495" transform="translate(208.84 186.671)">
        <path id="Trazado_103011" data-name="Trazado 103011" d="M385.252,263.6l1.159-1.159,2.372,2.372,3.541-4.58,1.3,1-4.68,6.053Z" transform="translate(-385.252 -260.238)" fill="#5e98ff"/>
        <path id="Trazado_103012" data-name="Trazado 103012" d="M390.124,267.82l-3-3,.513-.513,2.417,2.415,3.578-4.629.575.444Z" transform="translate(-386.479 -261.454)" fill="#5e98ff"/>
      </g>
      <path id="Trazado_103013" data-name="Trazado 103013" d="M455.148,258.32a1.047,1.047,0,0,1-1.082,1.009H434.824a1.047,1.047,0,0,1-1.081-1.009h0a1.047,1.047,0,0,1,1.081-1.009h19.242a1.047,1.047,0,0,1,1.082,1.009Z" transform="translate(-208.177 -71.65)" fill="#5e98ff"/>
      <path id="Trazado_103014" data-name="Trazado 103014" d="M471.055,267.282a.7.7,0,0,1-.726.677h-35.69a.7.7,0,0,1-.725-.677h0a.7.7,0,0,1,.725-.676h35.69a.7.7,0,0,1,.726.676Z" transform="translate(-208.289 -77.738)" fill="#bcbcbc"/>
      <path id="Trazado_103015" data-name="Trazado 103015" d="M471.055,274.161a.7.7,0,0,1-.726.677h-35.69a.7.7,0,0,1-.725-.677h0a.7.7,0,0,1,.725-.676h35.69a.7.7,0,0,1,.726.676Z" transform="translate(-208.289 -82.245)" fill="#bcbcbc"/>
      <path id="Trazado_103016" data-name="Trazado 103016" d="M446.529,280.982a.7.7,0,0,1-.725.676H434.638a.7.7,0,0,1-.725-.676h0a.7.7,0,0,1,.725-.676H445.8a.7.7,0,0,1,.725.676Z" transform="translate(-208.289 -86.713)" fill="#bcbcbc"/>
      <path id="Trazado_103017" data-name="Trazado 103017" d="M455.148,390.246a1.047,1.047,0,0,1-1.082,1.009H434.824a1.047,1.047,0,0,1-1.081-1.009h0a1.047,1.047,0,0,1,1.081-1.008h19.242a1.047,1.047,0,0,1,1.082,1.008Z" transform="translate(-208.177 -158.071)" fill="#5e98ff"/>
      <path id="Trazado_103018" data-name="Trazado 103018" d="M471.055,399.208a.7.7,0,0,1-.726.677h-35.69a.7.7,0,0,1-.725-.677h0a.7.7,0,0,1,.725-.676h35.69a.7.7,0,0,1,.726.676Z" transform="translate(-208.289 -164.159)" fill="#bcbcbc"/>
      <path id="Trazado_103019" data-name="Trazado 103019" d="M471.055,406.088a.7.7,0,0,1-.726.676h-35.69a.7.7,0,0,1-.725-.676h0a.7.7,0,0,1,.725-.676h35.69a.7.7,0,0,1,.726.676Z" transform="translate(-208.289 -168.666)" fill="#bcbcbc"/>
      <path id="Trazado_103020" data-name="Trazado 103020" d="M446.529,412.908a.7.7,0,0,1-.725.676H434.638a.7.7,0,0,1-.725-.676h0a.7.7,0,0,1,.725-.676H445.8a.7.7,0,0,1,.725.676Z" transform="translate(-208.289 -173.133)" fill="#bcbcbc"/>
      <g id="Grupo_55496" data-name="Grupo 55496" transform="translate(207.172 229.97)">
        <path id="Trazado_103021" data-name="Trazado 103021" d="M380.418,397.445V385.766H392.1v11.679Zm10.04-1.639v-8.4h-8.4v8.4Z" transform="translate(-380.418 -385.766)" fill="#5e98ff"/>
        <path id="Trazado_103022" data-name="Trazado 103022" d="M392.507,397.856H381.74V387.09h10.767Zm-10.04-.726h9.313v-9.313h-9.313Z" transform="translate(-381.284 -386.633)" fill="#5e98ff"/>
      </g>
      <g id="Grupo_55497" data-name="Grupo 55497" transform="translate(208.84 232.177)">
        <path id="Trazado_103023" data-name="Trazado 103023" d="M385.252,395.531l1.159-1.159,2.372,2.372,3.541-4.58,1.3,1-4.68,6.053Z" transform="translate(-385.252 -392.164)" fill="#5e98ff"/>
        <path id="Trazado_103024" data-name="Trazado 103024" d="M390.124,399.746l-3-3,.513-.513,2.417,2.415,3.578-4.629.575.444Z" transform="translate(-386.479 -393.38)" fill="#5e98ff"/>
      </g>
      <g id="Grupo_55498" data-name="Grupo 55498" transform="translate(241.091 162.478)">
        <path id="Trazado_103025" data-name="Trazado 103025" d="M478.753,200.688V190.1h10.589v10.589Zm9.1-1.486v-7.617h-7.617V199.2Z" transform="translate(-478.753 -190.099)" fill="#5e98ff"/>
        <path id="Trazado_103026" data-name="Trazado 103026" d="M489.714,201.061h-9.762V191.3h9.762Zm-9.1-.658h8.444v-8.445h-8.444Z" transform="translate(-479.538 -190.886)" fill="#5e98ff"/>
      </g>
      <g id="Grupo_55499" data-name="Grupo 55499" transform="translate(242.603 164.479)">
        <path id="Trazado_103027" data-name="Trazado 103027" d="M483.136,198.953l1.051-1.051,2.151,2.151,3.211-4.152,1.176.909-4.243,5.488Z" transform="translate(-483.136 -195.9)" fill="#5e98ff"/>
        <path id="Trazado_103028" data-name="Trazado 103028" d="M487.553,202.775l-2.719-2.72.466-.465,2.191,2.19,3.245-4.2.521.4Z" transform="translate(-484.248 -197.003)" fill="#5e98ff"/>
      </g>
      <path id="Trazado_103029" data-name="Trazado 103029" d="M346.589,192.412a1.2,1.2,0,0,1-1.235,1.151H323.389a1.2,1.2,0,0,1-1.235-1.151h0a1.2,1.2,0,0,1,1.235-1.151h21.965a1.2,1.2,0,0,1,1.235,1.151Z" transform="translate(-135.079 -28.382)" fill="#5e98ff"/>
      <path id="Trazado_103030" data-name="Trazado 103030" d="M364.748,202.644a.8.8,0,0,1-.828.772H323.177a.8.8,0,0,1-.828-.772h0a.8.8,0,0,1,.828-.772h40.742a.8.8,0,0,1,.828.772Z" transform="translate(-135.206 -35.333)" fill="#bcbcbc"/>
      <path id="Trazado_103031" data-name="Trazado 103031" d="M364.748,210.5a.8.8,0,0,1-.828.773H323.177a.8.8,0,0,1-.828-.773h0a.8.8,0,0,1,.828-.772h40.742a.8.8,0,0,1,.828.772Z" transform="translate(-135.206 -40.478)" fill="#bcbcbc"/>
      <path id="Trazado_103032" data-name="Trazado 103032" d="M336.751,218.283a.8.8,0,0,1-.829.772H323.177a.8.8,0,0,1-.828-.772h0a.8.8,0,0,1,.828-.772h12.746a.8.8,0,0,1,.829.772Z" transform="translate(-135.206 -45.578)" fill="#bcbcbc"/>
      <g id="Grupo_55500" data-name="Grupo 55500" transform="translate(200.77 241.137)">
        <path id="Trazado_103033" data-name="Trazado 103033" d="M371.429,422.928h0a4.786,4.786,0,1,0-4.785,4.786A4.786,4.786,0,0,0,371.429,422.928Z" transform="translate(-361.858 -418.142)" fill="#fff"/>
      </g>
      <path id="Trazado_103034" data-name="Trazado 103034" d="M446.229,428.507v-6.546s-.279,3.091-8.327,3.091l-59.05,1.545s.455,3.064-3.12,3.619Z" transform="translate(-170.177 -179.507)" fill="#ccd9f2" style="mix-blend-mode: multiply;isolation: isolate"/>
      <path id="Trazado_103035" data-name="Trazado 103035" d="M438.732,431.863h-9.566c0,.018,0,.035,0,.053H380.518a4.786,4.786,0,0,1-4.785,4.786h70.5a4.787,4.787,0,0,0,4.785-4.786C451.015,431.9,438.733,431.881,438.732,431.863Z" transform="translate(-170.177 -185.993)" fill="#7189ad"/>
      <g id="Grupo_55501" data-name="Grupo 55501" transform="translate(215.282 213.036)" style="mix-blend-mode: multiply;isolation: isolate">
        <path id="Trazado_103036" data-name="Trazado 103036" d="M501.959,366.926l3.1-.159-.388-.7-3.759-.373v.011l-.321-.032,1.261,1.253Z" transform="translate(-467.245 -355.67)" fill="#bec3ce"/>
        <path id="Trazado_103037" data-name="Trazado 103037" d="M520.591,367.623l.162.231.719-.143Z" transform="translate(-480.35 -356.947)" fill="#bec3ce"/>
        <path id="Trazado_103038" data-name="Trazado 103038" d="M457.421,349.317a2.321,2.321,0,0,0-.376-.693l7.731.766v-7.9l-10.823-1.073c0-.032.007-.058.009-.073a1.247,1.247,0,0,0,.019-.189,1.371,1.371,0,0,0-.007-.188l.041-.024c-.109-2.779-2.558-1.838-3.388-2.833a.124.124,0,0,0-.036-.031s-.006,0-.009,0a.021.021,0,0,0-.017,0,.035.035,0,0,0-.007.008.088.088,0,0,0-.01.022c0,.005,0,.01,0,.017a.389.389,0,0,0-.007.042l0,.018c-.006.061-.007.142-.009.229v.022l-.011,0a1.454,1.454,0,0,1-.143-.036,1,1,0,0,1-.43-.248c-.4-.386-1.064-.316-1.175.031a.672.672,0,0,0,.1.535,1.493,1.493,0,0,0-.872,1.065,1.305,1.305,0,0,0,.022.59.229.229,0,0,0-.046.089c-.033.115-.061.233-.084.354l-9.515-.943-.026.265.025-.255-22.316-2.211-6.28,2.337a1.019,1.019,0,0,0-.138-.028l-5.313-.187c-.237,0-.389.525-.392.623a2.979,2.979,0,0,0,.218.683l5.291.868a.934.934,0,0,0,.135,0l5.7,3.528h0l17.749,1.758,2.518,2.965c.418.712,1.849,2.4,2.889,2.061.1,0,.212-.009.356-.019l3.856-.027a4.54,4.54,0,0,1,.97.008,4.227,4.227,0,0,0,1.651,1.984l.718,10.4c.061.768.161,2.863.161,2.863a.061.061,0,0,0,.025.024l.015.007a.217.217,0,0,0,.031.012l.027.006.041.008.037,0,.05,0,.046,0h.179l.064,0h.042l-1.428,7.486h4.874l1-1.919.53,1.919H456.9l-.936-6.978h.005L456,366.9c.481-.033.26-2.658.341-3.128Zm-18.779-1.388h-.113l-1.261-1.253.321.032V346.7l3.759.373.388.7Zm5.689-.35-.162-.231.881.088Zm3.615,2.7a4.944,4.944,0,0,1-.4-.682c-.068-.173.486-.852.486-.852a3.263,3.263,0,0,1-.707-.363c-.163-.241.258-1.139.258-1.139a1.324,1.324,0,0,1,1.1-.7l.106.439v.075l.026.034c.179.737.437,1.794.717,2.933Zm3.367,6.352c.017.929.046,2.431.075,3.926a.185.185,0,0,0-.024.087.182.182,0,0,0,.028.092c.042,2.112.085,4.162.1,4.509-.047-.66-.585-8.467-.6-8.522a18.41,18.41,0,0,0-1.069-3.093l.607-.006c.388,1.538.691,2.692.72,2.674l.637-2.688.687-.007C452.107,354.47,451.713,355.474,451.314,356.635Zm3.518-8.551a3.267,3.267,0,0,1-.707.363s.553.678.485.852a4.757,4.757,0,0,1-.227.455,1.971,1.971,0,0,0-.845-.367l-.774.124c.228-.96.435-1.827.585-2.449h0v0c.047-.2.089-.37.123-.512a1.852,1.852,0,0,1,.938.549S455,347.843,454.832,348.083Z" transform="translate(-403.928 -336.672)" fill="#bec3ce"/>
        <path id="Trazado_103039" data-name="Trazado 103039" d="M541.822,419.518c0,.019,0,.031,0,.031" transform="translate(-494.258 -390.942)" fill="#bec3ce"/>
        <path id="Trazado_103040" data-name="Trazado 103040" d="M531.168,365.824l-.026-.034v-.075l-.106-.439a1.324,1.324,0,0,0-1.1.7s-.422.9-.258,1.139a3.26,3.26,0,0,0,.707.363s-.554.678-.486.852a4.939,4.939,0,0,0,.4.682l1.59-.255C531.605,367.617,531.347,366.56,531.168,365.824Z" transform="translate(-486.277 -355.402)" fill="#bec3ce"/>
        <path id="Trazado_103041" data-name="Trazado 103041" d="M547.575,366.824c.163-.241-.422-.988-.422-.988a1.851,1.851,0,0,0-.938-.549c-.034.141-.076.316-.123.512v0h0c-.149.621-.356,1.489-.585,2.449l.774-.124a1.971,1.971,0,0,1,.845.367,4.7,4.7,0,0,0,.227-.455c.068-.173-.485-.852-.485-.852A3.269,3.269,0,0,0,547.575,366.824Z" transform="translate(-496.672 -355.413)" fill="#bec3ce"/>
        <path id="Trazado_103042" data-name="Trazado 103042" d="M536.986,385.793a18.388,18.388,0,0,1,1.069,3.093c.014.055.552,7.862.6,8.522-.015-.347-.058-2.4-.1-4.509a.182.182,0,0,1-.028-.092.184.184,0,0,1,.024-.087c-.029-1.495-.058-3-.075-3.926.4-1.161.793-2.165,1.162-3.029l-.687.007-.637,2.688c-.029.018-.332-1.136-.72-2.674Z" transform="translate(-491.09 -368.831)" fill="#bec3ce"/>
      </g>
      <path id="Trazado_103043" data-name="Trazado 103043" d="M277.375,173.651a4.463,4.463,0,0,0-.578-.038C276.1,173.613,276.376,173.627,277.375,173.651Z" transform="translate(-105.113 -16.822)" fill="#aacaf9" style="mix-blend-mode: multiply;isolation: isolate"/>
      <g id="Grupo_55505" data-name="Grupo 55505" transform="translate(304.671 258.357)" style="mix-blend-mode: multiply;isolation: isolate">
        <g id="Grupo_55504" data-name="Grupo 55504" transform="translate(0)">
          <path id="Trazado_103050" data-name="Trazado 103050" d="M663.078,474.1l.157-.31c.05-.1.112-.222.191-.357s.162-.295.269-.457l.163-.259c.058-.089.121-.177.185-.271.126-.19.273-.376.424-.578.31-.392.665-.8,1.053-1.2a25.21,25.21,0,0,1,2.076-1.879l.888-.717s-.35.243-.907.665a18.986,18.986,0,0,0-2.106,1.838,13.862,13.862,0,0,0-1.054,1.227c-.149.208-.294.4-.418.6-.062.1-.125.188-.181.28l-.158.267c-.1.168-.183.332-.258.472s-.134.264-.18.367Z" transform="translate(-663.078 -468.065)" fill="#ffd4b3"/>
        </g>
      </g>
      <g id="Grupo_55507" data-name="Grupo 55507" transform="translate(301.886 250.306)" style="mix-blend-mode: multiply;isolation: isolate">
        <g id="Grupo_55506" data-name="Grupo 55506" transform="translate(0)">
          <path id="Trazado_103053" data-name="Trazado 103053" d="M656.809,459.994s.018-.246.052-.691c.019-.223.038-.494.048-.8s.034-.667.032-1.048q0-.288.006-.6c0-.208-.008-.42-.012-.641,0-.447-.035-.9-.059-1.391-.067-.96-.175-1.987-.329-3.026-.315-2.072-.727-3.814-1.032-5.062l-.51-2.006s.231.718.571,1.925a41.58,41.58,0,0,1,1.1,5.01c.155,1.048.256,2.093.312,3.071.018.5.043.963.038,1.419,0,.226,0,.442,0,.654s-.013.418-.019.614c-.006.388-.038.752-.057,1.066s-.044.588-.069.814Z" transform="translate(-655.005 -444.723)" fill="#ffd4b3"/>
        </g>
      </g>
      <path id="Trazado_103055" data-name="Trazado 103055" d="M493.236,486.168c-1.09.059-.455,1.009,19.779.733,1.388-.019,3.74.275,5.307.21,10.79-.447,21.148.1,21.148-.791,0-.783-18.85-1.874-26.68-.836C509.608,485.906,495.831,486.028,493.236,486.168Z" transform="translate(-246.94 -220.84)" fill="url(#linear-gradient)" style="mix-blend-mode: multiply;isolation: isolate"/>
      <g id="Grupo_55509" data-name="Grupo 55509" transform="translate(252.238 234.64)">
        <g id="Grupo_55508" data-name="Grupo 55508" transform="translate(0 0)">
          <path id="Trazado_103056" data-name="Trazado 103056" d="M511.073,413.965c-.059,1.16.7.376,1.516.6l.534,1.464c.816.225,1.394-1.862,1.707-2.915l5.437-10.612c.313-1.052-.945-2.973-1.763-3.2l-1.578.681c-.815-.226-3.088.071-3.4,1.125Z" transform="translate(-511.07 -399.305)" fill="#0f3871"/>
        </g>
      </g>
      <path id="Trazado_103057" data-name="Trazado 103057" d="M510.42,483.167l1.238.039.1-1.925-1.238-.039Z" transform="translate(-258.406 -218.34)" fill="#fdc8a8"/>
      <path id="Trazado_103058" data-name="Trazado 103058" d="M511.76,481.281l-.035.669a.485.485,0,0,0-.232-.023c-.325.045-.609.083-.722.416a1.016,1.016,0,0,0,.091.587c.026.085.053.169.077.254l-.519-.017.1-1.925Z" transform="translate(-258.406 -218.34)" fill="#fdc8a8" style="mix-blend-mode: multiply;isolation: isolate"/>
      <path id="Trazado_103059" data-name="Trazado 103059" d="M498.448,487.179c-.018-.02-.012-.076-.016-.228,0-.215,1.482-.583,2.4-.786a1.864,1.864,0,0,0,.663-.287c.114-.117.038-.105.122-.073.257.1.465-.036.674-.042l-.007,1.611c-1.256.036-3.184.076-3.594.086-.253.006-.252-.1-.255-.225A.184.184,0,0,1,498.448,487.179Z" transform="translate(-250.553 -221.301)" fill="#0f3871"/>
      <path id="Trazado_103060" data-name="Trazado 103060" d="M498.448,487.179c-.018-.02-.012-.076-.016-.228,0-.215,1.482-.583,2.4-.786a1.864,1.864,0,0,0,.663-.287c.114-.117.038-.105.122-.073.257.1.421-.035.674-.042l-.007,1.611c-1.256.036-3.184.076-3.594.086-.253.006-.252-.1-.255-.225A.184.184,0,0,1,498.448,487.179Z" transform="translate(-250.553 -221.301)" fill="#c591a5" style="mix-blend-mode: multiply;isolation: isolate"/>
      <path id="Trazado_103061" data-name="Trazado 103061" d="M502.293,489.571l0,.3c-1.256.037-3.184.076-3.594.086-.254.007-.252-.1-.255-.225a.233.233,0,0,1,.01-.049Z" transform="translate(-250.56 -223.796)" fill="#0f3871"/>
      <path id="Trazado_103062" data-name="Trazado 103062" d="M502.293,489.611v.284c-1.256.036-3.184.076-3.594.086-.253.006-.252-.1-.255-.225a.147.147,0,0,1,.008-.036Z" transform="translate(-250.56 -223.822)" fill="#db967f" style="mix-blend-mode: multiply;isolation: isolate"/>
      <path id="Trazado_103063" data-name="Trazado 103063" d="M500.526,489.263c0,.129,0,.232.253.226.6-.015,4.5-.093,4.693-.132.107-.022.249-.111.246-.239h0a.238.238,0,0,0-.254-.226l-4.693.132a.244.244,0,0,0-.246.239Z" transform="translate(-251.925 -223.351)" fill="#0f3871"/>
      <g id="Grupo_55511" data-name="Grupo 55511" transform="translate(248.596 264.34)">
        <g id="Grupo_55510" data-name="Grupo 55510">
          <path id="Trazado_103064" data-name="Trazado 103064" d="M505.708,486.742c.01.082-1.6.1-5.125.2-.084,0-.069,0-.073-.239,0-.215,1.483-.584,2.4-.786a1.851,1.851,0,0,0,.663-.287c.115-.117.04-.1.123-.073,1.6.611,1.482-.227,1.741-.137C505.744,485.524,505.69,486.6,505.708,486.742Z" transform="translate(-500.51 -485.409)" fill="#0f3871"/>
        </g>
      </g>
      <path id="Trazado_103065" data-name="Trazado 103065" d="M508.683,486.718c.007.014.034.017.059.007h0c.024-.011.038-.033.03-.048l-.2-.387c-.007-.015-.034-.019-.059-.008h0c-.026.011-.039.033-.03.049Z" transform="translate(-257.137 -221.638)" fill="#0f3871"/>
      <path id="Trazado_103066" data-name="Trazado 103066" d="M507.755,486.918c0,.012.029.016.056.007h0c.026-.009.043-.026.039-.04l-.121-.318c0-.013-.029-.016-.056-.008h0c-.026.009-.042.026-.038.039Z" transform="translate(-256.581 -221.82)" fill="#0f3871"/>
      <path id="Trazado_103067" data-name="Trazado 103067" d="M506.939,487.008c0,.007.026.008.052,0h0c.026-.008.045-.021.043-.029l-.068-.2c0-.008-.026-.009-.052,0h0c-.026.008-.045.021-.043.029Z" transform="translate(-256.081 -221.961)" fill="#0f3871"/>
      <g id="Grupo_55513" data-name="Grupo 55513" transform="translate(251.83 247.829)">
        <g id="Grupo_55512" data-name="Grupo 55512">
          <path id="Trazado_103068" data-name="Trazado 103068" d="M511.952,437.552l.387-.009c.855-.022,1.317.554,1.254,1.763l-1.863,12.76-.185,1.066-1.659-.256.35-13.416A1.831,1.831,0,0,1,511.952,437.552Z" transform="translate(-509.887 -437.542)" fill="#0f3871"/>
        </g>
      </g>
      <path id="Trazado_103069" data-name="Trazado 103069" d="M523.656,409.19l.723,3.909L521,419.591c-.127.428-.3,1.026-.512,1.572a43.9,43.9,0,0,1,2.142-7.211C523.6,411.414,523.227,409.468,523.656,409.19Z" transform="translate(-264.999 -171.141)" fill="#f48baa" style="mix-blend-mode: multiply;isolation: isolate"/>
      <g id="Grupo_55515" data-name="Grupo 55515" transform="translate(257.811 233.665)">
        <g id="Grupo_55514" data-name="Grupo 55514">
          <path id="Trazado_103070" data-name="Trazado 103070" d="M530.544,413.134c.206,1.084,1.717-.138,2.609-.3l.4-.074c.892-.162,1.255-1.145,1.049-2.23l-1.5-11.2c-.206-1.084-.717-3-1.609-2.838l-1.188,1.317c-.891.162-3.274,2.135-3.068,3.22Z" transform="translate(-527.225 -396.481)" fill="#0f3871"/>
        </g>
      </g>
      <path id="Trazado_103071" data-name="Trazado 103071" d="M550.72,481.627l1.228-.172-.248-1.909-1.228.172Z" transform="translate(-284.642 -217.228)" fill="#fdc8a8"/>
      <path id="Trazado_103072" data-name="Trazado 103072" d="M551.7,479.545l.086.663a.5.5,0,0,0-.233.017c-.311.1-.584.186-.636.532a1.021,1.021,0,0,0,.2.562c.041.079.083.157.122.237l-.515.072-.249-1.91Z" transform="translate(-284.642 -217.228)" fill="#fdc8a8" style="mix-blend-mode: multiply;isolation: isolate"/>
      <g id="Grupo_55518" data-name="Grupo 55518" transform="translate(262.947 263.84)">
        <path id="Trazado_103073" data-name="Trazado 103073" d="M542.154,485.9a.791.791,0,0,1-.037-.226c-.026-.212,1.194-.622,1.951-.85a1.349,1.349,0,0,0,.532-.3c.084-.12.022-.1.1-.076.229.09.391-.05.567-.062l.167,1.6c-1.062.074-2.693.169-3.039.19-.215.013-.225-.088-.24-.216A.213.213,0,0,1,542.154,485.9Z" transform="translate(-542.116 -484.237)" fill="#0f3871"/>
        <path id="Trazado_103074" data-name="Trazado 103074" d="M542.154,485.9a.791.791,0,0,1-.037-.226c-.026-.212,1.194-.622,1.951-.85a1.349,1.349,0,0,0,.532-.3c.084-.12.022-.1.1-.076.229.09.353-.047.567-.062l.167,1.6c-1.062.074-2.693.169-3.039.19-.215.013-.225-.088-.24-.216A.213.213,0,0,1,542.154,485.9Z" transform="translate(-542.116 -484.237)" fill="#c591a5" style="mix-blend-mode: multiply;isolation: isolate"/>
        <path id="Trazado_103075" data-name="Trazado 103075" d="M545.462,488.16l.031.294c-1.062.074-2.693.169-3.039.191-.215.013-.225-.088-.24-.216a.174.174,0,0,1,0-.05Z" transform="translate(-542.18 -486.711)" fill="#0f3871"/>
        <path id="Trazado_103076" data-name="Trazado 103076" d="M545.465,488.2l.029.28c-1.062.074-2.693.169-3.039.19-.215.013-.225-.088-.24-.216a.122.122,0,0,1,0-.036Z" transform="translate(-542.18 -486.738)" fill="#db967f" style="mix-blend-mode: multiply;isolation: isolate"/>
        <path id="Trazado_103077" data-name="Trazado 103077" d="M545.128,487.87c.016.128.025.23.208.219.435-.025,3.246-.172,3.382-.215a.23.23,0,0,0,.153-.242h0a.226.226,0,0,0-.208-.219l-3.382.216a.2.2,0,0,0-.154.241Z" transform="translate(-544.088 -486.222)" fill="#0f3871"/>
        <g id="Grupo_55517" data-name="Grupo 55517" transform="translate(1.008)">
          <g id="Grupo_55516" data-name="Grupo 55516">
            <path id="Trazado_103078" data-name="Trazado 103078" d="M548.8,485.278a26.9,26.9,0,0,1-3.687.287c-.06,0-.049,0-.078-.237-.026-.212,1.01-.606,1.653-.823a1.066,1.066,0,0,0,.449-.3c.071-.119.018-.105.081-.076,1.225.578,1.049-.251,1.245-.167C548.7,484.068,548.774,485.137,548.8,485.278Z" transform="translate(-545.037 -483.96)" fill="#0f3871"/>
          </g>
        </g>
        <path id="Trazado_103079" data-name="Trazado 103079" d="M550.7,485.366a.029.029,0,0,0,.044.005h0a.042.042,0,0,0,.017-.049l-.184-.379a.029.029,0,0,0-.044-.007h0a.043.043,0,0,0-.018.049Z" transform="translate(-547.617 -484.595)" fill="#0f3871"/>
        <path id="Trazado_103080" data-name="Trazado 103080" d="M549.768,485.721c0,.012.023.015.041.005h0c.018-.009.028-.027.023-.039l-.121-.315c0-.012-.023-.016-.041-.006h0c-.018.009-.028.027-.023.04Z" transform="translate(-547.048 -484.878)" fill="#0f3871"/>
        <path id="Trazado_103081" data-name="Trazado 103081" d="M548.966,486.106c0,.008.019.008.037,0h0c.019-.008.031-.021.029-.029l-.07-.2c0-.008-.02-.008-.038,0h0c-.018.008-.031.021-.028.029Z" transform="translate(-546.557 -485.212)" fill="#0f3871"/>
        <path id="Trazado_103082" data-name="Trazado 103082" d="M549.562,484.887a.028.028,0,0,0,.031-.032h0a.05.05,0,0,0-.042-.038l-.509-.041a.028.028,0,0,0-.032.031h0a.047.047,0,0,0,.042.039Z" transform="translate(-546.632 -484.495)" fill="#0f3871"/>
        <path id="Trazado_103083" data-name="Trazado 103083" d="M548.859,485.332a.026.026,0,0,0,.029-.03h0a.04.04,0,0,0-.033-.038l-.437-.047a.028.028,0,0,0-.03.031h0a.041.041,0,0,0,.033.037Z" transform="translate(-546.225 -484.783)" fill="#0f3871"/>
        <path id="Trazado_103084" data-name="Trazado 103084" d="M548.143,485.688a.027.027,0,0,0,.034-.026h0a.039.039,0,0,0-.027-.042l-.423-.108a.029.029,0,0,0-.035.026h0a.04.04,0,0,0,.027.042Z" transform="translate(-545.768 -484.977)" fill="#0f3871"/>
      </g>
      <g id="Grupo_55520" data-name="Grupo 55520" transform="translate(261.094 247.587)">
        <g id="Grupo_55519" data-name="Grupo 55519">
          <path id="Trazado_103085" data-name="Trazado 103085" d="M538.816,437.034l.4-.118c.871-.263,1.509.158,1.791,1.336l1.736,12.766.116,1.075-1.775.223-4.3-12.743C536.5,438.4,537.944,437.3,538.816,437.034Z" transform="translate(-536.743 -436.841)" fill="#0f3871"/>
        </g>
      </g>
      <path id="Trazado_103086" data-name="Trazado 103086" d="M527.866,411.848c.1.026,2.892,8.119,3.084,8.905.315,1.287,4.079,13.124,4.757,15.135l-.445.056-4.012-12.051a4.344,4.344,0,0,1-.286-.693l-2.5-9.05Z" transform="translate(-269.834 -172.882)" fill="#f48baa" style="mix-blend-mode: multiply;isolation: isolate"/>
      <path id="Trazado_103087" data-name="Trazado 103087" d="M510.237,414.411a2.633,2.633,0,0,1,.061-.444v0l2.451-12.854c.313-1.053,2.586-1.35,3.4-1.125l1.578-.681a1.058,1.058,0,0,1,.618.692,3.593,3.593,0,0,1,1.243-.249l.41.018c.626.028,1.59,1.44,1.96,2.145l-.064.354a12.673,12.673,0,0,1-4.848-.773s-.09.264-1.98.744c-1.279.325-3.462,10.621-3.647,11.644-.7,3.894-.756,10.6-.783,14.007l-.753-.06Z" transform="translate(-258.057 -164.665)" fill="#f48baa" style="mix-blend-mode: multiply;isolation: isolate"/>
      <path id="Trazado_103088" data-name="Trazado 103088" d="M471.947,329.234c.467-2-2.039-1.646-2.149-.342a18.6,18.6,0,0,0,1.243,3.217l1.592-.407A6.9,6.9,0,0,1,471.947,329.234Z" transform="translate(-231.795 -117.841)" fill="#fdc8a8"/>
      <g id="Grupo_55522" data-name="Grupo 55522" transform="translate(238.887 212.834)">
        <g id="Grupo_55521" data-name="Grupo 55521">
          <path id="Trazado_103089" data-name="Trazado 103089" d="M474.386,336.264l6.741,6.7a2.782,2.782,0,0,0-.944,1.85c-1.031,1.081-2.818-.991-3.294-1.8l-4.5-5.305c-.18-.312.792-1.22,1.5-1.545C474.355,335.947,474.386,336.264,474.386,336.264Z" transform="translate(-472.363 -336.088)" fill="#0f3871"/>
        </g>
      </g>
      <g id="Grupo_55524" data-name="Grupo 55524" transform="translate(245.472 217.551)">
        <g id="Grupo_55523" data-name="Grupo 55523" transform="translate(0 0)">
          <path id="Trazado_103090" data-name="Trazado 103090" d="M494.157,350.611l3.651-.2c1.089-.138,3.994-1.061,4.934-.421l-1.9,5.651c-.725-1.365-3.327-1.779-4.345-1.65l-3.856.027c-.353.024-.5.025-.872.02l-.314-3.359A26.428,26.428,0,0,0,494.157,350.611Z" transform="translate(-491.454 -349.764)" fill="#0f3871"/>
        </g>
      </g>
      <path id="Trazado_103091" data-name="Trazado 103091" d="M494.715,347.81c-2.225.117-4.76.539-5.4.2a15.708,15.708,0,0,1-2.449-2.824l2.515,2.5,5.421-.278c.294-.065,1.3-.258,1.953-.4,2.31-.486,2.874-.076,2.874-.076C500.059,347.47,495.46,347.771,494.715,347.81Z" transform="translate(-242.979 -129.216)" fill="#f48baa" style="mix-blend-mode: multiply;isolation: isolate"/>
      <g id="Grupo_55527" data-name="Grupo 55527" transform="translate(211.8 207.211)">
        <g id="Grupo_55526" data-name="Grupo 55526" transform="translate(3.742 0)">
          <g id="Grupo_55525" data-name="Grupo 55525">
            <path id="Trazado_103092" data-name="Trazado 103092" d="M587.577,343.961a1.315,1.315,0,0,0,1.551-.957l.523-5.268c.057-.609-.537-1.166-1.334-1.241l-5.36-.536a1.311,1.311,0,0,0-1.546.965l-.525,5.26c-.066.61.537,1.165,1.33,1.245Z" transform="translate(-520.105 -330.375)" fill="#5e98ff"/>
            <path id="Trazado_103093" data-name="Trazado 103093" d="M491.424,333.992,519.8,336.8l.77-7.823L492.2,326.169Z" transform="translate(-461.505 -323.968)" fill="#ffd4b3"/>
            <rect id="Rectángulo_5664" data-name="Rectángulo 5664" width="7.863" height="22.425" transform="translate(7.605 7.824) rotate(-84.341)" fill="#ffd4b3"/>
            <rect id="Rectángulo_5665" data-name="Rectángulo 5665" width="2.311" height="22.425" transform="translate(8.153 2.3) rotate(-84.341)" fill="#ffe2cf"/>
            <path id="Trazado_103094" data-name="Trazado 103094" d="M493.018,328.47l28.366,2.811.225-2.3-28.362-2.811Z" transform="translate(-462.548 -323.968)" fill="#ffe2cf"/>
            <rect id="Rectángulo_5666" data-name="Rectángulo 5666" width="2.407" height="28.511" transform="matrix(0.099, -0.995, 0.995, 0.099, 29.92, 10.018)" fill="#e5a67c" style="mix-blend-mode: multiply;isolation: isolate"/>
            <rect id="Rectángulo_5667" data-name="Rectángulo 5667" width="2.41" height="22.423" transform="translate(7.606 7.824) rotate(-84.338)" fill="#e5a67c" style="mix-blend-mode: multiply;isolation: isolate"/>
            <path id="Trazado_103095" data-name="Trazado 103095" d="M404.683,322.906l8.381-3.118-.776,7.824Z" transform="translate(-404.683 -319.787)" fill="#e5caa3"/>
            <path id="Trazado_103096" data-name="Trazado 103096" d="M404.683,322.906l8.381-3.118-.228,2.3Z" transform="translate(-404.683 -319.787)" fill="#fff"/>
            <path id="Trazado_103097" data-name="Trazado 103097" d="M412.525,329.581l-7.842-2.307,8.153-.818" transform="translate(-404.683 -324.155)" fill="#f9ecd7"/>
          </g>
        </g>
        <path id="Trazado_103098" data-name="Trazado 103098" d="M574.813,341.777a1.149,1.149,0,0,0,1.291-.985l.723-7.272a1.145,1.145,0,0,0-1.071-1.218h0a1.147,1.147,0,0,0-1.293.984l-.723,7.272a1.147,1.147,0,0,0,1.072,1.219Z" transform="translate(-511.682 -327.981)" fill="#f2ebdd"/>
        <path id="Trazado_103099" data-name="Trazado 103099" d="M581.666,342.46a1.152,1.152,0,0,0,1.292-.986l.724-7.269a1.149,1.149,0,0,0-1.072-1.221h0a1.151,1.151,0,0,0-1.293.983l-.723,7.272a1.153,1.153,0,0,0,1.073,1.221Z" transform="translate(-516.17 -328.427)" fill="#f2ebdd"/>
        <path id="Trazado_103100" data-name="Trazado 103100" d="M394.052,327.243a2.976,2.976,0,0,1-.218-.683h0c0-.1.156-.624.392-.623l5.313.188a1,1,0,0,1,.894,1.093h0a1,1,0,0,1-1.091.893Z" transform="translate(-393.833 -323.816)" fill="#283042"/>
      </g>
      <path id="Trazado_103101" data-name="Trazado 103101" d="M523.012,349.734l-.326,5.153,2.68,4.36,2.372-4.36v-5.3Z" transform="translate(-266.441 -132.094)" fill="#f2ebdd"/>
      <path id="Trazado_103102" data-name="Trazado 103102" d="M521.133,349.328h0a6.747,6.747,0,0,1,.54,2.564c.01.583-2.7,7.188-2.7,7.188-.364.069-.784-3.1-1.058-3.28-.567-.365-.22-1.994-.694-2.467-.971-.967-.4-2.724-.681-4.005h0c-2.655.16-2.772.579-3.091,1.007a2.155,2.155,0,0,0-.521,1.654l.974,14.1c.061.768.161,2.863.161,2.863.139.3,4.515-.412,5.353-1.209,0,0,.5,1.209,4.479,1.631.513.055.281-2.655.363-3.134l1.084-14.46C524.864,350.3,522.611,349.328,521.133,349.328Z" transform="translate(-260.048 -131.927)" fill="#0f3871"/>
      <path id="Trazado_103103" data-name="Trazado 103103" d="M513.636,350.127c.346-.351.344-.578,2.9-.8a3.841,3.841,0,0,1,.065.457c-.225.161-.691.024-.974.06-.911.115-1.88.028-1.82,1.105.08,1.458-.027,4.734.114,6.179.277,2.836.764,8.523.783,9.142a2.145,2.145,0,0,0,.5,1.661c.845.668,3.667-.17,4-.036-1.178.732-5.019,1.336-5.149,1.058,0,0-.1-2.094-.161-2.863l-.974-14.1A2.228,2.228,0,0,1,513.636,350.127Z" transform="translate(-260.048 -131.927)" fill="#f48baa" style="mix-blend-mode: multiply;isolation: isolate"/>
      <g id="Grupo_55528" data-name="Grupo 55528" transform="translate(255.161 217.074)">
        <path id="Trazado_103104" data-name="Trazado 103104" d="M531.728,402.634c0,.019,0,.031,0,.031S531.729,402.652,531.728,402.634Z" transform="translate(-527.525 -383.92)" fill="#fdc8a8"/>
        <path id="Trazado_103105" data-name="Trazado 103105" d="M519.84,349.093a1.324,1.324,0,0,1,1.1-.7c.494,2.043,2.389,9.8,2.464,9.755,0,0,1.844-7.782,2.321-9.755a1.853,1.853,0,0,1,.938.549s.585.747.421.988a3.282,3.282,0,0,1-.707.363s.553.678.485.852a45.193,45.193,0,0,0-3.3,7.337c.041,2.279.152,8.012.179,8.614-.047-.66-.585-8.467-.6-8.522a24.332,24.332,0,0,0-3.344-7.126c-.068-.174.486-.852.486-.852a3.27,3.27,0,0,1-.708-.363C519.418,349.991,519.84,349.093,519.84,349.093Z" transform="translate(-519.544 -348.38)" fill="#0f3871"/>
        <path id="Trazado_103106" data-name="Trazado 103106" d="M519.84,349.093a1.324,1.324,0,0,1,1.1-.7c.494,2.043,2.389,9.8,2.464,9.755,0,0,1.844-7.782,2.321-9.755a1.853,1.853,0,0,1,.938.549s.585.747.421.988a3.282,3.282,0,0,1-.707.363s.553.678.485.852a45.193,45.193,0,0,0-3.3,7.337c.041,2.279.152,8.012.179,8.614-.047-.66-.585-8.467-.6-8.522a24.332,24.332,0,0,0-3.344-7.126c-.068-.174.486-.852.486-.852a3.27,3.27,0,0,1-.708-.363C519.418,349.991,519.84,349.093,519.84,349.093Z" transform="translate(-519.544 -348.38)" fill="#f48baa" style="mix-blend-mode: multiply;isolation: isolate"/>
      </g>
      <g id="Grupo_55529" data-name="Grupo 55529" transform="translate(257.237 211.908)">
        <path id="Trazado_103107" data-name="Trazado 103107" d="M529.281,339.411c-.053.622-.84.882-1.867.786l-.086.17c-1.026-.091-1.814-.67-1.763-1.292l.561-4.69c.053-.621.759-1.063,1.786-.971h0c1.025.093,1.48.644,1.429,1.268Z" transform="translate(-525.563 -333.402)" fill="#fdc8a8"/>
      </g>
      <path id="Trazado_103108" data-name="Trazado 103108" d="M532.536,348.1l-1.8,2.154-.61-1.249,2.417-1.854Z" transform="translate(-271.315 -130.501)" fill="#bac8e2"/>
      <path id="Trazado_103109" data-name="Trazado 103109" d="M532.465,347.68l-1.8,1.933-.647-1.091,2.454-2.013Z" transform="translate(-271.244 -130.081)" fill="#f2ebdd"/>
      <path id="Trazado_103110" data-name="Trazado 103110" d="M523.889,348.1l1.8,2.353.4-1.5-2.2-1.8Z" transform="translate(-267.224 -130.501)" fill="#bac8e2"/>
      <path id="Trazado_103111" data-name="Trazado 103111" d="M523.889,347.68l1.8,1.933.391-1.157-2.2-1.946Z" transform="translate(-267.224 -130.081)" fill="#f2ebdd"/>
      <path id="Trazado_103112" data-name="Trazado 103112" d="M531.789,388.916a.216.216,0,1,1-.215-.2A.208.208,0,0,1,531.789,388.916Z" transform="translate(-272.122 -157.729)" fill="#f48baa" style="mix-blend-mode: multiply;isolation: isolate"/>
      <path id="Trazado_103113" data-name="Trazado 103113" d="M528.485,380.491a.216.216,0,1,1-.216-.2A.208.208,0,0,1,528.485,380.491Z" transform="translate(-269.957 -152.21)" fill="#f48baa" style="mix-blend-mode: multiply;isolation: isolate"/>
      <path id="Trazado_103114" data-name="Trazado 103114" d="M529.7,396.379a.216.216,0,1,1-.216-.2A.208.208,0,0,1,529.7,396.379Z" transform="translate(-270.754 -162.618)" fill="#f48baa" style="mix-blend-mode: multiply;isolation: isolate"/>
      <path id="Trazado_103115" data-name="Trazado 103115" d="M499.392,336.23c.346-2.021-2.134-1.521-2.165-.214a18.6,18.6,0,0,0,1.434,3.136l1.564-.5A6.9,6.9,0,0,1,499.392,336.23Z" transform="translate(-249.763 -122.458)" fill="#fdc8a8"/>
      <g id="Grupo_55531" data-name="Grupo 55531" transform="translate(252.348 219.925)">
        <g id="Grupo_55530" data-name="Grupo 55530">
          <path id="Trazado_103116" data-name="Trazado 103116" d="M524.092,358.358a5.32,5.32,0,0,1-4.4,2.5l-3.6.038c-1.105.064-2.633-.277-3.577-.295l-1.131-2.885c.974.461.916.2,1.269.174l7.792-1.25c.466-.012,1.285.794,1.775.755Z" transform="translate(-511.388 -356.646)" fill="#0f3871"/>
        </g>
      </g>
      <path id="Trazado_103117" data-name="Trazado 103117" d="M525.9,341.9l3.552-.331-.022.763a9.648,9.648,0,0,1-2.517,1.329c-.365.036-1.2-.5-1.191-.705Z" transform="translate(-268.428 -126.846)" fill="#fdc8a8" style="mix-blend-mode: multiply;isolation: isolate"/>
      <path id="Trazado_103118" data-name="Trazado 103118" d="M521.359,330.743l-.4-.18c-.331-.147-.6.04-.636.42-.064.651.475.7.455,1.206l.83-.109Z" transform="translate(-264.89 -119.602)" fill="#fdc8a8"/>
      <path id="Trazado_103119" data-name="Trazado 103119" d="M535.843,334.178l.427-.1c.354-.078.578.157.541.538-.066.651-.576.564-.715,1.129l-.761-.308Z" transform="translate(-274.727 -121.928)" fill="#fdc8a8"/>
      <path id="Trazado_103120" data-name="Trazado 103120" d="M521.609,329.284c.286.9,1.038,2.172,1.663,2.31a4.885,4.885,0,0,0,3.142-1.468c.9-1.683,1.511-6.231-1.842-6.393-.894-.042-2.417-.563-2.912,1.076A10.635,10.635,0,0,0,521.609,329.284Z" transform="translate(-265.595 -115.088)" fill="#fdc8a8"/>
      <path id="Trazado_103121" data-name="Trazado 103121" d="M521.609,329.284a10.635,10.635,0,0,1,.052-4.474c.495-1.639,2.017-1.119,2.912-1.076a2.936,2.936,0,0,1,1.5.442.711.711,0,0,0-.094.057,6.379,6.379,0,0,0-1.463,1.477c-.031.045-.155-.131-.17-.088a3.656,3.656,0,0,1-1,.434c-.309.042-1.489-.318-1.622.193a5.238,5.238,0,0,0-.049,2.762,4.267,4.267,0,0,0,1.6,2.584C522.646,331.456,521.894,330.181,521.609,329.284Z" transform="translate(-265.595 -115.088)" fill="#fdc8a8" style="mix-blend-mode: multiply;isolation: isolate"/>
      <path id="Trazado_103122" data-name="Trazado 103122" d="M521.689,338.956c-.258.752.926,2.7,1.635,2.857.795.173,3.29-1.058,3.52-1.808.419-1.367.391-1.589,0-1.581-.252,0-.925.993-1.548,1.092-.445.071-.263-.776-1.718-.7-1.07.06-.88.258-1.164.419C521.989,339.482,521.827,338.554,521.689,338.956Z" transform="translate(-265.764 -124.784)" fill="#0f3871"/>
      <g id="Grupo_55533" data-name="Grupo 55533" transform="translate(256.493 207.614)">
        <g id="Grupo_55532" data-name="Grupo 55532">
          <path id="Trazado_103123" data-name="Trazado 103123" d="M525.41,320.99c-.241-.29.136,1.28-.555.8-.31-.215-1.053-.014-1.452.7l3.112.813c.2,0,.391.006.587.014a1.02,1.02,0,0,1,.915.926c.261-.136.523-.269.78-.425C528.689,321.044,526.24,321.984,525.41,320.99Z" transform="translate(-523.404 -320.954)" fill="#0f3871"/>
        </g>
      </g>
      <path id="Trazado_103124" data-name="Trazado 103124" d="M523.784,320.717c-.109.348.191.817.672,1.049a1.285,1.285,0,0,0,1.426-.564c.109-.347-.443-.051-.923-.517C524.563,320.3,523.9,320.369,523.784,320.717Z" transform="translate(-267.146 -112.994)" fill="#0f3871"/>
      <path id="Trazado_103125" data-name="Trazado 103125" d="M522.049,328.182c-.759-.055-.885,1.484-.885,1.484-.212-.031-.251-1.172.006-2.076C521.331,327.024,522.6,328.221,522.049,328.182Z" transform="translate(-265.331 -117.587)" fill="#0f3871"/>
      <path id="Trazado_103126" data-name="Trazado 103126" d="M522.049,328.182c-.759-.055-.885,1.484-.885,1.484-.212-.031-.251-1.172.006-2.076C521.331,327.024,522.6,328.221,522.049,328.182Z" transform="translate(-265.331 -117.587)" fill="#f48baa" style="mix-blend-mode: multiply;isolation: isolate"/>
      <path id="Trazado_103127" data-name="Trazado 103127" d="M521.536,323.345a1.2,1.2,0,0,0,.864,1.411c1.462.592,1.815-.39,3.845.128.174.045-.138.47.413.957a1.737,1.737,0,0,1,.383,1.461c.3,0,.425-2.171.465-2.4.193-1.1-.987-2.332-2.635-2.762S521.729,322.25,521.536,323.345Z" transform="translate(-265.672 -114.022)" fill="#0f3871"/>
      <path id="Trazado_103128" data-name="Trazado 103128" d="M531.542,325.991a22.287,22.287,0,0,0,.183-2.228c-.046-.7-.089-1.187-.735-1.567a6.594,6.594,0,0,0-1.6-.344,1.814,1.814,0,0,1-1.019-.582,1.344,1.344,0,0,0,.192.049c.008-.245,0-.451.1-.329.83.995,3.279.054,3.388,2.833l-.041.024a1.4,1.4,0,0,1-.012.377c-.04.226-.17,2.4-.465,2.4A5.2,5.2,0,0,0,531.542,325.991Z" transform="translate(-270.164 -113.34)" fill="#f48baa" style="mix-blend-mode: multiply;isolation: isolate"/>
      <g id="Grupo_55535" data-name="Grupo 55535" transform="translate(248.228 215.104)">
        <g id="Grupo_55534" data-name="Grupo 55534">
          <path id="Trazado_103129" data-name="Trazado 103129" d="M501.441,342.877l4.381,6.218c-1.113.527-.272,2.179-.272,2.179-1.381.876-2.7-1.392-2.978-2.243l-3.12-5.635c-.1-.328.655-.492,1.488-.694C501.5,342.568,501.441,342.877,501.441,342.877Z" transform="translate(-499.442 -342.668)" fill="#0f3871"/>
        </g>
      </g>
      <g id="Grupo_55537" data-name="Grupo 55537" transform="translate(127.94 256.654)" style="mix-blend-mode: multiply;isolation: isolate">
        <g id="Grupo_55536" data-name="Grupo 55536" transform="translate(0)">
          <path id="Trazado_103132" data-name="Trazado 103132" d="M150.712,469.669l.2-.343c.062-.111.141-.246.239-.395s.2-.326.334-.5l.2-.285c.071-.1.149-.195.228-.3.155-.209.334-.413.518-.633.377-.428.806-.872,1.273-1.306a28.838,28.838,0,0,1,2.48-2.014l1.055-.762s-.414.256-1.073.7a21.622,21.622,0,0,0-2.511,1.965,15.871,15.871,0,0,0-1.275,1.333c-.182.228-.36.438-.512.654-.077.107-.154.206-.224.308l-.2.295c-.128.185-.229.367-.322.522s-.169.292-.228.407Z" transform="translate(-150.712 -463.128)" fill="#ffd4b3"/>
        </g>
      </g>
      <g id="Grupo_55541" data-name="Grupo 55541" transform="translate(125.077 247.023)" style="mix-blend-mode: multiply;isolation: isolate">
        <g id="Grupo_55540" data-name="Grupo 55540" transform="translate(0)">
          <path id="Trazado_103139" data-name="Trazado 103139" d="M142.414,454.8s.046-.331.127-.928c.039-.3.09-.664.162-1.076s.14-.892.244-1.395l.154-.8c.056-.275.121-.552.185-.843.123-.589.281-1.182.437-1.818.331-1.246.726-2.568,1.174-3.891.9-2.636,1.826-4.8,2.5-6.356l1.1-2.486s-.448.875-1.148,2.361a61.606,61.606,0,0,0-2.56,6.265c-.452,1.334-.843,2.682-1.167,3.956-.152.651-.3,1.258-.422,1.861-.06.3-.123.582-.175.864l-.143.816c-.1.514-.159,1-.221,1.426s-.109.791-.141,1.1Z" transform="translate(-142.414 -435.206)" fill="#ffd4b3"/>
        </g>
      </g>
    </g>
  </g>
</svg>
