<svg xmlns="http://www.w3.org/2000/svg" width="220.638" height="184.048" viewBox="0 0 220.638 184.048">
  <g id="Grupo_55827" data-name="Grupo 55827" transform="translate(-822.362 -3850)">
    <g id="Grupo_55545" data-name="Grupo 55545" transform="translate(-412.854 3055.721)">
      <path id="Trazado_101599" data-name="Trazado 101599" d="M1414.88,965.413l-33.916,1.521h-69.246V826.776h104.819V930.444Z" transform="translate(-47.646 -32.497)" fill="#f0eeb8"/>
      <path id="Trazado_101600" data-name="Trazado 101600" d="M1433.47,1028.164h-34.164a1.35,1.35,0,0,1-1.35-1.35h0a1.35,1.35,0,0,1,1.35-1.35h34.164a1.35,1.35,0,0,1,1.35,1.35h0A1.35,1.35,0,0,1,1433.47,1028.164Z" transform="translate(-95.38 -142.473)" fill="#92aeb8"/>
      <rect id="Rectángulo_5362" data-name="Rectángulo 5362" width="52.819" height="2.7" rx="1.35" transform="translate(1302.576 875.587)" fill="#92aeb8"/>
      <g id="Grupo_54529" data-name="Grupo 54529" transform="translate(1331.48 811.828)">
        <rect id="Rectángulo_5363" data-name="Rectángulo 5363" width="23.914" height="2.7" rx="1.35" fill="#92aeb8"/>
        <rect id="Rectángulo_5364" data-name="Rectángulo 5364" width="23.914" height="2.7" rx="1.35" transform="translate(0 7.403)" fill="#dd123c"/>
      </g>
      <g id="Grupo_54530" data-name="Grupo 54530" transform="translate(1277.917 833.136)">
        <path id="Trazado_101601" data-name="Trazado 101601" d="M1485.258,916.5h-21.214a1.35,1.35,0,0,1-1.35-1.351h0a1.35,1.35,0,0,1,1.35-1.35h21.214a1.35,1.35,0,0,1,1.35,1.35h0A1.35,1.35,0,0,1,1485.258,916.5Z" transform="translate(-1409.131 -913.804)" fill="#fea401"/>
        <path id="Trazado_101602" data-name="Trazado 101602" d="M1485.258,933.084h-21.214a1.35,1.35,0,0,1-1.35-1.35h0a1.35,1.35,0,0,1,1.35-1.35h21.214a1.35,1.35,0,0,1,1.35,1.35h0A1.35,1.35,0,0,1,1485.258,933.084Z" transform="translate(-1409.131 -922.981)" fill="#92aeb8"/>
        <path id="Trazado_101603" data-name="Trazado 101603" d="M1418.855,956.087h-74.777a1.35,1.35,0,0,1-1.35-1.35h0a1.35,1.35,0,0,1,1.35-1.35h74.777a1.35,1.35,0,0,1,1.35,1.35h0A1.35,1.35,0,0,1,1418.855,956.087Z" transform="translate(-1342.728 -935.714)" fill="#92aeb8"/>
        <rect id="Rectángulo_5365" data-name="Rectángulo 5365" width="77.478" height="2.7" rx="1.35" transform="translate(0 24.267)" fill="#92aeb8"/>
      </g>
      <g id="Grupo_54533" data-name="Grupo 54533" transform="translate(1278.592 875.093)">
        <g id="Grupo_54531" data-name="Grupo 54531" transform="translate(0)">
          <path id="Trazado_101604" data-name="Trazado 101604" d="M1360.034,1023.57H1344.24v-15.794h15.794Zm-13.9-1.9h12v-12h-12Z" transform="translate(-1344.24 -1007.776)" fill="#92aeb8"/>
          <path id="Trazado_101605" data-name="Trazado 101605" d="M1356.168,1024.6l-3.9-3.157,1.451-1.575,2.239,1.811,3.922-4.256,1.665,1.347Z" transform="translate(-1348.681 -1013.117)" fill="#c1c91f"/>
        </g>
        <g id="Grupo_54532" data-name="Grupo 54532" transform="translate(0)">
          <path id="Trazado_101606" data-name="Trazado 101606" d="M1360.034,1023.57H1344.24v-15.794h15.794Zm-13.9-1.9h12v-12h-12Z" transform="translate(-1344.24 -1007.776)" fill="#92aeb8"/>
          <path id="Trazado_101607" data-name="Trazado 101607" d="M1356.168,1024.6l-3.9-3.157,1.451-1.575,2.239,1.811,3.922-4.256,1.665,1.347Z" transform="translate(-1348.681 -1013.117)" fill="#c1c91f"/>
        </g>
      </g>
      <g id="Grupo_54534" data-name="Grupo 54534" transform="translate(1278.592 812.231)">
        <rect id="Rectángulo_5366" data-name="Rectángulo 5366" width="13.743" height="20.635" transform="translate(15.984 10.374)" fill="#fea401"/>
        <rect id="Rectángulo_5367" data-name="Rectángulo 5367" width="13.743" height="14.479" transform="translate(0 16.53)" fill="#92aeb8"/>
        <rect id="Rectángulo_5368" data-name="Rectángulo 5368" width="13.743" height="31.008" transform="translate(31.969)" fill="#dd123c"/>
      </g>
      <path id="Trazado_101608" data-name="Trazado 101608" d="M1479.787,1052.237a13.885,13.885,0,1,0,13.455,14.3A13.884,13.884,0,0,0,1479.787,1052.237Zm9.674,14.186a10.1,10.1,0,1,1-9.789-10.4A10.1,10.1,0,0,1,1489.461,1066.423Z" transform="translate(-132.755 -157.289)" fill="#cee9ee" style="mix-blend-mode: multiply;isolation: isolate"/>
      <g id="Grupo_54535" data-name="Grupo 54535" transform="translate(1329.636 891.854)">
        <path id="Trazado_101609" data-name="Trazado 101609" d="M1475.546,1079.259c-.176,0-.35,0-.527-.008a16.967,16.967,0,1,1,.527.008Zm-.019-32.6a15.636,15.636,0,1,0,.486.007C1475.851,1046.657,1475.688,1046.655,1475.527,1046.655Z" transform="translate(-1458.564 -1045.315)" fill="#cee9ee" style="mix-blend-mode: multiply;isolation: isolate"/>
      </g>
      <path id="Trazado_101610" data-name="Trazado 101610" d="M1485.9,1083.888l-5.382-5.364,2.431-2.144,3.087,3.076,6.569-5.792,2.3,2.287Z" transform="translate(-141.081 -169.153)" fill="#c1c91f"/>
      <path id="Trazado_101611" data-name="Trazado 101611" d="M1293.638,1003.846c-4.208-.538-8.2,2.291-8.747,6.2l-3.832,28.056a.214.214,0,0,1-.426-.023l-.7-24.067V993.172l-19.613,23.289a9.626,9.626,0,0,0-2.143,7.713l6.378,40.079a38.682,38.682,0,0,1-4.805,29.046l-5.469,9.054,13.748-.8,23.594.332,3.5-14.791a62.753,62.753,0,0,0,1.538-18.652c-.525-7.831.2-17.951.6-23.488l2.476-34.174A6.648,6.648,0,0,0,1293.638,1003.846Z" transform="translate(-15.855 -124.599)" fill="#f7cca4"/>
      <g id="Grupo_54537" data-name="Grupo 54537" transform="translate(1271.37 880.225)">
        <g id="Grupo_54536" data-name="Grupo 54536">
          <path id="Trazado_101612" data-name="Trazado 101612" d="M1333.6,1033.255l-1.552-.135a4.305,4.305,0,0,1-3.982-4.346l.142-4.794a4.753,4.753,0,0,1,5.091-4.691l1.868.163a4.593,4.593,0,0,1,4.052,5.489l-.83,4.734A4.461,4.461,0,0,1,1333.6,1033.255Z" transform="translate(-1328.065 -1019.271)" fill="#fde9dc"/>
        </g>
      </g>
      <path id="Trazado_101613" data-name="Trazado 101613" d="M1265.785,1194.893l3.79-12.875,37.053,5.62-4.354,17.486Z" transform="translate(-22.222 -229.128)" fill="#efefef"/>
      <path id="Trazado_101614" data-name="Trazado 101614" d="M1298.839,1221.777l.345-1.371-46.82-12.512-5.274,13.884Z" transform="translate(-11.875 -243.451)" fill="#313131"/>
      <path id="Trazado_101615" data-name="Trazado 101615" d="M1340.54,1207.931a1.755,1.755,0,1,1-1.755-1.755A1.755,1.755,0,0,1,1340.54,1207.931Z" transform="translate(-61.657 -242.5)" fill="#313131"/>
      <g id="Grupo_54540" data-name="Grupo 54540" transform="translate(1292.198 809.226)">
        <path id="Trazado_101616" data-name="Trazado 101616" d="M1572.1,1038.251l1.451-2.661-28.91-29.375-6.545-3.493,9.671,17.764Z" transform="translate(-1465.148 -939.112)" fill="#daa87f"/>
        <rect id="Rectángulo_5369" data-name="Rectángulo 5369" width="19.897" height="7.15" transform="translate(63.791 68.652) rotate(-135)" fill="#191919"/>
        <path id="Trazado_101617" data-name="Trazado 101617" d="M1505.992,1000.115l26,26a6.377,6.377,0,0,0,9.018,0h0a6.377,6.377,0,0,0,0-9.018l-26-26Z" transform="translate(-1447.377 -932.677)" fill="#252525"/>
        <circle id="Elipse_4273" data-name="Elipse 4273" cx="24.476" cy="24.476" r="24.476" transform="translate(0 34.614) rotate(-45)" fill="#a9d8dd" opacity="0.73"/>
        <g id="Grupo_54539" data-name="Grupo 54539" transform="translate(4.171 3.976)">
          <path id="Trazado_101618" data-name="Trazado 101618" d="M1393.051,878.156a30.721,30.721,0,1,0,43.445,0A30.72,30.72,0,0,0,1393.051,878.156Zm4.971,4.971a23.69,23.69,0,1,1,0,33.5A23.69,23.69,0,0,1,1398.022,883.127Z" transform="translate(-1384.053 -869.159)" fill="#252525"/>
          <g id="Grupo_54538" data-name="Grupo 54538" transform="translate(13.409 12.777)">
            <path id="Trazado_101619" data-name="Trazado 101619" d="M1415.666,912.791a1.009,1.009,0,0,0,.427-.647,15.251,15.251,0,0,1,17.88-12.06,1.012,1.012,0,1,0,.386-1.987,17.275,17.275,0,0,0-20.253,13.661,1.013,1.013,0,0,0,1.56,1.033Z" transform="translate(-1414.087 -897.774)" fill="#fff"/>
          </g>
        </g>
      </g>
      <path id="Trazado_101620" data-name="Trazado 101620" d="M1532.69,1020.017c2.492-3.433,7.289-4.4,10.507-2.123l22.958,18.571-17.207-18.977-14.639-14.765,30.4,1.679a9.624,9.624,0,0,1,7.085,3.725l24.816,32.112a38.682,38.682,0,0,0,24.446,16.406l3.6,1.026.174,19.633-11.958,12.706-20.582-11.862a62.759,62.759,0,0,1-14.637-11.663c-5.343-5.75-13.212-12.156-17.518-15.658l-26.584-21.617A6.648,6.648,0,0,1,1532.69,1020.017Z" transform="translate(-169.161 -129.885)" fill="#f7cca4"/>
      <g id="Grupo_54542" data-name="Grupo 54542" transform="translate(1362.932 888.211)">
        <g id="Grupo_54541" data-name="Grupo 54541">
          <path id="Trazado_101621" data-name="Trazado 101621" d="M1545.23,1048.692l.965-1.223a4.305,4.305,0,0,0-.435-5.878l-3.589-3.182a4.753,4.753,0,0,0-6.9.493l-1.162,1.473a4.592,4.592,0,0,0,1.22,6.712l4.016,2.641A4.462,4.462,0,0,0,1545.23,1048.692Z" transform="translate(-1533.137 -1037.156)" fill="#fde9dc"/>
        </g>
      </g>
      <path id="Trazado_101622" data-name="Trazado 101622" d="M1686.86,1110.927l-11.973-6.064-21.3,30.834,15.718,8.814Z" transform="translate(-236.875 -186.422)" fill="#efefef"/>
      <path id="Trazado_101623" data-name="Trazado 101623" d="M1706.914,1168.369l-27.7-14.294,22.975-42.671,4.726,2.119Z" transform="translate(-251.06 -190.042)" fill="#313131"/>
      <path id="Trazado_101624" data-name="Trazado 101624" d="M1672.668,1171.779a1.755,1.755,0,1,0-.075-2.48A1.755,1.755,0,0,0,1672.668,1171.779Z" transform="translate(-247.131 -221.783)" fill="#313131"/>
    </g>
  </g>
</svg>
