<svg xmlns="http://www.w3.org/2000/svg" xmlns:xlink="http://www.w3.org/1999/xlink" width="328.304" height="271.653" viewBox="0 0 328.304 271.653">
  <defs>
    <clipPath id="clip-path">
      <path id="Trazado_103236" data-name="Trazado 103236" d="M499.8,850.045l1.349,6.676s8.511,1.849,9.024,3.8-17.871.616-17.871.616l-1.952-11.093" fill="#31537f"/>
    </clipPath>
    <clipPath id="clip-path-2">
      <path id="Trazado_103239" data-name="Trazado 103239" d="M453.576,850.045l.213,6.676s-8.512,1.849-9.025,3.8,17.872.616,17.872.616l.389-11.093" fill="#31537f"/>
    </clipPath>
    <clipPath id="clip-path-3">
      <path id="Trazado_103244" data-name="Trazado 103244" d="M488.14,771.942s8.767,49.653,13.006,79.364c-9.109,1-11.025.391-11.025.391L473.2,790.992h-7.427c-.547.587-2.222,60.705-2.222,60.705s-7.642,1.132-10.653-.43c0,0-3.437-46.269-4.361-71.359Z" fill="#5d7cbd"/>
    </clipPath>
    <clipPath id="clip-path-4">
      <path id="Trazado_103247" data-name="Trazado 103247" d="M463.914,720.763s9.611.549,12.278,3.126,8.362,20.1,11.948,48.053c-14.316,15.1-39.6,7.966-39.6,7.966s-1.287-50.933.071-53.5C451.209,721.514,463.914,720.763,463.914,720.763Z" fill="#f89000"/>
    </clipPath>
    <clipPath id="clip-path-5">
      <path id="Rectángulo_5782" data-name="Rectángulo 5782" d="M7.384,0H9.3a7.384,7.384,0,0,1,7.384,7.384V98.85a0,0,0,0,1,0,0H0a0,0,0,0,1,0,0V7.384A7.384,7.384,0,0,1,7.384,0Z" transform="translate(529.578 763.654) rotate(105.996)" fill="#d5684e"/>
    </clipPath>
    <clipPath id="clip-path-6">
      <path id="Trazado_103250" data-name="Trazado 103250" d="M434.556,736.413l-15.505,4.235,10.906,11.806Z" fill="#ffe498"/>
    </clipPath>
    <clipPath id="clip-path-7">
      <path id="Trazado_103257" data-name="Trazado 103257" d="M471.055,708.9l-1.888,14.465-7.44,6.333-6.2-6.333V714.04" fill="#fac4ad"/>
    </clipPath>
    <clipPath id="clip-path-8">
      <rect id="Rectángulo_5789" data-name="Rectángulo 5789" width="56.63" height="19.037" transform="translate(294.987 632.021)" fill="#ffc152"/>
    </clipPath>
  </defs>
  <g id="Grupo_55829" data-name="Grupo 55829" transform="translate(-854.696 -4749)">
    <g id="Grupo_55664" data-name="Grupo 55664" transform="translate(653.422 4150.276)">
      <path id="Trazado_103221" data-name="Trazado 103221" d="M314.945,647.332c10.315,1.947,20.823-2.1,29.977-7.243,12.741-7.152,24.112-16.494,36.484-24.267s26.275-14.085,40.885-14.112,29.94,7.488,35.7,20.916c6.106,14.239.439,30.778,3.083,46.043,4.288,24.755,29.375,41.977,33.559,66.75,2.4,14.187-2.649,28.812-10.683,40.747-17.1,25.4-49.031,40.495-79.3,35.885-19.263-2.934-36.823-13.159-51.443-26.039s-26.636-28.4-38.556-43.811" fill="#9bcde0" opacity="0.3"/>
      <path id="Trazado_103222" data-name="Trazado 103222" d="M306.139,825.841A131.285,131.285,0,0,0,316.12,812.3c2.908-4.528,5.576-9.337,6.635-14.614,1.423-7.087-.163-14.414-2.128-21.371-2.254-7.982-5.069-15.925-9.754-22.769s-11.44-12.556-19.477-14.606c-6.542-1.669-13.491-.85-20.105-2.2-12.8-2.619-22.7-13.038-29.131-24.412-3.39-5.992-6.53-12.845-12.762-15.769-7.309-3.43-16.59.363-21.066,7.082s-4.845,15.491-3,23.351,5.66,15.086,9.126,22.378,6.656,14.93,7.087,22.992c.709,13.3-6.155,26.356-4.27,39.538,1.059,7.409,4.848,14.206,9.61,19.98a43.075,43.075,0,0,0,14.294,11.734c8.391,4.016,18.284,4.222,27.265,1.8s17.134-7.319,24.427-13.094" fill="#ffc152" opacity="0.3"/>
      <ellipse id="Elipse_4299" data-name="Elipse 4299" cx="152.102" cy="8.591" rx="152.102" ry="8.591" transform="translate(208.111 853.196)" fill="#161d22" opacity="0.1" style="mix-blend-mode: multiply;isolation: isolate"/>
      <g id="Grupo_55630" data-name="Grupo 55630">
        <circle id="Elipse_4300" data-name="Elipse 4300" cx="4.294" cy="4.294" r="4.294" transform="translate(215.649 668.317)" fill="#d74643"/>
        <path id="Trazado_103223" data-name="Trazado 103223" d="M223.757,627.881a4.1,4.1,0,1,0,4.1-4.095A4.1,4.1,0,0,0,223.757,627.881Z" fill="#164a62"/>
        <path id="Trazado_103224" data-name="Trazado 103224" d="M261.215,607.368a3.183,3.183,0,1,0,4.5,0A3.183,3.183,0,0,0,261.215,607.368Z" fill="#ffc152"/>
        <circle id="Elipse_4301" data-name="Elipse 4301" cx="3.183" cy="3.183" r="3.183" transform="translate(209.283 763.406)" fill="#ffc152"/>
        <path id="Trazado_103225" data-name="Trazado 103225" d="M291.758,601.738a3.014,3.014,0,1,0,3.013-3.014A3.013,3.013,0,0,0,291.758,601.738Z" fill="#ffc152"/>
        <path id="Trazado_103226" data-name="Trazado 103226" d="M502.673,809.131a3.014,3.014,0,1,0,3.014-3.014A3.013,3.013,0,0,0,502.673,809.131Z" fill="#ffc152"/>
        <path id="Trazado_103227" data-name="Trazado 103227" d="M270.015,629.341a1.459,1.459,0,1,0,1.46-1.46A1.46,1.46,0,0,0,270.015,629.341Z" fill="#186f8b"/>
        <circle id="Elipse_4302" data-name="Elipse 4302" cx="1.507" cy="1.507" r="1.507" transform="translate(228.934 598.724)" fill="#186f8b"/>
        <circle id="Elipse_4303" data-name="Elipse 4303" cx="1.507" cy="1.507" r="1.507" transform="translate(201.274 691.729)" fill="#186f8b"/>
        <circle id="Elipse_4304" data-name="Elipse 4304" cx="3.047" cy="3.047" r="3.047" transform="translate(345.817 609.618)" fill="#d5743b"/>
        <circle id="Elipse_4305" data-name="Elipse 4305" cx="2.685" cy="2.685" r="2.685" transform="translate(422.861 645.695)" fill="#186f8b"/>
        <path id="Trazado_103228" data-name="Trazado 103228" d="M422.861,622.092a3.607,3.607,0,1,0,3.608-3.608A3.608,3.608,0,0,0,422.861,622.092Z" fill="#ffc152"/>
        <path id="Trazado_103229" data-name="Trazado 103229" d="M476.111,660.324a3.467,3.467,0,1,0,3.467-3.467A3.467,3.467,0,0,0,476.111,660.324Z" fill="#ffc152"/>
        <path id="Trazado_103230" data-name="Trazado 103230" d="M441.293,649.831a2.068,2.068,0,1,0,2.068-2.068A2.068,2.068,0,0,0,441.293,649.831Z" fill="#164a62"/>
        <path id="Trazado_103231" data-name="Trazado 103231" d="M485.709,793.855a2.067,2.067,0,1,0,2.067-2.068A2.067,2.067,0,0,0,485.709,793.855Z" fill="#164a62"/>
        <path id="Trazado_103232" data-name="Trazado 103232" d="M473.9,626.623a2.837,2.837,0,1,0,2.837-2.837A2.837,2.837,0,0,0,473.9,626.623Z" fill="#d5743b"/>
        <path id="Trazado_103233" data-name="Trazado 103233" d="M503.266,704.379a2.421,2.421,0,1,0,2.421-2.42A2.421,2.421,0,0,0,503.266,704.379Z" fill="#d74643"/>
      </g>
      <g id="Grupo_55647" data-name="Grupo 55647">
        <g id="Grupo_55632" data-name="Grupo 55632">
          <path id="Trazado_103234" data-name="Trazado 103234" d="M499.8,850.045l1.349,6.676s8.511,1.849,9.024,3.8-17.871.616-17.871.616l-1.952-11.093" fill="#31537f"/>
          <g id="Grupo_55631" data-name="Grupo 55631" clip-path="url(#clip-path)">
            <path id="Trazado_103235" data-name="Trazado 103235" d="M502.643,847.071a2.034,2.034,0,0,1,.721,1.843,3.613,3.613,0,0,1-.861,1.853,8.914,8.914,0,0,1-4.316,2.634,17.246,17.246,0,0,1-4.786.794,8.7,8.7,0,0,1-5.717-1.582c-1.568-1.271-2.358-3.646-1.357-5.4a5.808,5.808,0,0,1,2.5-2.1,17.88,17.88,0,0,1,5.658-1.815" fill="#161d22" opacity="0.1" style="mix-blend-mode: multiply;isolation: isolate"/>
          </g>
        </g>
        <g id="Grupo_55634" data-name="Grupo 55634">
          <path id="Trazado_103237" data-name="Trazado 103237" d="M453.576,850.045l.213,6.676s-8.512,1.849-9.025,3.8,17.872.616,17.872.616l.389-11.093" fill="#31537f"/>
          <g id="Grupo_55633" data-name="Grupo 55633" clip-path="url(#clip-path-2)">
            <path id="Trazado_103238" data-name="Trazado 103238" d="M462.651,846.5a8.79,8.79,0,0,1,3.148,3.106,4.789,4.789,0,0,1,.751,2.246,2.527,2.527,0,0,1-.917,2.112,3.01,3.01,0,0,1-1.372.507,23.4,23.4,0,0,1-4.1.314,11.407,11.407,0,0,1-6.642-2.688,7.672,7.672,0,0,1-2.258-8.8" fill="#161d22" opacity="0.1" style="mix-blend-mode: multiply;isolation: isolate"/>
          </g>
        </g>
        <g id="Grupo_55639" data-name="Grupo 55639">
          <path id="Trazado_103240" data-name="Trazado 103240" d="M424.674,685.847s6.617-.15,6.994-1.949-4.13-1.533-4.13-1.533,4.683-7.733,3.9-8.7-3.766,3.858-3.766,3.858,1.183-5.2-.166-5.48-2.271,3.889-2.271,3.889-.542-3.681-1.985-3.514-.341,4.329-.341,4.329-2.743-2.793-3.513-2.051.955,4.441.955,4.441-4.04,2.087-1.856,8.937c1.177-.14,4.554-.664,6.019.106Z" fill="#fac4ad"/>
          <path id="Trazado_103241" data-name="Trazado 103241" d="M456.781,722.606s-28.181-5.449-31.05-35.113c-7.182-3.283-8.7,2.018-8.7,2.018s-.8,42.007,32.916,46.139" fill="#f89000"/>
          <g id="Grupo_55636" data-name="Grupo 55636">
            <path id="Trazado_103242" data-name="Trazado 103242" d="M488.14,771.942s8.767,49.653,13.006,79.364c-9.109,1-11.025.391-11.025.391L473.2,790.992h-7.427c-.547.587-2.222,60.705-2.222,60.705s-7.642,1.132-10.653-.43c0,0-3.437-46.269-4.361-71.359Z" fill="#5d7cbd"/>
            <g id="Grupo_55635" data-name="Grupo 55635" clip-path="url(#clip-path-3)">
              <path id="Trazado_103243" data-name="Trazado 103243" d="M505.7,772.447a63.809,63.809,0,0,1-85.174-6.729c26.657-1.939,54.172-3.494,79.424,5.265" fill="#161d22" opacity="0.1" style="mix-blend-mode: multiply;isolation: isolate"/>
            </g>
          </g>
          <g id="Grupo_55638" data-name="Grupo 55638">
            <path id="Trazado_103245" data-name="Trazado 103245" d="M463.914,720.763s9.611.549,12.278,3.126,8.362,20.1,11.948,48.053c-14.316,15.1-39.6,7.966-39.6,7.966s-1.287-50.933.071-53.5C451.209,721.514,463.914,720.763,463.914,720.763Z" fill="#f89000"/>
            <g id="Grupo_55637" data-name="Grupo 55637" clip-path="url(#clip-path-4)">
              <path id="Trazado_103246" data-name="Trazado 103246" d="M476.486,772.494c-14.857,1.2-27.323-6.341-32.686-10.5-1.053-.817-2.536-.924-3.552-1.787a3.816,3.816,0,0,1-1.455-3.521c.426-2.054,2.841-2.923,4.9-3.317,9.823-1.876,19.949-1.158,29.666.984,4.326.954,24.038,4.085,17.338,11.983C487.813,769.739,480.8,772.146,476.486,772.494Z" fill="#f89000" opacity="0.2" style="mix-blend-mode: multiply;isolation: isolate"/>
            </g>
          </g>
          <path id="Trazado_103248" data-name="Trazado 103248" d="M448.542,779.908" fill="#5d7cbd"/>
        </g>
        <g id="Grupo_55644" data-name="Grupo 55644">
          <g id="Grupo_55641" data-name="Grupo 55641">
            <path id="Rectángulo_5776" data-name="Rectángulo 5776" d="M7.384,0H9.3a7.384,7.384,0,0,1,7.384,7.384V98.85a0,0,0,0,1,0,0H0a0,0,0,0,1,0,0V7.384A7.384,7.384,0,0,1,7.384,0Z" transform="translate(529.578 763.654) rotate(105.996)" fill="#d5684e"/>
            <g id="Grupo_55640" data-name="Grupo 55640" clip-path="url(#clip-path-5)">
              <rect id="Rectángulo_5777" data-name="Rectángulo 5777" width="35.126" height="3.107" transform="translate(449.811 730.232) rotate(105.996)" fill="#fff" opacity="0.43"/>
              <rect id="Rectángulo_5778" data-name="Rectángulo 5778" width="35.126" height="3.107" transform="translate(522.764 751.146) rotate(105.997)" fill="#fff" opacity="0.43"/>
              <rect id="Rectángulo_5779" data-name="Rectángulo 5779" width="35.126" height="25.094" transform="translate(546.419 758.891) rotate(105.996)" fill="#164a62"/>
              <rect id="Rectángulo_5780" data-name="Rectángulo 5780" width="16.855" height="117.033" transform="matrix(-0.276, 0.961, -0.961, -0.276, 532.949, 776.926)" fill="#c23f66" opacity="0.5" style="mix-blend-mode: multiply;isolation: isolate"/>
              <rect id="Rectángulo_5781" data-name="Rectángulo 5781" width="16.855" height="117.033" transform="matrix(-0.276, 0.961, -0.961, -0.276, 539.695, 753.393)" fill="#c23f66" opacity="0.2" style="mix-blend-mode: multiply;isolation: isolate"/>
            </g>
          </g>
          <g id="Grupo_55643" data-name="Grupo 55643">
            <path id="Trazado_103249" data-name="Trazado 103249" d="M434.556,736.413l-15.505,4.235,10.906,11.806Z" fill="#ffe498"/>
            <g id="Grupo_55642" data-name="Grupo 55642" clip-path="url(#clip-path-6)">
              <circle id="Elipse_4306" data-name="Elipse 4306" cx="10.051" cy="10.051" r="10.051" transform="translate(401.509 744.947) rotate(-66.948)" fill="#186f8b"/>
            </g>
          </g>
        </g>
        <path id="Trazado_103251" data-name="Trazado 103251" d="M478.1,761.3s-4.748-.246-6.877.655-3.159,1.431-3.159,1.431l-4.246-1.217s1.025,5.592,6.1,6a26.136,26.136,0,0,0,9.409-1.058Z" fill="#fac4ad"/>
        <path id="Trazado_103252" data-name="Trazado 103252" d="M469.408,721.514s29.986,1.849,32.519,28.325c1.741,18.207-23.649,19.127-23.649,19.127l-1.189-8.07s10.66-4.415,10.66-10.935-11.557-11.342-11.557-11.342Z" fill="#f89000"/>
        <path id="Trazado_103253" data-name="Trazado 103253" d="M463.564,720.326a34.817,34.817,0,0,1,10.429,1.863l-12.388,10.518-9.976-10.924S455.036,720.326,463.564,720.326Z" fill="#f7953c"/>
        <path id="Trazado_103254" data-name="Trazado 103254" d="M470.377,712.9s4.483.339,6.045-1.079c3.153-2.864,5.394-19.29,5.512-22.741s-3.991-8.334-8.759-8.361c-.682-5.077-3.517-3.511-3.517-3.511s1.335-2.133-.342-3.664a35.072,35.072,0,0,0-1.495,3.22s-2.646-2.175-8.645-1.067-9.7-1.767-11.121,1.131-3.747,11.781.134,13.472S472.163,702.59,470.377,712.9Z" fill="#18254b"/>
        <g id="Grupo_55646" data-name="Grupo 55646">
          <path id="Trazado_103255" data-name="Trazado 103255" d="M471.055,708.9l-1.888,14.465-7.44,6.333-6.2-6.333V714.04" fill="#fac4ad"/>
          <g id="Grupo_55645" data-name="Grupo 55645" clip-path="url(#clip-path-7)">
            <path id="Trazado_103256" data-name="Trazado 103256" d="M464.459,701.8a5.134,5.134,0,0,1,4.223,2.9,10.391,10.391,0,0,1,.926,5.234,11.681,11.681,0,0,1-.845,4.238,10.926,10.926,0,0,1-10.172,6.077A6.721,6.721,0,0,1,453,716.325c-.993-2.479-.1-5.345,1.365-7.581a11.786,11.786,0,0,1,7.237-5.319,4.179,4.179,0,0,1,3.72.723" fill="#c23f66" opacity="0.2" style="mix-blend-mode: multiply;isolation: isolate"/>
          </g>
        </g>
        <path id="Trazado_103258" data-name="Trazado 103258" d="M468.294,683.643c4.985,2.132,9.73,20.547,3.521,28.484s-21.083,6.434-26.255.383C441.348,707.583,447.527,674.761,468.294,683.643Z" fill="#fac4ad"/>
        <path id="Trazado_103259" data-name="Trazado 103259" d="M453.539,694.724c.875.418-.69,9.041-.69,9.041-1.181.152-4.858-1.812-4.858-2.582C447.991,701.183,451.876,693.93,453.539,694.724Z" fill="#f1917e"/>
        <path id="Trazado_103260" data-name="Trazado 103260" d="M477.968,702.494a4.052,4.052,0,0,0-2.638-3.163c-1.319-.589-3.389,2.787-4.832,2.71-2.351-.124-4.276-1.276-4.536-2.233-.185-.678-.028-8.645-1.025-9.786-1.7-1.943-4.629-2.048-7.21-2.029s-5.525-.147-7.153-2.149a3.244,3.244,0,0,1-.735-1.6,3.733,3.733,0,0,1,.829-2.61c1.893-2.588,5.417-3.458,8.618-3.28a19.533,19.533,0,0,1,13.557,6.893,22.643,22.643,0,0,1,5.207,14.407" fill="#18254b"/>
        <path id="Trazado_103261" data-name="Trazado 103261" d="M469.647,703.419s-.619-9.628,4.324-8.238,3.774,11.08-1.852,10.894" fill="#fac4ad"/>
        <path id="Trazado_103262" data-name="Trazado 103262" d="M461.682,694.458c.222.488-.414,1.784-1.109,1.678s-4.091-.545-4.431-1.343a1.626,1.626,0,0,1,.719-1.942C457.332,692.687,461.407,693.852,461.682,694.458Z" fill="#18254b"/>
        <path id="Trazado_103263" data-name="Trazado 103263" d="M451.057,691.861c.247.46-.181,1.819-.807,1.791s-3.678-.085-4.061-.841a1.745,1.745,0,0,1,.434-2.01C447.023,690.586,450.751,691.29,451.057,691.861Z" fill="#18254b"/>
        <path id="Trazado_103264" data-name="Trazado 103264" d="M457.274,700.145a1.15,1.15,0,0,1-.8.007,1.129,1.129,0,0,1-.914-.866,2.625,2.625,0,0,1,.282-1.487,2.974,2.974,0,0,1,.411-.691.9.9,0,0,1,1.508-.012C458.2,697.763,458.154,699.751,457.274,700.145Z" fill="#092530"/>
        <path id="Trazado_103265" data-name="Trazado 103265" d="M448.894,698.119a1.15,1.15,0,0,1-.805.007,1.128,1.128,0,0,1-.913-.866,2.617,2.617,0,0,1,.282-1.487,2.952,2.952,0,0,1,.411-.691.9.9,0,0,1,1.508-.012C449.824,695.737,449.774,697.725,448.894,698.119Z" fill="#092530"/>
        <path id="Trazado_103266" data-name="Trazado 103266" d="M471.06,699.364a2.916,2.916,0,0,1,1.544-2.37,1.994,1.994,0,0,1,1.984.037,1.315,1.315,0,0,1,.363,1.818c-.22.274-.581.451-.683.786a1.432,1.432,0,0,0,.22.968,1.838,1.838,0,0,1-.108,1.99,1.212,1.212,0,0,1-1.176.316C471.943,702.565,470.974,700.556,471.06,699.364Z" fill="#f1917e"/>
        <path id="Trazado_103267" data-name="Trazado 103267" d="M473.694,762.051a37.9,37.9,0,0,0-4.978-1.952c-1.009-.13-1.529.773-1.269,1.3s3.09,2.217,3.09,2.217" fill="#fac4ad"/>
      </g>
      <g id="Grupo_55663" data-name="Grupo 55663">
        <g id="Grupo_55652" data-name="Grupo 55652">
          <g id="Grupo_55651" data-name="Grupo 55651">
            <g id="Grupo_55648" data-name="Grupo 55648">
              <rect id="Rectángulo_5783" data-name="Rectángulo 5783" width="164.58" height="219.567" transform="translate(241.012 634.551)" fill="#8ea02a"/>
              <rect id="Rectángulo_5784" data-name="Rectángulo 5784" width="144.435" height="196.689" transform="translate(251.084 649.349)" fill="#161d22" opacity="0.2" style="mix-blend-mode: multiply;isolation: isolate"/>
              <rect id="Rectángulo_5785" data-name="Rectángulo 5785" width="144.435" height="196.689" transform="translate(251.084 645.99)" fill="#fff"/>
              <path id="Trazado_103268" data-name="Trazado 103268" d="M240.289,648.217V633.828h14.389Z" fill="#f89000"/>
              <path id="Trazado_103269" data-name="Trazado 103269" d="M406.315,648.217V633.828H391.926Z" fill="#f89000"/>
              <path id="Trazado_103270" data-name="Trazado 103270" d="M240.289,841.013V855.4h14.389Z" fill="#f89000"/>
              <path id="Trazado_103271" data-name="Trazado 103271" d="M406.315,841.013V855.4H391.926Z" fill="#f89000"/>
            </g>
            <path id="Trazado_103272" data-name="Trazado 103272" d="M323.3,639.96h0c-5.679,0-10.283,2.626-10.283-3.053v-.872A10.282,10.282,0,0,1,323.3,625.753h0a10.282,10.282,0,0,1,10.282,10.282v.872C333.584,642.586,328.98,639.96,323.3,639.96Z" fill="#ffc152"/>
            <rect id="Rectángulo_5786" data-name="Rectángulo 5786" width="53.707" height="4.832" transform="translate(296.448 648.217)" fill="#161d22" opacity="0.2" style="mix-blend-mode: multiply;isolation: isolate"/>
            <g id="Grupo_55650" data-name="Grupo 55650">
              <rect id="Rectángulo_5787" data-name="Rectángulo 5787" width="56.63" height="19.037" transform="translate(294.987 632.021)" fill="#ffc152"/>
              <g id="Grupo_55649" data-name="Grupo 55649" clip-path="url(#clip-path-8)">
                <rect id="Rectángulo_5788" data-name="Rectángulo 5788" width="69.448" height="10.913" transform="translate(289.329 642.48)" fill="#bf162c" opacity="0.2" style="mix-blend-mode: multiply;isolation: isolate"/>
              </g>
            </g>
            <path id="Trazado_103273" data-name="Trazado 103273" d="M325.668,630.339a2.367,2.367,0,1,1-2.366-2.366A2.366,2.366,0,0,1,325.668,630.339Z" fill="#fff"/>
          </g>
        </g>
        <g id="Grupo_55654" data-name="Grupo 55654">
          <g id="Grupo_55653" data-name="Grupo 55653">
            <rect id="Rectángulo_5790" data-name="Rectángulo 5790" width="82.15" height="2.496" transform="translate(274.044 672.173)" fill="#e4a435"/>
            <rect id="Rectángulo_5791" data-name="Rectángulo 5791" width="82.15" height="2.495" transform="translate(274.044 678.167)" fill="#e4a435"/>
            <rect id="Rectángulo_5792" data-name="Rectángulo 5792" width="25.397" height="2.496" transform="translate(274.044 684.16)" fill="#e4a435"/>
          </g>
        </g>
        <g id="Grupo_55656" data-name="Grupo 55656">
          <g id="Grupo_55655" data-name="Grupo 55655">
            <rect id="Rectángulo_5793" data-name="Rectángulo 5793" width="103.471" height="2.496" transform="translate(274.044 710.357)" fill="#b5b4b4"/>
            <rect id="Rectángulo_5794" data-name="Rectángulo 5794" width="103.471" height="2.495" transform="translate(274.044 716.351)" fill="#b5b4b4"/>
            <rect id="Rectángulo_5795" data-name="Rectángulo 5795" width="103.471" height="2.496" transform="translate(274.044 721.731)" fill="#b5b4b4"/>
            <rect id="Rectángulo_5796" data-name="Rectángulo 5796" width="103.471" height="2.495" transform="translate(274.044 727.725)" fill="#b5b4b4"/>
            <rect id="Rectángulo_5797" data-name="Rectángulo 5797" width="103.471" height="2.496" transform="translate(274.044 733.106)" fill="#b5b4b4"/>
            <rect id="Rectángulo_5798" data-name="Rectángulo 5798" width="103.471" height="2.495" transform="translate(274.044 739.099)" fill="#b5b4b4"/>
            <rect id="Rectángulo_5799" data-name="Rectángulo 5799" width="31.988" height="2.496" transform="translate(274.044 745.01)" fill="#b5b4b4"/>
          </g>
        </g>
        <g id="Grupo_55658" data-name="Grupo 55658">
          <g id="Grupo_55657" data-name="Grupo 55657">
            <rect id="Rectángulo_5800" data-name="Rectángulo 5800" width="103.471" height="2.496" transform="translate(274.044 760.365)" fill="#b5b4b4"/>
            <rect id="Rectángulo_5801" data-name="Rectángulo 5801" width="103.471" height="2.495" transform="translate(274.044 766.359)" fill="#b5b4b4"/>
            <rect id="Rectángulo_5802" data-name="Rectángulo 5802" width="103.471" height="2.496" transform="translate(274.044 771.74)" fill="#b5b4b4"/>
            <rect id="Rectángulo_5803" data-name="Rectángulo 5803" width="103.471" height="2.495" transform="translate(274.044 777.733)" fill="#b5b4b4"/>
            <rect id="Rectángulo_5804" data-name="Rectángulo 5804" width="103.471" height="2.496" transform="translate(274.044 783.114)" fill="#b5b4b4"/>
            <rect id="Rectángulo_5805" data-name="Rectángulo 5805" width="103.471" height="2.495" transform="translate(274.044 789.107)" fill="#b5b4b4"/>
          </g>
        </g>
        <g id="Grupo_55660" data-name="Grupo 55660">
          <g id="Grupo_55659" data-name="Grupo 55659">
            <rect id="Rectángulo_5806" data-name="Rectángulo 5806" width="103.471" height="2.496" transform="translate(274.044 818.264)" fill="#b5b4b4"/>
            <rect id="Rectángulo_5807" data-name="Rectángulo 5807" width="103.471" height="2.495" transform="translate(274.044 824.258)" fill="#b5b4b4"/>
          </g>
        </g>
        <rect id="Rectángulo_5808" data-name="Rectángulo 5808" width="106.25" height="6.166" transform="translate(273.958 660.953)" fill="#e4a435"/>
        <g id="Grupo_55661" data-name="Grupo 55661">
          <path id="Trazado_103274" data-name="Trazado 103274" d="M264.3,654.872h6.384V656.3h-3.045v33.021h3.045v1.428H264.3Z" fill="#8d081e"/>
        </g>
        <g id="Grupo_55662" data-name="Grupo 55662">
          <path id="Trazado_103275" data-name="Trazado 103275" d="M389.783,690.749H383.4v-1.428h3.045V656.3H383.4v-1.428h6.383Z" fill="#8d081e"/>
        </g>
      </g>
    </g>
  </g>
</svg>
