<svg xmlns="http://www.w3.org/2000/svg" xmlns:xlink="http://www.w3.org/1999/xlink" width="201" height="214" viewBox="0 0 201 214">
  <defs>
    <clipPath id="clip-path">
      <ellipse id="Elipse_154" data-name="Elipse 154" cx="90.5" cy="91" rx="90.5" ry="91" transform="translate(0.001 -0.054)" fill="#fff" stroke="#707070" stroke-width="1"/>
    </clipPath>
  </defs>
  <g id="Grupo_55828" data-name="Grupo 55828" transform="translate(-848 -2422)">
    <g id="Grupo_55450" data-name="Grupo 55450" transform="translate(857.578 2444.033)">
      <g id="Elipse_157" data-name="Elipse 157" transform="translate(0.422 -0.034)" fill="#fff" stroke="#f7a416" stroke-linejoin="round" stroke-width="10">
        <ellipse cx="90.5" cy="91" rx="90.5" ry="91" stroke="none"/>
        <ellipse cx="90.5" cy="91" rx="95.5" ry="96" fill="none"/>
      </g>
    </g>
    <g id="Grupo_55543" data-name="Grupo 55543" transform="translate(769.201 2266.32)">
      <g id="Grupo_55453" data-name="Grupo 55453" transform="translate(214.207 186.287)">
        <path id="Trazado_102898" data-name="Trazado 102898" d="M186.593,200.225l6.277,8.87c.018-.04.042-.077.059-.117.586-1.332,1.039-2.693,1.532-4.019a.4.4,0,0,1,.013-.218,6.373,6.373,0,0,0,.436-3.4c-.177-.837-.516-1.623-.673-2.468a6.865,6.865,0,0,1,2.187-6.834c.394-.314.891.291.494.606-2.252,1.8-2.406,4.775-1.6,7.365a7.931,7.931,0,0,1,.38,2.064,11.666,11.666,0,0,1,2.323-3.144c.367-.347.861.259.5.607-2.936,2.779-3.5,6.773-5.125,10.3l.011.016a8.041,8.041,0,0,1,2.113-.815c1.852-.432,4.4-.031,5.424-2.031.228-.443.967-.181.737.267-.855,1.657-2.425,2.064-4.162,2.272a10.745,10.745,0,0,0-3.629.99l5.4,7.625c1.918-1.8,5.2-1.248,7.012-9.092.813-3.516,2.366-11.717,3.826-13.56,1.493-1.66,4.315-5.72,2.871-7.683-2.394-3.253-6.6.692-9.161.309-9.3-1.38-14.5,6.337-15.9,9.617A13.848,13.848,0,0,1,186.593,200.225Z" transform="translate(-186.593 -186.533)" fill="#ffd4b3"/>
        <path id="Trazado_102899" data-name="Trazado 102899" d="M205.944,223.185l.484.683a10.743,10.743,0,0,1,3.629-.99c1.737-.208,3.308-.615,4.162-2.272.229-.448-.51-.71-.737-.267-1.029,2-3.572,1.6-5.424,2.031A8.046,8.046,0,0,0,205.944,223.185Z" transform="translate(-199.129 -199.862)" fill="#fff"/>
        <path id="Trazado_102900" data-name="Trazado 102900" d="M212.412,202.444c.157.845.5,1.631.673,2.468a6.373,6.373,0,0,1-.436,3.4.4.4,0,0,0-.013.218c-.493,1.327-.946,2.687-1.532,4.019-.017.04-.041.077-.059.117l.527.745c1.623-3.528,2.188-7.522,5.125-10.3.365-.347-.129-.954-.5-.607a11.666,11.666,0,0,0-2.323,3.144,7.929,7.929,0,0,0-.38-2.064c-.809-2.589-.655-5.565,1.6-7.365.4-.315-.1-.92-.494-.606A6.865,6.865,0,0,0,212.412,202.444Z" transform="translate(-204.769 -190.101)" fill="#fff"/>
      </g>
      <g id="Grupo_55455" data-name="Grupo 55455" transform="translate(161.724 238.706)">
        <path id="Trazado_102904" data-name="Trazado 102904" d="M208.362,324.446c-.2.045-.4.09-.6.136a.386.386,0,0,0-.217-.015,6.369,6.369,0,0,1-3.425.011c-.809-.28-1.547-.714-2.366-.975a6.863,6.863,0,0,0-7.053,1.322c-.359.351.178.92.54.566,2.065-2.011,5.038-1.793,7.507-.669a7.923,7.923,0,0,0,2,.633,11.706,11.706,0,0,0-3.41,1.915c-.39.321.151.887.541.567a14.912,14.912,0,0,1,6.479-2.731v11.821c-4.051.363-10.225.9-11.917,1.923-1.834,1.276-6.213,3.572-7.981,1.895-2.93-2.779,1.506-6.462,1.446-9.053-.215-9.4,8.089-13.6,11.517-14.581,4.314-1.231,6.184-3.61,6.935-5.918Z" transform="translate(-187.463 -311.294)" fill="#ffd4b3"/>
        <path id="Trazado_102905" data-name="Trazado 102905" d="M208.811,332.405a6.37,6.37,0,0,0,3.425-.011.386.386,0,0,1,.217.015c.2-.046.4-.092.6-.136v.761a14.912,14.912,0,0,0-6.479,2.731c-.39.32-.93-.246-.541-.567a11.7,11.7,0,0,1,3.41-1.915,7.923,7.923,0,0,1-2-.633c-2.469-1.125-5.441-1.342-7.507.669-.362.354-.9-.215-.54-.566a6.862,6.862,0,0,1,7.053-1.322C207.264,331.69,208,332.125,208.811,332.405Z" transform="translate(-192.151 -319.121)" fill="#fff"/>
      </g>
      <g id="Grupo_55456" data-name="Grupo 55456" transform="matrix(-0.914, 0.407, -0.407, -0.914, 236.969, 208.851)">
        <path id="Trazado_102906" data-name="Trazado 102906" d="M9.6,48.284c9.344,1,14.233-6.917,15.5-10.25,2.91-7.68,8.971-6.887,11.385-6.3a9.715,9.715,0,0,0,5.016-.6V11.566c-.55.475-1.106.943-1.666,1.392a21.381,21.381,0,0,1-4.842,2.889c-.4.174-.806.327-1.217.47a.381.381,0,0,1-.185.1c-.153.033-.3.073-.447.114l-.222.071c-4.739,1.532-5.056,7.3-2.383,11.056.288.406-.292.932-.586.522a9.571,9.571,0,0,1-1.793-7.353,6.5,6.5,0,0,1,1.852-3.406c-.364.1-.729.2-1.089.315-1.984.609-3.708,2.332-5.216,3.7a18.6,18.6,0,0,0-2.031,2.151c-.005.013-.01.026-.017.039a7.534,7.534,0,0,1-.82,1.119,12.636,12.636,0,0,0-1.181,2.275c-.532,1.354-.929,2.731-1.369,4.078a.385.385,0,0,1,0,.218,6.374,6.374,0,0,0-.3,3.411c.21.829.582,1.6.773,2.439a6.867,6.867,0,0,1-1.91,6.917c-.381.33-.9-.255-.519-.586,2.178-1.889,2.211-4.869,1.3-7.423a7.93,7.93,0,0,1-.462-2.047,11.684,11.684,0,0,1-2.2,3.236c-.353.361-.871-.225-.52-.587,2.822-2.9,3.225-6.911,4.705-10.5a.184.184,0,0,0,.012-.028,8.1,8.1,0,0,1-2.1.914c-1.833.507-4.391.209-5.338,2.248-.209.451-.958.22-.747-.237.788-1.69,2.34-2.16,4.067-2.437a8.544,8.544,0,0,0,5.1-2.3,19.465,19.465,0,0,1,2.29-2.761,25.867,25.867,0,0,1,4.425-3.72,19.029,19.029,0,0,1,5.554-1.913,7.643,7.643,0,0,1,.943-.276,19.985,19.985,0,0,0,4.9-2.512A25.643,25.643,0,0,0,40.8,11.1a8.709,8.709,0,0,1-6.024-.934,8.216,8.216,0,0,1-1.945-1.515,24.818,24.818,0,0,0-2.346-2.74c-2.132-1.652-4.414.394-6.228,1.44-.437.253-.788-.447-.353-.7,1.552-.894,2.948-2.132,4.832-2.117,2.344.018,3.312,2.087,4.681,3.595A7.492,7.492,0,0,0,41.5,10.032V3.475A18.443,18.443,0,0,0,29.745.054C14.931,1.333,16.056,11.829,13.679,17.012c-1.512,3.3-5.661,1.3-7.388,10.454-.669,3.547-1.89,11.8-3.276,13.7C1.59,42.89-1.066,47.06.457,48.962,2.98,52.116,7.021,48.005,9.6,48.284Z" transform="translate(0 0)" fill="#b3deff"/>
        <path id="Trazado_102907" data-name="Trazado 102907" d="M0,3.327A12.654,12.654,0,0,1,4.46.315C4.82.2,5.184.1,5.549,0A6.5,6.5,0,0,0,3.7,3.406a7.688,7.688,0,0,0-.145,1.4c-.18-.057-.369-.119-.585-.19A16.7,16.7,0,0,1,0,3.327Z" transform="translate(24.459 17.417)" fill="#225d6b"/>
        <path id="Trazado_102908" data-name="Trazado 102908" d="M7.6,10.34a25.766,25.766,0,0,1,5.034-.191V0c-.55.475-1.106.943-1.666,1.392A21.383,21.383,0,0,1,6.125,4.282c-.4.174-.806.327-1.217.47a.381.381,0,0,1-.185.1c-.153.033-.3.073-.447.114l-.222.071A5.825,5.825,0,0,0,0,10.909a6.3,6.3,0,0,0,2.242.175C4.029,11.007,5.829,10.583,7.6,10.34Z" transform="translate(28.864 11.566)" fill="#225d6b"/>
        <path id="Trazado_102909" data-name="Trazado 102909" d="M17.278,15.941a7.644,7.644,0,0,1,.943-.276,19.981,19.981,0,0,0,4.9-2.512A25.643,25.643,0,0,0,25.668,11.1a8.709,8.709,0,0,1-6.024-.934A8.217,8.217,0,0,1,17.7,8.648a24.818,24.818,0,0,0-2.346-2.74c-2.132-1.652-4.414.394-6.228,1.44-.437.253-.788-.447-.353-.7,1.552-.894,2.948-2.132,4.832-2.117,2.344.017,3.312,2.087,4.681,3.595a7.492,7.492,0,0,0,8.077,1.905V3.476A18.443,18.443,0,0,0,14.609.054C3.567,1.008,1.381,7.081,0,12.261c2.214,2.291,4.409,4.6,6.814,6.7a15.34,15.34,0,0,0,1.79,1.35,22.885,22.885,0,0,1,3.12-2.458A19.029,19.029,0,0,1,17.278,15.941Z" transform="translate(15.135 0)" fill="#225d6b"/>
        <path id="Trazado_102910" data-name="Trazado 102910" d="M7.816,32.636c-.191-.838-.562-1.61-.773-2.439a6.373,6.373,0,0,1,.3-3.411.385.385,0,0,0,0-.218c.44-1.347.837-2.724,1.369-4.078A12.635,12.635,0,0,1,9.9,20.214a7.534,7.534,0,0,0,.82-1.119c.007-.013.011-.025.017-.039A18.607,18.607,0,0,1,12.764,16.9c1.509-1.373,3.232-3.1,5.216-3.705.36-.11.724-.215,1.088-.315a6.5,6.5,0,0,0-1.852,3.406,9.571,9.571,0,0,0,1.793,7.353c.294.411.874-.115.586-.522-2.673-3.759-2.356-9.524,2.382-11.056L22.2,12c.146-.041.294-.081.447-.114a.381.381,0,0,0,.185-.1c.411-.142.817-.3,1.217-.47a21.381,21.381,0,0,0,4.842-2.889c.56-.449,1.116-.917,1.666-1.392V5.5a7.492,7.492,0,0,1-8.077-1.905C21.112,2.087,20.144.018,17.8,0c-1.885-.015-3.281,1.223-4.832,2.117-.435.252-.084.953.353.7,1.814-1.046,4.1-3.092,6.228-1.44a24.833,24.833,0,0,1,2.346,2.74A8.215,8.215,0,0,0,23.84,5.632a8.709,8.709,0,0,0,6.024.934A25.636,25.636,0,0,1,27.32,8.621a19.984,19.984,0,0,1-4.9,2.512,7.643,7.643,0,0,0-.943.276,19.029,19.029,0,0,0-5.554,1.913,25.862,25.862,0,0,0-4.425,3.72A19.461,19.461,0,0,0,9.206,19.8a8.543,8.543,0,0,1-5.1,2.3c-1.727.277-3.28.747-4.067,2.437-.211.457.538.688.747.237.947-2.039,3.505-1.741,5.338-2.248a8.1,8.1,0,0,0,2.1-.914.184.184,0,0,1-.012.028c-1.48,3.59-1.884,7.605-4.705,10.5-.351.362.167.948.52.587a11.685,11.685,0,0,0,2.2-3.236,7.929,7.929,0,0,0,.462,2.047c.914,2.554.88,5.534-1.3,7.423-.384.331.138.916.519.586A6.867,6.867,0,0,0,7.816,32.636Z" transform="translate(10.939 4.532)" fill="#fff"/>
      </g>
      <g id="Grupo_55457" data-name="Grupo 55457" transform="translate(155.48 202.103)">
        <path id="Trazado_102911" data-name="Trazado 102911" d="M204.252,252.481v9.847c-.631-.288-1.256-.583-1.882-.867a.383.383,0,0,0-.163-.145,6.37,6.37,0,0,1-2.72-2.081c-.47-.715-.789-1.509-1.28-2.216a6.867,6.867,0,0,0-6.4-3.256.392.392,0,0,0,.083.779c2.863-.333,5.086,1.652,6.355,4.049a7.949,7.949,0,0,0,1.2,1.723,11.69,11.69,0,0,0-3.869-.563c-.5.017-.422.795.082.78,3.161-.1,5.831,1.351,8.59,2.625v2.112c-1.511,1.058-2.965,2.881-4.988,2.243-.475-.15-.809.559-.329.711,1.779.56,3.174-.27,4.543-1.357.256-.2.514-.394.775-.577V275.1c-1.665.166-3.858-.207-7.291-2.331-3.07-1.9-9.989-6.566-12.325-6.825-2.231-.109-7.1-.96-7.478-3.367-.627-3.99,5.134-4.2,6.667-6.291,5.562-7.575,14.707-5.842,18.021-4.526A14.129,14.129,0,0,0,204.252,252.481Z" transform="translate(-177.109 -250.596)" fill="#ffd4b3"/>
        <path id="Trazado_102912" data-name="Trazado 102912" d="M218.465,274.927v1.019c-.26.183-.519.374-.775.577-1.369,1.087-2.764,1.917-4.543,1.357-.479-.152-.145-.861.329-.711C215.5,277.808,216.954,275.985,218.465,274.927Z" transform="translate(-191.323 -260.255)" fill="#fff"/>
        <path id="Trazado_102913" data-name="Trazado 102913" d="M207.664,259.078c.49.707.81,1.5,1.28,2.216a6.369,6.369,0,0,0,2.72,2.081.382.382,0,0,1,.163.145c.626.283,1.251.578,1.882.867v.828c-2.759-1.274-5.429-2.726-8.59-2.625-.5.015-.587-.763-.082-.78a11.691,11.691,0,0,1,3.869.563,7.951,7.951,0,0,1-1.2-1.723c-1.269-2.4-3.492-4.383-6.355-4.049a.392.392,0,0,1-.083-.779A6.867,6.867,0,0,1,207.664,259.078Z" transform="translate(-186.566 -252.654)" fill="#fff"/>
      </g>
      <path id="Trazado_102936" data-name="Trazado 102936" d="M202.568,365.128c.01.821-.994,1.5-2.246,1.515s-2.273-.637-2.284-1.458,1-1.5,2.246-1.515S202.557,364.308,202.568,365.128Z" transform="translate(-29.937 -93.379)" fill="#fbda70"/>
      <g id="Grupo_55488" data-name="Grupo 55488" transform="translate(134.824 188.954)">
        <rect id="Rectángulo_5660" data-name="Rectángulo 5660" width="99.931" height="136.851" transform="translate(0 12.886)" fill="#7b4d42"/>
        <rect id="Rectángulo_5661" data-name="Rectángulo 5661" width="99.931" height="136.851" transform="translate(0 12.886)" fill="#0f3871"/>
        <rect id="Rectángulo_5662" data-name="Rectángulo 5662" width="98.071" height="136.851" transform="translate(5.32 11.077)" fill="#aacaf9" style="mix-blend-mode: multiply;isolation: isolate"/>
        <rect id="Rectángulo_5663" data-name="Rectángulo 5663" width="98.071" height="136.851" transform="translate(1.099 12.886)" fill="#b3deff"/>
        <path id="Trazado_102940" data-name="Trazado 102940" d="M243.041,386.706l-91.952-.366V260.9L230,260.165l13.037,12.669Z" transform="translate(-146.124 -241.245)" fill="#0f3871"/>
        <path id="Trazado_102941" data-name="Trazado 102941" d="M246.829,384.02l-94.515-.366-2.563-123.612H228.3l13.4,13.035Z" transform="translate(-145.593 -241.196)" fill="#fff"/>
        <path id="Trazado_102942" data-name="Trazado 102942" d="M193.143,336.545a1.454,1.454,0,0,1-1.5,1.4H172.023a1.453,1.453,0,0,1-1.5-1.4h0a1.453,1.453,0,0,1,1.5-1.4h19.618a1.454,1.454,0,0,1,1.5,1.4Z" transform="translate(-153.838 -271.009)" fill="#5e98ff"/>
        <path id="Trazado_102943" data-name="Trazado 102943" d="M210.643,343.464a.975.975,0,0,1-1.007.94H171.664a.975.975,0,0,1-1.007-.94h0a.975.975,0,0,1,1.007-.939h37.972a.975.975,0,0,1,1.007.939Z" transform="translate(-153.892 -273.939)" fill="#bcbcbc"/>
        <path id="Trazado_102944" data-name="Trazado 102944" d="M210.643,348.927a.974.974,0,0,1-1.007.939H171.664a.975.975,0,0,1-1.007-.939h0a.975.975,0,0,1,1.007-.939h37.972a.974.974,0,0,1,1.007.939Z" transform="translate(-153.892 -276.108)" fill="#bcbcbc"/>
        <path id="Trazado_102945" data-name="Trazado 102945" d="M184.811,354.342a.975.975,0,0,1-1.007.94h-12.14a.975.975,0,0,1-1.007-.94h0a.975.975,0,0,1,1.007-.939H183.8a.975.975,0,0,1,1.007.939Z" transform="translate(-153.892 -278.257)" fill="#bcbcbc"/>
        <path id="Trazado_102946" data-name="Trazado 102946" d="M193.143,367.173a1.454,1.454,0,0,1-1.5,1.4H172.023a1.453,1.453,0,0,1-1.5-1.4h0a1.453,1.453,0,0,1,1.5-1.4h19.618a1.453,1.453,0,0,1,1.5,1.4Z" transform="translate(-153.838 -283.168)" fill="#5e98ff"/>
        <path id="Trazado_102947" data-name="Trazado 102947" d="M210.643,374.092a.975.975,0,0,1-1.007.939H171.664a.975.975,0,0,1-1.007-.939h0a.975.975,0,0,1,1.007-.94h37.972a.975.975,0,0,1,1.007.94Z" transform="translate(-153.892 -286.097)" fill="#bcbcbc"/>
        <path id="Trazado_102948" data-name="Trazado 102948" d="M210.643,379.554a.974.974,0,0,1-1.007.939H171.664a.975.975,0,0,1-1.007-.939h0a.975.975,0,0,1,1.007-.939h37.972a.975.975,0,0,1,1.007.939Z" transform="translate(-153.892 -288.265)" fill="#bcbcbc"/>
        <path id="Trazado_102949" data-name="Trazado 102949" d="M184.811,384.97a.975.975,0,0,1-1.007.939h-12.14a.975.975,0,0,1-1.007-.939h0a.975.975,0,0,1,1.007-.939H183.8a.975.975,0,0,1,1.007.939Z" transform="translate(-153.892 -290.415)" fill="#bcbcbc"/>
        <path id="Trazado_102950" data-name="Trazado 102950" d="M193.143,399.421a1.454,1.454,0,0,1-1.5,1.4H172.023a1.453,1.453,0,0,1-1.5-1.4h0a1.453,1.453,0,0,1,1.5-1.4h19.618a1.454,1.454,0,0,1,1.5,1.4Z" transform="translate(-153.838 -295.969)" fill="#5e98ff"/>
        <path id="Trazado_102951" data-name="Trazado 102951" d="M210.643,406.34a.975.975,0,0,1-1.007.939H171.664a.975.975,0,0,1-1.007-.939h0a.975.975,0,0,1,1.007-.939h37.972a.974.974,0,0,1,1.007.939Z" transform="translate(-153.892 -298.898)" fill="#bcbcbc"/>
        <path id="Trazado_102952" data-name="Trazado 102952" d="M210.643,411.8a.975.975,0,0,1-1.007.939H171.664a.975.975,0,0,1-1.007-.939h0a.975.975,0,0,1,1.007-.939h37.972a.974.974,0,0,1,1.007.939Z" transform="translate(-153.892 -301.067)" fill="#bcbcbc"/>
        <path id="Trazado_102953" data-name="Trazado 102953" d="M184.811,417.218a.975.975,0,0,1-1.007.939h-12.14a.975.975,0,0,1-1.007-.939h0a.975.975,0,0,1,1.007-.938H183.8a.975.975,0,0,1,1.007.938Z" transform="translate(-153.892 -303.217)" fill="#bcbcbc"/>
        <path id="Trazado_102954" data-name="Trazado 102954" d="M293.429,273.051l-11.865,2.941-1.281-15.951Z" transform="translate(-197.41 -241.196)" fill="#d7c4a6" style="mix-blend-mode: multiply;isolation: isolate"/>
        <path id="Trazado_102955" data-name="Trazado 102955" d="M293.31,273.077l-13.553.069.15-13.1Z" transform="translate(-197.201 -241.196)" fill="#5e98ff"/>
        <g id="Grupo_55479" data-name="Grupo 55479" transform="translate(65.385 43.912)">
          <path id="Trazado_102956" data-name="Trazado 102956" d="M251.283,314.485V301.608H264.16v12.877Zm11.07-1.807v-9.262h-9.262v9.262Z" transform="translate(-251.283 -301.608)" fill="#5e98ff"/>
          <path id="Trazado_102957" data-name="Trazado 102957" d="M263.988,314.313H252.117v-11.87h11.871Zm-11.07-.8h10.269V303.243H252.918Z" transform="translate(-251.614 -301.94)" fill="#5e98ff"/>
        </g>
        <g id="Grupo_55480" data-name="Grupo 55480" transform="translate(67.224 46.345)">
          <path id="Trazado_102958" data-name="Trazado 102958" d="M254.332,309.355l1.278-1.278,2.616,2.615,3.9-5.05,1.43,1.106-5.16,6.674Z" transform="translate(-254.332 -305.642)" fill="#5e98ff"/>
          <path id="Trazado_102959" data-name="Trazado 102959" d="M258.82,313.127l-3.307-3.307.566-.566,2.664,2.663,3.946-5.1.634.49Z" transform="translate(-254.801 -306.107)" fill="#5e98ff"/>
        </g>
        <g id="Grupo_55481" data-name="Grupo 55481" transform="translate(65.784 63.41)">
          <path id="Trazado_102960" data-name="Trazado 102960" d="M251.944,346.818V333.941h12.877v12.877Zm11.069-1.807v-9.263h-9.261v9.263Z" transform="translate(-251.944 -333.941)" fill="#5e98ff"/>
          <path id="Trazado_102961" data-name="Trazado 102961" d="M264.649,346.646H252.778V334.775h11.871Zm-11.069-.8h10.268v-10.27H253.579Z" transform="translate(-252.275 -334.272)" fill="#5e98ff"/>
        </g>
        <g id="Grupo_55482" data-name="Grupo 55482" transform="translate(67.622 65.842)">
          <path id="Trazado_102962" data-name="Trazado 102962" d="M254.993,341.687l1.278-1.278,2.616,2.615,3.9-5.05,1.43,1.107-5.16,6.673Z" transform="translate(-254.993 -337.974)" fill="#5e98ff"/>
          <path id="Trazado_102963" data-name="Trazado 102963" d="M259.48,345.459l-3.307-3.307.567-.567,2.664,2.664,3.946-5.1.633.491Z" transform="translate(-255.461 -338.439)" fill="#5e98ff"/>
        </g>
        <g id="Grupo_55483" data-name="Grupo 55483" transform="translate(66.26 82.135)">
          <path id="Trazado_102964" data-name="Trazado 102964" d="M252.734,377.87V364.993h12.878V377.87Zm11.07-1.807V366.8h-9.262v9.263Z" transform="translate(-252.734 -364.993)" fill="#5e98ff"/>
          <path id="Trazado_102965" data-name="Trazado 102965" d="M265.44,377.7H253.569V365.828H265.44Zm-11.069-.8h10.269V366.629H254.37Z" transform="translate(-253.065 -365.324)" fill="#5e98ff"/>
        </g>
        <g id="Grupo_55484" data-name="Grupo 55484" transform="translate(68.099 84.568)">
          <path id="Trazado_102966" data-name="Trazado 102966" d="M255.783,372.739l1.279-1.277,2.616,2.615,3.9-5.049,1.43,1.107-5.159,6.673Z" transform="translate(-255.783 -369.027)" fill="#5e98ff"/>
          <path id="Trazado_102967" data-name="Trazado 102967" d="M256.421,404.875,257.7,403.6l2.616,2.615,3.9-5.049,1.43,1.106-5.159,6.673Z" transform="translate(-256.037 -381.784)" fill="#5e98ff"/>
          <path id="Trazado_102968" data-name="Trazado 102968" d="M260.272,376.512l-3.307-3.309.566-.564,2.664,2.662,3.946-5.1.633.491Z" transform="translate(-256.252 -369.492)" fill="#5e98ff"/>
        </g>
        <g id="Grupo_55485" data-name="Grupo 55485" transform="translate(66.659 101.321)">
          <path id="Trazado_102969" data-name="Trazado 102969" d="M253.4,409.685V396.808h12.877v12.877Zm11.07-1.807v-9.261H255.2v9.261Z" transform="translate(-253.395 -396.808)" fill="#5e98ff"/>
          <path id="Trazado_102970" data-name="Trazado 102970" d="M266.1,409.514H254.229V397.643H266.1Zm-11.07-.8H265.3V398.445H255.03Z" transform="translate(-253.726 -397.14)" fill="#5e98ff"/>
        </g>
        <path id="Trazado_102971" data-name="Trazado 102971" d="M237.55,255.259v5.378l-61.22-.732-1.1-.366,1.1-4.28a7.389,7.389,0,0,1,7.388-7.389l45.345-1.1c4.081,0,8.487,4.406,8.487,8.487Z" transform="translate(-155.708 -235.928)" fill="#b4d0d3" style="mix-blend-mode: multiply;isolation: isolate"/>
        <path id="Trazado_102972" data-name="Trazado 102972" d="M229.063,239.672c-14.442,0-15.034-4.016-15.232-4.727a8.3,8.3,0,0,0-15.962-.061c-.209.729-1.411,4.788-15.25,4.788h0a7.388,7.388,0,0,0-7.388,7.388v5.378h61.221V247.06A7.389,7.389,0,0,0,229.063,239.672Zm-23.221-8.827a3.241,3.241,0,1,1-3.241,3.241A3.241,3.241,0,0,1,205.842,230.845Z" transform="translate(-155.708 -228.828)" fill="#ffd4b3"/>
        <path id="Trazado_102973" data-name="Trazado 102973" d="M249.474,239.634c-14.442,0-15.034-4.016-15.232-4.727a8.3,8.3,0,0,0-7.593-6.044c.022.106.039-.154.05-.046a6.86,6.86,0,0,1,5.738,4.739c.952,2.441,1.687,4.851,5.575,5.857a105.036,105.036,0,0,0,12.59,2.246,3.632,3.632,0,0,1,3.132,3.531c0,5.555.941,7.211-2.563,7.211h5.693v-5.378A7.389,7.389,0,0,0,249.474,239.634Z" transform="translate(-176.119 -228.791)" fill="#ffd4b3"/>
        <path id="Trazado_102974" data-name="Trazado 102974" d="M175.231,263.033v2.961h61.221v-2.961Z" transform="translate(-155.708 -242.384)" fill="#e5a67c" style="mix-blend-mode: multiply;isolation: isolate"/>
        <g id="Grupo_55486" data-name="Grupo 55486" transform="translate(46.893 2.017)">
          <path id="Trazado_102975" data-name="Trazado 102975" d="M223.858,238.617a3.241,3.241,0,1,0-3.241-3.241A3.241,3.241,0,0,0,223.858,238.617Z" transform="translate(-220.617 -232.135)" fill="none"/>
        </g>
        <g id="Grupo_55487" data-name="Grupo 55487" transform="translate(46.996 5.699)" style="mix-blend-mode: multiply;isolation: isolate">
          <path id="Trazado_102976" data-name="Trazado 102976" d="M223.233,238.53a2.312,2.312,0,0,1-2.445.066,3.232,3.232,0,0,0,4.608,2.089,8.151,8.151,0,0,0-.748-1.214,4.138,4.138,0,0,0-.862-.99c-.154-.1-.143-.189-.116-.241A3.016,3.016,0,0,1,223.233,238.53Z" transform="translate(-220.788 -238.241)" fill="none"/>
        </g>
        <path id="Trazado_102977" data-name="Trazado 102977" d="M200.251,240.657c-5.821,3.112-14.789,2.746-14.789,2.746.8,0,10.384.852,15.395-1.458,4.061-1.871,3.966-5.65,2.788-5.65C202.841,236.3,203.114,239.126,200.251,240.657Z" transform="translate(-159.769 -231.77)" fill="#e5a67c" style="mix-blend-mode: multiply;isolation: isolate"/>
        <path id="Trazado_102978" data-name="Trazado 102978" d="M193.143,303.816a1.454,1.454,0,0,1-1.5,1.4H172.023a1.453,1.453,0,0,1-1.5-1.4h0a1.453,1.453,0,0,1,1.5-1.4h19.618a1.454,1.454,0,0,1,1.5,1.4Z" transform="translate(-153.838 -258.017)" fill="#5e98ff"/>
        <path id="Trazado_102979" data-name="Trazado 102979" d="M210.643,310.735a.975.975,0,0,1-1.007.94H171.664a.975.975,0,0,1-1.007-.94h0a.975.975,0,0,1,1.007-.939h37.972a.974.974,0,0,1,1.007.939Z" transform="translate(-153.892 -260.947)" fill="#bcbcbc"/>
        <path id="Trazado_102980" data-name="Trazado 102980" d="M210.643,316.2a.974.974,0,0,1-1.007.939H171.664a.975.975,0,0,1-1.007-.939h0a.975.975,0,0,1,1.007-.939h37.972a.974.974,0,0,1,1.007.939Z" transform="translate(-153.892 -263.115)" fill="#bcbcbc"/>
        <path id="Trazado_102981" data-name="Trazado 102981" d="M184.811,321.613a.975.975,0,0,1-1.007.94h-12.14a.975.975,0,0,1-1.007-.94h0a.975.975,0,0,1,1.007-.939H183.8a.975.975,0,0,1,1.007.939Z" transform="translate(-153.892 -265.265)" fill="#bcbcbc"/>
      </g>
      <path id="Trazado_103043" data-name="Trazado 103043" d="M278.1,173.68a7.808,7.808,0,0,0-1.01-.067C275.865,173.613,276.351,173.638,278.1,173.68Z" transform="translate(-61.048 -17.933)" fill="#aacaf9" style="mix-blend-mode: multiply;isolation: isolate"/>
      <path id="Trazado_103130" data-name="Trazado 103130" d="M156.821,473.135c-2.176,2.659-5.949,4.526-7.806,2.13-1.752-2.261-.373-7.229,1.912-9.733A15,15,0,0,1,163.7,460.9C161.016,464.172,159,470.476,156.821,473.135Z" transform="translate(-14.16 -150.172)" fill="#ffd4b3"/>
      <path id="Trazado_103131" data-name="Trazado 103131" d="M149.016,475.265c-1.752-2.261-.373-7.229,1.912-9.733A15,15,0,0,1,163.7,460.9C152.538,466.324,149.016,475.265,149.016,475.265Z" transform="translate(-14.16 -150.172)" fill="#ffd4b3" style="mix-blend-mode: multiply;isolation: isolate"/>
      <g id="Grupo_55537" data-name="Grupo 55537" transform="translate(139.562 330.268)" style="mix-blend-mode: multiply;isolation: isolate">
        <g id="Grupo_55536" data-name="Grupo 55536" transform="translate(0)">
          <path id="Trazado_103132" data-name="Trazado 103132" d="M150.712,474.563l.347-.6c.109-.195.246-.43.419-.69s.355-.57.584-.882l.352-.5c.124-.172.261-.341.4-.52.27-.365.584-.721.905-1.107.658-.748,1.409-1.525,2.225-2.284a50.424,50.424,0,0,1,4.335-3.521l1.845-1.332s-.723.447-1.877,1.228a37.812,37.812,0,0,0-4.39,3.436,27.773,27.773,0,0,0-2.229,2.331c-.319.4-.629.765-.895,1.143-.135.186-.269.361-.391.538l-.343.516c-.223.323-.4.642-.563.912s-.295.511-.4.712Z" transform="translate(-150.712 -463.128)" fill="#ffd4b3"/>
        </g>
      </g>
      <path id="Trazado_103133" data-name="Trazado 103133" d="M149.7,460.281c-1.838,7.634-6.115,14.542-9.535,10.292-3.229-4.011-3.366-16.426-1.321-23.778,4.813-17.308,15.143-19.494,15.143-19.494C151.723,436.708,151.539,452.645,149.7,460.281Z" transform="translate(-9.9 -136.88)" fill="#ffd4b3"/>
      <path id="Trazado_103134" data-name="Trazado 103134" d="M124.361,485.905c2.112,2.079,5.707,2.886,7.392-.094,1.591-2.814.169-7.477-2.042-9.366-5.2-4.447-12.122-1.019-12.122-1.019C120.192,477.988,122.249,483.826,124.361,485.905Z" transform="translate(-2 -155.484)" fill="#ffd4b3"/>
      <path id="Trazado_103135" data-name="Trazado 103135" d="M131.753,485.811c1.591-2.814.169-7.477-2.042-9.366-5.2-4.447-12.122-1.019-12.122-1.019C128.216,477.72,131.753,485.811,131.753,485.811Z" transform="translate(-2 -155.484)" fill="#ffd4b3" style="mix-blend-mode: multiply;isolation: isolate"/>
      <g id="Grupo_55539" data-name="Grupo 55539" transform="translate(118.032 320.524)" style="mix-blend-mode: multiply;isolation: isolate">
        <g id="Grupo_55538" data-name="Grupo 55538" transform="translate(0)">
          <path id="Trazado_103136" data-name="Trazado 103136" d="M132.654,485.565l-.341-.511c-.107-.167-.242-.367-.411-.582s-.347-.478-.572-.73l-.343-.406c-.121-.139-.254-.271-.387-.414-.264-.294-.567-.565-.879-.865a21.037,21.037,0,0,0-2.149-1.682,32.58,32.58,0,0,0-4.165-2.33l-1.768-.823s.69.246,1.795.708a24.533,24.533,0,0,1,4.214,2.228,18.026,18.026,0,0,1,2.154,1.73c.311.312.611.6.871.9.131.151.262.29.381.435l.335.427c.218.264.393.537.553.766s.29.435.392.61Z" transform="translate(-121.64 -477.221)" fill="#ffd4b3"/>
        </g>
      </g>
      <path id="Trazado_103137" data-name="Trazado 103137" d="M140.166,470.573c-3.229-4.011-3.366-16.426-1.321-23.778,4.813-17.308,15.143-19.494,15.143-19.494C141.3,447.513,140.166,470.573,140.166,470.573Z" transform="translate(-9.9 -136.88)" fill="#ffd4b3"/>
      <path id="Trazado_103138" data-name="Trazado 103138" d="M140.166,470.573c-3.229-4.011-3.366-16.426-1.321-23.778,4.813-17.308,15.143-19.494,15.143-19.494C141.3,447.513,140.166,470.573,140.166,470.573Z" transform="translate(-9.9 -136.88)" fill="#ffd4b3" style="mix-blend-mode: multiply;isolation: isolate"/>
      <g id="Grupo_55541" data-name="Grupo 55541" transform="translate(130.559 295.188)" style="mix-blend-mode: multiply;isolation: isolate">
        <g id="Grupo_55540" data-name="Grupo 55540" transform="translate(0)">
          <path id="Trazado_103139" data-name="Trazado 103139" d="M142.414,469.455s.08-.578.223-1.623c.068-.525.157-1.161.283-1.881s.245-1.559.427-2.439q.128-.666.27-1.394c.1-.481.212-.964.323-1.473.215-1.029.491-2.067.765-3.179.58-2.179,1.269-4.49,2.053-6.8,1.579-4.609,3.192-8.4,4.368-11.112,1.19-2.685,1.925-4.347,1.925-4.347s-.784,1.529-2.008,4.128a107.694,107.694,0,0,0-4.475,10.954c-.79,2.332-1.474,4.689-2.039,6.917-.267,1.138-.533,2.2-.737,3.254-.106.522-.215,1.018-.306,1.51s-.171.972-.251,1.427c-.169.9-.277,1.756-.387,2.492s-.19,1.383-.247,1.918Z" transform="translate(-142.414 -435.206)" fill="#ffd4b3"/>
        </g>
      </g>
      <path id="Trazado_103140" data-name="Trazado 103140" d="M146.875,499.458c-.086-3.266-.344-5.994-4.83-6.794a7.958,7.958,0,0,0-4.8.885c-4.05-3.528-6.595-6.078-10.867-6.078-4.958,0-6.86,4.321-6.86,9.278a8.976,8.976,0,0,0,.417,2.709Z" transform="translate(-2.767 -160.766)" fill="#0086ff"/>
    </g>
  </g>
</svg>
