<svg xmlns="http://www.w3.org/2000/svg" width="357.307" height="245.401" viewBox="0 0 357.307 245.401">
  <g id="Grupo_55830" data-name="Grupo 55830" transform="translate(-869.693 -5523.599)">
    <g id="Grupo_55761" data-name="Grupo 55761" transform="translate(515.028 -201.401)">
      <path id="Trazado_103386" data-name="Trazado 103386" d="M231.013,63.616H294.3a8.382,8.382,0,0,1,8.359,8.358v58.962a.933.933,0,0,1-1.592.66l-14.243-14.243H231.013a8.384,8.384,0,0,1-8.359-8.359V71.974A8.383,8.383,0,0,1,231.013,63.616Z" transform="translate(218.669 5667.001)" fill="#d3ebfa" fill-rule="evenodd"/>
      <path id="Trazado_103387" data-name="Trazado 103387" d="M128.386,282.444s-29.634-37.053,4.938-69.141c0,0-31.045-36.273-11.289-77.428s57.856-37.668,88.2-29.3,69.851,4.185,100.19-28.6,65.619-25.81,79.025-10.464,16.933,46.736,2.116,78.126-6.35,51.618,6.35,66.965,14.111,58.063-16.229,69.838Zm8.924,13.127s-31.666-19.978-23.985-54.477c0,0,.225-.884-.511-1.026s-16.47,26.4,5.515,50.688Z" transform="translate(266.341 5670.326)" fill="#badb4c" fill-rule="evenodd" opacity="0.18"/>
      <g id="Grupo_55736" data-name="Grupo 55736" transform="translate(482.232 5872.044)">
        <path id="Trazado_103388" data-name="Trazado 103388" d="M383.928,288.983c38.3-3.61,31.159,35.968,6.463,60.919-4.526,4.573-11.744,10.83-20.625,18.231H292.882C322.628,326.382,357.626,291.464,383.928,288.983Z" transform="translate(-292.882 -288.753)" fill="#d0dda2" fill-rule="evenodd" opacity="0.37"/>
        <path id="Trazado_103389" data-name="Trazado 103389" d="M339.04,377.939a685.3,685.3,0,0,1,72.06-62.514,1.548,1.548,0,1,1,1.83,2.5A681.919,681.919,0,0,0,343.4,377.939Z" transform="translate(-310.044 -298.558)" fill="#d0dda2" fill-rule="evenodd"/>
      </g>
      <g id="Grupo_55737" data-name="Grupo 55737" transform="translate(502.373 5781.234)">
        <path id="Trazado_103390" data-name="Trazado 103390" d="M369.073,145.063c15.718-4.951,16.28,12.27,8.175,24.938-7.685,12.012-41.422,49.3-49.061,68.476l-4.141-2.206C326.283,207.655,348.95,151.4,369.073,145.063Z" transform="translate(-324.046 -144.192)" fill="#d0dda2" fill-rule="evenodd"/>
        <path id="Trazado_103391" data-name="Trazado 103391" d="M326.47,241.06c9.633-41.853,49.056-85.8,49.189-85.951a.664.664,0,1,1,.991.883c-.133.149-39.6,44.147-48.983,85.706Z" transform="translate(-324.947 -148.168)" fill="#d0dda2" fill-rule="evenodd"/>
      </g>
      <g id="Grupo_55738" data-name="Grupo 55738" transform="translate(500.392 5807.917)">
        <path id="Trazado_103392" data-name="Trazado 103392" d="M376.7,186.835c15.578-1.981,13.191,14.264,3.444,24.772-8.076,8.708-38.091,32.157-52.475,49.07l-6.6-2.489C330.705,230.949,358.312,189.173,376.7,186.835Z" transform="translate(-321.07 -186.67)" fill="#d0dda2" fill-rule="evenodd"/>
        <path id="Trazado_103393" data-name="Trazado 103393" d="M324.908,263.055c18.085-34.935,57.383-65.5,57.525-65.608a.632.632,0,0,1,.78,1c-.141.111-39.187,30.474-57.133,65.055Z" transform="translate(-322.497 -190.627)" fill="#d0dda2" fill-rule="evenodd"/>
      </g>
      <path id="Trazado_103394" data-name="Trazado 103394" d="M88.3,415.118H386.617c1.956,0,3.558,1.9,3.558,4.216h0c0,2.319-1.6,4.217-3.558,4.217h-12a2.19,2.19,0,0,0-1.977,2.342h0a2.19,2.19,0,0,0,1.977,2.344H379a2.738,2.738,0,0,1,2.471,2.928h0A2.737,2.737,0,0,1,379,434.094H96.309a2.737,2.737,0,0,1-2.471-2.929h0a2.737,2.737,0,0,1,2.471-2.928h3.459a2.19,2.19,0,0,0,1.976-2.344h0a2.189,2.189,0,0,0-1.976-2.342H88.3c-1.957,0-3.558-1.9-3.558-4.217h0c0-2.319,1.6-4.216,3.558-4.216Zm1.853,18.976a2.627,2.627,0,0,0,2.372-2.811v-.234a2.627,2.627,0,0,0-2.372-2.811h0a2.627,2.627,0,0,0-2.372,2.811v.234a2.627,2.627,0,0,0,2.372,2.811Z" transform="translate(288.27 5536.307)" fill="#95af3d" fill-rule="evenodd"/>
      <path id="Trazado_103395" data-name="Trazado 103395" d="M595.559,249.574Zm3.456-13.158a6.65,6.65,0,1,1-1.946,4.7,6.63,6.63,0,0,1,1.946-4.7Zm1.436-6.588a11.685,11.685,0,0,0-2.605,1.109,11.842,11.842,0,0,0-2.286,1.723.409.409,0,0,1-.487.06l-3.088-1.783-.017-.01a.772.772,0,0,0-1.03.291l-.013.021L588.753,235a.771.771,0,0,0,.281,1.047l.021.013,3.063,1.769a.408.408,0,0,1,.193.45h0a11.69,11.69,0,0,0-.258,1.4,11.956,11.956,0,0,0,0,2.864,11.646,11.646,0,0,0,.259,1.4.41.41,0,0,1-.216.464l-3.062,1.768h0a.771.771,0,0,0-.281,1.047l2.185,3.785h0a.77.77,0,0,0,1.045.281l.024-.012,3.067-1.771a.409.409,0,0,1,.485.059,11.8,11.8,0,0,0,2.286,1.723,11.639,11.639,0,0,0,2.623,1.114.409.409,0,0,1,.3.393v3.564a.77.77,0,0,0,.764.765H605.9a.768.768,0,0,0,.764-.765V252.8a.41.41,0,0,1,.315-.4,11.713,11.713,0,0,0,4.89-2.832.408.408,0,0,1,.507-.046l3.068,1.771a.771.771,0,0,0,1.046-.281l.013-.021,2.173-3.766h0a.772.772,0,0,0-.279-1.045l-3.086-1.782a.41.41,0,0,1-.194-.451h0a11.658,11.658,0,0,0,.258-1.4,11.948,11.948,0,0,0,0-2.864,11.7,11.7,0,0,0-.258-1.4.408.408,0,0,1,.216-.464l3.064-1.769a.772.772,0,0,0,.279-1.045l-.012-.023-2.174-3.764h0a.771.771,0,0,0-1.045-.282h0l-3.089,1.783a.408.408,0,0,1-.5-.068,11.735,11.735,0,0,0-4.9-2.829.41.41,0,0,1-.3-.393v-3.564a.766.766,0,0,0-.764-.764H601.53a.768.768,0,0,0-.764.764v3.564A.409.409,0,0,1,600.451,229.827Z" transform="translate(-165.69 5523.629)" fill="#badb4c" fill-rule="evenodd" opacity="0.34"/>
      <g id="Grupo_55742" data-name="Grupo 55742" transform="translate(445.343 5727.394)">
        <path id="Trazado_103397" data-name="Trazado 103397" d="M237.747,58.484h63.291a8.383,8.383,0,0,1,8.359,8.359V125.8a.933.933,0,0,1-1.593.66l-14.243-14.243H237.747a8.383,8.383,0,0,1-8.358-8.359V66.843A8.383,8.383,0,0,1,237.747,58.484Z" transform="translate(-229.389 -58.484)" fill="#f7a416" fill-rule="evenodd"/>
        <g id="Grupo_55741" data-name="Grupo 55741" transform="translate(12.305 6.844)">
          <path id="Trazado_103398" data-name="Trazado 103398" d="M251.7,108.052H284.53a2.727,2.727,0,0,0,2.719-2.719V80.406a2.728,2.728,0,0,0-2.719-2.72H283.2V76.421a.75.75,0,0,0-.749-.748h-9.92a.751.751,0,0,0-.749.748v1.265H251.7a2.728,2.728,0,0,0-2.72,2.72v24.926A2.728,2.728,0,0,0,251.7,108.052Z" transform="translate(-248.977 -71.719)" fill="#f9b532" fill-rule="evenodd"/>
          <rect id="Rectángulo_5875" data-name="Rectángulo 5875" width="25.179" height="25.607" rx="3.527" transform="translate(2.669 10.726)" fill="#fff"/>
          <path id="Trazado_103399" data-name="Trazado 103399" d="M257.473,109.916h30.315a4.79,4.79,0,0,0,3.931-2.719l9.556-21.452c.667-1.5-.013-2.719-1.508-2.719h-1.593l.6-1.346c.243-.546,0-.993-.55-.993H287.158a1.75,1.75,0,0,0-1.435.993l-.6,1.346H269.452a4.791,4.791,0,0,0-3.931,2.719L255.965,107.2C255.3,108.693,255.978,109.916,257.473,109.916Z" transform="translate(-251.48 -73.583)" fill="#fcc749" fill-rule="evenodd"/>
          <g id="Grupo_55740" data-name="Grupo 55740" transform="translate(18.278 12.73)">
            <g id="Grupo_55739" data-name="Grupo 55739">
              <path id="Trazado_103400" data-name="Trazado 103400" d="M281.167,92.737a10.561,10.561,0,1,1-3.093,7.468,10.527,10.527,0,0,1,3.093-7.468Zm7.467-1.581a9.048,9.048,0,1,0,6.4,2.65A9.023,9.023,0,0,0,288.634,91.157Z" transform="translate(-278.074 -89.644)" fill="#170839" fill-rule="evenodd"/>
              <path id="Trazado_103401" data-name="Trazado 103401" d="M304.939,117.579a.756.756,0,1,1,1.07-1.069l2.5,2.5a.756.756,0,0,1-1.069,1.069Z" transform="translate(-287.98 -99.551)" fill="#170839" fill-rule="evenodd"/>
              <path id="Trazado_103402" data-name="Trazado 103402" d="M308.95,122.659a1.512,1.512,0,0,1,2.139-2.139l8.056,8.056a1.512,1.512,0,0,1-2.139,2.139Z" transform="translate(-289.389 -100.959)" fill="#170839" fill-rule="evenodd"/>
            </g>
            <path id="Trazado_103403" data-name="Trazado 103403" d="M295.144,97.643a.5.5,0,1,1,.707-.707,8.359,8.359,0,0,1,2.452,5.926h0a8.4,8.4,0,0,1-.327,2.32.5.5,0,1,1-.961-.273,7.393,7.393,0,0,0,.288-2.047h0a7.346,7.346,0,0,0-2.164-5.219Zm.994,9.207a.5.5,0,1,1,.839.538,8.3,8.3,0,0,1-.525.727,8.6,8.6,0,0,1-.6.671.5.5,0,1,1-.707-.705,7.22,7.22,0,0,0,.994-1.231Zm-11.431,1.231a.5.5,0,1,1-.707.705,8.364,8.364,0,0,1-2.454-5.924,8.4,8.4,0,0,1,.561-3.013.5.5,0,0,1,.928.356,7.361,7.361,0,0,0-.367,1.3,7.451,7.451,0,0,0,.437,4.184,7.359,7.359,0,0,0,1.6,2.389Zm-.775-9.532a.5.5,0,0,1-.808-.582c.133-.185.273-.363.418-.533l.023-.026c.151-.175.3-.334.435-.472a.5.5,0,0,1,.707.707c-.148.147-.276.285-.386.411l-.022.028Q284.1,98.315,283.932,98.549Z" transform="translate(-279.365 -92.301)" fill="#fff" fill-rule="evenodd"/>
          </g>
          <path id="Trazado_103404" data-name="Trazado 103404" d="M303.422,69.379h23.87a.556.556,0,0,1,.554.553h0a.556.556,0,0,1-.554.554h-23.87a.556.556,0,0,1-.554-.554h0A.556.556,0,0,1,303.422,69.379Z" transform="translate(-269.015 -69.379)" fill="#efeef8" fill-rule="evenodd"/>
          <path id="Trazado_103405" data-name="Trazado 103405" d="M303.422,74.91h23.87a.556.556,0,0,1,.554.554h0a.556.556,0,0,1-.554.553h-23.87a.556.556,0,0,1-.554-.553h0A.556.556,0,0,1,303.422,74.91Z" transform="translate(-269.015 -71.436)" fill="#efeef8" fill-rule="evenodd"/>
          <path id="Trazado_103406" data-name="Trazado 103406" d="M334.246,81h4.507a.556.556,0,0,1,.554.554h0a.556.556,0,0,1-.554.554h-4.507a.555.555,0,0,1-.553-.554h0A.555.555,0,0,1,334.246,81Z" transform="translate(-280.476 -73.701)" fill="#efeef8" fill-rule="evenodd"/>
          <path id="Trazado_103407" data-name="Trazado 103407" d="M334.246,87.255h4.507a.556.556,0,0,1,.554.554h0a.556.556,0,0,1-.554.554h-4.507a.555.555,0,0,1-.553-.554h0A.555.555,0,0,1,334.246,87.255Z" transform="translate(-280.476 -76.026)" fill="#efeef8" fill-rule="evenodd"/>
          <path id="Trazado_103408" data-name="Trazado 103408" d="M334.246,93.508h4.507a.556.556,0,0,1,.554.554h0a.556.556,0,0,1-.554.553h-4.507a.555.555,0,0,1-.553-.553h0A.555.555,0,0,1,334.246,93.508Z" transform="translate(-280.476 -78.351)" fill="#efeef8" fill-rule="evenodd"/>
          <path id="Trazado_103409" data-name="Trazado 103409" d="M334.246,99.761h4.507a.556.556,0,0,1,.554.554h0a.556.556,0,0,1-.554.553h-4.507a.555.555,0,0,1-.553-.553h0A.555.555,0,0,1,334.246,99.761Z" transform="translate(-280.476 -80.676)" fill="#efeef8" fill-rule="evenodd"/>
          <path id="Trazado_103410" data-name="Trazado 103410" d="M334.246,106.014h4.507a.555.555,0,0,1,.554.553h0a.555.555,0,0,1-.554.553h-4.507a.555.555,0,0,1-.553-.553h0A.555.555,0,0,1,334.246,106.014Z" transform="translate(-280.476 -83)" fill="#efeef8" fill-rule="evenodd"/>
          <path id="Trazado_103411" data-name="Trazado 103411" d="M334.246,112.266h4.507a.556.556,0,0,1,.554.554h0a.556.556,0,0,1-.554.554h-4.507a.555.555,0,0,1-.553-.554h0A.555.555,0,0,1,334.246,112.266Z" transform="translate(-280.476 -85.325)" fill="#efeef8" fill-rule="evenodd"/>
          <path id="Rectángulo_5876" data-name="Rectángulo 5876" d="M.554,0H11.986a.554.554,0,0,1,.554.554v0a.554.554,0,0,1-.554.554H.554A.554.554,0,0,1,0,.554v0A.554.554,0,0,1,.554,0Z" transform="translate(46.292 30.869)" fill="#efeef8"/>
          <path id="Trazado_103412" data-name="Trazado 103412" d="M325.026,112.266H328.4a.556.556,0,0,1,.554.554h0a.556.556,0,0,1-.554.554h-3.375a.556.556,0,0,1-.554-.554h0A.556.556,0,0,1,325.026,112.266Z" transform="translate(-277.047 -85.325)" fill="#efeef8" fill-rule="evenodd"/>
          <path id="Trazado_103413" data-name="Trazado 103413" d="M327.432,106.014h1.7a.555.555,0,0,1,.554.553h0a.555.555,0,0,1-.554.553h-1.7a.555.555,0,0,1-.553-.553h0A.555.555,0,0,1,327.432,106.014Z" transform="translate(-277.942 -83)" fill="#efeef8" fill-rule="evenodd"/>
          <path id="Trazado_103414" data-name="Trazado 103414" d="M329.318,99.761h1.244a.556.556,0,0,1,.555.554h0a.556.556,0,0,1-.555.553h-1.244a.555.555,0,0,1-.554-.553h0A.555.555,0,0,1,329.318,99.761Z" transform="translate(-278.643 -80.676)" fill="#efeef8" fill-rule="evenodd"/>
        </g>
      </g>
      <g id="Grupo_55743" data-name="Grupo 55743" transform="translate(460.605 5795.821)">
        <rect id="Rectángulo_5877" data-name="Rectángulo 5877" width="4.45" height="4.45" rx="1.416" transform="translate(0 0)" fill="#80bbe7"/>
        <path id="Rectángulo_5878" data-name="Rectángulo 5878" d="M1.416,0H3.034A1.415,1.415,0,0,1,4.449,1.415V3.034A1.416,1.416,0,0,1,3.033,4.45H1.415A1.415,1.415,0,0,1,0,3.035V1.416A1.416,1.416,0,0,1,1.416,0Z" transform="translate(9.122 0)" fill="#fff"/>
        <rect id="Rectángulo_5879" data-name="Rectángulo 5879" width="4.45" height="4.45" rx="1.416" transform="translate(18.243 0)" fill="#80bbe7"/>
        <path id="Rectángulo_5880" data-name="Rectángulo 5880" d="M1.416,0H3.035A1.415,1.415,0,0,1,4.45,1.415V3.034A1.416,1.416,0,0,1,3.033,4.45H1.415A1.415,1.415,0,0,1,0,3.035V1.416A1.416,1.416,0,0,1,1.416,0Z" transform="translate(27.365 0)" fill="#80bbe7"/>
      </g>
      <path id="Trazado_103415" data-name="Trazado 103415" d="M138.547,103.877c-.337,0-.61-.391-.61-.872s.273-.871.61-.871H167.13c.337,0,.61.391.61.871s-.273.872-.61.872Zm-3.875-1.743c.337,0,.611.391.611.871s-.273.872-.611.872h-2.381c-.337,0-.61-.391-.61-.872s.273-.871.61-.871Z" transform="translate(257.043 5652.68)" fill="#badb4c" fill-rule="evenodd" opacity="0.34"/>
      <path id="Trazado_103416" data-name="Trazado 103416" d="M194.8,156.906a.368.368,0,1,1,.736,0v1.658a.368.368,0,1,1-.736,0v-1.658Zm-2.513,1.347a.369.369,0,0,1,.521-.521l1.172,1.172a.369.369,0,1,1-.521.521l-1.172-1.172Zm-.825,2.728a.368.368,0,0,1,0-.737h1.658a.368.368,0,0,1,0,.737Zm1.346,2.513a.369.369,0,0,1-.521-.521l1.172-1.173a.369.369,0,0,1,.521.522l-1.172,1.172Zm2.728.825a.368.368,0,1,1-.736,0V162.66a.368.368,0,1,1,.736,0v1.658Zm2.513-1.346a.369.369,0,0,1-.521.521l-1.172-1.172a.369.369,0,0,1,.521-.522l1.172,1.173Zm.825-2.728a.368.368,0,1,1,0,.737h-1.658a.368.368,0,0,1,0-.737Zm-1.346-2.513a.369.369,0,0,1,.521.521l-1.172,1.172a.369.369,0,0,1-.521-.521Z" transform="translate(232.095 5632.451)" fill="#80bbe7" fill-rule="evenodd"/>
      <path id="Trazado_103417" data-name="Trazado 103417" d="M540.364,86.45a.368.368,0,0,1,.737,0v1.658a.368.368,0,1,1-.737,0V86.45ZM537.852,87.8a.368.368,0,0,1,.521-.521l1.173,1.173a.369.369,0,0,1-.522.521L537.852,87.8Zm-.825,2.729a.369.369,0,0,1,0-.737h1.658a.369.369,0,1,1,0,.737Zm1.346,2.512a.368.368,0,0,1-.521-.521l1.172-1.173a.369.369,0,0,1,.522.522l-1.173,1.172Zm2.728.825a.368.368,0,0,1-.737,0V92.2a.368.368,0,0,1,.737,0v1.658Zm2.513-1.346a.368.368,0,0,1-.521.521l-1.173-1.172a.369.369,0,0,1,.522-.522l1.172,1.173Zm.825-2.729a.369.369,0,1,1,0,.737H542.78a.369.369,0,1,1,0-.737Zm-1.346-2.513a.369.369,0,0,1,.521.521l-1.172,1.173a.369.369,0,0,1-.522-.521Z" transform="translate(94.922 5658.648)" fill="#80bbe7" fill-rule="evenodd"/>
      <path id="Trazado_103418" data-name="Trazado 103418" d="M585.254,354.515a.369.369,0,0,1,.737,0v1.658a.369.369,0,1,1-.737,0v-1.658Zm-2.513,1.347a.369.369,0,1,1,.522-.522l1.172,1.173a.368.368,0,1,1-.521.521l-1.173-1.172Zm-.824,2.728a.369.369,0,1,1,0-.737h1.657a.369.369,0,1,1,0,.737Zm1.346,2.513a.369.369,0,0,1-.522-.522l1.173-1.172a.368.368,0,0,1,.521.521l-1.172,1.173Zm2.729.824a.369.369,0,1,1-.737,0v-1.658a.369.369,0,1,1,.737,0v1.658Zm2.512-1.346a.369.369,0,1,1-.521.522l-1.172-1.173a.369.369,0,0,1,.521-.521l1.172,1.172Zm.825-2.728a.369.369,0,0,1,0,.737h-1.658a.369.369,0,1,1,0-.737Zm-1.347-2.513a.369.369,0,1,1,.521.522l-1.172,1.172a.368.368,0,0,1-.521-.521Z" transform="translate(75.22 5558.977)" fill="#80bbe7" fill-rule="evenodd"/>
      <path id="Trazado_103419" data-name="Trazado 103419" d="M81.169,261.318a.369.369,0,1,1,.737,0v1.658a.369.369,0,0,1-.737,0v-1.658Zm-2.513,1.346a.369.369,0,1,1,.521-.522l1.172,1.172a.368.368,0,0,1-.521.521l-1.173-1.172Zm-.825,2.728a.368.368,0,1,1,0-.737H79.49a.368.368,0,1,1,0,.737Zm1.346,2.513a.369.369,0,0,1-.521-.522l1.173-1.172a.368.368,0,1,1,.521.521L79.178,267.9Zm2.729.825a.369.369,0,0,1-.737,0v-1.658a.369.369,0,0,1,.737,0v1.658Zm2.512-1.347a.369.369,0,0,1-.521.522l-1.173-1.173a.368.368,0,0,1,.521-.521l1.173,1.172Zm.825-2.728a.368.368,0,1,1,0,.737H83.585a.368.368,0,0,1,0-.737ZM83.9,262.143a.369.369,0,1,1,.521.522l-1.173,1.172a.369.369,0,0,1-.521-.521Z" transform="translate(277.202 5593.629)" fill="#badb4c" fill-rule="evenodd" opacity="0.34"/>
      <path id="Trazado_103420" data-name="Trazado 103420" d="M660.159,316.625a.368.368,0,0,1,.737,0v1.658a.368.368,0,1,1-.737,0v-1.658Zm-2.513,1.346a.369.369,0,0,1,.521-.521l1.173,1.172a.369.369,0,0,1-.521.522l-1.173-1.173Zm-.825,2.728a.369.369,0,1,1,0-.737h1.659a.369.369,0,0,1,0,.737Zm1.346,2.513a.369.369,0,0,1-.521-.521l1.173-1.172a.368.368,0,0,1,.521.521l-1.173,1.173Zm2.728.825a.368.368,0,0,1-.737,0v-1.658a.368.368,0,1,1,.737,0v1.658Zm2.513-1.346a.368.368,0,0,1-.521.521l-1.173-1.173a.368.368,0,0,1,.521-.521l1.172,1.172Zm.826-2.729a.369.369,0,0,1,0,.737h-1.659a.369.369,0,0,1,0-.737Zm-1.346-2.512a.368.368,0,0,1,.521.521l-1.172,1.173a.369.369,0,0,1-.521-.522Z" transform="translate(47.37 5573.065)" fill="#badb4c" fill-rule="evenodd" opacity="0.34"/>
      <g id="Grupo_55745" data-name="Grupo 55745" transform="translate(529.45 5727.464)">
        <path id="Trazado_103422" data-name="Trazado 103422" d="M411.912,225.664c-3.882,3.537-4.488,3.956-4.488,3.956s-2.564,4.868-1.577,4.863a2.75,2.75,0,0,0,1.773-.894s.961,1.226,1.825.715a12.163,12.163,0,0,1,1.319-.7s.991.983,1.808.343,4.719-4.853,4.719-4.853l5.157-3.382-2.056-1.853Z" transform="translate(-385.308 -120.043)" fill="#e98daf" fill-rule="evenodd"/>
        <path id="Trazado_103423" data-name="Trazado 103423" d="M508.868,391.006c-.078.545-.714,3.284-.7,3.353.112.807.31,2.424.31,2.424a7.01,7.01,0,0,1-3.044,2.08c-1.464.264-8.114.56-8.2.2s1.662-3.234,1.662-3.234a7.657,7.657,0,0,0,2.141-5.247C501.288,386.913,508.868,391.006,508.868,391.006Z" transform="translate(-419.369 -181.465)" fill="#f3c6d4" fill-rule="evenodd"/>
        <path id="Trazado_103424" data-name="Trazado 103424" d="M499.933,399.552l.815-.292a5.639,5.639,0,0,0,4.167.18,4.982,4.982,0,0,0,2.951-2.1.438.438,0,0,1,.363-.264h.547a1.172,1.172,0,0,1,1.072.689,13.084,13.084,0,0,1,.06,6.233c-.713,2.01-1.712,1.746-1.712,1.746s-3.967-1.17-6.643-.227-5.127,1.927-5.127,1.927S496.555,402.12,499.933,399.552Z" transform="translate(-419.072 -184.449)" fill="#0e0226" fill-rule="evenodd"/>
        <path id="Trazado_103425" data-name="Trazado 103425" d="M473.078,406.846l-.295-.866v-1.052c0-.394.165-1.579,1.309-1.579h4.385c1.016,0,6.514-2.795,10.738-6.232a.58.58,0,0,1,.741-.094c.443.255,1.79,1.332,1.927,1.444a.87.87,0,0,1,.074.737c-.082.16-3.992,7.9-3.992,7.9S476.454,408.618,473.078,406.846Z" transform="translate(-410.28 -184.394)" fill="#1a0f44" fill-rule="evenodd"/>
        <path id="Trazado_103426" data-name="Trazado 103426" d="M472.63,410.133a.725.725,0,0,0-.259.454v.843a1.653,1.653,0,0,0,1.643,1.074h12.17a10.391,10.391,0,0,0,4.345-.947,25.137,25.137,0,0,1,3.135-1.148s.29-.1.29.4v.967c0,.242-.148.9.845.9h5.921c.451,0,.967-.257.967-1.179v-2.372c0-.574-.349-1.027-.722-1.027h-4.552a12.7,12.7,0,0,0-5.8,1.586,15.538,15.538,0,0,1-7.017,1.451h-6.809C475.581,411.135,473.44,410.863,472.63,410.133Z" transform="translate(-410.127 -188.547)" fill="#0e0226" fill-rule="evenodd"/>
        <path id="Trazado_103427" data-name="Trazado 103427" d="M549.958,391.006c-.079.545-.714,3.284-.7,3.353.112.807.31,2.424.31,2.424a7.01,7.01,0,0,1-3.044,2.08c-1.465.264-8.114.56-8.2.2s1.663-3.234,1.663-3.234a7.657,7.657,0,0,0,2.141-5.247C542.379,386.913,549.958,391.006,549.958,391.006Z" transform="translate(-434.647 -181.465)" fill="#f3c6d4" fill-rule="evenodd"/>
        <path id="Trazado_103428" data-name="Trazado 103428" d="M541.024,399.552l.813-.292a5.641,5.641,0,0,0,4.167.18,4.98,4.98,0,0,0,2.951-2.1.439.439,0,0,1,.363-.264h.548a1.172,1.172,0,0,1,1.072.689A13.072,13.072,0,0,1,551,404c-.712,2.01-1.712,1.746-1.712,1.746s-3.966-1.17-6.642-.227-5.127,1.927-5.127,1.927S537.647,402.12,541.024,399.552Z" transform="translate(-434.35 -184.449)" fill="#0e0226" fill-rule="evenodd"/>
        <path id="Trazado_103429" data-name="Trazado 103429" d="M514.168,406.846l-.295-.866v-1.052c0-.394.165-1.579,1.309-1.579h4.386c1.016,0,6.514-2.795,10.738-6.232a.58.58,0,0,1,.741-.094c.444.255,1.79,1.332,1.927,1.444a.87.87,0,0,1,.072.737c-.08.16-3.99,7.9-3.99,7.9S517.545,408.618,514.168,406.846Z" transform="translate(-425.558 -184.394)" fill="#1a0f44" fill-rule="evenodd"/>
        <path id="Trazado_103430" data-name="Trazado 103430" d="M513.72,410.133a.725.725,0,0,0-.257.454v.843a1.65,1.65,0,0,0,1.643,1.074h12.17a10.4,10.4,0,0,0,4.346-.947,25.182,25.182,0,0,1,3.134-1.148s.29-.1.29.4v.967c0,.242-.147.9.845.9h5.921c.451,0,.967-.257.967-1.179v-2.372c0-.574-.348-1.027-.723-1.027H537.5a12.7,12.7,0,0,0-5.8,1.586,15.541,15.541,0,0,1-7.016,1.451h-6.811C516.672,411.135,514.532,410.863,513.72,410.133Z" transform="translate(-425.406 -188.547)" fill="#0e0226" fill-rule="evenodd"/>
        <path id="Trazado_103431" data-name="Trazado 103431" d="M440.933,128.9s-2.743,4.6-1.021,15.07,13.6,51.2,5.532,72.458a1.922,1.922,0,0,0,.888,2.26c1.387.8,20.979,4.2,35.3-1.9S470.8,132.006,440.933,128.9Z" transform="translate(-397.847 -84.737)" fill="#1b7fc2" fill-rule="evenodd"/>
        <path id="Trazado_103432" data-name="Trazado 103432" d="M495.818,311.1s3.209,1.948,8.637.771a2.865,2.865,0,0,0,1.69-1.945c.307-1.435,10.45-86.8,11.678-101.96s-8.031-24.41-22.216-34.138-2.313-1.515-3.413-2.138a129.371,129.371,0,0,1-7.647,21.4l-.031,6.418a5.278,5.278,0,0,0,.323,1.271c4.323,17.182,4.834,30.892,5.483,48.176.026.5-.254-12.974.059,1.51s3.594,56.134,3.8,57.772S495.1,310.95,495.818,311.1Z" transform="translate(-414.643 -99.662)" fill="#170839" fill-rule="evenodd"/>
        <path id="Trazado_103433" data-name="Trazado 103433" d="M445.466,142.633l4.1,6.653s17.374,29.844,19.781,34.1,12.7,3.647,12.7,3.647L460.058,123.1A95.817,95.817,0,0,0,449.4,121.95c-2.98.063-4.893,4.623-4.893,4.623Z" transform="translate(-399.766 -82.151)" fill="#170839" fill-rule="evenodd"/>
        <path id="Trazado_103434" data-name="Trazado 103434" d="M440.933,128.9s-2.743,4.6-1.021,15.07c1.331,8.089,8.725,34.258,8.293,55.542h0c3.784-38.741-3.188-63.25-5.622-70.357C442.037,129.051,441.486,128.959,440.933,128.9Z" transform="translate(-397.847 -84.737)" fill="#428fcd" fill-rule="evenodd"/>
        <path id="Trazado_103435" data-name="Trazado 103435" d="M523.669,310.554s2.981,1.667,8.408.489a2.863,2.863,0,0,0,1.689-1.945c.307-1.435,4.367-30.058,5.595-45.213s11.529-72.014-15.662-90.663-33.053,13.527-33.053,13.527,25.368,10.678,25.982,39.145,5.2,80.153,5.4,81.792S522.951,310.4,523.669,310.554Z" transform="translate(-416.922 -99.054)" fill="#221758" fill-rule="evenodd"/>
        <path id="Trazado_103436" data-name="Trazado 103436" d="M540.5,325.972a15.727,15.727,0,0,0,6.175-.21,2.863,2.863,0,0,0,1.689-1.945c.307-1.434,4.367-30.058,5.595-45.213.933-11.5,7.082-47-1.88-71.611-.122.086-14.12,9.9-22.176,23.655a44.471,44.471,0,0,1,1.322,9.966c.1,4.8.322,10.269.61,16.044,3.456-3.709,8.048-8.7,10.379-11.5,4.029-4.834,8.561-3.122,10.172-.805s-4.533,60.629-5.338,68.082C546.48,317.681,542.693,323.176,540.5,325.972Z" transform="translate(-431.518 -113.772)" fill="#22134f" fill-rule="evenodd"/>
        <path id="Trazado_103437" data-name="Trazado 103437" d="M417.142,97.017c.041,0,.161.5.661,1.341l-2.469,2.6a21.954,21.954,0,0,0,1.535,1.706,5.331,5.331,0,0,0-2.7,1.957s-2.65,8.163-1.88,8.955l-.084.1c-4.771,5.634-7.7,3.768-8.3,3.263s-3.528-3.193-3.844-3.255-1.448,1.275-2.211.628a79.75,79.75,0,0,1-8.505-11.548c-4.035-6.37-1.758-13.706-1.758-13.706,9.837-7.986,18.009,7.053,19,4.529s3.811-2.757,5.375.043C412.184,94.019,417.084,96.6,417.142,97.017Z" transform="translate(-378.366 -69.043)" fill="#f3c6d4" fill-rule="evenodd"/>
        <path id="Trazado_103438" data-name="Trazado 103438" d="M417.142,97.141c.042,0,.161.5.661,1.341l-2.469,2.6a21.935,21.935,0,0,0,1.535,1.706,6.273,6.273,0,0,0-.8.338,2.01,2.01,0,0,0-.25-.967c-.67-.773-2.007-2.432-2.007-2.432a1.486,1.486,0,0,1-2.222-1.194c-.353-2.064-1.939-4.079-3.6-3.752s-.707,2.49-.707,2.49l3.931,5.667-.655,6.748s-6.143,1.108-4.883-1.509-1.966-4.635-5.692-8.864-5.791-3.777-6.749-3.123c-.6.408-3.368,2.267-5.37,3.608a18.152,18.152,0,0,1-.8-7.791,48.7,48.7,0,0,1,8.419-4.979c6.027,1.325,10.4,8.484,11.107,6.681.989-2.523,3.811-2.757,5.375.043C412.183,94.142,417.084,96.722,417.142,97.141Z" transform="translate(-378.366 -69.167)" fill="#e98daf" fill-rule="evenodd"/>
        <path id="Trazado_103439" data-name="Trazado 103439" d="M433.179,103.113s1.915.127,3.374.19,2.658,8.574,2.658,8.574l-2.486,3.78-.58.88-1.881,2.861-.178-.883s-1.969-1.526-3.21.192-4.345-2.883-4.345-2.883S425.966,105.736,433.179,103.113Z" transform="translate(-393.079 -75.148)" fill="#f3c6d4" fill-rule="evenodd"/>
        <path id="Trazado_103440" data-name="Trazado 103440" d="M434.658,103.113s1.915.127,3.374.19,2.658,8.575,2.658,8.575l-2.486,3.779-.58.88-1.881,2.862-.178-.883s-1.969-1.526-3.21.192a.91.91,0,0,1-1.195.276l.852-3.544s.671-6.529,0-7.3c-.408-.471-1.063-1.27-1.513-1.823A8.656,8.656,0,0,1,434.658,103.113Z" transform="translate(-394.558 -75.148)" fill="#e98daf" fill-rule="evenodd"/>
        <path id="Trazado_103441" data-name="Trazado 103441" d="M398.088,86.54s-4.5,2.194-8.049-4.55c0,0-4.6,4.878-7.6,6.1a1.84,1.84,0,0,1-.186.063l.186-.063a6.779,6.779,0,0,1-2.687-.574A9.592,9.592,0,0,1,374.27,82.7c-2.618-5.237.5-7.906,3.324-7.553,0,0,4.23-9.216,6.6-11.935s7.906-1.561,7.906-1.561-.806-2.368.151-2.921,6.142.471,8.157,6.48c0,0,4.029-.658,6.147,1.394s6.81,19.866,6.834,19.96c.1,1.137-.349,2.282-1.494,2.323a5.849,5.849,0,0,1-4.954-2.314s-1.49-5.317-4.11-4.513c0,0-2.227.021-1.184,3.763a11.641,11.641,0,0,0,2.138,2.7,21.3,21.3,0,0,1,6.976,8.828c2.354,5.5-2.619,8.974-3.985,10.586s-3.658,2.868-5.3,1.472-5.363-4.542-5.928-5.019-.694-1-.557-1.155c0,0,2.4-2.544,4.218-4.292s3.241-2.883,3.242-4.882-.047-3.575-1.881-5.62A8.737,8.737,0,0,0,398.088,86.54Z" transform="translate(-373.286 -58.596)" fill="#170839" fill-rule="evenodd"/>
        <path id="Trazado_103442" data-name="Trazado 103442" d="M390.039,81.99s-4.6,4.878-7.6,6.1a1.84,1.84,0,0,1-.186.063l.186-.063a6.779,6.779,0,0,1-2.687-.574A9.592,9.592,0,0,1,374.27,82.7c-2.618-5.237.5-7.906,3.324-7.553,0,0,4.23-9.216,6.6-11.935s7.906-1.561,7.906-1.561-.806-2.368.151-2.921,6.142.471,8.157,6.48C400.4,65.207,400.42,71.21,390.039,81.99Z" transform="translate(-373.286 -58.596)" fill="#201049" fill-rule="evenodd"/>
        <path id="Trazado_103443" data-name="Trazado 103443" d="M373.715,82c-1.52-4.369,1.305-6.566,3.88-6.244,0,0,16.316,3.842,18.533-15.523a9,9,0,0,1,.751.5C397.094,68.743,394.7,83.568,373.715,82Z" transform="translate(-373.286 -59.203)" fill="#22185a" fill-rule="evenodd"/>
        <path id="Trazado_103444" data-name="Trazado 103444" d="M402.71,117.141h0a1.046,1.046,0,0,1,1.47.122l.878,1.038a1.046,1.046,0,0,1-.122,1.47h0a1.045,1.045,0,0,1-1.469-.123l-.879-1.039A1.046,1.046,0,0,1,402.71,117.141Z" transform="translate(-384.089 -80.273)" fill="#170839" fill-rule="evenodd"/>
        <path id="Trazado_103445" data-name="Trazado 103445" d="M407.66,121.371a1.541,1.541,0,1,1-.182,2.172A1.543,1.543,0,0,1,407.66,121.371Z" transform="translate(-385.864 -81.801)" fill="#ed7792" fill-rule="evenodd"/>
        <path id="Trazado_103446" data-name="Trazado 103446" d="M401.535,113.667a.316.316,0,1,0-.137-.616,3.919,3.919,0,0,0-2.757,2.257.316.316,0,0,0,.595.216A3.273,3.273,0,0,1,401.535,113.667Z" transform="translate(-382.706 -78.84)" fill="#170839" fill-rule="evenodd"/>
        <path id="Trazado_103447" data-name="Trazado 103447" d="M442.348,216.328s-13.292,4.959-14.683,5.63-2.916-4.868-3.045-5.77.822-1.959,2.625-2.991,11.821-6.839,11.821-6.839Z" transform="translate(-392.368 -113.537)" fill="#fff" fill-rule="evenodd"/>
        <path id="Trazado_103448" data-name="Trazado 103448" d="M445.384,194.641c-4.862,1.826-13.289,5.009-14.488,5.587-1.7.819-3.561-5.943-3.719-7.045s1.005-2.392,3.207-3.652c1.244-.713,5.7-3.29,9.331-5.394a10.243,10.243,0,0,0,3.732-7.229c.487-4.973,2.2-27.79,2.2-27.79l13.318,5.923,2.363,3.483s-4.993,21.6-6.953,26.624S449.694,193.018,445.384,194.641Z" transform="translate(-393.318 -92.253)" fill="#170839" fill-rule="evenodd"/>
        <path id="Trazado_103450" data-name="Trazado 103450" d="M531.816,180.123l-1.985,6.648s-4.23.205-15.2-21.8c0,0-4.365-8.478-16.966-11.069l5.612-7.987s23.953,4.231,23.828,6.274S531.816,180.123,531.816,180.123Z" transform="translate(-419.532 -91.062)" fill="#1b7fc2" fill-rule="evenodd"/>
        <path id="Trazado_103451" data-name="Trazado 103451" d="M462.432,169.173l7.906-5.309a2.091,2.091,0,0,1,2.625.334l13.817,15.269a1.475,1.475,0,0,1-.265,2.275l-7.906,5.308a2.09,2.09,0,0,1-2.626-.334l-13.817-15.268A1.473,1.473,0,0,1,462.432,169.173Z" transform="translate(-406.177 -97.618)" fill="#170839" fill-rule="evenodd"/>
        <path id="Trazado_103452" data-name="Trazado 103452" d="M460.6,170.4l7.906-5.309a2.087,2.087,0,0,1,2.624.334l13.818,15.269a1.474,1.474,0,0,1-.264,2.274l-7.906,5.309a2.092,2.092,0,0,1-2.626-.334l-13.816-15.268A1.473,1.473,0,0,1,460.6,170.4Z" transform="translate(-405.498 -98.074)" fill="#221758" fill-rule="evenodd"/>
        <path id="Trazado_103453" data-name="Trazado 103453" d="M462.736,176.169l1.273-.855a.337.337,0,0,1,.423.054l3.42,3.778a.237.237,0,0,1-.042.366l-1.273.854a.336.336,0,0,1-.423-.053l-3.422-3.778A.238.238,0,0,1,462.736,176.169Z" transform="translate(-406.504 -101.975)" fill="#674f9b" fill-rule="evenodd"/>
        <path id="Trazado_103454" data-name="Trazado 103454" d="M464.333,176.63a.84.84,0,0,1,1.082.152.637.637,0,0,1-.129.966.84.84,0,0,1-1.081-.153A.637.637,0,0,1,464.333,176.63Z" transform="translate(-407.029 -102.434)" fill="#d3ebfa" fill-rule="evenodd"/>
        <path id="Trazado_103455" data-name="Trazado 103455" d="M466.415,178.962a.839.839,0,0,1,1.082.152.637.637,0,0,1-.13.966.839.839,0,0,1-1.081-.152A.637.637,0,0,1,466.415,178.962Z" transform="translate(-407.803 -103.301)" fill="#d3ebfa" fill-rule="evenodd"/>
        <path id="Trazado_103456" data-name="Trazado 103456" d="M466.818,179.382a.476.476,0,0,1,.614.087.361.361,0,0,1-.074.547.476.476,0,0,1-.613-.086A.361.361,0,0,1,466.818,179.382Z" transform="translate(-408.001 -103.478)" fill="#fff" fill-rule="evenodd"/>
        <path id="Trazado_103457" data-name="Trazado 103457" d="M464.7,177.015a.506.506,0,0,1,.651.092.384.384,0,0,1-.078.582.506.506,0,0,1-.651-.092A.384.384,0,0,1,464.7,177.015Z" transform="translate(-407.211 -102.597)" fill="#fff" fill-rule="evenodd"/>
        <path id="Trazado_103458" data-name="Trazado 103458" d="M468.471,181.217a.505.505,0,0,1,.651.092.383.383,0,0,1-.078.581.506.506,0,0,1-.651-.092A.384.384,0,0,1,468.471,181.217Z" transform="translate(-408.611 -104.159)" fill="#d3ebfa" fill-rule="evenodd"/>
        <path id="Trazado_103459" data-name="Trazado 103459" d="M444.822,94.123c-.16.093-3.444.944-4,1.192s-.727,1.418-.849,3.411-1.741,16.769-1.819,17.611a1.344,1.344,0,0,0,.954,1.6c.729.249,9.136,3.276,9.136,3.276Z" transform="translate(-397.402 -71.806)" fill="#170839" fill-rule="evenodd"/>
        <path id="Trazado_103460" data-name="Trazado 103460" d="M512.636,160.393s-12.705,8.419-14.166,9.2,2.388,5.608,3.09,6.291,2.222.522,4.258-.393,13.409-5.955,13.409-5.955Z" transform="translate(-419.709 -96.446)" fill="#fff" fill-rule="evenodd"/>
        <path id="Trazado_103461" data-name="Trazado 103461" d="M519.024,152.551S502.41,163.562,500.5,164.589s3.124,7.335,4.041,8.227,2.906.683,5.569-.513,17.538-7.788,17.538-7.788Z" transform="translate(-420.425 -93.53)" fill="#221758" fill-rule="evenodd"/>
        <path id="Trazado_103462" data-name="Trazado 103462" d="M466.138,131.181a110.76,110.76,0,0,0,17.142,2.456c9.3.567,28.613,1.847,29.809,32.7,0,0,.145.162.643-.013s13.946-12.1,15.835-17.834-9.034-26.814-15.023-29.539-17.14-4.943-29.32-17.176-28.94-10.767-28.94-10.767l-3.645,13.5S454.3,127.69,466.138,131.181Z" transform="translate(-402.79 -70.626)" fill="#428fcd" fill-rule="evenodd"/>
        <path id="Trazado_103463" data-name="Trazado 103463" d="M521.117,155.286a47.491,47.491,0,0,1,3.39,17.017s.145.162.643-.013,13.946-12.1,15.835-17.834c.756-2.295-.542-7.051-2.754-12.1-.009,3.7-.494,7.789-2.342,9.829-2.591,2.861-10.146,3.191-14.772,3.1Zm5.84-29.78a6.242,6.242,0,0,0-1-.589c-5.991-2.724-17.14-4.943-29.32-17.176-.253-.253-.508-.5-.763-.741.09.2,7.864,17.814-11.562,21.719,0,0-1.258.252-.906,1.31S519.123,120.518,526.957,125.506Z" transform="translate(-414.208 -76.593)" fill="#3388c9" fill-rule="evenodd"/>
        <path id="Trazado_103464" data-name="Trazado 103464" d="M457.821,90.98c-.452.016-.7.037-.7.037l-2.227,8.246,3.232,22.543,2.837,1.168s-.471-3.157-.219-3.384,6.194-3.147,6.95-3.551a1.075,1.075,0,0,0,.6-1.133C467.718,113.7,459.609,95.085,457.821,90.98Z" transform="translate(-403.629 -70.637)" fill="#1b7fc2" fill-rule="evenodd"/>
        <path id="Trazado_103465" data-name="Trazado 103465" d="M448.305,89.876a1.857,1.857,0,0,0-1,1.2c-.233.883.1,19.345.182,21.4s8.365,12.565,10.422,15a10.648,10.648,0,0,0,6.214,3.251.12.12,0,0,0,.109-.1c.011-.1-3.229-1.434-4.214-2.93s-2.7-7.91-2.9-8.845c0,0,5.7-2.743,6.677-3.3s1.139-1.008.767-1.646-9.628-22.541-10.3-23.351S451.179,89.539,448.305,89.876Z" transform="translate(-400.779 -70.168)" fill="#d3ebfa" fill-rule="evenodd"/>
        <path id="Trazado_103466" data-name="Trazado 103466" d="M401.162,62.953a.285.285,0,1,1-.329.466,11.11,11.11,0,0,0-8.143-1.313.284.284,0,1,1-.1-.56A11.722,11.722,0,0,1,401.162,62.953Z" transform="translate(-380.375 -59.605)" fill="#201049" fill-rule="evenodd"/>
        <path id="Trazado_103467" data-name="Trazado 103467" d="M382.319,101.8a.285.285,0,0,1,.253.511c-.016.008-5.348,2.739-8.7-3.5a.285.285,0,1,1,.5-.269C377.462,104.289,382.306,101.808,382.319,101.8Z" transform="translate(-373.49 -73.393)" fill="#201049" fill-rule="evenodd"/>
        <path id="Trazado_103468" data-name="Trazado 103468" d="M489.236,174.088c-.84-.3-2.589-1.251-3.052-1.483-.521-.26-4.882-1.237-4.882-1.237l2.343,2.6s-7.161,3.125-8.723,4.361-.585,1.822.782,1.822h1.366s-.261,2.344,1.5,2.408a9.339,9.339,0,0,0,1.886,0s.651,1.953,2.084,1.758a19.245,19.245,0,0,0,6.769-2.408,10.3,10.3,0,0,0,3.079-2.2C491.444,178.646,488.941,175.367,489.236,174.088Z" transform="translate(-410.778 -100.527)" fill="#f2bbc9" fill-rule="evenodd"/>
        <path id="Trazado_103469" data-name="Trazado 103469" d="M489.236,175.474c-.238-.084-.547-.221-.879-.378-.149,2.579,1.851,4.629-1.332,6.33-3.5,1.873-5.8,1.39-9.789-2.417-.185-.126-.364-.245-.542-.36a13.487,13.487,0,0,0-1.771,1.071c-1.562,1.236-.585,1.822.782,1.822h1.366s-.261,2.344,1.5,2.408a9.337,9.337,0,0,0,1.886,0s.651,1.953,2.084,1.758a19.245,19.245,0,0,0,6.769-2.408,10.3,10.3,0,0,0,3.079-2.2C491.444,180.032,488.941,176.753,489.236,175.474Z" transform="translate(-410.778 -101.913)" fill="#e98daf" fill-rule="evenodd"/>
      </g>
      <g id="Grupo_55754" data-name="Grupo 55754" transform="translate(411.829 5810.108)">
        <path id="Trazado_103470" data-name="Trazado 103470" d="M274.111,190.156H183.647c-4.507,0-8.195,3.084-8.195,6.852V331.473H282.305V197.008C282.305,193.239,278.618,190.156,274.111,190.156Z" transform="translate(-175.452 -190.156)" fill="#3889c9" fill-rule="evenodd"/>
        <path id="Trazado_103471" data-name="Trazado 103471" d="M307.229,190.156H231.442c-3.776,0-6.865,2.583-6.865,5.74V331.473H314.1V195.9C314.1,192.739,311.006,190.156,307.229,190.156Z" transform="translate(-193.717 -190.156)" fill="#80bbe7" fill-rule="evenodd"/>
        <path id="Trazado_103472" data-name="Trazado 103472" d="M310.4,195.785H234.615a1.4,1.4,0,0,0-1.5,1.258V333.566h78.8V197.043A1.4,1.4,0,0,0,310.4,195.785Z" transform="translate(-196.891 -192.249)" fill="#fff" fill-rule="evenodd"/>
        <path id="Trazado_103473" data-name="Trazado 103473" d="M278.345,195.784h20.663a1.633,1.633,0,0,1,1.753,1.466v0a1.633,1.633,0,0,1-1.753,1.465H278.345a1.633,1.633,0,0,1-1.753-1.465v0A1.633,1.633,0,0,1,278.345,195.784Z" transform="translate(-213.058 -192.249)" fill="#221758" fill-rule="evenodd"/>
        <path id="Trazado_103474" data-name="Trazado 103474" d="M234.615,195.785H310.4a1.4,1.4,0,0,1,1.505,1.258v.207h-78.8v-.207A1.4,1.4,0,0,1,234.615,195.785Z" transform="translate(-196.891 -192.249)" fill="#221758" fill-rule="evenodd"/>
        <path id="Trazado_103475" data-name="Trazado 103475" d="M278.345,361.947h20.663a1.633,1.633,0,0,1,1.753,1.466h0a1.633,1.633,0,0,1-1.753,1.466H278.345a1.633,1.633,0,0,1-1.753-1.466h0A1.633,1.633,0,0,1,278.345,361.947Z" transform="translate(-213.058 -254.031)" fill="#221758" fill-rule="evenodd"/>
        <path id="Trazado_103476" data-name="Trazado 103476" d="M234.615,361.947H310.4a1.4,1.4,0,0,1,1.505,1.258v.209h-78.8V363.2A1.4,1.4,0,0,1,234.615,361.947Z" transform="translate(-196.891 -254.031)" fill="#221758" fill-rule="evenodd"/>
        <g id="Grupo_55746" data-name="Grupo 55746" transform="translate(36.22 25.58)">
          <rect id="Rectángulo_5885" data-name="Rectángulo 5885" width="17.962" height="28.225" fill="#f9b532"/>
          <rect id="Rectángulo_5886" data-name="Rectángulo 5886" width="17.962" height="24.047" transform="translate(0 4.177)" fill="#f59f3a"/>
          <rect id="Rectángulo_5887" data-name="Rectángulo 5887" width="17.962" height="21.502" transform="translate(0 6.722)" fill="#fff"/>
          <rect id="Rectángulo_5888" data-name="Rectángulo 5888" width="17.962" height="21.502" transform="translate(0 6.722)" fill="#fff2d1"/>
          <path id="Trazado_103477" data-name="Trazado 103477" d="M251.073,238.692H237.78a5.294,5.294,0,0,0-4.669,3.4v19.917h17.962Z" transform="translate(-233.111 -233.783)" fill="#fcc749" fill-rule="evenodd"/>
        </g>
        <g id="Grupo_55747" data-name="Grupo 55747" transform="translate(41.897 25.58)">
          <rect id="Rectángulo_5889" data-name="Rectángulo 5889" width="12.286" height="24.951" fill="#f18d3d"/>
          <rect id="Rectángulo_5890" data-name="Rectángulo 5890" width="12.286" height="20.774" transform="translate(0 4.177)" fill="#ee7e40"/>
          <rect id="Rectángulo_5891" data-name="Rectángulo 5891" width="12.286" height="18.229" transform="translate(0 6.722)" fill="#f2bcc2"/>
          <rect id="Rectángulo_5892" data-name="Rectángulo 5892" width="12.286" height="18.229" transform="translate(0 6.722)" fill="#f2b2a5"/>
          <rect id="Rectángulo_5893" data-name="Rectángulo 5893" width="12.286" height="20.042" transform="translate(0 4.909)" fill="#f39a4c"/>
        </g>
        <g id="Grupo_55748" data-name="Grupo 55748" transform="translate(46.553 25.58)">
          <path id="Trazado_103478" data-name="Trazado 103478" d="M280.856,230.877H253.4a3.854,3.854,0,0,0-3.843,3.842V259.1h31.3Z" transform="translate(-249.56 -230.877)" fill="#f9b532" fill-rule="evenodd"/>
          <path id="Trazado_103479" data-name="Trazado 103479" d="M282.12,237.527H256.8a3.854,3.854,0,0,0-3.842,3.843v20.2H282.12Z" transform="translate(-250.823 -233.35)" fill="#f59f3a" fill-rule="evenodd"/>
          <path id="Trazado_103480" data-name="Trazado 103480" d="M255.563,263.081V244.708a3.14,3.14,0,0,1,3.13-3.13h24.395v21.5Z" transform="translate(-251.792 -234.856)" fill="#fff" fill-rule="evenodd"/>
          <path id="Trazado_103481" data-name="Trazado 103481" d="M258.6,263.081l4.887-19.474a4.941,4.941,0,0,1,1.093-2.029h19.635v21.5Z" transform="translate(-252.922 -234.856)" fill="#fff2d1" fill-rule="evenodd"/>
          <path id="Trazado_103482" data-name="Trazado 103482" d="M285.775,238.692H272.482a5.276,5.276,0,0,0-4.806,3.842l-4.887,19.474h22.987Z" transform="translate(-254.478 -233.783)" fill="#fcc749" fill-rule="evenodd"/>
        </g>
        <g id="Grupo_55749" data-name="Grupo 55749" transform="translate(65.564 25.58)">
          <rect id="Rectángulo_5894" data-name="Rectángulo 5894" width="12.286" height="24.951" fill="#f18d3d"/>
          <rect id="Rectángulo_5895" data-name="Rectángulo 5895" width="12.286" height="20.774" transform="translate(0 4.177)" fill="#ee7e40"/>
          <rect id="Rectángulo_5896" data-name="Rectángulo 5896" width="12.286" height="18.229" transform="translate(0 6.722)" fill="#f2bcc2"/>
          <rect id="Rectángulo_5897" data-name="Rectángulo 5897" width="12.286" height="18.229" transform="translate(0 6.722)" fill="#f2b2a5"/>
          <rect id="Rectángulo_5898" data-name="Rectángulo 5898" width="12.286" height="20.042" transform="translate(0 4.909)" fill="#f39a4c"/>
        </g>
        <g id="Grupo_55750" data-name="Grupo 55750" transform="translate(70.22 25.58)">
          <path id="Trazado_103483" data-name="Trazado 103483" d="M318.531,230.877H291.078a3.853,3.853,0,0,0-3.843,3.842V259.1h31.3Z" transform="translate(-287.235 -230.877)" fill="#f9b532" fill-rule="evenodd"/>
          <path id="Trazado_103484" data-name="Trazado 103484" d="M319.795,237.527h-25.32a3.854,3.854,0,0,0-3.842,3.843v20.2h29.162Z" transform="translate(-288.498 -233.35)" fill="#f59f3a" fill-rule="evenodd"/>
          <path id="Trazado_103485" data-name="Trazado 103485" d="M293.238,263.081V244.708a3.14,3.14,0,0,1,3.131-3.13h24.394v21.5Z" transform="translate(-289.467 -234.856)" fill="#fff" fill-rule="evenodd"/>
          <path id="Trazado_103486" data-name="Trazado 103486" d="M296.278,263.081l4.888-19.474a4.924,4.924,0,0,1,1.092-2.029h19.636v21.5Z" transform="translate(-290.597 -234.856)" fill="#fff2d1" fill-rule="evenodd"/>
          <path id="Trazado_103487" data-name="Trazado 103487" d="M323.449,238.692H310.156a5.277,5.277,0,0,0-4.806,3.842l-4.888,19.474h22.987Z" transform="translate(-292.153 -233.783)" fill="#fcc749" fill-rule="evenodd"/>
        </g>
        <g id="Grupo_55751" data-name="Grupo 55751" transform="translate(89.23 25.58)">
          <rect id="Rectángulo_5899" data-name="Rectángulo 5899" width="12.286" height="24.951" fill="#f18d3d"/>
          <rect id="Rectángulo_5900" data-name="Rectángulo 5900" width="12.286" height="20.774" transform="translate(0 4.177)" fill="#ee7e40"/>
          <rect id="Rectángulo_5901" data-name="Rectángulo 5901" width="12.286" height="18.229" transform="translate(0 6.722)" fill="#f2bcc2"/>
          <rect id="Rectángulo_5902" data-name="Rectángulo 5902" width="12.286" height="18.229" transform="translate(0 6.722)" fill="#f2b2a5"/>
          <rect id="Rectángulo_5903" data-name="Rectángulo 5903" width="12.286" height="20.042" transform="translate(0 4.909)" fill="#f39a4c"/>
        </g>
        <g id="Grupo_55752" data-name="Grupo 55752" transform="translate(93.184 22.733)">
          <path id="Trazado_103488" data-name="Trazado 103488" d="M327.633,272.1h46.392a3.853,3.853,0,0,0,3.841-3.842v-35.22a3.853,3.853,0,0,0-3.841-3.842h-1.886V227.4a1.061,1.061,0,0,0-1.058-1.058H357.065a1.06,1.06,0,0,0-1.057,1.058v1.789H327.633a3.853,3.853,0,0,0-3.842,3.842v35.22A3.853,3.853,0,0,0,327.633,272.1Z" transform="translate(-323.791 -226.345)" fill="#f9b532" fill-rule="evenodd"/>
          <path id="Trazado_103489" data-name="Trazado 103489" d="M328.9,274.569h46.392a3.853,3.853,0,0,0,3.841-3.842V236.245a3.807,3.807,0,0,0-1.707-.4h-1.886v-1.788A1.06,1.06,0,0,0,374.479,233H360.463a1.06,1.06,0,0,0-1.057,1.057v1.788H331.031a3.853,3.853,0,0,0-3.842,3.843v34.481A3.809,3.809,0,0,0,328.9,274.569Z" transform="translate(-325.054 -228.818)" fill="#f59f3a" fill-rule="evenodd"/>
          <path id="Rectángulo_5904" data-name="Rectángulo 5904" d="M4.983,0H30.593a4.984,4.984,0,0,1,4.984,4.984V31.2a4.984,4.984,0,0,1-4.984,4.984H4.984A4.984,4.984,0,0,1,0,31.2V4.983A4.983,4.983,0,0,1,4.983,0Z" transform="translate(3.771 9.569)" fill="#fff"/>
          <path id="Trazado_103490" data-name="Trazado 103490" d="M362.239,277.759H332.925a3.14,3.14,0,0,1-3.131-3.131V270.69l6.8-27.083a4.932,4.932,0,0,1,1.092-2.029h24.556a3.141,3.141,0,0,1,3.132,3.13v29.92A3.14,3.14,0,0,1,362.239,277.759Z" transform="translate(-326.023 -232.009)" fill="#fff2d1" fill-rule="evenodd"/>
          <path id="Trazado_103491" data-name="Trazado 103491" d="M335.5,274.73h42.833a5.277,5.277,0,0,0,4.806-3.842l7.608-30.31a2.905,2.905,0,0,0-2.879-3.842h-2.251l.477-1.9a1.06,1.06,0,0,0-1.05-1.4H369.407a1.928,1.928,0,0,0-1.755,1.4l-.477,1.9H345.032a5.277,5.277,0,0,0-4.807,3.842l-7.607,30.31A2.905,2.905,0,0,0,335.5,274.73Z" transform="translate(-327.029 -228.979)" fill="#fcc749" fill-rule="evenodd"/>
          <path id="Trazado_103492" data-name="Trazado 103492" d="M381.1,242.251l-6.079,24.225a5.279,5.279,0,0,1-4.807,3.843H332.76l-.143.569a2.905,2.905,0,0,0,2.878,3.842h42.833a5.277,5.277,0,0,0,4.806-3.842l7.607-30.31a2.9,2.9,0,0,0-2.878-3.842h-2.251l.477-1.9a1.06,1.06,0,0,0-1.05-1.4h-2.875a3.163,3.163,0,0,1,.466,2.736Z" transform="translate(-327.029 -228.979)" fill="#f9b532" fill-rule="evenodd"/>
        </g>
        <rect id="Rectángulo_5905" data-name="Rectángulo 5905" width="78.795" height="33.328" transform="translate(89.037 39.795)" fill="#fff"/>
        <g id="Grupo_55753" data-name="Grupo 55753" transform="translate(36.22 73.122)">
          <path id="Trazado_103493" data-name="Trazado 103493" d="M278.345,306.559h20.663a1.633,1.633,0,0,1,1.753,1.466v0a1.632,1.632,0,0,1-1.753,1.465H278.345a1.632,1.632,0,0,1-1.753-1.465v0A1.633,1.633,0,0,1,278.345,306.559Z" transform="translate(-249.278 -306.559)" fill="#221758" fill-rule="evenodd"/>
          <path id="Trazado_103494" data-name="Trazado 103494" d="M234.615,306.56H310.4a1.4,1.4,0,0,1,1.505,1.258v.209h-78.8v-.209A1.4,1.4,0,0,1,234.615,306.56Z" transform="translate(-233.111 -306.559)" fill="#221758" fill-rule="evenodd"/>
        </g>
        <path id="Trazado_103495" data-name="Trazado 103495" d="M318.693,251.172H394.48a1.4,1.4,0,0,1,1.5,1.258v.208H368.672a1.635,1.635,0,0,1-1.754,1.466H346.256a1.633,1.633,0,0,1-1.752-1.466H317.189v-.208A1.4,1.4,0,0,1,318.693,251.172Z" transform="translate(-228.152 -212.843)" fill="#221758" fill-rule="evenodd"/>
        <path id="Trazado_103496" data-name="Trazado 103496" d="M285.927,286.833V253.505H233.111v34.587a1.4,1.4,0,0,1,1.5-1.258h51.312Z" transform="translate(-196.891 -213.71)" fill="#d3ebfa" fill-rule="evenodd"/>
      </g>
      <g id="Grupo_55760" data-name="Grupo 55760" transform="translate(386.057 5843.04)">
        <g id="Grupo_55758" data-name="Grupo 55758" transform="translate(0 0)">
          <g id="Grupo_55755" data-name="Grupo 55755" transform="translate(17.232)">
            <path id="Trazado_103497" data-name="Trazado 103497" d="M169.752,246.176c-9.022-10-15.733,2.7-14.8,15.45.889,12.087,10.462,53.556,8.687,71h3.665C176.274,310.257,181.3,258.975,169.752,246.176Z" transform="translate(-154.868 -242.579)" fill="#badb4c" fill-rule="evenodd"/>
            <path id="Trazado_103498" data-name="Trazado 103498" d="M170.524,335.853c8.727-35.261-2.32-84-2.358-84.168a.518.518,0,0,0-.626-.417.57.57,0,0,0-.382.681c.038.167,11.1,48.964,2.305,83.9Z" transform="translate(-159.432 -245.804)" fill="#95af3d" fill-rule="evenodd"/>
          </g>
          <g id="Grupo_55756" data-name="Grupo 55756" transform="translate(0 24.249)">
            <path id="Trazado_103499" data-name="Trazado 103499" d="M137.3,282.561c-9.508-5.482-11.9,6.479-8.2,16.375,3.072,8.2,16.641,32.459,21.772,48.045H155.7C156.112,325.442,148.518,289.032,137.3,282.561Z" transform="translate(-127.436 -281.181)" fill="#80bbe7" fill-rule="evenodd"/>
            <path id="Trazado_103500" data-name="Trazado 103500" d="M156.71,349.741c-3.145-29.13-20.945-60.8-21.01-60.909a.413.413,0,0,0-.595-.159.5.5,0,0,0-.145.648c.063.114,17.749,31.573,20.89,60.421Z" transform="translate(-130.21 -283.941)" fill="#428fcd" fill-rule="evenodd"/>
          </g>
          <g id="Grupo_55757" data-name="Grupo 55757" transform="translate(29.476 38.482)">
            <path id="Trazado_103501" data-name="Trazado 103501" d="M194.923,304.812c9.215-4.38,10.675,6.95,6.582,15.888-2.769,6.048-12.752,21.534-19.473,34.706h-7.673C176.983,335.477,185.4,309.341,194.923,304.812Z" transform="translate(-174.359 -303.839)" fill="#fcc749" fill-rule="evenodd"/>
            <path id="Trazado_103502" data-name="Trazado 103502" d="M178.721,358.006c6.542-24.144,21.608-46.9,21.669-46.988a.383.383,0,0,1,.565-.1.466.466,0,0,1,.094.614c-.06.092-14.967,22.608-21.495,46.476Z" transform="translate(-175.981 -306.44)" fill="#f9b532" fill-rule="evenodd"/>
          </g>
        </g>
        <g id="Grupo_55759" data-name="Grupo 55759" transform="translate(16.202 82.077)">
          <path id="Trazado_103503" data-name="Trazado 103503" d="M154.7,373.237h27a1.541,1.541,0,0,1,1.467,1.6v7.254a1.541,1.541,0,0,1-1.467,1.6h-27a1.542,1.542,0,0,1-1.468-1.6v-7.254A1.541,1.541,0,0,1,154.7,373.237Z" transform="translate(-153.228 -373.237)" fill="#28256c" fill-rule="evenodd"/>
          <path id="Trazado_103504" data-name="Trazado 103504" d="M160.2,382.632h17.736l4.63,4.548-3.783,15.859H159.348l-3.783-15.859Z" transform="translate(-154.097 -376.73)" fill="#28256c" fill-rule="evenodd"/>
          <path id="Trazado_103505" data-name="Trazado 103505" d="M182.562,389.872l-.777,3.26H156.343l-.778-3.26Z" transform="translate(-154.097 -379.422)" fill="#221758" fill-rule="evenodd"/>
        </g>
      </g>
      <path id="Trazado_103506" data-name="Trazado 103506" d="M417.494,221.573c-.482.355-.744.589-.744.589s-4.232-.385-5.515,1.09-4.1,5.065-5.32,5.642.128,1.6,2.692.706a24.539,24.539,0,0,0,5.449-3.078,7.1,7.1,0,0,0,4.743-.62,20.231,20.231,0,0,1-1.3-4.056A1.125,1.125,0,0,1,417.494,221.573Z" transform="translate(146.882 5608.271)" fill="#f2bbc9" fill-rule="evenodd"/>
    </g>
  </g>
</svg>
