<svg xmlns="http://www.w3.org/2000/svg" xmlns:xlink="http://www.w3.org/1999/xlink" width="311.042" height="271.653" viewBox="0 0 311.042 271.653">
  <defs>
    <clipPath id="clip-path">
      <rect id="Rectángulo_5848" data-name="Rectángulo 5848" width="56.63" height="19.037" transform="translate(1133.866 632.021)" fill="#ffc152"/>
    </clipPath>
    <clipPath id="clip-path-2">
      <path id="Trazado_103354" data-name="Trazado 103354" d="M1338.675,850.045l1.35,6.676s8.511,1.849,9.024,3.8-17.871.616-17.871.616l-1.952-11.093" fill="#31537f"/>
    </clipPath>
    <clipPath id="clip-path-3">
      <path id="Trazado_103357" data-name="Trazado 103357" d="M1292.455,850.045l.212,6.676s-8.511,1.849-9.024,3.8,17.871.616,17.871.616l.39-11.093" fill="#31537f"/>
    </clipPath>
    <clipPath id="clip-path-4">
      <path id="Trazado_103362" data-name="Trazado 103362" d="M1327.019,771.942s8.767,49.653,13.006,79.364c-9.109,1-11.025.391-11.025.391l-16.916-60.705h-7.427c-.548.587-2.222,60.705-2.222,60.705s-7.642,1.132-10.653-.43c0,0-3.437-46.269-4.361-71.359Z" fill="#5d7cbd"/>
    </clipPath>
    <clipPath id="clip-path-5">
      <path id="Trazado_103365" data-name="Trazado 103365" d="M1302.793,720.763s9.611.549,12.278,3.126,8.362,20.1,11.948,48.053c-14.316,15.1-39.6,7.966-39.6,7.966s-1.287-50.933.071-53.5C1290.088,721.514,1302.793,720.763,1302.793,720.763Z" fill="#f89000"/>
    </clipPath>
    <clipPath id="clip-path-6">
      <path id="Rectángulo_5874" data-name="Rectángulo 5874" d="M7.384,0H9.3a7.384,7.384,0,0,1,7.384,7.384V98.85a0,0,0,0,1,0,0H0a0,0,0,0,1,0,0V7.384A7.384,7.384,0,0,1,7.384,0Z" transform="matrix(0.52, 0.854, -0.854, 0.52, 1322.985, 736.887)" fill="#d5684e"/>
    </clipPath>
    <clipPath id="clip-path-7">
      <path id="Trazado_103368" data-name="Trazado 103368" d="M1238.573,788.325l-7.39,14.274,16.073-.023Z" fill="#ffe498"/>
    </clipPath>
    <clipPath id="clip-path-8">
      <path id="Trazado_103375" data-name="Trazado 103375" d="M1309.933,708.9l-1.888,14.465-7.44,6.333-6.2-6.333V714.04" fill="#fac4ad"/>
    </clipPath>
  </defs>
  <g id="Grupo_55734" data-name="Grupo 55734" transform="translate(-1040.152 -598.724)">
    <path id="Trazado_103331" data-name="Trazado 103331" d="M1153.824,647.332c10.315,1.947,20.823-2.1,29.977-7.243,12.74-7.152,24.112-16.494,36.484-24.267s26.275-14.085,40.885-14.112,29.94,7.488,35.7,20.916c6.106,14.239.439,30.778,3.083,46.043,4.288,24.755,29.375,41.977,33.559,66.75,2.4,14.187-2.649,28.812-10.683,40.747-17.1,25.4-49.032,40.495-79.3,35.885-19.262-2.934-36.822-13.159-51.442-26.039s-26.636-28.4-38.556-43.811" fill="#9bcde0" opacity="0.3"/>
    <path id="Trazado_103332" data-name="Trazado 103332" d="M1145.018,825.841A131.29,131.29,0,0,0,1155,812.3c2.908-4.528,5.576-9.337,6.635-14.614,1.423-7.087-.163-14.414-2.128-21.371-2.254-7.982-5.069-15.925-9.754-22.769s-11.44-12.556-19.477-14.606c-6.542-1.669-13.491-.85-20.106-2.2-12.8-2.619-22.695-13.038-29.13-24.412-3.39-5.992-6.53-12.845-12.762-15.769-7.309-3.43-16.59.363-21.067,7.082s-4.844,15.491-3,23.351,5.66,15.086,9.126,22.378,6.656,14.93,7.086,22.992c.71,13.3-6.154,26.356-4.27,39.538,1.06,7.409,4.849,14.206,9.611,19.98a43.065,43.065,0,0,0,14.294,11.734c8.391,4.016,18.283,4.222,27.265,1.8s17.134-7.319,24.427-13.094" fill="#ffc152" opacity="0.3"/>
    <ellipse id="Elipse_4317" data-name="Elipse 4317" cx="152.102" cy="8.591" rx="152.102" ry="8.591" transform="translate(1046.99 853.196)" fill="#161d22" opacity="0.1" style="mix-blend-mode: multiply;isolation: isolate"/>
    <g id="Grupo_55700" data-name="Grupo 55700">
      <circle id="Elipse_4318" data-name="Elipse 4318" cx="4.294" cy="4.294" r="4.294" transform="translate(1054.528 668.317)" fill="#d74643"/>
      <path id="Trazado_103333" data-name="Trazado 103333" d="M1062.636,627.881a4.1,4.1,0,1,0,4.095-4.095A4.1,4.1,0,0,0,1062.636,627.881Z" fill="#164a62"/>
      <path id="Trazado_103334" data-name="Trazado 103334" d="M1100.094,607.368a3.183,3.183,0,1,0,4.5,0A3.183,3.183,0,0,0,1100.094,607.368Z" fill="#ffc152"/>
      <circle id="Elipse_4319" data-name="Elipse 4319" cx="3.183" cy="3.183" r="3.183" transform="translate(1048.162 763.406)" fill="#ffc152"/>
      <path id="Trazado_103335" data-name="Trazado 103335" d="M1130.636,601.738a3.014,3.014,0,1,0,3.014-3.014A3.014,3.014,0,0,0,1130.636,601.738Z" fill="#ffc152"/>
      <path id="Trazado_103336" data-name="Trazado 103336" d="M1341.552,809.131a3.013,3.013,0,1,0,3.014-3.014A3.013,3.013,0,0,0,1341.552,809.131Z" fill="#ffc152"/>
      <path id="Trazado_103337" data-name="Trazado 103337" d="M1108.894,629.341a1.459,1.459,0,1,0,1.459-1.46A1.459,1.459,0,0,0,1108.894,629.341Z" fill="#186f8b"/>
      <circle id="Elipse_4320" data-name="Elipse 4320" cx="1.507" cy="1.507" r="1.507" transform="translate(1067.813 598.724)" fill="#186f8b"/>
      <circle id="Elipse_4321" data-name="Elipse 4321" cx="1.507" cy="1.507" r="1.507" transform="translate(1040.153 691.729)" fill="#186f8b"/>
      <circle id="Elipse_4322" data-name="Elipse 4322" cx="3.047" cy="3.047" r="3.047" transform="translate(1184.696 609.618)" fill="#d5743b"/>
      <circle id="Elipse_4323" data-name="Elipse 4323" cx="2.685" cy="2.685" r="2.685" transform="translate(1261.74 645.695)" fill="#186f8b"/>
      <path id="Trazado_103338" data-name="Trazado 103338" d="M1261.74,622.092a3.607,3.607,0,1,0,3.607-3.608A3.607,3.607,0,0,0,1261.74,622.092Z" fill="#ffc152"/>
      <path id="Trazado_103339" data-name="Trazado 103339" d="M1314.99,660.324a3.467,3.467,0,1,0,3.467-3.467A3.467,3.467,0,0,0,1314.99,660.324Z" fill="#ffc152"/>
      <path id="Trazado_103340" data-name="Trazado 103340" d="M1280.172,649.831a2.068,2.068,0,1,0,2.067-2.068A2.068,2.068,0,0,0,1280.172,649.831Z" fill="#164a62"/>
      <path id="Trazado_103341" data-name="Trazado 103341" d="M1324.588,793.855a2.068,2.068,0,1,0,2.067-2.068A2.066,2.066,0,0,0,1324.588,793.855Z" fill="#164a62"/>
      <path id="Trazado_103342" data-name="Trazado 103342" d="M1312.783,626.623a2.837,2.837,0,1,0,2.837-2.837A2.837,2.837,0,0,0,1312.783,626.623Z" fill="#d5743b"/>
      <path id="Trazado_103343" data-name="Trazado 103343" d="M1342.145,704.379a2.42,2.42,0,1,0,2.421-2.42A2.421,2.421,0,0,0,1342.145,704.379Z" fill="#d74643"/>
    </g>
    <g id="Grupo_55716" data-name="Grupo 55716">
      <g id="Grupo_55705" data-name="Grupo 55705">
        <g id="Grupo_55704" data-name="Grupo 55704">
          <g id="Grupo_55701" data-name="Grupo 55701">
            <rect id="Rectángulo_5842" data-name="Rectángulo 5842" width="164.58" height="219.567" transform="translate(1079.89 634.551)" fill="#8ea02a"/>
            <rect id="Rectángulo_5843" data-name="Rectángulo 5843" width="144.435" height="196.689" transform="translate(1089.963 649.349)" fill="#161d22" opacity="0.2" style="mix-blend-mode: multiply;isolation: isolate"/>
            <rect id="Rectángulo_5844" data-name="Rectángulo 5844" width="144.435" height="196.689" transform="translate(1089.963 645.99)" fill="#fff"/>
            <path id="Trazado_103344" data-name="Trazado 103344" d="M1079.167,648.217V633.828h14.389Z" fill="#f89000"/>
            <path id="Trazado_103345" data-name="Trazado 103345" d="M1245.193,648.217V633.828H1230.8Z" fill="#f89000"/>
            <path id="Trazado_103346" data-name="Trazado 103346" d="M1079.167,841.013V855.4h14.389Z" fill="#f89000"/>
            <path id="Trazado_103347" data-name="Trazado 103347" d="M1245.193,841.013V855.4H1230.8Z" fill="#f89000"/>
          </g>
          <path id="Trazado_103348" data-name="Trazado 103348" d="M1162.18,639.96h0c-5.678,0-10.282,2.626-10.282-3.053v-.872a10.282,10.282,0,0,1,10.282-10.282h0a10.282,10.282,0,0,1,10.283,10.282v.872C1172.463,642.586,1167.859,639.96,1162.18,639.96Z" fill="#ffc152"/>
          <rect id="Rectángulo_5845" data-name="Rectángulo 5845" width="53.707" height="4.832" transform="translate(1135.327 648.217)" fill="#161d22" opacity="0.2" style="mix-blend-mode: multiply;isolation: isolate"/>
          <g id="Grupo_55703" data-name="Grupo 55703">
            <rect id="Rectángulo_5846" data-name="Rectángulo 5846" width="56.63" height="19.037" transform="translate(1133.866 632.021)" fill="#ffc152"/>
            <g id="Grupo_55702" data-name="Grupo 55702" clip-path="url(#clip-path)">
              <rect id="Rectángulo_5847" data-name="Rectángulo 5847" width="69.448" height="10.913" transform="translate(1128.208 642.48)" fill="#bf162c" opacity="0.2" style="mix-blend-mode: multiply;isolation: isolate"/>
            </g>
          </g>
          <path id="Trazado_103349" data-name="Trazado 103349" d="M1164.547,630.339a2.367,2.367,0,1,1-2.367-2.366A2.366,2.366,0,0,1,1164.547,630.339Z" fill="#fff"/>
        </g>
      </g>
      <g id="Grupo_55707" data-name="Grupo 55707">
        <g id="Grupo_55706" data-name="Grupo 55706">
          <rect id="Rectángulo_5849" data-name="Rectángulo 5849" width="82.15" height="2.496" transform="translate(1112.923 672.173)" fill="#b5b4b4"/>
          <rect id="Rectángulo_5850" data-name="Rectángulo 5850" width="82.15" height="2.495" transform="translate(1112.923 678.167)" fill="#b5b4b4"/>
          <rect id="Rectángulo_5851" data-name="Rectángulo 5851" width="25.397" height="2.496" transform="translate(1112.923 684.16)" fill="#b5b4b4"/>
        </g>
      </g>
      <g id="Grupo_55709" data-name="Grupo 55709">
        <g id="Grupo_55708" data-name="Grupo 55708">
          <rect id="Rectángulo_5852" data-name="Rectángulo 5852" width="103.471" height="2.496" transform="translate(1112.923 710.357)" fill="#b5b4b4"/>
          <rect id="Rectángulo_5853" data-name="Rectángulo 5853" width="103.471" height="2.495" transform="translate(1112.923 716.351)" fill="#b5b4b4"/>
          <rect id="Rectángulo_5854" data-name="Rectángulo 5854" width="103.471" height="2.496" transform="translate(1112.923 721.731)" fill="#b5b4b4"/>
          <rect id="Rectángulo_5855" data-name="Rectángulo 5855" width="103.471" height="2.495" transform="translate(1112.923 727.725)" fill="#b5b4b4"/>
          <rect id="Rectángulo_5856" data-name="Rectángulo 5856" width="103.471" height="2.496" transform="translate(1112.923 733.106)" fill="#b5b4b4"/>
          <rect id="Rectángulo_5857" data-name="Rectángulo 5857" width="103.471" height="2.495" transform="translate(1112.923 739.099)" fill="#b5b4b4"/>
          <rect id="Rectángulo_5858" data-name="Rectángulo 5858" width="31.988" height="2.496" transform="translate(1112.923 745.01)" fill="#b5b4b4"/>
        </g>
      </g>
      <g id="Grupo_55711" data-name="Grupo 55711">
        <g id="Grupo_55710" data-name="Grupo 55710">
          <rect id="Rectángulo_5859" data-name="Rectángulo 5859" width="103.471" height="2.496" transform="translate(1112.923 760.365)" fill="#b5b4b4"/>
          <rect id="Rectángulo_5860" data-name="Rectángulo 5860" width="103.471" height="2.495" transform="translate(1112.923 766.359)" fill="#b5b4b4"/>
          <rect id="Rectángulo_5861" data-name="Rectángulo 5861" width="103.471" height="2.496" transform="translate(1112.923 771.74)" fill="#b5b4b4"/>
          <rect id="Rectángulo_5862" data-name="Rectángulo 5862" width="103.471" height="2.495" transform="translate(1112.923 777.733)" fill="#b5b4b4"/>
          <rect id="Rectángulo_5863" data-name="Rectángulo 5863" width="103.471" height="2.496" transform="translate(1112.923 783.114)" fill="#b5b4b4"/>
          <rect id="Rectángulo_5864" data-name="Rectángulo 5864" width="103.471" height="2.495" transform="translate(1112.923 789.107)" fill="#b5b4b4"/>
        </g>
      </g>
      <g id="Grupo_55713" data-name="Grupo 55713">
        <g id="Grupo_55712" data-name="Grupo 55712">
          <rect id="Rectángulo_5865" data-name="Rectángulo 5865" width="103.471" height="2.496" transform="translate(1112.923 818.264)" fill="#e4a435"/>
          <rect id="Rectángulo_5866" data-name="Rectángulo 5866" width="103.471" height="2.495" transform="translate(1112.923 824.258)" fill="#e4a435"/>
        </g>
      </g>
      <rect id="Rectángulo_5867" data-name="Rectángulo 5867" width="106.25" height="6.166" transform="translate(1112.837 660.953)" fill="#b5b4b4"/>
      <g id="Grupo_55714" data-name="Grupo 55714">
        <path id="Trazado_103350" data-name="Trazado 103350" d="M1103.176,809.848h6.384v1.086h-3.045v25.113h3.045v1.086h-6.384Z" fill="#8d081e"/>
      </g>
      <g id="Grupo_55715" data-name="Grupo 55715">
        <path id="Trazado_103351" data-name="Trazado 103351" d="M1225.47,837.133h-6.383v-1.086h3.045V810.934h-3.045v-1.086h6.383Z" fill="#8d081e"/>
      </g>
    </g>
    <g id="Grupo_55733" data-name="Grupo 55733">
      <g id="Grupo_55718" data-name="Grupo 55718">
        <path id="Trazado_103352" data-name="Trazado 103352" d="M1338.675,850.045l1.35,6.676s8.511,1.849,9.024,3.8-17.871.616-17.871.616l-1.952-11.093" fill="#31537f"/>
        <g id="Grupo_55717" data-name="Grupo 55717" clip-path="url(#clip-path-2)">
          <path id="Trazado_103353" data-name="Trazado 103353" d="M1341.521,847.071a2.032,2.032,0,0,1,.722,1.843,3.613,3.613,0,0,1-.861,1.853,8.913,8.913,0,0,1-4.316,2.634,17.246,17.246,0,0,1-4.786.794,8.7,8.7,0,0,1-5.717-1.582c-1.568-1.271-2.358-3.646-1.357-5.4a5.807,5.807,0,0,1,2.5-2.1,17.88,17.88,0,0,1,5.658-1.815" fill="#161d22" opacity="0.1" style="mix-blend-mode: multiply;isolation: isolate"/>
        </g>
      </g>
      <g id="Grupo_55720" data-name="Grupo 55720">
        <path id="Trazado_103355" data-name="Trazado 103355" d="M1292.455,850.045l.212,6.676s-8.511,1.849-9.024,3.8,17.871.616,17.871.616l.39-11.093" fill="#31537f"/>
        <g id="Grupo_55719" data-name="Grupo 55719" clip-path="url(#clip-path-3)">
          <path id="Trazado_103356" data-name="Trazado 103356" d="M1301.53,846.5a8.789,8.789,0,0,1,3.148,3.106,4.789,4.789,0,0,1,.751,2.246,2.53,2.53,0,0,1-.917,2.112,3.014,3.014,0,0,1-1.372.507,23.41,23.41,0,0,1-4.1.314,11.407,11.407,0,0,1-6.642-2.688,7.67,7.67,0,0,1-2.258-8.8" fill="#161d22" opacity="0.1" style="mix-blend-mode: multiply;isolation: isolate"/>
        </g>
      </g>
      <g id="Grupo_55725" data-name="Grupo 55725">
        <path id="Trazado_103358" data-name="Trazado 103358" d="M1264.336,769.314s-2.516-6.121-4.331-5.827.053,4.4.053,4.4-8.9-1.594-9.517-.516,4.953,2.13,4.953,2.13-5.275.761-5.055,2.122,4.446.723,4.446.723-3.242,1.828-2.568,3.115,4.164-1.237,4.164-1.237-1.622,3.564-.653,4.016,3.8-2.486,3.8-2.486,3.4,3.021,9.007-1.478c-.553-1.048-2.255-4.012-2.062-5.655Z" fill="#fac4ad"/>
        <path id="Trazado_103359" data-name="Trazado 103359" d="M1287.114,726.149s5.034,28.258-21.622,41.587c-.485,7.882,5.008,7.4,5.008,7.4s39.491-14.342,31.242-47.288" fill="#f89000"/>
        <g id="Grupo_55722" data-name="Grupo 55722">
          <path id="Trazado_103360" data-name="Trazado 103360" d="M1327.019,771.942s8.767,49.653,13.006,79.364c-9.109,1-11.025.391-11.025.391l-16.916-60.705h-7.427c-.548.587-2.222,60.705-2.222,60.705s-7.642,1.132-10.653-.43c0,0-3.437-46.269-4.361-71.359Z" fill="#5d7cbd"/>
          <g id="Grupo_55721" data-name="Grupo 55721" clip-path="url(#clip-path-4)">
            <path id="Trazado_103361" data-name="Trazado 103361" d="M1344.584,772.447a63.809,63.809,0,0,1-85.174-6.729c26.657-1.939,54.172-3.494,79.424,5.265" fill="#161d22" opacity="0.1" style="mix-blend-mode: multiply;isolation: isolate"/>
          </g>
        </g>
        <g id="Grupo_55724" data-name="Grupo 55724">
          <path id="Trazado_103363" data-name="Trazado 103363" d="M1302.793,720.763s9.611.549,12.278,3.126,8.362,20.1,11.948,48.053c-14.316,15.1-39.6,7.966-39.6,7.966s-1.287-50.933.071-53.5C1290.088,721.514,1302.793,720.763,1302.793,720.763Z" fill="#f89000"/>
          <g id="Grupo_55723" data-name="Grupo 55723" clip-path="url(#clip-path-5)">
            <path id="Trazado_103364" data-name="Trazado 103364" d="M1315.365,772.494c-14.857,1.2-27.323-6.341-32.686-10.5-1.053-.817-2.536-.924-3.552-1.787a3.814,3.814,0,0,1-1.455-3.521c.426-2.054,2.841-2.923,4.9-3.317,9.823-1.876,19.949-1.158,29.666.984,4.326.954,24.038,4.085,17.338,11.983C1326.692,769.739,1319.684,772.146,1315.365,772.494Z" fill="#f89000" opacity="0.2" style="mix-blend-mode: multiply;isolation: isolate"/>
          </g>
        </g>
        <path id="Trazado_103366" data-name="Trazado 103366" d="M1287.421,779.908" fill="#5d7cbd"/>
      </g>
      <g id="Grupo_55730" data-name="Grupo 55730">
        <g id="Grupo_55727" data-name="Grupo 55727">
          <path id="Rectángulo_5868" data-name="Rectángulo 5868" d="M7.384,0H9.3a7.384,7.384,0,0,1,7.384,7.384V98.85a0,0,0,0,1,0,0H0a0,0,0,0,1,0,0V7.384A7.384,7.384,0,0,1,7.384,0Z" transform="matrix(0.52, 0.854, -0.854, 0.52, 1322.985, 736.887)" fill="#d5684e"/>
          <g id="Grupo_55726" data-name="Grupo 55726" clip-path="url(#clip-path-6)">
            <rect id="Rectángulo_5869" data-name="Rectángulo 5869" width="35.126" height="3.107" transform="matrix(0.52, 0.854, -0.854, 0.52, 1244.361, 772.916)" fill="#fff" opacity="0.43"/>
            <rect id="Rectángulo_5870" data-name="Rectángulo 5870" width="35.126" height="3.107" transform="matrix(0.52, 0.854, -0.854, 0.52, 1309.169, 733.425)" fill="#fff" opacity="0.43"/>
            <rect id="Rectángulo_5871" data-name="Rectángulo 5871" width="35.126" height="25.094" transform="matrix(0.52, 0.854, -0.854, 0.52, 1330.891, 721.274)" fill="#164a62"/>
            <rect id="Rectángulo_5872" data-name="Rectángulo 5872" width="16.855" height="117.033" transform="matrix(0.52, 0.854, -0.854, 0.52, 1335.031, 743.399)" fill="#c23f66" opacity="0.5" style="mix-blend-mode: multiply;isolation: isolate"/>
            <rect id="Rectángulo_5873" data-name="Rectángulo 5873" width="16.855" height="117.033" transform="translate(1322.292 722.494) rotate(58.644)" fill="#c23f66" opacity="0.2" style="mix-blend-mode: multiply;isolation: isolate"/>
          </g>
        </g>
        <g id="Grupo_55729" data-name="Grupo 55729">
          <path id="Trazado_103367" data-name="Trazado 103367" d="M1238.573,788.325l-7.39,14.274,16.073-.023Z" fill="#ffe498"/>
          <g id="Grupo_55728" data-name="Grupo 55728" clip-path="url(#clip-path-7)">
            <circle id="Elipse_4324" data-name="Elipse 4324" cx="10.051" cy="10.051" r="10.051" transform="matrix(0.911, -0.412, 0.412, 0.911, 1214.189, 800.093)" fill="#186f8b"/>
          </g>
        </g>
      </g>
      <path id="Trazado_103369" data-name="Trazado 103369" d="M1316.98,761.3s-4.748-.246-6.877.655-3.159,1.431-3.159,1.431l-4.247-1.217s1.026,5.592,6.1,6a26.136,26.136,0,0,0,9.409-1.058Z" fill="#fac4ad"/>
      <path id="Trazado_103370" data-name="Trazado 103370" d="M1308.287,721.514s29.986,1.849,32.518,28.325c1.742,18.207-23.648,19.127-23.648,19.127l-1.189-8.07s10.66-4.415,10.66-10.935-11.557-11.342-11.557-11.342Z" fill="#f89000"/>
      <path id="Trazado_103371" data-name="Trazado 103371" d="M1302.443,720.326a34.816,34.816,0,0,1,10.429,1.863l-12.388,10.518-9.976-10.924S1293.915,720.326,1302.443,720.326Z" fill="#f7953c"/>
      <path id="Trazado_103372" data-name="Trazado 103372" d="M1309.255,712.9s4.484.339,6.046-1.079c3.153-2.864,5.393-19.29,5.512-22.741s-3.991-8.334-8.759-8.361c-.682-5.077-3.517-3.511-3.517-3.511s1.335-2.133-.342-3.664a35.1,35.1,0,0,0-1.495,3.22s-2.646-2.175-8.645-1.067-9.7-1.767-11.121,1.131-3.747,11.781.134,13.472S1311.041,702.59,1309.255,712.9Z" fill="#18254b"/>
      <g id="Grupo_55732" data-name="Grupo 55732">
        <path id="Trazado_103373" data-name="Trazado 103373" d="M1309.933,708.9l-1.888,14.465-7.44,6.333-6.2-6.333V714.04" fill="#fac4ad"/>
        <g id="Grupo_55731" data-name="Grupo 55731" clip-path="url(#clip-path-8)">
          <path id="Trazado_103374" data-name="Trazado 103374" d="M1303.337,701.8a5.135,5.135,0,0,1,4.224,2.9,10.392,10.392,0,0,1,.926,5.234,11.68,11.68,0,0,1-.845,4.238,10.926,10.926,0,0,1-10.172,6.077,6.721,6.721,0,0,1-5.588-3.922c-.993-2.479-.1-5.345,1.365-7.581a11.783,11.783,0,0,1,7.237-5.319,4.179,4.179,0,0,1,3.72.723" fill="#c23f66" opacity="0.2" style="mix-blend-mode: multiply;isolation: isolate"/>
        </g>
      </g>
      <path id="Trazado_103376" data-name="Trazado 103376" d="M1307.173,683.643c4.985,2.132,9.73,20.547,3.521,28.484s-21.084,6.434-26.256.383C1280.227,707.583,1286.406,674.761,1307.173,683.643Z" fill="#fac4ad"/>
      <path id="Trazado_103377" data-name="Trazado 103377" d="M1292.418,694.724c.874.418-.69,9.041-.69,9.041-1.181.152-4.858-1.812-4.858-2.582C1286.87,701.183,1290.755,693.93,1292.418,694.724Z" fill="#f1917e"/>
      <path id="Trazado_103378" data-name="Trazado 103378" d="M1316.846,702.494a4.049,4.049,0,0,0-2.637-3.163c-1.32-.589-3.389,2.787-4.832,2.71-2.352-.124-4.276-1.276-4.536-2.233-.185-.678-.028-8.645-1.026-9.786-1.7-1.943-4.628-2.048-7.209-2.029s-5.525-.147-7.153-2.149a3.244,3.244,0,0,1-.735-1.6,3.728,3.728,0,0,1,.829-2.61c1.893-2.588,5.417-3.458,8.618-3.28a19.533,19.533,0,0,1,13.557,6.893,22.649,22.649,0,0,1,5.207,14.407" fill="#18254b"/>
      <path id="Trazado_103379" data-name="Trazado 103379" d="M1308.526,703.419s-.619-9.628,4.324-8.238,3.773,11.08-1.852,10.894" fill="#fac4ad"/>
      <path id="Trazado_103380" data-name="Trazado 103380" d="M1300.561,694.458c.222.488-.414,1.784-1.109,1.678s-4.091-.545-4.431-1.343a1.627,1.627,0,0,1,.719-1.942C1296.211,692.687,1300.286,693.852,1300.561,694.458Z" fill="#18254b"/>
      <path id="Trazado_103381" data-name="Trazado 103381" d="M1289.936,691.861c.247.46-.181,1.819-.807,1.791s-3.678-.085-4.062-.841a1.747,1.747,0,0,1,.435-2.01C1285.9,690.586,1289.63,691.29,1289.936,691.861Z" fill="#18254b"/>
      <path id="Trazado_103382" data-name="Trazado 103382" d="M1296.153,700.145a1.15,1.15,0,0,1-.8.007,1.129,1.129,0,0,1-.914-.866,2.626,2.626,0,0,1,.282-1.487,2.98,2.98,0,0,1,.411-.691.9.9,0,0,1,1.508-.012C1297.082,697.763,1297.033,699.751,1296.153,700.145Z" fill="#092530"/>
      <path id="Trazado_103383" data-name="Trazado 103383" d="M1287.773,698.119a1.15,1.15,0,0,1-.8.007,1.127,1.127,0,0,1-.913-.866,2.616,2.616,0,0,1,.282-1.487,2.951,2.951,0,0,1,.41-.691.9.9,0,0,1,1.509-.012C1288.7,695.737,1288.653,697.725,1287.773,698.119Z" fill="#092530"/>
      <path id="Trazado_103384" data-name="Trazado 103384" d="M1309.939,699.364a2.918,2.918,0,0,1,1.543-2.37,2,2,0,0,1,1.985.037,1.316,1.316,0,0,1,.363,1.818c-.22.274-.581.451-.684.786a1.439,1.439,0,0,0,.221.968,1.838,1.838,0,0,1-.108,1.99,1.212,1.212,0,0,1-1.176.316C1310.822,702.565,1309.853,700.556,1309.939,699.364Z" fill="#f1917e"/>
      <path id="Trazado_103385" data-name="Trazado 103385" d="M1312.573,762.051a37.9,37.9,0,0,0-4.978-1.952c-1.009-.13-1.529.773-1.269,1.3s3.09,2.217,3.09,2.217" fill="#fac4ad"/>
    </g>
  </g>
</svg>
