<svg xmlns="http://www.w3.org/2000/svg" xmlns:xlink="http://www.w3.org/1999/xlink" width="328.305" height="271.653" viewBox="0 0 328.305 271.653">
  <defs>
    <clipPath id="clip-path">
      <rect id="Rectángulo_5815" data-name="Rectángulo 5815" width="56.63" height="19.037" transform="translate(714.426 632.021)" fill="#ffc152"/>
    </clipPath>
    <clipPath id="clip-path-2">
      <path id="Trazado_103299" data-name="Trazado 103299" d="M919.236,850.045l1.349,6.676s8.511,1.849,9.025,3.8-17.872.616-17.872.616l-1.951-11.093" fill="#31537f"/>
    </clipPath>
    <clipPath id="clip-path-3">
      <path id="Trazado_103302" data-name="Trazado 103302" d="M873.015,850.045l.213,6.676s-8.511,1.849-9.025,3.8,17.872.616,17.872.616l.39-11.093" fill="#31537f"/>
    </clipPath>
    <clipPath id="clip-path-4">
      <path id="Trazado_103307" data-name="Trazado 103307" d="M907.579,771.942s8.767,49.653,13.006,79.364c-9.109,1-11.025.391-11.025.391l-16.916-60.705h-7.427C884.67,791.579,883,851.7,883,851.7s-7.643,1.132-10.653-.43c0,0-3.437-46.269-4.362-71.359Z" fill="#5d7cbd"/>
    </clipPath>
    <clipPath id="clip-path-5">
      <path id="Trazado_103310" data-name="Trazado 103310" d="M883.354,720.763s9.61.549,12.277,3.126,8.362,20.1,11.948,48.053c-14.315,15.1-39.6,7.966-39.6,7.966s-1.286-50.933.072-53.5C870.648,721.514,883.354,720.763,883.354,720.763Z" fill="#f89000"/>
    </clipPath>
    <clipPath id="clip-path-6">
      <path id="Rectángulo_5841" data-name="Rectángulo 5841" d="M7.384,0H9.3a7.384,7.384,0,0,1,7.384,7.384V98.85a0,0,0,0,1,0,0H0a0,0,0,0,1,0,0V7.384A7.384,7.384,0,0,1,7.384,0Z" transform="translate(949.017 763.654) rotate(105.996)" fill="#d5684e"/>
    </clipPath>
    <clipPath id="clip-path-7">
      <path id="Trazado_103313" data-name="Trazado 103313" d="M854,736.413l-15.505,4.235L849.4,752.454Z" fill="#ffe498"/>
    </clipPath>
    <clipPath id="clip-path-8">
      <path id="Trazado_103320" data-name="Trazado 103320" d="M890.494,708.9l-1.888,14.465-7.44,6.333-6.2-6.333V714.04" fill="#fac4ad"/>
    </clipPath>
  </defs>
  <g id="Grupo_55699" data-name="Grupo 55699" transform="translate(-620.713 -598.724)">
    <path id="Trazado_103276" data-name="Trazado 103276" d="M734.384,647.332c10.316,1.947,20.824-2.1,29.977-7.243,12.741-7.152,24.112-16.494,36.484-24.267s26.275-14.085,40.886-14.112,29.94,7.488,35.7,20.916c6.107,14.239.439,30.778,3.083,46.043,4.288,24.755,29.376,41.977,33.56,66.75,2.395,14.187-2.649,28.812-10.683,40.747-17.1,25.4-49.032,40.495-79.3,35.885-19.263-2.934-36.822-13.159-51.443-26.039s-26.636-28.4-38.555-43.811" fill="#9bcde0" opacity="0.3"/>
    <path id="Trazado_103277" data-name="Trazado 103277" d="M725.579,825.841a131.137,131.137,0,0,0,9.98-13.544c2.908-4.528,5.576-9.337,6.636-14.614,1.423-7.087-.163-14.414-2.128-21.371-2.255-7.982-5.069-15.925-9.754-22.769s-11.441-12.556-19.477-14.606c-6.543-1.669-13.491-.85-20.106-2.2-12.8-2.619-22.7-13.038-29.13-24.412-3.39-5.992-6.53-12.845-12.763-15.769-7.308-3.43-16.59.363-21.066,7.082s-4.844,15.491-3,23.351,5.661,15.086,9.126,22.378,6.657,14.93,7.087,22.992c.71,13.3-6.155,26.356-4.27,39.538,1.059,7.409,4.848,14.206,9.61,19.98a43.068,43.068,0,0,0,14.295,11.734c8.391,4.016,18.283,4.222,27.264,1.8s17.134-7.319,24.427-13.094" fill="#ffc152" opacity="0.3"/>
    <ellipse id="Elipse_4309" data-name="Elipse 4309" cx="152.102" cy="8.591" rx="152.102" ry="8.591" transform="translate(627.551 853.196)" fill="#161d22" opacity="0.1" style="mix-blend-mode: multiply;isolation: isolate"/>
    <g id="Grupo_55665" data-name="Grupo 55665">
      <circle id="Elipse_4310" data-name="Elipse 4310" cx="4.294" cy="4.294" r="4.294" transform="translate(635.088 668.317)" fill="#d74643"/>
      <path id="Trazado_103278" data-name="Trazado 103278" d="M643.2,627.881a4.1,4.1,0,1,0,4.1-4.095A4.1,4.1,0,0,0,643.2,627.881Z" fill="#164a62"/>
      <path id="Trazado_103279" data-name="Trazado 103279" d="M680.655,607.368a3.183,3.183,0,1,0,4.5,0A3.183,3.183,0,0,0,680.655,607.368Z" fill="#ffc152"/>
      <circle id="Elipse_4311" data-name="Elipse 4311" cx="3.183" cy="3.183" r="3.183" transform="translate(628.723 763.406)" fill="#ffc152"/>
      <path id="Trazado_103280" data-name="Trazado 103280" d="M711.2,601.738a3.013,3.013,0,1,0,3.013-3.014A3.013,3.013,0,0,0,711.2,601.738Z" fill="#ffc152"/>
      <path id="Trazado_103281" data-name="Trazado 103281" d="M922.113,809.131a3.014,3.014,0,1,0,3.013-3.014A3.013,3.013,0,0,0,922.113,809.131Z" fill="#ffc152"/>
      <path id="Trazado_103282" data-name="Trazado 103282" d="M689.455,629.341a1.46,1.46,0,1,0,1.459-1.46A1.459,1.459,0,0,0,689.455,629.341Z" fill="#186f8b"/>
      <circle id="Elipse_4312" data-name="Elipse 4312" cx="1.507" cy="1.507" r="1.507" transform="translate(648.374 598.724)" fill="#186f8b"/>
      <circle id="Elipse_4313" data-name="Elipse 4313" cx="1.507" cy="1.507" r="1.507" transform="translate(620.713 691.729)" fill="#186f8b"/>
      <circle id="Elipse_4314" data-name="Elipse 4314" cx="3.047" cy="3.047" r="3.047" transform="translate(765.257 609.618)" fill="#d5743b"/>
      <circle id="Elipse_4315" data-name="Elipse 4315" cx="2.685" cy="2.685" r="2.685" transform="translate(842.3 645.695)" fill="#186f8b"/>
      <path id="Trazado_103283" data-name="Trazado 103283" d="M842.3,622.092a3.608,3.608,0,1,0,3.608-3.608A3.608,3.608,0,0,0,842.3,622.092Z" fill="#ffc152"/>
      <path id="Trazado_103284" data-name="Trazado 103284" d="M895.551,660.324a3.467,3.467,0,1,0,3.467-3.467A3.467,3.467,0,0,0,895.551,660.324Z" fill="#ffc152"/>
      <path id="Trazado_103285" data-name="Trazado 103285" d="M860.733,649.831a2.068,2.068,0,1,0,2.067-2.068A2.067,2.067,0,0,0,860.733,649.831Z" fill="#164a62"/>
      <path id="Trazado_103286" data-name="Trazado 103286" d="M905.148,793.855a2.068,2.068,0,1,0,2.068-2.068A2.067,2.067,0,0,0,905.148,793.855Z" fill="#164a62"/>
      <path id="Trazado_103287" data-name="Trazado 103287" d="M893.343,626.623a2.837,2.837,0,1,0,2.838-2.837A2.838,2.838,0,0,0,893.343,626.623Z" fill="#d5743b"/>
      <path id="Trazado_103288" data-name="Trazado 103288" d="M922.706,704.379a2.421,2.421,0,1,0,2.42-2.42A2.42,2.42,0,0,0,922.706,704.379Z" fill="#d74643"/>
    </g>
    <g id="Grupo_55681" data-name="Grupo 55681">
      <g id="Grupo_55670" data-name="Grupo 55670">
        <g id="Grupo_55669" data-name="Grupo 55669">
          <g id="Grupo_55666" data-name="Grupo 55666">
            <rect id="Rectángulo_5809" data-name="Rectángulo 5809" width="164.58" height="219.567" transform="translate(660.451 634.551)" fill="#8ea02a"/>
            <rect id="Rectángulo_5810" data-name="Rectángulo 5810" width="144.435" height="196.689" transform="translate(670.523 649.349)" fill="#161d22" opacity="0.2" style="mix-blend-mode: multiply;isolation: isolate"/>
            <rect id="Rectángulo_5811" data-name="Rectángulo 5811" width="144.435" height="196.689" transform="translate(670.523 645.99)" fill="#fff"/>
            <path id="Trazado_103289" data-name="Trazado 103289" d="M659.728,648.217V633.828h14.389Z" fill="#f89000"/>
            <path id="Trazado_103290" data-name="Trazado 103290" d="M825.754,648.217V633.828H811.365Z" fill="#f89000"/>
            <path id="Trazado_103291" data-name="Trazado 103291" d="M659.728,841.013V855.4h14.389Z" fill="#f89000"/>
            <path id="Trazado_103292" data-name="Trazado 103292" d="M825.754,841.013V855.4H811.365Z" fill="#f89000"/>
          </g>
          <path id="Trazado_103293" data-name="Trazado 103293" d="M742.741,639.96h0c-5.679,0-10.282,2.626-10.282-3.053v-.872a10.282,10.282,0,0,1,10.282-10.282h0a10.282,10.282,0,0,1,10.282,10.282v.872C753.023,642.586,748.42,639.96,742.741,639.96Z" fill="#ffc152"/>
          <rect id="Rectángulo_5812" data-name="Rectángulo 5812" width="53.707" height="4.832" transform="translate(715.888 648.217)" fill="#161d22" opacity="0.2" style="mix-blend-mode: multiply;isolation: isolate"/>
          <g id="Grupo_55668" data-name="Grupo 55668">
            <rect id="Rectángulo_5813" data-name="Rectángulo 5813" width="56.63" height="19.037" transform="translate(714.426 632.021)" fill="#ffc152"/>
            <g id="Grupo_55667" data-name="Grupo 55667" clip-path="url(#clip-path)">
              <rect id="Rectángulo_5814" data-name="Rectángulo 5814" width="69.448" height="10.913" transform="translate(708.768 642.48)" fill="#bf162c" opacity="0.2" style="mix-blend-mode: multiply;isolation: isolate"/>
            </g>
          </g>
          <path id="Trazado_103294" data-name="Trazado 103294" d="M745.107,630.339a2.366,2.366,0,1,1-2.366-2.366A2.366,2.366,0,0,1,745.107,630.339Z" fill="#fff"/>
        </g>
      </g>
      <g id="Grupo_55672" data-name="Grupo 55672">
        <g id="Grupo_55671" data-name="Grupo 55671">
          <rect id="Rectángulo_5816" data-name="Rectángulo 5816" width="82.15" height="2.496" transform="translate(693.483 672.173)" fill="#b5b4b4"/>
          <rect id="Rectángulo_5817" data-name="Rectángulo 5817" width="82.15" height="2.495" transform="translate(693.483 678.167)" fill="#b5b4b4"/>
          <rect id="Rectángulo_5818" data-name="Rectángulo 5818" width="25.397" height="2.496" transform="translate(693.483 684.16)" fill="#b5b4b4"/>
        </g>
      </g>
      <g id="Grupo_55674" data-name="Grupo 55674">
        <g id="Grupo_55673" data-name="Grupo 55673">
          <rect id="Rectángulo_5819" data-name="Rectángulo 5819" width="103.471" height="2.496" transform="translate(693.483 710.357)" fill="#e4a435"/>
          <rect id="Rectángulo_5820" data-name="Rectángulo 5820" width="103.471" height="2.495" transform="translate(693.483 716.351)" fill="#e4a435"/>
          <rect id="Rectángulo_5821" data-name="Rectángulo 5821" width="103.471" height="2.496" transform="translate(693.483 721.731)" fill="#e4a435"/>
          <rect id="Rectángulo_5822" data-name="Rectángulo 5822" width="103.471" height="2.495" transform="translate(693.483 727.725)" fill="#e4a435"/>
          <rect id="Rectángulo_5823" data-name="Rectángulo 5823" width="103.471" height="2.496" transform="translate(693.483 733.106)" fill="#e4a435"/>
          <rect id="Rectángulo_5824" data-name="Rectángulo 5824" width="103.471" height="2.495" transform="translate(693.483 739.099)" fill="#e4a435"/>
          <rect id="Rectángulo_5825" data-name="Rectángulo 5825" width="31.988" height="2.496" transform="translate(693.483 745.01)" fill="#e4a435"/>
        </g>
      </g>
      <g id="Grupo_55676" data-name="Grupo 55676">
        <g id="Grupo_55675" data-name="Grupo 55675">
          <rect id="Rectángulo_5826" data-name="Rectángulo 5826" width="103.471" height="2.496" transform="translate(693.483 760.365)" fill="#e4a435"/>
          <rect id="Rectángulo_5827" data-name="Rectángulo 5827" width="103.471" height="2.495" transform="translate(693.483 766.359)" fill="#e4a435"/>
          <rect id="Rectángulo_5828" data-name="Rectángulo 5828" width="103.471" height="2.496" transform="translate(693.483 771.74)" fill="#e4a435"/>
          <rect id="Rectángulo_5829" data-name="Rectángulo 5829" width="103.471" height="2.495" transform="translate(693.483 777.733)" fill="#e4a435"/>
          <rect id="Rectángulo_5830" data-name="Rectángulo 5830" width="103.471" height="2.496" transform="translate(693.483 783.114)" fill="#e4a435"/>
          <rect id="Rectángulo_5831" data-name="Rectángulo 5831" width="103.471" height="2.495" transform="translate(693.483 789.107)" fill="#e4a435"/>
        </g>
      </g>
      <g id="Grupo_55678" data-name="Grupo 55678">
        <g id="Grupo_55677" data-name="Grupo 55677">
          <rect id="Rectángulo_5832" data-name="Rectángulo 5832" width="103.471" height="2.496" transform="translate(693.483 818.264)" fill="#b5b4b4"/>
          <rect id="Rectángulo_5833" data-name="Rectángulo 5833" width="103.471" height="2.495" transform="translate(693.483 824.258)" fill="#b5b4b4"/>
        </g>
      </g>
      <rect id="Rectángulo_5834" data-name="Rectángulo 5834" width="106.25" height="6.166" transform="translate(693.397 660.953)" fill="#b5b4b4"/>
      <g id="Grupo_55679" data-name="Grupo 55679">
        <path id="Trazado_103295" data-name="Trazado 103295" d="M683.737,703.841h6.383v3.823h-3.044v88.407h3.044v3.822h-6.383Z" fill="#8d081e"/>
      </g>
      <g id="Grupo_55680" data-name="Grupo 55680">
        <path id="Trazado_103296" data-name="Trazado 103296" d="M806.031,799.893h-6.384v-3.822h3.045V707.664h-3.045v-3.823h6.384Z" fill="#8d081e"/>
      </g>
    </g>
    <g id="Grupo_55698" data-name="Grupo 55698">
      <g id="Grupo_55683" data-name="Grupo 55683">
        <path id="Trazado_103297" data-name="Trazado 103297" d="M919.236,850.045l1.349,6.676s8.511,1.849,9.025,3.8-17.872.616-17.872.616l-1.951-11.093" fill="#31537f"/>
        <g id="Grupo_55682" data-name="Grupo 55682" clip-path="url(#clip-path-2)">
          <path id="Trazado_103298" data-name="Trazado 103298" d="M922.082,847.071a2.035,2.035,0,0,1,.722,1.843,3.613,3.613,0,0,1-.861,1.853,8.918,8.918,0,0,1-4.316,2.634,17.26,17.26,0,0,1-4.787.794,8.7,8.7,0,0,1-5.716-1.582c-1.569-1.271-2.358-3.646-1.357-5.4a5.8,5.8,0,0,1,2.5-2.1,17.882,17.882,0,0,1,5.657-1.815" fill="#161d22" opacity="0.1" style="mix-blend-mode: multiply;isolation: isolate"/>
        </g>
      </g>
      <g id="Grupo_55685" data-name="Grupo 55685">
        <path id="Trazado_103300" data-name="Trazado 103300" d="M873.015,850.045l.213,6.676s-8.511,1.849-9.025,3.8,17.872.616,17.872.616l.39-11.093" fill="#31537f"/>
        <g id="Grupo_55684" data-name="Grupo 55684" clip-path="url(#clip-path-3)">
          <path id="Trazado_103301" data-name="Trazado 103301" d="M882.09,846.5a8.782,8.782,0,0,1,3.148,3.106,4.779,4.779,0,0,1,.752,2.246,2.533,2.533,0,0,1-.917,2.112,3.014,3.014,0,0,1-1.373.507,23.4,23.4,0,0,1-4.1.314,11.4,11.4,0,0,1-6.642-2.688,7.672,7.672,0,0,1-2.259-8.8" fill="#161d22" opacity="0.1" style="mix-blend-mode: multiply;isolation: isolate"/>
        </g>
      </g>
      <g id="Grupo_55690" data-name="Grupo 55690">
        <path id="Trazado_103303" data-name="Trazado 103303" d="M822.569,739.7s2.494-6.13.994-7.192-3.049,3.179-3.049,3.179-5.232-7.374-6.427-7.038,2.041,4.991,2.041,4.991-4.3-3.154-5.094-2.029,2.665,3.631,2.665,3.631-3.593-.967-4.014.423,3.836,2.036,3.836,2.036-3.654,1.4-3.279,2.407S814.7,741,814.7,741s.307,4.536,7.461,5.258c.34-1.136,1.2-4.442,2.492-5.48Z" fill="#fac4ad"/>
        <path id="Trazado_103304" data-name="Trazado 103304" d="M869.068,724.871s-16.213,23.686-44.569,14.514c-5.869,5.283-1.611,8.787-1.611,8.787s38.223,17.443,55.426-11.84" fill="#f89000"/>
        <g id="Grupo_55687" data-name="Grupo 55687">
          <path id="Trazado_103305" data-name="Trazado 103305" d="M907.579,771.942s8.767,49.653,13.006,79.364c-9.109,1-11.025.391-11.025.391l-16.916-60.705h-7.427C884.67,791.579,883,851.7,883,851.7s-7.643,1.132-10.653-.43c0,0-3.437-46.269-4.362-71.359Z" fill="#5d7cbd"/>
          <g id="Grupo_55686" data-name="Grupo 55686" clip-path="url(#clip-path-4)">
            <path id="Trazado_103306" data-name="Trazado 103306" d="M925.144,772.447a63.809,63.809,0,0,1-85.174-6.729c26.657-1.939,54.173-3.494,79.424,5.265" fill="#161d22" opacity="0.1" style="mix-blend-mode: multiply;isolation: isolate"/>
          </g>
        </g>
        <g id="Grupo_55689" data-name="Grupo 55689">
          <path id="Trazado_103308" data-name="Trazado 103308" d="M883.354,720.763s9.61.549,12.277,3.126,8.362,20.1,11.948,48.053c-14.315,15.1-39.6,7.966-39.6,7.966s-1.286-50.933.072-53.5C870.648,721.514,883.354,720.763,883.354,720.763Z" fill="#f89000"/>
          <g id="Grupo_55688" data-name="Grupo 55688" clip-path="url(#clip-path-5)">
            <path id="Trazado_103309" data-name="Trazado 103309" d="M895.926,772.494c-14.858,1.2-27.324-6.341-32.686-10.5-1.054-.817-2.537-.924-3.553-1.787a3.815,3.815,0,0,1-1.454-3.521c.426-2.054,2.84-2.923,4.9-3.317,9.823-1.876,19.948-1.158,29.665.984,4.326.954,24.038,4.085,17.338,11.983C907.253,769.739,900.244,772.146,895.926,772.494Z" fill="#f89000" opacity="0.2" style="mix-blend-mode: multiply;isolation: isolate"/>
          </g>
        </g>
        <path id="Trazado_103311" data-name="Trazado 103311" d="M867.981,779.908" fill="#5d7cbd"/>
      </g>
      <g id="Grupo_55695" data-name="Grupo 55695">
        <g id="Grupo_55692" data-name="Grupo 55692">
          <path id="Rectángulo_5835" data-name="Rectángulo 5835" d="M7.384,0H9.3a7.384,7.384,0,0,1,7.384,7.384V98.85a0,0,0,0,1,0,0H0a0,0,0,0,1,0,0V7.384A7.384,7.384,0,0,1,7.384,0Z" transform="translate(949.017 763.654) rotate(105.996)" fill="#d5684e"/>
          <g id="Grupo_55691" data-name="Grupo 55691" clip-path="url(#clip-path-6)">
            <rect id="Rectángulo_5836" data-name="Rectángulo 5836" width="35.126" height="3.107" transform="translate(869.25 730.232) rotate(105.996)" fill="#fff" opacity="0.43"/>
            <rect id="Rectángulo_5837" data-name="Rectángulo 5837" width="35.126" height="3.107" transform="translate(942.203 751.146) rotate(105.997)" fill="#fff" opacity="0.43"/>
            <rect id="Rectángulo_5838" data-name="Rectángulo 5838" width="35.126" height="25.094" transform="translate(965.858 758.891) rotate(105.996)" fill="#164a62"/>
            <rect id="Rectángulo_5839" data-name="Rectángulo 5839" width="16.855" height="117.033" transform="matrix(-0.276, 0.961, -0.961, -0.276, 952.388, 776.926)" fill="#c23f66" opacity="0.5" style="mix-blend-mode: multiply;isolation: isolate"/>
            <rect id="Rectángulo_5840" data-name="Rectángulo 5840" width="16.855" height="117.033" transform="matrix(-0.276, 0.961, -0.961, -0.276, 959.134, 753.393)" fill="#c23f66" opacity="0.2" style="mix-blend-mode: multiply;isolation: isolate"/>
          </g>
        </g>
        <g id="Grupo_55694" data-name="Grupo 55694">
          <path id="Trazado_103312" data-name="Trazado 103312" d="M854,736.413l-15.505,4.235L849.4,752.454Z" fill="#ffe498"/>
          <g id="Grupo_55693" data-name="Grupo 55693" clip-path="url(#clip-path-7)">
            <circle id="Elipse_4316" data-name="Elipse 4316" cx="10.051" cy="10.051" r="10.051" transform="translate(820.948 744.947) rotate(-66.948)" fill="#186f8b"/>
          </g>
        </g>
      </g>
      <path id="Trazado_103314" data-name="Trazado 103314" d="M897.54,761.3s-4.748-.246-6.876.655-3.159,1.431-3.159,1.431l-4.247-1.217s1.026,5.592,6.1,6a26.131,26.131,0,0,0,9.409-1.058Z" fill="#fac4ad"/>
      <path id="Trazado_103315" data-name="Trazado 103315" d="M888.847,721.514s29.986,1.849,32.519,28.325c1.742,18.207-23.649,19.127-23.649,19.127l-1.189-8.07s10.661-4.415,10.661-10.935-11.558-11.342-11.558-11.342Z" fill="#f89000"/>
      <path id="Trazado_103316" data-name="Trazado 103316" d="M883,720.326a34.818,34.818,0,0,1,10.43,1.863l-12.388,10.518-9.977-10.924S874.475,720.326,883,720.326Z" fill="#f7953c"/>
      <path id="Trazado_103317" data-name="Trazado 103317" d="M889.816,712.9s4.484.339,6.046-1.079c3.153-2.864,5.393-19.29,5.511-22.741s-3.99-8.334-8.759-8.361c-.682-5.077-3.516-3.511-3.516-3.511s1.334-2.133-.342-3.664a35.082,35.082,0,0,0-1.495,3.22s-2.647-2.175-8.646-1.067-9.7-1.767-11.121,1.131-3.746,11.781.134,13.472S891.6,702.59,889.816,712.9Z" fill="#18254b"/>
      <g id="Grupo_55697" data-name="Grupo 55697">
        <path id="Trazado_103318" data-name="Trazado 103318" d="M890.494,708.9l-1.888,14.465-7.44,6.333-6.2-6.333V714.04" fill="#fac4ad"/>
        <g id="Grupo_55696" data-name="Grupo 55696" clip-path="url(#clip-path-8)">
          <path id="Trazado_103319" data-name="Trazado 103319" d="M883.9,701.8a5.136,5.136,0,0,1,4.224,2.9,10.391,10.391,0,0,1,.925,5.234,11.681,11.681,0,0,1-.845,4.238,10.926,10.926,0,0,1-10.172,6.077,6.722,6.722,0,0,1-5.588-3.922c-.992-2.479-.1-5.345,1.365-7.581a11.786,11.786,0,0,1,7.237-5.319,4.178,4.178,0,0,1,3.72.723" fill="#c23f66" opacity="0.2" style="mix-blend-mode: multiply;isolation: isolate"/>
        </g>
      </g>
      <path id="Trazado_103321" data-name="Trazado 103321" d="M887.734,683.643c4.984,2.132,9.73,20.547,3.52,28.484s-21.083,6.434-26.255.383C860.788,707.583,866.966,674.761,887.734,683.643Z" fill="#fac4ad"/>
      <path id="Trazado_103322" data-name="Trazado 103322" d="M872.979,694.724c.874.418-.691,9.041-.691,9.041-1.181.152-4.858-1.812-4.858-2.582C867.43,701.183,871.316,693.93,872.979,694.724Z" fill="#f1917e"/>
      <path id="Trazado_103323" data-name="Trazado 103323" d="M897.407,702.494a4.051,4.051,0,0,0-2.637-3.163c-1.32-.589-3.389,2.787-4.832,2.71-2.352-.124-4.277-1.276-4.537-2.233-.184-.678-.027-8.645-1.025-9.786-1.7-1.943-4.629-2.048-7.209-2.029s-5.526-.147-7.154-2.149a3.244,3.244,0,0,1-.735-1.6,3.729,3.729,0,0,1,.83-2.61c1.893-2.588,5.416-3.458,8.618-3.28a19.533,19.533,0,0,1,13.557,6.893,22.655,22.655,0,0,1,5.207,14.407" fill="#18254b"/>
      <path id="Trazado_103324" data-name="Trazado 103324" d="M889.087,703.419s-.62-9.628,4.324-8.238,3.773,11.08-1.852,10.894" fill="#fac4ad"/>
      <path id="Trazado_103325" data-name="Trazado 103325" d="M881.121,694.458c.222.488-.414,1.784-1.108,1.678s-4.091-.545-4.431-1.343a1.627,1.627,0,0,1,.719-1.942C876.771,692.687,880.846,693.852,881.121,694.458Z" fill="#18254b"/>
      <path id="Trazado_103326" data-name="Trazado 103326" d="M870.5,691.861c.247.46-.182,1.819-.807,1.791s-3.678-.085-4.062-.841a1.744,1.744,0,0,1,.435-2.01C866.463,690.586,870.19,691.29,870.5,691.861Z" fill="#18254b"/>
      <path id="Trazado_103327" data-name="Trazado 103327" d="M876.713,700.145a1.15,1.15,0,0,1-.8.007,1.127,1.127,0,0,1-.913-.866,2.616,2.616,0,0,1,.282-1.487,2.971,2.971,0,0,1,.41-.691.9.9,0,0,1,1.509-.012C877.643,697.763,877.593,699.751,876.713,700.145Z" fill="#092530"/>
      <path id="Trazado_103328" data-name="Trazado 103328" d="M868.334,698.119a1.15,1.15,0,0,1-.8.007,1.129,1.129,0,0,1-.914-.866,2.625,2.625,0,0,1,.282-1.487,2.954,2.954,0,0,1,.411-.691.9.9,0,0,1,1.508-.012C869.263,695.737,869.214,697.725,868.334,698.119Z" fill="#092530"/>
      <path id="Trazado_103329" data-name="Trazado 103329" d="M890.5,699.364a2.921,2.921,0,0,1,1.544-2.37,2,2,0,0,1,1.985.037,1.315,1.315,0,0,1,.362,1.818c-.22.274-.58.451-.683.786a1.438,1.438,0,0,0,.221.968,1.836,1.836,0,0,1-.109,1.99,1.211,1.211,0,0,1-1.176.316C891.383,702.565,890.414,700.556,890.5,699.364Z" fill="#f1917e"/>
      <path id="Trazado_103330" data-name="Trazado 103330" d="M893.133,762.051a37.845,37.845,0,0,0-4.978-1.952c-1.008-.13-1.529.773-1.268,1.3s3.09,2.217,3.09,2.217" fill="#fac4ad"/>
    </g>
  </g>
</svg>
