<svg xmlns="http://www.w3.org/2000/svg" width="761" height="336" viewBox="0 0 761 336">
  <g id="Grupo_55831" data-name="Grupo 55831" transform="translate(-159 -6039)">
    <rect id="Rectángulo_5932" data-name="Rectángulo 5932" width="157" height="50" rx="14" transform="translate(763 6039)" fill="#badb4c" opacity="0.5"/>
    <rect id="Rectángulo_5933" data-name="Rectángulo 5933" width="157" height="50" rx="14" transform="translate(763 6183)" fill="#f7a416" opacity="0.5"/>
    <rect id="Rectángulo_5934" data-name="Rectángulo 5934" width="157" height="50" rx="14" transform="translate(763 6325)" fill="#6393db" opacity="0.5"/>
    <text id="Procedencia_" data-name="Procedencia
" transform="translate(792 6052)" fill="#12263f" font-size="16" font-family="Roboto-Bold, Roboto" font-weight="700"><tspan x="0" y="17">Procedencia</tspan></text>
    <text id="Estructura_" data-name="Estructura
" transform="translate(792 6196)" fill="#12263f" font-size="16" font-family="Roboto-Bold, Roboto" font-weight="700"><tspan x="0" y="17">Estructura</tspan></text>
    <text id="Funciones_" data-name="Funciones
" transform="translate(792 6338)" fill="#12263f" font-size="16" font-family="Roboto-Bold, Roboto" font-weight="700"><tspan x="0" y="17">Funciones</tspan></text>
    <g id="Grupo_55762" data-name="Grupo 55762" transform="translate(-2374.111 5067.747)">
      <path id="Rectángulo_5932-2" data-name="Rectángulo 5932" d="M2551.823,1228.829h172.422c10.335,0,18.713,6.268,18.713,14v22c0,7.732-8.378,14-18.713,14H2551.823c-10.334,0-18.712-6.268-18.712-14v-22C2533.111,1235.1,2541.489,1228.829,2551.823,1228.829Z" fill="#b6c63b" opacity="0.2" style="isolation: isolate"/>
      <path id="Rectángulo_5932-3" data-name="Rectángulo 5932" d="M2861.309,1228.829h109.946c6.59,0,11.932,6.268,11.932,14v22c0,7.732-5.342,14-11.932,14H2861.309c-6.589,0-11.932-6.268-11.932-14v-22C2849.377,1235.1,2854.72,1228.829,2861.309,1228.829Z" fill="#b6c63b" opacity="0.2" style="isolation: isolate"/>
      <g id="Verificar_" data-name="Verificar ">
        <text id="Verificar" transform="translate(2599.014 1261.504)" fill="#212513" font-size="20" font-family="Roboto-Bold, Roboto" font-weight="700" style="isolation: isolate"><tspan x="0" y="0">Verificar</tspan></text>
      </g>
      <g id="Identificar_" data-name="Identificar ">
        <text id="Identificar" transform="translate(2875.152 1261.704)" fill="#212513" font-size="20" font-family="Roboto-Bold, Roboto" font-weight="700" style="isolation: isolate"><tspan x="0" y="0">Identificar</tspan></text>
      </g>
      <g id="Grupo_55843" data-name="Grupo 55843">
        <g id="Grupo_55825" data-name="Grupo 55825">
          <g id="Grupo_55787" data-name="Grupo 55787">
            <rect id="Rectángulo_5921" data-name="Rectángulo 5921" width="126.64" height="167.247" rx="16.826" transform="translate(2856.547 1049.893)" fill="#b2b925"/>
          </g>
          <g id="Grupo_55788" data-name="Grupo 55788">
            <rect id="Rectángulo_5922" data-name="Rectángulo 5922" width="109.98" height="150.348" transform="translate(2864.877 1058.343)" fill="#fff"/>
          </g>
          <g id="Grupo_55789" data-name="Grupo 55789">
            <path id="Trazado_103568" data-name="Trazado 103568" d="M2946.338,1046.864h-18.32a2.725,2.725,0,0,1-2.725-2.725h0a2.774,2.774,0,0,1,.361-1.349,6.625,6.625,0,1,0-11.577-.01,2.8,2.8,0,0,1,.366,1.36,2.725,2.725,0,0,1-2.725,2.725H2893.4a2.081,2.081,0,0,0-2.081,2.081h0V1061.2h57.1v-12.258a2.08,2.08,0,0,0-2.078-2.082Zm-26.469-5.713a1.968,1.968,0,1,1,1.968-1.968,1.968,1.968,0,0,1-1.968,1.968h0Z" fill="#1a1c12"/>
          </g>
          <g id="Grupo_55790" data-name="Grupo 55790">
            <path id="Trazado_103569" data-name="Trazado 103569" d="M2890.775,1093.6H2876.33v-14.443h14.445Zm-11.431-3.013h8.417v-8.418h-8.417Z" fill="#d0d0d1"/>
          </g>
          <g id="Grupo_55791" data-name="Grupo 55791">
            <path id="Trazado_103570" data-name="Trazado 103570" d="M2882.569,1090.062a1.292,1.292,0,0,1-1.219-.866c-.024-.068-2.4-6.786-5.778-9.872a1.291,1.291,0,0,1,1.742-1.907,25,25,0,0,1,5.049,7.5,29.242,29.242,0,0,1,7.461-10.862,1.292,1.292,0,0,1,1.68,1.963h0c-.061.052-6.047,5.268-7.67,13.013a1.293,1.293,0,0,1-1.18,1.024Z" fill="#8ba710"/>
          </g>
          <g id="Grupo_55792" data-name="Grupo 55792">
            <path id="Trazado_103571" data-name="Trazado 103571" d="M2890.775,1122.111H2876.33v-14.445h14.445Zm-11.431-3.014h8.417v-8.417h-8.417Z" fill="#d0d0d1"/>
          </g>
          <g id="Grupo_55793" data-name="Grupo 55793">
            <path id="Trazado_103572" data-name="Trazado 103572" d="M2882.569,1118.571a1.292,1.292,0,0,1-1.219-.866c-.024-.068-2.4-6.786-5.778-9.872a1.291,1.291,0,0,1,1.742-1.907h0a25,25,0,0,1,5.049,7.5,29.231,29.231,0,0,1,7.461-10.861,1.292,1.292,0,0,1,1.679,1.963c-.094.081-6.05,5.29-7.669,13.012a1.291,1.291,0,0,1-1.18,1.023A.362.362,0,0,1,2882.569,1118.571Z" fill="#8ba710"/>
          </g>
          <g id="Grupo_55794" data-name="Grupo 55794">
            <path id="Trazado_103573" data-name="Trazado 103573" d="M2890.775,1150.621H2876.33v-14.445h14.445Zm-11.431-3.014h8.417v-8.421h-8.417Z" fill="#d0d0d1"/>
          </g>
          <g id="Grupo_55795" data-name="Grupo 55795">
            <path id="Trazado_103574" data-name="Trazado 103574" d="M2882.569,1147.082a1.292,1.292,0,0,1-1.219-.866c-.024-.068-2.4-6.786-5.778-9.872a1.291,1.291,0,0,1,1.742-1.907h0a25,25,0,0,1,5.049,7.5,29.243,29.243,0,0,1,7.461-10.862,1.292,1.292,0,0,1,1.68,1.963h0c-.061.052-6.047,5.268-7.67,13.013a1.293,1.293,0,0,1-1.18,1.024Z" fill="#8ba710"/>
          </g>
          <g id="Grupo_55796" data-name="Grupo 55796">
            <path id="Trazado_103575" data-name="Trazado 103575" d="M2890.775,1179.131H2876.33v-14.445h14.445Zm-11.431-3.014h8.417V1167.7h-8.417Z" fill="#d0d0d1"/>
          </g>
          <g id="Grupo_55803" data-name="Grupo 55803">
            <g id="Grupo_55797" data-name="Grupo 55797">
              <path id="Trazado_103576" data-name="Trazado 103576" d="M2931.635,1083.473h-31.651a1.4,1.4,0,0,1-1.4-1.4h0a1.4,1.4,0,0,1,1.4-1.405h31.651a1.4,1.4,0,0,1,1.4,1.4v.005h0A1.4,1.4,0,0,1,2931.635,1083.473Z" fill="#727272"/>
            </g>
            <g id="Grupo_55798" data-name="Grupo 55798">
              <path id="Trazado_103577" data-name="Trazado 103577" d="M2959.942,1083.473h-19.549a1.4,1.4,0,0,1-1.4-1.4h0a1.4,1.4,0,0,1,1.4-1.405h19.554a1.4,1.4,0,0,1,1.4,1.4v.005h0A1.4,1.4,0,0,1,2959.942,1083.473Z" fill="#b4b2b2"/>
            </g>
            <g id="Grupo_55799" data-name="Grupo 55799">
              <path id="Trazado_103578" data-name="Trazado 103578" d="M2954.565,1089.189h-54.581a1.405,1.405,0,0,1-1.4-1.4h0a1.405,1.405,0,0,1,1.4-1.4h54.581a1.4,1.4,0,0,1,1.405,1.4h0A1.4,1.4,0,0,1,2954.565,1089.189Z" fill="#b4b2b2"/>
            </g>
            <g id="Grupo_55800" data-name="Grupo 55800">
              <path id="Trazado_103579" data-name="Trazado 103579" d="M2912.957,1094.9h-12.973a1.405,1.405,0,0,1-1.4-1.405h0a1.4,1.4,0,0,1,1.4-1.4h12.973a1.4,1.4,0,0,1,1.4,1.4h0a1.4,1.4,0,0,1-1.4,1.405Z" fill="#b4b2b2"/>
            </g>
            <g id="Grupo_55801" data-name="Grupo 55801">
              <path id="Trazado_103580" data-name="Trazado 103580" d="M2930.88,1094.9h-12.973a1.405,1.405,0,0,1-1.405-1.405h0a1.405,1.405,0,0,1,1.405-1.4h12.973a1.405,1.405,0,0,1,1.405,1.4h0a1.4,1.4,0,0,1-1.405,1.405Z" fill="#b4b2b2"/>
            </g>
            <g id="Grupo_55802" data-name="Grupo 55802">
              <path id="Trazado_103581" data-name="Trazado 103581" d="M2959.942,1094.9h-23.563a1.4,1.4,0,0,1-1.4-1.405h0a1.4,1.4,0,0,1,1.4-1.4h23.563a1.4,1.4,0,0,1,1.4,1.4h0a1.4,1.4,0,0,1-1.4,1.405Z" fill="#b4b2b2"/>
            </g>
          </g>
          <g id="Grupo_55808" data-name="Grupo 55808">
            <g id="Grupo_55804" data-name="Grupo 55804">
              <path id="Trazado_103582" data-name="Trazado 103582" d="M2959.942,1111.983h-59.958a1.4,1.4,0,0,1-1.4-1.4h0a1.405,1.405,0,0,1,1.4-1.405h59.958a1.4,1.4,0,0,1,1.4,1.4v.005h0A1.4,1.4,0,0,1,2959.942,1111.983Z" fill="#727272"/>
            </g>
            <g id="Grupo_55805" data-name="Grupo 55805">
              <path id="Trazado_103583" data-name="Trazado 103583" d="M2942.53,1117.7h-42.547a1.405,1.405,0,0,1-1.4-1.4h0a1.405,1.405,0,0,1,1.4-1.4h42.547a1.4,1.4,0,0,1,1.405,1.4h0A1.405,1.405,0,0,1,2942.53,1117.7Z" fill="#b4b2b2"/>
            </g>
            <g id="Grupo_55806" data-name="Grupo 55806">
              <path id="Trazado_103584" data-name="Trazado 103584" d="M2959.942,1117.7h-11.275a1.405,1.405,0,0,1-1.405-1.4h0a1.4,1.4,0,0,1,1.405-1.4h11.273a1.4,1.4,0,0,1,1.4,1.4v.005h0A1.4,1.4,0,0,1,2959.942,1117.7Z" fill="#b4b2b2"/>
            </g>
            <g id="Grupo_55807" data-name="Grupo 55807">
              <path id="Trazado_103585" data-name="Trazado 103585" d="M2931.635,1123.414h-31.651a1.4,1.4,0,0,1-1.4-1.4h0a1.4,1.4,0,0,1,1.4-1.4h31.651a1.4,1.4,0,0,1,1.4,1.4h0a1.4,1.4,0,0,1-1.4,1.4Z" fill="#b4b2b2"/>
            </g>
          </g>
          <g id="Grupo_55811" data-name="Grupo 55811">
            <g id="Grupo_55809" data-name="Grupo 55809">
              <path id="Trazado_103586" data-name="Trazado 103586" d="M2918.927,1194.7h-40.149a.942.942,0,0,1-.94-.941h0a.942.942,0,0,1,.94-.94h40.149a.941.941,0,0,1,.94.94h0A.942.942,0,0,1,2918.927,1194.7Z" fill="#1a1c12"/>
            </g>
            <g id="Grupo_55810" data-name="Grupo 55810">
              <path id="Trazado_103587" data-name="Trazado 103587" d="M2907.268,1198.522h-28.49a.942.942,0,0,1-.94-.941h0a.942.942,0,0,1,.94-.941h28.49a.942.942,0,0,1,.94.941h0A.942.942,0,0,1,2907.268,1198.522Z" fill="#1a1c12"/>
            </g>
          </g>
          <g id="Grupo_55816" data-name="Grupo 55816">
            <g id="Grupo_55812" data-name="Grupo 55812">
              <path id="Trazado_103588" data-name="Trazado 103588" d="M2921.567,1140.493h-21.583a1.4,1.4,0,0,1-1.4-1.4h0a1.405,1.405,0,0,1,1.4-1.405h21.583a1.405,1.405,0,0,1,1.4,1.405h0A1.4,1.4,0,0,1,2921.567,1140.493Z" fill="#727272"/>
            </g>
            <g id="Grupo_55813" data-name="Grupo 55813">
              <path id="Trazado_103589" data-name="Trazado 103589" d="M2959.942,1140.493h-32.4a1.4,1.4,0,0,1-1.405-1.4v-.005h0a1.405,1.405,0,0,1,1.405-1.405h32.4a1.4,1.4,0,0,1,1.4,1.4v.005h0A1.4,1.4,0,0,1,2959.942,1140.493Z" fill="#727272"/>
            </g>
            <g id="Grupo_55814" data-name="Grupo 55814">
              <path id="Rectángulo_5923" data-name="Rectángulo 5923" d="M2899.984,1143.4h31.651a1.4,1.4,0,0,1,1.405,1.4h0a1.405,1.405,0,0,1-1.405,1.405h-31.651a1.4,1.4,0,0,1-1.4-1.405h0A1.4,1.4,0,0,1,2899.984,1143.4Z" fill="#b4b2b2"/>
            </g>
            <g id="Grupo_55815" data-name="Grupo 55815">
              <path id="Rectángulo_5924" data-name="Rectángulo 5924" d="M2940.393,1143.4h19.548a1.4,1.4,0,0,1,1.405,1.4h0a1.4,1.4,0,0,1-1.405,1.405h-19.548a1.4,1.4,0,0,1-1.405-1.405h0A1.4,1.4,0,0,1,2940.393,1143.4Z" fill="#b4b2b2"/>
            </g>
          </g>
          <g id="Grupo_55822" data-name="Grupo 55822">
            <g id="Grupo_55817" data-name="Grupo 55817">
              <path id="Trazado_103590" data-name="Trazado 103590" d="M2943.3,1169h-43.315a1.4,1.4,0,0,1-1.4-1.4h0a1.405,1.405,0,0,1,1.4-1.405H2943.3a1.405,1.405,0,0,1,1.4,1.405h0A1.4,1.4,0,0,1,2943.3,1169Z" fill="#727272"/>
            </g>
            <g id="Grupo_55818" data-name="Grupo 55818">
              <path id="Trazado_103591" data-name="Trazado 103591" d="M2922.834,1174.718h-22.85a1.4,1.4,0,0,1-1.4-1.4h0a1.405,1.405,0,0,1,1.4-1.405h22.85a1.4,1.4,0,0,1,1.405,1.405h0A1.4,1.4,0,0,1,2922.834,1174.718Z" fill="#b4b2b2"/>
            </g>
            <g id="Grupo_55819" data-name="Grupo 55819">
              <path id="Trazado_103592" data-name="Trazado 103592" d="M2959.942,1174.718H2928.7a1.405,1.405,0,0,1-1.405-1.4h0a1.4,1.4,0,0,1,1.405-1.405h31.245a1.4,1.4,0,0,1,1.4,1.4v.005h0A1.4,1.4,0,0,1,2959.942,1174.718Z" fill="#b4b2b2"/>
            </g>
            <g id="Grupo_55820" data-name="Grupo 55820">
              <path id="Trazado_103593" data-name="Trazado 103593" d="M2940.994,1180.433h-41.01a1.405,1.405,0,0,1-1.4-1.405h0a1.4,1.4,0,0,1,1.4-1.4h41.01a1.4,1.4,0,0,1,1.406,1.4h0a1.4,1.4,0,0,1-1.4,1.405Z" fill="#b4b2b2"/>
            </g>
            <g id="Grupo_55821" data-name="Grupo 55821">
              <path id="Trazado_103594" data-name="Trazado 103594" d="M2959.942,1180.433H2947a1.405,1.405,0,0,1-1.4-1.405h0a1.4,1.4,0,0,1,1.4-1.4h12.938a1.4,1.4,0,0,1,1.4,1.4h0a1.4,1.4,0,0,1-1.4,1.405Z" fill="#b4b2b2"/>
            </g>
          </g>
          <g id="Grupo_55824" data-name="Grupo 55824">
            <g id="Grupo_55823" data-name="Grupo 55823">
              <path id="Trazado_103595" data-name="Trazado 103595" d="M2882.262,1170.681a2.739,2.739,0,0,1-.125-.9c0-3.185,2.5-3.477,2.5-7.1,0-1.041-.416-1.437-1.145-1.437s-1.145.4-1.145,1.437v1.582h-2.165v-1.437c0-2.331,1.145-3.664,3.372-3.664s3.372,1.333,3.372,3.664c0,3.789-2.706,4.371-2.706,7.036a3.646,3.646,0,0,0,.083.812Zm2.1,1.021v2.206h-2.207V1171.7Z" fill="#8ba710"/>
            </g>
          </g>
        </g>
        <g id="Grupo_55842" data-name="Grupo 55842">
          <path id="Trazado_103597" data-name="Trazado 103597" d="M2666.243,1165.844l-32.7,1.467h-66.77V1032.163h101.07v99.962Z" fill="#fff7c4"/>
          <g id="Grupo_55834" data-name="Grupo 55834" opacity="0.36">
            <g id="Grupo_55826" data-name="Grupo 55826">
              <rect id="Rectángulo_5925" data-name="Rectángulo 5925" width="11.431" height="11.431" transform="translate(2578.266 1051.494)" fill="#f2eaa8"/>
              <path id="Trazado_103598" data-name="Trazado 103598" d="M2590.557,1063.786H2577.4v-13.153h13.153Zm-11.431-1.722h9.709v-9.709h-9.709Z" fill="#1a1c12"/>
            </g>
            <g id="Grupo_55827" data-name="Grupo 55827">
              <rect id="Rectángulo_5926" data-name="Rectángulo 5926" width="11.431" height="11.431" transform="translate(2578.266 1080.004)" fill="#f2eaa8"/>
              <path id="Trazado_103599" data-name="Trazado 103599" d="M2590.557,1092.3H2577.4v-13.154h13.153Zm-11.431-1.722h9.709v-9.711h-9.709Z" fill="#1a1c12"/>
            </g>
            <g id="Grupo_55828" data-name="Grupo 55828">
              <rect id="Rectángulo_5927" data-name="Rectángulo 5927" width="11.431" height="11.431" transform="translate(2578.266 1108.514)" fill="#f2eaa8"/>
              <path id="Trazado_103600" data-name="Trazado 103600" d="M2590.557,1120.806H2577.4v-13.153h13.153Zm-11.431-1.722h9.709v-9.706h-9.709Z" fill="#1a1c12"/>
            </g>
            <g id="Grupo_55829" data-name="Grupo 55829">
              <rect id="Rectángulo_5928" data-name="Rectángulo 5928" width="11.431" height="11.431" transform="translate(2578.266 1137.024)" fill="#f2eaa8"/>
              <path id="Trazado_103601" data-name="Trazado 103601" d="M2590.557,1149.317H2577.4v-13.154h13.153Zm-11.431-1.722h9.709v-9.709h-9.709Z" fill="#1a1c12"/>
            </g>
            <g id="Grupo_55830" data-name="Grupo 55830">
              <path id="Trazado_103602" data-name="Trazado 103602" d="M2632.065,1054.3h-31.651a1.4,1.4,0,0,1-1.4-1.4h0a1.4,1.4,0,0,1,1.4-1.405h31.656a1.405,1.405,0,0,1,1.4,1.405h0A1.4,1.4,0,0,1,2632.065,1054.3Z" fill="#1a1c12"/>
              <path id="Trazado_103603" data-name="Trazado 103603" d="M2660.372,1054.3h-19.549a1.405,1.405,0,0,1-1.405-1.4h0a1.405,1.405,0,0,1,1.405-1.405h19.549a1.405,1.405,0,0,1,1.4,1.405h0A1.4,1.4,0,0,1,2660.372,1054.3Z" fill="#1a1c12"/>
              <path id="Trazado_103604" data-name="Trazado 103604" d="M2655,1060.02h-54.581a1.4,1.4,0,0,1-1.4-1.4v-.005h0a1.4,1.4,0,0,1,1.4-1.4H2655a1.4,1.4,0,0,1,1.4,1.4h0a1.4,1.4,0,0,1-1.4,1.405Z" fill="#1a1c12"/>
              <path id="Trazado_103605" data-name="Trazado 103605" d="M2613.387,1065.735h-12.973a1.4,1.4,0,0,1-1.4-1.4v-.005h0a1.4,1.4,0,0,1,1.4-1.4h12.973a1.4,1.4,0,0,1,1.4,1.4h0A1.405,1.405,0,0,1,2613.387,1065.735Z" fill="#1a1c12"/>
              <path id="Trazado_103606" data-name="Trazado 103606" d="M2631.31,1065.735h-12.968a1.4,1.4,0,0,1-1.406-1.4h0a1.4,1.4,0,0,1,1.4-1.4h12.978a1.4,1.4,0,0,1,1.405,1.395v.005h0a1.4,1.4,0,0,1-1.405,1.405Z" fill="#1a1c12"/>
              <path id="Trazado_103607" data-name="Trazado 103607" d="M2660.372,1065.735h-23.563a1.405,1.405,0,0,1-1.4-1.405h0a1.4,1.4,0,0,1,1.4-1.4h23.564a1.4,1.4,0,0,1,1.4,1.4h0A1.4,1.4,0,0,1,2660.372,1065.735Z" fill="#1a1c12"/>
            </g>
            <g id="Grupo_55831-2" data-name="Grupo 55831">
              <path id="Trazado_103608" data-name="Trazado 103608" d="M2660.372,1082.814h-59.958a1.4,1.4,0,0,1-1.4-1.4h0a1.4,1.4,0,0,1,1.4-1.4h59.963a1.405,1.405,0,0,1,1.4,1.4h0A1.4,1.4,0,0,1,2660.372,1082.814Z" fill="#1a1c12"/>
              <path id="Trazado_103609" data-name="Trazado 103609" d="M2642.96,1088.53h-42.547a1.4,1.4,0,0,1-1.4-1.4v-.005h0a1.4,1.4,0,0,1,1.4-1.4h42.547a1.405,1.405,0,0,1,1.405,1.4h0a1.4,1.4,0,0,1-1.405,1.405Z" fill="#1a1c12"/>
              <path id="Trazado_103610" data-name="Trazado 103610" d="M2660.372,1088.53H2649.1a1.405,1.405,0,0,1-1.4-1.405h0a1.4,1.4,0,0,1,1.4-1.4h11.273a1.4,1.4,0,0,1,1.4,1.4h0A1.405,1.405,0,0,1,2660.372,1088.53Z" fill="#1a1c12"/>
              <path id="Trazado_103611" data-name="Trazado 103611" d="M2632.065,1094.245h-31.651a1.4,1.4,0,0,1-1.4-1.4v-.005h0a1.4,1.4,0,0,1,1.4-1.4h31.651a1.4,1.4,0,0,1,1.4,1.4h0A1.405,1.405,0,0,1,2632.065,1094.245Z" fill="#1a1c12"/>
            </g>
            <g id="Grupo_55832" data-name="Grupo 55832">
              <path id="Trazado_103612" data-name="Trazado 103612" d="M2622,1111.324h-21.582a1.4,1.4,0,0,1-1.4-1.4h0a1.4,1.4,0,0,1,1.4-1.4H2622a1.4,1.4,0,0,1,1.406,1.4h0A1.405,1.405,0,0,1,2622,1111.324Z" fill="#1a1c12"/>
              <path id="Trazado_103613" data-name="Trazado 103613" d="M2660.371,1111.324h-32.4a1.406,1.406,0,0,1-1.406-1.4h0a1.4,1.4,0,0,1,1.405-1.4h32.4a1.4,1.4,0,0,1,1.4,1.4v.005h0A1.4,1.4,0,0,1,2660.371,1111.324Z" fill="#1a1c12"/>
              <path id="Rectángulo_5929" data-name="Rectángulo 5929" d="M2600.413,1114.23h31.651a1.4,1.4,0,0,1,1.405,1.405h0a1.4,1.4,0,0,1-1.405,1.405h-31.651a1.4,1.4,0,0,1-1.405-1.405h0A1.4,1.4,0,0,1,2600.413,1114.23Z" fill="#1a1c12"/>
              <path id="Rectángulo_5930" data-name="Rectángulo 5930" d="M2640.822,1114.23h19.548a1.4,1.4,0,0,1,1.4,1.405h0a1.4,1.4,0,0,1-1.4,1.405h-19.548a1.4,1.4,0,0,1-1.405-1.405h0A1.4,1.4,0,0,1,2640.822,1114.23Z" fill="#1a1c12"/>
            </g>
            <g id="Grupo_55833" data-name="Grupo 55833">
              <path id="Trazado_103614" data-name="Trazado 103614" d="M2643.728,1139.834h-43.315a1.4,1.4,0,0,1-1.4-1.4h0a1.4,1.4,0,0,1,1.4-1.4h43.32a1.4,1.4,0,0,1,1.405,1.4h0A1.405,1.405,0,0,1,2643.728,1139.834Z" fill="#1a1c12"/>
              <path id="Trazado_103615" data-name="Trazado 103615" d="M2623.26,1145.55h-22.85a1.4,1.4,0,0,1-1.4-1.4v-.005h0a1.4,1.4,0,0,1,1.4-1.4h22.85a1.405,1.405,0,0,1,1.405,1.4h0a1.405,1.405,0,0,1-1.405,1.405Z" fill="#1a1c12"/>
              <path id="Trazado_103616" data-name="Trazado 103616" d="M2660.372,1145.55h-31.245a1.405,1.405,0,0,1-1.405-1.405h0a1.405,1.405,0,0,1,1.405-1.4h31.245a1.405,1.405,0,0,1,1.4,1.4h0A1.405,1.405,0,0,1,2660.372,1145.55Z" fill="#1a1c12"/>
              <path id="Trazado_103617" data-name="Trazado 103617" d="M2641.424,1151.265h-41.01a1.4,1.4,0,0,1-1.4-1.4v-.005h0a1.4,1.4,0,0,1,1.4-1.4h41.01a1.4,1.4,0,0,1,1.405,1.4v.005h0a1.405,1.405,0,0,1-1.405,1.405Z" fill="#1a1c12"/>
              <path id="Trazado_103618" data-name="Trazado 103618" d="M2660.372,1151.265h-12.936a1.405,1.405,0,0,1-1.4-1.405h0a1.4,1.4,0,0,1,1.4-1.4h12.938a1.4,1.4,0,0,1,1.4,1.4h0a1.4,1.4,0,0,1-1.4,1.405Z" fill="#1a1c12"/>
            </g>
          </g>
          <g id="Grupo_55837" data-name="Grupo 55837">
            <path id="Trazado_103619" data-name="Trazado 103619" d="M2680.7,1142.171l1.4-2.566-27.878-28.324-6.311-3.368,9.325,17.129Z" fill="#d4966b"/>
            <rect id="Rectángulo_5931" data-name="Rectángulo 5931" width="6.894" height="19.186" transform="translate(2625.513 1099.208) rotate(-45)" fill="#141414"/>
            <path id="Trazado_103620" data-name="Trazado 103620" d="M2634.089,1111.6l25.073,25.074a6.15,6.15,0,0,0,8.7,0l0,0h0a6.15,6.15,0,0,0,0-8.7l0,0-25.074-25.074Z" fill="#1c1c1c"/>
            <circle id="Elipse_4326" data-name="Elipse 4326" cx="23.601" cy="23.601" r="23.601" transform="translate(2587.345 1056.351)" fill="#9ad0d5" opacity="0.73" style="isolation: isolate"/>
            <g id="Grupo_55836" data-name="Grupo 55836">
              <path id="Trazado_103621" data-name="Trazado 103621" d="M2590.267,1059.086a29.622,29.622,0,1,0,41.892,0,29.622,29.622,0,0,0-41.892,0Zm4.793,4.793a22.844,22.844,0,1,1,0,32.306h0a22.843,22.843,0,0,1,0-32.305Z" fill="#1c1c1c"/>
              <g id="Grupo_55835" data-name="Grupo 55835">
                <path id="Trazado_103622" data-name="Trazado 103622" d="M2596.044,1077.209a.974.974,0,0,0,.412-.623,14.706,14.706,0,0,1,17.241-11.629.976.976,0,0,0,.373-1.917,16.658,16.658,0,0,0-19.53,13.173.976.976,0,0,0,1.5,1Z" fill="#fff"/>
              </g>
            </g>
          </g>
          <path id="Trazado_103623" data-name="Trazado 103623" d="M2646.349,1124.589c2.4-3.311,7.029-4.246,10.131-2.047l22.137,17.907-16.591-18.3-14.116-14.237,29.314,1.619a9.275,9.275,0,0,1,6.832,3.592l23.929,30.963a37.3,37.3,0,0,0,23.572,15.82l3.473.989.168,18.931-11.53,12.252-19.846-11.438a60.545,60.545,0,0,1-14.114-11.247c-5.151-5.544-12.739-11.721-16.892-15.1l-25.633-20.844A6.41,6.41,0,0,1,2646.349,1124.589Z" fill="#f9c193"/>
          <g id="Grupo_55839" data-name="Grupo 55839">
            <g id="Grupo_55838" data-name="Grupo 55838">
              <path id="Trazado_103624" data-name="Trazado 103624" d="M2657.437,1133.861l.93-1.179a4.151,4.151,0,0,0-.419-5.668l-3.461-3.068a4.583,4.583,0,0,0-6.476.266c-.062.068-.123.138-.182.21l-1.12,1.42a4.429,4.429,0,0,0,.8,6.212,4.154,4.154,0,0,0,.376.261l3.873,2.546A4.3,4.3,0,0,0,2657.437,1133.861Z" fill="#fee3d4"/>
            </g>
          </g>
          <path id="Trazado_103625" data-name="Trazado 103625" d="M2729.716,1157.734l-11.545-5.847-20.54,29.732,15.156,8.5Z" fill="#ebebeb"/>
          <path id="Trazado_103626" data-name="Trazado 103626" d="M2735.375,1209.631l-26.711-13.783,22.154-41.145,4.557,2.043Z" fill="#252525"/>
          <path id="Trazado_103627" data-name="Trazado 103627" d="M2706.141,1182.314a1.692,1.692,0,1,0-.072-2.392,1.692,1.692,0,0,0,.072,2.392Z" fill="#252525"/>
          <path id="Trazado_103628" data-name="Trazado 103628" d="M2579.993,1114.093c-4.058-.519-7.909,2.209-8.434,5.975l-3.7,27.053a.207.207,0,0,1-.411-.022l-.673-23.207V1103.8l-18.912,22.456a9.28,9.28,0,0,0-2.066,7.437l6.15,38.646a37.3,37.3,0,0,1-4.634,28.007l-5.273,8.731,13.256-.775,22.751.32,3.373-14.262a60.52,60.52,0,0,0,1.482-17.986c-.507-7.551.2-17.31.582-22.648l2.387-32.953A6.41,6.41,0,0,0,2579.993,1114.093Z" fill="#f9c193"/>
          <g id="Grupo_55841" data-name="Grupo 55841">
            <g id="Grupo_55840" data-name="Grupo 55840">
              <path id="Trazado_103629" data-name="Trazado 103629" d="M2579.147,1128.52l-1.5-.13a4.15,4.15,0,0,1-3.839-4.19l.137-4.623a4.582,4.582,0,0,1,4.63-4.533c.093,0,.185,0,.278.011l1.8.157a4.428,4.428,0,0,1,3.974,4.84,4.567,4.567,0,0,1-.068.452l-.8,4.566A4.3,4.3,0,0,1,2579.147,1128.52Z" fill="#fee3d4"/>
            </g>
          </g>
          <path id="Trazado_103630" data-name="Trazado 103630" d="M2547,1197.519l3.654-12.414,35.728,5.419-4.2,16.861Z" fill="#ebebeb"/>
          <path id="Trazado_103631" data-name="Trazado 103631" d="M2588.847,1209.631l.333-1.322-45.146-12.065-5.085,13.387Z" fill="#252525"/>
          <path id="Trazado_103632" data-name="Trazado 103632" d="M2581.058,1197.2a1.692,1.692,0,1,1-1.692-1.692h0A1.693,1.693,0,0,1,2581.058,1197.2Z" fill="#252525"/>
        </g>
      </g>
      <path id="Trazado_103507" data-name="Trazado 103507" d="M3108.243,1283.4h-43.865a26.4,26.4,0,0,1-18.273-7.568,25.763,25.763,0,0,1-7.568-18.273V1022.274a25.841,25.841,0,0,1,25.841-25.841h46.144" fill="none" stroke="#8ea02a" stroke-miterlimit="10" stroke-width="2"/>
      <line id="Línea_153" data-name="Línea 153" x1="71.985" transform="translate(3038.537 1142.374)" fill="none" stroke="#8ea02a" stroke-miterlimit="10" stroke-width="2"/>
      <line id="Línea_154" data-name="Línea 154" x1="39.789" transform="translate(2991.168 1142.374)" fill="none" stroke="#8ea02a" stroke-miterlimit="10" stroke-width="2"/>
      <line id="Línea_155" data-name="Línea 155" x1="104.589" transform="translate(2742.958 1142.374)" fill="none" stroke="#8ea02a" stroke-miterlimit="10" stroke-width="2"/>
      <circle id="Elipse_4325" data-name="Elipse 4325" cx="5.48" cy="5.48" r="5.48" transform="translate(3105.042 991.625)" fill="#fca01f" stroke="#8ea02a" stroke-miterlimit="10" stroke-width="2"/>
      <circle id="Elipse_4326-2" data-name="Elipse 4326" cx="5.48" cy="5.48" r="5.48" transform="translate(3105.042 1136.894)" fill="#fca01f" stroke="#8ea02a" stroke-miterlimit="10" stroke-width="2"/>
      <circle id="Elipse_4327" data-name="Elipse 4327" cx="5.48" cy="5.48" r="5.48" transform="translate(3105.042 1277.921)" fill="#fca01f" stroke="#8ea02a" stroke-miterlimit="10" stroke-width="2"/>
      <path id="Trazado_103596" data-name="Trazado 103596" d="M2802.569,1131.11l-7.471-6.625,9.421-8.37h-38.9V1106.6h38.417l.123-.37-9.061-8.067,7.466-6.621,22.323,19.784Z" fill="#f17900"/>
    </g>
  </g>
</svg>
