<svg xmlns="http://www.w3.org/2000/svg" width="43.954" height="44.465" viewBox="0 0 43.954 44.465">
  <g id="search" transform="translate(0 0)">
    <path id="Trazado_102885" data-name="Trazado 102885" d="M43.945,9.587a.711.711,0,0,0-.038-.19c-.008-.024-.014-.047-.024-.07a.744.744,0,0,0-.148-.217L34.842.217a.729.729,0,0,0-.218-.148c-.022-.01-.045-.016-.067-.024a.729.729,0,0,0-.194-.039C34.35.008,34.336,0,34.321,0H12.088A3.71,3.71,0,0,0,8.383,3.705V9.16a14.053,14.053,0,0,0,0,25.716V40.76a3.71,3.71,0,0,0,3.705,3.705H40.249a3.71,3.71,0,0,0,3.705-3.705V9.634c0-.016-.008-.03-.009-.047Zm-2.521-.694H35.8a.741.741,0,0,1-.741-.741V2.53ZM1.5,22.017a12.582,12.582,0,0,1,12.6-12.6q.632,0,1.252.061A12.564,12.564,0,0,1,26.539,20.131a12.723,12.723,0,0,1,.155,1.887,12.6,12.6,0,0,1-25.2,0ZM22.7,33.15c.1-.079.2-.156.3-.237a13.869,13.869,0,0,0,1.05-.938,13.929,13.929,0,0,0,.938-1.049c.081-.1.158-.2.237-.3.09-.117.187-.228.273-.348L31.819,36.6a2.206,2.206,0,0,1,0,3.135,2.257,2.257,0,0,1-3.138,0l-6.326-6.315c.119-.087.231-.183.348-.273Zm17.546,9.833H12.088A2.223,2.223,0,0,1,9.865,40.76V35.454c.046.015.094.025.141.039.119.036.239.065.359.1.277.074.557.148.839.2.139.029.277.056.417.08.282.05.567.089.853.122.128.014.254.033.382.043.411.035.824.058,1.241.058a13.988,13.988,0,0,0,6.981-1.86l6.553,6.546a3.705,3.705,0,1,0,5.237-5.233L26.317,29a13.984,13.984,0,0,0,1.86-6.98q0-.7-.068-1.4A14.077,14.077,0,0,0,14.1,7.937c-.417,0-.83.023-1.241.058-.128.011-.255.029-.382.044q-.428.048-.851.122-.211.037-.421.081c-.279.058-.555.126-.829.2-.123.033-.246.063-.371.1-.046.014-.093.024-.139.039V3.705a2.223,2.223,0,0,1,2.223-2.223H33.579v6.67A2.223,2.223,0,0,0,35.8,10.375h6.67V40.76a2.223,2.223,0,0,1-2.223,2.223Zm0,0" fill="#95af3d"/>
    <path id="Trazado_102886" data-name="Trazado 102886" d="M156.274,48.741a.741.741,0,0,0-.741-.741h-16.3a.741.741,0,0,0,0,1.482h16.3A.741.741,0,0,0,156.274,48.741Zm0,0" transform="translate(-125.659 -43.554)" fill="#95af3d"/>
    <path id="Trazado_102887" data-name="Trazado 102887" d="M324.122,192h-8.893a.741.741,0,1,0,0,1.482h8.893a.741.741,0,1,0,0-1.482Zm0,0" transform="translate(-285.355 -174.214)" fill="#95af3d"/>
    <path id="Trazado_102888" data-name="Trazado 102888" d="M324.122,240h-8.893a.741.741,0,0,0,0,1.482h8.893a.741.741,0,1,0,0-1.482Zm0,0" transform="translate(-285.355 -217.768)" fill="#95af3d"/>
    <path id="Trazado_102889" data-name="Trazado 102889" d="M317.6,288.741a.741.741,0,0,0-.741-.741h-9.634a.741.741,0,0,0,0,1.482h9.634A.741.741,0,0,0,317.6,288.741Zm0,0" transform="translate(-278.096 -261.321)" fill="#95af3d"/>
    <path id="Trazado_102890" data-name="Trazado 102890" d="M346.64,336.741A.741.741,0,0,0,345.9,336h-6.67a.741.741,0,0,0,0,1.482h6.67A.741.741,0,0,0,346.64,336.741Zm0,0" transform="translate(-307.132 -304.875)" fill="#95af3d"/>
    <path id="Trazado_102891" data-name="Trazado 102891" d="M257.9,96.741a.741.741,0,0,0-.741-.741h-5.929a.741.741,0,1,0,0,1.482h5.929A.741.741,0,0,0,257.9,96.741Zm0,0" transform="translate(-227.284 -87.107)" fill="#95af3d"/>
    <path id="Trazado_102892" data-name="Trazado 102892" d="M303.086,144.741a.741.741,0,0,0-.741-.741H291.229a.741.741,0,0,0,0,1.482h11.116A.741.741,0,0,0,303.086,144.741Zm0,0" transform="translate(-263.578 -130.661)" fill="#95af3d"/>
    <path id="Trazado_102893" data-name="Trazado 102893" d="M115.229,185.482h5.188a.741.741,0,0,0,0-1.482h-5.188a.741.741,0,1,0,0,1.482Zm0,0" transform="translate(-103.882 -166.955)" fill="#95af3d"/>
    <path id="Trazado_102894" data-name="Trazado 102894" d="M95.086,232.741a.741.741,0,0,0-.741-.741H83.229a.741.741,0,0,0,0,1.482H94.345A.741.741,0,0,0,95.086,232.741Zm0,0" transform="translate(-74.846 -210.509)" fill="#95af3d"/>
    <path id="Trazado_102895" data-name="Trazado 102895" d="M120.417,280h-5.188a.741.741,0,1,0,0,1.482h5.188a.741.741,0,0,0,0-1.482Zm0,0" transform="translate(-103.882 -254.062)" fill="#95af3d"/>
    <path id="Trazado_102896" data-name="Trazado 102896" d="M48.545,138.6a10.868,10.868,0,0,0,4.323-4.194c.059-.1.122-.2.177-.305.029-.054.051-.109.079-.162.113-.216.222-.433.319-.654s.174-.432.253-.65c.023-.063.052-.124.074-.188a11.122,11.122,0,1,0-5.226,6.158Zm-9.894-1.32a9.561,9.561,0,0,1-2.194-1.644,9.758,9.758,0,0,1-1.209-1.471q-.263-.393-.484-.807a9.635,9.635,0,1,1,16.977.043v.006a9.471,9.471,0,0,1-3.892,3.89,9.606,9.606,0,0,1-9.2-.014Zm0,0" transform="translate(-29.173 -106.812)" fill="#95af3d"/>
    <path id="Trazado_102897" data-name="Trazado 102897" d="M383.676,384a.741.741,0,0,0-.741.741v2.964a.741.741,0,0,1-.741.741h-2.964a.741.741,0,0,0,0,1.482h2.964a2.223,2.223,0,0,0,2.223-2.223v-2.964A.741.741,0,0,0,383.676,384Zm0,0" transform="translate(-343.426 -348.428)" fill="#95af3d"/>
  </g>
</svg>
