<svg id="save" xmlns="http://www.w3.org/2000/svg" width="41.688" height="41.688" viewBox="0 0 41.688 41.688">
  <path id="Trazado_102877" data-name="Trazado 102877" d="M39.6,18.065H33.35V6.948a1.39,1.39,0,0,0-1.39-1.39H22.233a.7.7,0,0,0-.2-.491L17.166.2a.7.7,0,0,0-.491-.2H1.39A1.39,1.39,0,0,0,0,1.39V22.233a1.39,1.39,0,0,0,1.39,1.39H4.169V39.6a2.084,2.084,0,0,0,2.084,2.084H35.434A2.084,2.084,0,0,0,37.519,39.6V29.181h3.474a.7.7,0,0,0,.695-.695V20.149A2.084,2.084,0,0,0,39.6,18.065ZM11.117,1.39v1.39H8.338V1.39Zm-4.169,0V3.474a.7.7,0,0,0,.695.695h4.169a.7.7,0,0,0,.695-.695V1.39H13.9V5.558H4.169V1.39Zm-5.558,0h1.39V6.253a.7.7,0,0,0,.695.695H14.591a.7.7,0,0,0,.695-.695V1.39h1.1l4.456,4.456V22.233h-1.39V13.2a.7.7,0,0,0-.695-.695H3.474a.7.7,0,0,0-.695.695v9.032H1.39ZM4.169,22.233V13.9h13.9v8.338ZM5.558,39.6V23.623H20.844a1.39,1.39,0,0,0,1.39-1.39V6.948H31.96V39.6a2.059,2.059,0,0,0,.128.695H6.253a.7.7,0,0,1-.695-.695Zm30.571,0a.7.7,0,0,1-.695.695h-1.39a.7.7,0,0,1-.695-.695V19.454h2.907a2.059,2.059,0,0,0-.128.695ZM40.3,27.792H37.519V20.149a.7.7,0,0,1,.695-.695H39.6a.7.7,0,0,1,.695.695Zm0,0" fill="#95af3d"/>
  <path id="Trazado_102878" data-name="Trazado 102878" d="M272,128h5.558v1.39H272Zm0,0" transform="translate(-248.377 -116.883)" fill="#95af3d"/>
  <path id="Trazado_102879" data-name="Trazado 102879" d="M272,160h5.558v1.39H272Zm0,0" transform="translate(-248.377 -146.104)" fill="#95af3d"/>
  <path id="Trazado_102880" data-name="Trazado 102880" d="M272,192h5.558v1.39H272Zm0,0" transform="translate(-248.377 -175.325)" fill="#95af3d"/>
  <path id="Trazado_102881" data-name="Trazado 102881" d="M96,304h20.844v1.39H96Zm0,0" transform="translate(-87.663 -277.598)" fill="#95af3d"/>
  <path id="Trazado_102882" data-name="Trazado 102882" d="M96,336h20.844v1.39H96Zm0,0" transform="translate(-87.663 -306.819)" fill="#95af3d"/>
  <path id="Trazado_102883" data-name="Trazado 102883" d="M96,368h20.844v1.39H96Zm0,0" transform="translate(-87.663 -336.04)" fill="#95af3d"/>
  <path id="Trazado_102884" data-name="Trazado 102884" d="M96,400h20.844v1.39H96Zm0,0" transform="translate(-87.663 -365.26)" fill="#95af3d"/>
</svg>
