<svg xmlns="http://www.w3.org/2000/svg" width="43.465" height="43.465" viewBox="0 0 43.465 43.465">
  <g id="sistema-de-gestion-de-contenidos" transform="translate(-1 -1)">
    <circle id="Elipse_4298" data-name="Elipse 4298" cx="0.535" cy="0.535" r="0.535" transform="translate(13.426 3.794)" fill="#95af3d"/>
    <path id="Trazado_102862" data-name="Trazado 102862" d="M23,5h9.815V6.4H23Z" transform="translate(-6.577 -1.196)" fill="#95af3d"/>
    <path id="Trazado_102863" data-name="Trazado 102863" d="M31,13h7.011v1.4H31Z" transform="translate(-8.968 -3.587)" fill="#95af3d"/>
    <path id="Trazado_102864" data-name="Trazado 102864" d="M39,17h1.4v1.4H39Z" transform="translate(-11.36 -4.783)" fill="#95af3d"/>
    <path id="Trazado_102865" data-name="Trazado 102865" d="M31,17h4.206v1.4H31Z" transform="translate(-8.968 -4.783)" fill="#95af3d"/>
    <path id="Trazado_102866" data-name="Trazado 102866" d="M31,21h7.011v1.4H31Z" transform="translate(-8.968 -5.979)" fill="#95af3d"/>
    <path id="Trazado_102867" data-name="Trazado 102867" d="M31,25h7.011v1.4H31Z" transform="translate(-8.968 -7.175)" fill="#95af3d"/>
    <path id="Trazado_102868" data-name="Trazado 102868" d="M44.465,44.3V30.795l-2.928-2.2-.9-2.254a6.269,6.269,0,0,0-1.4-2.118l-4.588-4.589V4.505A3.509,3.509,0,0,0,31.145,1H8.712A3.509,3.509,0,0,0,5.206,4.505V20.923L3.271,22.857A7.7,7.7,0,0,0,1,28.341a7.855,7.855,0,0,0,.105,1.275L2.2,36.158a12.836,12.836,0,0,0,.744,2.658L3.8,40.978v3.487h9.815V41.1l.484-1.209c.135-.339.25-.683.356-1.029H35.391Zm-1.4-2.478-8.684-5.21,6.647-6.647L43.063,31.5ZM39.334,26.866l.8,2.007L33,36.011l-2.985-.426A4.909,4.909,0,0,1,27.568,34.5l-1.424-1.186a6.322,6.322,0,0,0-2.71-1.314v-.149H22a.669.669,0,0,1-.372-1.225l.261-.175a4.187,4.187,0,0,1,5.284.524l.672.671.991-.991-.671-.671-9.41-9.41a.786.786,0,0,1,1.112-1.112l5.608,5.608,3.07,3.07.991-.991-3.07-3.07a.786.786,0,0,1,.556-1.342.783.783,0,0,1,.556.23l3.07,3.07.991-.991-3.07-3.07a.786.786,0,0,1,1.112-1.112l1.4,1.4,1.668,1.668.991-.991L32.076,21.27a.786.786,0,0,1,1.112-1.112l5.06,5.06a4.873,4.873,0,0,1,1.086,1.647ZM22,33.248h.032v1.4H17.825v-1.4ZM14.484,27.64h3.341V23.434H13.619V25.41a2.331,2.331,0,0,0-3.8,1.2l-.411,1.643V8.011H30.444V19.679a2.173,2.173,0,0,0-3.5,1.659,2.186,2.186,0,0,0-1.92,1.295l-4.167-4.167a2.257,2.257,0,0,0-.23-.189V9.413H10.815v9.815h6.462a2.051,2.051,0,0,0-.054,1.4H10.815v1.4h7.421l1.4,1.4h-.411V27.64h4.206v-.411l1.129,1.129c-.116-.007-.232-.017-.35-.017a5.559,5.559,0,0,0-2.681.7h-6.94Zm.537-1.4v-1.4h1.4v1.4Zm0-15.423h1.4v1.4h-1.4Zm2.8,2.8v-2.8h1.4v7.011H12.217V10.815h1.4v2.8Zm2.8,11.217h.411l.991.991v.411h-1.4ZM6.608,4.505a2.106,2.106,0,0,1,2.1-2.1H31.145a2.106,2.106,0,0,1,2.1,2.1V18.624a2.051,2.051,0,0,0-1.4.054V6.608H8.011V32.343c-.088.191-.173.386-.268.574a.6.6,0,0,1-1.134-.267Zm5.608,38.558H5.206v-1.4h7.011Zm.584-3.7-.358.893H5.027l-.785-1.964a11.478,11.478,0,0,1-.662-2.367L2.488,29.386A6.448,6.448,0,0,1,2.4,28.341a6.31,6.31,0,0,1,1.861-4.492l.944-.944V32.65A2,2,0,0,0,9,33.544a22,22,0,0,0,1.661-4.491l.526-2.1a.942.942,0,0,1,1.853.156l.549,7.131q.033.437.033.878a11.4,11.4,0,0,1-.818,4.249Zm2-1.911a12.816,12.816,0,0,0,.218-2.338q0-.493-.038-.985L14.7,30.444h5.378a2.062,2.062,0,0,0-.15.733,2.037,2.037,0,0,0,.121.669H16.423v4.206h7.011v-2.6a4.9,4.9,0,0,1,1.812.935l1.424,1.186a6.3,6.3,0,0,0,3.147,1.4l3.192.456.046.027Z" fill="#95af3d"/>
  </g>
</svg>
