<svg id="Grupo_55629" data-name="Grupo 55629" xmlns="http://www.w3.org/2000/svg" xmlns:xlink="http://www.w3.org/1999/xlink" width="63.121" height="87.311" viewBox="0 0 63.121 87.311">
  <defs>
    <clipPath id="clip-path">
      <rect id="Rectángulo_5756" data-name="Rectángulo 5756" width="21.53" height="7.238" fill="#212513"/>
    </clipPath>
  </defs>
  <g id="Grupo_55618" data-name="Grupo 55618" transform="translate(0 0)">
    <g id="Grupo_55617" data-name="Grupo 55617">
      <g id="Grupo_55614" data-name="Grupo 55614" transform="translate(0 3.071)">
        <rect id="Rectángulo_5751" data-name="Rectángulo 5751" width="62.571" height="83.477" transform="translate(0.275 0.275)" fill="#8ea02a"/>
        <rect id="Rectángulo_5752" data-name="Rectángulo 5752" width="54.912" height="74.779" transform="translate(4.104 5.901)" fill="#161d22" opacity="0.2" style="mix-blend-mode: multiply;isolation: isolate"/>
        <rect id="Rectángulo_5753" data-name="Rectángulo 5753" width="54.912" height="74.779" transform="translate(4.104 4.624)" fill="#fff"/>
        <path id="Trazado_103213" data-name="Trazado 103213" d="M870.2,635.248v-5.471h5.47Z" transform="translate(-870.197 -629.778)" fill="#212513"/>
        <path id="Trazado_103214" data-name="Trazado 103214" d="M922.136,635.248v-5.471h-5.47Z" transform="translate(-859.015 -629.778)" fill="#212513"/>
        <path id="Trazado_103215" data-name="Trazado 103215" d="M870.2,693.268v5.471h5.47Z" transform="translate(-870.197 -614.499)" fill="#212513"/>
        <path id="Trazado_103216" data-name="Trazado 103216" d="M922.136,693.268v5.471h-5.47Z" transform="translate(-859.015 -614.499)" fill="#212513"/>
      </g>
      <path id="Trazado_103217" data-name="Trazado 103217" d="M896.394,632.7h0c-2.159,0-3.909,1-3.909-1.16v-.333a3.91,3.91,0,0,1,3.909-3.909h0a3.91,3.91,0,0,1,3.909,3.909v.333C900.3,633.7,898.553,632.7,896.394,632.7Z" transform="translate(-864.833 -627.303)" fill="#212513"/>
      <g id="Grupo_55616" data-name="Grupo 55616" transform="translate(20.796 2.383)">
        <rect id="Rectángulo_5754" data-name="Rectángulo 5754" width="21.53" height="7.238" fill="#212513"/>
        <g id="Grupo_55615" data-name="Grupo 55615" clip-path="url(#clip-path)">
          <rect id="Rectángulo_5755" data-name="Rectángulo 5755" width="26.403" height="4.149" transform="translate(-2.151 3.977)" fill="#212513" opacity="0.2" style="mix-blend-mode: multiply;isolation: isolate"/>
        </g>
      </g>
      <path id="Trazado_103218" data-name="Trazado 103218" d="M896.71,628.883a.9.9,0,1,1-.9-.9A.9.9,0,0,1,896.71,628.883Z" transform="translate(-864.25 -627.139)" fill="#fff"/>
    </g>
  </g>
  <g id="Grupo_55620" data-name="Grupo 55620" transform="translate(12.833 17.649)">
    <g id="Grupo_55619" data-name="Grupo 55619">
      <rect id="Rectángulo_5757" data-name="Rectángulo 5757" width="31.232" height="0.949" fill="#b5b4b4"/>
      <rect id="Rectángulo_5758" data-name="Rectángulo 5758" width="31.232" height="0.949" transform="translate(0 2.279)" fill="#b5b4b4"/>
      <rect id="Rectángulo_5759" data-name="Rectángulo 5759" width="9.655" height="0.949" transform="translate(0 4.557)" fill="#b5b4b4"/>
    </g>
  </g>
  <g id="Grupo_55622" data-name="Grupo 55622" transform="translate(12.833 32.166)">
    <g id="Grupo_55621" data-name="Grupo 55621">
      <rect id="Rectángulo_5760" data-name="Rectángulo 5760" width="39.338" height="0.949" fill="#b5b4b4"/>
      <rect id="Rectángulo_5761" data-name="Rectángulo 5761" width="39.338" height="0.949" transform="translate(0 2.279)" fill="#b5b4b4"/>
      <rect id="Rectángulo_5762" data-name="Rectángulo 5762" width="39.338" height="0.949" transform="translate(0 4.324)" fill="#b5b4b4"/>
      <rect id="Rectángulo_5763" data-name="Rectángulo 5763" width="39.338" height="0.949" transform="translate(0 6.603)" fill="#b5b4b4"/>
      <rect id="Rectángulo_5764" data-name="Rectángulo 5764" width="39.338" height="0.949" transform="translate(0 8.649)" fill="#b5b4b4"/>
      <rect id="Rectángulo_5765" data-name="Rectángulo 5765" width="39.338" height="0.949" transform="translate(0 10.927)" fill="#b5b4b4"/>
      <rect id="Rectángulo_5766" data-name="Rectángulo 5766" width="12.161" height="0.949" transform="translate(0 13.175)" fill="#b5b4b4"/>
    </g>
  </g>
  <g id="Grupo_55624" data-name="Grupo 55624" transform="translate(12.833 51.179)">
    <g id="Grupo_55623" data-name="Grupo 55623">
      <rect id="Rectángulo_5767" data-name="Rectángulo 5767" width="39.338" height="0.949" fill="#b5b4b4"/>
      <rect id="Rectángulo_5768" data-name="Rectángulo 5768" width="39.338" height="0.949" transform="translate(0 2.279)" fill="#b5b4b4"/>
      <rect id="Rectángulo_5769" data-name="Rectángulo 5769" width="39.338" height="0.949" transform="translate(0 4.324)" fill="#b5b4b4"/>
      <rect id="Rectángulo_5770" data-name="Rectángulo 5770" width="39.338" height="0.949" transform="translate(0 6.603)" fill="#b5b4b4"/>
      <rect id="Rectángulo_5771" data-name="Rectángulo 5771" width="39.338" height="0.949" transform="translate(0 8.649)" fill="#b5b4b4"/>
      <rect id="Rectángulo_5772" data-name="Rectángulo 5772" width="39.338" height="0.949" transform="translate(0 10.927)" fill="#b5b4b4"/>
    </g>
  </g>
  <g id="Grupo_55626" data-name="Grupo 55626" transform="translate(12.833 73.191)">
    <g id="Grupo_55625" data-name="Grupo 55625">
      <rect id="Rectángulo_5773" data-name="Rectángulo 5773" width="39.338" height="0.949" fill="#8ea02a"/>
      <rect id="Rectángulo_5774" data-name="Rectángulo 5774" width="39.338" height="0.949" transform="translate(0 2.279)" fill="#8ea02a"/>
    </g>
  </g>
  <rect id="Rectángulo_5775" data-name="Rectángulo 5775" width="40.395" height="2.344" transform="translate(12.801 13.383)" fill="#b5b4b4"/>
  <g id="Grupo_55627" data-name="Grupo 55627" transform="translate(9.127 29.689)">
    <path id="Trazado_103219" data-name="Trazado 103219" d="M877.554,651.233h2.428v1.453h-1.157V686.3h1.157v1.453h-2.428Z" transform="translate(-877.554 -651.233)" fill="#212513"/>
  </g>
  <g id="Grupo_55628" data-name="Grupo 55628" transform="translate(53.195 29.689)">
    <path id="Trazado_103220" data-name="Trazado 103220" d="M915.5,687.751h-2.428V686.3h1.158V652.686h-1.158v-1.453H915.5Z" transform="translate(-913.074 -651.233)" fill="#212513"/>
  </g>
</svg>
