<svg xmlns="http://www.w3.org/2000/svg" width="38.983" height="44.969" viewBox="0 0 38.983 44.969">
  <g id="proveedor_1_" data-name="proveedor (1)" transform="translate(-34.079)">
    <g id="Grupo_55445" data-name="Grupo 55445" transform="translate(34.079 0)">
      <path id="Trazado_102849" data-name="Trazado 102849" d="M153.562,175.936v-1.223a.659.659,0,1,0-1.317,0v1.223a.659.659,0,1,0,1.317,0Z" transform="translate(-141.867 -158.768)" fill="#95af3d"/>
      <path id="Trazado_102850" data-name="Trazado 102850" d="M223.159,176.6a.659.659,0,0,0,.659-.659v-1.223a.659.659,0,1,0-1.317,0v1.223A.659.659,0,0,0,223.159,176.6Z" transform="translate(-205.951 -158.768)" fill="#95af3d"/>
      <path id="Trazado_102851" data-name="Trazado 102851" d="M167.056,238.635a.659.659,0,1,0-.931-.932,2.575,2.575,0,0,1-3.638,0,.659.659,0,0,0-.932.932,3.894,3.894,0,0,0,5.5,0Z" transform="translate(-150.183 -216.65)" fill="#95af3d"/>
      <path id="Trazado_102852" data-name="Trazado 102852" d="M184.317,193.511h.979a.659.659,0,1,0,0-1.317h-.321v-1.082a.659.659,0,1,0-1.317,0v1.74A.659.659,0,0,0,184.317,193.511Z" transform="translate(-170.521 -173.726)" fill="#95af3d"/>
      <path id="Trazado_102853" data-name="Trazado 102853" d="M72.4,32.014a.659.659,0,0,0,.659-.659V26.117a1.1,1.1,0,0,0-1.1-1.1H68.984v-.076a1.1,1.1,0,0,0-1.1-1.1h-.566a2.612,2.612,0,0,0-5.215,0H61.54a1.1,1.1,0,0,0-1.1,1.1v.076H57.463a1.1,1.1,0,0,0-1.1,1.1v.95H54.111l-1.794-1.773a5.739,5.739,0,0,0,3.307-3.561h.426a3.018,3.018,0,0,0,3.014-3.014v-.877a3.007,3.007,0,0,0-1-2.239V13.829a1.855,1.855,0,0,0,0-3.686A9.211,9.211,0,0,0,51.04,1.365,2.236,2.236,0,0,0,48.98,0H47.423a2.236,2.236,0,0,0-2.059,1.365,9.212,9.212,0,0,0-7.025,8.778,1.855,1.855,0,0,0,0,3.686V15.6a3.007,3.007,0,0,0-1,2.239v.877a3.018,3.018,0,0,0,3.014,3.014h.426a5.739,5.739,0,0,0,3.307,3.561l-1.794,1.773H37.264a3.188,3.188,0,0,0-3.185,3.185V43.871a1.1,1.1,0,0,0,1.1,1.1H51.55a.659.659,0,1,0,0-1.317H48.86V31.006l.038-.038,4.178,2.7A.922.922,0,0,0,54.5,32.9V28.384h1.866V43.651H54.624a.659.659,0,0,0,0,1.317H71.964a1.1,1.1,0,0,0,1.1-1.1V34.429a.659.659,0,0,0-1.317,0v9.222H57.683V26.337h.985V41.744a.923.923,0,0,0,.922.922H69.837a.923.923,0,0,0,.922-.922V26.337h.985v5.019a.659.659,0,0,0,.659.659Zm-14.655-13.3a1.7,1.7,0,0,1-1.7,1.7h-.173c.01-.138.017-.277.017-.418V16.144h.156a1.7,1.7,0,0,1,1.7,1.7v.877ZM55.9,14.827v-.985h.854v1.067a3.012,3.012,0,0,0-.7-.082H55.9Zm-9.163-13.2a.907.907,0,0,1,.691-.313H48.98a.919.919,0,0,1,.911,1.039l-.674,5.1H47.185l-.674-5.1a.907.907,0,0,1,.22-.726Zm-6.38,18.784a1.7,1.7,0,0,1-1.7-1.7v-.877a1.7,1.7,0,0,1,1.7-1.7h.156V20c0,.141.007.28.017.418Zm-.7-5.506V13.842h.854v.985h-.156A3,3,0,0,0,39.654,14.909Zm-1.1-2.385a.538.538,0,0,1,0-1.077h4.92a.659.659,0,0,0,0-1.317H39.658a7.891,7.891,0,0,1,5.579-7.365l.718,5.44a.659.659,0,0,0,.653.572H49.8a.659.659,0,0,0,.653-.572l.718-5.44a7.891,7.891,0,0,1,5.579,7.365h-10.2a.659.659,0,1,0,0,1.317H57.853a.538.538,0,1,1,0,1.077ZM41.825,20V13.842H54.578V20a4.4,4.4,0,0,1-4.393,4.393H46.218A4.4,4.4,0,0,1,41.825,20Zm1.4,8,1.361-1.346v.694a1.57,1.57,0,0,0,.453,1.107l1.527,1.553-3.341,2.162Zm4.322,15.651H35.4v-13.4a1.869,1.869,0,0,1,1.867-1.867H41.9V32.9a.922.922,0,0,0,1.423.774l4.178-2.7.038.038ZM48.2,29.8l-2.227-2.265a.26.26,0,0,1-.075-.184V25.7c.106.006.212.01.319.01h3.966c.107,0,.213,0,.319-.01v1.651a.261.261,0,0,1-.075.184h0Zm4.98,2.373-3.341-2.162,1.527-1.553a1.57,1.57,0,0,0,.453-1.107v-.694L53.182,28ZM64.713,22.7A1.3,1.3,0,0,1,66,23.846h-2.57A1.3,1.3,0,0,1,64.713,22.7ZM61.76,25.163h5.907v1.643H61.76Zm7.682,16.186H59.985V26.337h.457v.689a1.1,1.1,0,0,0,1.1,1.1h6.346a1.1,1.1,0,0,0,1.1-1.1v-.689h.457Z" transform="translate(-34.079 0)" fill="#95af3d"/>
      <path id="Trazado_102854" data-name="Trazado 102854" d="M337.921,340.162l-.617.618-.351-.351a.659.659,0,1,0-.931.932l.816.816a.659.659,0,0,0,.932,0l1.083-1.083a.659.659,0,0,0-.932-.932Z" transform="translate(-309.326 -310.11)" fill="#95af3d"/>
      <path id="Trazado_102855" data-name="Trazado 102855" d="M379.738,348.11h-3.407a.659.659,0,0,0,0,1.317h3.407a.659.659,0,1,0,0-1.317Z" transform="translate(-345.67 -317.536)" fill="#95af3d"/>
      <path id="Trazado_102856" data-name="Trazado 102856" d="M379.738,376.42h-3.407a.659.659,0,0,0,0,1.317h3.407a.659.659,0,1,0,0-1.317Z" transform="translate(-345.67 -343.359)" fill="#95af3d"/>
      <path id="Trazado_102857" data-name="Trazado 102857" d="M337.96,376.42h-1.473a.659.659,0,0,0,0,1.317h1.473a.659.659,0,0,0,0-1.317Z" transform="translate(-309.325 -343.359)" fill="#95af3d"/>
      <path id="Trazado_102858" data-name="Trazado 102858" d="M337.96,404.73h-1.473a.659.659,0,0,0,0,1.317h1.473a.659.659,0,0,0,0-1.317Z" transform="translate(-309.325 -369.183)" fill="#95af3d"/>
      <path id="Trazado_102859" data-name="Trazado 102859" d="M337.96,433.04h-1.473a.659.659,0,0,0,0,1.317h1.473a.659.659,0,0,0,0-1.317Z" transform="translate(-309.325 -395.006)" fill="#95af3d"/>
      <path id="Trazado_102860" data-name="Trazado 102860" d="M379.738,404.73h-3.407a.659.659,0,0,0,0,1.317h3.407a.659.659,0,0,0,0-1.317Z" transform="translate(-345.67 -369.183)" fill="#95af3d"/>
      <path id="Trazado_102861" data-name="Trazado 102861" d="M379.738,433.04h-3.407a.659.659,0,0,0,0,1.317h3.407a.659.659,0,0,0,0-1.317Z" transform="translate(-345.67 -395.006)" fill="#95af3d"/>
    </g>
  </g>
</svg>
