<svg xmlns="http://www.w3.org/2000/svg" xmlns:xlink="http://www.w3.org/1999/xlink" width="140" height="140" viewBox="0 0 140 140">
  <defs>
    <clipPath id="clip-path">
      <circle id="Elipse_4295" data-name="Elipse 4295" cx="65.5" cy="65.5" r="65.5" transform="translate(257.5 486.5)" fill="#fff"/>
    </clipPath>
  </defs>
  <g id="Grupo_55828" data-name="Grupo 55828" transform="translate(-613 -476)">
    <g id="Elipse_4294" data-name="Elipse 4294" transform="translate(613 476)" fill="#fffdef" stroke="#badb4c" stroke-width="4">
      <circle cx="70" cy="70" r="70" stroke="none"/>
      <circle cx="70" cy="70" r="68" fill="none"/>
    </g>
    <g id="Enmascarar_grupo_44" data-name="Enmascarar grupo 44" transform="translate(360.5 -6.5)" clip-path="url(#clip-path)">
      <g id="Grupo_55315" data-name="Grupo 55315" transform="translate(217.493 240.951)">
        <g id="_8" data-name="8" transform="translate(74.604 254.354)">
          <g id="Grupo_55291" data-name="Grupo 55291">
            <g id="Grupo_55286" data-name="Grupo 55286">
              <g id="Grupo_55285" data-name="Grupo 55285">
                <path id="Trazado_102377" data-name="Trazado 102377" d="M80.083,254.354v35.173h28.5V254.354Z" transform="translate(-80.083 -254.354)" fill="#d1d3d4"/>
                <g id="Grupo_55284" data-name="Grupo 55284" transform="translate(1.787 3.19)">
                  <rect id="Rectángulo_5497" data-name="Rectángulo 5497" width="24.22" height="1.192" transform="translate(0 10.359)" fill="#bcbec0"/>
                  <rect id="Rectángulo_5498" data-name="Rectángulo 5498" width="22.8" height="1.192" transform="translate(0 6.906)" fill="#bcbec0"/>
                  <rect id="Rectángulo_5499" data-name="Rectángulo 5499" width="24.22" height="1.192" transform="translate(0 3.453)" fill="#bcbec0"/>
                  <rect id="Rectángulo_5500" data-name="Rectángulo 5500" width="21.091" height="1.192" fill="#bcbec0"/>
                  <rect id="Rectángulo_5501" data-name="Rectángulo 5501" width="22.8" height="1.192" transform="translate(0 13.801)" fill="#bcbec0"/>
                  <rect id="Rectángulo_5502" data-name="Rectángulo 5502" width="24.22" height="1.192" transform="translate(0 17.242)" fill="#bcbec0"/>
                  <rect id="Rectángulo_5503" data-name="Rectángulo 5503" width="22.08" height="1.192" transform="translate(0 20.683)" fill="#bcbec0"/>
                  <rect id="Rectángulo_5504" data-name="Rectángulo 5504" width="24.22" height="1.192" transform="translate(0 24.124)" fill="#bcbec0"/>
                  <rect id="Rectángulo_5505" data-name="Rectángulo 5505" width="24.22" height="1.193" transform="translate(0 27.565)" fill="#bcbec0"/>
                </g>
              </g>
            </g>
            <g id="Grupo_55290" data-name="Grupo 55290" transform="translate(8.626 6.174)">
              <g id="Grupo_55287" data-name="Grupo 55287">
                <path id="Trazado_102378" data-name="Trazado 102378" d="M110.35,261.4H89.934v35.173h28.5V269.49Z" transform="translate(-89.934 -261.404)" fill="#e6e7e8"/>
              </g>
              <g id="Grupo_55289" data-name="Grupo 55289" transform="translate(1.787)">
                <g id="Grupo_55288" data-name="Grupo 55288" transform="translate(0 3.189)">
                  <rect id="Rectángulo_5506" data-name="Rectángulo 5506" width="24.22" height="1.192" transform="translate(0 10.36)" fill="#bcbec0"/>
                  <rect id="Rectángulo_5507" data-name="Rectángulo 5507" width="24.22" height="1.192" transform="translate(0 6.907)" fill="#bcbec0"/>
                  <rect id="Rectángulo_5508" data-name="Rectángulo 5508" width="24.22" height="1.192" transform="translate(0 3.454)" fill="#bcbec0"/>
                  <rect id="Rectángulo_5509" data-name="Rectángulo 5509" width="20.019" height="1.193" transform="translate(1.071)" fill="#bcbec0"/>
                  <rect id="Rectángulo_5510" data-name="Rectángulo 5510" width="22.789" height="1.192" transform="translate(1.431 13.802)" fill="#bcbec0"/>
                  <rect id="Rectángulo_5511" data-name="Rectángulo 5511" width="24.22" height="1.192" transform="translate(0 17.243)" fill="#bcbec0"/>
                  <rect id="Rectángulo_5512" data-name="Rectángulo 5512" width="24.22" height="1.192" transform="translate(0 20.684)" fill="#bcbec0"/>
                  <rect id="Rectángulo_5513" data-name="Rectángulo 5513" width="24.22" height="1.193" transform="translate(0 24.124)" fill="#bcbec0"/>
                  <rect id="Rectángulo_5514" data-name="Rectángulo 5514" width="24.22" height="1.192" transform="translate(0 27.565)" fill="#bcbec0"/>
                </g>
                <path id="Trazado_102379" data-name="Trazado 102379" d="M113.249,269.49h8.086l-8.086-8.086Z" transform="translate(-94.619 -261.404)" fill="#f1f2f2"/>
                <path id="Trazado_102380" data-name="Trazado 102380" d="M121.335,270.638h-8.086l8.086,8.086Z" transform="translate(-94.619 -262.552)" fill="#a7a9ac"/>
              </g>
            </g>
          </g>
          <path id="Trazado_102381" data-name="Trazado 102381" d="M96.618,281.233h12.589V285.9H97.064Z" transform="translate(-82.138 -257.695)" fill="#bcbec0"/>
          <g id="Grupo_55292" data-name="Grupo 55292" transform="translate(17.368 21.205)">
            <path id="Trazado_102382" data-name="Trazado 102382" d="M103.084,286.332l-3.168-5.4.824-.484,2.273,3.874,2.86-5.756.856.426Z" transform="translate(-99.916 -278.568)" fill="#ed1c24"/>
          </g>
          <path id="Trazado_102383" data-name="Trazado 102383" d="M107.6,277.87a6.7,6.7,0,1,0-.186,10.02l2.472,2.279-.569.616,9.76,9,2.21-2.4-9.76-9-.569.617-2.472-2.279A6.7,6.7,0,0,0,107.6,277.87Zm-6.318,9.8a5.187,5.187,0,1,1,6.649-3.1A5.187,5.187,0,0,1,101.284,287.671Z" transform="translate(-82.106 -257.056)" fill="#3d5872"/>
        </g>
        <g id="_12" data-name="12" transform="translate(130.792 265.841)">
          <g id="Grupo_55295" data-name="Grupo 55295" transform="translate(3.977 2.797)">
            <g id="Grupo_55294" data-name="Grupo 55294">
              <path id="Trazado_102384" data-name="Trazado 102384" d="M148.789,270.666v38.671h31.338V270.666Z" transform="translate(-148.789 -270.666)" fill="#d1d3d4"/>
              <g id="Grupo_55293" data-name="Grupo 55293" transform="translate(1.965 3.507)">
                <rect id="Rectángulo_5515" data-name="Rectángulo 5515" width="26.629" height="1.311" transform="translate(0 11.39)" fill="#bcbec0"/>
                <rect id="Rectángulo_5516" data-name="Rectángulo 5516" width="25.067" height="1.311" transform="translate(0 7.593)" fill="#bcbec0"/>
                <rect id="Rectángulo_5517" data-name="Rectángulo 5517" width="26.629" height="1.31" transform="translate(0 3.797)" fill="#bcbec0"/>
                <rect id="Rectángulo_5518" data-name="Rectángulo 5518" width="23.188" height="1.311" fill="#bcbec0"/>
                <rect id="Rectángulo_5519" data-name="Rectángulo 5519" width="25.067" height="1.311" transform="translate(0 15.173)" fill="#bcbec0"/>
                <rect id="Rectángulo_5520" data-name="Rectángulo 5520" width="26.629" height="1.311" transform="translate(0 18.956)" fill="#bcbec0"/>
                <rect id="Rectángulo_5521" data-name="Rectángulo 5521" width="24.275" height="1.311" transform="translate(0 22.74)" fill="#bcbec0"/>
                <rect id="Rectángulo_5522" data-name="Rectángulo 5522" width="26.629" height="1.311" transform="translate(0 26.523)" fill="#bcbec0"/>
                <rect id="Rectángulo_5523" data-name="Rectángulo 5523" width="26.629" height="1.311" transform="translate(0 30.306)" fill="#bcbec0"/>
              </g>
            </g>
          </g>
          <g id="Grupo_55298" data-name="Grupo 55298" transform="translate(4.002 0)">
            <g id="Grupo_55297" data-name="Grupo 55297">
              <path id="Trazado_102385" data-name="Trazado 102385" d="M157.492,267.472l-8.674,37.686,30.539,7.029,4.686-20.359,3.988-17.326Z" transform="translate(-148.817 -267.472)" fill="#eff1f2"/>
              <g id="Grupo_55296" data-name="Grupo 55296" transform="translate(2.71 3.858)">
                <rect id="Rectángulo_5524" data-name="Rectángulo 5524" width="1.311" height="26.629" transform="translate(4.243 12.377) rotate(-77.035)" fill="#dadcde"/>
                <rect id="Rectángulo_5525" data-name="Rectángulo 5525" width="1.311" height="25.068" transform="translate(5.094 8.681) rotate(-77.053)" fill="#dadcde"/>
                <rect id="Rectángulo_5526" data-name="Rectángulo 5526" width="1.311" height="26.629" transform="matrix(0.224, -0.974, 0.974, 0.224, 5.946, 4.976)" fill="#dadcde"/>
                <rect id="Rectángulo_5527" data-name="Rectángulo 5527" width="1.311" height="23.188" transform="matrix(0.224, -0.975, 0.975, 0.224, 6.798, 1.277)" fill="#dadcde"/>
                <rect id="Rectángulo_5528" data-name="Rectángulo 5528" width="1.311" height="25.068" transform="matrix(0.224, -0.975, 0.975, 0.224, 3.394, 16.064)" fill="#dadcde"/>
                <rect id="Rectángulo_5529" data-name="Rectángulo 5529" width="1.311" height="26.629" transform="translate(2.546 19.752) rotate(-77.037)" fill="#dadcde"/>
                <rect id="Rectángulo_5530" data-name="Rectángulo 5530" width="1.311" height="24.275" transform="translate(1.697 23.438) rotate(-77.038)" fill="#dadcde"/>
                <rect id="Rectángulo_5531" data-name="Rectángulo 5531" width="1.311" height="26.629" transform="translate(0.849 27.125) rotate(-77.038)" fill="#dadcde"/>
                <rect id="Rectángulo_5532" data-name="Rectángulo 5532" width="1.311" height="26.629" transform="translate(0 30.812) rotate(-77.039)" fill="#dadcde"/>
              </g>
            </g>
          </g>
          <g id="Grupo_55299" data-name="Grupo 55299" transform="translate(0 21.437)">
            <rect id="Rectángulo_5533" data-name="Rectángulo 5533" width="41.366" height="25.403" fill="#ebd50c"/>
            <path id="Trazado_102386" data-name="Trazado 102386" d="M164.931,310.336l-20.683-18.383h41.366Z" transform="translate(-144.247 -291.952)" fill="#c9b528"/>
            <path id="Trazado_102387" data-name="Trazado 102387" d="M164.931,307.65l-20.683-15.7h41.366Z" transform="translate(-144.247 -291.952)" fill="#f9ed32"/>
            <rect id="Rectángulo_5534" data-name="Rectángulo 5534" width="11.172" height="4.595" transform="translate(27.082 16.894)" fill="#eff1f2"/>
          </g>
        </g>
        <g id="_15" data-name="15" transform="translate(38.124 277.443)">
          <rect id="Rectángulo_5535" data-name="Rectángulo 5535" width="38.637" height="2.707" transform="translate(3.196 33.49)" fill="#414042"/>
          <g id="Grupo_55303" data-name="Grupo 55303" transform="translate(0)">
            <path id="Trazado_102388" data-name="Trazado 102388" d="M38.424,312.164V317a2.444,2.444,0,0,0,2.437,2.436H79.3A2.443,2.443,0,0,0,81.736,317v-4.835Z" transform="translate(-38.424 -284.629)" fill="#58595b"/>
            <path id="Trazado_102389" data-name="Trazado 102389" d="M81.736,300.822a2.443,2.443,0,0,0-2.436-2.436H40.861a2.444,2.444,0,0,0-2.437,2.436v9.629H81.736Z" transform="translate(-38.424 -282.917)" fill="#939598"/>
            <path id="Trazado_102390" data-name="Trazado 102390" d="M48.465,291.85v8.58a2.444,2.444,0,0,0,2.437,2.437H71.756a2.444,2.444,0,0,0,2.436-2.437v-8.58Z" transform="translate(-39.672 -282.104)" fill="#58595b"/>
            <path id="Trazado_102391" data-name="Trazado 102391" d="M48.465,291.673v6.477a2.444,2.444,0,0,0,2.437,2.437H71.756a2.444,2.444,0,0,0,2.436-2.437v-6.477Z" transform="translate(-39.672 -282.082)" fill="#939598"/>
            <rect id="Rectángulo_5536" data-name="Rectángulo 5536" width="20.728" height="11.386" transform="translate(11.292 3.868)" fill="#939598"/>
            <g id="Grupo_55300" data-name="Grupo 55300" transform="translate(15.329 22.894)">
              <path id="Trazado_102392" data-name="Trazado 102392" d="M77.427,306.865h-5.3c-.338,0-.616.176-.616.391v2.955c0,.217.278.393.616.393h5.3c.338,0,.616-.176.616-.393v-2.955C78.042,307.041,77.765,306.865,77.427,306.865Z" transform="translate(-57.866 -306.865)" fill="#6d6e71"/>
              <path id="Trazado_102393" data-name="Trazado 102393" d="M81.7,307.312H79.6a.284.284,0,0,0-.243.311v2.335a.283.283,0,0,0,.243.309h2.1a.283.283,0,0,0,.243-.309v-2.335A.284.284,0,0,0,81.7,307.312Z" transform="translate(-58.842 -306.921)" fill="#eb4747"/>
              <path id="Trazado_102394" data-name="Trazado 102394" d="M85.586,307.312h-2.1a.284.284,0,0,0-.243.311v2.335a.283.283,0,0,0,.243.309h2.1a.283.283,0,0,0,.243-.309v-2.335A.284.284,0,0,0,85.586,307.312Z" transform="translate(-59.325 -306.921)" fill="#00a79d"/>
              <path id="Trazado_102395" data-name="Trazado 102395" d="M66.062,308.278H56.982a2.206,2.206,0,0,0-1.053.133v1a2.219,2.219,0,0,0,1.053.133h9.079a2.222,2.222,0,0,0,1.053-.133v-1A2.209,2.209,0,0,0,66.062,308.278Z" transform="translate(-55.929 -307.041)" fill="#e6e7e8"/>
            </g>
            <rect id="Rectángulo_5537" data-name="Rectángulo 5537" width="17.466" height="20.763" transform="translate(14.077)" fill="#bcbec0"/>
            <rect id="Rectángulo_5538" data-name="Rectángulo 5538" width="18.196" height="19.989" transform="translate(12.558 0.774)" fill="#e6e7e8"/>
            <g id="Grupo_55302" data-name="Grupo 55302" transform="translate(10.055 27.535)">
              <path id="Trazado_102396" data-name="Trazado 102396" d="M73.219,312.164H50.79l10.519,10.519H73.219Z" transform="translate(-50.016 -312.164)" fill="#3b3c3d"/>
              <path id="Trazado_102397" data-name="Trazado 102397" d="M49.906,312.164v10.519H61.2L50.68,312.164Z" transform="translate(-49.906 -312.164)" fill="#4e4f4f"/>
              <g id="Grupo_55301" data-name="Grupo 55301" transform="translate(2.349 1.083)">
                <path id="Trazado_102398" data-name="Trazado 102398" d="M70.785,321.908V313.4h-18.2v.493l8.015,8.015Z" transform="translate(-52.589 -313.4)" fill="#cdcece"/>
                <path id="Trazado_102399" data-name="Trazado 102399" d="M60.6,321.978l-8.015-8.015v8.015Z" transform="translate(-52.589 -313.47)" fill="#e6e7e8"/>
                <path id="Trazado_102400" data-name="Trazado 102400" d="M69.677,321V319.76H58.385L59.623,321Z" transform="translate(-53.309 -314.191)" fill="#a3a5a6"/>
                <path id="Trazado_102401" data-name="Trazado 102401" d="M54.5,321H59.14L57.9,319.76H54.5Z" transform="translate(-52.826 -314.191)" fill="#bcbec0"/>
                <path id="Trazado_102402" data-name="Trazado 102402" d="M69.4,318.789v-1.237H56.177l1.237,1.237Z" transform="translate(-53.035 -313.916)" fill="#a3a5a6"/>
                <path id="Trazado_102403" data-name="Trazado 102403" d="M54.5,318.789h2.707l-1.237-1.237H54.5Z" transform="translate(-52.826 -313.916)" fill="#bcbec0"/>
              </g>
            </g>
          </g>
        </g>
        <g id="Grupo_55304" data-name="Grupo 55304" transform="translate(36.007 323.855)">
          <path id="Trazado_102404" data-name="Trazado 102404" d="M58.989,336.485h3.347v.771l.266.062.266.061v-1.424H56.683l1.153.266Z" transform="translate(-38.577 -333.999)" fill="#35799b"/>
          <path id="Trazado_102405" data-name="Trazado 102405" d="M40.623,348.722h1.061l.205-.892H40.623Z" transform="translate(-36.581 -335.475)" fill="#35799b"/>
          <path id="Trazado_102406" data-name="Trazado 102406" d="M42.483,344.881h-1.86v.892h1.655Z" transform="translate(-36.581 -335.108)" fill="#35799b"/>
          <path id="Trazado_102407" data-name="Trazado 102407" d="M43.078,341.932H40.623v.892h2.25Z" transform="translate(-36.581 -334.742)" fill="#35799b"/>
          <path id="Trazado_102408" data-name="Trazado 102408" d="M43.673,338.982h-3.05v.891h2.844Z" transform="translate(-36.581 -334.375)" fill="#35799b"/>
          <path id="Trazado_102409" data-name="Trazado 102409" d="M61.171,346.465l-.266-.062-3.851-.886-3.874-.892-7.347-1.691-.454-.105-.024.105-.176.765,4.026.926,3.874.892,7.826,1.8.266.062.266.061.361.084.2-.87-.561-.129Z" transform="translate(-37.147 -334.853)" fill="#35799b"/>
          <path id="Trazado_102410" data-name="Trazado 102410" d="M61.253,343.458l-.266-.062-3.557-.818-3.874-.892-7.348-1.692-.168-.039-.009.039-.191.83,3.74.861,3.874.892,7.533,1.733.266.062.266.061,1.975.455.2-.869-2.176-.5Z" transform="translate(-37.229 -334.496)" fill="#35799b"/>
          <path id="Trazado_102411" data-name="Trazado 102411" d="M53.83,339.637,61.07,341.3l.266.061.266.062.274.062.2-.869-.474-.109-.266-.062-.266-.061-3.942-.907-3.2-.735L46.7,337.082l-.2.869,3.454.8Z" transform="translate(-37.312 -334.139)" fill="#35799b"/>
          <path id="Trazado_102412" data-name="Trazado 102412" d="M63.235,351.549l-.342.3-.342.3-2.254,2-.265.236-.265.236-.614.546-.818.727-1.542,1.37-.817.727-.545.484-1,.887-.005,0-.813.723-1.08.959-.462.412-.54.481-.278.246-1.176,1.046-1.455-1.293-.546-.485-.457-.407-.932-.828-.961-.855-1-.891-.656-.583-1.236-1.1-.152-.136-.85-.757-1.224-1.088-.226-.2-.226-.2-.227-.2-.948-.843-.265-.236-.266-.236-2.44-2.17v17.282h28.14V350.737l-.57.507Zm-1.2,13.808h-7.6V362.23h7.6Z" transform="translate(-36.007 -335.836)" fill="#35799b"/>
          <path id="Trazado_102413" data-name="Trazado 102413" d="M63.422,348.622l2.3-10L60.3,337.373l-.265-.062-.265-.06-4.53-1.043-1.153-.265-1.153-.266-8.5-1.955-.45,1.955-.061.266-.06.265-.489,2.12-.2.891-.39,1.692-.2.891-.389,1.691-.206.891-.389,1.691-.206.892L41,348.622H38.978V336.208h4.609l.06-.265.061-.266H38.447v12.945h-2.44L50.078,359.3l12.86-9.761.33-.25.33-.25.549-.418h-.725Zm-2.188,0,.079-.343-1.017-.234-.265-.061-.265-.061-4.145-.954-3.874-.892L44.4,344.385l-.74-.17-.039.17-.16.7,4.311.992,3.874.892,7.187,1.653h-7.5l-7.187-1.653-1.065-.245-.057.245-.144.624,4.477,1.029H41.547l.381-1.653.2-.892.389-1.691.206-.891.389-1.691.2-.891.39-1.692.206-.891.488-2.12.061-.265.06-.266.3-1.319,5.732,1.319,1.152.266,1.154.265,6.9,1.588.265.06.265.062,4.791,1.1-2.21,9.6Z" transform="translate(-36.007 -333.721)" fill="#35799b"/>
        </g>
        <g id="Grupo_55314" data-name="Grupo 55314" transform="translate(62.039 299.901)">
          <g id="Grupo_55313" data-name="Grupo 55313" transform="translate(0 0)">
            <g id="_16" data-name="16">
              <path id="Trazado_102466" data-name="Trazado 102466" d="M74.9,359.751l1.216-2.712v-7.365a11.583,11.583,0,0,1,2.251-6.861L86.328,332l9.092-6.06,2.318,20.576-1.52,11.47-4.4,9.425Z" transform="translate(-66.875 -308.8)" fill="#eab38b"/>
              <g id="Grupo_55310" data-name="Grupo 55310" transform="translate(17.924)">
                <path id="Rectángulo_5539" data-name="Rectángulo 5539" d="M7.1,0H58.388a7.1,7.1,0,0,1,7.1,7.1V41.649a7.1,7.1,0,0,1-7.1,7.1H7.1a7.1,7.1,0,0,1-7.1-7.1V7.1A7.1,7.1,0,0,1,7.1,0Z" fill="#414042"/>
                <rect id="Rectángulo_5540" data-name="Rectángulo 5540" width="53.803" height="39.629" transform="translate(4.832 4.561)" fill="#d1d3d4"/>
                <path id="Trazado_102467" data-name="Trazado 102467" d="M159,333.876a2.311,2.311,0,1,1-2.31-2.311A2.311,2.311,0,0,1,159,333.876Z" transform="translate(-94.679 -309.5)" fill="#d1d3d4"/>
                <path id="Trazado_102468" data-name="Trazado 102468" d="M90.961,333.939a1.867,1.867,0,1,1-1.867-1.868A1.867,1.867,0,0,1,90.961,333.939Z" transform="translate(-86.331 -309.562)" fill="#939598"/>
                <rect id="Rectángulo_5541" data-name="Rectángulo 5541" width="21.604" height="16.196" transform="translate(33.3 13.893)" fill="#bcbec0"/>
                <rect id="Rectángulo_5542" data-name="Rectángulo 5542" width="42.461" height="6.362" transform="translate(9.972 35.956)" fill="#bcbec0"/>
                <g id="Grupo_55306" data-name="Grupo 55306" transform="translate(35.925 10.288)">
                  <path id="Trazado_102469" data-name="Trazado 102469" d="M131.9,336.982l-4.673-13.546,1.357-.469,3.566,10.339,7.686-15.191,1.281.648Z" transform="translate(-127.229 -318.115)" fill="#eb4747"/>
                </g>
                <g id="Grupo_55307" data-name="Grupo 55307" transform="translate(18.852 8.616)">
                  <rect id="Rectángulo_5543" data-name="Rectángulo 5543" width="8.609" height="1.672" fill="#bcbec0"/>
                  <rect id="Rectángulo_5544" data-name="Rectángulo 5544" width="8.609" height="1.673" transform="translate(0 3.026)" fill="#bcbec0"/>
                  <rect id="Rectángulo_5545" data-name="Rectángulo 5545" width="8.609" height="1.673" transform="translate(0 6.051)" fill="#bcbec0"/>
                  <rect id="Rectángulo_5546" data-name="Rectángulo 5546" width="8.609" height="1.672" transform="translate(0 9.078)" fill="#bcbec0"/>
                </g>
                <g id="Grupo_55308" data-name="Grupo 55308" transform="translate(8.788 8.616)">
                  <rect id="Rectángulo_5547" data-name="Rectángulo 5547" width="8.4" height="10.987" fill="#fff"/>
                  <path id="Trazado_102470" data-name="Trazado 102470" d="M104.539,324.572c-.213-.435-.449-.909-.473-.925s-1.161-.363-1.886-.583l-.514-.154-.187-.547-.016.014v-.537a.66.66,0,0,0,.144-.139.781.781,0,0,0,.116-.243c.037-.133.02-.341.121-.447s.181-.134.245-.267a1.575,1.575,0,0,0,.136-.756c0-.071-.042-.19-.134-.122-.041.031-.022.107-.06.133l0,0c.034-.114.069-.232.079-.285a3.589,3.589,0,0,0,.056-.535,1.614,1.614,0,0,0-.2-1.21,1.283,1.283,0,0,0-.934-.588c-.013,0-.166.016-.147.034a.736.736,0,0,0-.32-.1,1.981,1.981,0,0,0-1.587.556,1.393,1.393,0,0,0-.3,1.31,2.832,2.832,0,0,0,.06.49.958.958,0,0,1,.039.247.081.081,0,0,0-.027-.052c-.092-.068-.13.051-.134.122a1.574,1.574,0,0,0,.135.756c.065.133.155.172.246.267s.083.314.121.447a.781.781,0,0,0,.116.243.84.84,0,0,0,.2.184v.495l-.018-.017-.187.546-.2.06-.081.025-.089.026-.145.044c-.724.22-1.855.562-1.884.583s-.3.567-.523,1.027a.691.691,0,0,0-.07.3v2.349h8.4v-2.321A1,1,0,0,0,104.539,324.572Z" transform="translate(-96.239 -316.34)" fill="#a7a9ac"/>
                </g>
                <g id="Grupo_55309" data-name="Grupo 55309" transform="translate(9.125 21.33)">
                  <rect id="Rectángulo_5548" data-name="Rectángulo 5548" width="19.062" height="2.384" fill="#bcbec0"/>
                  <rect id="Rectángulo_5549" data-name="Rectángulo 5549" width="19.062" height="2.384" transform="translate(0 3.931)" fill="#bcbec0"/>
                  <rect id="Rectángulo_5550" data-name="Rectángulo 5550" width="19.063" height="2.384" transform="translate(0.196 8.328)" fill="#bcbec0"/>
                </g>
              </g>
              <path id="Trazado_102471" data-name="Trazado 102471" d="M100.8,346.227a.663.663,0,0,0,0,.074,1.713,1.713,0,0,1-.014.22,2.2,2.2,0,0,1-.376.957c-.024.036-.05.072-.076.105a2.682,2.682,0,0,1-1.856,1.013H91.925l-2.464,10.049.708,3.828,2.385-.479-6.764,2.872-4.942-5.9,3.029-16.27h5.584l6.21,1.037.718.12,3.582.6A2.637,2.637,0,0,1,100.8,346.227Z" transform="translate(-67.614 -310.883)" fill="#eab38b"/>
              <path id="Trazado_102472" data-name="Trazado 102472" d="M72.832,365.993l1.815-3.953L93.568,371.9l-1.595,2.871Z" transform="translate(-66.618 -313.288)" fill="#fff"/>
              <path id="Trazado_102473" data-name="Trazado 102473" d="M65.735,374.59l5.576-9.311,21.374,9.889-5.278,11.585Z" transform="translate(-65.735 -313.691)" fill="#808285"/>
              <path id="Trazado_102474" data-name="Trazado 102474" d="M102.988,346.391a.663.663,0,0,0,0,.074c0,.043-.006.086-.011.131a2.335,2.335,0,0,1-.319.926,9.749,9.749,0,0,1-1.644-.231c-3.089-1-2.622-2.8-2.435-3.278l3.582.6A2.637,2.637,0,0,1,102.988,346.391Z" transform="translate(-69.8 -311.047)" fill="#f2c4a5"/>
              <g id="Grupo_55311" data-name="Grupo 55311" transform="translate(56.317 22.712)">
                <path id="Trazado_102475" data-name="Trazado 102475" d="M153.427,372.243c-.107.078-.5.035-.628.044l-1.213.082c-1.232.085-1.029.54-2.257.624-2.992.208-6.015-.054-9,.151l-3.307.224c-.194.015-1.067.2-1.206.06-.081-.074-.074-.477-.1-.582-.022-.129-.105-.539-.218-1.033a17.135,17.135,0,0,0-.675-2.356c-.154-.335-4.075-6-4.209-6.823-.154-1-.138-2.061-.21-3.075l-.29-4.241c-.02-.315-.072-.65-.067-.968a2.886,2.886,0,0,1,1.192-2.448,1.839,1.839,0,0,1,1.875-.061,2.44,2.44,0,0,1,.678,1.407,10.149,10.149,0,0,1,.248,2.125c.031.917.309,1.261.5,1.091.273-.229.068-1.045.051-1.335L133.252,335.6c-.037-.553-.13-1.137-.114-1.693a.961.961,0,0,1,.241-.574,1.479,1.479,0,0,1,.113-.133c0-.006.013-.011.018-.017a3.328,3.328,0,0,1,.289-.261,2.7,2.7,0,0,1,3.105-.24,2.869,2.869,0,0,1,.314.2l.018.013a1.6,1.6,0,0,1,.321.318,1.009,1.009,0,0,1,.187.487c.031.314.041.621.065.937.08,1.185.851,13.667.983,14.348.1.535.681.458.7-.069a14.456,14.456,0,0,0-.109-1.6,24.5,24.5,0,0,1-.144-3.6c.387-1.2,2.306-1.567,3.3-.99a2.163,2.163,0,0,1,1.024,1.8l.142,2.06a12.335,12.335,0,0,0,.109,1.57c.1.473.4.461.739.226.308-.215.3-2.188.256-2.834a2.568,2.568,0,0,1,.633-2.111,2.366,2.366,0,0,1,2.955-.236,1.943,1.943,0,0,1,.827,1.759c.049.715.058,3.443.655,3.435.264,0,.289-.9.292-1.153a2.049,2.049,0,0,1,1.891-2.033,2.385,2.385,0,0,1,2.092,1.132.01.01,0,0,1,0-.008.106.106,0,0,1,.032.052.083.083,0,0,1,.022.035c.006,0,.005.008.011.012l0,.007c.17.563.55,7.449.743,10.294l.221,3.174a7.6,7.6,0,0,1-1.156,3.976,33.127,33.127,0,0,0-.846,3.328c-.018.118.108,2.036.2,3.383.039.56.067,1.023.081,1.216C153.469,371.971,153.535,372.165,153.427,372.243Z" transform="translate(-130.048 -332.303)" fill="#eab38b"/>
                <rect id="Rectángulo_5551" data-name="Rectángulo 5551" width="20.655" height="4.038" transform="translate(4.119 39.6) rotate(-3.922)" fill="#fff"/>
                <path id="Trazado_102476" data-name="Trazado 102476" d="M158.38,391.617l-.226-12.13-25.816,1.77.987,11.8Z" transform="translate(-130.332 -338.169)" fill="#808285"/>
                <path id="Trazado_102477" data-name="Trazado 102477" d="M136.311,336.706c-1.013.218-1.978-.723-2.15-2.091l-.139-1.144a2.423,2.423,0,0,1-.021-.287,3.331,3.331,0,0,1,.289-.261,2.7,2.7,0,0,1,3.105-.24,2.872,2.872,0,0,1,.314.2l.018.013.11.914A2.542,2.542,0,0,1,136.311,336.706Z" transform="translate(-130.539 -332.303)" fill="#f2c4a5"/>
              </g>
            </g>
            <g id="Grupo_55312" data-name="Grupo 55312" transform="translate(63.932 16.799)">
              <path id="Trazado_102478" data-name="Trazado 102478" d="M143,325.551a3.178,3.178,0,0,1,3.356,3.376c0,1.757-1.138,2.65-2.1,2.65a.978.978,0,0,1-1.08-.746h-.019a1.6,1.6,0,0,1-1.187.667,1.267,1.267,0,0,1-1.237-1.434,2.233,2.233,0,0,1,1.934-2.345.812.812,0,0,1,.764.481h.02l.128-.4h.715l-.422,2.072c-.166.667.01.99.491.99.609,0,1.246-.726,1.246-1.893a2.5,2.5,0,0,0-2.7-2.709,3.53,3.53,0,0,0-3.385,3.71,2.733,2.733,0,0,0,2.9,2.934,3.333,3.333,0,0,0,1.541-.4l.264.628a3.725,3.725,0,0,1-1.893.491,3.391,3.391,0,0,1-3.592-3.611A4.249,4.249,0,0,1,143,325.551Zm-.8,5.21c.236,0,.481-.147.776-.51l.255-1.442a.609.609,0,0,0-.54-.344c-.677,0-1.089.874-1.089,1.531C141.608,330.527,141.845,330.761,142.207,330.761Z" transform="translate(-138.743 -325.551)" fill="#1ca2c6"/>
            </g>
          </g>
        </g>
      </g>
    </g>
  </g>
</svg>
