<?xml version="1.0" encoding="utf-8"?>
<!-- Generator: Adobe Illustrator 25.2.3, SVG Export Plug-In . SVG Version: 6.00 Build 0)  -->
<svg version="1.1" id="Capa_1" xmlns="http://www.w3.org/2000/svg" xmlns:xlink="http://www.w3.org/1999/xlink" x="0px" y="0px"
	 viewBox="0 0 185.6 185.6" style="enable-background:new 0 0 185.6 185.6;" xml:space="preserve">
<style type="text/css">
	.st0{fill:#016196;}
	.st1{fill:#FFFFFF;}
	.st2{fill:none;stroke:#FFFFFF;stroke-width:2;stroke-linecap:round;stroke-linejoin:round;stroke-dasharray:0.1,5;}
	.st3{fill:none;stroke:#016196;stroke-miterlimit:10;}
	.st4{fill:none;stroke:#016196;stroke-width:1.5;stroke-linecap:round;stroke-linejoin:round;}
	
		.st5{fill:none;stroke:#016196;stroke-width:2.0007;stroke-linecap:round;stroke-linejoin:round;stroke-miterlimit:4.0015;stroke-dasharray:0.1,8.0029;}
	.st6{enable-background:new    ;}
</style>
<g id="Grupo_54566" transform="translate(-701.975 -287.319)">
	<g id="Grupo_54564">
		<g id="Grupo_54553">
			<circle id="Elipse_4280" class="st0" cx="794.8" cy="380.1" r="92.8"/>
			<circle id="Elipse_4281" class="st1" cx="794.8" cy="380.1" r="83.8"/>
			<circle id="Elipse_4282" class="st2" cx="794.8" cy="380.1" r="88.6"/>
			<circle id="Elipse_4283" class="st3" cx="794.8" cy="380.1" r="80.2"/>
			<g id="Grupo_54551">
				<path id="Trazado_101628" class="st4" d="M862.8,388c4.3-36.7-21.4-70.1-57.9-75.6"/>
				<path id="Trazado_101629" class="st4" d="M727,390.2c5.4,36.5,38.9,62.2,75.6,57.9"/>
			</g>
			<g id="Grupo_54552">
				<circle id="Elipse_4284" class="st0" cx="794.8" cy="380.1" r="59.1"/>
				<circle id="Elipse_4285" class="st1" cx="794.8" cy="380.1" r="56.5"/>
				<circle id="Elipse_4286" class="st0" cx="794.8" cy="380.1" r="51.3"/>
				<circle id="Elipse_4287" class="st1" cx="794.8" cy="380.1" r="48.9"/>
				<circle id="Elipse_4288" class="st5" cx="794.8" cy="380.1" r="45.7"/>
				<circle id="Elipse_4289" class="st0" cx="794.8" cy="380.1" r="42.4"/>
			</g>
		</g>
		<g id="Grupo_54558">
			<g id="Grupo_54555">
				<g id="Grupo_54554">
					<path id="Trazado_101630" d="M730,380.8c-0.3,0.8-0.8,1.5-1.5,2c-0.6,0.5-1.4,0.8-2.2,0.9c-0.8,0.1-1.6-0.2-2.3-0.6
						c-0.7-0.5-1.3-1.3-1.7-2.1c-0.7-1.8-0.8-3.7-0.2-5.5c0.2-0.7,0.6-1.3,1.1-1.8c0.2,0.3,0.3,0.5,0.5,0.8
						c-0.8,0.9-1.2,2.1-1.2,3.3c0,0.9,0.1,1.7,0.5,2.5c0.3,0.7,0.7,1.3,1.3,1.7c0.5,0.4,1.2,0.6,1.9,0.5c0.7,0,1.3-0.3,1.8-0.7
						c0.5-0.4,1-1,1.2-1.6c0.3-0.7,0.5-1.5,0.5-2.2c0.1-1.1-0.3-2.2-0.9-3.1c0.2-0.3,0.4-0.4,0.6-0.6c0.4,0.5,0.7,1.1,0.8,1.7
						C730.7,377.5,730.6,379.2,730,380.8L730,380.8z"/>
					<path id="Trazado_101631" d="M731.3,365l0.8,0.2c-0.6,2.3-1,4.6-1.2,6.9l-8.6-1c0.3-2.6,0.7-5.1,1.3-7.6l0.8,0.2
						c-0.5,2.1-0.9,4.2-1.2,6.4l3,0.4c0.3-2.2,0.5-3.3,1-5.4l0.8,0.2c-0.5,2.1-0.7,3.2-0.9,5.4l3.2,0.4
						C730.5,368.9,730.8,366.9,731.3,365z"/>
					<path id="Trazado_101632" d="M734.8,356.4c-1.4,0.4-2,0.7-3.4,1.2c-0.1,0.3-0.1,0.5-0.2,0.8c-0.3,1-0.5,1.6-0.8,2.6l2.6,0.8
						c-0.1,0.4-0.2,0.6-0.3,1l-8.3-2.3c0.4-1.6,0.7-2.4,1.2-4c0.3-1.1,1-2.1,1.9-2.8c0.7-0.5,1.6-0.6,2.5-0.3
						c0.6,0.2,1.1,0.7,1.4,1.2c0.3,0.6,0.4,1.3,0.3,2c1.5-0.5,2.2-0.8,3.6-1.2C735,355.8,734.9,356,734.8,356.4z M730.6,355.8
						c-0.1-0.6-0.6-1.1-1.2-1.3c-0.6-0.3-1.3-0.2-1.8,0.2c-0.7,0.6-1.1,1.3-1.4,2.1c-0.4,1.1-0.5,1.7-0.9,2.8l4.2,1.2
						c0.3-1.1,0.5-1.6,0.8-2.6C730.7,357.4,730.8,356.6,730.6,355.8z"/>
					<path id="Trazado_101633" d="M729.8,348.3c-0.7,1.4-1,2.1-1.6,3.5l-0.7-0.3c1.1-2.7,2.4-5.4,4-7.9l0.7,0.4
						c-0.8,1.3-1.1,2-1.8,3.3l7,3.6c-0.2,0.4-0.3,0.5-0.5,0.9L729.8,348.3z"/>
					<path id="Trazado_101634" d="M732.3,342c0.2-0.4,0.4-0.6,0.6-1l7.3,4.6c-0.2,0.3-0.3,0.5-0.5,0.9L732.3,342z"/>
					<path id="Trazado_101635" d="M736.2,337.6l2.7,2c1.2-1.7,1.9-2.5,3.3-4.1l0.6,0.5c-1.4,1.6-2,2.4-3.2,4.1l3,2.2
						c-0.2,0.3-0.4,0.5-0.6,0.8l-7.1-5c1.4-2,3-4,4.6-5.8l0.6,0.5C738.8,334.3,737.5,335.9,736.2,337.6z"/>
					<path id="Trazado_101636" d="M741.1,330.5c0.3-0.3,0.5-0.5,0.8-0.8l6.2,6c-0.3,0.3-0.4,0.4-0.7,0.7L741.1,330.5z"/>
					<path id="Trazado_101637" d="M751.2,332c-0.8,0.2-1.6,0.3-2.4,0.1c-0.8-0.2-1.5-0.6-2-1.2c-0.6-0.6-0.9-1.3-1-2.1
						c-0.1-0.9,0-1.7,0.4-2.5c0.4-0.9,1.1-1.7,1.8-2.3c0.6-0.5,1.2-0.9,1.9-1.1c0.6-0.2,1.3-0.3,1.9-0.3c-0.1,0.4-0.1,0.5-0.2,0.9
						c-1.1,0-2.3,0.4-3.1,1.1c-0.6,0.5-1.1,1.1-1.5,1.9c-0.3,0.6-0.4,1.3-0.3,2c0.1,0.6,0.4,1.3,0.8,1.7c0.4,0.5,1,0.8,1.6,1
						c0.6,0.2,1.3,0.1,2,0c0.7-0.2,1.3-0.5,1.9-1c0.8-0.6,1.4-1.6,1.6-2.6c0.3,0,0.5,0,0.9,0.1c-0.1,0.6-0.3,1.2-0.7,1.7
						c-0.4,0.6-0.8,1.1-1.3,1.5C752.8,331.3,752.1,331.8,751.2,332z"/>
					<path id="Trazado_101638" d="M761.8,322.2c-1.6,0.9-3.2,1.9-4.7,2.9c0.1,1,0.2,1.5,0.3,2.6c-0.3,0.2-0.5,0.4-0.9,0.6
						c-0.6-3.2-0.9-6.5-0.9-9.8c0.4-0.2,0.6-0.4,1-0.6c2.9,1.6,5.7,3.3,8.3,5.3c-0.4,0.2-0.6,0.3-1,0.5
						C763.1,323.1,762.6,322.8,761.8,322.2z M761.1,321.8c-1.8-1.1-2.7-1.7-4.5-2.7c0.1,2.1,0.2,3.2,0.4,5.3
						C758.6,323.2,759.4,322.7,761.1,321.8L761.1,321.8z"/>
					<path id="Trazado_101639" d="M764.3,314.8c-1.4,0.6-2.1,1-3.4,1.7l-0.4-0.7c2.6-1.4,5.3-2.6,8.1-3.6l0.3,0.7
						c-1.4,0.5-2.2,0.8-3.6,1.4c1.2,2.9,1.9,4.3,3.1,7.2c-0.4,0.2-0.6,0.2-0.9,0.4L764.3,314.8z"/>
					<path id="Trazado_101640" d="M770.4,311.5c0.4-0.2,0.7-0.2,1.1-0.4c1.1,3.3,1.6,4.9,2.7,8.2c-0.4,0.1-0.6,0.2-1,0.3
						C772.1,316.4,771.5,314.8,770.4,311.5z"/>
					<path id="Trazado_101641" d="M778.7,317.6c-0.8-0.2-1.6-0.5-2.2-1.1c-0.6-0.5-1.1-1.2-1.3-2c-0.2-0.8-0.2-1.6,0.1-2.4
						c0.3-0.8,0.9-1.5,1.6-2c0.8-0.6,1.8-1,2.8-1.2c1-0.2,2.1-0.2,3.1,0c0.9,0.2,1.7,0.6,2.3,1.3c0.6,0.6,0.9,1.3,1,2.2
						c0.1,0.8-0.1,1.6-0.5,2.3c-0.4,0.7-1,1.4-1.7,1.8c-0.8,0.5-1.6,0.9-2.5,1C780.5,317.7,779.6,317.8,778.7,317.6z M783.3,315.9
						c0.6-0.4,1-0.9,1.3-1.5c0.3-0.6,0.4-1.2,0.3-1.9c-0.1-0.7-0.4-1.3-0.8-1.7c-0.5-0.5-1.1-0.9-1.8-1c-1.6-0.4-3.3,0-4.7,0.9
						c-0.6,0.4-1,1-1.3,1.6c-0.2,0.6-0.3,1.3-0.1,1.9c0.2,0.6,0.5,1.2,1,1.6c0.5,0.4,1.1,0.7,1.8,0.9
						C780.6,317,782.1,316.7,783.3,315.9L783.3,315.9z"/>
					<path id="Trazado_101642" d="M798.1,307.8c-0.2,3.5-0.3,5.2-0.5,8.6c-0.4,0-0.5,0-0.9,0c-2.1-2.5-4.5-4.9-7-7
						c0.2,2.8,0.2,4.2,0.4,7c-0.4,0-0.6,0-1.1,0.1l-0.6-8.6c0.4,0,0.6,0,1-0.1c2.6,2.1,5,4.4,7.2,7l0.3-7
						C797.3,307.8,797.6,307.8,798.1,307.8z"/>
				</g>
			</g>
			<g id="Grupo_54557">
				<g id="Grupo_54556">
					<path id="Trazado_101643" class="st0" d="M730,380.8c-0.3,0.8-0.8,1.5-1.5,2c-0.6,0.5-1.4,0.8-2.2,0.9
						c-0.8,0.1-1.6-0.2-2.3-0.6c-0.7-0.5-1.3-1.3-1.7-2.1c-0.7-1.8-0.8-3.7-0.2-5.5c0.2-0.7,0.6-1.3,1.1-1.8
						c0.2,0.3,0.3,0.5,0.5,0.8c-0.8,0.9-1.2,2.1-1.2,3.3c0,0.9,0.1,1.7,0.5,2.5c0.3,0.7,0.7,1.3,1.3,1.7c0.5,0.4,1.2,0.6,1.9,0.5
						c0.7,0,1.3-0.3,1.8-0.7c0.5-0.4,1-1,1.2-1.6c0.3-0.7,0.5-1.5,0.5-2.2c0.1-1.1-0.3-2.2-0.9-3.1c0.2-0.3,0.4-0.4,0.6-0.6
						c0.4,0.5,0.7,1.1,0.8,1.7C730.7,377.5,730.6,379.2,730,380.8L730,380.8z"/>
					<path id="Trazado_101644" class="st0" d="M731.3,365l0.8,0.2c-0.6,2.3-1,4.6-1.2,6.9l-8.6-1c0.3-2.6,0.7-5.1,1.3-7.6l0.8,0.2
						c-0.5,2.1-0.9,4.2-1.2,6.4l3,0.4c0.3-2.2,0.5-3.3,1-5.4l0.8,0.2c-0.5,2.1-0.7,3.2-0.9,5.4l3.2,0.4
						C730.5,368.9,730.8,366.9,731.3,365z"/>
					<path id="Trazado_101645" class="st0" d="M734.8,356.4c-1.4,0.4-2,0.7-3.4,1.2c-0.1,0.3-0.1,0.5-0.2,0.8
						c-0.3,1-0.5,1.6-0.8,2.6l2.6,0.8c-0.1,0.4-0.2,0.6-0.3,1l-8.3-2.3c0.4-1.6,0.7-2.4,1.2-4c0.3-1.1,1-2.1,1.9-2.8
						c0.7-0.5,1.6-0.6,2.5-0.3c0.6,0.2,1.1,0.7,1.4,1.2c0.3,0.6,0.4,1.3,0.3,2c1.5-0.5,2.2-0.8,3.6-1.2
						C735,355.8,734.9,356,734.8,356.4z M730.6,355.8c-0.1-0.6-0.6-1.1-1.2-1.3c-0.6-0.3-1.3-0.2-1.8,0.2c-0.7,0.6-1.1,1.3-1.4,2.1
						c-0.4,1.1-0.5,1.7-0.9,2.8l4.2,1.2c0.3-1.1,0.5-1.6,0.8-2.6C730.7,357.4,730.8,356.6,730.6,355.8z"/>
					<path id="Trazado_101646" class="st0" d="M729.8,348.3c-0.7,1.4-1,2.1-1.6,3.5l-0.7-0.3c1.1-2.7,2.4-5.4,4-7.9l0.7,0.4
						c-0.8,1.3-1.1,2-1.8,3.3l7,3.6c-0.2,0.4-0.3,0.5-0.5,0.9L729.8,348.3z"/>
					<path id="Trazado_101647" class="st0" d="M732.3,342c0.2-0.4,0.4-0.6,0.6-1l7.3,4.6c-0.2,0.3-0.3,0.5-0.5,0.9L732.3,342z"/>
					<path id="Trazado_101648" class="st0" d="M736.2,337.6l2.7,2c1.2-1.7,1.9-2.5,3.3-4.1l0.6,0.5c-1.4,1.6-2,2.4-3.2,4.1l3,2.2
						c-0.2,0.3-0.4,0.5-0.6,0.8l-7.1-5c1.4-2,3-4,4.6-5.8l0.6,0.5C738.8,334.3,737.5,335.9,736.2,337.6z"/>
					<path id="Trazado_101649" class="st0" d="M741.1,330.5c0.3-0.3,0.5-0.5,0.8-0.8l6.2,6c-0.3,0.3-0.4,0.4-0.7,0.7L741.1,330.5z"
						/>
					<path id="Trazado_101650" class="st0" d="M751.2,332c-0.8,0.2-1.6,0.3-2.4,0.1c-0.8-0.2-1.5-0.6-2-1.2c-0.6-0.6-0.9-1.3-1-2.1
						c-0.1-0.9,0-1.7,0.4-2.5c0.4-0.9,1.1-1.7,1.8-2.3c0.6-0.5,1.2-0.9,1.9-1.1c0.6-0.2,1.3-0.3,1.9-0.3c-0.1,0.4-0.1,0.5-0.2,0.9
						c-1.1,0-2.3,0.4-3.1,1.1c-0.6,0.5-1.1,1.1-1.5,1.9c-0.3,0.6-0.4,1.3-0.3,2c0.1,0.6,0.4,1.3,0.8,1.7c0.4,0.5,1,0.8,1.6,1
						c0.6,0.2,1.3,0.1,2,0c0.7-0.2,1.3-0.5,1.9-1c0.8-0.6,1.4-1.6,1.6-2.6c0.3,0,0.5,0,0.9,0.1c-0.1,0.6-0.3,1.2-0.7,1.7
						c-0.4,0.6-0.8,1.1-1.3,1.5C752.8,331.3,752.1,331.8,751.2,332z"/>
					<path id="Trazado_101651" class="st0" d="M761.8,322.2c-1.6,0.9-3.2,1.9-4.7,2.9c0.1,1,0.2,1.5,0.3,2.6
						c-0.3,0.2-0.5,0.4-0.9,0.6c-0.6-3.2-0.9-6.5-0.9-9.8c0.4-0.2,0.6-0.4,1-0.6c2.9,1.6,5.7,3.3,8.3,5.3c-0.4,0.2-0.6,0.3-1,0.5
						C763.1,323.1,762.6,322.8,761.8,322.2z M761.1,321.8c-1.8-1.1-2.7-1.7-4.5-2.7c0.1,2.1,0.2,3.2,0.4,5.3
						C758.6,323.2,759.4,322.7,761.1,321.8L761.1,321.8z"/>
					<path id="Trazado_101652" class="st0" d="M764.3,314.8c-1.4,0.6-2.1,1-3.4,1.7l-0.4-0.7c2.6-1.4,5.3-2.6,8.1-3.6l0.3,0.7
						c-1.4,0.5-2.2,0.8-3.6,1.4c1.2,2.9,1.9,4.3,3.1,7.2c-0.4,0.2-0.6,0.2-0.9,0.4L764.3,314.8z"/>
					<path id="Trazado_101653" class="st0" d="M770.4,311.5c0.4-0.2,0.7-0.2,1.1-0.4c1.1,3.3,1.6,4.9,2.7,8.2
						c-0.4,0.1-0.6,0.2-1,0.3C772.1,316.4,771.5,314.8,770.4,311.5z"/>
					<path id="Trazado_101654" class="st0" d="M778.7,317.6c-0.8-0.2-1.6-0.5-2.2-1.1c-0.6-0.5-1.1-1.2-1.3-2
						c-0.2-0.8-0.2-1.6,0.1-2.4c0.3-0.8,0.9-1.5,1.6-2c0.8-0.6,1.8-1,2.8-1.2c1-0.2,2.1-0.2,3.1,0c0.9,0.2,1.7,0.6,2.3,1.3
						c0.6,0.6,0.9,1.3,1,2.2c0.1,0.8-0.1,1.6-0.5,2.3c-0.4,0.7-1,1.4-1.7,1.8c-0.8,0.5-1.6,0.9-2.5,1
						C780.5,317.7,779.6,317.8,778.7,317.6z M783.3,315.9c0.6-0.4,1-0.9,1.3-1.5c0.3-0.6,0.4-1.2,0.3-1.9c-0.1-0.7-0.4-1.3-0.8-1.7
						c-0.5-0.5-1.1-0.9-1.8-1c-1.6-0.4-3.3,0-4.7,0.9c-0.6,0.4-1,1-1.3,1.6c-0.2,0.6-0.3,1.3-0.1,1.9c0.2,0.6,0.5,1.2,1,1.6
						c0.5,0.4,1.1,0.7,1.8,0.9C780.6,317,782.1,316.7,783.3,315.9L783.3,315.9z"/>
					<path id="Trazado_101655" class="st0" d="M798.1,307.8c-0.2,3.5-0.3,5.2-0.5,8.6c-0.4,0-0.5,0-0.9,0c-2.1-2.5-4.5-4.9-7-7
						c0.2,2.8,0.2,4.2,0.4,7c-0.4,0-0.6,0-1.1,0.1l-0.6-8.6c0.4,0,0.6,0,1-0.1c2.6,2.1,5,4.4,7.2,7l0.3-7
						C797.3,307.8,797.6,307.8,798.1,307.8z"/>
				</g>
			</g>
		</g>
		<g id="Grupo_54563">
			<g id="Grupo_54560">
				<g id="Grupo_54559">
					<path id="Trazado_101656" d="M818.5,439.4c-0.4,3.8-1.2,7.5-2.3,11.1c-0.5,0.1-0.8,0.2-1.3,0.3c-2.6-2.8-4.9-5.8-7-9
						c0.5-0.1,0.8-0.1,1.3-0.2c1.8,2.7,3.9,5.3,6.1,7.7c1-3.1,1.7-6.4,2.1-9.6C817.8,439.7,818.1,439.6,818.5,439.4z"/>
					<path id="Trazado_101657" d="M831.2,443.9l0.4,0.8c-2.6,1.4-5.4,2.7-8.2,3.7c-1.4-3.8-2.1-5.7-3.5-9.4c2.3-0.8,4.6-1.8,6.8-3
						l0.4,0.8c-1.9,1-3.8,1.9-5.8,2.6c0.5,1.3,0.8,2,1.3,3.3c1.9-0.7,3.7-1.5,5.5-2.5l0.4,0.8c-1.8,0.9-3.7,1.8-5.6,2.5l1.4,3.5
						C826.7,446.1,829,445.1,831.2,443.9z"/>
					<path id="Trazado_101658" d="M841.5,438.3c-1.7-0.3-2.5-0.5-4.2-0.9c-0.2,0.2-0.5,0.4-0.8,0.6c-1.1,0.7-1.6,1.1-2.7,1.8
						c0.7,1.1,1,1.6,1.7,2.7c-0.5,0.3-0.7,0.4-1.1,0.7l-5.1-8.6c1.4-0.8,2.1-1.3,3.4-2.2c0.9-0.7,2-1.1,3.1-1.2c1,0,1.9,0.4,2.5,1.2
						c0.5,0.5,0.7,1.2,0.7,2c-0.1,0.8-0.4,1.5-0.9,2.1c1.8,0.4,2.7,0.6,4.5,0.9C842.2,437.8,842,437.9,841.5,438.3z M837.8,435.2
						c0.2-0.7,0.1-1.5-0.4-2c-0.4-0.6-1.1-0.9-1.8-0.9c-0.9,0.1-1.7,0.4-2.4,0.9c-0.9,0.7-1.4,1-2.4,1.6c1.1,1.7,1.6,2.6,2.7,4.3
						c1.1-0.7,1.6-1,2.6-1.7C836.8,436.8,837.4,436,837.8,435.2L837.8,435.2z"/>
					<path id="Trazado_101659" d="M838.1,428c0.3-0.3,0.5-0.5,0.8-0.8l6.9,7.3c-0.4,0.4-0.6,0.5-1,0.9L838.1,428z"/>
					<path id="Trazado_101660" d="M842.9,424.6l2.9,2.6c1.4-1.5,2.6-3,3.8-4.6l0.7,0.5c-1.2,1.6-2.5,3.2-3.8,4.7l3.2,2.9
						c-0.4,0.4-0.5,0.6-0.9,1l-7.3-6.9c1.7-1.8,3.2-3.6,4.6-5.6l0.7,0.5C845.6,421.4,844.3,423,842.9,424.6z"/>
					<path id="Trazado_101661" d="M847.4,417.2c0.2-0.4,0.4-0.6,0.6-1l8.5,5.4c-0.3,0.5-0.4,0.7-0.7,1.1L847.4,417.2z"/>
					<path id="Trazado_101662" d="M861.5,409.6l0.9,0.3c-1,2.8-2.3,5.6-3.8,8.2l-8.8-4.8c1.2-2.2,2.2-4.4,3.1-6.7l0.9,0.3
						c-0.7,2-1.6,3.9-2.6,5.8l3.2,1.6c0.9-1.8,1.8-3.6,2.5-5.5l0.8,0.3c-0.7,1.9-1.6,3.8-2.5,5.6l3.3,1.7
						C859.6,414.3,860.6,411.9,861.5,409.6z"/>
					<path id="Trazado_101663" d="M853.8,403.8c0.5-1.7,0.8-2.6,1.2-4.3c0.2-1,0.7-2,1.3-2.9c0.5-0.8,1.3-1.4,2.1-1.9
						c0.8-0.4,1.8-0.6,2.7-0.5c0.9,0.1,1.8,0.5,2.5,1.2c0.7,0.7,1.2,1.7,1.4,2.7c0.2,1.2,0.2,2.5-0.1,3.7c-0.5,2.1-0.8,3.1-1.4,5.1
						L853.8,403.8z M863.9,401.7c0.3-1,0.3-2,0.1-3c-0.1-0.8-0.5-1.6-1.1-2.2c-0.5-0.5-1.2-0.9-2-1c-0.7-0.1-1.5,0-2.2,0.3
						c-0.7,0.3-1.3,0.9-1.7,1.5c-0.5,0.7-0.9,1.6-1.1,2.4c-0.3,1.3-0.5,1.9-0.9,3.2l7.9,2.4C863.3,403.9,863.5,403.1,863.9,401.7
						L863.9,401.7z"/>
				</g>
			</g>
			<g id="Grupo_54562">
				<g id="Grupo_54561">
					<path id="Trazado_101664" class="st0" d="M818.5,439.4c-0.4,3.8-1.2,7.5-2.3,11.1c-0.5,0.1-0.8,0.2-1.3,0.3
						c-2.6-2.8-4.9-5.8-7-9c0.5-0.1,0.8-0.1,1.3-0.2c1.8,2.7,3.9,5.3,6.1,7.7c1-3.1,1.7-6.4,2.1-9.6
						C817.8,439.7,818.1,439.6,818.5,439.4z"/>
					<path id="Trazado_101665" class="st0" d="M831.2,443.9l0.4,0.8c-2.6,1.4-5.4,2.7-8.2,3.7c-1.4-3.8-2.1-5.7-3.5-9.4
						c2.3-0.8,4.6-1.8,6.8-3l0.4,0.8c-1.9,1-3.8,1.9-5.8,2.6c0.5,1.3,0.8,2,1.3,3.3c1.9-0.7,3.7-1.5,5.5-2.5l0.4,0.8
						c-1.8,0.9-3.7,1.8-5.6,2.5l1.4,3.5C826.7,446.1,829,445.1,831.2,443.9z"/>
					<path id="Trazado_101666" class="st0" d="M841.5,438.3c-1.7-0.3-2.5-0.5-4.2-0.9c-0.2,0.2-0.5,0.4-0.8,0.6
						c-1.1,0.7-1.6,1.1-2.7,1.8c0.7,1.1,1,1.6,1.7,2.7c-0.5,0.3-0.7,0.4-1.1,0.7l-5.1-8.6c1.4-0.8,2.1-1.3,3.4-2.2
						c0.9-0.7,2-1.1,3.1-1.2c1,0,1.9,0.4,2.5,1.2c0.5,0.5,0.7,1.2,0.7,2c-0.1,0.8-0.4,1.5-0.9,2.1c1.8,0.4,2.7,0.6,4.5,0.9
						C842.2,437.8,842,437.9,841.5,438.3z M837.8,435.2c0.2-0.7,0.1-1.5-0.4-2c-0.4-0.6-1.1-0.9-1.8-0.9c-0.9,0.1-1.7,0.4-2.4,0.9
						c-0.9,0.7-1.4,1-2.4,1.6c1.1,1.7,1.6,2.6,2.7,4.3c1.1-0.7,1.6-1,2.6-1.7C836.8,436.8,837.4,436,837.8,435.2L837.8,435.2z"/>
					<path id="Trazado_101667" class="st0" d="M838.1,428c0.3-0.3,0.5-0.5,0.8-0.8l6.9,7.3c-0.4,0.4-0.6,0.5-1,0.9L838.1,428z"/>
					<path id="Trazado_101668" class="st0" d="M842.9,424.6l2.9,2.6c1.4-1.5,2.6-3,3.8-4.6l0.7,0.5c-1.2,1.6-2.5,3.2-3.8,4.7
						l3.2,2.9c-0.4,0.4-0.5,0.6-0.9,1l-7.3-6.9c1.7-1.8,3.2-3.6,4.6-5.6l0.7,0.5C845.6,421.4,844.3,423,842.9,424.6z"/>
					<path id="Trazado_101669" class="st0" d="M847.4,417.2c0.2-0.4,0.4-0.6,0.6-1l8.5,5.4c-0.3,0.5-0.4,0.7-0.7,1.1L847.4,417.2z"
						/>
					<path id="Trazado_101670" class="st0" d="M861.5,409.6l0.9,0.3c-1,2.8-2.3,5.6-3.8,8.2l-8.8-4.8c1.2-2.2,2.2-4.4,3.1-6.7
						l0.9,0.3c-0.7,2-1.6,3.9-2.6,5.8l3.2,1.6c0.9-1.8,1.8-3.6,2.5-5.5l0.8,0.3c-0.7,1.9-1.6,3.8-2.5,5.6l3.3,1.7
						C859.6,414.3,860.6,411.9,861.5,409.6z"/>
					<path id="Trazado_101671" class="st0" d="M853.8,403.8c0.5-1.7,0.8-2.6,1.2-4.3c0.2-1,0.7-2,1.3-2.9c0.5-0.8,1.3-1.4,2.1-1.9
						c0.8-0.4,1.8-0.6,2.7-0.5c0.9,0.1,1.8,0.5,2.5,1.2c0.7,0.7,1.2,1.7,1.4,2.7c0.2,1.2,0.2,2.5-0.1,3.7c-0.5,2.1-0.8,3.1-1.4,5.1
						L853.8,403.8z M863.9,401.7c0.3-1,0.3-2,0.1-3c-0.1-0.8-0.5-1.6-1.1-2.2c-0.5-0.5-1.2-0.9-2-1c-0.7-0.1-1.5,0-2.2,0.3
						c-0.7,0.3-1.3,0.9-1.7,1.5c-0.5,0.7-0.9,1.6-1.1,2.4c-0.3,1.3-0.5,1.9-0.9,3.2l7.9,2.4C863.3,403.9,863.5,403.1,863.9,401.7
						L863.9,401.7z"/>
				</g>
			</g>
		</g>
	</g>
	<g id="Grupo_54565">
		<path id="Trazado_101672" class="st0" d="M834.8,295.1l-125,125c-1.6,1.6-2,4.1-0.9,6.1c2.1,3.6,2.5,8,1.1,12
			c7.2,10.5,16.2,19.5,26.7,26.7c4-1.4,8.3-1,12,1.1c2,1.1,4.5,0.7,6.1-0.9l125-125c1.6-1.6,2-4.1,0.9-6.1c-2.1-3.6-2.5-8-1.1-12
			c-7.2-10.5-16.2-19.5-26.7-26.7c-4,1.4-8.3,1-12-1.1C838.9,293.1,836.4,293.5,834.8,295.1z"/>
		<path id="Trazado_101673" class="st1" d="M873.7,323.1c-6.1-8.4-13.5-15.8-21.9-21.9c-3.5,0.7-7.1,0.4-10.4-0.8
			c-1.9-0.7-4-0.2-5.4,1.2L716.2,421.3c-1.4,1.4-1.9,3.5-1.2,5.4c1.2,3.3,1.5,6.9,0.8,10.4c6.1,8.4,13.5,15.8,21.9,21.9
			c3.5-0.7,7.1-0.4,10.4,0.8c1.9,0.7,4,0.2,5.4-1.2l119.8-119.8c1.4-1.4,1.9-3.5,1.2-5.4C873.3,330.1,873,326.5,873.7,323.1z"/>
	</g>
	<g class="st6">
		<path class="st0" d="M723.7,430.8l5.5-5.5l19.4,19.4l-5.5,5.5L723.7,430.8z"/>
		<path class="st0" d="M749.4,440.4l-2.2-5.8c2.9-0.6,6.1-2.2,8.3-4.5c2.3-2.3,2.5-3.8,1.6-4.7c-3.1-3.1-11.9,10.2-19,3
			c-3.5-3.5-3.5-9.1,2.3-14.9c2.5-2.5,5.7-4.5,8.7-5.3l2.4,5.8c-2.9,0.9-5.2,2.2-6.9,3.9c-2.3,2.3-2.4,3.9-1.4,4.9
			c3,3,11.7-10.2,18.9-3.1c3.4,3.4,3.4,9.1-2.3,14.8C756.5,437.6,752.5,439.9,749.4,440.4z"/>
		<path class="st0" d="M759.7,414.2c-5.8-5.8-5.5-14.6,0.7-20.8c6.2-6.2,15-6.5,20.8-0.7c5.8,5.8,5.5,14.6-0.7,20.8
			C774.4,419.7,765.5,420,759.7,414.2z M775.7,398.2c-3.3-3.3-7.8-3.2-10.8-0.3c-2.9,2.9-3,7.4,0.3,10.8c3.4,3.4,7.8,3.2,10.8,0.3
			C779,406.1,779.1,401.6,775.7,398.2z"/>
		<path class="st0" d="M806.8,366.1c6.8,6.8,6.4,14.8,0.3,20.9c-2.2,2.2-4.8,3.8-7.1,4.3l-1.9-5.9c1.9-0.3,3.3-1.3,4.6-2.6
			c2.7-2.7,3-6.1,0.4-9.4c-0.2,2-1.1,3.9-2.9,5.8c-3.7,3.7-9.1,4.3-12.8,0.6c-4-4-3.2-10,1-14.2
			C793.7,360.1,800.5,359.8,806.8,366.1z M797.6,368.8c-1.4-1.4-3.5-1.4-5.1,0.3c-1.6,1.6-1.7,3.6-0.2,5.1c1.5,1.5,3.5,1.4,5.1-0.2
			C799,372.4,799.1,370.3,797.6,368.8z"/>
		<path class="st0" d="M809.2,364.8c-6.4-6.4-6.5-13.7-1.5-18.6c4.9-4.9,12.2-4.8,18.6,1.6c6.4,6.4,6.5,13.7,1.6,18.6
			C822.9,371.2,815.6,371.2,809.2,364.8z M820.8,353.2c-4.1-4.1-6.9-4.3-8.6-2.6c-1.8,1.8-1.5,4.6,2.5,8.6c4.1,4.1,6.9,4.3,8.6,2.5
			C825.1,360.1,824.8,357.3,820.8,353.2z"/>
		<path class="st0" d="M828.2,345.8c-6.4-6.4-6.5-13.7-1.5-18.6c4.9-4.9,12.2-4.8,18.6,1.6c6.4,6.4,6.5,13.7,1.6,18.6
			C841.8,352.3,834.5,352.2,828.2,345.8z M839.7,334.2c-4.1-4.1-6.9-4.3-8.6-2.6c-1.8,1.8-1.5,4.6,2.5,8.6c4.1,4.1,6.9,4.3,8.6,2.5
			C844,341.1,843.8,338.3,839.7,334.2z"/>
		<path class="st0" d="M845.5,309.1l19.4,19.4l-5.5,5.5l-15.1-15.1l-3.6,3.6l-4.2-4.2L845.5,309.1z"/>
	</g>
</g>
</svg>
