<svg xmlns="http://www.w3.org/2000/svg" width="299.388" height="272.361" viewBox="0 0 299.388 272.361">
  <g id="Grupo_55411" data-name="Grupo 55411" transform="translate(-1385.053 -808.951)">
    <g id="Grupo_55365" data-name="Grupo 55365" opacity="0.2">
      <path id="Trazado_102617" data-name="Trazado 102617" d="M1492.28,900.217a53.614,53.614,0,1,1-53.614-53.614A53.613,53.613,0,0,1,1492.28,900.217Z" fill="#b6c63b"/>
      <path id="Trazado_102618" data-name="Trazado 102618" d="M1667.316,884.867a53.613,53.613,0,1,1-53.614-53.614A53.614,53.614,0,0,1,1667.316,884.867Z" fill="#b6c63b"/>
      <path id="Trazado_102619" data-name="Trazado 102619" d="M1684.441,1012.368a53.614,53.614,0,1,1-53.614-53.612A53.614,53.614,0,0,1,1684.441,1012.368Z" fill="#b6c63b"/>
    </g>
    <g id="Grupo_55366" data-name="Grupo 55366">
      <path id="Trazado_102620" data-name="Trazado 102620" d="M1449.416,868.849a.766.766,0,0,0,1.008.211c2.6-1.538,5.311-2.991,8.055-4.315a.77.77,0,0,0-.663-1.389c-2.783,1.343-5.533,2.816-8.17,4.376a.773.773,0,0,0-.272,1.055Z" fill="#8ea02a"/>
      <path id="Trazado_102621" data-name="Trazado 102621" d="M1454.116,832.495a.762.762,0,0,0,1.038.193c2.531-1.659,5.164-3.254,7.825-4.742a.768.768,0,1,0-.743-1.345c-2.693,1.5-5.357,3.119-7.918,4.8a.77.77,0,0,0-.223,1.065A.206.206,0,0,0,1454.116,832.495Z" fill="#8ea02a"/>
      <path id="Trazado_102622" data-name="Trazado 102622" d="M1411.58,908.26a.764.764,0,0,0,1.042-.3c1.476-2.684,3.077-5.315,4.761-7.822a.771.771,0,0,0-.206-1.069.763.763,0,0,0-1.064.206c-1.709,2.546-3.335,5.217-4.833,7.939a.774.774,0,0,0,.051.826A.761.761,0,0,0,1411.58,908.26Z" fill="#8ea02a"/>
      <path id="Trazado_102623" data-name="Trazado 102623" d="M1439.535,843.734a.768.768,0,0,0,1.084.068c2.265-2.012,4.642-3.971,7.064-5.825a.8.8,0,0,0,.146-1.078.764.764,0,0,0-1.075-.146c-2.452,1.874-4.857,3.858-7.151,5.893a.774.774,0,0,0-.113,1.03C1439.5,843.7,1439.519,843.715,1439.535,843.734Z" fill="#8ea02a"/>
      <path id="Trazado_102624" data-name="Trazado 102624" d="M1434.487,879.6a.759.759,0,0,0,1.078.087c2.038-1.743,4.178-3.437,6.366-5.034l.835-.6a.777.777,0,0,0,.178-1.076l0,0a.765.765,0,0,0-1.067-.174l-.843.609c-2.219,1.622-4.392,3.342-6.459,5.11a.773.773,0,0,0-.124,1.036A.459.459,0,0,0,1434.487,879.6Z" fill="#8ea02a"/>
      <path id="Trazado_102625" data-name="Trazado 102625" d="M1470.172,823.518a.765.765,0,0,0,.944.244c2.729-1.288,5.556-2.508,8.4-3.624a.769.769,0,0,0,.437-1,.756.756,0,0,0-.991-.439c-2.879,1.128-5.739,2.362-8.5,3.664a.771.771,0,0,0-.366,1.025A.763.763,0,0,0,1470.172,823.518Z" fill="#8ea02a"/>
      <path id="Trazado_102626" data-name="Trazado 102626" d="M1487.29,816.8a.767.767,0,0,0,.853.283c2.887-.918,5.849-1.751,8.8-2.479a.771.771,0,0,0,.561-.933.763.763,0,0,0-.926-.563c-2.985.736-5.98,1.579-8.9,2.505a.772.772,0,0,0-.5.967A.728.728,0,0,0,1487.29,816.8Z" fill="#8ea02a"/>
      <path id="Trazado_102627" data-name="Trazado 102627" d="M1456.026,961.97a.764.764,0,0,0,.856-.668,38.4,38.4,0,0,1,2.2-8.758.766.766,0,1,0-1.432-.546,39.794,39.794,0,0,0-2.289,9.113.768.768,0,0,0,.664.859Z" fill="#8ea02a"/>
      <path id="Trazado_102628" data-name="Trazado 102628" d="M1474.029,1002.108c1.194,1.047,2.441,2.073,3.708,3.048,1.181.908,2.4,1.8,3.643,2.648a.76.76,0,0,0,1.063-.2.772.772,0,0,0-.2-1.069c-1.215-.834-2.416-1.71-3.574-2.6-1.241-.956-2.463-1.961-3.633-2.985a.768.768,0,0,0-1.125,1.031A.738.738,0,0,0,1474.029,1002.108Z" fill="#8ea02a"/>
      <path id="Trazado_102629" data-name="Trazado 102629" d="M1423.893,1028.482q-2.811-3.633-5.35-7.444a.727.727,0,0,0-1.064-.213.774.774,0,0,0-.211,1.069q1.37,2.06,2.818,4.065,1.269,1.752,2.6,3.469a.762.762,0,0,0,1.075.134.774.774,0,0,0,.151-1.06C1423.9,1028.5,1423.9,1028.489,1423.893,1028.482Z" fill="#8ea02a"/>
      <path id="Trazado_102630" data-name="Trazado 102630" d="M1428.881,884.847a.764.764,0,0,0-1.084.01c-1.307,1.342-2.6,2.741-3.837,4.163q-1.194,1.368-2.334,2.776a.771.771,0,0,0-.026.939.71.71,0,0,0,.136.144.762.762,0,0,0,1.077-.11q1.124-1.386,2.3-2.734c1.221-1.4,2.492-2.779,3.778-4.1A.777.777,0,0,0,1428.881,884.847Z" fill="#8ea02a"/>
      <path id="Trazado_102631" data-name="Trazado 102631" d="M1409.559,1005.065a.759.759,0,0,0-1.018-.372.77.77,0,0,0-.37,1.023c1.3,2.785,2.728,5.565,4.245,8.262a.767.767,0,1,0,1.335-.757C1412.251,1010.557,1410.84,1007.814,1409.559,1005.065Z" fill="#8ea02a"/>
      <path id="Trazado_102632" data-name="Trazado 102632" d="M1490.4,922.155a.753.753,0,0,0,.1.2.762.762,0,0,0,.869.277,57.931,57.931,0,0,1,8.775-2.3.77.77,0,0,0-.272-1.516,59.411,59.411,0,0,0-9,2.363A.77.77,0,0,0,1490.4,922.155Z" fill="#8ea02a"/>
      <path id="Trazado_102633" data-name="Trazado 102633" d="M1431.577,1037.516q-.918-.983-1.818-1.989a.759.759,0,0,0-1.08-.059.771.771,0,0,0-.11,1.023.534.534,0,0,0,.051.064q.911,1.018,1.84,2.014c1.464,1.573,3.007,3.144,4.588,4.668a.762.762,0,0,0,1.084-.022.78.78,0,0,0-.022-1.088C1434.549,1040.62,1433.024,1039.069,1431.577,1037.516Z" fill="#8ea02a"/>
      <path id="Trazado_102634" data-name="Trazado 102634" d="M1404.227,925.179a.765.765,0,0,0,.976-.476c1-2.885,2.122-5.754,3.351-8.531a.766.766,0,1,0-1.4-.626c-1.247,2.816-2.391,5.727-3.4,8.653a.774.774,0,0,0,.473.98Z" fill="#8ea02a"/>
      <path id="Trazado_102635" data-name="Trazado 102635" d="M1442.926,1048.241a.762.762,0,0,0-1.078.1.775.775,0,0,0-.03.945.716.716,0,0,0,.131.14c2.355,1.962,4.82,3.874,7.322,5.676a.769.769,0,0,0,.892-1.252C1447.69,1052.069,1445.255,1050.182,1442.926,1048.241Z" fill="#8ea02a"/>
      <path id="Trazado_102636" data-name="Trazado 102636" d="M1399.277,960.736c-.026-3.039.082-6.123.321-9.166a.766.766,0,1,0-1.527-.121c-.242,3.087-.352,6.216-.327,9.3a.767.767,0,1,0,1.533-.013Z" fill="#8ea02a"/>
      <path id="Trazado_102637" data-name="Trazado 102637" d="M1399.827,943.1a.77.77,0,0,0,.882-.635c.494-3,1.126-6.024,1.874-8.977a.767.767,0,1,0-1.486-.382c-.758,3-1.4,6.062-1.9,9.107a.771.771,0,0,0,.138.578A.758.758,0,0,0,1399.827,943.1Z" fill="#8ea02a"/>
      <path id="Trazado_102638" data-name="Trazado 102638" d="M1403.165,987.89a.768.768,0,1,0-1.478.421c.83,2.947,1.8,5.922,2.89,8.838a.772.772,0,0,0,.987.45.772.772,0,0,0,.449-.992C1404.941,993.732,1403.982,990.8,1403.165,987.89Z" fill="#8ea02a"/>
      <path id="Trazado_102639" data-name="Trazado 102639" d="M1399.76,969.892a.767.767,0,1,0-1.527.151c.25,2.553.6,5.11,1.032,7.608q.142.8.293,1.6a.79.79,0,0,0,.133.31.767.767,0,0,0,1.373-.6q-.15-.79-.29-1.582C1400.347,974.928,1400.005,972.406,1399.76,969.892Z" fill="#8ea02a"/>
      <path id="Trazado_102640" data-name="Trazado 102640" d="M1465.977,860.86a.761.761,0,0,0,.892.268c2.843-1.083,5.757-2.055,8.664-2.888a.771.771,0,0,0-.421-1.483c-2.947.846-5.9,1.832-8.786,2.931a.771.771,0,0,0-.349,1.172Z" fill="#8ea02a"/>
      <path id="Trazado_102641" data-name="Trazado 102641" d="M1583.108,891.426a.765.765,0,0,0-1.072-.161.774.774,0,0,0-.163,1.072l0,.007.538.736c1.59,2.2,3.1,4.522,4.484,6.9.015.022.028.044.043.063a.763.763,0,0,0,1.006.213.775.775,0,0,0,.275-1.055c-1.414-2.422-2.949-4.785-4.567-7.024Z" fill="#8ea02a"/>
      <path id="Trazado_102642" data-name="Trazado 102642" d="M1594.4,916.644a.767.767,0,1,0,1.455-.486,90,90,0,0,0-3.373-8.68.766.766,0,1,0-1.394.635A88.548,88.548,0,0,1,1594.4,916.644Z" fill="#8ea02a"/>
      <path id="Trazado_102643" data-name="Trazado 102643" d="M1577.909,818.955c2.858,1.082,5.694,2.275,8.425,3.548a.765.765,0,0,0,1.018-.373.774.774,0,0,0-.373-1.023c-2.766-1.289-5.636-2.5-8.531-3.593a.764.764,0,0,0-.987.45.776.776,0,0,0,.1.723A.765.765,0,0,0,1577.909,818.955Z" fill="#8ea02a"/>
      <path id="Trazado_102644" data-name="Trazado 102644" d="M1502.537,854.2c1.823-.028,3.681,0,5.518.072q1.8.074,3.6.215a.769.769,0,0,0,.121-1.534q-1.824-.147-3.657-.221c-1.866-.075-3.751-.1-5.6-.073a.771.771,0,0,0,.022,1.541Z" fill="#8ea02a"/>
      <path id="Trazado_102645" data-name="Trazado 102645" d="M1560.4,813.727c2.983.666,5.96,1.442,8.847,2.3a.77.77,0,0,0,.435-1.478c-2.92-.872-5.931-1.656-8.95-2.329a.771.771,0,0,0-.787,1.2A.756.756,0,0,0,1560.4,813.727Z" fill="#8ea02a"/>
      <path id="Trazado_102646" data-name="Trazado 102646" d="M1594.477,826.671c2.649,1.481,5.277,3.082,7.814,4.754a.762.762,0,0,0,1.06-.221.774.774,0,0,0-.219-1.067c-2.568-1.694-5.228-3.312-7.912-4.813a.769.769,0,0,0-.992,1.126A.749.749,0,0,0,1594.477,826.671Z" fill="#8ea02a"/>
      <path id="Trazado_102647" data-name="Trazado 102647" d="M1663.964,938.978a.778.778,0,0,0,.144.412.766.766,0,0,0,1.386-.491c-.16-3.071-.433-6.185-.816-9.257a.766.766,0,1,0-1.521.19C1663.534,932.867,1663.807,935.946,1663.964,938.978Z" fill="#8ea02a"/>
      <path id="Trazado_102648" data-name="Trazado 102648" d="M1599.08,953.631a.765.765,0,0,0,.843-.683,84.993,84.993,0,0,0,.461-9.311.767.767,0,1,0-1.533.006,83.619,83.619,0,0,1-.452,9.142.767.767,0,0,0,.681.846Z" fill="#8ea02a"/>
      <path id="Trazado_102649" data-name="Trazado 102649" d="M1599.836,934.332a90.9,90.9,0,0,0-1.523-9.19.767.767,0,1,0-1.5.329,89.05,89.05,0,0,1,1.5,9.036.754.754,0,0,0,.14.365.767.767,0,0,0,1.383-.54Z" fill="#8ea02a"/>
      <path id="Trazado_102650" data-name="Trazado 102650" d="M1569.488,877.8a.772.772,0,0,0,.066,1.087,90.358,90.358,0,0,1,6.509,6.41.769.769,0,1,0,1.128-1.046c-2.074-2.258-4.3-4.451-6.621-6.518A.764.764,0,0,0,1569.488,877.8Z" fill="#8ea02a"/>
      <path id="Trazado_102651" data-name="Trazado 102651" d="M1508.389,918.706a.791.791,0,0,0,.148.443.757.757,0,0,0,.628.317,51.231,51.231,0,0,1,9.025.68.771.771,0,0,0,.249-1.521,52.826,52.826,0,0,0-9.292-.7A.769.769,0,0,0,1508.389,918.706Z" fill="#8ea02a"/>
      <path id="Trazado_102652" data-name="Trazado 102652" d="M1524.057,810.652c3.04-.146,6.117-.193,9.144-.139a.77.77,0,0,0,.026-1.54c-3.06-.054-6.171-.007-9.241.141a.768.768,0,0,0-.729.8.769.769,0,0,0,.8.733Z" fill="#8ea02a"/>
      <path id="Trazado_102653" data-name="Trazado 102653" d="M1520.707,855.62c2.968.511,5.968,1.169,8.914,1.952a.769.769,0,0,0,.392-1.487c-2.991-.8-6.033-1.465-9.049-1.983a.77.77,0,0,0-.257,1.518Z" fill="#8ea02a"/>
      <path id="Trazado_102654" data-name="Trazado 102654" d="M1505.894,812.7c2.988-.535,6.033-.98,9.048-1.321a.77.77,0,0,0-.171-1.53c-3.046.346-6.125.792-9.147,1.334a.77.77,0,0,0-.619.894.744.744,0,0,0,.134.317A.767.767,0,0,0,1505.894,812.7Z" fill="#8ea02a"/>
      <path id="Trazado_102655" data-name="Trazado 102655" d="M1555.786,954.989a.766.766,0,1,0,1.5-.317,42.066,42.066,0,0,0-2.946-8.914.764.764,0,0,0-1.016-.378.772.772,0,0,0-.376,1.021A40.561,40.561,0,0,1,1555.786,954.989Z" fill="#8ea02a"/>
      <path id="Trazado_102656" data-name="Trazado 102656" d="M1554.809,868.137c2.628,1.557,5.2,3.247,7.633,5.021a.762.762,0,0,0,1.07-.172.775.775,0,0,0-.17-1.075c-2.478-1.8-5.087-3.518-7.756-5.1a.764.764,0,0,0-1.049.271.778.778,0,0,0,.04.845A.764.764,0,0,0,1554.809,868.137Z" fill="#8ea02a"/>
      <path id="Trazado_102657" data-name="Trazado 102657" d="M1538.322,860.327c2.849,1.042,5.682,2.23,8.423,3.528a.768.768,0,0,0,1.021-.368.778.778,0,0,0-.368-1.027c-2.781-1.315-5.658-2.52-8.549-3.582a.77.77,0,0,0-.884,1.177A.782.782,0,0,0,1538.322,860.327Z" fill="#8ea02a"/>
      <path id="Trazado_102658" data-name="Trazado 102658" d="M1551.983,981.382a38.712,38.712,0,0,1-5.053,7.477.775.775,0,0,0-.043.959.751.751,0,0,0,.118.127.762.762,0,0,0,1.082-.075,40.251,40.251,0,0,0,5.254-7.776.774.774,0,0,0-.325-1.04A.764.764,0,0,0,1551.983,981.382Z" fill="#8ea02a"/>
      <path id="Trazado_102659" data-name="Trazado 102659" d="M1542.334,810.974c3.034.256,6.091.614,9.083,1.069a.769.769,0,0,0,.227-1.522c-3.026-.462-6.114-.825-9.182-1.082a.77.77,0,0,0-.128,1.535Z" fill="#8ea02a"/>
      <path id="Trazado_102660" data-name="Trazado 102660" d="M1526.475,921.463a.773.773,0,0,0,.452.99,46.39,46.39,0,0,1,8.122,3.97.769.769,0,0,0,.8-1.312,47.981,47.981,0,0,0-8.39-4.1A.767.767,0,0,0,1526.475,921.463Z" fill="#8ea02a"/>
      <path id="Trazado_102661" data-name="Trazado 102661" d="M1604.706,1056.9c-2.508,1.745-5.1,3.417-7.688,4.967a.771.771,0,0,0-.268,1.055l.039.061a.766.766,0,0,0,1.011.208c2.624-1.568,5.242-3.259,7.779-5.026a.774.774,0,0,0,.193-1.072A.739.739,0,0,0,1604.706,1056.9Z" fill="#8ea02a"/>
      <path id="Trazado_102662" data-name="Trazado 102662" d="M1631.654,1032.195c-1.964,2.341-4.023,4.64-6.117,6.831a.775.775,0,0,0-.071.985,1.026,1.026,0,0,0,.09.1.765.765,0,0,0,1.084-.021c2.121-2.218,4.2-4.542,6.185-6.908a.771.771,0,0,0-.093-1.085A.763.763,0,0,0,1631.654,1032.195Z" fill="#8ea02a"/>
      <path id="Trazado_102663" data-name="Trazado 102663" d="M1630.814,855.623a.787.787,0,0,0,.074-1.086c-2.026-2.335-4.147-4.62-6.3-6.795a.764.764,0,0,0-1.085,0,.772.772,0,0,0-.078,1,.835.835,0,0,0,.077.094c2.134,2.148,4.23,4.41,6.235,6.719A.764.764,0,0,0,1630.814,855.623Z" fill="#8ea02a"/>
      <path id="Trazado_102664" data-name="Trazado 102664" d="M1618.991,1045.443c-2.257,2.071-4.595,4.079-6.952,5.969a.773.773,0,0,0-.142,1.054l.021.028a.763.763,0,0,0,1.077.121c2.383-1.91,4.749-3.939,7.029-6.034a.8.8,0,0,0,.05-1.088A.764.764,0,0,0,1618.991,1045.443Z" fill="#8ea02a"/>
      <path id="Trazado_102665" data-name="Trazado 102665" d="M1597.84,961.227a.763.763,0,0,0-.915.581,76.316,76.316,0,0,1-2.523,8.785.767.767,0,1,0,1.445.514,77.785,77.785,0,0,0,2.572-8.96A.768.768,0,0,0,1597.84,961.227Z" fill="#8ea02a"/>
      <path id="Trazado_102666" data-name="Trazado 102666" d="M1617.912,842.473a.767.767,0,0,0-.07-1.085c-2.322-2.047-4.729-4.026-7.159-5.883a.761.761,0,0,0-1.072.147.771.771,0,0,0-.012.918.854.854,0,0,0,.157.161c2.4,1.836,4.781,3.791,7.075,5.814A.762.762,0,0,0,1617.912,842.473Z" fill="#8ea02a"/>
      <path id="Trazado_102667" data-name="Trazado 102667" d="M1581.806,994.077a.766.766,0,0,0-1.082.084,78.566,78.566,0,0,1-6.315,6.585.771.771,0,0,0-.1,1.016.663.663,0,0,0,.059.072.76.76,0,0,0,1.081.043,80.261,80.261,0,0,0,6.443-6.713A.771.771,0,0,0,1581.806,994.077Z" fill="#8ea02a"/>
      <path id="Trazado_102668" data-name="Trazado 102668" d="M1572.126,1073.3c-2.874.951-5.826,1.81-8.776,2.552a.769.769,0,0,0-.557.934.786.786,0,0,0,.123.265.766.766,0,0,0,.807.3c2.985-.75,5.975-1.619,8.884-2.581a.771.771,0,0,0-.481-1.465Z" fill="#8ea02a"/>
      <path id="Trazado_102669" data-name="Trazado 102669" d="M1589,1066.28c-2.715,1.369-5.51,2.656-8.308,3.822a.772.772,0,0,0-.416,1.007.88.88,0,0,0,.088.157.763.763,0,0,0,.915.258c2.833-1.179,5.662-2.481,8.408-3.868a.769.769,0,0,0-.687-1.376Z" fill="#8ea02a"/>
      <path id="Trazado_102670" data-name="Trazado 102670" d="M1591.852,978.652a.762.762,0,0,0-1.029.339,75.393,75.393,0,0,1-4.6,7.888.775.775,0,0,0,.017.88.764.764,0,0,0,1.258-.023,76.228,76.228,0,0,0,4.687-8.051A.77.77,0,0,0,1591.852,978.652Z" fill="#8ea02a"/>
      <path id="Trazado_102671" data-name="Trazado 102671" d="M1659.042,983.769a.767.767,0,0,0-.963.5c-.916,2.9-1.945,5.81-3.063,8.657a.772.772,0,0,0,.095.736.753.753,0,0,0,.337.264.766.766,0,0,0,.995-.434c1.129-2.881,2.17-5.829,3.1-8.756A.77.77,0,0,0,1659.042,983.769Z" fill="#8ea02a"/>
      <path id="Trazado_102672" data-name="Trazado 102672" d="M1640.849,870.171a.764.764,0,0,0,1.046.19.776.776,0,0,0,.213-1.07q-2.583-3.888-5.371-7.56a.765.765,0,0,0-1.076-.144.774.774,0,0,0-.153,1.065l.011.015q2.752,3.618,5.312,7.481Z" fill="#8ea02a"/>
      <path id="Trazado_102673" data-name="Trazado 102673" d="M1661.84,921.067a.762.762,0,0,0,.767.3.77.77,0,0,0,.606-.9c-.588-3.018-1.29-6.065-2.088-9.055a.767.767,0,1,0-1.48.4c.789,2.955,1.483,5.968,2.064,8.948A.785.785,0,0,0,1661.84,921.067Z" fill="#8ea02a"/>
      <path id="Trazado_102674" data-name="Trazado 102674" d="M1664.894,947.4a.765.765,0,0,0-.781.754q-.035,1.621-.11,3.241c-.09,1.95-.23,3.944-.419,5.927a.766.766,0,0,0,.143.525.756.756,0,0,0,.546.314.767.767,0,0,0,.837-.693c.189-2.008.333-4.028.425-6q.077-1.641.11-3.281A.769.769,0,0,0,1664.894,947.4Z" fill="#8ea02a"/>
      <path id="Trazado_102675" data-name="Trazado 102675" d="M1568.277,1007.8a.735.735,0,0,0,.134-1.049.8.8,0,0,0-1.107-.143,76.758,76.758,0,0,1-7.59,4.879.769.769,0,0,0,.747,1.344,78.175,78.175,0,0,0,7.743-4.977Z" fill="#8ea02a"/>
      <path id="Trazado_102676" data-name="Trazado 102676" d="M1663.274,965.8a.766.766,0,0,0-.884.63c-.5,3-1.125,6.022-1.845,9a.767.767,0,1,0,1.49.363c.728-3.011,1.355-6.071,1.865-9.1A.768.768,0,0,0,1663.274,965.8Z" fill="#8ea02a"/>
      <path id="Trazado_102677" data-name="Trazado 102677" d="M1643.571,1017.184a.764.764,0,0,0-1.059.233c-1.645,2.566-3.389,5.11-5.193,7.565a.776.776,0,0,0-.005.91.847.847,0,0,0,.166.167.762.762,0,0,0,1.071-.162c1.823-2.48,3.589-5.054,5.25-7.649A.773.773,0,0,0,1643.571,1017.184Z" fill="#8ea02a"/>
      <path id="Trazado_102678" data-name="Trazado 102678" d="M1650.033,886.171a.765.765,0,0,0,.959.237.774.774,0,0,0,.348-1.032c-1.351-2.751-2.819-5.509-4.359-8.191a.757.757,0,0,0-1.046-.281.771.771,0,0,0-.28,1.052c1.522,2.653,2.974,5.379,4.311,8.1A.76.76,0,0,0,1650.033,886.171Z" fill="#8ea02a"/>
      <path id="Trazado_102679" data-name="Trazado 102679" d="M1652.4,1000.99a.763.763,0,0,0-1.019.366c-1.3,2.753-2.7,5.5-4.177,8.176a.768.768,0,0,0,.049.825.73.73,0,0,0,.249.221.764.764,0,0,0,1.041-.3c1.492-2.7,2.914-5.48,4.224-8.264A.772.772,0,0,0,1652.4,1000.99Z" fill="#8ea02a"/>
      <path id="Trazado_102680" data-name="Trazado 102680" d="M1657.088,903.225a.767.767,0,0,0,1.345-.7c-.984-2.9-2.082-5.824-3.267-8.689a.758.758,0,0,0-1-.416.771.771,0,0,0-.414,1.006c1.172,2.835,2.258,5.726,3.232,8.6A.7.7,0,0,0,1657.088,903.225Z" fill="#8ea02a"/>
      <path id="Trazado_102681" data-name="Trazado 102681" d="M1494.113,853.9a.763.763,0,0,0-.841-.686c-3.046.321-6.125.784-9.156,1.376a.768.768,0,0,0-.607.9.766.766,0,0,0,.9.609c2.987-.583,6.022-1.038,9.024-1.357A.764.764,0,0,0,1494.113,853.9Z" fill="#8ea02a"/>
      <path id="Trazado_102682" data-name="Trazado 102682" d="M1457.808,979.8a.767.767,0,0,0,1.335-.728,39.256,39.256,0,0,1-2.233-8.755.767.767,0,1,0-1.521.2,40.727,40.727,0,0,0,2.324,9.1A.8.8,0,0,0,1457.808,979.8Z" fill="#8ea02a"/>
      <path id="Trazado_102683" data-name="Trazado 102683" d="M1498.723,1016.119a.771.771,0,0,0-.429-1,81.91,81.91,0,0,1-8.262-3.846.761.761,0,0,0-1.036.318.772.772,0,0,0,.055.813.79.79,0,0,0,.261.228,83.351,83.351,0,0,0,8.417,3.919A.764.764,0,0,0,1498.723,1016.119Z" fill="#8ea02a"/>
      <path id="Trazado_102684" data-name="Trazado 102684" d="M1557.346,963.245a.764.764,0,0,0-.791.743,40.527,40.527,0,0,1-1.32,8.951.767.767,0,1,0,1.482.395,42,42,0,0,0,1.368-9.295A.762.762,0,0,0,1557.346,963.245Z" fill="#8ea02a"/>
      <path id="Trazado_102685" data-name="Trazado 102685" d="M1499.929,1076.2c-2.96-.679-5.937-1.465-8.845-2.334a.77.77,0,0,0-.838,1.19.747.747,0,0,0,.4.285c2.941.88,5.947,1.674,8.942,2.36a.77.77,0,0,0,.34-1.5Z" fill="#8ea02a"/>
      <path id="Trazado_102686" data-name="Trazado 102686" d="M1506.293,997.728a.771.771,0,0,0-.34-1.034,31.1,31.1,0,0,1-7.34-5.13.763.763,0,0,0-1.083.034.773.773,0,0,0-.064.979.912.912,0,0,0,.1.109,32.6,32.6,0,0,0,7.7,5.383A.764.764,0,0,0,1506.293,997.728Z" fill="#8ea02a"/>
      <path id="Trazado_102687" data-name="Trazado 102687" d="M1463.194,987.191a.758.758,0,0,0-1.056-.245.774.774,0,0,0-.245,1.06c.674,1.085,1.4,2.17,2.165,3.226,1.049,1.45,2.191,2.886,3.4,4.277a.767.767,0,0,0,1.082.074.781.781,0,0,0,.074-1.087A57.352,57.352,0,0,1,1463.194,987.191Z" fill="#8ea02a"/>
      <path id="Trazado_102688" data-name="Trazado 102688" d="M1465.712,1063.494c-2.7-1.432-5.372-2.965-7.94-4.554a.763.763,0,0,0-1.054.252.772.772,0,0,0,.033.856.745.745,0,0,0,.218.2c2.595,1.608,5.3,3.158,8.028,4.6a.761.761,0,0,0,1.034-.321A.772.772,0,0,0,1465.712,1063.494Z" fill="#8ea02a"/>
      <path id="Trazado_102689" data-name="Trazado 102689" d="M1482.406,1070.966c-2.848-1.055-5.7-2.219-8.471-3.459a.769.769,0,0,0-.623,1.407c2.8,1.254,5.683,2.432,8.564,3.5a.767.767,0,0,0,.985-.457A.775.775,0,0,0,1482.406,1070.966Z" fill="#8ea02a"/>
      <path id="Trazado_102690" data-name="Trazado 102690" d="M1467.592,936.234a51.9,51.9,0,0,0-5.724,7.391.777.777,0,0,0,.025.869.754.754,0,0,0,.208.2.766.766,0,0,0,1.058-.234,50.251,50.251,0,0,1,5.556-7.173.785.785,0,0,0-.039-1.09A.765.765,0,0,0,1467.592,936.234Z" fill="#8ea02a"/>
      <path id="Trazado_102691" data-name="Trazado 102691" d="M1482.344,924.914c-1.545.827-3.066,1.727-4.516,2.677q-1.158.756-2.281,1.576-.528.386-1.047.784a.776.776,0,0,0-.157,1.066l.011.014a.766.766,0,0,0,1.074.146c.337-.259.677-.512,1.019-.763q1.094-.8,2.218-1.533c1.412-.925,2.891-1.8,4.4-2.607a.769.769,0,0,0-.719-1.36Z" fill="#8ea02a"/>
      <path id="Trazado_102692" data-name="Trazado 102692" d="M1540.235,994.86a32.68,32.68,0,0,1-3,1.823,30.97,30.97,0,0,1-5.031,2.134.773.773,0,0,0-.494.97.8.8,0,0,0,.11.216.766.766,0,0,0,.856.28,32.411,32.411,0,0,0,5.279-2.24,34.523,34.523,0,0,0,3.144-1.908.774.774,0,0,0,.2-1.071A.763.763,0,0,0,1540.235,994.86Z" fill="#8ea02a"/>
      <path id="Trazado_102693" data-name="Trazado 102693" d="M1552.516,1015.874a.762.762,0,0,0-1-.423,70.3,70.3,0,0,1-8.621,2.9.769.769,0,0,0-.545.941.733.733,0,0,0,.122.255.763.763,0,0,0,.814.293,71.558,71.558,0,0,0,8.809-2.96A.767.767,0,0,0,1552.516,1015.874Z" fill="#8ea02a"/>
      <path id="Trazado_102694" data-name="Trazado 102694" d="M1548.337,938.61a.765.765,0,0,0,1.072.16.773.773,0,0,0,.163-1.072l0-.006a48.317,48.317,0,0,0-6.262-6.952.762.762,0,0,0-1.081.052.77.77,0,0,0-.054.969.638.638,0,0,0,.1.118A46.77,46.77,0,0,1,1548.337,938.61Z" fill="#8ea02a"/>
      <path id="Trazado_102695" data-name="Trazado 102695" d="M1554.413,1077.758c-2.988.528-6.034.955-9.051,1.275a.767.767,0,0,0-.683.844.777.777,0,0,0,.141.373.765.765,0,0,0,.7.313c3.053-.32,6.134-.753,9.157-1.287a.77.77,0,0,0-.264-1.518Z" fill="#8ea02a"/>
      <path id="Trazado_102696" data-name="Trazado 102696" d="M1523.376,1000.394a35.771,35.771,0,0,1-8.951-.735.768.768,0,0,0-.907.6.778.778,0,0,0,.131.61.763.763,0,0,0,.463.3,37.2,37.2,0,0,0,9.333.765.77.77,0,0,0-.069-1.538Z" fill="#8ea02a"/>
      <path id="Trazado_102697" data-name="Trazado 102697" d="M1517.976,1079.132c-3.025-.291-6.076-.684-9.07-1.171a.77.77,0,0,0-.741,1.212.773.773,0,0,0,.5.308c3.024.492,6.108.89,9.167,1.185a.771.771,0,0,0,.146-1.534Z" fill="#8ea02a"/>
      <path id="Trazado_102698" data-name="Trazado 102698" d="M1536.242,1079.681c-3.016.109-6.091.121-9.141.029a.766.766,0,0,0-.789.746.747.747,0,0,0,.146.476.757.757,0,0,0,.595.316c3.086.094,6.2.084,9.246-.029a.77.77,0,0,0-.057-1.538Z" fill="#8ea02a"/>
      <path id="Trazado_102699" data-name="Trazado 102699" d="M1516.495,1020.709a.77.77,0,0,0-.652-.87,76.209,76.209,0,0,1-8.91-1.838.77.77,0,0,0-.82,1.2.75.75,0,0,0,.422.291,77.694,77.694,0,0,0,9.092,1.876A.771.771,0,0,0,1516.495,1020.709Z" fill="#8ea02a"/>
      <path id="Trazado_102700" data-name="Trazado 102700" d="M1534.165,1021.6a.77.77,0,0,0-.186-1.528c-1.287.158-2.6.279-3.9.36-1.707.106-3.448.147-5.171.121a.771.771,0,0,0-.023,1.541c1.762.025,3.541-.016,5.287-.124C1531.5,1021.887,1532.848,1021.763,1534.165,1021.6Z" fill="#8ea02a"/>
    </g>
    <g id="Grupo_55410" data-name="Grupo 55410">
      <g id="_1" data-name="1">
        <g id="Grupo_55371" data-name="Grupo 55371">
          <path id="Trazado_102701" data-name="Trazado 102701" d="M1394.116,916.946a6.572,6.572,0,0,0-6.572,6.571V991.8a6.571,6.571,0,0,0,6.572,6.572h24.965V916.946Z" fill="#b98757"/>
          <path id="Trazado_102702" data-name="Trazado 102702" d="M1444.762,916.946h-25.681v81.422h25.681a6.571,6.571,0,0,0,6.572-6.572V923.517A6.572,6.572,0,0,0,1444.762,916.946Z" fill="#a27347"/>
          <rect id="Rectángulo_5599" data-name="Rectángulo 5599" width="26.596" height="74.307" transform="translate(1392.486 919.339)" fill="#5b5c5f"/>
          <rect id="Rectángulo_5600" data-name="Rectángulo 5600" width="27.311" height="74.307" transform="translate(1419.081 919.339)" fill="#45474c"/>
          <rect id="Rectángulo_5601" data-name="Rectángulo 5601" width="25.447" height="71.485" transform="translate(1393.635 920.792)" fill="#fff"/>
          <rect id="Rectángulo_5602" data-name="Rectángulo 5602" width="26.162" height="71.485" transform="translate(1419.081 920.792)" fill="#e1e2e3"/>
          <path id="Trazado_102703" data-name="Trazado 102703" d="M1409.822,915.814v2.113a2.723,2.723,0,0,0,2.725,2.724h6.534v-4.837Z" fill="#afb0b2"/>
          <path id="Trazado_102704" data-name="Trazado 102704" d="M1419.081,915.814v4.837h7.25a2.724,2.724,0,0,0,2.725-2.724v-2.113Z" fill="#90969c"/>
          <path id="Trazado_102705" data-name="Trazado 102705" d="M1407.428,917.927a2.573,2.573,0,0,0-2.574,2.574v.3a2.573,2.573,0,0,0,2.574,2.574h11.653v-5.449Z" fill="#818387"/>
          <path id="Trazado_102706" data-name="Trazado 102706" d="M1431.45,917.927h-12.369v5.449h12.369a2.574,2.574,0,0,0,2.574-2.574v-.3A2.574,2.574,0,0,0,1431.45,917.927Z" fill="#676b72"/>
          <g id="Grupo_55370" data-name="Grupo 55370">
            <g id="Grupo_55367" data-name="Grupo 55367">
              <path id="Trazado_102707" data-name="Trazado 102707" d="M1400.475,940.161H1409v-8.526h-8.524Zm.63-7.894h7.263v7.262H1401.1Z" fill="#6d7073"/>
              <rect id="Rectángulo_5603" data-name="Rectángulo 5603" width="6.885" height="1.421" transform="translate(1412.197 934.995)" fill="#6d7073"/>
              <rect id="Rectángulo_5604" data-name="Rectángulo 5604" width="19.322" height="1.421" transform="translate(1419.081 934.995)" fill="#555a5f"/>
            </g>
            <g id="Grupo_55368" data-name="Grupo 55368">
              <path id="Trazado_102708" data-name="Trazado 102708" d="M1400.475,961.435H1409v-8.526h-8.524Zm.63-7.894h7.263V960.8H1401.1Z" fill="#6d7073"/>
              <rect id="Rectángulo_5605" data-name="Rectángulo 5605" width="6.885" height="1.42" transform="translate(1412.197 956.269)" fill="#6d7073"/>
              <rect id="Rectángulo_5606" data-name="Rectángulo 5606" width="19.322" height="1.42" transform="translate(1419.081 956.269)" fill="#555a5f"/>
            </g>
            <g id="Grupo_55369" data-name="Grupo 55369">
              <path id="Trazado_102709" data-name="Trazado 102709" d="M1400.475,982.709H1409v-8.526h-8.524Zm.63-7.894h7.263v7.262H1401.1Z" fill="#6d7073"/>
              <rect id="Rectángulo_5607" data-name="Rectángulo 5607" width="6.885" height="1.421" transform="translate(1412.197 977.543)" fill="#6d7073"/>
              <rect id="Rectángulo_5608" data-name="Rectángulo 5608" width="19.322" height="1.421" transform="translate(1419.081 977.543)" fill="#555a5f"/>
            </g>
          </g>
          <path id="Trazado_102710" data-name="Trazado 102710" d="M1417.874,912.477a1.562,1.562,0,0,1,1.207-1.52v-1.6a3.143,3.143,0,0,0-2.8,3.119h-3.738a2.724,2.724,0,0,0-2.725,2.725v.612h9.259V914A1.562,1.562,0,0,1,1417.874,912.477Z" fill="#6d7073"/>
          <path id="Trazado_102711" data-name="Trazado 102711" d="M1429.056,915.2a2.724,2.724,0,0,0-2.725-2.725h-3.738a3.154,3.154,0,0,0-3.155-3.155,3.242,3.242,0,0,0-.357.036v1.6a1.618,1.618,0,0,1,.357-.044,1.565,1.565,0,1,1-.357,3.084v1.817h9.975Z" fill="#555a5f"/>
        </g>
        <g id="Grupo_55372" data-name="Grupo 55372">
          <path id="Trazado_102712" data-name="Trazado 102712" d="M1426.756,971.7c.8-.852,2.039-2.181,4.244-4.546l-3.478-2.369c-1.394,2.916-2.176,4.557-2.677,5.611Z" fill="#19998c"/>
          <path id="Trazado_102713" data-name="Trazado 102713" d="M1456.2,919.565l3.617-5.309,4.592,7.016-2.612,3.833Z" fill="#19998c"/>
          <path id="Trazado_102714" data-name="Trazado 102714" d="M1451.46,940.6l-6.711-4.572q-.653,1.019-1.286,2.021l6.587,4.489C1450.519,941.9,1450.987,941.258,1451.46,940.6Z" fill="#323133"/>
          <path id="Trazado_102715" data-name="Trazado 102715" d="M1441.908,940.534c-4.4,7.071-8.485,14.116-14.688,24.338l3.812,2.6c7.243-9.513,12.3-15.894,17.276-22.574Z" fill="#323133"/>
          <path id="Trazado_102716" data-name="Trazado 102716" d="M1456.168,920.894a2.643,2.643,0,0,0-2.76-.411c-1.972.644-4.157,2.9-6.487,6.683-4.8,7.51-11.287,16.567-11.351,16.657,0,0,3.985.537,5.221-4.163,1.777-2.6,9.743-13.419,9.823-13.525a3.208,3.208,0,0,1,1.268-1c.346-.113.865-.156,1.377.759.422.753.849.8,1.134.707,1.136-.37,1.713-4.263,1.862-5.448l.02-.15Z" fill="#323133"/>
          <path id="Trazado_102717" data-name="Trazado 102717" d="M1450.05,942.541l-6.587-4.489c-.525.831-1.041,1.656-1.555,2.482l6.4,4.361C1448.889,944.115,1449.469,943.333,1450.05,942.541Z" fill="#19998c"/>
          <path id="Trazado_102718" data-name="Trazado 102718" d="M1463.064,923.61q-3.369-2.3-6.743-4.595c-4.782,6.709-8.373,12.029-11.572,17.016l6.711,4.572C1454.931,935.8,1458.569,930.516,1463.064,923.61Z" fill="#323133"/>
          <path id="Trazado_102719" data-name="Trazado 102719" d="M1424.845,970.4a7.832,7.832,0,0,0-.939,3.432,10.146,10.146,0,0,0,1.608-1,9.844,9.844,0,0,0,1.242-1.128Q1425.8,971.05,1424.845,970.4Z" fill="#323133"/>
          <path id="Trazado_102720" data-name="Trazado 102720" d="M1456.959,922.577l-10.1,14.885,3.039,2.072,10.228-14.856Z" fill="#afb0b2"/>
        </g>
      </g>
      <g id="_9" data-name="9">
        <g id="Grupo_55384" data-name="Grupo 55384">
          <path id="Rectángulo_5609" data-name="Rectángulo 5609" d="M8.683,0H77.475a8.683,8.683,0,0,1,8.683,8.683v56a8.683,8.683,0,0,1-8.683,8.683H8.681A8.681,8.681,0,0,1,0,64.686v-56A8.683,8.683,0,0,1,8.683,0Z" transform="translate(1438.493 832.422)" fill="#e34815"/>
          <g id="Grupo_55373" data-name="Grupo 55373">
            <rect id="Rectángulo_5610" data-name="Rectángulo 5610" width="38.886" height="66.841" transform="translate(1441.187 836.4)" fill="#6d7073"/>
            <rect id="Rectángulo_5611" data-name="Rectángulo 5611" width="38.886" height="66.841" transform="translate(1483.073 836.4)" fill="#6d7073"/>
          </g>
          <g id="Grupo_55374" data-name="Grupo 55374">
            <rect id="Rectángulo_5612" data-name="Rectángulo 5612" width="38.367" height="66.841" transform="translate(1441.725 835.613)" fill="#fff"/>
            <rect id="Rectángulo_5613" data-name="Rectángulo 5613" width="38.367" height="66.841" transform="translate(1483.054 835.613)" fill="#fff"/>
          </g>
          <g id="Grupo_55375" data-name="Grupo 55375">
            <path id="Trazado_102721" data-name="Trazado 102721" d="M1478.745,840.453c0,1.522-.843,2.758-1.884,2.758s-1.885-1.236-1.885-2.758.845-2.757,1.885-2.757S1478.745,838.931,1478.745,840.453Z" fill="#96999b"/>
            <path id="Trazado_102722" data-name="Trazado 102722" d="M1478.745,851.866c0,1.524-.843,2.758-1.884,2.758s-1.885-1.234-1.885-2.758.845-2.756,1.885-2.756S1478.745,850.344,1478.745,851.866Z" fill="#96999b"/>
            <path id="Trazado_102723" data-name="Trazado 102723" d="M1478.745,863.28c0,1.522-.843,2.756-1.884,2.756s-1.885-1.234-1.885-2.756.845-2.757,1.885-2.757S1478.745,861.757,1478.745,863.28Z" fill="#96999b"/>
            <path id="Trazado_102724" data-name="Trazado 102724" d="M1478.745,874.693c0,1.522-.843,2.757-1.884,2.757s-1.885-1.235-1.885-2.757.845-2.758,1.885-2.758S1478.745,873.17,1478.745,874.693Z" fill="#96999b"/>
            <path id="Trazado_102725" data-name="Trazado 102725" d="M1478.745,886.106c0,1.523-.843,2.757-1.884,2.757s-1.885-1.234-1.885-2.757.845-2.758,1.885-2.758S1478.745,884.584,1478.745,886.106Z" fill="#96999b"/>
            <path id="Trazado_102726" data-name="Trazado 102726" d="M1478.745,897.518c0,1.524-.843,2.758-1.884,2.758s-1.885-1.234-1.885-2.758.845-2.756,1.885-2.756S1478.745,896,1478.745,897.518Z" fill="#96999b"/>
          </g>
          <g id="Grupo_55376" data-name="Grupo 55376">
            <path id="Trazado_102727" data-name="Trazado 102727" d="M1488.976,840.71c0,1.522-.843,2.758-1.884,2.758s-1.885-1.236-1.885-2.758.845-2.757,1.885-2.757S1488.976,839.187,1488.976,840.71Z" fill="#96999b"/>
            <path id="Trazado_102728" data-name="Trazado 102728" d="M1488.976,852.123c0,1.524-.843,2.757-1.884,2.757s-1.885-1.233-1.885-2.757.845-2.757,1.885-2.757S1488.976,850.6,1488.976,852.123Z" fill="#96999b"/>
            <path id="Trazado_102729" data-name="Trazado 102729" d="M1488.976,863.536c0,1.523-.843,2.757-1.884,2.757s-1.885-1.234-1.885-2.757.845-2.756,1.885-2.756S1488.976,862.014,1488.976,863.536Z" fill="#96999b"/>
            <path id="Trazado_102730" data-name="Trazado 102730" d="M1488.976,874.95c0,1.522-.843,2.756-1.884,2.756s-1.885-1.234-1.885-2.756.845-2.757,1.885-2.757S1488.976,873.426,1488.976,874.95Z" fill="#96999b"/>
            <path id="Trazado_102731" data-name="Trazado 102731" d="M1488.976,886.363c0,1.521-.843,2.757-1.884,2.757s-1.885-1.236-1.885-2.757.845-2.758,1.885-2.758S1488.976,884.839,1488.976,886.363Z" fill="#96999b"/>
            <path id="Trazado_102732" data-name="Trazado 102732" d="M1488.976,897.775c0,1.524-.843,2.758-1.884,2.758s-1.885-1.234-1.885-2.758.845-2.757,1.885-2.757S1488.976,896.253,1488.976,897.775Z" fill="#96999b"/>
          </g>
          <g id="Grupo_55377" data-name="Grupo 55377">
            <path id="Trazado_102733" data-name="Trazado 102733" d="M1485.821,842.679H1478.6a1.51,1.51,0,0,1-1.505-1.507h0a1.511,1.511,0,0,1,1.505-1.506h7.219a1.512,1.512,0,0,1,1.507,1.506h0A1.511,1.511,0,0,1,1485.821,842.679Z" fill="#6d7073"/>
            <path id="Trazado_102734" data-name="Trazado 102734" d="M1485.821,853.913H1478.6a1.51,1.51,0,0,1-1.505-1.505h0a1.51,1.51,0,0,1,1.505-1.507h7.219a1.511,1.511,0,0,1,1.507,1.507h0A1.511,1.511,0,0,1,1485.821,853.913Z" fill="#6d7073"/>
            <path id="Trazado_102735" data-name="Trazado 102735" d="M1485.821,865.148H1478.6a1.511,1.511,0,0,1-1.505-1.506h0a1.51,1.51,0,0,1,1.505-1.507h7.219a1.511,1.511,0,0,1,1.507,1.507h0A1.512,1.512,0,0,1,1485.821,865.148Z" fill="#6d7073"/>
            <path id="Trazado_102736" data-name="Trazado 102736" d="M1485.821,876.383H1478.6a1.511,1.511,0,0,1-1.505-1.507h0a1.511,1.511,0,0,1,1.505-1.507h7.219a1.512,1.512,0,0,1,1.507,1.507h0A1.513,1.513,0,0,1,1485.821,876.383Z" fill="#6d7073"/>
            <path id="Trazado_102737" data-name="Trazado 102737" d="M1485.821,887.618H1478.6a1.511,1.511,0,0,1-1.505-1.507h0a1.512,1.512,0,0,1,1.505-1.508h7.219a1.513,1.513,0,0,1,1.507,1.508h0A1.512,1.512,0,0,1,1485.821,887.618Z" fill="#6d7073"/>
            <path id="Trazado_102738" data-name="Trazado 102738" d="M1485.821,898.852H1478.6a1.511,1.511,0,0,1-1.505-1.507h0a1.511,1.511,0,0,1,1.505-1.507h7.219a1.512,1.512,0,0,1,1.507,1.507h0A1.512,1.512,0,0,1,1485.821,898.852Z" fill="#6d7073"/>
          </g>
          <g id="Grupo_55380" data-name="Grupo 55380">
            <g id="Grupo_55378" data-name="Grupo 55378">
              <rect id="Rectángulo_5614" data-name="Rectángulo 5614" width="7.842" height="4.389" transform="translate(1444.283 841.11)" fill="#dc091d"/>
              <rect id="Rectángulo_5615" data-name="Rectángulo 5615" width="7.842" height="4.389" transform="translate(1465.789 841.11)" fill="#afb0b2"/>
            </g>
            <g id="Grupo_55379" data-name="Grupo 55379">
              <rect id="Rectángulo_5616" data-name="Rectángulo 5616" width="29.348" height="0.442" transform="translate(1444.283 849.14)" fill="#afb0b2"/>
              <rect id="Rectángulo_5617" data-name="Rectángulo 5617" width="29.348" height="0.442" transform="translate(1444.283 855.63)" fill="#afb0b2"/>
              <rect id="Rectángulo_5618" data-name="Rectángulo 5618" width="29.348" height="0.442" transform="translate(1444.283 862.12)" fill="#afb0b2"/>
              <rect id="Rectángulo_5619" data-name="Rectángulo 5619" width="29.348" height="0.442" transform="translate(1444.283 868.61)" fill="#afb0b2"/>
              <rect id="Rectángulo_5620" data-name="Rectángulo 5620" width="29.348" height="0.44" transform="translate(1444.283 875.1)" fill="#afb0b2"/>
              <rect id="Rectángulo_5621" data-name="Rectángulo 5621" width="29.348" height="0.44" transform="translate(1444.283 881.591)" fill="#afb0b2"/>
              <rect id="Rectángulo_5622" data-name="Rectángulo 5622" width="29.348" height="0.44" transform="translate(1444.283 888.081)" fill="#afb0b2"/>
              <rect id="Rectángulo_5623" data-name="Rectángulo 5623" width="29.348" height="0.44" transform="translate(1444.283 894.571)" fill="#afb0b2"/>
            </g>
          </g>
          <g id="Grupo_55383" data-name="Grupo 55383">
            <g id="Grupo_55381" data-name="Grupo 55381">
              <rect id="Rectángulo_5624" data-name="Rectángulo 5624" width="7.842" height="4.389" transform="translate(1512.368 841.11)" fill="#dc091d"/>
              <rect id="Rectángulo_5625" data-name="Rectángulo 5625" width="7.844" height="4.389" transform="translate(1490.86 841.11)" fill="#afb0b2"/>
            </g>
            <g id="Grupo_55382" data-name="Grupo 55382">
              <rect id="Rectángulo_5626" data-name="Rectángulo 5626" width="29.35" height="0.442" transform="translate(1490.86 849.14)" fill="#afb0b2"/>
              <rect id="Rectángulo_5627" data-name="Rectángulo 5627" width="29.35" height="0.442" transform="translate(1490.86 855.63)" fill="#afb0b2"/>
              <rect id="Rectángulo_5628" data-name="Rectángulo 5628" width="29.35" height="0.442" transform="translate(1490.86 862.12)" fill="#afb0b2"/>
              <rect id="Rectángulo_5629" data-name="Rectángulo 5629" width="29.35" height="0.442" transform="translate(1490.86 868.61)" fill="#afb0b2"/>
              <rect id="Rectángulo_5630" data-name="Rectángulo 5630" width="29.35" height="0.44" transform="translate(1490.86 875.1)" fill="#afb0b2"/>
              <rect id="Rectángulo_5631" data-name="Rectángulo 5631" width="29.35" height="0.44" transform="translate(1490.86 881.591)" fill="#afb0b2"/>
              <rect id="Rectángulo_5632" data-name="Rectángulo 5632" width="29.35" height="0.44" transform="translate(1490.86 888.081)" fill="#afb0b2"/>
              <rect id="Rectángulo_5633" data-name="Rectángulo 5633" width="29.35" height="0.44" transform="translate(1490.86 894.571)" fill="#afb0b2"/>
            </g>
          </g>
          <path id="Trazado_102739" data-name="Trazado 102739" d="M1457.939,835.482h6.957v-9.756l-3.479,3.173-3.531-3.211Z" fill="#19998c"/>
          <path id="Trazado_102740" data-name="Trazado 102740" d="M1448.256,835.482h6.957V823.637l-3.478,3.852-3.531-3.9Z" fill="#ffe323"/>
        </g>
        <g id="Grupo_55385" data-name="Grupo 55385">
          <path id="Trazado_102741" data-name="Trazado 102741" d="M1505.391,870.77l-3.788-15.178,1.268-.393,2.806,11.251,6.089-15.234,1.2.6Z" fill="#dc091d"/>
        </g>
      </g>
      <g id="Grupo_55386" data-name="Grupo 55386">
        <path id="Trazado_102742" data-name="Trazado 102742" d="M1620.154,960.191v54.458h18.023V953.938h-18.023V955.2l1.09.252ZM1629.63,1011l-.164.007a4.565,4.565,0,1,1,0-9.13l.15.007a4.561,4.561,0,0,1,.014,9.116Zm-7.541-54.235V956.6h14.754v41.845h-14.754Z" fill="#61c0dc"/>
        <path id="Trazado_102743" data-name="Trazado 102743" d="M1629.608,1002.484l-.029,0c-.038,0-.076-.005-.113-.005a3.963,3.963,0,0,0,0,7.926c.037,0,.075,0,.113-.005l.029,0a3.958,3.958,0,0,0,0-7.912Zm-.021,7.322c-.041,0-.08.006-.121.006a3.372,3.372,0,0,1,0-6.744c.041,0,.08.005.121.007a3.367,3.367,0,0,1,0,6.731Z" fill="#61c0dc"/>
        <path id="Trazado_102744" data-name="Trazado 102744" d="M1648.212,1014.649h9.191V953.938h-18.624v60.711h9.433Zm.042-3.651-.162.007a4.565,4.565,0,1,1,0-9.13l.149.007a4.561,4.561,0,0,1,.013,9.116Zm-7.541-35.611V956.6h14.756v41.845h-14.756Z" fill="#61c0dc"/>
        <path id="Trazado_102745" data-name="Trazado 102745" d="M1648.233,1002.484l-.03,0c-.037,0-.073-.005-.113-.005a3.963,3.963,0,0,0,0,7.926c.04,0,.076,0,.113-.005l.03,0a3.958,3.958,0,0,0,0-7.912Zm-.021,7.322c-.04,0-.081.006-.122.006a3.372,3.372,0,0,1,0-6.744c.041,0,.082.005.122.007a3.368,3.368,0,0,1,0,6.731Z" fill="#61c0dc"/>
        <path id="Trazado_102746" data-name="Trazado 102746" d="M1606.906,1015.068l12.646-54.947.6-2.618.369-1.6-.369-.085-.6-.139-7.987-1.838-9.194-2.116-13.615,59.166,9.192,2.114Zm-3.245-60.315,7.306,1.683,7.073,1.626-9.385,40.779-7.073-1.626-7.306-1.683Zm-7.859,52.65a4.563,4.563,0,0,1,4.9-6.871l.147.039a4.561,4.561,0,0,1-2.036,8.887,1.328,1.328,0,0,1-.175-.034A4.515,4.515,0,0,1,1595.8,1007.4Z" fill="#61c0dc"/>
        <path id="Trazado_102747" data-name="Trazado 102747" d="M1598.894,1008.863l.029.005a4.061,4.061,0,0,0,.753.072h0a3.959,3.959,0,0,0,1.021-7.783l-.028-.008c-.036-.012-.07-.022-.108-.031a3.963,3.963,0,1,0-1.777,7.724C1598.82,1008.85,1598.858,1008.856,1598.894,1008.863Zm-2.507-4.64a3.373,3.373,0,0,1,4.042-2.53c.039.01.076.023.116.035a3.367,3.367,0,0,1-1.511,6.559c-.039-.008-.078-.012-.119-.021A3.37,3.37,0,0,1,1596.387,1004.223Z" fill="#61c0dc"/>
        <rect id="Rectángulo_5634" data-name="Rectángulo 5634" width="84.495" height="4.855" transform="translate(1582.303 1015.901)" fill="#61c0dc"/>
        <rect id="Rectángulo_5635" data-name="Rectángulo 5635" width="12.054" height="1.79" transform="translate(1641.916 961.052)" fill="#61c0dc"/>
        <rect id="Rectángulo_5636" data-name="Rectángulo 5636" width="12.054" height="1.79" transform="translate(1641.916 964.155)" fill="#61c0dc"/>
        <rect id="Rectángulo_5637" data-name="Rectángulo 5637" width="12.056" height="1.79" transform="translate(1623.439 961.052)" fill="#61c0dc"/>
        <rect id="Rectángulo_5638" data-name="Rectángulo 5638" width="12.056" height="1.79" transform="translate(1623.439 964.155)" fill="#61c0dc"/>
        <rect id="Rectángulo_5639" data-name="Rectángulo 5639" width="1.79" height="12.055" transform="matrix(0.225, -0.974, 0.974, 0.225, 1603.571, 960.733)" fill="#61c0dc"/>
        <rect id="Rectángulo_5640" data-name="Rectángulo 5640" width="1.79" height="12.054" transform="matrix(0.225, -0.974, 0.974, 0.225, 1602.873, 963.755)" fill="#61c0dc"/>
      </g>
      <g id="_7" data-name="7">
        <g id="Grupo_55391" data-name="Grupo 55391">
          <g id="Grupo_55387" data-name="Grupo 55387">
            <path id="Trazado_102748" data-name="Trazado 102748" d="M1663.411,911.1l-63.385-13.925-52.79,9.761,81.54,18.453Z" fill="#afb0b2"/>
          </g>
          <g id="Grupo_55388" data-name="Grupo 55388">
            <path id="Trazado_102749" data-name="Trazado 102749" d="M1662.9,907.764l-63.385-13.925-52.79,9.763,81.54,18.453Z" fill="#e1e2e3"/>
          </g>
          <g id="Grupo_55389" data-name="Grupo 55389">
            <path id="Trazado_102750" data-name="Trazado 102750" d="M1663.935,903.3l-63.385-13.926-52.79,9.763,81.54,18.453Z" fill="#afb0b2"/>
          </g>
          <g id="Grupo_55390" data-name="Grupo 55390">
            <path id="Trazado_102751" data-name="Trazado 102751" d="M1667.2,899.811l-63.385-13.926-52.79,9.763,81.54,18.453Z" fill="#e1e2e3"/>
          </g>
        </g>
        <g id="Grupo_55398" data-name="Grupo 55398">
          <g id="Grupo_55392" data-name="Grupo 55392">
            <path id="Trazado_102752" data-name="Trazado 102752" d="M1665.038,897.14l-63.385-13.926-52.791,9.763,81.54,18.453Z" fill="#afb0b2"/>
          </g>
          <g id="Grupo_55393" data-name="Grupo 55393">
            <path id="Trazado_102753" data-name="Trazado 102753" d="M1668.348,893.4l-63.385-13.925-52.79,9.763,81.54,18.453Z" fill="#e1e2e3"/>
          </g>
          <g id="Grupo_55394" data-name="Grupo 55394">
            <path id="Trazado_102754" data-name="Trazado 102754" d="M1669.384,888.942,1606,875.017l-52.791,9.761,81.54,18.453Z" fill="#afb0b2"/>
          </g>
          <g id="Grupo_55395" data-name="Grupo 55395">
            <path id="Trazado_102755" data-name="Trazado 102755" d="M1672.652,885.449l-63.385-13.925-52.79,9.761,81.54,18.453Z" fill="#e1e2e3"/>
          </g>
          <g id="Grupo_55397" data-name="Grupo 55397">
            <path id="Trazado_102756" data-name="Trazado 102756" d="M1673.475,882.206l-63.385-13.925-52.791,9.763,81.54,18.453Z" fill="#afb0b2"/>
            <g id="Grupo_55396" data-name="Grupo 55396">
              <path id="Trazado_102757" data-name="Trazado 102757" d="M1640.018,890.639l-61.172-13.73-4.891.972,62.55,14.078Z" fill="#96999b"/>
              <path id="Trazado_102758" data-name="Trazado 102758" d="M1646.47,888.213l-58.631-13.092-4.471.889,59.9,13.409Z" fill="#96999b"/>
              <path id="Trazado_102759" data-name="Trazado 102759" d="M1652.378,885.993l-56.293-12.509-4.1.815,57.459,12.8Z" fill="#96999b"/>
              <path id="Trazado_102760" data-name="Trazado 102760" d="M1657.806,883.954l-54.134-11.977-3.779.751L1655.1,884.97Z" fill="#96999b"/>
              <path id="Trazado_102761" data-name="Trazado 102761" d="M1662.81,882.072l-52.134-11.488-3.491.694,53.131,11.732Z" fill="#96999b"/>
            </g>
          </g>
        </g>
        <g id="Grupo_55401" data-name="Grupo 55401">
          <g id="Grupo_55400" data-name="Grupo 55400">
            <path id="Trazado_102762" data-name="Trazado 102762" d="M1549.185,874.2l50.951,11.53-12.813-18.583Z" fill="#dbdee2"/>
            <path id="Trazado_102763" data-name="Trazado 102763" d="M1612.005,866.638c-5.731,3.7-13.375,3.016-19.461-.459l-5.222.965,12.814,18.584,30.588,6.922,34.636-14.291Z" fill="#c7c9ce"/>
            <path id="Trazado_102764" data-name="Trazado 102764" d="M1612.005,866.638l-10.03-2.2-9.431,1.745C1598.63,869.654,1606.274,870.333,1612.005,866.638Z" fill="#dbdee2"/>
            <g id="Grupo_55399" data-name="Grupo 55399">
              <path id="Trazado_102765" data-name="Trazado 102765" d="M1628.389,888.112l3.514-1.321-36.716-8.241,1.705,2.473Z" fill="#aeb1b7"/>
              <path id="Trazado_102766" data-name="Trazado 102766" d="M1595.187,878.55l-24.457-5.489-4.891.97,31.053,6.991Z" fill="#c1c4ca"/>
              <path id="Trazado_102767" data-name="Trazado 102767" d="M1638.357,884.366l-46.286-10.336,1.547,2.244,41.532,9.3Z" fill="#aeb1b7"/>
              <path id="Trazado_102768" data-name="Trazado 102768" d="M1579.724,871.274l-4.471.889,18.364,4.111-1.547-2.244Z" fill="#c1c4ca"/>
              <path id="Trazado_102769" data-name="Trazado 102769" d="M1587.97,869.636l-4.1.815,6.778,1.51-1.409-2.044Z" fill="#c1c4ca"/>
              <path id="Trazado_102770" data-name="Trazado 102770" d="M1644.263,882.145l-55.028-12.228,1.409,2.044,50.681,11.288Z" fill="#aeb1b7"/>
              <path id="Trazado_102771" data-name="Trazado 102771" d="M1595.557,868.129l-3.779.749,55.211,12.242,2.7-1.015Z" fill="#aeb1b7"/>
              <path id="Trazado_102772" data-name="Trazado 102772" d="M1602.561,866.737l-3.491.694,53.132,11.732,2.492-.938Z" fill="#aeb1b7"/>
            </g>
          </g>
        </g>
        <g id="Grupo_55402" data-name="Grupo 55402">
          <path id="Trazado_102773" data-name="Trazado 102773" d="M1647.727,872.688l-.222,1.743a1.238,1.238,0,0,1-1.4,1.049l-1.754-.226.378-2.95Z" fill="#8896a2"/>
          <path id="Trazado_102774" data-name="Trazado 102774" d="M1646.816,869.923a1.236,1.236,0,0,1,1.09,1.366l-.179,1.4-3-.384.334-2.605Z" fill="#afb0b2"/>
          <path id="Trazado_102775" data-name="Trazado 102775" d="M1589.481,868.232l-.249-.033.01-.084Z" fill="#e34815"/>
          <path id="Trazado_102776" data-name="Trazado 102776" d="M1590.191,862.675l-.259.051.01-.082Z" fill="#ea5e31"/>
          <path id="Trazado_102777" data-name="Trazado 102777" d="M1637.856,871.425l4.358.558-.376,2.95-3.114-.4-49.243-6.3.378-2.952Z" fill="#e34815"/>
          <path id="Trazado_102778" data-name="Trazado 102778" d="M1639.434,868.979l3.114.4-.334,2.607-4.358-.558-48-6.145.332-2.605Z" fill="#ea5e31"/>
          <path id="Trazado_102779" data-name="Trazado 102779" d="M1644.531,869.63l.532.069-.334,2.605-.532-.067-1.983-.254.334-2.607Z" fill="#00aae6"/>
          <path id="Trazado_102780" data-name="Trazado 102780" d="M1644.2,872.237l.532.067-.378,2.95-.532-.067-1.982-.254.376-2.95Z" fill="#0098d5"/>
          <path id="Trazado_102781" data-name="Trazado 102781" d="M1586.864,864.9l-.25,1.954-5.112-2.464.538-.106Z" fill="#33363c"/>
          <path id="Trazado_102782" data-name="Trazado 102782" d="M1586.864,864.9l-4.824-.617,5.031-.99Z" fill="#474849"/>
          <path id="Trazado_102783" data-name="Trazado 102783" d="M1589.61,865.249l.249.031-.378,2.952-.239-.116-2.628-1.265.25-1.954Z" fill="#ebbe21"/>
          <path id="Trazado_102784" data-name="Trazado 102784" d="M1589.932,862.726l.259-.051-.332,2.605-.249-.031-2.746-.352.206-1.607Z" fill="#fed33c"/>
        </g>
        <g id="Grupo_55403" data-name="Grupo 55403">
          <path id="Trazado_102785" data-name="Trazado 102785" d="M1597.27,875.673c1.038.282,2.655.72,5.528,1.5q.216-1.925.431-3.851c-2.974.121-4.648.19-5.721.238Z" fill="#00aae6"/>
          <path id="Trazado_102786" data-name="Trazado 102786" d="M1652.389,877.185l5.878.659-3.733,6.759-4.245-.475Z" fill="#00aae6"/>
          <path id="Trazado_102787" data-name="Trazado 102787" d="M1633.223,882.391l.833-7.433c-.741-.062-1.471-.119-2.2-.177l-.817,7.3C1631.762,882.183,1632.488,882.288,1633.223,882.391Z" fill="#323133"/>
          <path id="Trazado_102788" data-name="Trazado 102788" d="M1629.166,874.585c-7.65-.534-15.145-.828-26.135-1.476q-.239,2.11-.473,4.22c10.861,1.8,18.236,3.172,25.815,4.344Z" fill="#474849"/>
          <path id="Trazado_102789" data-name="Trazado 102789" d="M1651.3,877.735a2.431,2.431,0,0,0-.853-2.423c-1.375-1.329-4.147-2.138-8.235-2.4-8.18-.673-18.348-2.053-18.447-2.066,0,0,1.278,3.475,5.637,2.457,2.879.327,15.119,2.153,15.241,2.171a2.981,2.981,0,0,1,1.356.6c.241.233.5.636-.023,1.448-.432.667-.286,1.036-.088,1.227.79.764,4.207-.442,5.236-.829l.131-.05Z" fill="#474849"/>
          <path id="Trazado_102790" data-name="Trazado 102790" d="M1631.04,882.077l.817-7.3c-.9-.068-1.8-.134-2.691-.2l-.793,7.088C1629.258,881.81,1630.143,881.944,1631.04,882.077Z" fill="#00aae6"/>
          <path id="Trazado_102791" data-name="Trazado 102791" d="M1652.054,884.518q.42-3.734.838-7.469c-7.523-1-13.4-1.634-18.836-2.091l-.833,7.433C1638.627,883.149,1644.5,883.833,1652.054,884.518Z" fill="#474849"/>
          <path id="Trazado_102792" data-name="Trazado 102792" d="M1597.508,873.556a7.108,7.108,0,0,0-1.341.111,7.276,7.276,0,0,0-1.856.6,9.173,9.173,0,0,0,1.506.877,9.05,9.05,0,0,0,1.453.527Q1597.388,874.613,1597.508,873.556Z" fill="#323133"/>
        </g>
      </g>
      <g id="Grupo_55409" data-name="Grupo 55409">
        <g id="_10" data-name="10">
          <g id="Grupo_55404" data-name="Grupo 55404">
            <path id="Trazado_102793" data-name="Trazado 102793" d="M1537.795,1026.239h-14.717V961.707l14.717,14.717Z" fill="#18867b"/>
            <path id="Trazado_102794" data-name="Trazado 102794" d="M1523.078,961.707V917.55h14.717v58.873Z" fill="#22a497"/>
            <path id="Trazado_102795" data-name="Trazado 102795" d="M1537.795,976.423V917.55h14.34v73.212Z" fill="#1b8a78"/>
            <path id="Trazado_102796" data-name="Trazado 102796" d="M1552.135,1026.239h-14.34V976.423l14.34,14.339Z" fill="#186c5e"/>
            <path id="Trazado_102797" data-name="Trazado 102797" d="M1526.1,964.724v-42.41h11.7v54.11Z" fill="#fff"/>
            <path id="Trazado_102798" data-name="Trazado 102798" d="M1537.795,997.226h-11.7v-32.5l11.7,11.7Z" fill="#d1d1d1"/>
            <path id="Trazado_102799" data-name="Trazado 102799" d="M1549.116,997.226h-11.321v-20.8l11.321,11.321Z" fill="#bbb"/>
            <path id="Trazado_102800" data-name="Trazado 102800" d="M1537.795,976.423v-54.11h11.321v65.43Z" fill="#dbdcdd"/>
            <path id="Trazado_102801" data-name="Trazado 102801" d="M1537.828,1004.459c3.343.136,5.961,3.247,5.961,7.083s-2.618,6.946-5.961,7.082l-.048,0c-.057,0-.114.008-.173.008-3.409,0-6.183-3.183-6.183-7.094s2.774-7.094,6.183-7.094c.059,0,.116,0,.173.008Z" fill="#414243"/>
            <path id="Trazado_102802" data-name="Trazado 102802" d="M1537.8,1017.567c-.062,0-.124.012-.188.012-2.905,0-5.262-2.7-5.262-6.037s2.357-6.037,5.262-6.037c.064,0,.126.01.188.011Z" fill="#d1d1d1"/>
            <path id="Trazado_102803" data-name="Trazado 102803" d="M1542.866,1011.542c0,3.261-2.253,5.911-5.071,6.025v-12.051C1540.613,1005.631,1542.866,1008.282,1542.866,1011.542Z" fill="#bbb"/>
            <rect id="Rectángulo_5641" data-name="Rectángulo 5641" width="14.527" height="5.775" transform="translate(1530.437 928.482)" fill="#b6bac5"/>
          </g>
          <g id="Grupo_55405" data-name="Grupo 55405">
            <path id="Trazado_102804" data-name="Trazado 102804" d="M1567.367,1022.968h-14.717V991.279L1567.367,1006Z" fill="#c46900"/>
            <path id="Trazado_102805" data-name="Trazado 102805" d="M1552.651,991.279v-77h14.717V1006Z" fill="#e97c00"/>
            <path id="Trazado_102806" data-name="Trazado 102806" d="M1581.708,1022.968h-14.34V1006l14.34,14.339Z" fill="#aa5b0e"/>
            <path id="Trazado_102807" data-name="Trazado 102807" d="M1567.367,1006V914.279h14.34v106.056Z" fill="#cd6c0c"/>
            <path id="Trazado_102808" data-name="Trazado 102808" d="M1555.67,919.043h11.7v74.912h-11.7V919.043Z" fill="#f3f4f3"/>
            <path id="Trazado_102809" data-name="Trazado 102809" d="M1567.367,919.043h11.321v74.912h-11.321V919.043Z" fill="#dbdcdd"/>
            <path id="Trazado_102810" data-name="Trazado 102810" d="M1567.4,1015.353l-.046,0c-.059.005-.116.008-.175.008-3.409,0-6.182-3.181-6.182-7.094a7.418,7.418,0,0,1,2.75-5.9l8.993,8.994A6.179,6.179,0,0,1,1567.4,1015.353Z" fill="#414243"/>
            <path id="Trazado_102811" data-name="Trazado 102811" d="M1563.747,1002.374a5.6,5.6,0,0,1,3.432-1.2c.059,0,.116.005.175.009l.046,0c3.343.136,5.962,3.247,5.962,7.082a7.977,7.977,0,0,1-.622,3.1Z" fill="#5b5c5f"/>
            <path id="Trazado_102812" data-name="Trazado 102812" d="M1567.367,1014.3c-.062,0-.124.011-.188.011-2.9,0-5.261-2.7-5.261-6.037a6.254,6.254,0,0,1,2.556-5.169l2.893,2.895Z" fill="#d1d1d1"/>
            <path id="Trazado_102813" data-name="Trazado 102813" d="M1564.474,1003.1a4.725,4.725,0,0,1,2.7-.866c.064,0,.126.008.188.01V1006Z" fill="#f3f4f3"/>
            <path id="Trazado_102814" data-name="Trazado 102814" d="M1567.367,1014.3V1006l4.648,4.646A5.332,5.332,0,0,1,1567.367,1014.3Z" fill="#bbb"/>
            <path id="Trazado_102815" data-name="Trazado 102815" d="M1567.367,1006v-3.751c2.818.116,5.072,2.766,5.072,6.025a6.8,6.8,0,0,1-.424,2.372Z" fill="#dbdcdd"/>
            <rect id="Rectángulo_5642" data-name="Rectángulo 5642" width="14.528" height="5.775" transform="translate(1560.103 925.21)" fill="#b6bac5"/>
          </g>
          <g id="Grupo_55406" data-name="Grupo 55406">
            <path id="Trazado_102816" data-name="Trazado 102816" d="M1464.871,919.142V917.55h14.717v108.689h-14.717Z" fill="#ffe323"/>
            <path id="Trazado_102817" data-name="Trazado 102817" d="M1479.588,936.031V917.55h14.34v108.689h-14.34Z" fill="#e2c219"/>
            <path id="Trazado_102818" data-name="Trazado 102818" d="M1467.89,922.607v-.293h11.7v74.912h-11.7Z" fill="#fff"/>
            <path id="Trazado_102819" data-name="Trazado 102819" d="M1479.588,936.031V922.314h11.321v74.912h-11.321Z" fill="#e5e8ef"/>
            <path id="Trazado_102820" data-name="Trazado 102820" d="M1479.4,1018.636c-3.408,0-6.182-3.183-6.182-7.094s2.774-7.094,6.182-7.094c.059,0,.117,0,.174.008l.048,0c3.343.136,5.961,3.247,5.961,7.083s-2.618,6.946-5.961,7.082l-.048,0C1479.516,1018.632,1479.458,1018.636,1479.4,1018.636Z" fill="#9698a3"/>
            <path id="Trazado_102821" data-name="Trazado 102821" d="M1474.138,1011.542c0,3.405,2.458,6.153,5.45,6.032V1005.51C1476.6,1005.389,1474.138,1008.136,1474.138,1011.542Z" fill="#f2f9fb"/>
            <path id="Trazado_102822" data-name="Trazado 102822" d="M1479.588,1005.516v12.051c2.818-.114,5.071-2.764,5.071-6.025S1482.406,1005.631,1479.588,1005.516Z" fill="#e5e8ef"/>
            <rect id="Rectángulo_5643" data-name="Rectángulo 5643" width="14.529" height="5.775" transform="translate(1472.229 928.482)" fill="#b6bac5"/>
          </g>
          <g id="Grupo_55407" data-name="Grupo 55407">
            <path id="Trazado_102823" data-name="Trazado 102823" d="M1508.457,961.339V1018.2h-14.718V932.367l14.718,14.717Z" fill="#c2282f"/>
            <path id="Trazado_102824" data-name="Trazado 102824" d="M1493.738,932.367V909.515h14.718v37.568Z" fill="#e12f36"/>
            <path id="Trazado_102825" data-name="Trazado 102825" d="M1522.8,977.793V1018.2h-14.339v-71.12l14.339,14.34Z" fill="#a7252b"/>
            <path id="Trazado_102826" data-name="Trazado 102826" d="M1508.457,947.083V909.515H1522.8v51.908Z" fill="#c82c32"/>
            <path id="Trazado_102827" data-name="Trazado 102827" d="M1508.457,961.339v27.854h-11.7V935.386l11.7,11.7Z" fill="#d1d1d1"/>
            <path id="Trazado_102828" data-name="Trazado 102828" d="M1496.757,935.386V914.279h11.7v32.8Z" fill="#f3f4f3"/>
            <path id="Trazado_102829" data-name="Trazado 102829" d="M1519.776,974.329v14.864h-11.319V947.083l11.319,11.321Z" fill="#bbb"/>
            <path id="Trazado_102830" data-name="Trazado 102830" d="M1508.457,947.083v-32.8h11.319V958.4Z" fill="#dbdcdd"/>
            <path id="Trazado_102831" data-name="Trazado 102831" d="M1508.489,996.426c3.342.136,5.96,3.247,5.96,7.081s-2.618,6.947-5.962,7.082l-.045.005c-.058,0-.117.008-.175.008-3.409,0-6.183-3.183-6.183-7.095s2.774-7.094,6.183-7.094c.058,0,.117.005.175.009Z" fill="#414243"/>
            <path id="Trazado_102832" data-name="Trazado 102832" d="M1508.456,1009.532c-.063,0-.126.012-.189.012-2.9,0-5.26-2.7-5.26-6.036s2.355-6.037,5.26-6.037c.063,0,.126.009.189.012Z" fill="#d1d1d1"/>
            <path id="Trazado_102833" data-name="Trazado 102833" d="M1513.528,1003.508c0,3.26-2.255,5.91-5.072,6.024V997.483C1511.273,997.6,1513.528,1000.247,1513.528,1003.508Z" fill="#bbb"/>
            <rect id="Rectángulo_5644" data-name="Rectángulo 5644" width="14.528" height="5.775" transform="translate(1501.192 920.447)" fill="#b6bac5"/>
          </g>
          <g id="Grupo_55408" data-name="Grupo 55408">
            <path id="Trazado_102834" data-name="Trazado 102834" d="M1490.4,1020.208c.252.061.933-.312,1.167-.391l2.253-.762c2.286-.768,2.262.206,4.54-.565,5.56-1.867,10.823-4.6,16.372-6.475l6.14-2.074c.36-.119,2.077-.443,2.223-.8.09-.193-.225-.918-.261-1.124-.057-.249-.214-1.05-.381-2.029a33.718,33.718,0,0,1-.547-4.759c.028-.722,2.863-13.889,2.486-15.478-.468-1.916-1.3-3.826-1.926-5.711l-2.654-7.876c-.2-.584-.359-1.227-.606-1.8a5.65,5.65,0,0,0-3.986-3.528,3.6,3.6,0,0,0-3.432,1.294,4.772,4.772,0,0,0-.17,3.049,19.661,19.661,0,0,0,1.147,4.026c.632,1.677.386,2.507-.09,2.345-.664-.208-.906-1.835-1.093-2.373l-12.213-36.267c-.35-1.026-.62-2.152-1.063-3.144a1.9,1.9,0,0,0-.866-.856,2.794,2.794,0,0,0-.3-.152c-.011-.008-.031-.011-.044-.02a6.877,6.877,0,0,0-.717-.253,5.282,5.282,0,0,0-5.786,1.895,5.357,5.357,0,0,0-.417.6c-.007.013-.015.026-.022.037a3.035,3.035,0,0,0-.343.814,1.952,1.952,0,0,0,.028,1.021c.18.589.391,1.152.584,1.739.744,2.2,8.707,25.32,8.981,26.648.216,1.043-.886,1.337-1.313.4a28.5,28.5,0,0,1-1.005-2.975c-.456-1.357-1.863-5.926-2.441-6.618-1.6-1.88-5.34-1.1-6.711.689a4.233,4.233,0,0,0-.5,4.013l1.287,3.824a23.754,23.754,0,0,1,.983,2.92c.174.924-.383,1.132-1.167.96-.718-.157-2.181-3.726-2.585-4.926a5.019,5.019,0,0,0-2.725-3.338,4.624,4.624,0,0,0-5.513,1.79c-.907,1.27-.627,2.462-.175,3.795s2.476,6.263,1.392,6.7c-.474.2-1.2-1.411-1.392-1.864a4.009,4.009,0,0,0-4.938-2.255,4.657,4.657,0,0,0-2.929,3.611.021.021,0,0,0,0-.014.212.212,0,0,0-.022.116.16.16,0,0,0-.011.08c-.008.013-.005.018-.013.031l.008.012c.116,1.145,4.592,13.864,6.376,19.145l1.98,5.9c.865,2.552,3,4.666,5.068,6.314a64.282,64.282,0,0,1,4.022,5.376c.12.2,1.331,3.757,2.178,6.254.35,1.043.647,1.9.766,2.258C1490.12,1019.747,1490.148,1020.148,1490.4,1020.208Z" fill="#e7a277"/>
            <rect id="Rectángulo_5645" data-name="Rectángulo 5645" width="40.385" height="7.895" transform="translate(1486.655 1018.053) rotate(-18.618)" fill="#fff"/>
            <path id="Trazado_102835" data-name="Trazado 102835" d="M1489.753,1042.621l-6.341-16.594,47.947-16.153,10.486,32.747Z" fill="#474849"/>
            <path id="Trazado_102836" data-name="Trazado 102836" d="M1495.561,942.837c1.992-.365,3.029-2.787,2.314-5.388l-.6-2.169a4.886,4.886,0,0,0-.179-.536,6.877,6.877,0,0,0-.717-.253,5.282,5.282,0,0,0-5.786,1.895,5.357,5.357,0,0,0-.417.6c-.007.013-.015.026-.022.037l.485,1.733C1491.357,941.357,1493.578,943.19,1495.561,942.837Z" fill="#f0b694"/>
          </g>
        </g>
      </g>
    </g>
  </g>
</svg>
