<svg xmlns="http://www.w3.org/2000/svg" xmlns:xlink="http://www.w3.org/1999/xlink" width="140" height="140" viewBox="0 0 140 140">
  <defs>
    <clipPath id="clip-path">
      <circle id="Elipse_4293" data-name="Elipse 4293" cx="65.5" cy="65.5" r="65.5" transform="translate(257.5 486.5)" fill="#fff"/>
    </clipPath>
  </defs>
  <g id="Grupo_55827" data-name="Grupo 55827" transform="translate(-245 -476)">
    <g id="Elipse_4292" data-name="Elipse 4292" transform="translate(245 476)" fill="#fffdef" stroke="#badb4c" stroke-width="4">
      <circle cx="70" cy="70" r="70" stroke="none"/>
      <circle cx="70" cy="70" r="68" fill="none"/>
    </g>
    <g id="Enmascarar_grupo_43" data-name="Enmascarar grupo 43" transform="translate(-7.5 -6.5)" clip-path="url(#clip-path)">
      <g id="Grupo_55197" data-name="Grupo 55197" transform="translate(239.713 482.418)">
        <g id="_2" data-name="2" transform="translate(45.065)">
          <path id="Trazado_101927" data-name="Trazado 101927" d="M121.341,95.8H82.49a2.362,2.362,0,0,1-2.333-3.377L91.073,61.276a4.88,4.88,0,0,1,4.335-2.986h36.8a2.325,2.325,0,0,1,2.481,2.986l-9.04,31.146A4.7,4.7,0,0,1,121.341,95.8Z" transform="translate(-78.972 -32.892)" fill="#af9810"/>
          <rect id="Rectángulo_5402" data-name="Rectángulo 5402" width="49.545" height="35.253" transform="translate(8.313 47.951) rotate(-75.429)" fill="#bcbec0"/>
          <rect id="Rectángulo_5403" data-name="Rectángulo 5403" width="49.545" height="35.253" transform="translate(7.244 48.608) rotate(-68.519)" fill="#d1d3d4"/>
          <path id="Trazado_101928" data-name="Trazado 101928" d="M117.791,92.612,86,75.846l24.692-42.953,30.563,17.569Z" transform="translate(-79.567 -30.388)" fill="#e6e7e8"/>
          <g id="Grupo_55156" data-name="Grupo 55156" transform="translate(18.61 6.703)">
            <rect id="Rectángulo_5404" data-name="Rectángulo 5404" width="1.507" height="29.782" transform="translate(12.994 1.308) rotate(-60.18)" fill="#bcbec0"/>
            <rect id="Rectángulo_5405" data-name="Rectángulo 5405" width="1.507" height="29.782" transform="translate(11.159 5.647) rotate(-60.171)" fill="#bcbec0"/>
            <rect id="Rectángulo_5406" data-name="Rectángulo 5406" width="1.507" height="29.782" transform="matrix(0.497, -0.868, 0.868, 0.497, 7.803, 9.989)" fill="#bcbec0"/>
            <rect id="Rectángulo_5407" data-name="Rectángulo 5407" width="1.507" height="29.782" transform="translate(5.538 14.331) rotate(-60.172)" fill="#bcbec0"/>
            <rect id="Rectángulo_5408" data-name="Rectángulo 5408" width="1.507" height="29.782" transform="translate(3.026 18.673) rotate(-60.172)" fill="#bcbec0"/>
            <rect id="Rectángulo_5409" data-name="Rectángulo 5409" width="1.507" height="29.782" transform="matrix(0.497, -0.868, 0.868, 0.497, 0, 23.014)" fill="#bcbec0"/>
          </g>
          <g id="Grupo_55157" data-name="Grupo 55157" transform="translate(0 27.238)">
            <path id="Trazado_101929" data-name="Trazado 101929" d="M93.6,64.015V63.01a2.688,2.688,0,0,0-2.68-2.679H81.544a2.688,2.688,0,0,0-2.68,2.679V92.484A3.527,3.527,0,0,0,82.381,96h20.43V64.015Z" transform="translate(-78.864 -60.331)" fill="#f9ed32"/>
            <path id="Trazado_101930" data-name="Trazado 101930" d="M124.354,64.418H105.43V96.4h18.924a3.527,3.527,0,0,0,3.517-3.516V67.934A3.527,3.527,0,0,0,124.354,64.418Z" transform="translate(-81.483 -60.734)" fill="#e0ce2f"/>
            <rect id="Rectángulo_5410" data-name="Rectángulo 5410" width="10.885" height="4.522" transform="translate(1.675 2.512)" fill="#fff"/>
          </g>
        </g>
        <g id="_3" data-name="3" transform="translate(0 35.471)">
          <rect id="Rectángulo_5411" data-name="Rectángulo 5411" width="39.05" height="0.837" transform="translate(3.432 21.824) rotate(-27.077)" fill="#939598"/>
          <path id="Trazado_101931" data-name="Trazado 101931" d="M67.871,74.782,33.1,92.557l.387.758,50.329,12.66Z" transform="translate(-29.288 -69.988)" fill="#a7a9aa"/>
          <path id="Trazado_101932" data-name="Trazado 101932" d="M33.531,95.341l15.743,30.8,34.77-17.775L83.86,108Z" transform="translate(-29.33 -72.014)" fill="#bcbec0"/>
          <rect id="Rectángulo_5412" data-name="Rectángulo 5412" width="39.05" height="1.116" transform="translate(19.943 54.12) rotate(-27.069)" fill="#939598"/>
          <rect id="Rectángulo_5413" data-name="Rectángulo 5413" width="43.194" height="3.488" transform="translate(0 19.661) rotate(-27.077)" fill="#bcbec0"/>
          <rect id="Rectángulo_5414" data-name="Rectángulo 5414" width="43.194" height="3.488" transform="translate(18.607 56.059) rotate(-27.077)" fill="#bcbec0"/>
          <g id="Grupo_55159" data-name="Grupo 55159" transform="translate(16.04 27.378)">
            <path id="Trazado_101933" data-name="Trazado 101933" d="M70.139,105.195l-23.474,12,4.509,8.82L84.1,109.184l-.28-.547Z" transform="translate(-46.665 -100.363)" fill="#939598"/>
            <path id="Trazado_101934" data-name="Trazado 101934" d="M82.157,99.835l-9.451,4.832,13.68,3.441Z" transform="translate(-49.232 -99.835)" fill="#7e8082"/>
            <g id="Grupo_55158" data-name="Grupo 55158" transform="translate(1.099 1.02)">
              <path id="Trazado_101935" data-name="Trazado 101935" d="M81.807,100.967l-7.961,4.07,11.524,2.9Z" transform="translate(-50.443 -100.967)" fill="#bcbec0"/>
              <path id="Trazado_101936" data-name="Trazado 101936" d="M71.286,105.482l-23.4,11.964,3.874,7.578L83.121,108.99l-.311-.609Z" transform="translate(-47.884 -101.412)" fill="#bcbec0"/>
              <path id="Trazado_101937" data-name="Trazado 101937" d="M81.807,100.967l-7.961,4.07,11.524,2.9Z" transform="translate(-50.443 -100.967)" fill="#a7a9aa"/>
              <path id="Trazado_101938" data-name="Trazado 101938" d="M71.286,105.482l-23.4,11.964,3.874,7.578L83.121,108.99l-.311-.609Z" transform="translate(-47.884 -101.412)" fill="#bcbec0"/>
              <rect id="Rectángulo_5415" data-name="Rectángulo 5415" width="8.451" height="1.395" transform="matrix(0.89, -0.455, 0.455, 0.89, 13.571, 13.17)" fill="#6d6e71"/>
            </g>
          </g>
          <g id="Grupo_55161" data-name="Grupo 55161" transform="translate(10.626 16.788)">
            <path id="Trazado_101939" data-name="Trazado 101939" d="M79.337,96.907l-4.509-8.82L53.278,99.1l14.585,3.669Z" transform="translate(-41.903 -88.087)" fill="#7e8082"/>
            <path id="Trazado_101940" data-name="Trazado 101940" d="M45.168,114.943,66.62,103.977l-14.585-3.669-11.375,5.815Z" transform="translate(-40.659 -89.292)" fill="#939598"/>
            <g id="Grupo_55160" data-name="Grupo 55160" transform="translate(1.099 1.02)">
              <path id="Trazado_101941" data-name="Trazado 101941" d="M78.352,96.8l-3.874-7.578L54.418,99.473l12.531,3.152Z" transform="translate(-43.114 -89.218)" fill="#bcbec0"/>
              <path id="Trazado_101942" data-name="Trazado 101942" d="M45.752,113.951l19.961-10.2-12.531-3.152-11.3,5.779Z" transform="translate(-41.878 -90.34)" fill="#bcbec0"/>
              <path id="Trazado_101943" data-name="Trazado 101943" d="M78.352,96.8l-3.874-7.578L54.418,99.473l12.531,3.152Z" transform="translate(-43.114 -89.218)" fill="#a7a9aa"/>
              <path id="Trazado_101944" data-name="Trazado 101944" d="M45.752,113.951l19.961-10.2-12.531-3.152-11.3,5.779Z" transform="translate(-41.878 -90.34)" fill="#bcbec0"/>
              <path id="Trazado_101945" data-name="Trazado 101945" d="M65.428,100.8l-.635-1.243-4.45,2.275,2.054.517Z" transform="translate(-43.698 -90.238)" fill="#58595b"/>
              <path id="Trazado_101946" data-name="Trazado 101946" d="M57.568,104.9l4.493-2.3-2.054-.517-3.074,1.572Z" transform="translate(-43.362 -90.487)" fill="#6d6e71"/>
            </g>
          </g>
          <rect id="Rectángulo_5416" data-name="Rectángulo 5416" width="36.101" height="3.767" transform="matrix(0.89, -0.455, 0.455, 0.89, 5.517, 21.698)" fill="#808285"/>
          <g id="Grupo_55162" data-name="Grupo 55162" transform="translate(5.149 4.635)">
            <path id="Trazado_101947" data-name="Trazado 101947" d="M57.9,74.62,42.673,82.4,42.1,81.275a.137.137,0,0,0-.184-.059l-7.255,3.709a.137.137,0,0,0-.06.184l.639,1.25,1.526,2.986,4.314,8.439a.138.138,0,0,0,.185.059l22.6-11.555a.136.136,0,0,0,.059-.184L58.081,74.68A.137.137,0,0,0,57.9,74.62Z" transform="translate(-34.583 -74.606)" fill="#e6850e"/>
            <rect id="Rectángulo_5417" data-name="Rectángulo 5417" width="5.537" height="2.106" transform="translate(1.331 10.728) rotate(-27.077)" fill="#fff"/>
          </g>
          <g id="Grupo_55163" data-name="Grupo 55163" transform="translate(9.188 3.432)">
            <path id="Trazado_101948" data-name="Trazado 101948" d="M62.379,73.286,47.154,81.068l-.577-1.128a.137.137,0,0,0-.184-.059L39.139,83.59a.137.137,0,0,0-.059.184l.639,1.25,1.526,2.986,4.314,8.439a.137.137,0,0,0,.185.059l22.6-11.554a.138.138,0,0,0,.059-.185L62.562,73.346A.137.137,0,0,0,62.379,73.286Z" transform="translate(-39.064 -73.271)" fill="#f9ed32"/>
            <rect id="Rectángulo_5418" data-name="Rectángulo 5418" width="5.537" height="2.106" transform="matrix(0.89, -0.455, 0.455, 0.89, 1.331, 10.727)" fill="#fff"/>
          </g>
          <g id="Grupo_55165" data-name="Grupo 55165" transform="translate(5.72 7.191)">
            <path id="Trazado_101949" data-name="Trazado 101949" d="M72.7,86.261l-4.509-8.82L35.674,94.062l14.585,3.669Z" transform="translate(-35.262 -77.441)" fill="#7e8082"/>
            <path id="Trazado_101950" data-name="Trazado 101950" d="M39.726,104.91l10.488-5.362L35.629,95.879l-.412.211Z" transform="translate(-35.217 -79.258)" fill="#939598"/>
            <g id="Grupo_55164" data-name="Grupo 55164" transform="translate(1.099 1.02)">
              <path id="Trazado_101951" data-name="Trazado 101951" d="M71.71,86.15l-3.874-7.578L36.814,94.432l12.531,3.152Z" transform="translate(-36.473 -78.572)" fill="#bcbec0"/>
              <path id="Trazado_101952" data-name="Trazado 101952" d="M40.309,103.918l9-4.6L36.776,96.166l-.341.174Z" transform="translate(-36.436 -80.307)" fill="#bcbec0"/>
              <path id="Trazado_101953" data-name="Trazado 101953" d="M40.309,103.918l9-4.6L36.776,96.166l-.341.174Z" transform="translate(-36.436 -80.307)" fill="#bcbec0"/>
              <path id="Trazado_101954" data-name="Trazado 101954" d="M71.71,86.15l-3.874-7.578L36.814,94.432l12.531,3.152Z" transform="translate(-36.473 -78.572)" fill="#a7a9aa"/>
              <rect id="Rectángulo_5419" data-name="Rectángulo 5419" width="8.451" height="1.395" transform="matrix(0.89, -0.455, 0.455, 0.89, 13.571, 13.17)" fill="#58595b"/>
            </g>
          </g>
        </g>
        <g id="_11" data-name="11" transform="translate(88.222 19.366)">
          <g id="Grupo_55169" data-name="Grupo 55169" transform="translate(8.215 0)">
            <g id="Grupo_55166" data-name="Grupo 55166" transform="translate(17.987 5.905)">
              <path id="Trazado_101955" data-name="Trazado 101955" d="M179.639,60.643l-6.056-2.494-.235.571,3.563,8.55Z" transform="translate(-157.537 -58.149)" fill="#00c0b4"/>
              <path id="Trazado_101956" data-name="Trazado 101956" d="M171.619,58.783,155.808,97.192l6.057,2.493,13.318-32.352Z" transform="translate(-155.808 -58.212)" fill="#07b3a8"/>
              <path id="Trazado_101957" data-name="Trazado 101957" d="M185.93,63.345l-5.9-2.429L177.3,67.543l3.472,8.331Z" transform="translate(-157.926 -58.422)" fill="#04a898"/>
              <path id="Trazado_101958" data-name="Trazado 101958" d="M175.844,68.268,162.526,100.62l5.9,2.429L179.316,76.6Z" transform="translate(-156.47 -59.147)" fill="#089a8b"/>
              <path id="Trazado_101959" data-name="Trazado 101959" d="M172.954,60.729,161.937,87.49l4.814,1.982,9.035-21.947Z" transform="translate(-156.412 -58.404)" fill="#f5f6f6"/>
              <path id="Trazado_101960" data-name="Trazado 101960" d="M179.016,62.594,174.2,60.612l-.044.105,2.832,6.8Z" transform="translate(-157.616 -58.392)" fill="#fff"/>
              <path id="Trazado_101961" data-name="Trazado 101961" d="M183.984,64.729l-4.659-1.918L177.3,67.73l2.741,6.577Z" transform="translate(-157.926 -58.609)" fill="#ecedee"/>
              <path id="Trazado_101962" data-name="Trazado 101962" d="M176.312,68.268l-9.035,21.947,4.659,1.918,7.117-17.288Z" transform="translate(-156.938 -59.147)" fill="#e2e3e4"/>
              <path id="Trazado_101963" data-name="Trazado 101963" d="M163.5,100.519a2.751,2.751,0,1,1,2.094-5.089c.024.01.048.022.07.032l.019.009a2.749,2.749,0,0,1-2.091,5.08l-.02-.006C163.547,100.537,163.523,100.529,163.5,100.519Z" transform="translate(-156.398 -61.804)" fill="#6d6e71"/>
              <path id="Trazado_101964" data-name="Trazado 101964" d="M162.427,97.128a2.341,2.341,0,0,0,1.274,3.056c.026.011.053.018.079.028l1.778-4.321c-.025-.012-.05-.025-.076-.036A2.341,2.341,0,0,0,162.427,97.128Z" transform="translate(-156.443 -61.849)" fill="#f5f6f6"/>
              <path id="Trazado_101965" data-name="Trazado 101965" d="M165.726,95.914l-1.779,4.321a2.338,2.338,0,0,0,1.779-4.321Z" transform="translate(-156.61 -61.872)" fill="#e2e3e4"/>
            </g>
            <g id="Grupo_55167" data-name="Grupo 55167" transform="translate(29.945 10.828)">
              <path id="Trazado_101966" data-name="Trazado 101966" d="M192.367,66.1,186.31,63.61,181.152,76.14l3.564,8.55Z" transform="translate(-170.264 -63.61)" fill="#f5940c"/>
              <path id="Trazado_101967" data-name="Trazado 101967" d="M179.962,77.51l-10.888,26.451,6.057,2.493,8.4-20.394Z" transform="translate(-169.073 -64.98)" fill="#eb9114"/>
              <path id="Trazado_101968" data-name="Trazado 101968" d="M198.658,68.806l-5.9-2.429-7.651,18.586,3.472,8.33Z" transform="translate(-170.654 -63.883)" fill="#e6850e"/>
              <path id="Trazado_101969" data-name="Trazado 101969" d="M184.187,86.995l-8.4,20.394,5.9,2.43,5.966-14.493Z" transform="translate(-169.735 -65.915)" fill="#d4811a"/>
              <path id="Trazado_101970" data-name="Trazado 101970" d="M191.743,68.055l-4.814-1.982-4.966,12.063,2.832,6.8Z" transform="translate(-170.344 -63.853)" fill="#fff"/>
              <path id="Trazado_101971" data-name="Trazado 101971" d="M181.3,79.455l-6.094,14.8,4.814,1.982,4.112-9.989Z" transform="translate(-169.677 -65.172)" fill="#f5f6f6"/>
              <path id="Trazado_101972" data-name="Trazado 101972" d="M196.712,70.189l-4.659-1.918-6.947,16.878,2.741,6.577Z" transform="translate(-170.654 -64.07)" fill="#ecedee"/>
              <path id="Trazado_101973" data-name="Trazado 101973" d="M184.656,86.995l-4.112,9.989L185.2,98.9l2.194-5.33Z" transform="translate(-170.204 -65.915)" fill="#e2e3e4"/>
              <path id="Trazado_101974" data-name="Trazado 101974" d="M176.765,105.98a2.751,2.751,0,0,1,2.095-5.089c.024.01.048.022.07.032l.019.009a2.749,2.749,0,0,1-2.091,5.08l-.02-.007C176.813,106,176.789,105.99,176.765,105.98Z" transform="translate(-169.663 -67.265)" fill="#6d6e71"/>
              <path id="Trazado_101975" data-name="Trazado 101975" d="M175.692,102.589a2.342,2.342,0,0,0,1.275,3.056c.025.011.052.018.078.028l1.779-4.321c-.026-.013-.05-.025-.076-.036A2.341,2.341,0,0,0,175.692,102.589Z" transform="translate(-169.708 -67.31)" fill="#f5f6f6"/>
              <path id="Trazado_101976" data-name="Trazado 101976" d="M178.991,101.375l-1.779,4.321a2.338,2.338,0,0,0,1.779-4.321Z" transform="translate(-169.875 -67.333)" fill="#e2e3e4"/>
            </g>
            <g id="Grupo_55168" data-name="Grupo 55168" transform="translate(0)">
              <rect id="Rectángulo_5420" data-name="Rectángulo 5420" width="42.154" height="6.549" transform="translate(0 34.388) rotate(-54.665)" fill="#f9ed32"/>
              <rect id="Rectángulo_5421" data-name="Rectángulo 5421" width="42.153" height="6.382" transform="matrix(0.578, -0.816, 0.816, 0.578, 5.343, 38.176)" fill="#d7cc2b"/>
              <rect id="Rectángulo_5422" data-name="Rectángulo 5422" width="29.054" height="5.206" transform="translate(7.604 25.986) rotate(-54.665)" fill="#fff"/>
              <rect id="Rectángulo_5423" data-name="Rectángulo 5423" width="29.054" height="5.039" transform="matrix(0.578, -0.816, 0.816, 0.578, 11.851, 28.998)" fill="#e6e7e8"/>
              <path id="Trazado_101977" data-name="Trazado 101977" d="M144.018,90.979a2.761,2.761,0,0,1-.465-.245l-.017-.011c-.023-.014-.044-.027-.066-.042a2.752,2.752,0,0,1,2.637-4.79,2.775,2.775,0,0,1,.545.3l.062.047.015.014a2.748,2.748,0,0,1-2.711,4.727Z" transform="translate(-136.49 -54.958)" fill="#6d6e71"/>
              <path id="Trazado_101978" data-name="Trazado 101978" d="M146.46,86.571a2.341,2.341,0,1,0-2.708,3.82c.023.016.048.029.071.044l2.7-3.812C146.5,86.606,146.483,86.587,146.46,86.571Z" transform="translate(-136.535 -55.003)" fill="#fff"/>
              <path id="Trazado_101979" data-name="Trazado 101979" d="M147.132,89.888a2.34,2.34,0,0,0-.489-3.212l-2.7,3.812A2.339,2.339,0,0,0,147.132,89.888Z" transform="translate(-136.65 -55.056)" fill="#e6e7e8"/>
            </g>
          </g>
          <rect id="Rectángulo_5424" data-name="Rectángulo 5424" width="4.764" height="58.666" transform="matrix(0.381, -0.925, 0.925, 0.381, 0, 39.498)" fill="#94a3aa"/>
        </g>
        <g id="_14" data-name="14" transform="translate(17.486 90.123)">
          <path id="Trazado_101980" data-name="Trazado 101980" d="M58.967,159.661l1.9,3.241,14.28-23.611-3.754-.179Z" transform="translate(-49.324 -130.981)" fill="#077d71"/>
          <path id="Trazado_101981" data-name="Trazado 101981" d="M65.394,161.863l4.8,1.579h0l.861.283,4.012,1.321.68.224,3.422,1.126.562.185h0l2.958.974.474.156,2.587.852.41.135.432.142,6.037-9.982-.51-.476-.326-.305-1.983-1.851-.38-.354-2.261-2.113h0l-.45-.42L84.109,150.9l-.547-.511-3.043-2.843-.7-.654-3.6-3.361-.744-.7-4.081-3.729L58.967,159.661l5.241,1.811Z" transform="translate(-49.324 -130.981)" fill="#089a8b"/>
          <g id="Grupo_55176" data-name="Grupo 55176" transform="translate(0)">
            <g id="Grupo_55172" data-name="Grupo 55172">
              <g id="Grupo_55171" data-name="Grupo 55171">
                <path id="Trazado_101982" data-name="Trazado 101982" d="M48.269,143.028l13.782,15.786,12.931-12.935-7.446-8.529L61.2,130.092Z" transform="translate(-48.269 -130.092)" fill="#b8b9ba"/>
                <g id="Grupo_55170" data-name="Grupo 55170" transform="translate(2.06 3.985)">
                  <path id="Trazado_101983" data-name="Trazado 101983" d="M55.058,149.087l.467.535L66.513,138.63l-.467-.535Z" transform="translate(-50.999 -134.866)" fill="#a3a5a6"/>
                  <path id="Trazado_101984" data-name="Trazado 101984" d="M53.557,147.438l.467.535,10.344-10.347-.467-.535Z" transform="translate(-50.851 -134.767)" fill="#a3a5a6"/>
                  <path id="Trazado_101985" data-name="Trazado 101985" d="M52.056,145.648l.467.535,10.988-10.992-.467-.535Z" transform="translate(-50.703 -134.527)" fill="#a3a5a6"/>
                  <path id="Trazado_101986" data-name="Trazado 101986" d="M60.123,134.513l-9.568,9.572.467.535,9.568-9.571Z" transform="translate(-50.555 -134.513)" fill="#a3a5a6"/>
                  <path id="Trazado_101987" data-name="Trazado 101987" d="M57.021,151.406l10.344-10.347-.467-.535L56.554,150.871Z" transform="translate(-51.146 -135.105)" fill="#a3a5a6"/>
                  <path id="Trazado_101988" data-name="Trazado 101988" d="M58.517,153.049,69.5,142.057l-.467-.535L58.05,152.514Z" transform="translate(-51.293 -135.204)" fill="#a3a5a6"/>
                  <path id="Trazado_101989" data-name="Trazado 101989" d="M60.013,154.868l10.017-10.02-.467-.535-10.017,10.02Z" transform="translate(-51.441 -135.479)" fill="#a3a5a6"/>
                  <path id="Trazado_101990" data-name="Trazado 101990" d="M61.508,156.475,72.5,145.483l-.467-.535L61.042,155.94Z" transform="translate(-51.588 -135.541)" fill="#a3a5a6"/>
                  <path id="Trazado_101991" data-name="Trazado 101991" d="M63,158.189,73.992,147.2l-.467-.535L62.537,157.654Z" transform="translate(-51.736 -135.71)" fill="#a3a5a6"/>
                </g>
              </g>
            </g>
            <g id="Grupo_55175" data-name="Grupo 55175" transform="translate(0.871 5.582)">
              <g id="Grupo_55174" data-name="Grupo 55174">
                <path id="Trazado_101992" data-name="Trazado 101992" d="M49.236,151.754l17.173,11.489,10.164-15.469L67.3,141.567l-7.9-5.282Z" transform="translate(-49.236 -136.285)" fill="#d1d3d4"/>
                <g id="Grupo_55173" data-name="Grupo 55173" transform="translate(2.195 3.524)">
                  <path id="Trazado_101993" data-name="Trazado 101993" d="M57.282,155.842l.582.389L66.5,143.087l-.582-.389Z" transform="translate(-52.224 -140.442)" fill="#bcbec0"/>
                  <path id="Trazado_101994" data-name="Trazado 101994" d="M55.411,154.675l.582.389,8.13-12.374-.582-.39Z" transform="translate(-52.039 -140.403)" fill="#bcbec0"/>
                  <path id="Trazado_101995" data-name="Trazado 101995" d="M53.541,153.34l.582.389,8.637-13.145-.582-.39Z" transform="translate(-51.855 -140.195)" fill="#bcbec0"/>
                  <path id="Trazado_101996" data-name="Trazado 101996" d="M59.191,140.828l-7.52,11.446.582.389,7.52-11.446Z" transform="translate(-51.67 -140.257)" fill="#bcbec0"/>
                  <path id="Trazado_101997" data-name="Trazado 101997" d="M59.727,157.563l8.13-12.374-.582-.389-8.13,12.374Z" transform="translate(-52.407 -140.649)" fill="#bcbec0"/>
                  <path id="Trazado_101998" data-name="Trazado 101998" d="M61.591,158.726l8.637-13.145-.582-.39-8.637,13.145Z" transform="translate(-52.591 -140.687)" fill="#bcbec0"/>
                  <path id="Trazado_101999" data-name="Trazado 101999" d="M63.455,160.1l7.873-11.983-.582-.389L62.873,159.71Z" transform="translate(-52.775 -140.937)" fill="#bcbec0"/>
                  <path id="Trazado_102000" data-name="Trazado 102000" d="M65.319,161.219l8.637-13.145-.582-.39L64.737,160.83Z" transform="translate(-52.958 -140.933)" fill="#bcbec0"/>
                  <path id="Trazado_102001" data-name="Trazado 102001" d="M67.182,162.466l8.637-13.145-.582-.389L66.6,162.077Z" transform="translate(-53.142 -141.056)" fill="#bcbec0"/>
                </g>
              </g>
            </g>
          </g>
          <path id="Trazado_102002" data-name="Trazado 102002" d="M61.076,164.206l3.187,1.193.941.353,4.046,1.515h0l.77.288,3.788,1.419.675.253,3.566,1.335.613.229h0l3.368,1.261.563.211,2.382.893,4.74-7.837L68.252,152.341Z" transform="translate(-49.531 -132.285)" fill="#21d8c2"/>
          <path id="Trazado_102003" data-name="Trazado 102003" d="M69.037,151.056,90.5,164.037l5.065-8.375-2.177-1.832-.475-.4L90.2,151.145h0l-.517-.435L86.818,148.3l-.573-.482-3.027-2.549-.661-.556-3.2-2.7-.625-.526-2.59-2.181Z" transform="translate(-50.316 -131.001)" fill="#0ac6b3"/>
          <g id="Grupo_55177" data-name="Grupo 55177" transform="translate(20.942 17.757)">
            <path id="Trazado_102004" data-name="Trazado 102004" d="M74.447,155.684,71.5,157.3l2.42,4.86L77,160.472Z" transform="translate(-71.5 -150.372)" fill="#fff"/>
            <path id="Trazado_102005" data-name="Trazado 102005" d="M77.4,155.172l-.043,1.8,1.9-3.544-1.734-3.638-.043,1.863-3.14.437-2.388,3.949,2.189-1.146Z" transform="translate(-71.545 -149.791)" fill="#fff"/>
            <path id="Trazado_102006" data-name="Trazado 102006" d="M80.612,155.553l5.413-.393-.281-3.348-5.424.242Z" transform="translate(-72.37 -149.99)" fill="#fff"/>
            <path id="Trazado_102007" data-name="Trazado 102007" d="M85.091,157.862l-1.628-.769,2.468,3.176,4.028-.11-1.685-.794.874-3.048-2.641-3.784.16,2.466Z" transform="translate(-72.68 -150.061)" fill="#fff"/>
            <path id="Trazado_102008" data-name="Trazado 102008" d="M80.381,165.65l2.892,1.709,2.944-4.562-3.022-1.788Z" transform="translate(-72.376 -150.897)" fill="#fff"/>
            <path id="Trazado_102009" data-name="Trazado 102009" d="M79.856,162.365l-4.019.173-2.243,3.348,1.624-.914,1.978,2.477,4.614.038-2.1-1.3-1.422-2.942Z" transform="translate(-71.707 -151.03)" fill="#fff"/>
          </g>
        </g>
        <g id="Grupo_55178" data-name="Grupo 55178" transform="translate(85.646 95.655)">
          <path id="Trazado_102010" data-name="Trazado 102010" d="M141.06,137.164l12.78,9.263-1.5,2.068.271.2.271.2L154.1,147.2l.314,1.965.316-.136.278-.119.04-.017-.414-2.6-.022-.137-13.706-9.934-17.028,23.494,5.4,3.916.2-.27.2-.271-4.861-3.524Z" transform="translate(-123.882 -136.229)" fill="#ffaa71"/>
          <path id="Trazado_102011" data-name="Trazado 102011" d="M154.362,148.113l-11.684-8.468-.457.631,3.967,2.875.043-.059,7.718,5.593Z" transform="translate(-125.69 -136.566)" fill="#ffaa71"/>
          <rect id="Rectángulo_5425" data-name="Rectángulo 5425" width="0.779" height="4.899" transform="translate(15.655 4.918) rotate(-54.065)" fill="#ffaa71"/>
          <rect id="Rectángulo_5426" data-name="Rectángulo 5426" width="0.779" height="4.899" transform="matrix(0.587, -0.81, 0.81, 0.587, 14.78, 6.126)" fill="#ffaa71"/>
          <rect id="Rectángulo_5427" data-name="Rectángulo 5427" width="0.961" height="4.899" transform="translate(11.297 10.932) rotate(-54.065)" fill="#ffaa71"/>
          <rect id="Rectángulo_5428" data-name="Rectángulo 5428" width="0.961" height="4.899" transform="matrix(0.587, -0.81, 0.81, 0.587, 9.669, 13.177)" fill="#ffaa71"/>
          <rect id="Rectángulo_5429" data-name="Rectángulo 5429" width="0.961" height="4.899" transform="translate(8.042 15.422) rotate(-54.065)" fill="#ffaa71"/>
          <rect id="Rectángulo_5430" data-name="Rectángulo 5430" width="0.961" height="4.899" transform="translate(6.415 17.668) rotate(-54.065)" fill="#ffaa71"/>
          <rect id="Rectángulo_5431" data-name="Rectángulo 5431" width="0.961" height="4.899" transform="translate(4.787 19.913) rotate(-54.068)" fill="#ffaa71"/>
          <rect id="Rectángulo_5432" data-name="Rectángulo 5432" width="0.961" height="4.899" transform="translate(3.16 22.159) rotate(-54.065)" fill="#ffaa71"/>
          <path id="Trazado_102012" data-name="Trazado 102012" d="M158.617,154.058l-.022-.137-1.616-1.171-.407.119-.023.007-.382.113,1.651,1.2-1.355,1.869-.353.488-1.92,2.648a.331.331,0,0,0-.026.339.324.324,0,0,0,.1.129l5.006,3.627-12.418,17.133L128.8,167.331l1.695-2.338.2-.271.2-.27,1.33-1.834.563-.778,1.065-1.468.563-.778,1.064-1.468.563-.778,1.064-1.468.563-.778,1.065-1.467.563-.779,1.064-1.467.563-.777,2.92-4.029.457-.63.418-.578.329-.453,6.9,5,.2.146.271.2.271.2.325.236.359-.154.359-.153-.651-.471-.27-.2-.271-.2-7.648-5.543-.264.365-.457.631-.419.578-.456.63-2.92,4.028-.564.778-1.063,1.468-.564.778-1.064,1.468-.564.778-1.063,1.468-.564.778-1.063,1.468-.564.778-1.064,1.468-.564.778-1.329,1.834-.2.27-.2.271-2.088,2.881L147,181.354,160.091,163.3l-.022-.138Zm-3.687,5.254,3.153-4.35,1.2,7.5Z" transform="translate(-124.274 -136.994)" fill="#ffaa71"/>
          <path id="Trazado_102013" data-name="Trazado 102013" d="M152.835,151.881l-.168-.123-6.01-4.356-.12.167-.337.465,5.8,4.2Z" transform="translate(-126.082 -137.33)" fill="#ffaa71"/>
          <path id="Trazado_102014" data-name="Trazado 102014" d="M158.726,156.19l-.383-.278-1.665-1.207-.534.159-.4.121h0l2.78,2.015.307.223,0,0,.053-.074.278-.383.124-.172-.171-.124Z" transform="translate(-127.022 -138.05)" fill="#ffaa71"/>
          <path id="Trazado_102015" data-name="Trazado 102015" d="M151.271,152.791l-5.585-4.047-.457.63,5.283,3.829Z" transform="translate(-125.986 -137.463)" fill="#ffaa71"/>
          <path id="Trazado_102016" data-name="Trazado 102016" d="M153.756,155.578l-.015,0,.018.014,3.8,2.75.2.143.458-.631-.2-.142-3.333-2.416Z" transform="translate(-126.825 -138.109)" fill="#ffaa71"/>
          <path id="Trazado_102017" data-name="Trazado 102017" d="M149.2,154l.52-.285-5.007-3.629-.458.631,4.718,3.419C149.053,154.09,149.122,154.036,149.2,154Z" transform="translate(-125.89 -137.595)" fill="#ffaa71"/>
          <path id="Trazado_102018" data-name="Trazado 102018" d="M151.439,155.966l2.427,1.759,2.587,1.875.2.143.457-.631-.2-.143-3.218-2.332-1.207-.875Z" transform="translate(-126.598 -138.154)" fill="#ffaa71"/>
          <path id="Trazado_102019" data-name="Trazado 102019" d="M157.986,167.569l-3.775-2.737-.271-.2-.27-.2-.608-.439c-.047.2-.124.518-.247,1.008l.29.21.271.2.27.2,3.776,2.736Z" transform="translate(-126.734 -138.966)" fill="#ffaa71"/>
          <path id="Trazado_102020" data-name="Trazado 102020" d="M144.473,157.8l-3.516-2.548-.1.142-.461.636,3.832,2.777.2-.822Z" transform="translate(-125.51 -138.104)" fill="#ffaa71"/>
          <path id="Trazado_102021" data-name="Trazado 102021" d="M156.279,170.131l-3.776-2.736-.244-.177-.2.785-.055.219,3.707,2.687Z" transform="translate(-126.654 -139.284)" fill="#ffaa71"/>
          <path id="Trazado_102022" data-name="Trazado 102022" d="M139.049,157.885l-.461.635,4.216,3.056a1.367,1.367,0,0,1,.61.043l.12-.484.045-.185-4.428-3.208Z" transform="translate(-125.332 -138.35)" fill="#ffaa71"/>
          <path id="Trazado_102023" data-name="Trazado 102023" d="M154.5,172.664l-3.49-2.53c-.078.083-.151.166-.241.25-.023.034-.187.3-.323.529l3.49,2.529Z" transform="translate(-126.5 -139.571)" fill="#ffaa71"/>
          <path id="Trazado_102024" data-name="Trazado 102024" d="M137.243,160.376l-.46.635,4.28,3.1.2-.823.012-.046c.009-.043.024-.09.037-.137l-3.967-2.876Z" transform="translate(-125.154 -138.595)" fill="#ffaa71"/>
          <path id="Trazado_102025" data-name="Trazado 102025" d="M152.925,175.3l-1.67-1.21-.249,1.006,1.355.982Z" transform="translate(-126.556 -139.961)" fill="#ffaa71"/>
          <path id="Trazado_102026" data-name="Trazado 102026" d="M135.438,162.867l-.461.636,5.756,4.172a11.676,11.676,0,0,1-.272-1.166,1.825,1.825,0,0,1-.021-.233l-4.9-3.55Z" transform="translate(-124.976 -138.841)" fill="#ffaa71"/>
          <path id="Trazado_102027" data-name="Trazado 102027" d="M150.655,178.64l.564-.778-.761-.551-.249,1.006Z" transform="translate(-126.477 -140.278)" fill="#ffaa71"/>
          <path id="Trazado_102028" data-name="Trazado 102028" d="M133.632,165.358l-.46.635,6.272,4.546.111-.452.8.2.012-.047.045-.184-6.674-4.838Z" transform="translate(-124.798 -139.086)" fill="#ffaa71"/>
          <path id="Trazado_102029" data-name="Trazado 102029" d="M131.929,167.709l-.2.271-.365.5,7.181,5.2.162-.652.087-.351v0l-6.865-4.976Z" transform="translate(-124.62 -139.332)" fill="#ffaa71"/>
          <path id="Trazado_102030" data-name="Trazado 102030" d="M176.815,146.19l.088-1.861.088-1.861-2.356.848-.11.04,0-.014-.026-.073-.3.1-.425.144a1.167,1.167,0,0,0-.107-.124l-.032-.03a1.254,1.254,0,0,0-.114-.1c-.03-.022-.065-.041-.1-.062a1.151,1.151,0,0,0-.1-.06,1.677,1.677,0,0,0-.254-.105,2.246,2.246,0,0,0-.352-.081,4.877,4.877,0,0,0-1.863.162,13.373,13.373,0,0,0-1.861.632c-2.765,1.088-6.1,2.242-7.611,2.757-.5.171-.807.272-.819.276a1.342,1.342,0,0,0,.131.105,2.171,2.171,0,0,0,.367.213,2.121,2.121,0,0,0,.568.169,2.023,2.023,0,0,0,.471.014,2.2,2.2,0,0,0,.534-.117,2.988,2.988,0,0,0,.894-.521c.082-.03.181-.065.3-.1l.306-.1c1.439-.485,4.288-1.4,5.671-1.845l.524-.168.266-.085a1.614,1.614,0,0,1,.246-.051,1.112,1.112,0,0,1,.47.023.468.468,0,0,1,.071.029c-1.009.355-1.954.7-2.848,1.029l-.11.041c-.373.139-.736.276-1.1.412l-.269.1q-.588.224-1.156.446c-.334.131-.663.261-.991.392l-.6.243c-.2.082-.4.162-.6.244-.429.175-.855.351-1.283.528-.856.356-1.718.72-2.612,1.1l-2.265.968-.317.136c-.077.033-.149.063-.225.1l-.092.039-.46.2-.359.153-.359.154-.36.153-1.414.6-.121.051-.449.189-.027.012-.6.251-.215.091-.478.2.016.045.02.055-.057.031-.147.08-.759.412-.132.072-.021.011-.087.047-.327.178-.128.07-.261.142-.415.226c-.025.012-.055.03-.082.044-.06.031-.119.06-.184.1-.094.055-.19.118-.29.191a3.511,3.511,0,0,0-.66.638l-.015.018.049.005c.1.017.214.032.335.041.141.011.293.016.454.013.142,0,.275-.014.4-.028s.239-.033.343-.054l.383-.074.055-.011.006,0,.221-.042,1.046-.2.9-.175.015.043.021.057.127-.038.3-.091.635-.191.46-.137.4-.12h0c.14-.042.269-.08.406-.12l.533-.159q.876-.261,1.695-.5l.324-.1.218-.065.03-.008.076-.023.3-.088.406-.119.406-.12,1.742-.514c1.4-.415,2.715-.811,4.039-1.227.206-.064.414-.131.62-.2l.621-.2c.335-.107.672-.217,1.012-.329,2.5-.822,5.189-1.776,8.607-3.088-.011-.029-.021-.058-.032-.087Zm-25.284,7.778-1.046.2-.194.038-.087-.242-.105-.295.586-.319.693-.378.672-.364.414,1.151.007.021Zm13.5-3.808-.992-2.756q.353-.143.709-.286l1.011,2.81Zm9.695-6.255-.041-.25,1.952-.7-.143,3-.912.328Q175.149,145.092,174.723,143.9Z" transform="translate(-126.312 -136.844)" fill="#ffaa71"/>
          <path id="Trazado_102031" data-name="Trazado 102031" d="M146.806,159.71a.688.688,0,0,0-.1.038.866.866,0,0,0-.233.085l.054-.215c.015-.06.03-.122.046-.184.071-.283.141-.561.206-.819.088-.349.167-.663.225-.892l.2-.78c.019-.074.038-.147.054-.222h0a.633.633,0,0,0-.127-.517,1.028,1.028,0,0,0-.1-.119,1.18,1.18,0,0,0-1.145-.356,1.162,1.162,0,0,0-.175.04,1.26,1.26,0,0,0-.16.074.609.609,0,0,0-.3.325,3.441,3.441,0,0,0-.107.414l-.177.717-.2.822-.045.185-.2.823-.265,1.076-.2.822-.045.185-.2.822-.027.111a.622.622,0,0,0-.041-.063.917.917,0,0,0-.872-.268,1.057,1.057,0,0,0-.574.391,1.522,1.522,0,0,0-.255.449,2.223,2.223,0,0,0-.064.248l-.009.035-.045.185-.2.822-.124.506c-.027.112-.059.224-.09.338-.021.074-.041.151-.06.225a5.021,5.021,0,0,0-.113.5,1.4,1.4,0,0,0,.044.416c.015.075.034.162.058.259.067.283.17.674.316,1.2.035.127.071.254.112.4.076.271.133.473.142.516a3.938,3.938,0,0,1-.009.532v.006l-.184-.045a.229.229,0,0,0-.177.026.232.232,0,0,0-.106.145l-.1.423-.046.184-.13.526-.572-.141-.015.064-.383,1.55-.087.348v0l-.087.351-.156.631-.005.022-.535,2.164h0l7.916,5.739h0l.087-.351h0l.448-1.814.249-1.007.47-1.9.248-1.007.47-1.9.178-.723-.434-.107-.316-.078.145-.587.135-.547a.234.234,0,0,0-.171-.283l-.248-.061c.07-.279.149-.594.192-.76.014-.057.026-.1.03-.113.023-.045.112-.2.214-.365.151-.248.331-.537.377-.59.068-.065.123-.127.184-.19a2.589,2.589,0,0,0,.693-1.126l.1-.385.032-.133.14-.564c.012-.049.029-.115.042-.169l.069-.271c.044-.176.093-.368.144-.569.137-.539.245-.97.334-1.323.124-.495.2-.826.241-1.012a1.362,1.362,0,0,0,.03-.186.23.23,0,0,0-.007-.108v0a.383.383,0,0,0-.014-.046,1.1,1.1,0,0,0-.121-.271,1.039,1.039,0,0,0-.619-.478.936.936,0,0,0-.663.081.909.909,0,0,0-.158.1l-.006,0,0-.007c.01-.041.022-.083.034-.127l.014-.055.027-.1a.915.915,0,0,0-.135-.882,1.077,1.077,0,0,0-1.3-.295.926.926,0,0,0-.178.13.967.967,0,0,0-.124.127,1.1,1.1,0,0,0-.092.118,1.133,1.133,0,0,0,.016-.172,1.045,1.045,0,0,0-.012-.226.91.91,0,0,0-.219-.472,1.175,1.175,0,0,0-.886-.329A.973.973,0,0,0,146.806,159.71Zm-1.007-3.471.014-.066.042-.02a.722.722,0,0,1,.636.017.747.747,0,0,1,.078.057.689.689,0,0,1,.11.083l.023.023-.015.076-.073.368a.452.452,0,0,1-.53.354.463.463,0,0,1-.356-.53Zm2.166,14.566.032.008.143.035.084.022.228.056.021.005-.033.135-.19.772-.581-.144-.3-.073-.352-.087-.35-.087-1.756-.434-1.934-.478-.455-.113-.846-.209.085-.343.046-.184.094-.38.029.007.232.058.229.057.6.149,2.657.657,1.608.4.351.087Zm-1.771-8.8a2.593,2.593,0,0,0,.086-.329c.005-.023.014-.046.018-.069.013-.058.024-.115.038-.171l.044-.182c.033-.143.1-.431.161-.656a2.084,2.084,0,0,1,.1-.3.368.368,0,0,1,.244-.131.733.733,0,0,1,.6.176.55.55,0,0,1,.1.495l-.106.431-.068.271c-.014.054-.03.109-.046.165a2.454,2.454,0,0,0-.092.4.374.374,0,0,0,.139.364.419.419,0,0,0,.384.04c.184-.056.334-.39.435-.7.05-.15.089-.292.113-.39a.8.8,0,0,1,.186-.363.5.5,0,0,1,.133-.121h0a.6.6,0,0,1,.723.181.4.4,0,0,1,.057.386c-.006.026-.01.05-.017.082l-.028.1-.012.042a5.754,5.754,0,0,0-.176.791c-.029.26.006.423.135.517a.373.373,0,0,0,.085.042.3.3,0,0,0,.352-.145,1.375,1.375,0,0,0,.165-.36.479.479,0,0,1,.277-.288.468.468,0,0,1,.256-.032c.012,0,.023,0,.035,0a.615.615,0,0,1,.339.27.57.57,0,0,1,.061.128.206.206,0,0,0,.006.034l-.012.06c-.029.153-.1.471-.2.861-.118.479-.263,1.048-.379,1.5-.035.137-.067.262-.1.389-.06.235-.115.455-.158.625l-.094.38-.142.574-.032.128a2.212,2.212,0,0,1-.621.96c-.041.042-.077.083-.123.126a5.466,5.466,0,0,0-.436.656c-.128.211-.236.4-.251.427a3.341,3.341,0,0,0-.132.472c-.032.127-.073.289-.126.5l-.2-.05-.35-.087-.43-.106-2.485-.615-2.208-.545a4.793,4.793,0,0,0,.012-.707c-.005-.041-.03-.136-.109-.418-.014-.053-.028-.1-.048-.17-.07-.251-.184-.654-.287-1.041-.024-.092-.047-.18-.069-.268a4.666,4.666,0,0,1-.16-.764c.014-.092.035-.186.058-.279.032-.133.067-.265.1-.4s.066-.234.094-.352l.079-.32.2-.823.046-.185.057-.233a1.715,1.715,0,0,1,.049-.193,1.077,1.077,0,0,1,.187-.332.594.594,0,0,1,.307-.206.473.473,0,0,1,.373.078l.014.012a.753.753,0,0,1,.032.389,2.032,2.032,0,0,1-.033.229c-.026.151-.061.3-.1.456a1.008,1.008,0,0,0-.043.406.372.372,0,0,0,.13.262.351.351,0,0,0,.275.031h0c.21-.087.252-.344.284-.532l.048-.193.266-1.076.2-.823.045-.184.2-.823.265-1.076.2-.822.045-.185.2-.822.128-.518a.772.772,0,0,0,1.109.262l.006-.006-.068.273c-.063.247-.122.48-.179.71-.073.288-.141.562-.206.82l-.046.184-.206.82c-.108.437-.2.8-.265,1.077-.084.348-.136.575-.142.631a.382.382,0,0,0,.109.314l.068.049a.316.316,0,0,0,.266.049A.4.4,0,0,0,146.194,162.01Z" transform="translate(-125.41 -138.148)" fill="#ffaa71"/>
        </g>
        <g id="Grupo_55196" data-name="Grupo 55196" transform="translate(33.469 63.666)">
          <g id="_7" data-name="7">
            <g id="Grupo_55183" data-name="Grupo 55183" transform="translate(2.253 19.608)">
              <g id="Grupo_55179" data-name="Grupo 55179" transform="translate(0.861 9.848)">
                <path id="Trazado_102032" data-name="Trazado 102032" d="M69.455,149.411l65.009,2.848,24.5-16.97-50.476-1.87Z" transform="translate(-69.455 -133.419)" fill="#b6bec5"/>
              </g>
              <g id="Grupo_55180" data-name="Grupo 55180" transform="translate(0 7.185)">
                <path id="Trazado_102033" data-name="Trazado 102033" d="M68.5,146.455l65.009,2.848,24.5-16.97-50.476-1.87Z" transform="translate(-68.5 -130.464)" fill="#dee6ed"/>
              </g>
              <g id="Grupo_55181" data-name="Grupo 55181" transform="translate(0.165 3.363)">
                <path id="Trazado_102034" data-name="Trazado 102034" d="M68.682,142.216l65.009,2.848,24.5-16.97-50.475-1.869Z" transform="translate(-68.682 -126.225)" fill="#b6bec5"/>
              </g>
              <g id="Grupo_55182" data-name="Grupo 55182" transform="translate(2.175)">
                <path id="Trazado_102035" data-name="Trazado 102035" d="M70.913,138.486l65.009,2.848,24.5-16.97-50.476-1.87Z" transform="translate(-70.913 -122.494)" fill="#dee6ed"/>
              </g>
            </g>
            <g id="Grupo_55190" data-name="Grupo 55190" transform="translate(2.395 4.199)">
              <g id="Grupo_55184" data-name="Grupo 55184" transform="translate(0 13.542)">
                <path id="Trazado_102036" data-name="Trazado 102036" d="M68.657,136.414l54.947,2.407,10.062.441,24.5-16.97-50.476-1.87Z" transform="translate(-68.657 -120.423)" fill="#b6bec5"/>
              </g>
              <g id="Grupo_55185" data-name="Grupo 55185" transform="translate(2.009 9.973)">
                <path id="Trazado_102037" data-name="Trazado 102037" d="M70.885,132.455l65.009,2.848,24.5-16.97-50.476-1.87Z" transform="translate(-70.885 -116.463)" fill="#dee6ed"/>
              </g>
              <g id="Grupo_55186" data-name="Grupo 55186" transform="translate(2.174 6.151)">
                <path id="Trazado_102038" data-name="Trazado 102038" d="M71.068,128.215l65.009,2.848,24.5-16.97-50.476-1.87Z" transform="translate(-71.068 -112.223)" fill="#b6bec5"/>
              </g>
              <g id="Grupo_55187" data-name="Grupo 55187" transform="translate(4.184 2.788)">
                <path id="Trazado_102039" data-name="Trazado 102039" d="M73.3,124.484l65.009,2.848,24.5-16.97-50.476-1.87Z" transform="translate(-73.298 -108.493)" fill="#dee6ed"/>
              </g>
              <g id="Grupo_55189" data-name="Grupo 55189" transform="translate(4.358)">
                <path id="Trazado_102040" data-name="Trazado 102040" d="M73.491,121.391l65.009,2.848L163,107.27l-50.476-1.87Z" transform="translate(-73.491 -105.4)" fill="#b6bec5"/>
                <g id="Grupo_55188" data-name="Grupo 55188" transform="translate(12.725 1.804)">
                  <path id="Trazado_102041" data-name="Trazado 102041" d="M87.608,120.033l49.858,2.122,2.5-1.616L91.215,118.5Z" transform="translate(-87.608 -108.495)" fill="#a2a8b1"/>
                  <path id="Trazado_102042" data-name="Trazado 102042" d="M95.309,116.766l47.733,1.972,2.286-1.475-46.721-1.9Z" transform="translate(-88.367 -108.186)" fill="#a2a8b1"/>
                  <path id="Trazado_102043" data-name="Trazado 102043" d="M102.356,113.776l45.781,1.839,2.094-1.351-44.849-1.778Z" transform="translate(-89.062 -107.902)" fill="#a2a8b1"/>
                  <path id="Trazado_102044" data-name="Trazado 102044" d="M108.829,111.029l43.983,1.721,1.926-1.243-43.122-1.666Z" transform="translate(-89.7 -107.642)" fill="#a2a8b1"/>
                  <path id="Trazado_102045" data-name="Trazado 102045" d="M114.794,108.5l42.32,1.615,1.777-1.146L117.369,107.4Z" transform="translate(-90.288 -107.401)" fill="#a2a8b1"/>
                </g>
              </g>
            </g>
            <g id="Grupo_55193" data-name="Grupo 55193" transform="translate(0 2.263)">
              <g id="Grupo_55192" data-name="Grupo 55192">
                <path id="Trazado_102046" data-name="Trazado 102046" d="M66,119.729l40.622,1.78L94.2,108.177Z" transform="translate(-66 -103.738)" fill="#dae0ed"/>
                <path id="Trazado_102047" data-name="Trazado 102047" d="M101.144,106.142l-3.86,1.582,12.422,13.332,24.387,1.068,24.5-16.969-42.488-1.574C112.238,107.482,106.292,108.078,101.144,106.142Z" transform="translate(-69.084 -103.285)" fill="#cbcfdc"/>
                <path id="Trazado_102048" data-name="Trazado 102048" d="M101.566,106.11c5.148,1.936,11.094,1.34,14.962-2.561l-7.988-.3Z" transform="translate(-69.506 -103.253)" fill="#dae0ed"/>
                <g id="Grupo_55191" data-name="Grupo 55191" transform="translate(12.725 1.803)">
                  <path id="Trazado_102049" data-name="Trazado 102049" d="M107.394,119.028,132.5,120.1l2.5-1.615-29.263-1.227Z" transform="translate(-82.643 -106.436)" fill="#b7bac8"/>
                  <path id="Trazado_102050" data-name="Trazado 102050" d="M83.724,116.349l-3.607,1.537,24.751,1.054-1.652-1.773Z" transform="translate(-80.117 -106.347)" fill="#c6ccd9"/>
                  <path id="Trazado_102051" data-name="Trazado 102051" d="M103.89,115.267l33.1,1.368,2.286-1.474-36.882-1.5Z" transform="translate(-82.312 -106.082)" fill="#b7bac8"/>
                  <path id="Trazado_102052" data-name="Trazado 102052" d="M91.116,113.214l-3.3,1.4,14.635.6-1.5-1.609Z" transform="translate(-80.876 -106.038)" fill="#c6ccd9"/>
                  <path id="Trazado_102053" data-name="Trazado 102053" d="M97.891,110.339l-3.026,1.29,5.4.217L98.9,110.379Z" transform="translate(-81.57 -105.755)" fill="#c6ccd9"/>
                  <path id="Trazado_102054" data-name="Trazado 102054" d="M100.706,111.85l40.381,1.622,2.094-1.351L99.34,110.384Z" transform="translate(-82.012 -105.759)" fill="#b7bac8"/>
                  <path id="Trazado_102055" data-name="Trazado 102055" d="M101.337,108.882,145.32,110.6l1.926-1.243-43.122-1.666Z" transform="translate(-82.208 -105.494)" fill="#b7bac8"/>
                  <path id="Trazado_102056" data-name="Trazado 102056" d="M107.3,106.351l42.32,1.615,1.777-1.147-41.522-1.566Z" transform="translate(-82.797 -105.254)" fill="#b7bac8"/>
                </g>
              </g>
            </g>
            <g id="Grupo_55194" data-name="Grupo 55194" transform="translate(23.356)">
              <path id="Trazado_102057" data-name="Trazado 102057" d="M146.835,103.249l.126,2.482,1.373-.081a1,1,0,0,0,.924-1.072l-.075-1.467Z" transform="translate(-97.324 -100.976)" fill="#96a6b6"/>
              <path id="Trazado_102058" data-name="Trazado 102058" d="M148.085,100.744l-1.374.081.112,2.19,2.348-.138-.059-1.175A.989.989,0,0,0,148.085,100.744Z" transform="translate(-97.312 -100.742)" fill="#b6bec5"/>
              <path id="Trazado_102059" data-name="Trazado 102059" d="M99.069,108.812l.195-.011-.2-.059Z" transform="translate(-92.615 -101.531)" fill="#e2632a"/>
              <path id="Trazado_102060" data-name="Trazado 102060" d="M98.81,103.7l.191-.081-.195.011Z" transform="translate(-92.589 -101.026)" fill="#fe7031"/>
              <path id="Trazado_102061" data-name="Trazado 102061" d="M136.749,103.592l-37.6,2.2.126,2.481,38.578-2.257,2.44-.143-.126-2.481Z" transform="translate(-92.623 -101.003)" fill="#03cbb7"/>
              <path id="Trazado_102062" data-name="Trazado 102062" d="M137.6,101.1l-38.578,2.257.111,2.191,37.6-2.2,3.415-.2-.111-2.191Z" transform="translate(-92.611 -100.764)" fill="#18ddc5"/>
              <path id="Trazado_102063" data-name="Trazado 102063" d="M146.079,100.858l-1.553.091.111,2.191,1.553-.091.417-.024-.111-2.191Z" transform="translate(-97.096 -100.751)" fill="#16b8ef"/>
              <path id="Trazado_102064" data-name="Trazado 102064" d="M146.2,103.288l-1.553.091.126,2.481,1.553-.091.417-.024-.126-2.481Z" transform="translate(-97.108 -100.991)" fill="#00a8e0"/>
              <path id="Trazado_102065" data-name="Trazado 102065" d="M92.308,106.427l-.4.169,4.26,1.252-.083-1.642Z" transform="translate(-91.91 -101.281)" fill="#424651"/>
              <path id="Trazado_102066" data-name="Trazado 102066" d="M92.351,106.28l3.779-.221-.069-1.352Z" transform="translate(-91.953 -101.133)" fill="#585a60"/>
              <path id="Trazado_102067" data-name="Trazado 102067" d="M98.694,106.066l-2.151.125.083,1.642,2.19.643.2.059-.126-2.481Z" transform="translate(-92.366 -101.266)" fill="#edcd2c"/>
              <path id="Trazado_102068" data-name="Trazado 102068" d="M98.579,103.7l-2.112.9.069,1.352,2.151-.125.195-.011-.111-2.191Z" transform="translate(-92.359 -101.026)" fill="#fcde48"/>
            </g>
            <g id="Grupo_55195" data-name="Grupo 55195" transform="translate(34.552 2.965)">
              <path id="Trazado_102069" data-name="Trazado 102069" d="M106.933,112.2l.116,1.775c.833.076,2.132.191,4.44.395l-.211-3.228C109.02,111.688,107.748,112,106.933,112.2Z" transform="translate(-104.587 -104.732)" fill="#16b8ef"/>
              <path id="Trazado_102070" data-name="Trazado 102070" d="M153.4,112.413l3.316-.25,1.906-6.116-4.591.346Z" transform="translate(-109.167 -104.23)" fill="#16b8ef"/>
              <path id="Trazado_102071" data-name="Trazado 102071" d="M136.291,107.658l.4,6.116c.567-.022,1.138-.045,1.716-.071L138,107.471C137.423,107.531,136.856,107.594,136.291,107.658Z" transform="translate(-107.48 -104.371)" fill="#444147"/>
              <path id="Trazado_102072" data-name="Trazado 102072" d="M111.552,110.683l.233,3.539c8.567-.161,14.4-.148,20.37-.329l-.389-5.944C125.835,108.666,120.056,109.556,111.552,110.683Z" transform="translate(-105.042 -104.418)" fill="#585a60"/>
              <path id="Trazado_102073" data-name="Trazado 102073" d="M149.852,104.947c-1.239-.883-3.474-1.129-6.64-.73-6.357.682-14.333,1.084-14.412,1.088a3.4,3.4,0,0,0,4.66,1.166c2.251-.165,11.876-.513,11.972-.517a2.18,2.18,0,0,1,1.124.29c.216.155.472.447.185,1.194-.237.613-.073.893.1,1.021.713.508,3.16-1,3.892-1.473l.094-.06.015-.117A2.087,2.087,0,0,0,149.852,104.947Z" transform="translate(-106.742 -104.032)" fill="#585a60"/>
              <path id="Trazado_102074" data-name="Trazado 102074" d="M133.976,107.922l.389,5.944c.7-.022,1.394-.045,2.1-.072l-.4-6.116C135.362,107.757,134.668,107.839,133.976,107.922Z" transform="translate(-107.252 -104.391)" fill="#16b8ef"/>
              <path id="Trazado_102075" data-name="Trazado 102075" d="M138.187,107.348l.408,6.232c4.241-.194,8.831-.517,14.712-1.1q-.206-3.132-.41-6.262C147,106.533,142.412,106.9,138.187,107.348Z" transform="translate(-107.667 -104.248)" fill="#585a60"/>
              <path id="Trazado_102076" data-name="Trazado 102076" d="M105.666,112.609a5.511,5.511,0,0,0-1.336.774,6.819,6.819,0,0,0,1.276.493,6.558,6.558,0,0,0,1.187.213q-.058-.887-.116-1.775A5.215,5.215,0,0,0,105.666,112.609Z" transform="translate(-104.33 -104.848)" fill="#444147"/>
            </g>
          </g>
        </g>
      </g>
    </g>
  </g>
</svg>
