<?xml version="1.0" encoding="utf-8"?>
<!-- Generator: Adobe Illustrator 25.2.3, SVG Export Plug-In . SVG Version: 6.00 Build 0)  -->
<svg version="1.1" id="Capa_1" xmlns="http://www.w3.org/2000/svg" xmlns:xlink="http://www.w3.org/1999/xlink" x="0px" y="0px"
	 viewBox="0 0 201 205.8" style="enable-background:new 0 0 201 205.8;" xml:space="preserve">
<style type="text/css">
	.st0{fill:#FFFFFF;}
	.st1{fill:none;stroke:#F7A416;stroke-width:10;stroke-linejoin:round;}
	.st2{fill:#FFD4B3;}
	.st3{fill:#B3DEFF;}
	.st4{fill:#225D6B;}
	.st5{fill:#FBDA70;}
	.st6{fill:#7B4D42;}
	.st7{fill:#0F3871;}
	.st8{fill:#AACAF9;}
	.st9{fill:#5E98FF;}
	.st10{fill:#BCBCBC;}
	.st11{fill:#D7C4A6;}
	.st12{fill:#B4D0D3;}
	.st13{fill:#E5A67C;}
	.st14{fill:none;}
	.st15{fill:#0086FF;}
</style>
<g>
	<g id="Grupo_55450" transform="translate(857.578 2444.033)">
		<g id="Elipse_157" transform="translate(0.422 -0.034)">
			<ellipse class="st0" cx="-757.5" cy="-2339.2" rx="90.5" ry="91"/>
			<ellipse class="st1" cx="-757.5" cy="-2339.2" rx="95.5" ry="96"/>
		</g>
	</g>
	<g id="Grupo_55543" transform="translate(769.201 2266.32)">
		<g id="Grupo_55453" transform="translate(214.207 186.287)">
			<path id="Trazado_102898" class="st2" d="M-848-2416.5l6.3,8.9c0,0,0-0.1,0.1-0.1c0.6-1.3,1-2.7,1.5-4c0-0.1,0-0.1,0-0.2
				c0.5-1.1,0.6-2.2,0.4-3.4c-0.2-0.8-0.5-1.6-0.7-2.5c-0.6-2.5,0.2-5.1,2.2-6.8c0.4-0.3,0.9,0.3,0.5,0.6c-2.3,1.8-2.4,4.8-1.6,7.4
				c0.2,0.7,0.3,1.4,0.4,2.1c0.6-1.2,1.4-2.2,2.3-3.1c0.4-0.3,0.9,0.3,0.5,0.6c-2.9,2.8-3.5,6.8-5.1,10.3l0,0
				c0.7-0.4,1.4-0.6,2.1-0.8c1.9-0.4,4.4,0,5.4-2c0.2-0.4,1-0.2,0.7,0.3c-0.9,1.7-2.4,2.1-4.2,2.3c-1.3,0.1-2.5,0.4-3.6,1l5.4,7.6
				c1.9-1.8,5.2-1.2,7-9.1c0.8-3.5,2.4-11.7,3.8-13.6c1.5-1.7,4.3-5.7,2.9-7.7c-2.4-3.3-6.6,0.7-9.2,0.3c-9.3-1.4-14.5,6.3-15.9,9.6
				C-847-2418.1-847.5-2417.3-848-2416.5z"/>
			<path id="Trazado_102899" class="st0" d="M-841.2-2406.9l0.5,0.7c1.1-0.5,2.4-0.9,3.6-1c1.7-0.2,3.3-0.6,4.2-2.3
				c0.2-0.4-0.5-0.7-0.7-0.3c-1,2-3.6,1.6-5.4,2C-839.8-2407.5-840.5-2407.3-841.2-2406.9z"/>
			<path id="Trazado_102900" class="st0" d="M-840.4-2417.9c0.2,0.8,0.5,1.6,0.7,2.5c0.2,1.2,0,2.3-0.4,3.4c0,0.1,0,0.1,0,0.2
				c-0.5,1.3-0.9,2.7-1.5,4c0,0,0,0.1-0.1,0.1l0.5,0.7c1.6-3.5,2.2-7.5,5.1-10.3c0.4-0.3-0.1-1-0.5-0.6c-0.9,0.9-1.7,2-2.3,3.1
				c0-0.7-0.2-1.4-0.4-2.1c-0.8-2.6-0.7-5.6,1.6-7.4c0.4-0.3-0.1-0.9-0.5-0.6C-840.1-2423-841-2420.4-840.4-2417.9z"/>
		</g>
		<g id="Grupo_55455" transform="translate(161.724 238.706)">
			<path id="Trazado_102904" class="st2" d="M-827.1-2417.1c-0.2,0-0.4,0.1-0.6,0.1c-0.1,0-0.1,0-0.2,0c-1.1,0.3-2.3,0.3-3.4,0
				c-0.8-0.3-1.5-0.7-2.4-1c-2.4-0.9-5.1-0.4-7.1,1.3c-0.4,0.4,0.2,0.9,0.5,0.6c2.1-2,5-1.8,7.5-0.7c0.6,0.3,1.3,0.5,2,0.6
				c-1.2,0.4-2.4,1.1-3.4,1.9c-0.4,0.3,0.2,0.9,0.5,0.6c1.9-1.4,4.1-2.4,6.5-2.7v11.8c-4.1,0.4-10.2,0.9-11.9,1.9
				c-1.8,1.3-6.2,3.6-8,1.9c-2.9-2.8,1.5-6.5,1.4-9.1c-0.2-9.4,8.1-13.6,11.5-14.6c4.3-1.2,6.2-3.6,6.9-5.9L-827.1-2417.1z"/>
			<path id="Trazado_102905" class="st0" d="M-831.3-2416.9c1.1,0.3,2.3,0.3,3.4,0c0.1,0,0.1,0,0.2,0c0.2,0,0.4-0.1,0.6-0.1v0.8
				c-2.3,0.4-4.6,1.3-6.5,2.7c-0.4,0.3-0.9-0.2-0.5-0.6c1-0.8,2.2-1.5,3.4-1.9c-0.7-0.1-1.4-0.3-2-0.6c-2.5-1.1-5.4-1.3-7.5,0.7
				c-0.4,0.4-0.9-0.2-0.5-0.6c1.9-1.7,4.6-2.2,7.1-1.3C-832.9-2417.7-832.2-2417.2-831.3-2416.9z"/>
		</g>
		<g id="Grupo_55456" transform="matrix(-0.914, 0.407, -0.407, -0.914, 236.969, 208.851)">
			<path id="Trazado_102906" class="st3" d="M-204.2,2612c9.3,1,14.2-6.9,15.5-10.2c2.9-7.7,9-6.9,11.4-6.3c1.7,0.2,3.4,0,5-0.6
				v-19.6c-0.5,0.5-1.1,0.9-1.7,1.4c-1.5,1.2-3.1,2.1-4.8,2.9c-0.4,0.2-0.8,0.3-1.2,0.5c-0.1,0.1-0.1,0.1-0.2,0.1
				c-0.2,0-0.3,0.1-0.4,0.1l-0.2,0.1c-4.7,1.5-5.1,7.3-2.4,11.1c0.3,0.4-0.3,0.9-0.6,0.5c-1.6-2.1-2.2-4.8-1.8-7.4
				c0.3-1.3,0.9-2.5,1.9-3.4c-0.4,0.1-0.7,0.2-1.1,0.3c-2,0.6-3.7,2.3-5.2,3.7c-0.7,0.7-1.4,1.4-2,2.2c0,0,0,0,0,0
				c-0.2,0.4-0.5,0.8-0.8,1.1c-0.5,0.7-0.9,1.5-1.2,2.3c-0.5,1.4-0.9,2.7-1.4,4.1c0,0.1,0,0.1,0,0.2c-0.4,1.1-0.5,2.3-0.3,3.4
				c0.2,0.8,0.6,1.6,0.8,2.4c0.7,2.5,0,5.2-1.9,6.9c-0.4,0.3-0.9-0.3-0.5-0.6c2.2-1.9,2.2-4.9,1.3-7.4c-0.2-0.7-0.4-1.3-0.5-2
				c-0.5,1.2-1.3,2.3-2.2,3.2c-0.4,0.4-0.9-0.2-0.5-0.6c2.8-2.9,3.2-6.9,4.7-10.5c0,0,0,0,0,0c-0.7,0.4-1.4,0.7-2.1,0.9
				c-1.8,0.5-4.4,0.2-5.3,2.2c-0.2,0.5-1,0.2-0.7-0.2c0.8-1.7,2.3-2.2,4.1-2.4c1.9-0.2,3.7-1,5.1-2.3c0.7-1,1.4-1.9,2.3-2.8
				c1.3-1.4,2.8-2.6,4.4-3.7c1.7-0.9,3.6-1.6,5.6-1.9c0.3-0.1,0.6-0.2,0.9-0.3c1.7-0.6,3.4-1.5,4.9-2.5c0.9-0.6,1.7-1.3,2.5-2.1
				c-2.1,0.4-4.2,0.1-6-0.9c-0.7-0.4-1.4-0.9-1.9-1.5c-0.7-1-1.5-1.9-2.3-2.7c-2.1-1.7-4.4,0.4-6.2,1.4c-0.4,0.3-0.8-0.4-0.4-0.7
				c1.6-0.9,2.9-2.1,4.8-2.1c2.3,0,3.3,2.1,4.7,3.6c2.1,2.2,5.3,3,8.1,1.9v-6.6c-3.4-2.4-7.6-3.7-11.8-3.4
				c-14.8,1.3-13.7,11.8-16.1,17c-1.5,3.3-5.7,1.3-7.4,10.5c-0.7,3.5-1.9,11.8-3.3,13.7c-1.4,1.7-4.1,5.9-2.6,7.8
				C-210.8,2615.8-206.8,2611.7-204.2,2612z"/>
			<path id="Trazado_102907" class="st4" d="M-189.3,2584.4c1.3-1.3,2.8-2.3,4.5-3c0.4-0.1,0.7-0.2,1.1-0.3
				c-0.9,0.9-1.6,2.1-1.8,3.4c-0.1,0.5-0.1,0.9-0.1,1.4c-0.2-0.1-0.4-0.1-0.6-0.2C-187.4,2585.4-188.4,2584.9-189.3,2584.4z"/>
			<path id="Trazado_102908" class="st4" d="M-177.3,2585.6c1.7-0.2,3.4-0.3,5-0.2v-10.1c-0.6,0.5-1.1,0.9-1.7,1.4
				c-1.5,1.2-3.1,2.1-4.8,2.9c-0.4,0.2-0.8,0.3-1.2,0.5c-0.1,0.1-0.1,0.1-0.2,0.1c-0.2,0-0.3,0.1-0.4,0.1l-0.2,0.1
				c-2.5,0.8-4.2,3.2-4.1,5.9c0.7,0.2,1.5,0.3,2.2,0.2C-180.9,2586.3-179.1,2585.8-177.3,2585.6z"/>
			<path id="Trazado_102909" class="st4" d="M-181.4,2579.6c0.3-0.1,0.6-0.2,0.9-0.3c1.7-0.6,3.4-1.5,4.9-2.5
				c0.9-0.6,1.7-1.3,2.5-2.1c-2.1,0.4-4.2,0.1-6-0.9c-0.7-0.4-1.4-0.9-1.9-1.5c-0.7-1-1.5-1.9-2.3-2.7c-2.1-1.7-4.4,0.4-6.2,1.4
				c-0.4,0.3-0.8-0.4-0.4-0.7c1.6-0.9,2.9-2.1,4.8-2.1c2.3,0,3.3,2.1,4.7,3.6c2.1,2.2,5.2,3,8.1,1.9v-6.6c-3.4-2.4-7.6-3.7-11.8-3.4
				c-11,1-13.2,7-14.6,12.2c2.2,2.3,4.4,4.6,6.8,6.7c0.6,0.5,1.2,0.9,1.8,1.4c1-0.9,2-1.7,3.1-2.5
				C-185.2,2580.6-183.3,2580-181.4,2579.6z"/>
			<path id="Trazado_102910" class="st0" d="M-195,2600.8c-0.2-0.8-0.6-1.6-0.8-2.4c-0.2-1.1-0.1-2.3,0.3-3.4c0-0.1,0-0.1,0-0.2
				c0.4-1.3,0.8-2.7,1.4-4.1c0.3-0.8,0.7-1.6,1.2-2.3c0.3-0.3,0.6-0.7,0.8-1.1c0,0,0,0,0,0c0.6-0.8,1.3-1.5,2-2.2
				c1.5-1.4,3.2-3.1,5.2-3.7c0.4-0.1,0.7-0.2,1.1-0.3c-0.9,0.9-1.6,2.1-1.9,3.4c-0.4,2.6,0.2,5.3,1.8,7.4c0.3,0.4,0.9-0.1,0.6-0.5
				c-2.7-3.8-2.4-9.5,2.4-11.1l0.2-0.1c0.1,0,0.3-0.1,0.4-0.1c0.1,0,0.1-0.1,0.2-0.1c0.4-0.1,0.8-0.3,1.2-0.5
				c1.7-0.7,3.4-1.7,4.8-2.9c0.6-0.4,1.1-0.9,1.7-1.4v-1.5c-2.8,1.1-6,0.3-8.1-1.9c-1.4-1.5-2.3-3.6-4.7-3.6c-1.9,0-3.3,1.2-4.8,2.1
				c-0.4,0.3-0.1,1,0.4,0.7c1.8-1,4.1-3.1,6.2-1.4c0.8,0.9,1.6,1.8,2.3,2.7c0.6,0.6,1.2,1.1,1.9,1.5c1.8,1,4,1.4,6,0.9
				c-0.8,0.7-1.7,1.4-2.5,2.1c-1.5,1.1-3.2,1.9-4.9,2.5c-0.3,0.1-0.6,0.2-0.9,0.3c-1.9,0.3-3.8,1-5.6,1.9c-1.6,1.1-3.1,2.3-4.4,3.7
				c-0.8,0.8-1.6,1.8-2.3,2.8c-1.4,1.3-3.2,2.1-5.1,2.3c-1.7,0.3-3.3,0.7-4.1,2.4c-0.2,0.5,0.5,0.7,0.7,0.2c0.9-2,3.5-1.7,5.3-2.2
				c0.7-0.2,1.4-0.5,2.1-0.9c0,0,0,0,0,0c-1.5,3.6-1.9,7.6-4.7,10.5c-0.4,0.4,0.2,0.9,0.5,0.6c0.9-0.9,1.7-2,2.2-3.2
				c0.1,0.7,0.2,1.4,0.5,2c0.9,2.6,0.9,5.5-1.3,7.4c-0.4,0.3,0.1,0.9,0.5,0.6C-195.1,2606-194.3,2603.3-195,2600.8z"/>
		</g>
		<g id="Grupo_55457" transform="translate(155.48 202.103)">
			<path id="Trazado_102911" class="st2" d="M-820.9-2428.3v9.8c-0.6-0.3-1.3-0.6-1.9-0.9c0-0.1-0.1-0.1-0.2-0.1
				c-1.1-0.4-2-1.2-2.7-2.1c-0.5-0.7-0.8-1.5-1.3-2.2c-1.4-2.2-3.8-3.5-6.4-3.3c-0.2,0-0.4,0.2-0.3,0.4c0,0.2,0.2,0.3,0.4,0.3
				c2.9-0.3,5.1,1.7,6.4,4c0.3,0.6,0.7,1.2,1.2,1.7c-1.2-0.4-2.6-0.6-3.9-0.6c-0.5,0-0.4,0.8,0.1,0.8c3.2-0.1,5.8,1.4,8.6,2.6v2.1
				c-1.5,1.1-3,2.9-5,2.2c-0.5-0.1-0.8,0.6-0.3,0.7c1.8,0.6,3.2-0.3,4.5-1.4c0.3-0.2,0.5-0.4,0.8-0.6v8.8c-1.7,0.2-3.9-0.2-7.3-2.3
				c-3.1-1.9-10-6.6-12.3-6.8c-2.2-0.1-7.1-1-7.5-3.4c-0.6-4,5.1-4.2,6.7-6.3c5.6-7.6,14.7-5.8,18-4.5
				C-822.5-2428.7-821.7-2428.5-820.9-2428.3z"/>
			<path id="Trazado_102912" class="st0" d="M-820.9-2415.5v1c-0.3,0.2-0.5,0.4-0.8,0.6c-1.4,1.1-2.8,1.9-4.5,1.4
				c-0.5-0.2-0.1-0.9,0.3-0.7C-823.8-2412.7-822.4-2414.5-820.9-2415.5z"/>
			<path id="Trazado_102913" class="st0" d="M-826.9-2423.8c0.5,0.7,0.8,1.5,1.3,2.2c0.7,0.9,1.6,1.6,2.7,2.1c0.1,0,0.1,0.1,0.2,0.1
				c0.6,0.3,1.3,0.6,1.9,0.9v0.8c-2.8-1.3-5.4-2.7-8.6-2.6c-0.5,0-0.6-0.8-0.1-0.8c1.3,0,2.6,0.2,3.9,0.6c-0.5-0.5-0.9-1.1-1.2-1.7
				c-1.3-2.4-3.5-4.4-6.4-4c-0.2,0-0.4-0.1-0.4-0.4c0-0.2,0.1-0.4,0.3-0.4C-830.7-2427.3-828.3-2426-826.9-2423.8z"/>
		</g>
		<path id="Trazado_102936" class="st5" d="M-675.4-2158.5c0,0.8-1,1.5-2.2,1.5c-1.3,0-2.3-0.6-2.3-1.5c0-0.8,1-1.5,2.2-1.5
			C-676.4-2159.9-675.4-2159.3-675.4-2158.5z"/>
		<g id="Grupo_55488" transform="translate(134.824 188.954)">
			<rect id="Rect치ngulo_5660" x="-848" y="-2417.3" class="st6" width="99.9" height="136.9"/>
			<rect id="Rect치ngulo_5661" x="-848" y="-2417.3" class="st7" width="99.9" height="136.9"/>
			<rect id="Rect치ngulo_5662" x="-842.7" y="-2419.1" class="st8" width="98.1" height="136.9"/>
			<rect id="Rect치ngulo_5663" x="-846.9" y="-2417.3" class="st3" width="98.1" height="136.9"/>
			<path id="Trazado_102940" class="st7" d="M-751.1-2284.8l-92-0.4v-125.4l78.9-0.7l13,12.7L-751.1-2284.8z"/>
			<path id="Trazado_102941" class="st0" d="M-746.8-2287.4l-94.5-0.4l-2.6-123.6h78.5l13.4,13L-746.8-2287.4z"/>
			<path id="Trazado_102942" class="st9" d="M-808.7-2364.7c0,0.8-0.7,1.4-1.5,1.4h-19.6c-0.8,0-1.5-0.6-1.5-1.4l0,0
				c0-0.8,0.7-1.4,1.5-1.4h19.6C-809.4-2366.1-808.7-2365.5-808.7-2364.7L-808.7-2364.7z"/>
			<path id="Trazado_102943" class="st10" d="M-791.2-2360.7c0,0.5-0.5,1-1,0.9h-38c-0.5,0-1-0.4-1-0.9l0,0c0-0.5,0.5-1,1-0.9h38
				C-791.7-2361.7-791.3-2361.2-791.2-2360.7z"/>
			<path id="Trazado_102944" class="st10" d="M-791.2-2357.4c0,0.5-0.5,1-1,0.9h-38c-0.5,0-1-0.4-1-0.9l0,0c0-0.5,0.5-1,1-0.9h38
				C-791.7-2358.4-791.3-2357.9-791.2-2357.4z"/>
			<path id="Trazado_102945" class="st10" d="M-817.1-2354.1c0,0.5-0.5,1-1,0.9h-12.1c-0.5,0-1-0.4-1-0.9l0,0c0-0.5,0.5-1,1-0.9
				h12.1C-817.6-2355.1-817.1-2354.7-817.1-2354.1L-817.1-2354.1z"/>
			<path id="Trazado_102946" class="st9" d="M-808.7-2346.2c0,0.8-0.7,1.4-1.5,1.4h-19.6c-0.8,0-1.5-0.6-1.5-1.4l0,0
				c0-0.8,0.7-1.4,1.5-1.4h19.6C-809.4-2347.6-808.7-2347-808.7-2346.2L-808.7-2346.2z"/>
			<path id="Trazado_102947" class="st10" d="M-791.2-2342.2c0,0.5-0.5,1-1,0.9h-38c-0.5,0-1-0.4-1-0.9l0,0c0-0.5,0.5-1,1-0.9h38
				C-791.7-2343.2-791.3-2342.8-791.2-2342.2z"/>
			<path id="Trazado_102948" class="st10" d="M-791.2-2338.9c0,0.5-0.5,1-1,0.9h-38c-0.5,0-1-0.4-1-0.9l0,0c0-0.5,0.5-1,1-0.9h38
				C-791.7-2339.9-791.3-2339.5-791.2-2338.9z"/>
			<path id="Trazado_102949" class="st10" d="M-817.1-2335.7c0,0.5-0.5,1-1,0.9h-12.1c-0.5,0-1-0.4-1-0.9l0,0c0-0.5,0.5-1,1-0.9
				h12.1C-817.6-2336.6-817.1-2336.2-817.1-2335.7L-817.1-2335.7z"/>
			<path id="Trazado_102950" class="st9" d="M-808.7-2326.8c0,0.8-0.7,1.4-1.5,1.4h-19.6c-0.8,0-1.5-0.6-1.5-1.4l0,0
				c0-0.8,0.7-1.4,1.5-1.4h19.6C-809.4-2328.2-808.7-2327.6-808.7-2326.8L-808.7-2326.8z"/>
			<path id="Trazado_102951" class="st10" d="M-791.2-2322.8c0,0.5-0.5,1-1,0.9h-38c-0.5,0-1-0.4-1-0.9l0,0c0-0.5,0.5-1,1-0.9h38
				C-791.7-2323.7-791.3-2323.3-791.2-2322.8z"/>
			<path id="Trazado_102952" class="st10" d="M-791.2-2319.5c0,0.5-0.5,1-1,0.9h-38c-0.5,0-1-0.4-1-0.9l0,0c0-0.5,0.5-1,1-0.9h38
				C-791.7-2320.4-791.3-2320-791.2-2319.5z"/>
			<path id="Trazado_102953" class="st10" d="M-817.1-2316.2c0,0.5-0.5,1-1,0.9h-12.1c-0.5,0-1-0.4-1-0.9l0,0c0-0.5,0.5-1,1-0.9
				h12.1C-817.6-2317.2-817.1-2316.8-817.1-2316.2L-817.1-2316.2z"/>
			<path id="Trazado_102954" class="st11" d="M-752-2398.4l-11.9,2.9l-1.3-16L-752-2398.4z"/>
			<path id="Trazado_102955" class="st9" d="M-751.9-2398.3l-13.6,0.1l0.2-13.1L-751.9-2398.3z"/>
			<g id="Grupo_55479" transform="translate(65.385 43.912)">
				<path id="Trazado_102956" class="st9" d="M-848-2417.3v-12.9h12.9v12.9H-848z M-836.9-2419.2v-9.3h-9.3v9.3H-836.9z"/>
				<path id="Trazado_102957" class="st9" d="M-835.6-2417.8h-11.9v-11.9h11.9V-2417.8z M-846.7-2418.6h10.3v-10.3h-10.3V-2418.6z"
					/>
			</g>
			<g id="Grupo_55480" transform="translate(67.224 46.345)">
				<path id="Trazado_102958" class="st9" d="M-848-2426.5l1.3-1.3l2.6,2.6l3.9-5.1l1.4,1.1l-5.2,6.7L-848-2426.5z"/>
				<path id="Trazado_102959" class="st9" d="M-844-2423.2l-3.3-3.3l0.6-0.6l2.7,2.7l3.9-5.1l0.6,0.5L-844-2423.2z"/>
			</g>
			<g id="Grupo_55481" transform="translate(65.784 63.41)">
				<path id="Trazado_102960" class="st9" d="M-848-2417.3v-12.9h12.9v12.9H-848z M-836.9-2419.2v-9.3h-9.3v9.3H-836.9z"/>
				<path id="Trazado_102961" class="st9" d="M-835.6-2417.8h-11.9v-11.9h11.9V-2417.8z M-846.7-2418.6h10.3v-10.3h-10.3
					L-846.7-2418.6z"/>
			</g>
			<g id="Grupo_55482" transform="translate(67.622 65.842)">
				<path id="Trazado_102962" class="st9" d="M-848-2426.5l1.3-1.3l2.6,2.6l3.9-5.1l1.4,1.1l-5.2,6.7L-848-2426.5z"/>
				<path id="Trazado_102963" class="st9" d="M-844-2423.2l-3.3-3.3l0.6-0.6l2.7,2.7l3.9-5.1l0.6,0.5L-844-2423.2z"/>
			</g>
			<g id="Grupo_55483" transform="translate(66.26 82.135)">
				<path id="Trazado_102964" class="st9" d="M-848-2417.3v-12.9h12.9v12.9H-848z M-836.9-2419.2v-9.3h-9.3v9.3H-836.9z"/>
				<path id="Trazado_102965" class="st9" d="M-835.6-2417.8h-11.9v-11.9h11.9V-2417.8z M-846.7-2418.6h10.3v-10.3h-10.3
					L-846.7-2418.6z"/>
			</g>
			<g id="Grupo_55484" transform="translate(68.099 84.568)">
				<path id="Trazado_102966" class="st9" d="M-848-2426.5l1.3-1.3l2.6,2.6l3.9-5l1.4,1.1l-5.2,6.7L-848-2426.5z"/>
				<path id="Trazado_102967" class="st9" d="M-847.6-2407.1l1.3-1.3l2.6,2.6l3.9-5l1.4,1.1l-5.2,6.7L-847.6-2407.1z"/>
				<path id="Trazado_102968" class="st9" d="M-844-2423.2l-3.3-3.3l0.6-0.6l2.7,2.7l3.9-5.1l0.6,0.5L-844-2423.2z"/>
			</g>
			<g id="Grupo_55485" transform="translate(66.659 101.321)">
				<path id="Trazado_102969" class="st9" d="M-848-2417.3v-12.9h12.9v12.9H-848z M-836.9-2419.2v-9.3h-9.3v9.3H-836.9z"/>
				<path id="Trazado_102970" class="st9" d="M-835.6-2417.8h-11.9v-11.9h11.9V-2417.8z M-846.7-2418.6h10.3v-10.3h-10.3V-2418.6z"
					/>
			</g>
			<path id="Trazado_102971" class="st12" d="M-766.2-2410.9v5.4l-61.2-0.7l-1.1-0.4l1.1-4.3c0-4.1,3.3-7.4,7.4-7.4l45.3-1.1
				C-770.6-2419.4-766.2-2415-766.2-2410.9L-766.2-2410.9z"/>
			<path id="Trazado_102972" class="st2" d="M-774.6-2419.4c-14.4,0-15-4-15.2-4.7c-1.2-4.4-5.8-7-10.2-5.7
				c-2.8,0.8-4.9,2.9-5.7,5.7c-0.2,0.7-1.4,4.8-15.2,4.8l0,0c-4.1,0-7.4,3.3-7.4,7.4l0,0v5.4h61.2v-5.4
				C-767.3-2416.1-770.6-2419.4-774.6-2419.4z M-797.9-2428.2c1.8,0,3.2,1.5,3.2,3.2c0,1.8-1.5,3.2-3.2,3.2c-1.8,0-3.2-1.5-3.2-3.2
				l0,0C-801.1-2426.8-799.7-2428.2-797.9-2428.2L-797.9-2428.2z"/>
			<path id="Trazado_102973" class="st2" d="M-774.6-2419.4c-14.4,0-15-4-15.2-4.7c-1-3.4-4-5.9-7.6-6c0,0.1,0-0.2,0.1,0
				c2.7,0.3,4.9,2.2,5.7,4.7c1,2.4,1.7,4.9,5.6,5.9c4.1,1,8.4,1.8,12.6,2.2c1.8,0.2,3.1,1.7,3.1,3.5c0,5.6,0.9,7.2-2.6,7.2h5.7v-5.4
				C-767.3-2416.1-770.6-2419.4-774.6-2419.4C-774.6-2419.4-774.6-2419.4-774.6-2419.4z"/>
			<path id="Trazado_102974" class="st13" d="M-828.5-2409.6v3h61.2v-3H-828.5z"/>
			<g id="Grupo_55486" transform="translate(46.893 2.017)">
				<path id="Trazado_102975" class="st14" d="M-844.8-2423.7c1.8,0,3.2-1.5,3.2-3.2c0-1.8-1.5-3.2-3.2-3.2c-1.8,0-3.2,1.5-3.2,3.2
					l0,0C-848-2425.2-846.5-2423.7-844.8-2423.7z"/>
			</g>
			<g id="Grupo_55487" transform="translate(46.996 5.699)">
				<path id="Trazado_102976" class="st14" d="M-845.6-2429.9c-0.7,0.5-1.7,0.5-2.4,0.1c0.4,1.7,2.2,2.8,3.9,2.3
					c0.2-0.1,0.5-0.1,0.7-0.3c-0.2-0.4-0.5-0.8-0.7-1.2c-0.2-0.4-0.5-0.7-0.9-1c-0.2-0.1-0.1-0.2-0.1-0.2
					C-845.3-2430.1-845.4-2430-845.6-2429.9z"/>
			</g>
			<path id="Trazado_102977" class="st13" d="M-807.5-2421.3c-5.8,3.1-14.8,2.7-14.8,2.7c0.8,0,10.4,0.9,15.4-1.5
				c4.1-1.9,4-5.6,2.8-5.6C-804.9-2425.7-804.7-2422.9-807.5-2421.3z"/>
			<path id="Trazado_102978" class="st9" d="M-808.7-2384.4c0,0.8-0.7,1.4-1.5,1.4h-19.6c-0.8,0-1.5-0.6-1.5-1.4l0,0
				c0-0.8,0.7-1.4,1.5-1.4h19.6C-809.4-2385.8-808.7-2385.2-808.7-2384.4L-808.7-2384.4z"/>
			<path id="Trazado_102979" class="st10" d="M-791.2-2380.4c0,0.5-0.5,1-1,0.9h-38c-0.5,0-1-0.4-1-0.9l0,0c0-0.5,0.5-1,1-0.9h38
				C-791.7-2381.4-791.3-2381-791.2-2380.4z"/>
			<path id="Trazado_102980" class="st10" d="M-791.2-2377.1c0,0.5-0.5,1-1,0.9h-38c-0.5,0-1-0.4-1-0.9l0,0c0-0.5,0.5-1,1-0.9h38
				C-791.7-2378.1-791.3-2377.7-791.2-2377.1z"/>
			<path id="Trazado_102981" class="st10" d="M-817.1-2373.9c0,0.5-0.5,1-1,0.9h-12.1c-0.5,0-1-0.4-1-0.9l0,0c0-0.5,0.5-1,1-0.9
				h12.1C-817.6-2374.8-817.1-2374.4-817.1-2373.9L-817.1-2373.9z"/>
		</g>
		<path id="Trazado_103130" class="st2" d="M-705.3-2107.3c-2.2,2.7-5.9,4.5-7.8,2.1c-1.8-2.3-0.4-7.2,1.9-9.7
			c3.3-3.5,8-5.2,12.8-4.6C-701.1-2116.2-703.2-2109.9-705.3-2107.3z"/>
		<path id="Trazado_103131" class="st2" d="M-713.1-2105.1c-1.8-2.3-0.4-7.2,1.9-9.7c3.3-3.5,8-5.2,12.8-4.6
			C-709.6-2114.1-713.1-2105.1-713.1-2105.1z"/>
		<g id="Grupo_55537" transform="translate(139.562 330.268)">
			<g id="Grupo_55536" transform="translate(0)">
				<path id="Trazado_103132" class="st2" d="M-848-2418.8l0.3-0.6c0.1-0.2,0.2-0.4,0.4-0.7c0.2-0.3,0.4-0.6,0.6-0.9l0.4-0.5
					c0.1-0.2,0.3-0.3,0.4-0.5c0.3-0.4,0.6-0.7,0.9-1.1c0.7-0.7,1.4-1.5,2.2-2.3c1.4-1.3,2.8-2.4,4.3-3.5l1.8-1.3
					c0,0-0.7,0.4-1.9,1.2c-1.5,1-3,2.2-4.4,3.4c-0.8,0.7-1.5,1.5-2.2,2.3c-0.3,0.4-0.6,0.8-0.9,1.1c-0.1,0.2-0.3,0.4-0.4,0.5
					l-0.3,0.5c-0.2,0.3-0.4,0.6-0.6,0.9s-0.3,0.5-0.4,0.7L-848-2418.8z"/>
			</g>
		</g>
		<path id="Trazado_103133" class="st2" d="M-708.2-2106.8c-1.8,7.6-6.1,14.5-9.5,10.3c-3.2-4-3.4-16.4-1.3-23.8
			c4.8-17.3,15.1-19.5,15.1-19.5C-706.2-2130.4-706.4-2114.5-708.2-2106.8z"/>
		<path id="Trazado_103134" class="st2" d="M-725.6-2099.8c2.1,2.1,5.7,2.9,7.4-0.1c1.6-2.8,0.2-7.5-2-9.4c-5.2-4.4-12.1-1-12.1-1
			C-729.8-2107.7-727.8-2101.9-725.6-2099.8z"/>
		<path id="Trazado_103135" class="st2" d="M-718.2-2099.9c1.6-2.8,0.2-7.5-2-9.4c-5.2-4.4-12.1-1-12.1-1
			C-721.8-2108-718.2-2099.9-718.2-2099.9z"/>
		<g id="Grupo_55539" transform="translate(118.032 320.524)">
			<g id="Grupo_55538" transform="translate(0)">
				<path id="Trazado_103136" class="st2" d="M-837-2421.9l-0.3-0.5c-0.1-0.2-0.2-0.4-0.4-0.6c-0.2-0.2-0.3-0.5-0.6-0.7l-0.3-0.4
					c-0.1-0.1-0.3-0.3-0.4-0.4c-0.3-0.3-0.6-0.6-0.9-0.9c-0.7-0.6-1.4-1.2-2.1-1.7c-1.3-0.9-2.7-1.7-4.2-2.3l-1.8-0.8
					c0,0,0.7,0.2,1.8,0.7c1.5,0.6,2.9,1.4,4.2,2.2c0.8,0.5,1.5,1.1,2.2,1.7c0.3,0.3,0.6,0.6,0.9,0.9c0.1,0.2,0.3,0.3,0.4,0.4
					l0.3,0.4c0.2,0.3,0.4,0.5,0.6,0.8s0.3,0.4,0.4,0.6L-837-2421.9z"/>
			</g>
		</g>
		<path id="Trazado_103137" class="st2" d="M-717.7-2096.5c-3.2-4-3.4-16.4-1.3-23.8c4.8-17.3,15.1-19.5,15.1-19.5
			C-716.6-2119.6-717.7-2096.5-717.7-2096.5z"/>
		<path id="Trazado_103138" class="st2" d="M-717.7-2096.5c-3.2-4-3.4-16.4-1.3-23.8c4.8-17.3,15.1-19.5,15.1-19.5
			C-716.6-2119.6-717.7-2096.5-717.7-2096.5z"/>
		<g id="Grupo_55541" transform="translate(130.559 295.188)">
			<g id="Grupo_55540" transform="translate(0)">
				<path id="Trazado_103139" class="st2" d="M-848-2396c0,0,0.1-0.6,0.2-1.6c0.1-0.5,0.2-1.2,0.3-1.9c0.1-0.7,0.2-1.6,0.4-2.4
					c0.1-0.4,0.2-0.9,0.3-1.4c0.1-0.5,0.2-1,0.3-1.5c0.2-1,0.5-2.1,0.8-3.2c0.6-2.2,1.3-4.5,2.1-6.8c1.6-4.6,3.2-8.4,4.4-11.1
					c1.2-2.7,1.9-4.3,1.9-4.3s-0.8,1.5-2,4.1c-1.7,3.6-3.2,7.2-4.5,11c-0.8,2.3-1.5,4.7-2,6.9c-0.3,1.1-0.5,2.2-0.7,3.3
					c-0.1,0.5-0.2,1-0.3,1.5s-0.2,1-0.3,1.4c-0.2,0.9-0.3,1.8-0.4,2.5c-0.1,0.7-0.2,1.4-0.2,1.9L-848-2396z"/>
			</g>
		</g>
		<path id="Trazado_103140" class="st15" d="M-703.9-2091.5c-0.1-3.3-0.3-6-4.8-6.8c-1.7-0.2-3.3,0.1-4.8,0.9
			c-4-3.5-6.6-6.1-10.9-6.1c-5,0-6.9,4.3-6.9,9.3c0,0.9,0.1,1.8,0.4,2.7H-703.9z"/>
	</g>
</g>
</svg>
