<svg xmlns="http://www.w3.org/2000/svg" width="166.564" height="567.333" viewBox="0 0 166.564 567.333">
  <g id="Grupo_55826" data-name="Grupo 55826" transform="translate(158.263 -112.381)">
    <g id="Grupo_55798" data-name="Grupo 55798" transform="translate(-158.254 514.83)">
      <path id="Trazado_103908" data-name="Trazado 103908" d="M6.607,410.717a82.83,82.83,0,0,1-2.172,18.868,82.46,82.46,0,0,1-80.262,63.581c-2.418,0-4.8-.1-7.171-.311a82.44,82.44,0,0,1-75.261-82.137,82.433,82.433,0,0,1,82.432-82.435A82.434,82.434,0,0,1,6.607,410.717Z" transform="translate(158.258 -328.282)" fill="#badb4c"/>
      <path id="Trazado_103909" data-name="Trazado 103909" d="M-4.488,409.394A82.46,82.46,0,0,1-84.75,472.974c-2.418,0-4.8-.1-7.171-.311a4.107,4.107,0,0,1-.725-.889c-.557-.328-53.021-52.8-53.366-53.381a3.731,3.731,0,0,1-1.448-1.482,3.836,3.836,0,0,1,.149-3.931l38.692-59.566a3.806,3.806,0,0,1,3.225-1.763,3.827,3.827,0,0,1,3.223,1.763s22.408,22.32,22.588,22.486L-64,361.9a3.834,3.834,0,0,1,5.264.295l29.495,29.562a3.186,3.186,0,0,1,.248.214h5.592a3.707,3.707,0,0,1,3.21,1.877C-19.622,394.177-4.685,409.2-4.488,409.394Z" transform="translate(167.182 -308.09)" fill="#95af3d" opacity="0.5" style="mix-blend-mode: multiply;isolation: isolate"/>
      <g id="Grupo_55797" data-name="Grupo 55797" transform="translate(19.251 43.568)">
        <g id="Grupo_55792" data-name="Grupo 55792" transform="translate(98.294 40.306)">
          <path id="Rectángulo_5939" data-name="Rectángulo 5939" d="M1.066,0H25.407a1.064,1.064,0,0,1,1.064,1.064V22.407a1.064,1.064,0,0,1-1.064,1.064H1.064A1.064,1.064,0,0,1,0,22.407V1.066A1.066,1.066,0,0,1,1.066,0Z" transform="translate(1.74 1.742)" fill="#d7b800"/>
          <path id="Trazado_103910" data-name="Trazado 103910" d="M-68.974,400.236h-22.5A3.729,3.729,0,0,1-95.2,396.51V377a3.728,3.728,0,0,1,3.724-3.726h22.5A3.729,3.729,0,0,1-65.248,377V396.51A3.73,3.73,0,0,1-68.974,400.236Zm-22.5-23.474a.241.241,0,0,0-.24.242V396.51a.241.241,0,0,0,.24.24h22.5a.244.244,0,0,0,.242-.24V377a.244.244,0,0,0-.242-.242Z" transform="translate(95.199 -373.278)" fill="#f15c00"/>
        </g>
        <path id="Trazado_103911" data-name="Trazado 103911" d="M-76.806,383.915a7.344,7.344,0,0,1-7.344,7.341,7.342,7.342,0,0,1-7.342-7.341,7.343,7.343,0,0,1,7.342-7.346A7.345,7.345,0,0,1-76.806,383.915Z" transform="translate(196.695 -330.128)" fill="#fff"/>
        <g id="Grupo_55793" data-name="Grupo 55793" transform="translate(106.74 48.061)">
          <path id="Trazado_103912" data-name="Trazado 103912" d="M-87.294,381.494a.194.194,0,0,0,.255.082,2.01,2.01,0,0,1,1.819.086.218.218,0,0,0,.1.03.372.372,0,0,0,.05-.006.224.224,0,0,0,.123-.093l1.778-3.078a.2.2,0,0,0-.071-.272,5.9,5.9,0,0,0-5.764-.1.2.2,0,0,0-.1.121.2.2,0,0,0,.019.155Z" transform="translate(92.019 -377.438)" fill="#493618"/>
          <path id="Trazado_103913" data-name="Trazado 103913" d="M-85.853,382.452a2,2,0,0,1-1-1.745.2.2,0,0,0-.2-.2H-90.47a.2.2,0,0,0-.142.056.218.218,0,0,0-.056.145,5.847,5.847,0,0,0,2.975,4.938.2.2,0,0,0,.1.026.2.2,0,0,0,.175-.1l1.644-2.85a.2.2,0,0,0,.021-.151A.2.2,0,0,0-85.853,382.452Z" transform="translate(90.668 -374.784)" fill="#493618"/>
          <path id="Trazado_103914" data-name="Trazado 103914" d="M-82.3,380.566a.187.187,0,0,0-.142-.056h-3.419a.215.215,0,0,0-.2.22,1.993,1.993,0,0,1-.839,1.62.2.2,0,0,0-.056.261l1.646,2.856a.206.206,0,0,0,.123.093.114.114,0,0,0,.048.007.187.187,0,0,0,.106-.03,5.781,5.781,0,0,0,2.781-4.826A.192.192,0,0,0-82.3,380.566Z" transform="translate(93.855 -374.784)" fill="#493618"/>
          <path id="Trazado_103915" data-name="Trazado 103915" d="M-86.881,379.834a1.451,1.451,0,0,0-1.452,1.452,1.451,1.451,0,0,0,1.452,1.456,1.453,1.453,0,0,0,1.454-1.454A1.455,1.455,0,0,0-86.881,379.834Z" transform="translate(92.686 -375.368)" fill="#493618"/>
        </g>
        <path id="Trazado_103916" data-name="Trazado 103916" d="M-64.454,382.938a19.183,19.183,0,0,0-19.133-16.8,19.412,19.412,0,0,0-17.69,11.622,13.959,13.959,0,0,0-4.008-.593,14.09,14.09,0,0,0-14.074,14.075,13.766,13.766,0,0,0,.425,3.392,5.884,5.884,0,0,0-6.343,5.875,5.9,5.9,0,0,0,5.9,5.9c2.213,0,17.712-.084,31.323-.155,10.655-.058,20.152-.108,21.213-.108,6.125,0,12.607-6.332,12.607-12.319A10.939,10.939,0,0,0-64.454,382.938Z" transform="translate(167.505 -339.142)" fill="#6d5c42"/>
        <path id="Trazado_103917" data-name="Trazado 103917" d="M-108.079,357.532l-36.76,56.309h74.676Z" transform="translate(150.602 -346.577)" fill="#fddd3d"/>
        <path id="Trazado_103918" data-name="Trazado 103918" d="M-63.667,412.7l-38.506-59.293a3.827,3.827,0,0,0-3.223-1.752,3.828,3.828,0,0,0-3.227,1.752l-38.686,59.571a3.845,3.845,0,0,0-.157,3.929,3.851,3.851,0,0,0,3.381,2.011h77.4a3.85,3.85,0,0,0,3.844-3.846A3.737,3.737,0,0,0-63.667,412.7Zm-10.125-1.474H-137L-105.4,362.56Z" transform="translate(147.931 -351.655)" fill="#f15c00"/>
        <g id="Grupo_55794" data-name="Grupo 55794" transform="translate(65.957 9.336)">
          <path id="Trazado_103919" data-name="Trazado 103919" d="M-78.378,372.742a1.989,1.989,0,0,1-.149,2.8l-16.739,15.037a1.981,1.981,0,0,1-2.8-.149L-111.1,375.924a1.986,1.986,0,0,1,.149-2.8l16.741-15.037a1.979,1.979,0,0,1,2.8.149Z" transform="translate(113.354 -355.875)" fill="#d7b800"/>
          <path id="Trazado_103920" data-name="Trazado 103920" d="M-95.784,393.621a3.734,3.734,0,0,1-2.774-1.236l-13.037-14.508a3.731,3.731,0,0,1,.281-5.26l16.743-15.041a3.828,3.828,0,0,1,5.258.281l13.035,14.506a3.733,3.733,0,0,1-.278,5.262l-16.739,15.039A3.717,3.717,0,0,1-95.784,393.621Zm3.7-33.514-16.9,15.1a.249.249,0,0,0-.019.343l13.039,14.506a.217.217,0,0,0,.343.019l16.737-15.039a.243.243,0,0,0,.015-.341L-91.9,360.188A.226.226,0,0,0-92.084,360.108Z" transform="translate(112.547 -356.663)" fill="#f15c00"/>
        </g>
        <path id="Trazado_103921" data-name="Trazado 103921" d="M-104.956,380.459a13.885,13.885,0,0,1-13.885,13.883,13.88,13.88,0,0,1-13.882-13.883,13.879,13.879,0,0,1,13.882-13.882A13.883,13.883,0,0,1-104.956,380.459Z" transform="translate(161.071 -338.762)" fill="#fff"/>
        <g id="Grupo_55795" data-name="Grupo 55795" transform="translate(31.255 30.877)">
          <path id="Trazado_103922" data-name="Trazado 103922" d="M-124.79,375.889a.381.381,0,0,0,.488.155,3.783,3.783,0,0,1,3.437.164.394.394,0,0,0,.192.05.344.344,0,0,0,.1-.013.38.38,0,0,0,.229-.171l3.361-5.818a.375.375,0,0,0-.134-.513,11.136,11.136,0,0,0-10.89-.2.381.381,0,0,0-.183.229.37.37,0,0,0,.037.291Z" transform="translate(133.717 -368.219)" fill="#493618"/>
          <path id="Trazado_103923" data-name="Trazado 103923" d="M-122.059,377.7a3.773,3.773,0,0,1-1.885-3.3.377.377,0,0,0-.377-.377h-6.465a.388.388,0,0,0-.274.114.386.386,0,0,0-.1.272,11.045,11.045,0,0,0,5.62,9.335.4.4,0,0,0,.186.048.381.381,0,0,0,.328-.19l3.105-5.389a.353.353,0,0,0,.039-.287A.371.371,0,0,0-122.059,377.7Z" transform="translate(131.163 -363.204)" fill="#493618"/>
          <path id="Trazado_103924" data-name="Trazado 103924" d="M-115.349,374.138a.372.372,0,0,0-.268-.114h-6.459a.418.418,0,0,0-.378.423,3.754,3.754,0,0,1-1.581,3.057.376.376,0,0,0-.1.5l3.109,5.4a.381.381,0,0,0,.235.177.383.383,0,0,0,.093.009.357.357,0,0,0,.2-.054,10.938,10.938,0,0,0,5.264-9.123A.374.374,0,0,0-115.349,374.138Z" transform="translate(137.188 -363.204)" fill="#493618"/>
          <path id="Trazado_103925" data-name="Trazado 103925" d="M-124,372.748a2.751,2.751,0,0,0-2.749,2.751A2.749,2.749,0,0,0-124,378.247a2.749,2.749,0,0,0,2.749-2.748A2.751,2.751,0,0,0-124,372.748Z" transform="translate(134.975 -364.307)" fill="#493618"/>
        </g>
        <path id="Trazado_103926" data-name="Trazado 103926" d="M-94.058,375.164a7.345,7.345,0,0,1-10.388,0,7.344,7.344,0,0,1,0-10.385,7.348,7.348,0,0,1,10.386,0A7.349,7.349,0,0,1-94.058,375.164Z" transform="translate(183.645 -342.176)" fill="#fff"/>
        <g id="Grupo_55796" data-name="Grupo 55796" transform="translate(78.54 22.264)">
          <path id="Trazado_103927" data-name="Trazado 103927" d="M-102.431,367.186a.2.2,0,0,0,.125.239,2.018,2.018,0,0,1,1.225,1.348.252.252,0,0,0,.05.093.341.341,0,0,0,.043.028.179.179,0,0,0,.151.021l3.432-.917a.2.2,0,0,0,.142-.24,5.892,5.892,0,0,0-4-4.149.209.209,0,0,0-.153.017.2.2,0,0,0-.1.123Z" transform="translate(108.699 -363.599)" fill="#493618"/>
          <path id="Trazado_103928" data-name="Trazado 103928" d="M-102.017,369.1a2,2,0,0,1,.528-1.937.2.2,0,0,0,0-.283l-2.418-2.42a.2.2,0,0,0-.142-.056.217.217,0,0,0-.144.06,5.846,5.846,0,0,0-1.389,5.6.234.234,0,0,0,.052.088.2.2,0,0,0,.194.05l3.176-.854a.2.2,0,0,0,.123-.091A.209.209,0,0,0-102.017,369.1Z" transform="translate(105.797 -362.9)" fill="#493618"/>
          <path id="Trazado_103929" data-name="Trazado 103929" d="M-97.9,369.978a.2.2,0,0,0-.06-.142l-2.414-2.418a.224.224,0,0,0-.3.017,1.993,1.993,0,0,1-1.735.555.192.192,0,0,0-.224.144l-.856,3.184a.189.189,0,0,0,.021.153.133.133,0,0,0,.028.041.206.206,0,0,0,.1.052,5.8,5.8,0,0,0,5.382-1.441A.218.218,0,0,0-97.9,369.978Z" transform="translate(107.781 -360.342)" fill="#493618"/>
          <path id="Trazado_103930" data-name="Trazado 103930" d="M-101.029,366.285a1.452,1.452,0,0,0-2.054,0,1.452,1.452,0,0,0,0,2.054,1.453,1.453,0,0,0,2.056,0A1.452,1.452,0,0,0-101.029,366.285Z" transform="translate(107.772 -361.645)" fill="#493618"/>
        </g>
      </g>
    </g>
    <g id="Grupo_55802" data-name="Grupo 55802" transform="translate(-158.263 112.381)">
      <path id="Trazado_103931" data-name="Trazado 103931" d="M6.621,194.815a82.425,82.425,0,0,1-.641,10.347,82.458,82.458,0,0,1-81.791,72.1q-3.752,0-7.438-.343a82.441,82.441,0,0,1-75.015-82.106,82.45,82.45,0,0,1,82.452-82.434A82.433,82.433,0,0,1,6.621,194.815Z" transform="translate(158.263 -112.381)" fill="#badb4c"/>
      <path id="Trazado_103932" data-name="Trazado 103932" d="M-9.058,194.365a82.458,82.458,0,0,1-81.791,72.1q-3.752,0-7.438-.343c-.032-.1-42.573-42.163-42.573-43.018V186.04a1.745,1.745,0,0,1,1.743-1.743h15.464l4.013-22.965a1.719,1.719,0,0,1,1.711-1.446h13.44a9.744,9.744,0,0,1-1.364-1.366,9.046,9.046,0,0,1-1.381-1.381,9.76,9.76,0,0,1-1.366-1.366,10.275,10.275,0,0,1-1.365-1.366,10.724,10.724,0,0,1-1.366-1.363,9.947,9.947,0,0,1-1.364-1.366,9.656,9.656,0,0,1-3.553-7.486,9.66,9.66,0,0,1,9.656-9.656,7.049,7.049,0,0,1,7.04-7.04,6.938,6.938,0,0,1,4.44,1.629,9.657,9.657,0,0,1,8.012-4.246,9.69,9.69,0,0,1,7.486,3.538,9.856,9.856,0,0,1,1.364,1.381,8.228,8.228,0,0,1,1.366,1.365,9.871,9.871,0,0,1,1.381,1.366,10.722,10.722,0,0,1,1.364,1.364,10.66,10.66,0,0,1,1.368,1.368,10.724,10.724,0,0,1,1.365,1.364,9.974,9.974,0,0,1,1.366,1.381,8.3,8.3,0,0,1,1.364,1.366,9.857,9.857,0,0,1,1.381,1.364,10.75,10.75,0,0,1,1.366,1.366,10.723,10.723,0,0,1,1.364,1.364,9.972,9.972,0,0,1,1.366,1.381,9.746,9.746,0,0,1,1.364,1.366,9.008,9.008,0,0,1,1.366,1.364,9.985,9.985,0,0,1,1.383,1.366.069.069,0,0,0,.047.032,6.992,6.992,0,0,1,1.564-.181,7,7,0,0,1,5.594,2.813,6.324,6.324,0,0,1,1.364,1.366,6.819,6.819,0,0,1,1.366,1.364,7.313,7.313,0,0,1,1.381,1.364A7.225,7.225,0,0,1-46.4,157.09a6.711,6.711,0,0,1,1.366,1.363,6.779,6.779,0,0,1,1.364,1.368,6.366,6.366,0,0,1,1.366,1.364,7.311,7.311,0,0,1,1.381,1.365,7.768,7.768,0,0,1,1.366,1.366,7.321,7.321,0,0,1,1.366,1.381,6.348,6.348,0,0,1,1.363,1.364,6.324,6.324,0,0,1,1.364,1.366,6.63,6.63,0,0,1,1.366,1.364,7.117,7.117,0,0,1,1.381,1.368,7.087,7.087,0,0,1,1.364,1.379,6.592,6.592,0,0,1,1.366,1.366,5.9,5.9,0,0,1,1.366,1.366,6.667,6.667,0,0,1,1.366,1.363A7.276,7.276,0,0,1-25.87,177.6a7.685,7.685,0,0,1,1.364,1.364,7.266,7.266,0,0,1,1.366,1.381,6.323,6.323,0,0,1,1.364,1.366,6.723,6.723,0,0,1,1.366,1.364,7.258,7.258,0,0,1,1.381,1.364,7.636,7.636,0,0,1,1.364,1.366,7.708,7.708,0,0,1,1.368,1.365,7.323,7.323,0,0,1,1.364,1.383,6.723,6.723,0,0,1,1.366,1.364,7.267,7.267,0,0,1,1.381,1.366,7.75,7.75,0,0,1,1.364,1.364,7.7,7.7,0,0,1,1.366,1.364A3.859,3.859,0,0,1-9.058,194.365Z" transform="translate(173.301 -101.584)" fill="#95af3d" opacity="0.5" style="mix-blend-mode: multiply;isolation: isolate"/>
      <g id="Grupo_55801" data-name="Grupo 55801" transform="translate(32.445 23.288)">
        <path id="Trazado_103933" data-name="Trazado 103933" d="M-85.829,144.743a7.031,7.031,0,0,1-7.033,7.033,7.036,7.036,0,0,1-7.035-7.033,7.038,7.038,0,0,1,7.035-7.035A7.033,7.033,0,0,1-85.829,144.743Z" transform="translate(176.249 -113.785)" fill="#c6b07f"/>
        <path id="Trazado_103934" data-name="Trazado 103934" d="M-78.7,201.066l-8.951-61.135a1.739,1.739,0,0,0-1.721-1.489h-20.493a1.74,1.74,0,0,0-1.715,1.443l-10.731,61.472a1.734,1.734,0,0,0,.382,1.422,1.745,1.745,0,0,0,1.335.619h40.222a.177.177,0,0,0,.032,0,1.742,1.742,0,0,0,1.745-1.743A1.764,1.764,0,0,0-78.7,201.066Z" transform="translate(156.856 -113.151)" fill="#6d5c42"/>
        <path id="Trazado_103935" data-name="Trazado 103935" d="M-92.738,193.469a1.468,1.468,0,0,1-1.465,1.482h-16.97V140.187h9.358a1.463,1.463,0,0,1,1.445,1.256l7.546,51.537A1.166,1.166,0,0,1-92.738,193.469Z" transform="translate(166.506 -111.643)" fill="#896d3b"/>
        <path id="Rectángulo_5940" data-name="Rectángulo 5940" d="M.935,0H34.984a.934.934,0,0,1,.934.934v38.68a.935.935,0,0,1-.935.935H.935A.935.935,0,0,1,0,39.613V.935A.935.935,0,0,1,.935,0Z" transform="translate(45.249 59.428)" fill="#625038"/>
        <path id="Rectángulo_5941" data-name="Rectángulo 5941" d="M.935,0H34.984a.934.934,0,0,1,.934.934v38.68a.935.935,0,0,1-.935.935H.935A.935.935,0,0,1,0,39.613V.935A.935.935,0,0,1,.935,0Z" transform="translate(0 59.428)" fill="#625038"/>
        <path id="Trazado_103936" data-name="Trazado 103936" d="M-91.611,206.284l-8.953-61.135a1.74,1.74,0,0,0-1.724-1.488h-20.486a1.743,1.743,0,0,0-1.719,1.443l-10.731,61.472a1.731,1.731,0,0,0,.382,1.419,1.737,1.737,0,0,0,1.335.623h40.222a.2.2,0,0,0,.034,0,1.743,1.743,0,0,0,1.743-1.741A1.776,1.776,0,0,0-91.611,206.284Z" transform="translate(145.703 -108.641)" fill="#977a52"/>
        <path id="Trazado_103937" data-name="Trazado 103937" d="M-105.085,202.413a1.467,1.467,0,0,1-1.463,1.484H-123.52V149.133h9.357a1.463,1.463,0,0,1,1.445,1.255l7.546,51.541A1.154,1.154,0,0,1-105.085,202.413Z" transform="translate(155.838 -103.913)" fill="#a98c60"/>
        <path id="Rectángulo_5942" data-name="Rectángulo 5942" d="M.935,0H13.968A.934.934,0,0,1,14.9.934v50.8a.935.935,0,0,1-.935.935H.934A.934.934,0,0,1,0,51.73V.935A.935.935,0,0,1,.935,0Z" transform="translate(77.682 47.312)" fill="#6d5c42"/>
        <path id="Trazado_103938" data-name="Trazado 103938" d="M-89.888,156.335v41.139a1.472,1.472,0,0,1-1.463,1.463h-4.772V154.872h4.772A1.472,1.472,0,0,1-89.888,156.335Z" transform="translate(179.51 -98.954)" fill="#977a52"/>
        <path id="Trazado_103939" data-name="Trazado 103939" d="M-108.34,139.717A9.657,9.657,0,0,1-118,149.375a9.658,9.658,0,0,1-9.656-9.658A9.659,9.659,0,0,1-118,130.056,9.658,9.658,0,0,1-108.34,139.717Z" transform="translate(152.263 -120.397)" fill="#625038"/>
        <path id="Trazado_103940" data-name="Trazado 103940" d="M-87.539,146.561a5.21,5.21,0,0,1-5.21,5.21,5.21,5.21,0,0,1-5.21-5.21,5.21,5.21,0,0,1,5.21-5.208A5.21,5.21,0,0,1-87.539,146.561Z" transform="translate(177.924 -110.635)" fill="#625038"/>
        <path id="Trazado_103941" data-name="Trazado 103941" d="M-97.877,134.533a9.662,9.662,0,0,1-9.663,9.661,9.661,9.661,0,0,1-9.659-9.661,9.659,9.659,0,0,1,9.659-9.659A9.66,9.66,0,0,1-97.877,134.533Z" transform="translate(161.299 -124.874)" fill="#d6c494"/>
        <path id="Trazado_103942" data-name="Trazado 103942" d="M-108.409,133.316a7.033,7.033,0,0,1-7.031,7.035,7.037,7.037,0,0,1-7.037-7.035,7.036,7.036,0,0,1,7.037-7.033A7.031,7.031,0,0,1-108.409,133.316Z" transform="translate(156.739 -123.657)" fill="#c6b07f"/>
        <circle id="Elipse_4334" data-name="Elipse 4334" cx="4.826" cy="4.826" r="4.826" transform="translate(41.298 11.868)" fill="#493618"/>
        <path id="Trazado_103943" data-name="Trazado 103943" d="M-91.649,147.91a3.53,3.53,0,0,1-3.534,3.531,3.529,3.529,0,0,1-3.529-3.531,3.531,3.531,0,0,1,3.529-3.532A3.532,3.532,0,0,1-91.649,147.91Z" transform="translate(177.273 -108.022)" fill="#493618"/>
        <path id="Trazado_103944" data-name="Trazado 103944" d="M-99.167,134.882a4.826,4.826,0,0,1-4.826,4.826,4.824,4.824,0,0,1-4.824-4.826,4.824,4.824,0,0,1,4.824-4.826A4.826,4.826,0,0,1-99.167,134.882Z" transform="translate(168.542 -120.397)" fill="#bca27f"/>
        <path id="Trazado_103945" data-name="Trazado 103945" d="M-93.077,142.6a2.411,2.411,0,0,1-2.412,2.412A2.414,2.414,0,0,1-97.9,142.6a2.414,2.414,0,0,1,2.412-2.414A2.412,2.412,0,0,1-93.077,142.6Z" transform="translate(177.974 -111.643)" fill="#bca27f"/>
        <path id="Trazado_103946" data-name="Trazado 103946" d="M-103.2,169.706a13.886,13.886,0,0,1-13.885,13.883,13.887,13.887,0,0,1-13.885-13.883,13.886,13.886,0,0,1,13.885-13.882A13.884,13.884,0,0,1-103.2,169.706Z" transform="translate(149.403 -98.132)" fill="#f6c90c"/>
        <g id="Grupo_55799" data-name="Grupo 55799" transform="translate(21.346 60.754)">
          <path id="Trazado_103947" data-name="Trazado 103947" d="M-123.034,165.136a.379.379,0,0,0,.485.155,3.8,3.8,0,0,1,3.443.162.358.358,0,0,0,.19.054.418.418,0,0,0,.1-.013.381.381,0,0,0,.229-.175l3.363-5.816a.376.376,0,0,0-.134-.513,11.139,11.139,0,0,0-10.892-.2.378.378,0,0,0-.181.229.386.386,0,0,0,.037.291Z" transform="translate(131.961 -157.466)" fill="#493618"/>
          <path id="Trazado_103948" data-name="Trazado 103948" d="M-120.3,166.947a3.773,3.773,0,0,1-1.883-3.3.379.379,0,0,0-.38-.377h-6.461a.377.377,0,0,0-.272.114.385.385,0,0,0-.106.272,11.035,11.035,0,0,0,5.62,9.333.372.372,0,0,0,.185.05.381.381,0,0,0,.328-.188l3.111-5.391a.394.394,0,0,0,.035-.287A.381.381,0,0,0-120.3,166.947Z" transform="translate(129.406 -152.451)" fill="#493618"/>
          <path id="Trazado_103949" data-name="Trazado 103949" d="M-113.593,163.385a.366.366,0,0,0-.268-.114h-6.459a.42.42,0,0,0-.378.423,3.768,3.768,0,0,1-1.577,3.057.377.377,0,0,0-.108.494l3.115,5.4a.371.371,0,0,0,.233.179.375.375,0,0,0,.093.011.387.387,0,0,0,.2-.054,10.938,10.938,0,0,0,5.264-9.125A.38.38,0,0,0-113.593,163.385Z" transform="translate(135.431 -152.451)" fill="#493618"/>
          <path id="Trazado_103950" data-name="Trazado 103950" d="M-122.245,162a2.749,2.749,0,0,0-2.749,2.748,2.75,2.75,0,0,0,2.749,2.751,2.749,2.749,0,0,0,2.749-2.751A2.748,2.748,0,0,0-122.245,162Z" transform="translate(133.218 -153.553)" fill="#493618"/>
        </g>
        <path id="Trazado_103951" data-name="Trazado 103951" d="M-97.7,153.074a8.5,8.5,0,0,1-8.5,8.5,8.5,8.5,0,0,1-8.5-8.5,8.5,8.5,0,0,1,8.5-8.5A8.5,8.5,0,0,1-97.7,153.074Z" transform="translate(163.459 -107.854)" fill="#d7b800"/>
        <g id="Grupo_55800" data-name="Grupo 55800" transform="translate(50.539 38.595)">
          <path id="Trazado_103952" data-name="Trazado 103952" d="M-109.843,150.273a.234.234,0,0,0,.3.1,2.317,2.317,0,0,1,2.106.1.263.263,0,0,0,.117.032.209.209,0,0,0,.06-.009.223.223,0,0,0,.14-.1l2.06-3.562a.227.227,0,0,0-.084-.313,6.818,6.818,0,0,0-6.668-.123.226.226,0,0,0-.114.138.223.223,0,0,0,.026.179Z" transform="translate(115.309 -145.579)" fill="#493618"/>
          <path id="Trazado_103953" data-name="Trazado 103953" d="M-108.172,151.383a2.309,2.309,0,0,1-1.154-2.019.232.232,0,0,0-.231-.231h-3.957a.244.244,0,0,0-.168.069.245.245,0,0,0-.063.168,6.759,6.759,0,0,0,3.441,5.717.244.244,0,0,0,.114.028.226.226,0,0,0,.2-.114l1.905-3.3a.243.243,0,0,0,.022-.177A.232.232,0,0,0-108.172,151.383Z" transform="translate(113.745 -142.508)" fill="#493618"/>
          <path id="Trazado_103954" data-name="Trazado 103954" d="M-104.06,149.2a.237.237,0,0,0-.162-.069h-3.957a.255.255,0,0,0-.231.259,2.307,2.307,0,0,1-.967,1.871.231.231,0,0,0-.065.3l1.9,3.307a.234.234,0,0,0,.145.11.19.19,0,0,0,.056.006.228.228,0,0,0,.121-.034,6.705,6.705,0,0,0,3.225-5.587A.24.24,0,0,0-104.06,149.2Z" transform="translate(117.435 -142.508)" fill="#493618"/>
          <path id="Trazado_103955" data-name="Trazado 103955" d="M-109.361,148.351a1.685,1.685,0,0,0-1.683,1.685,1.685,1.685,0,0,0,1.683,1.685,1.686,1.686,0,0,0,1.685-1.685A1.686,1.686,0,0,0-109.361,148.351Z" transform="translate(116.079 -143.184)" fill="#493618"/>
        </g>
      </g>
    </g>
    <g id="Grupo_55825" data-name="Grupo 55825" transform="translate(-158.263 315.733)">
      <path id="Trazado_103956" data-name="Trazado 103956" d="M6.621,303.907A81.941,81.941,0,0,1,.27,335.657a82.5,82.5,0,0,1-67.48,50.255,82.815,82.815,0,0,1-8.619.444,82.447,82.447,0,0,1-82.434-82.449,82.444,82.444,0,0,1,82.434-82.434A82.448,82.448,0,0,1,6.621,303.907Z" transform="translate(159.943 -221.916)" fill="#badb4c"/>
      <path id="Trazado_103957" data-name="Trazado 103957" d="M-13.4,316.67a82.5,82.5,0,0,1-67.48,50.255c-.479-.36-58.352-58.233-58.747-58.76a7.023,7.023,0,0,1-2.811-5.594,7.054,7.054,0,0,1,7.041-7.057,6.952,6.952,0,0,1,2.42.46,18.482,18.482,0,0,1-1.152-6.414,18.455,18.455,0,0,1,3.8-11.222V255.5a4.54,4.54,0,0,1,4.522-4.522h1.219a4.392,4.392,0,0,1-.576-2.188v-.824a4.521,4.521,0,0,1,4.524-4.522h8.01a4.527,4.527,0,0,1,3.8,2.088c.544.345,11.96,11.762,12.3,12.3.117.084.214.149.313.231a25.5,25.5,0,0,1,11.039-2.5,25.756,25.756,0,0,1,18.8,8.125c.475.444.923.906,1.364,1.364C-64.53,265.507-13.715,316.34-13.4,316.67Z" transform="translate(171.935 -202.486)" fill="#95af3d" opacity="0.5" style="mix-blend-mode: multiply;isolation: isolate"/>
      <g id="Grupo_55824" data-name="Grupo 55824" transform="translate(29.495 40.956)">
        <path id="Rectángulo_5943" data-name="Rectángulo 5943" d="M2.426,0h12.21a2.427,2.427,0,0,1,2.427,2.427V7.456a2.427,2.427,0,0,1-2.427,2.427H2.428A2.428,2.428,0,0,1,0,7.455V2.426A2.426,2.426,0,0,1,2.426,0Z" transform="translate(17.267)" fill="#28323b"/>
        <path id="Trazado_103958" data-name="Trazado 103958" d="M-59.32,273.474c-.034,0-.073.008-.11.008a25.857,25.857,0,0,0-25.744-23.534,25.841,25.841,0,0,0-24.123,16.6,18.335,18.335,0,0,0-6.317-1.132,18.525,18.525,0,0,0-18.521,18.529,18.447,18.447,0,0,0,1.159,6.4,7.019,7.019,0,0,0-2.416-.449,7.05,7.05,0,0,0-7.048,7.05A7.049,7.049,0,0,0-135.392,304c5.538,0,70.314-.364,73.712-.364,7.784,0,16.46-8.28,16.46-16.066A14.1,14.1,0,0,0-59.32,273.474Z" transform="translate(142.44 -237.826)" fill="#847d77"/>
        <path id="Trazado_103959" data-name="Trazado 103959" d="M-90.135,293.113l-16.886-31.253a2.306,2.306,0,0,0-2.112-1.223,2.327,2.327,0,0,0-2.05,1.322l-14.07,29.243a2.343,2.343,0,0,0,.089,2.19,2.345,2.345,0,0,0,1.868,1.156l30.954,2.009c.05,0,.1.006.151.006a2.343,2.343,0,0,0,1.968-1.076A2.341,2.341,0,0,0-90.135,293.113Z" transform="translate(157.092 -228.594)" fill="#dbd5b3"/>
        <path id="Trazado_103960" data-name="Trazado 103960" d="M-86.147,266.827a2.349,2.349,0,0,0-2.36-1.1l-25.879,4.026a2.339,2.339,0,0,0-1.625,1.083,2.328,2.328,0,0,0-.24,1.937l6.891,21.716a2.343,2.343,0,0,0,1.849,1.6,2,2,0,0,0,.382.034,2.33,2.33,0,0,0,1.877-.951l18.982-25.744A2.338,2.338,0,0,0-86.147,266.827Z" transform="translate(164.973 -224.217)" fill="#efeaca"/>
        <path id="Rectángulo_5944" data-name="Rectángulo 5944" d="M2.426,0H24.942a2.427,2.427,0,0,1,2.427,2.427V56.083a2.427,2.427,0,0,1-2.427,2.427H2.427A2.427,2.427,0,0,1,0,56.083V2.426A2.426,2.426,0,0,1,2.426,0Z" transform="translate(12.113 7.545)" fill="#f15c00"/>
        <rect id="Rectángulo_5945" data-name="Rectángulo 5945" width="27.369" height="28.177" transform="translate(12.113 24.69)" fill="#f6c90c"/>
        <g id="Grupo_55812" data-name="Grupo 55812" transform="translate(20.089 26.617)">
          <g id="Grupo_55805" data-name="Grupo 55805" transform="translate(3.371)">
            <g id="Grupo_55803" data-name="Grupo 55803" transform="translate(1.168)">
              <path id="Trazado_103961" data-name="Trazado 103961" d="M-128.059,269.143a1.169,1.169,0,0,1-1.169-1.169v-9.082a1.169,1.169,0,0,1,1.169-1.169,1.165,1.165,0,0,1,1.167,1.169v9.082A1.165,1.165,0,0,1-128.059,269.143Z" transform="translate(129.228 -257.724)"/>
            </g>
            <g id="Grupo_55804" data-name="Grupo 55804" transform="translate(0 0)">
              <path id="Rectángulo_5946" data-name="Rectángulo 5946" d="M.627,0H4.048a.627.627,0,0,1,.627.627V10.792a.627.627,0,0,1-.627.627H.628A.628.628,0,0,1,0,10.791V.627A.627.627,0,0,1,.627,0Z"/>
            </g>
          </g>
          <g id="Grupo_55808" data-name="Grupo 55808" transform="translate(0 3.374)">
            <g id="Grupo_55806" data-name="Grupo 55806" transform="translate(0 1.169)">
              <path id="Trazado_103962" data-name="Trazado 103962" d="M-121.415,262.5H-130.5a1.168,1.168,0,0,1-1.167-1.169,1.165,1.165,0,0,1,1.167-1.169h9.082a1.169,1.169,0,0,1,1.171,1.169A1.171,1.171,0,0,1-121.415,262.5Z" transform="translate(131.663 -260.161)"/>
            </g>
            <g id="Grupo_55807" data-name="Grupo 55807">
              <path id="Trazado_103963" data-name="Trazado 103963" d="M-121.415,264.207H-130.5a1.165,1.165,0,0,1-1.167-1.167V260.7a1.165,1.165,0,0,1,1.167-1.169h9.082a1.169,1.169,0,0,1,1.171,1.169v2.338A1.168,1.168,0,0,1-121.415,264.207Zm-7.913-2.336h0Z" transform="translate(131.663 -259.534)"/>
            </g>
          </g>
          <g id="Grupo_55811" data-name="Grupo 55811" transform="translate(0 16.857)">
            <g id="Grupo_55809" data-name="Grupo 55809" transform="translate(0 1.169)">
              <path id="Trazado_103964" data-name="Trazado 103964" d="M-121.415,269.732H-130.5a1.165,1.165,0,0,1-1.167-1.169,1.167,1.167,0,0,1,1.167-1.169h9.082a1.17,1.17,0,0,1,1.171,1.169A1.169,1.169,0,0,1-121.415,269.732Z" transform="translate(131.663 -267.394)"/>
            </g>
            <g id="Grupo_55810" data-name="Grupo 55810">
              <path id="Trazado_103965" data-name="Trazado 103965" d="M-121.415,271.442H-130.5a1.165,1.165,0,0,1-1.167-1.169v-2.338a1.167,1.167,0,0,1,1.167-1.169h9.082a1.17,1.17,0,0,1,1.171,1.169v2.338A1.169,1.169,0,0,1-121.415,271.442Zm-7.913-2.338h0Z" transform="translate(131.663 -266.767)"/>
            </g>
          </g>
        </g>
        <g id="Grupo_55823" data-name="Grupo 55823" transform="translate(43.196 47.007)">
          <path id="Rectángulo_5947" data-name="Rectángulo 5947" d="M2.427,0H7.459A2.428,2.428,0,0,1,9.886,2.428V14.635A2.427,2.427,0,0,1,7.46,17.062H2.425A2.425,2.425,0,0,1,0,14.637V2.427A2.427,2.427,0,0,1,2.427,0Z" transform="translate(56.173 5.152)" fill="#28323b"/>
          <path id="Rectángulo_5948" data-name="Rectángulo 5948" d="M2.423,0H56.082a2.426,2.426,0,0,1,2.426,2.426V24.941a2.427,2.427,0,0,1-2.427,2.427H2.427A2.427,2.427,0,0,1,0,24.941V2.423A2.423,2.423,0,0,1,2.423,0Z" fill="#81bd1f"/>
          <rect id="Rectángulo_5949" data-name="Rectángulo 5949" width="28.177" height="27.367" transform="translate(13.187)" fill="#abc57e"/>
          <g id="Grupo_55822" data-name="Grupo 55822" transform="translate(17.907 7.973)">
            <g id="Grupo_55815" data-name="Grupo 55815" transform="translate(10.11 3.371)">
              <g id="Grupo_55813" data-name="Grupo 55813" transform="translate(0.001 1.17)">
                <path id="Trazado_103966" data-name="Trazado 103966" d="M-104.236,276.545a1.169,1.169,0,0,1,1.169-1.169h9.084a1.168,1.168,0,0,1,1.167,1.169,1.166,1.166,0,0,1-1.167,1.167h-9.084A1.168,1.168,0,0,1-104.236,276.545Z" transform="translate(104.236 -275.376)"/>
              </g>
              <g id="Grupo_55814" data-name="Grupo 55814">
                <path id="Rectángulo_5950" data-name="Rectángulo 5950" d="M.628,0H10.791a.628.628,0,0,1,.628.628V4.049a.626.626,0,0,1-.626.626H.627A.627.627,0,0,1,0,4.048V.628A.628.628,0,0,1,.628,0Z"/>
              </g>
            </g>
            <g id="Grupo_55818" data-name="Grupo 55818" transform="translate(13.483)">
              <g id="Grupo_55816" data-name="Grupo 55816" transform="translate(1.171)">
                <path id="Trazado_103967" data-name="Trazado 103967" d="M-101.8,283.19v-9.082a1.166,1.166,0,0,1,1.169-1.169,1.168,1.168,0,0,1,1.167,1.169v9.082a1.168,1.168,0,0,1-1.167,1.169A1.166,1.166,0,0,1-101.8,283.19Z" transform="translate(101.799 -272.94)"/>
              </g>
              <g id="Grupo_55817" data-name="Grupo 55817">
                <path id="Trazado_103968" data-name="Trazado 103968" d="M-102.427,283.19v-9.082a1.169,1.169,0,0,1,1.171-1.169h2.336a1.169,1.169,0,0,1,1.171,1.169v9.082a1.169,1.169,0,0,1-1.171,1.169h-2.336A1.169,1.169,0,0,1-102.427,283.19Zm2.339-7.913v0Z" transform="translate(102.427 -272.94)"/>
              </g>
            </g>
            <g id="Grupo_55821" data-name="Grupo 55821">
              <g id="Grupo_55819" data-name="Grupo 55819" transform="translate(1.169)">
                <path id="Trazado_103969" data-name="Trazado 103969" d="M-109.033,283.19v-9.082a1.169,1.169,0,0,1,1.171-1.169,1.166,1.166,0,0,1,1.165,1.169v9.082a1.166,1.166,0,0,1-1.165,1.169A1.169,1.169,0,0,1-109.033,283.19Z" transform="translate(109.033 -272.94)"/>
              </g>
              <g id="Grupo_55820" data-name="Grupo 55820">
                <path id="Trazado_103970" data-name="Trazado 103970" d="M-109.66,283.19v-9.082a1.167,1.167,0,0,1,1.169-1.169h2.336a1.17,1.17,0,0,1,1.171,1.169v9.082a1.17,1.17,0,0,1-1.171,1.169h-2.336A1.167,1.167,0,0,1-109.66,283.19Zm2.339-7.913v0Z" transform="translate(109.66 -272.94)"/>
              </g>
            </g>
          </g>
        </g>
      </g>
    </g>
  </g>
</svg>
