<?xml version="1.0" encoding="utf-8"?>
<!-- Generator: Adobe Illustrator 25.2.3, SVG Export Plug-In . SVG Version: 6.00 Build 0)  -->
<svg version="1.1" id="Capa_1" xmlns="http://www.w3.org/2000/svg" xmlns:xlink="http://www.w3.org/1999/xlink" x="0px" y="0px"
	 viewBox="0 0 1048 336" style="enable-background:new 0 0 1048 336;" xml:space="preserve">
<style type="text/css">
	.st0{enable-background:new    ;}
	.st1{fill:#12263F;}
	.st2{opacity:0.5;fill:#BADB4C;enable-background:new    ;}
	.st3{opacity:0.5;fill:#F7A416;enable-background:new    ;}
	.st4{opacity:0.5;fill:#6393DB;enable-background:new    ;}
	.st5{opacity:0.2;fill:#B6C63B;enable-background:new    ;}
	.st6{fill:#212513;}
	.st7{fill:#B2B925;}
	.st8{fill:#FFFFFF;}
	.st9{fill:#1A1C12;}
	.st10{fill:#D0D0D1;}
	.st11{fill:#8BA710;}
	.st12{fill:#727272;}
	.st13{fill:#B4B2B2;}
	.st14{fill:#FFF7C4;}
	.st15{opacity:0.36;}
	.st16{fill:#F2EAA8;}
	.st17{fill:#D4966B;}
	.st18{fill:#141414;}
	.st19{fill:#1C1C1C;}
	.st20{opacity:0.73;fill:#9AD0D5;enable-background:new    ;}
	.st21{fill:#F9C193;}
	.st22{fill:#FEE3D4;}
	.st23{fill:#EBEBEB;}
	.st24{fill:#252525;}
	.st25{fill:none;stroke:#8EA02A;stroke-width:2;stroke-miterlimit:10;}
	.st26{fill:#FCA01F;stroke:#8EA02A;stroke-width:2;stroke-miterlimit:10;}
	.st27{fill:#F17900;}
</style>
<g id="Grupo_55828" transform="translate(-159 -6039)">
	<g class="st0">
		<path class="st1" d="M950.9,6058h-1.5v-11.4h1.5V6058z"/>
		<path class="st1" d="M953.1,6053.7c0-1.3,0.3-2.3,0.9-3.1c0.6-0.8,1.4-1.2,2.4-1.2c1,0,1.8,0.3,2.4,1v-4.4h1.4v12h-1.3l-0.1-0.9
			c-0.6,0.7-1.4,1.1-2.4,1.1c-1,0-1.8-0.4-2.4-1.2s-0.9-1.8-0.9-3.1V6053.7z M954.5,6053.9c0,1,0.2,1.7,0.6,2.2
			c0.4,0.5,0.9,0.8,1.6,0.8c0.9,0,1.6-0.4,2-1.2v-3.9c-0.4-0.8-1.1-1.2-2-1.2c-0.7,0-1.3,0.3-1.7,0.8
			C954.7,6052,954.5,6052.8,954.5,6053.9z"/>
		<path class="st1" d="M966,6058.2c-1.1,0-2.1-0.4-2.8-1.1s-1.1-1.8-1.1-3v-0.3c0-0.8,0.2-1.6,0.5-2.2s0.8-1.2,1.3-1.5
			c0.6-0.4,1.2-0.6,1.9-0.6c1.1,0,2,0.4,2.6,1.1s0.9,1.8,0.9,3.1v0.6h-5.7c0,0.8,0.3,1.5,0.7,2c0.5,0.5,1.1,0.8,1.8,0.8
			c0.5,0,0.9-0.1,1.3-0.3c0.4-0.2,0.7-0.5,0.9-0.8l0.9,0.7C968.5,6057.6,967.4,6058.2,966,6058.2z M965.8,6050.6
			c-0.6,0-1.1,0.2-1.5,0.6c-0.4,0.4-0.6,1-0.7,1.8h4.2v-0.1c0-0.7-0.2-1.3-0.6-1.7C966.9,6050.8,966.4,6050.6,965.8,6050.6z"/>
		<path class="st1" d="M972.3,6049.5l0,1.1c0.6-0.8,1.5-1.2,2.5-1.2c1.8,0,2.7,1,2.7,3v5.6h-1.4v-5.6c0-0.6-0.1-1.1-0.4-1.4
			s-0.7-0.4-1.3-0.4c-0.5,0-0.9,0.1-1.2,0.4c-0.4,0.2-0.6,0.6-0.8,1v6h-1.4v-8.5H972.3z"/>
		<path class="st1" d="M981.7,6047.5v2h1.6v1.1h-1.6v5.2c0,0.3,0.1,0.6,0.2,0.8c0.1,0.2,0.4,0.3,0.7,0.3c0.2,0,0.4,0,0.7-0.1v1.2
			c-0.4,0.1-0.8,0.2-1.1,0.2c-0.6,0-1.1-0.2-1.5-0.6s-0.5-0.9-0.5-1.7v-5.2h-1.5v-1.1h1.5v-2H981.7z"/>
		<path class="st1" d="M985,6047.3c0-0.2,0.1-0.4,0.2-0.6c0.1-0.2,0.4-0.2,0.6-0.2s0.5,0.1,0.6,0.2c0.1,0.2,0.2,0.4,0.2,0.6
			s-0.1,0.4-0.2,0.6c-0.1,0.2-0.4,0.2-0.6,0.2s-0.5-0.1-0.6-0.2C985.1,6047.7,985,6047.5,985,6047.3z M986.6,6058h-1.4v-8.5h1.4
			V6058z"/>
		<path class="st1" d="M989.6,6058v-7.3h-1.3v-1.1h1.3v-0.9c0-0.9,0.2-1.6,0.7-2.1s1.2-0.7,2.1-0.7c0.3,0,0.7,0,1,0.1l-0.1,1.2
			c-0.2,0-0.5-0.1-0.8-0.1c-0.5,0-0.8,0.1-1.1,0.4c-0.3,0.3-0.4,0.7-0.4,1.2v0.9h1.8v1.1H991v7.3H989.6z"/>
		<path class="st1" d="M994.4,6047.3c0-0.2,0.1-0.4,0.2-0.6c0.1-0.2,0.4-0.2,0.6-0.2s0.5,0.1,0.6,0.2c0.1,0.2,0.2,0.4,0.2,0.6
			s-0.1,0.4-0.2,0.6c-0.1,0.2-0.4,0.2-0.6,0.2s-0.5-0.1-0.6-0.2C994.5,6047.7,994.4,6047.5,994.4,6047.3z M996,6058h-1.4v-8.5h1.4
			V6058z"/>
		<path class="st1" d="M1001.7,6057c0.5,0,1-0.2,1.4-0.5c0.4-0.3,0.6-0.7,0.6-1.2h1.4c0,0.5-0.2,0.9-0.5,1.4c-0.3,0.4-0.7,0.8-1.2,1
			c-0.5,0.3-1.1,0.4-1.6,0.4c-1.2,0-2.1-0.4-2.7-1.2s-1-1.8-1-3.2v-0.2c0-0.8,0.2-1.6,0.5-2.2c0.3-0.6,0.7-1.1,1.3-1.5
			c0.6-0.4,1.2-0.5,2-0.5c0.9,0,1.7,0.3,2.4,0.9c0.6,0.6,1,1.3,1,2.2h-1.4c0-0.5-0.2-1-0.6-1.3c-0.4-0.4-0.8-0.5-1.4-0.5
			c-0.7,0-1.3,0.3-1.7,0.8c-0.4,0.5-0.6,1.3-0.6,2.3v0.3c0,1,0.2,1.7,0.6,2.2C1000.4,6056.7,1001,6057,1001.7,6057z"/>
		<path class="st1" d="M1011.9,6058c-0.1-0.2-0.2-0.5-0.2-0.9c-0.7,0.7-1.5,1-2.4,1c-0.8,0-1.5-0.2-2.1-0.7
			c-0.5-0.5-0.8-1.1-0.8-1.8c0-0.9,0.3-1.6,1-2.1c0.7-0.5,1.6-0.7,2.8-0.7h1.4v-0.7c0-0.5-0.2-0.9-0.5-1.2c-0.3-0.3-0.7-0.4-1.3-0.4
			c-0.5,0-0.9,0.1-1.3,0.4c-0.3,0.3-0.5,0.6-0.5,0.9h-1.5c0-0.4,0.1-0.8,0.4-1.2c0.3-0.4,0.7-0.7,1.2-0.9c0.5-0.2,1.1-0.3,1.7-0.3
			c1,0,1.7,0.2,2.3,0.7c0.6,0.5,0.8,1.2,0.9,2v3.9c0,0.8,0.1,1.4,0.3,1.9v0.1H1011.9z M1009.5,6056.9c0.5,0,0.9-0.1,1.3-0.4
			s0.7-0.5,0.9-0.9v-1.7h-1.1c-1.8,0-2.7,0.5-2.7,1.6c0,0.5,0.2,0.8,0.5,1.1C1008.7,6056.8,1009,6056.9,1009.5,6056.9z"/>
		<path class="st1" d="M1018.8,6057c0.5,0,1-0.2,1.4-0.5c0.4-0.3,0.6-0.7,0.6-1.2h1.4c0,0.5-0.2,0.9-0.5,1.4c-0.3,0.4-0.7,0.8-1.2,1
			c-0.5,0.3-1.1,0.4-1.6,0.4c-1.2,0-2.1-0.4-2.7-1.2s-1-1.8-1-3.2v-0.2c0-0.8,0.2-1.6,0.5-2.2c0.3-0.6,0.7-1.1,1.3-1.5
			c0.6-0.4,1.2-0.5,2-0.5c0.9,0,1.7,0.3,2.4,0.9c0.6,0.6,1,1.3,1,2.2h-1.4c0-0.5-0.2-1-0.6-1.3c-0.4-0.4-0.8-0.5-1.4-0.5
			c-0.7,0-1.3,0.3-1.7,0.8c-0.4,0.5-0.6,1.3-0.6,2.3v0.3c0,1,0.2,1.7,0.6,2.2C1017.5,6056.7,1018,6057,1018.8,6057z"/>
		<path class="st1" d="M1023.8,6047.3c0-0.2,0.1-0.4,0.2-0.6c0.1-0.2,0.4-0.2,0.6-0.2s0.5,0.1,0.6,0.2c0.1,0.2,0.2,0.4,0.2,0.6
			s-0.1,0.4-0.2,0.6c-0.1,0.2-0.4,0.2-0.6,0.2s-0.5-0.1-0.6-0.2C1023.9,6047.7,1023.8,6047.5,1023.8,6047.3z M1025.3,6058h-1.4v-8.5
			h1.4V6058z"/>
		<path class="st1" d="M1027.3,6053.7c0-0.8,0.2-1.6,0.5-2.2c0.3-0.7,0.8-1.2,1.4-1.5c0.6-0.4,1.2-0.5,2-0.5c1.2,0,2.1,0.4,2.8,1.2
			s1.1,1.9,1.1,3.2v0.1c0,0.8-0.2,1.6-0.5,2.2c-0.3,0.7-0.8,1.2-1.4,1.5s-1.3,0.5-2,0.5c-1.1,0-2.1-0.4-2.8-1.2s-1.1-1.9-1.1-3.2
			V6053.7z M1028.7,6053.9c0,0.9,0.2,1.7,0.7,2.3c0.4,0.6,1,0.9,1.7,0.9c0.7,0,1.3-0.3,1.8-0.9c0.4-0.6,0.6-1.4,0.6-2.4
			c0-0.9-0.2-1.7-0.7-2.3c-0.4-0.6-1-0.9-1.8-0.9c-0.7,0-1.3,0.3-1.7,0.9S1028.7,6052.8,1028.7,6053.9z M1031.8,6046h1.8l-2.1,2.3
			l-1.2,0L1031.8,6046z"/>
		<path class="st1" d="M1038.1,6049.5l0,1.1c0.6-0.8,1.5-1.2,2.5-1.2c1.8,0,2.7,1,2.7,3v5.6h-1.4v-5.6c0-0.6-0.1-1.1-0.4-1.4
			s-0.7-0.4-1.3-0.4c-0.5,0-0.9,0.1-1.2,0.4c-0.4,0.2-0.6,0.6-0.8,1v6h-1.4v-8.5H1038.1z"/>
		<path class="st1" d="M1049.2,6053.7c0-1.3,0.3-2.3,0.9-3.1c0.6-0.8,1.4-1.2,2.4-1.2c1,0,1.8,0.3,2.4,1v-4.4h1.4v12h-1.3l-0.1-0.9
			c-0.6,0.7-1.4,1.1-2.4,1.1c-1,0-1.8-0.4-2.4-1.2s-0.9-1.8-0.9-3.1V6053.7z M1050.7,6053.9c0,1,0.2,1.7,0.6,2.2
			c0.4,0.5,0.9,0.8,1.6,0.8c0.9,0,1.6-0.4,2-1.2v-3.9c-0.4-0.8-1.1-1.2-2-1.2c-0.7,0-1.3,0.3-1.7,0.8
			C1050.9,6052,1050.7,6052.8,1050.7,6053.9z"/>
		<path class="st1" d="M1062.1,6058.2c-1.1,0-2.1-0.4-2.8-1.1s-1.1-1.8-1.1-3v-0.3c0-0.8,0.2-1.6,0.5-2.2s0.8-1.2,1.3-1.5
			c0.6-0.4,1.2-0.6,1.9-0.6c1.1,0,2,0.4,2.6,1.1s0.9,1.8,0.9,3.1v0.6h-5.7c0,0.8,0.3,1.5,0.7,2c0.5,0.5,1.1,0.8,1.8,0.8
			c0.5,0,0.9-0.1,1.3-0.3c0.4-0.2,0.7-0.5,0.9-0.8l0.9,0.7C1064.6,6057.6,1063.5,6058.2,1062.1,6058.2z M1061.9,6050.6
			c-0.6,0-1.1,0.2-1.5,0.6c-0.4,0.4-0.6,1-0.7,1.8h4.2v-0.1c0-0.7-0.2-1.3-0.6-1.7C1063,6050.8,1062.5,6050.6,1061.9,6050.6z"/>
		<path class="st1" d="M1068.6,6058h-1.4v-12h1.4V6058z"/>
		<path class="st1" d="M1074.5,6053.7c0-0.8,0.2-1.6,0.5-2.2c0.3-0.7,0.8-1.2,1.4-1.5c0.6-0.4,1.2-0.5,2-0.5c1.2,0,2.1,0.4,2.8,1.2
			s1.1,1.9,1.1,3.2v0.1c0,0.8-0.2,1.6-0.5,2.2c-0.3,0.7-0.8,1.2-1.4,1.5s-1.3,0.5-2,0.5c-1.1,0-2.1-0.4-2.8-1.2s-1.1-1.9-1.1-3.2
			V6053.7z M1076,6053.9c0,0.9,0.2,1.7,0.7,2.3c0.4,0.6,1,0.9,1.7,0.9c0.7,0,1.3-0.3,1.8-0.9c0.4-0.6,0.6-1.4,0.6-2.4
			c0-0.9-0.2-1.7-0.7-2.3c-0.4-0.6-1-0.9-1.8-0.9c-0.7,0-1.3,0.3-1.7,0.9S1076,6052.8,1076,6053.9z"/>
		<path class="st1" d="M1088.1,6050.8c-0.2,0-0.5-0.1-0.7-0.1c-0.9,0-1.6,0.4-1.9,1.2v6h-1.4v-8.5h1.4l0,1c0.5-0.8,1.1-1.1,2-1.1
			c0.3,0,0.5,0,0.6,0.1V6050.8z"/>
		<path class="st1" d="M1089.5,6047.3c0-0.2,0.1-0.4,0.2-0.6c0.1-0.2,0.4-0.2,0.6-0.2s0.5,0.1,0.6,0.2c0.1,0.2,0.2,0.4,0.2,0.6
			s-0.1,0.4-0.2,0.6c-0.1,0.2-0.4,0.2-0.6,0.2s-0.5-0.1-0.6-0.2C1089.5,6047.7,1089.5,6047.5,1089.5,6047.3z M1091,6058h-1.4v-8.5
			h1.4V6058z"/>
		<path class="st1" d="M1093,6053.7c0-1.3,0.3-2.4,0.9-3.1s1.4-1.2,2.4-1.2c1,0,1.8,0.4,2.4,1.1l0.1-0.9h1.3v8.2c0,1.1-0.3,2-1,2.6
			s-1.5,0.9-2.6,0.9c-0.6,0-1.2-0.1-1.8-0.4c-0.6-0.3-1-0.6-1.3-1.1l0.8-0.9c0.6,0.8,1.4,1.1,2.3,1.1c0.7,0,1.3-0.2,1.6-0.6
			c0.4-0.4,0.6-1,0.6-1.7v-0.7c-0.6,0.7-1.4,1-2.4,1c-1,0-1.8-0.4-2.4-1.2C1093.3,6056.2,1093,6055.1,1093,6053.7z M1094.4,6053.9
			c0,1,0.2,1.7,0.6,2.2s0.9,0.8,1.6,0.8c0.9,0,1.6-0.4,2-1.2v-3.9c-0.4-0.8-1.1-1.2-2-1.2c-0.7,0-1.3,0.3-1.6,0.8
			C1094.6,6052,1094.4,6052.8,1094.4,6053.9z"/>
		<path class="st1" d="M1105.8,6058.2c-1.1,0-2.1-0.4-2.8-1.1s-1.1-1.8-1.1-3v-0.3c0-0.8,0.2-1.6,0.5-2.2s0.8-1.2,1.3-1.5
			c0.6-0.4,1.2-0.6,1.9-0.6c1.1,0,2,0.4,2.6,1.1s0.9,1.8,0.9,3.1v0.6h-5.7c0,0.8,0.3,1.5,0.7,2c0.5,0.5,1.1,0.8,1.8,0.8
			c0.5,0,0.9-0.1,1.3-0.3c0.4-0.2,0.7-0.5,0.9-0.8l0.9,0.7C1108.3,6057.6,1107.2,6058.2,1105.8,6058.2z M1105.6,6050.6
			c-0.6,0-1.1,0.2-1.5,0.6c-0.4,0.4-0.6,1-0.7,1.8h4.2v-0.1c0-0.7-0.2-1.3-0.6-1.7C1106.7,6050.8,1106.2,6050.6,1105.6,6050.6z"/>
		<path class="st1" d="M1112.2,6049.5l0,1.1c0.6-0.8,1.5-1.2,2.5-1.2c1.8,0,2.7,1,2.7,3v5.6h-1.4v-5.6c0-0.6-0.1-1.1-0.4-1.4
			s-0.7-0.4-1.3-0.4c-0.5,0-0.9,0.1-1.2,0.4c-0.4,0.2-0.6,0.6-0.8,1v6h-1.4v-8.5H1112.2z"/>
		<path class="st1" d="M1123.2,6053.7c0-1.3,0.3-2.3,0.9-3.1c0.6-0.8,1.4-1.2,2.4-1.2c1,0,1.8,0.3,2.4,1v-4.4h1.4v12h-1.3l-0.1-0.9
			c-0.6,0.7-1.4,1.1-2.4,1.1c-1,0-1.8-0.4-2.4-1.2s-0.9-1.8-0.9-3.1V6053.7z M1124.7,6053.9c0,1,0.2,1.7,0.6,2.2
			c0.4,0.5,0.9,0.8,1.6,0.8c0.9,0,1.6-0.4,2-1.2v-3.9c-0.4-0.8-1.1-1.2-2-1.2c-0.7,0-1.3,0.3-1.7,0.8
			C1124.9,6052,1124.7,6052.8,1124.7,6053.9z"/>
		<path class="st1" d="M1136.1,6058.2c-1.1,0-2.1-0.4-2.8-1.1s-1.1-1.8-1.1-3v-0.3c0-0.8,0.2-1.6,0.5-2.2s0.8-1.2,1.3-1.5
			c0.6-0.4,1.2-0.6,1.9-0.6c1.1,0,2,0.4,2.6,1.1s0.9,1.8,0.9,3.1v0.6h-5.7c0,0.8,0.3,1.5,0.7,2c0.5,0.5,1.1,0.8,1.8,0.8
			c0.5,0,0.9-0.1,1.3-0.3c0.4-0.2,0.7-0.5,0.9-0.8l0.9,0.7C1138.6,6057.6,1137.5,6058.2,1136.1,6058.2z M1135.9,6050.6
			c-0.6,0-1.1,0.2-1.5,0.6c-0.4,0.4-0.6,1-0.7,1.8h4.2v-0.1c0-0.7-0.2-1.3-0.6-1.7C1137,6050.8,1136.5,6050.6,1135.9,6050.6z"/>
		<path class="st1" d="M1142.6,6058h-1.4v-12h1.4V6058z"/>
	</g>
	<g class="st0">
		<path class="st1" d="M948.7,6077.7c0-1.3,0.3-2.3,0.9-3.1c0.6-0.8,1.4-1.2,2.4-1.2c1,0,1.8,0.3,2.4,1v-4.4h1.4v12h-1.3l-0.1-0.9
			c-0.6,0.7-1.4,1.1-2.4,1.1c-1,0-1.8-0.4-2.4-1.2s-0.9-1.8-0.9-3.1V6077.7z M950.2,6077.9c0,1,0.2,1.7,0.6,2.2
			c0.4,0.5,0.9,0.8,1.6,0.8c0.9,0,1.6-0.4,2-1.2v-3.9c-0.4-0.8-1.1-1.2-2-1.2c-0.7,0-1.3,0.3-1.7,0.8
			C950.4,6076,950.2,6076.8,950.2,6077.9z"/>
		<path class="st1" d="M957.7,6077.7c0-0.8,0.2-1.6,0.5-2.2c0.3-0.7,0.8-1.2,1.4-1.5c0.6-0.4,1.2-0.5,2-0.5c1.2,0,2.1,0.4,2.8,1.2
			s1.1,1.9,1.1,3.2v0.1c0,0.8-0.2,1.6-0.5,2.2c-0.3,0.7-0.8,1.2-1.4,1.5s-1.3,0.5-2,0.5c-1.1,0-2.1-0.4-2.8-1.2s-1.1-1.9-1.1-3.2
			V6077.7z M959.2,6077.9c0,0.9,0.2,1.7,0.7,2.3c0.4,0.6,1,0.9,1.7,0.9c0.7,0,1.3-0.3,1.8-0.9c0.4-0.6,0.6-1.4,0.6-2.4
			c0-0.9-0.2-1.7-0.7-2.3c-0.4-0.6-1-0.9-1.8-0.9c-0.7,0-1.3,0.3-1.7,0.9S959.2,6076.8,959.2,6077.9z"/>
		<path class="st1" d="M970.6,6081c0.5,0,1-0.2,1.4-0.5c0.4-0.3,0.6-0.7,0.6-1.2h1.4c0,0.5-0.2,0.9-0.5,1.4c-0.3,0.4-0.7,0.8-1.2,1
			c-0.5,0.3-1.1,0.4-1.6,0.4c-1.2,0-2.1-0.4-2.7-1.2s-1-1.8-1-3.2v-0.2c0-0.8,0.2-1.6,0.5-2.2c0.3-0.6,0.7-1.1,1.3-1.5
			c0.6-0.4,1.2-0.5,2-0.5c0.9,0,1.7,0.3,2.4,0.9c0.6,0.6,1,1.3,1,2.2h-1.4c0-0.5-0.2-1-0.6-1.3c-0.4-0.4-0.8-0.5-1.4-0.5
			c-0.7,0-1.3,0.3-1.7,0.8c-0.4,0.5-0.6,1.3-0.6,2.3v0.3c0,1,0.2,1.7,0.6,2.2C969.3,6080.7,969.9,6081,970.6,6081z"/>
		<path class="st1" d="M980.8,6081.2c-0.6,0.7-1.4,1-2.5,1c-0.9,0-1.6-0.3-2.1-0.8c-0.5-0.5-0.7-1.3-0.7-2.3v-5.5h1.4v5.5
			c0,1.3,0.5,1.9,1.6,1.9c1.1,0,1.8-0.4,2.2-1.2v-6.1h1.4v8.5h-1.4L980.8,6081.2z"/>
		<path class="st1" d="M985.8,6073.5l0,0.9c0.6-0.7,1.5-1.1,2.5-1.1c1.2,0,2,0.5,2.4,1.4c0.3-0.4,0.6-0.7,1.1-1
			c0.5-0.2,1-0.4,1.6-0.4c1.9,0,2.8,1,2.8,2.9v5.7h-1.4v-5.6c0-0.6-0.1-1.1-0.4-1.4c-0.3-0.3-0.7-0.4-1.4-0.4c-0.5,0-1,0.2-1.3,0.5
			c-0.4,0.3-0.6,0.8-0.6,1.3v5.6h-1.5v-5.5c0-1.2-0.6-1.8-1.8-1.8c-0.9,0-1.6,0.4-1.9,1.2v6.2h-1.4v-8.5H985.8z"/>
		<path class="st1" d="M1002,6082.2c-1.1,0-2.1-0.4-2.8-1.1s-1.1-1.8-1.1-3v-0.3c0-0.8,0.2-1.6,0.5-2.2s0.8-1.2,1.3-1.5
			c0.6-0.4,1.2-0.6,1.9-0.6c1.1,0,2,0.4,2.6,1.1s0.9,1.8,0.9,3.1v0.6h-5.7c0,0.8,0.3,1.5,0.7,2c0.5,0.5,1.1,0.8,1.8,0.8
			c0.5,0,0.9-0.1,1.3-0.3c0.4-0.2,0.7-0.5,0.9-0.8l0.9,0.7C1004.4,6081.6,1003.4,6082.2,1002,6082.2z M1001.8,6074.6
			c-0.6,0-1.1,0.2-1.5,0.6c-0.4,0.4-0.6,1-0.7,1.8h4.2v-0.1c0-0.7-0.2-1.3-0.6-1.7C1002.9,6074.8,1002.4,6074.6,1001.8,6074.6z"/>
		<path class="st1" d="M1008.3,6073.5l0,1.1c0.6-0.8,1.5-1.2,2.5-1.2c1.8,0,2.7,1,2.7,3v5.6h-1.4v-5.6c0-0.6-0.1-1.1-0.4-1.4
			s-0.7-0.4-1.3-0.4c-0.5,0-0.9,0.1-1.2,0.4c-0.4,0.2-0.6,0.6-0.8,1v6h-1.4v-8.5H1008.3z"/>
		<path class="st1" d="M1017.7,6071.5v2h1.6v1.1h-1.6v5.2c0,0.3,0.1,0.6,0.2,0.8c0.1,0.2,0.4,0.3,0.7,0.3c0.2,0,0.4,0,0.7-0.1v1.2
			c-0.4,0.1-0.8,0.2-1.1,0.2c-0.6,0-1.1-0.2-1.5-0.6s-0.5-0.9-0.5-1.7v-5.2h-1.5v-1.1h1.5v-2H1017.7z"/>
		<path class="st1" d="M1020.5,6077.7c0-0.8,0.2-1.6,0.5-2.2c0.3-0.7,0.8-1.2,1.4-1.5c0.6-0.4,1.2-0.5,2-0.5c1.2,0,2.1,0.4,2.8,1.2
			s1.1,1.9,1.1,3.2v0.1c0,0.8-0.2,1.6-0.5,2.2c-0.3,0.7-0.8,1.2-1.4,1.5s-1.3,0.5-2,0.5c-1.1,0-2.1-0.4-2.8-1.2s-1.1-1.9-1.1-3.2
			V6077.7z M1021.9,6077.9c0,0.9,0.2,1.7,0.7,2.3c0.4,0.6,1,0.9,1.7,0.9c0.7,0,1.3-0.3,1.8-0.9c0.4-0.6,0.6-1.4,0.6-2.4
			c0-0.9-0.2-1.7-0.7-2.3c-0.4-0.6-1-0.9-1.8-0.9c-0.7,0-1.3,0.3-1.7,0.9S1021.9,6076.8,1021.9,6077.9z"/>
		<path class="st1" d="M1033.9,6077.4c0-1.2,0.2-2.3,0.5-3.4c0.3-1.1,0.8-2.1,1.4-3s1.3-1.5,1.9-1.9l0.3,1c-0.8,0.6-1.4,1.5-1.9,2.7
			c-0.5,1.2-0.8,2.5-0.8,4l0,0.7c0,2,0.4,3.8,1.1,5.2c0.4,0.9,1,1.6,1.6,2.1l-0.3,0.9c-0.7-0.4-1.4-1-2-1.9
			C1034.5,6082,1033.9,6079.8,1033.9,6077.4z"/>
		<path class="st1" d="M1042.9,6082.2c-1.1,0-2.1-0.4-2.8-1.1s-1.1-1.8-1.1-3v-0.3c0-0.8,0.2-1.6,0.5-2.2s0.8-1.2,1.3-1.5
			c0.6-0.4,1.2-0.6,1.9-0.6c1.1,0,2,0.4,2.6,1.1s0.9,1.8,0.9,3.1v0.6h-5.7c0,0.8,0.3,1.5,0.7,2c0.5,0.5,1.1,0.8,1.8,0.8
			c0.5,0,0.9-0.1,1.3-0.3c0.4-0.2,0.7-0.5,0.9-0.8l0.9,0.7C1045.4,6081.6,1044.3,6082.2,1042.9,6082.2z M1042.7,6074.6
			c-0.6,0-1.1,0.2-1.5,0.6c-0.4,0.4-0.6,1-0.7,1.8h4.2v-0.1c0-0.7-0.2-1.3-0.6-1.7C1043.8,6074.8,1043.3,6074.6,1042.7,6074.6z"/>
		<path class="st1" d="M1049.2,6073.5l0,1.1c0.6-0.8,1.5-1.2,2.5-1.2c1.8,0,2.7,1,2.7,3v5.6h-1.4v-5.6c0-0.6-0.1-1.1-0.4-1.4
			s-0.7-0.4-1.3-0.4c-0.5,0-0.9,0.1-1.2,0.4c-0.4,0.2-0.6,0.6-0.8,1v6h-1.4v-8.5H1049.2z"/>
		<path class="st1" d="M1060.1,6081c0.5,0,1-0.2,1.4-0.5c0.4-0.3,0.6-0.7,0.6-1.2h1.4c0,0.5-0.2,0.9-0.5,1.4c-0.3,0.4-0.7,0.8-1.2,1
			c-0.5,0.3-1.1,0.4-1.6,0.4c-1.2,0-2.1-0.4-2.7-1.2s-1-1.8-1-3.2v-0.2c0-0.8,0.2-1.6,0.5-2.2c0.3-0.6,0.7-1.1,1.3-1.5
			c0.6-0.4,1.2-0.5,2-0.5c0.9,0,1.7,0.3,2.4,0.9c0.6,0.6,1,1.3,1,2.2h-1.4c0-0.5-0.2-1-0.6-1.3c-0.4-0.4-0.8-0.5-1.4-0.5
			c-0.7,0-1.3,0.3-1.7,0.8c-0.4,0.5-0.6,1.3-0.6,2.3v0.3c0,1,0.2,1.7,0.6,2.2C1058.8,6080.7,1059.3,6081,1060.1,6081z"/>
		<path class="st1" d="M1070.3,6082c-0.1-0.2-0.2-0.5-0.2-0.9c-0.7,0.7-1.5,1-2.4,1c-0.8,0-1.5-0.2-2.1-0.7
			c-0.5-0.5-0.8-1.1-0.8-1.8c0-0.9,0.3-1.6,1-2.1c0.7-0.5,1.6-0.7,2.8-0.7h1.4v-0.7c0-0.5-0.2-0.9-0.5-1.2c-0.3-0.3-0.7-0.4-1.3-0.4
			c-0.5,0-0.9,0.1-1.3,0.4c-0.3,0.3-0.5,0.6-0.5,0.9h-1.5c0-0.4,0.1-0.8,0.4-1.2c0.3-0.4,0.7-0.7,1.2-0.9c0.5-0.2,1.1-0.3,1.7-0.3
			c1,0,1.7,0.2,2.3,0.7c0.6,0.5,0.8,1.2,0.9,2v3.9c0,0.8,0.1,1.4,0.3,1.9v0.1H1070.3z M1067.9,6080.9c0.5,0,0.9-0.1,1.3-0.4
			s0.7-0.5,0.9-0.9v-1.7h-1.1c-1.8,0-2.7,0.5-2.7,1.6c0,0.5,0.2,0.8,0.5,1.1C1067,6080.8,1067.4,6080.9,1067.9,6080.9z"/>
		<path class="st1" d="M1080.9,6077.9c0,1.3-0.3,2.3-0.9,3.1s-1.4,1.2-2.4,1.2c-1.1,0-1.9-0.4-2.5-1.1l-0.1,1h-1.3v-12h1.4v4.5
			c0.6-0.7,1.4-1.1,2.4-1.1c1,0,1.8,0.4,2.4,1.2s0.9,1.8,0.9,3.2V6077.9z M1079.5,6077.7c0-1-0.2-1.7-0.6-2.3
			c-0.4-0.5-0.9-0.8-1.6-0.8c-1,0-1.6,0.4-2.1,1.3v3.7c0.4,0.9,1.1,1.3,2.1,1.3c0.7,0,1.2-0.3,1.6-0.8
			C1079.3,6079.6,1079.5,6078.8,1079.5,6077.7z"/>
		<path class="st1" d="M1086.3,6082.2c-1.1,0-2.1-0.4-2.8-1.1s-1.1-1.8-1.1-3v-0.3c0-0.8,0.2-1.6,0.5-2.2s0.8-1.2,1.3-1.5
			c0.6-0.4,1.2-0.6,1.9-0.6c1.1,0,2,0.4,2.6,1.1s0.9,1.8,0.9,3.1v0.6h-5.7c0,0.8,0.3,1.5,0.7,2c0.5,0.5,1.1,0.8,1.8,0.8
			c0.5,0,0.9-0.1,1.3-0.3c0.4-0.2,0.7-0.5,0.9-0.8l0.9,0.7C1088.7,6081.6,1087.7,6082.2,1086.3,6082.2z M1086.1,6074.6
			c-0.6,0-1.1,0.2-1.5,0.6c-0.4,0.4-0.6,1-0.7,1.8h4.2v-0.1c0-0.7-0.2-1.3-0.6-1.7C1087.2,6074.8,1086.7,6074.6,1086.1,6074.6z"/>
		<path class="st1" d="M1092.6,6080.8h4.9v1.2h-6.7v-1.1l4.7-6.2h-4.6v-1.2h6.4v1L1092.6,6080.8z"/>
		<path class="st1" d="M1104.4,6082c-0.1-0.2-0.2-0.5-0.2-0.9c-0.7,0.7-1.5,1-2.4,1c-0.8,0-1.5-0.2-2.1-0.7
			c-0.5-0.5-0.8-1.1-0.8-1.8c0-0.9,0.3-1.6,1-2.1c0.7-0.5,1.6-0.7,2.8-0.7h1.4v-0.7c0-0.5-0.2-0.9-0.5-1.2c-0.3-0.3-0.7-0.4-1.3-0.4
			c-0.5,0-0.9,0.1-1.3,0.4c-0.3,0.3-0.5,0.6-0.5,0.9h-1.5c0-0.4,0.1-0.8,0.4-1.2c0.3-0.4,0.7-0.7,1.2-0.9c0.5-0.2,1.1-0.3,1.7-0.3
			c1,0,1.7,0.2,2.3,0.7c0.6,0.5,0.8,1.2,0.9,2v3.9c0,0.8,0.1,1.4,0.3,1.9v0.1H1104.4z M1102,6080.9c0.5,0,0.9-0.1,1.3-0.4
			s0.7-0.5,0.9-0.9v-1.7h-1.1c-1.8,0-2.7,0.5-2.7,1.6c0,0.5,0.2,0.8,0.5,1.1C1101.1,6080.8,1101.5,6080.9,1102,6080.9z"/>
		<path class="st1" d="M1107.5,6077.7c0-1.3,0.3-2.3,0.9-3.1c0.6-0.8,1.4-1.2,2.4-1.2c1,0,1.8,0.3,2.4,1v-4.4h1.4v12h-1.3l-0.1-0.9
			c-0.6,0.7-1.4,1.1-2.4,1.1c-1,0-1.8-0.4-2.4-1.2s-0.9-1.8-0.9-3.1V6077.7z M1109,6077.9c0,1,0.2,1.7,0.6,2.2
			c0.4,0.5,0.9,0.8,1.6,0.8c0.9,0,1.6-0.4,2-1.2v-3.9c-0.4-0.8-1.1-1.2-2-1.2c-0.7,0-1.3,0.3-1.7,0.8
			C1109.2,6076,1109,6076.8,1109,6077.9z"/>
		<path class="st1" d="M1116.5,6077.7c0-0.8,0.2-1.6,0.5-2.2c0.3-0.7,0.8-1.2,1.4-1.5c0.6-0.4,1.2-0.5,2-0.5c1.2,0,2.1,0.4,2.8,1.2
			s1.1,1.9,1.1,3.2v0.1c0,0.8-0.2,1.6-0.5,2.2c-0.3,0.7-0.8,1.2-1.4,1.5s-1.3,0.5-2,0.5c-1.1,0-2.1-0.4-2.8-1.2s-1.1-1.9-1.1-3.2
			V6077.7z M1118,6077.9c0,0.9,0.2,1.7,0.7,2.3c0.4,0.6,1,0.9,1.7,0.9c0.7,0,1.3-0.3,1.8-0.9c0.4-0.6,0.6-1.4,0.6-2.4
			c0-0.9-0.2-1.7-0.7-2.3c-0.4-0.6-1-0.9-1.8-0.9c-0.7,0-1.3,0.3-1.7,0.9S1118,6076.8,1118,6077.9z"/>
		<path class="st1" d="M1129.3,6077.5c0,1.2-0.2,2.3-0.5,3.3s-0.8,2-1.4,2.9c-0.6,0.9-1.3,1.5-2,1.9l-0.3-0.9
			c0.8-0.6,1.4-1.6,1.9-2.9c0.5-1.3,0.7-2.7,0.7-4.3v-0.2c0-1.1-0.1-2.1-0.3-3.1c-0.2-0.9-0.5-1.8-1-2.5c-0.4-0.7-0.9-1.3-1.4-1.7
			l0.3-0.9c0.7,0.4,1.3,1,2,1.9c0.6,0.9,1.1,1.9,1.4,2.9C1129.2,6075.1,1129.3,6076.2,1129.3,6077.5z"/>
	</g>
	<g class="st0">
		<path class="st1" d="M952.1,6147.8h-3.8v-1.2h3.8V6147.8z"/>
		<path class="st1" d="M964.1,6146.7h-4.9v4h5.7v1.2h-7.2v-11.4h7.1v1.2h-5.6v3.7h4.9V6146.7z"/>
		<path class="st1" d="M971.5,6149.8c0-0.4-0.1-0.7-0.4-0.9c-0.3-0.2-0.8-0.4-1.5-0.6c-0.7-0.2-1.3-0.3-1.7-0.6s-0.7-0.5-1-0.8
			c-0.2-0.3-0.3-0.7-0.3-1.1c0-0.7,0.3-1.3,0.9-1.8s1.3-0.7,2.2-0.7c1,0,1.7,0.2,2.3,0.7c0.6,0.5,0.9,1.1,0.9,1.9h-1.5
			c0-0.4-0.2-0.7-0.5-1s-0.8-0.4-1.3-0.4c-0.5,0-0.9,0.1-1.2,0.3s-0.4,0.5-0.4,0.9c0,0.3,0.1,0.6,0.4,0.8c0.3,0.2,0.8,0.3,1.5,0.5
			c0.7,0.2,1.3,0.4,1.8,0.6c0.4,0.2,0.8,0.5,1,0.8c0.2,0.3,0.3,0.7,0.3,1.2c0,0.8-0.3,1.4-0.9,1.8c-0.6,0.5-1.4,0.7-2.4,0.7
			c-0.7,0-1.3-0.1-1.8-0.4c-0.5-0.2-0.9-0.6-1.2-1c-0.3-0.4-0.4-0.9-0.4-1.4h1.4c0,0.5,0.2,0.9,0.6,1.2c0.4,0.3,0.8,0.4,1.4,0.4
			c0.5,0,1-0.1,1.3-0.3C971.3,6150.4,971.5,6150.1,971.5,6149.8z"/>
		<path class="st1" d="M978.2,6151c0.5,0,1-0.2,1.4-0.5c0.4-0.3,0.6-0.7,0.6-1.2h1.4c0,0.5-0.2,0.9-0.5,1.4c-0.3,0.4-0.7,0.8-1.2,1
			c-0.5,0.3-1.1,0.4-1.6,0.4c-1.2,0-2.1-0.4-2.7-1.2s-1-1.8-1-3.2v-0.2c0-0.8,0.2-1.6,0.5-2.2c0.3-0.6,0.7-1.1,1.3-1.5
			c0.6-0.4,1.2-0.5,2-0.5c0.9,0,1.7,0.3,2.4,0.9c0.6,0.6,1,1.3,1,2.2h-1.4c0-0.5-0.2-1-0.6-1.3c-0.4-0.4-0.8-0.5-1.4-0.5
			c-0.7,0-1.3,0.3-1.7,0.8c-0.4,0.5-0.6,1.3-0.6,2.3v0.3c0,1,0.2,1.7,0.6,2.2C976.9,6150.7,977.5,6151,978.2,6151z"/>
		<path class="st1" d="M987.3,6144.8c-0.2,0-0.5-0.1-0.7-0.1c-0.9,0-1.6,0.4-1.9,1.2v6h-1.4v-8.5h1.4l0,1c0.5-0.8,1.1-1.1,2-1.1
			c0.3,0,0.5,0,0.6,0.1V6144.8z"/>
		<path class="st1" d="M988.6,6141.3c0-0.2,0.1-0.4,0.2-0.6c0.1-0.2,0.4-0.2,0.6-0.2s0.5,0.1,0.6,0.2c0.1,0.2,0.2,0.4,0.2,0.6
			s-0.1,0.4-0.2,0.6c-0.1,0.2-0.4,0.2-0.6,0.2s-0.5-0.1-0.6-0.2C988.7,6141.7,988.6,6141.5,988.6,6141.3z M990.2,6152h-1.4v-8.5h1.4
			V6152z"/>
		<path class="st1" d="M994.4,6141.5v2h1.6v1.1h-1.6v5.2c0,0.3,0.1,0.6,0.2,0.8c0.1,0.2,0.4,0.3,0.7,0.3c0.2,0,0.4,0,0.7-0.1v1.2
			c-0.4,0.1-0.8,0.2-1.1,0.2c-0.6,0-1.1-0.2-1.5-0.6s-0.5-0.9-0.5-1.7v-5.2h-1.5v-1.1h1.5v-2H994.4z"/>
		<path class="st1" d="M1002.9,6151.2c-0.6,0.7-1.4,1-2.5,1c-0.9,0-1.6-0.3-2.1-0.8c-0.5-0.5-0.7-1.3-0.7-2.3v-5.5h1.4v5.5
			c0,1.3,0.5,1.9,1.6,1.9c1.1,0,1.8-0.4,2.2-1.2v-6.1h1.4v8.5h-1.4L1002.9,6151.2z"/>
		<path class="st1" d="M1010.6,6144.8c-0.2,0-0.5-0.1-0.7-0.1c-0.9,0-1.6,0.4-1.9,1.2v6h-1.4v-8.5h1.4l0,1c0.5-0.8,1.1-1.1,2-1.1
			c0.3,0,0.5,0,0.6,0.1V6144.8z"/>
		<path class="st1" d="M1016.9,6152c-0.1-0.2-0.2-0.5-0.2-0.9c-0.7,0.7-1.5,1-2.4,1c-0.8,0-1.5-0.2-2.1-0.7
			c-0.5-0.5-0.8-1.1-0.8-1.8c0-0.9,0.3-1.6,1-2.1c0.7-0.5,1.6-0.7,2.8-0.7h1.4v-0.7c0-0.5-0.2-0.9-0.5-1.2c-0.3-0.3-0.7-0.4-1.3-0.4
			c-0.5,0-0.9,0.1-1.3,0.4c-0.3,0.3-0.5,0.6-0.5,0.9h-1.5c0-0.4,0.1-0.8,0.4-1.2c0.3-0.4,0.7-0.7,1.2-0.9c0.5-0.2,1.1-0.3,1.7-0.3
			c1,0,1.7,0.2,2.3,0.7c0.6,0.5,0.8,1.2,0.9,2v3.9c0,0.8,0.1,1.4,0.3,1.9v0.1H1016.9z M1014.5,6150.9c0.5,0,0.9-0.1,1.3-0.4
			s0.7-0.5,0.9-0.9v-1.7h-1.1c-1.8,0-2.7,0.5-2.7,1.6c0,0.5,0.2,0.8,0.5,1.1C1013.6,6150.8,1014,6150.9,1014.5,6150.9z"/>
		<path class="st1" d="M1027.7,6151c0.5,0,1-0.2,1.4-0.5c0.4-0.3,0.6-0.7,0.6-1.2h1.4c0,0.5-0.2,0.9-0.5,1.4c-0.3,0.4-0.7,0.8-1.2,1
			c-0.5,0.3-1.1,0.4-1.6,0.4c-1.2,0-2.1-0.4-2.7-1.2s-1-1.8-1-3.2v-0.2c0-0.8,0.2-1.6,0.5-2.2c0.3-0.6,0.7-1.1,1.3-1.5
			c0.6-0.4,1.2-0.5,2-0.5c0.9,0,1.7,0.3,2.4,0.9c0.6,0.6,1,1.3,1,2.2h-1.4c0-0.5-0.2-1-0.6-1.3c-0.4-0.4-0.8-0.5-1.4-0.5
			c-0.7,0-1.3,0.3-1.7,0.8c-0.4,0.5-0.6,1.3-0.6,2.3v0.3c0,1,0.2,1.7,0.6,2.2C1026.4,6150.7,1026.9,6151,1027.7,6151z"/>
		<path class="st1" d="M1034.2,6152h-1.4v-12h1.4V6152z"/>
		<path class="st1" d="M1041.8,6152c-0.1-0.2-0.2-0.5-0.2-0.9c-0.7,0.7-1.5,1-2.4,1c-0.8,0-1.5-0.2-2.1-0.7
			c-0.5-0.5-0.8-1.1-0.8-1.8c0-0.9,0.3-1.6,1-2.1c0.7-0.5,1.6-0.7,2.8-0.7h1.4v-0.7c0-0.5-0.2-0.9-0.5-1.2c-0.3-0.3-0.7-0.4-1.3-0.4
			c-0.5,0-0.9,0.1-1.3,0.4c-0.3,0.3-0.5,0.6-0.5,0.9h-1.5c0-0.4,0.1-0.8,0.4-1.2c0.3-0.4,0.7-0.7,1.2-0.9c0.5-0.2,1.1-0.3,1.7-0.3
			c1,0,1.7,0.2,2.3,0.7c0.6,0.5,0.8,1.2,0.9,2v3.9c0,0.8,0.1,1.4,0.3,1.9v0.1H1041.8z M1039.4,6150.9c0.5,0,0.9-0.1,1.3-0.4
			s0.7-0.5,0.9-0.9v-1.7h-1.1c-1.8,0-2.7,0.5-2.7,1.6c0,0.5,0.2,0.8,0.5,1.1C1038.5,6150.8,1038.9,6150.9,1039.4,6150.9z"/>
		<path class="st1" d="M1049.3,6144.8c-0.2,0-0.5-0.1-0.7-0.1c-0.9,0-1.6,0.4-1.9,1.2v6h-1.4v-8.5h1.4l0,1c0.5-0.8,1.1-1.1,2-1.1
			c0.3,0,0.5,0,0.6,0.1V6144.8z"/>
		<path class="st1" d="M1055.6,6152c-0.1-0.2-0.2-0.5-0.2-0.9c-0.7,0.7-1.5,1-2.4,1c-0.8,0-1.5-0.2-2.1-0.7
			c-0.5-0.5-0.8-1.1-0.8-1.8c0-0.9,0.3-1.6,1-2.1c0.7-0.5,1.6-0.7,2.8-0.7h1.4v-0.7c0-0.5-0.2-0.9-0.5-1.2c-0.3-0.3-0.7-0.4-1.3-0.4
			c-0.5,0-0.9,0.1-1.3,0.4c-0.3,0.3-0.5,0.6-0.5,0.9h-1.5c0-0.4,0.1-0.8,0.4-1.2c0.3-0.4,0.7-0.7,1.2-0.9c0.5-0.2,1.1-0.3,1.7-0.3
			c1,0,1.7,0.2,2.3,0.7c0.6,0.5,0.8,1.2,0.9,2v3.9c0,0.8,0.1,1.4,0.3,1.9v0.1H1055.6z M1053.2,6150.9c0.5,0,0.9-0.1,1.3-0.4
			s0.7-0.5,0.9-0.9v-1.7h-1.1c-1.8,0-2.7,0.5-2.7,1.6c0,0.5,0.2,0.8,0.5,1.1C1052.3,6150.8,1052.7,6150.9,1053.2,6150.9z"/>
	</g>
	<g class="st0">
		<path class="st1" d="M952.1,6171.8h-3.8v-1.2h3.8V6171.8z"/>
		<path class="st1" d="M964,6171h-4.8v5h-1.5v-11.4h7v1.2h-5.5v3.9h4.8V6171z"/>
		<path class="st1" d="M969.7,6176.2c-1.1,0-2.1-0.4-2.8-1.1s-1.1-1.8-1.1-3v-0.3c0-0.8,0.2-1.6,0.5-2.2s0.8-1.2,1.3-1.5
			c0.6-0.4,1.2-0.6,1.9-0.6c1.1,0,2,0.4,2.6,1.1s0.9,1.8,0.9,3.1v0.6h-5.7c0,0.8,0.3,1.5,0.7,2c0.5,0.5,1.1,0.8,1.8,0.8
			c0.5,0,0.9-0.1,1.3-0.3c0.4-0.2,0.7-0.5,0.9-0.8l0.9,0.7C972.1,6175.6,971.1,6176.2,969.7,6176.2z M969.5,6168.6
			c-0.6,0-1.1,0.2-1.5,0.6c-0.4,0.4-0.6,1-0.7,1.8h4.2v-0.1c0-0.7-0.2-1.3-0.6-1.7C970.6,6168.8,970.1,6168.6,969.5,6168.6z"/>
		<path class="st1" d="M978,6175c0.5,0,1-0.2,1.4-0.5c0.4-0.3,0.6-0.7,0.6-1.2h1.4c0,0.5-0.2,0.9-0.5,1.4c-0.3,0.4-0.7,0.8-1.2,1
			c-0.5,0.3-1.1,0.4-1.6,0.4c-1.2,0-2.1-0.4-2.7-1.2s-1-1.8-1-3.2v-0.2c0-0.8,0.2-1.6,0.5-2.2c0.3-0.6,0.7-1.1,1.3-1.5
			c0.6-0.4,1.2-0.5,2-0.5c0.9,0,1.7,0.3,2.4,0.9c0.6,0.6,1,1.3,1,2.2H980c0-0.5-0.2-1-0.6-1.3c-0.4-0.4-0.8-0.5-1.4-0.5
			c-0.7,0-1.3,0.3-1.7,0.8c-0.4,0.5-0.6,1.3-0.6,2.3v0.3c0,1,0.2,1.7,0.6,2.2C976.7,6174.7,977.3,6175,978,6175z"/>
		<path class="st1" d="M984.4,6168.6c0.6-0.8,1.5-1.2,2.5-1.2c1.8,0,2.7,1,2.7,3v5.6h-1.4v-5.6c0-0.6-0.1-1.1-0.4-1.4
			s-0.7-0.4-1.3-0.4c-0.5,0-0.9,0.1-1.2,0.4c-0.4,0.2-0.6,0.6-0.8,1v6H983v-12h1.4V6168.6z"/>
		<path class="st1" d="M997,6176c-0.1-0.2-0.2-0.5-0.2-0.9c-0.7,0.7-1.5,1-2.4,1c-0.8,0-1.5-0.2-2.1-0.7c-0.5-0.5-0.8-1.1-0.8-1.8
			c0-0.9,0.3-1.6,1-2.1c0.7-0.5,1.6-0.7,2.8-0.7h1.4v-0.7c0-0.5-0.2-0.9-0.5-1.2c-0.3-0.3-0.7-0.4-1.3-0.4c-0.5,0-0.9,0.1-1.3,0.4
			c-0.3,0.3-0.5,0.6-0.5,0.9h-1.5c0-0.4,0.1-0.8,0.4-1.2c0.3-0.4,0.7-0.7,1.2-0.9c0.5-0.2,1.1-0.3,1.7-0.3c1,0,1.7,0.2,2.3,0.7
			c0.6,0.5,0.8,1.2,0.9,2v3.9c0,0.8,0.1,1.4,0.3,1.9v0.1H997z M994.6,6174.9c0.5,0,0.9-0.1,1.3-0.4s0.7-0.5,0.9-0.9v-1.7h-1.1
			c-1.8,0-2.7,0.5-2.7,1.6c0,0.5,0.2,0.8,0.5,1.1C993.8,6174.8,994.2,6174.9,994.6,6174.9z"/>
		<path class="st1" d="M1007.5,6171.8h-3.8v-1.2h3.8V6171.8z"/>
		<path class="st1" d="M1014.4,6176h-1.4v-12h1.4V6176z"/>
		<path class="st1" d="M1022,6175.2c-0.6,0.7-1.4,1-2.5,1c-0.9,0-1.6-0.3-2.1-0.8c-0.5-0.5-0.7-1.3-0.7-2.3v-5.5h1.4v5.5
			c0,1.3,0.5,1.9,1.6,1.9c1.1,0,1.8-0.4,2.2-1.2v-6.1h1.4v8.5h-1.4L1022,6175.2z"/>
		<path class="st1" d="M1025.2,6171.7c0-1.3,0.3-2.4,0.9-3.1s1.4-1.2,2.4-1.2c1,0,1.8,0.4,2.4,1.1l0.1-0.9h1.3v8.2
			c0,1.1-0.3,2-1,2.6s-1.5,0.9-2.6,0.9c-0.6,0-1.2-0.1-1.8-0.4c-0.6-0.3-1-0.6-1.3-1.1l0.8-0.9c0.6,0.8,1.4,1.1,2.3,1.1
			c0.7,0,1.3-0.2,1.6-0.6c0.4-0.4,0.6-1,0.6-1.7v-0.7c-0.6,0.7-1.4,1-2.4,1c-1,0-1.8-0.4-2.4-1.2
			C1025.5,6174.2,1025.2,6173.1,1025.2,6171.7z M1026.7,6171.9c0,1,0.2,1.7,0.6,2.2s0.9,0.8,1.6,0.8c0.9,0,1.6-0.4,2-1.2v-3.9
			c-0.4-0.8-1.1-1.2-2-1.2c-0.7,0-1.3,0.3-1.6,0.8C1026.9,6170,1026.7,6170.8,1026.7,6171.9z"/>
		<path class="st1" d="M1039.8,6176c-0.1-0.2-0.2-0.5-0.2-0.9c-0.7,0.7-1.5,1-2.4,1c-0.8,0-1.5-0.2-2.1-0.7
			c-0.5-0.5-0.8-1.1-0.8-1.8c0-0.9,0.3-1.6,1-2.1c0.7-0.5,1.6-0.7,2.8-0.7h1.4v-0.7c0-0.5-0.2-0.9-0.5-1.2c-0.3-0.3-0.7-0.4-1.3-0.4
			c-0.5,0-0.9,0.1-1.3,0.4c-0.3,0.3-0.5,0.6-0.5,0.9h-1.5c0-0.4,0.1-0.8,0.4-1.2c0.3-0.4,0.7-0.7,1.2-0.9c0.5-0.2,1.1-0.3,1.7-0.3
			c1,0,1.7,0.2,2.3,0.7c0.6,0.5,0.8,1.2,0.9,2v3.9c0,0.8,0.1,1.4,0.3,1.9v0.1H1039.8z M1037.4,6174.9c0.5,0,0.9-0.1,1.3-0.4
			s0.7-0.5,0.9-0.9v-1.7h-1.1c-1.8,0-2.7,0.5-2.7,1.6c0,0.5,0.2,0.8,0.5,1.1C1036.5,6174.8,1036.9,6174.9,1037.4,6174.9z"/>
		<path class="st1" d="M1047.3,6168.8c-0.2,0-0.5-0.1-0.7-0.1c-0.9,0-1.6,0.4-1.9,1.2v6h-1.4v-8.5h1.4l0,1c0.5-0.8,1.1-1.1,2-1.1
			c0.3,0,0.5,0,0.6,0.1V6168.8z"/>
	</g>
	<g class="st0">
		<path class="st1" d="M952.1,6195.8h-3.8v-1.2h3.8V6195.8z"/>
		<path class="st1" d="M965.2,6189.9h-3.7v10.1h-1.5v-10.1h-3.6v-1.2h8.8V6189.9z"/>
		<path class="st1" d="M969.4,6200.2c-1.1,0-2.1-0.4-2.8-1.1s-1.1-1.8-1.1-3v-0.3c0-0.8,0.2-1.6,0.5-2.2s0.8-1.2,1.3-1.5
			c0.6-0.4,1.2-0.6,1.9-0.6c1.1,0,2,0.4,2.6,1.1s0.9,1.8,0.9,3.1v0.6H967c0,0.8,0.3,1.5,0.7,2c0.5,0.5,1.1,0.8,1.8,0.8
			c0.5,0,0.9-0.1,1.3-0.3c0.4-0.2,0.7-0.5,0.9-0.8l0.9,0.7C971.9,6199.6,970.9,6200.2,969.4,6200.2z M969.3,6192.6
			c-0.6,0-1.1,0.2-1.5,0.6c-0.4,0.4-0.6,1-0.7,1.8h4.2v-0.1c0-0.7-0.2-1.3-0.6-1.7C970.3,6192.8,969.9,6192.6,969.3,6192.6z"/>
		<path class="st1" d="M975.8,6191.5l0,0.9c0.6-0.7,1.5-1.1,2.5-1.1c1.2,0,2,0.5,2.4,1.4c0.3-0.4,0.6-0.7,1.1-1
			c0.5-0.2,1-0.4,1.6-0.4c1.9,0,2.8,1,2.8,2.9v5.7h-1.4v-5.6c0-0.6-0.1-1.1-0.4-1.4c-0.3-0.3-0.7-0.4-1.4-0.4c-0.5,0-1,0.2-1.3,0.5
			c-0.4,0.3-0.6,0.8-0.6,1.3v5.6h-1.5v-5.5c0-1.2-0.6-1.8-1.8-1.8c-0.9,0-1.6,0.4-1.9,1.2v6.2h-1.4v-8.5H975.8z"/>
		<path class="st1" d="M993.6,6200c-0.1-0.2-0.2-0.5-0.2-0.9c-0.7,0.7-1.5,1-2.4,1c-0.8,0-1.5-0.2-2.1-0.7c-0.5-0.5-0.8-1.1-0.8-1.8
			c0-0.9,0.3-1.6,1-2.1c0.7-0.5,1.6-0.7,2.8-0.7h1.4v-0.7c0-0.5-0.2-0.9-0.5-1.2c-0.3-0.3-0.7-0.4-1.3-0.4c-0.5,0-0.9,0.1-1.3,0.4
			c-0.3,0.3-0.5,0.6-0.5,0.9h-1.5c0-0.4,0.1-0.8,0.4-1.2c0.3-0.4,0.7-0.7,1.2-0.9c0.5-0.2,1.1-0.3,1.7-0.3c1,0,1.7,0.2,2.3,0.7
			c0.6,0.5,0.8,1.2,0.9,2v3.9c0,0.8,0.1,1.4,0.3,1.9v0.1H993.6z M991.2,6198.9c0.5,0,0.9-0.1,1.3-0.4s0.7-0.5,0.9-0.9v-1.7h-1.1
			c-1.8,0-2.7,0.5-2.7,1.6c0,0.5,0.2,0.8,0.5,1.1C990.4,6198.8,990.8,6198.9,991.2,6198.9z M992.6,6188h1.8l-2.1,2.3l-1.2,0
			L992.6,6188z"/>
		<path class="st1" d="M999.1,6189.5v2h1.6v1.1h-1.6v5.2c0,0.3,0.1,0.6,0.2,0.8c0.1,0.2,0.4,0.3,0.7,0.3c0.2,0,0.4,0,0.7-0.1v1.2
			c-0.4,0.1-0.8,0.2-1.1,0.2c-0.6,0-1.1-0.2-1.5-0.6s-0.5-0.9-0.5-1.7v-5.2h-1.5v-1.1h1.5v-2H999.1z"/>
		<path class="st1" d="M1002.4,6189.3c0-0.2,0.1-0.4,0.2-0.6c0.1-0.2,0.4-0.2,0.6-0.2s0.5,0.1,0.6,0.2c0.1,0.2,0.2,0.4,0.2,0.6
			s-0.1,0.4-0.2,0.6c-0.1,0.2-0.4,0.2-0.6,0.2s-0.5-0.1-0.6-0.2C1002.4,6189.7,1002.4,6189.5,1002.4,6189.3z M1003.9,6200h-1.4v-8.5
			h1.4V6200z"/>
		<path class="st1" d="M1009.6,6199c0.5,0,1-0.2,1.4-0.5c0.4-0.3,0.6-0.7,0.6-1.2h1.4c0,0.5-0.2,0.9-0.5,1.4c-0.3,0.4-0.7,0.8-1.2,1
			c-0.5,0.3-1.1,0.4-1.6,0.4c-1.2,0-2.1-0.4-2.7-1.2s-1-1.8-1-3.2v-0.2c0-0.8,0.2-1.6,0.5-2.2c0.3-0.6,0.7-1.1,1.3-1.5
			c0.6-0.4,1.2-0.5,2-0.5c0.9,0,1.7,0.3,2.4,0.9c0.6,0.6,1,1.3,1,2.2h-1.4c0-0.5-0.2-1-0.6-1.3c-0.4-0.4-0.8-0.5-1.4-0.5
			c-0.7,0-1.3,0.3-1.7,0.8c-0.4,0.5-0.6,1.3-0.6,2.3v0.3c0,1,0.2,1.7,0.6,2.2C1008.3,6198.7,1008.9,6199,1009.6,6199z"/>
		<path class="st1" d="M1019.8,6200c-0.1-0.2-0.2-0.5-0.2-0.9c-0.7,0.7-1.5,1-2.4,1c-0.8,0-1.5-0.2-2.1-0.7
			c-0.5-0.5-0.8-1.1-0.8-1.8c0-0.9,0.3-1.6,1-2.1c0.7-0.5,1.6-0.7,2.8-0.7h1.4v-0.7c0-0.5-0.2-0.9-0.5-1.2c-0.3-0.3-0.7-0.4-1.3-0.4
			c-0.5,0-0.9,0.1-1.3,0.4c-0.3,0.3-0.5,0.6-0.5,0.9h-1.5c0-0.4,0.1-0.8,0.4-1.2c0.3-0.4,0.7-0.7,1.2-0.9c0.5-0.2,1.1-0.3,1.7-0.3
			c1,0,1.7,0.2,2.3,0.7c0.6,0.5,0.8,1.2,0.9,2v3.9c0,0.8,0.1,1.4,0.3,1.9v0.1H1019.8z M1017.4,6198.9c0.5,0,0.9-0.1,1.3-0.4
			s0.7-0.5,0.9-0.9v-1.7h-1.1c-1.8,0-2.7,0.5-2.7,1.6c0,0.5,0.2,0.8,0.5,1.1C1016.6,6198.8,1017,6198.9,1017.4,6198.9z"/>
	</g>
	<g class="st0">
		<path class="st1" d="M952.1,6219.8h-3.8v-1.2h3.8V6219.8z"/>
		<path class="st1" d="M959.3,6224h-1.5v-11.4h1.5V6224z"/>
		<path class="st1" d="M961.5,6219.7c0-1.3,0.3-2.3,0.9-3.1c0.6-0.8,1.4-1.2,2.4-1.2c1,0,1.8,0.3,2.4,1v-4.4h1.4v12h-1.3l-0.1-0.9
			c-0.6,0.7-1.4,1.1-2.4,1.1c-1,0-1.8-0.4-2.4-1.2s-0.9-1.8-0.9-3.1V6219.7z M962.9,6219.9c0,1,0.2,1.7,0.6,2.2
			c0.4,0.5,0.9,0.8,1.6,0.8c0.9,0,1.6-0.4,2-1.2v-3.9c-0.4-0.8-1.1-1.2-2-1.2c-0.7,0-1.3,0.3-1.7,0.8
			C963.1,6218,962.9,6218.8,962.9,6219.9z"/>
		<path class="st1" d="M974.4,6224.2c-1.1,0-2.1-0.4-2.8-1.1s-1.1-1.8-1.1-3v-0.3c0-0.8,0.2-1.6,0.5-2.2s0.8-1.2,1.3-1.5
			c0.6-0.4,1.2-0.6,1.9-0.6c1.1,0,2,0.4,2.6,1.1s0.9,1.8,0.9,3.1v0.6h-5.7c0,0.8,0.3,1.5,0.7,2c0.5,0.5,1.1,0.8,1.8,0.8
			c0.5,0,0.9-0.1,1.3-0.3c0.4-0.2,0.7-0.5,0.9-0.8l0.9,0.7C976.8,6223.6,975.8,6224.2,974.4,6224.2z M974.2,6216.6
			c-0.6,0-1.1,0.2-1.5,0.6c-0.4,0.4-0.6,1-0.7,1.8h4.2v-0.1c0-0.7-0.2-1.3-0.6-1.7C975.3,6216.8,974.8,6216.6,974.2,6216.6z"/>
		<path class="st1" d="M980.7,6215.5l0,1.1c0.6-0.8,1.5-1.2,2.5-1.2c1.8,0,2.7,1,2.7,3v5.6h-1.4v-5.6c0-0.6-0.1-1.1-0.4-1.4
			s-0.7-0.4-1.3-0.4c-0.5,0-0.9,0.1-1.2,0.4c-0.4,0.2-0.6,0.6-0.8,1v6h-1.4v-8.5H980.7z"/>
		<path class="st1" d="M990.1,6213.5v2h1.6v1.1h-1.6v5.2c0,0.3,0.1,0.6,0.2,0.8c0.1,0.2,0.4,0.3,0.7,0.3c0.2,0,0.4,0,0.7-0.1v1.2
			c-0.4,0.1-0.8,0.2-1.1,0.2c-0.6,0-1.1-0.2-1.5-0.6s-0.5-0.9-0.5-1.7v-5.2h-1.5v-1.1h1.5v-2H990.1z"/>
		<path class="st1" d="M993.4,6213.3c0-0.2,0.1-0.4,0.2-0.6c0.1-0.2,0.4-0.2,0.6-0.2s0.5,0.1,0.6,0.2c0.1,0.2,0.2,0.4,0.2,0.6
			s-0.1,0.4-0.2,0.6c-0.1,0.2-0.4,0.2-0.6,0.2s-0.5-0.1-0.6-0.2C993.5,6213.7,993.4,6213.5,993.4,6213.3z M994.9,6224h-1.4v-8.5h1.4
			V6224z"/>
		<path class="st1" d="M998,6224v-7.3h-1.3v-1.1h1.3v-0.9c0-0.9,0.2-1.6,0.7-2.1s1.2-0.7,2.1-0.7c0.3,0,0.7,0,1,0.1l-0.1,1.2
			c-0.2,0-0.5-0.1-0.8-0.1c-0.5,0-0.8,0.1-1.1,0.4c-0.3,0.3-0.4,0.7-0.4,1.2v0.9h1.8v1.1h-1.8v7.3H998z"/>
		<path class="st1" d="M1002.8,6213.3c0-0.2,0.1-0.4,0.2-0.6c0.1-0.2,0.4-0.2,0.6-0.2s0.5,0.1,0.6,0.2c0.1,0.2,0.2,0.4,0.2,0.6
			s-0.1,0.4-0.2,0.6c-0.1,0.2-0.4,0.2-0.6,0.2s-0.5-0.1-0.6-0.2C1002.9,6213.7,1002.8,6213.5,1002.8,6213.3z M1004.4,6224h-1.4v-8.5
			h1.4V6224z"/>
		<path class="st1" d="M1010.1,6223c0.5,0,1-0.2,1.4-0.5c0.4-0.3,0.6-0.7,0.6-1.2h1.4c0,0.5-0.2,0.9-0.5,1.4c-0.3,0.4-0.7,0.8-1.2,1
			c-0.5,0.3-1.1,0.4-1.6,0.4c-1.2,0-2.1-0.4-2.7-1.2s-1-1.8-1-3.2v-0.2c0-0.8,0.2-1.6,0.5-2.2c0.3-0.6,0.7-1.1,1.3-1.5
			c0.6-0.4,1.2-0.5,2-0.5c0.9,0,1.7,0.3,2.4,0.9c0.6,0.6,1,1.3,1,2.2h-1.4c0-0.5-0.2-1-0.6-1.3c-0.4-0.4-0.8-0.5-1.4-0.5
			c-0.7,0-1.3,0.3-1.7,0.8c-0.4,0.5-0.6,1.3-0.6,2.3v0.3c0,1,0.2,1.7,0.6,2.2C1008.8,6222.7,1009.3,6223,1010.1,6223z"/>
		<path class="st1" d="M1020.3,6224c-0.1-0.2-0.2-0.5-0.2-0.9c-0.7,0.7-1.5,1-2.4,1c-0.8,0-1.5-0.2-2.1-0.7
			c-0.5-0.5-0.8-1.1-0.8-1.8c0-0.9,0.3-1.6,1-2.1c0.7-0.5,1.6-0.7,2.8-0.7h1.4v-0.7c0-0.5-0.2-0.9-0.5-1.2c-0.3-0.3-0.7-0.4-1.3-0.4
			c-0.5,0-0.9,0.1-1.3,0.4c-0.3,0.3-0.5,0.6-0.5,0.9h-1.5c0-0.4,0.1-0.8,0.4-1.2c0.3-0.4,0.7-0.7,1.2-0.9c0.5-0.2,1.1-0.3,1.7-0.3
			c1,0,1.7,0.2,2.3,0.7c0.6,0.5,0.8,1.2,0.9,2v3.9c0,0.8,0.1,1.4,0.3,1.9v0.1H1020.3z M1017.9,6222.9c0.5,0,0.9-0.1,1.3-0.4
			s0.7-0.5,0.9-0.9v-1.7h-1.1c-1.8,0-2.7,0.5-2.7,1.6c0,0.5,0.2,0.8,0.5,1.1C1017,6222.8,1017.4,6222.9,1017.9,6222.9z"/>
		<path class="st1" d="M1027.2,6223c0.5,0,1-0.2,1.4-0.5c0.4-0.3,0.6-0.7,0.6-1.2h1.4c0,0.5-0.2,0.9-0.5,1.4c-0.3,0.4-0.7,0.8-1.2,1
			c-0.5,0.3-1.1,0.4-1.6,0.4c-1.2,0-2.1-0.4-2.7-1.2s-1-1.8-1-3.2v-0.2c0-0.8,0.2-1.6,0.5-2.2c0.3-0.6,0.7-1.1,1.3-1.5
			c0.6-0.4,1.2-0.5,2-0.5c0.9,0,1.7,0.3,2.4,0.9c0.6,0.6,1,1.3,1,2.2h-1.4c0-0.5-0.2-1-0.6-1.3c-0.4-0.4-0.8-0.5-1.4-0.5
			c-0.7,0-1.3,0.3-1.7,0.8c-0.4,0.5-0.6,1.3-0.6,2.3v0.3c0,1,0.2,1.7,0.6,2.2C1025.8,6222.7,1026.4,6223,1027.2,6223z"/>
		<path class="st1" d="M1032.2,6213.3c0-0.2,0.1-0.4,0.2-0.6c0.1-0.2,0.4-0.2,0.6-0.2s0.5,0.1,0.6,0.2c0.1,0.2,0.2,0.4,0.2,0.6
			s-0.1,0.4-0.2,0.6c-0.1,0.2-0.4,0.2-0.6,0.2s-0.5-0.1-0.6-0.2C1032.2,6213.7,1032.2,6213.5,1032.2,6213.3z M1033.7,6224h-1.4v-8.5
			h1.4V6224z"/>
		<path class="st1" d="M1035.6,6219.7c0-0.8,0.2-1.6,0.5-2.2c0.3-0.7,0.8-1.2,1.4-1.5c0.6-0.4,1.2-0.5,2-0.5c1.2,0,2.1,0.4,2.8,1.2
			s1.1,1.9,1.1,3.2v0.1c0,0.8-0.2,1.6-0.5,2.2c-0.3,0.7-0.8,1.2-1.4,1.5s-1.3,0.5-2,0.5c-1.1,0-2.1-0.4-2.8-1.2s-1.1-1.9-1.1-3.2
			V6219.7z M1037.1,6219.9c0,0.9,0.2,1.7,0.7,2.3c0.4,0.6,1,0.9,1.7,0.9c0.7,0,1.3-0.3,1.8-0.9c0.4-0.6,0.6-1.4,0.6-2.4
			c0-0.9-0.2-1.7-0.7-2.3c-0.4-0.6-1-0.9-1.8-0.9c-0.7,0-1.3,0.3-1.7,0.9S1037.1,6218.8,1037.1,6219.9z M1040.1,6212h1.8l-2.1,2.3
			l-1.2,0L1040.1,6212z"/>
		<path class="st1" d="M1046.5,6215.5l0,1.1c0.6-0.8,1.5-1.2,2.5-1.2c1.8,0,2.7,1,2.7,3v5.6h-1.4v-5.6c0-0.6-0.1-1.1-0.4-1.4
			s-0.7-0.4-1.3-0.4c-0.5,0-0.9,0.1-1.2,0.4c-0.4,0.2-0.6,0.6-0.8,1v6h-1.4v-8.5H1046.5z"/>
		<path class="st1" d="M1057.6,6219.7c0-1.3,0.3-2.3,0.9-3.1c0.6-0.8,1.4-1.2,2.4-1.2c1,0,1.8,0.3,2.4,1v-4.4h1.4v12h-1.3l-0.1-0.9
			c-0.6,0.7-1.4,1.1-2.4,1.1c-1,0-1.8-0.4-2.4-1.2s-0.9-1.8-0.9-3.1V6219.7z M1059,6219.9c0,1,0.2,1.7,0.6,2.2
			c0.4,0.5,0.9,0.8,1.6,0.8c0.9,0,1.6-0.4,2-1.2v-3.9c-0.4-0.8-1.1-1.2-2-1.2c-0.7,0-1.3,0.3-1.7,0.8
			C1059.2,6218,1059,6218.8,1059,6219.9z"/>
		<path class="st1" d="M1070.5,6224.2c-1.1,0-2.1-0.4-2.8-1.1s-1.1-1.8-1.1-3v-0.3c0-0.8,0.2-1.6,0.5-2.2s0.8-1.2,1.3-1.5
			c0.6-0.4,1.2-0.6,1.9-0.6c1.1,0,2,0.4,2.6,1.1s0.9,1.8,0.9,3.1v0.6h-5.7c0,0.8,0.3,1.5,0.7,2c0.5,0.5,1.1,0.8,1.8,0.8
			c0.5,0,0.9-0.1,1.3-0.3c0.4-0.2,0.7-0.5,0.9-0.8l0.9,0.7C1073,6223.6,1071.9,6224.2,1070.5,6224.2z M1070.3,6216.6
			c-0.6,0-1.1,0.2-1.5,0.6c-0.4,0.4-0.6,1-0.7,1.8h4.2v-0.1c0-0.7-0.2-1.3-0.6-1.7C1071.4,6216.8,1070.9,6216.6,1070.3,6216.6z"/>
		<path class="st1" d="M1077,6224h-1.4v-12h1.4V6224z"/>
		<path class="st1" d="M1086.8,6224.2c-1.1,0-2.1-0.4-2.8-1.1s-1.1-1.8-1.1-3v-0.3c0-0.8,0.2-1.6,0.5-2.2s0.8-1.2,1.3-1.5
			c0.6-0.4,1.2-0.6,1.9-0.6c1.1,0,2,0.4,2.6,1.1s0.9,1.8,0.9,3.1v0.6h-5.7c0,0.8,0.3,1.5,0.7,2c0.5,0.5,1.1,0.8,1.8,0.8
			c0.5,0,0.9-0.1,1.3-0.3c0.4-0.2,0.7-0.5,0.9-0.8l0.9,0.7C1089.3,6223.6,1088.2,6224.2,1086.8,6224.2z M1086.6,6216.6
			c-0.6,0-1.1,0.2-1.5,0.6c-0.4,0.4-0.6,1-0.7,1.8h4.2v-0.1c0-0.7-0.2-1.3-0.6-1.7C1087.7,6216.8,1087.2,6216.6,1086.6,6216.6z"/>
		<path class="st1" d="M1093.1,6215.5l0,0.9c0.6-0.7,1.5-1.1,2.5-1.1c1.2,0,2,0.5,2.4,1.4c0.3-0.4,0.6-0.7,1.1-1
			c0.5-0.2,1-0.4,1.6-0.4c1.9,0,2.8,1,2.8,2.9v5.7h-1.4v-5.6c0-0.6-0.1-1.1-0.4-1.4c-0.3-0.3-0.7-0.4-1.4-0.4c-0.5,0-1,0.2-1.3,0.5
			c-0.4,0.3-0.6,0.8-0.6,1.3v5.6h-1.5v-5.5c0-1.2-0.6-1.8-1.8-1.8c-0.9,0-1.6,0.4-1.9,1.2v6.2h-1.4v-8.5H1093.1z"/>
		<path class="st1" d="M1105.8,6213.3c0-0.2,0.1-0.4,0.2-0.6c0.1-0.2,0.4-0.2,0.6-0.2s0.5,0.1,0.6,0.2c0.1,0.2,0.2,0.4,0.2,0.6
			s-0.1,0.4-0.2,0.6c-0.1,0.2-0.4,0.2-0.6,0.2s-0.5-0.1-0.6-0.2C1105.9,6213.7,1105.8,6213.5,1105.8,6213.3z M1107.4,6224h-1.4v-8.5
			h1.4V6224z"/>
		<path class="st1" d="M1114.6,6221.8c0-0.4-0.1-0.7-0.4-0.9c-0.3-0.2-0.8-0.4-1.5-0.6c-0.7-0.2-1.3-0.3-1.7-0.6s-0.7-0.5-1-0.8
			c-0.2-0.3-0.3-0.7-0.3-1.1c0-0.7,0.3-1.3,0.9-1.8s1.3-0.7,2.2-0.7c1,0,1.7,0.2,2.3,0.7c0.6,0.5,0.9,1.1,0.9,1.9h-1.5
			c0-0.4-0.2-0.7-0.5-1s-0.8-0.4-1.3-0.4c-0.5,0-0.9,0.1-1.2,0.3s-0.4,0.5-0.4,0.9c0,0.3,0.1,0.6,0.4,0.8c0.3,0.2,0.8,0.3,1.5,0.5
			c0.7,0.2,1.3,0.4,1.8,0.6c0.4,0.2,0.8,0.5,1,0.8c0.2,0.3,0.3,0.7,0.3,1.2c0,0.8-0.3,1.4-0.9,1.8c-0.6,0.5-1.4,0.7-2.4,0.7
			c-0.7,0-1.3-0.1-1.8-0.4c-0.5-0.2-0.9-0.6-1.2-1c-0.3-0.4-0.4-0.9-0.4-1.4h1.4c0,0.5,0.2,0.9,0.6,1.2c0.4,0.3,0.8,0.4,1.4,0.4
			c0.5,0,1-0.1,1.3-0.3C1114.4,6222.4,1114.6,6222.1,1114.6,6221.8z"/>
		<path class="st1" d="M1117.5,6219.7c0-0.8,0.2-1.6,0.5-2.2c0.3-0.7,0.8-1.2,1.4-1.5c0.6-0.4,1.2-0.5,2-0.5c1.2,0,2.1,0.4,2.8,1.2
			s1.1,1.9,1.1,3.2v0.1c0,0.8-0.2,1.6-0.5,2.2c-0.3,0.7-0.8,1.2-1.4,1.5s-1.3,0.5-2,0.5c-1.1,0-2.1-0.4-2.8-1.2s-1.1-1.9-1.1-3.2
			V6219.7z M1119,6219.9c0,0.9,0.2,1.7,0.7,2.3c0.4,0.6,1,0.9,1.7,0.9c0.7,0,1.3-0.3,1.8-0.9c0.4-0.6,0.6-1.4,0.6-2.4
			c0-0.9-0.2-1.7-0.7-2.3c-0.4-0.6-1-0.9-1.8-0.9c-0.7,0-1.3,0.3-1.7,0.9S1119,6218.8,1119,6219.9z"/>
		<path class="st1" d="M1131.1,6216.8c-0.2,0-0.5-0.1-0.7-0.1c-0.9,0-1.6,0.4-1.9,1.2v6h-1.4v-8.5h1.4l0,1c0.5-0.8,1.1-1.1,2-1.1
			c0.3,0,0.5,0,0.6,0.1V6216.8z"/>
	</g>
	<g class="st0">
		<path class="st1" d="M952.1,6243.8h-3.8v-1.2h3.8V6243.8z"/>
		<path class="st1" d="M966.1,6244.4c-0.1,1.2-0.6,2.1-1.3,2.8c-0.7,0.7-1.7,1-3,1c-1.3,0-2.4-0.5-3.2-1.4c-0.8-1-1.2-2.3-1.2-3.9
			v-1.1c0-1.1,0.2-2,0.6-2.8c0.4-0.8,0.9-1.4,1.6-1.8c0.7-0.4,1.5-0.6,2.4-0.6c1.2,0,2.2,0.3,2.9,1c0.7,0.7,1.2,1.6,1.3,2.8h-1.5
			c-0.1-0.9-0.4-1.6-0.8-2c-0.4-0.4-1-0.6-1.8-0.6c-1,0-1.7,0.4-2.3,1.1c-0.5,0.7-0.8,1.7-0.8,3v1.1c0,1.2,0.3,2.2,0.8,2.9
			s1.2,1.1,2.2,1.1c0.8,0,1.5-0.2,1.9-0.6s0.7-1,0.9-2H966.1z"/>
		<path class="st1" d="M967.5,6243.7c0-0.8,0.2-1.6,0.5-2.2c0.3-0.7,0.8-1.2,1.4-1.5c0.6-0.4,1.2-0.5,2-0.5c1.2,0,2.1,0.4,2.8,1.2
			s1.1,1.9,1.1,3.2v0.1c0,0.8-0.2,1.6-0.5,2.2c-0.3,0.7-0.8,1.2-1.4,1.5s-1.3,0.5-2,0.5c-1.1,0-2.1-0.4-2.8-1.2s-1.1-1.9-1.1-3.2
			V6243.7z M969,6243.9c0,0.9,0.2,1.7,0.7,2.3c0.4,0.6,1,0.9,1.7,0.9c0.7,0,1.3-0.3,1.8-0.9c0.4-0.6,0.6-1.4,0.6-2.4
			c0-0.9-0.2-1.7-0.7-2.3c-0.4-0.6-1-0.9-1.8-0.9c-0.7,0-1.3,0.3-1.7,0.9S969,6242.8,969,6243.9z"/>
		<path class="st1" d="M978.4,6239.5l0,1.1c0.6-0.8,1.5-1.2,2.5-1.2c1.8,0,2.7,1,2.7,3v5.6h-1.4v-5.6c0-0.6-0.1-1.1-0.4-1.4
			s-0.7-0.4-1.3-0.4c-0.5,0-0.9,0.1-1.2,0.4c-0.4,0.2-0.6,0.6-0.8,1v6H977v-8.5H978.4z"/>
		<path class="st1" d="M987.8,6237.5v2h1.6v1.1h-1.6v5.2c0,0.3,0.1,0.6,0.2,0.8c0.1,0.2,0.4,0.3,0.7,0.3c0.2,0,0.4,0,0.7-0.1v1.2
			c-0.4,0.1-0.8,0.2-1.1,0.2c-0.6,0-1.1-0.2-1.5-0.6s-0.5-0.9-0.5-1.7v-5.2h-1.5v-1.1h1.5v-2H987.8z"/>
		<path class="st1" d="M994.6,6248.2c-1.1,0-2.1-0.4-2.8-1.1s-1.1-1.8-1.1-3v-0.3c0-0.8,0.2-1.6,0.5-2.2s0.8-1.2,1.3-1.5
			c0.6-0.4,1.2-0.6,1.9-0.6c1.1,0,2,0.4,2.6,1.1s0.9,1.8,0.9,3.1v0.6h-5.7c0,0.8,0.3,1.5,0.7,2c0.5,0.5,1.1,0.8,1.8,0.8
			c0.5,0,0.9-0.1,1.3-0.3c0.4-0.2,0.7-0.5,0.9-0.8l0.9,0.7C997,6247.6,996,6248.2,994.6,6248.2z M994.4,6240.6
			c-0.6,0-1.1,0.2-1.5,0.6c-0.4,0.4-0.6,1-0.7,1.8h4.2v-0.1c0-0.7-0.2-1.3-0.6-1.7C995.5,6240.8,995,6240.6,994.4,6240.6z"/>
		<path class="st1" d="M1000.9,6239.5l0,1.1c0.6-0.8,1.5-1.2,2.5-1.2c1.8,0,2.7,1,2.7,3v5.6h-1.4v-5.6c0-0.6-0.1-1.1-0.4-1.4
			s-0.7-0.4-1.3-0.4c-0.5,0-0.9,0.1-1.2,0.4c-0.4,0.2-0.6,0.6-0.8,1v6h-1.4v-8.5H1000.9z"/>
		<path class="st1" d="M1008.4,6237.3c0-0.2,0.1-0.4,0.2-0.6c0.1-0.2,0.4-0.2,0.6-0.2s0.5,0.1,0.6,0.2c0.1,0.2,0.2,0.4,0.2,0.6
			s-0.1,0.4-0.2,0.6c-0.1,0.2-0.4,0.2-0.6,0.2s-0.5-0.1-0.6-0.2C1008.4,6237.7,1008.4,6237.5,1008.4,6237.3z M1009.9,6248h-1.4v-8.5
			h1.4V6248z"/>
		<path class="st1" d="M1011.9,6243.7c0-1.3,0.3-2.3,0.9-3.1c0.6-0.8,1.4-1.2,2.4-1.2c1,0,1.8,0.3,2.4,1v-4.4h1.4v12h-1.3l-0.1-0.9
			c-0.6,0.7-1.4,1.1-2.4,1.1c-1,0-1.8-0.4-2.4-1.2s-0.9-1.8-0.9-3.1V6243.7z M1013.3,6243.9c0,1,0.2,1.7,0.6,2.2
			c0.4,0.5,0.9,0.8,1.6,0.8c0.9,0,1.6-0.4,2-1.2v-3.9c-0.4-0.8-1.1-1.2-2-1.2c-0.7,0-1.3,0.3-1.7,0.8
			C1013.5,6242,1013.3,6242.8,1013.3,6243.9z"/>
		<path class="st1" d="M1020.9,6243.7c0-0.8,0.2-1.6,0.5-2.2c0.3-0.7,0.8-1.2,1.4-1.5c0.6-0.4,1.2-0.5,2-0.5c1.2,0,2.1,0.4,2.8,1.2
			s1.1,1.9,1.1,3.2v0.1c0,0.8-0.2,1.6-0.5,2.2c-0.3,0.7-0.8,1.2-1.4,1.5s-1.3,0.5-2,0.5c-1.1,0-2.1-0.4-2.8-1.2s-1.1-1.9-1.1-3.2
			V6243.7z M1022.3,6243.9c0,0.9,0.2,1.7,0.7,2.3c0.4,0.6,1,0.9,1.7,0.9c0.7,0,1.3-0.3,1.8-0.9c0.4-0.6,0.6-1.4,0.6-2.4
			c0-0.9-0.2-1.7-0.7-2.3c-0.4-0.6-1-0.9-1.8-0.9c-0.7,0-1.3,0.3-1.7,0.9S1022.3,6242.8,1022.3,6243.9z"/>
		<path class="st1" d="M1034.4,6237.3c0-0.2,0.1-0.4,0.2-0.6c0.1-0.2,0.4-0.2,0.6-0.2s0.5,0.1,0.6,0.2c0.1,0.2,0.2,0.4,0.2,0.6
			s-0.1,0.4-0.2,0.6c-0.1,0.2-0.4,0.2-0.6,0.2s-0.5-0.1-0.6-0.2C1034.4,6237.7,1034.4,6237.5,1034.4,6237.3z M1035.9,6248h-1.4v-8.5
			h1.4V6248z"/>
		<path class="st1" d="M1039.6,6239.5l0,1.1c0.6-0.8,1.5-1.2,2.5-1.2c1.8,0,2.7,1,2.7,3v5.6h-1.4v-5.6c0-0.6-0.1-1.1-0.4-1.4
			s-0.7-0.4-1.3-0.4c-0.5,0-0.9,0.1-1.2,0.4c-0.4,0.2-0.6,0.6-0.8,1v6h-1.4v-8.5H1039.6z"/>
		<path class="st1" d="M1047.8,6248v-7.3h-1.3v-1.1h1.3v-0.9c0-0.9,0.2-1.6,0.7-2.1s1.2-0.7,2.1-0.7c0.3,0,0.7,0,1,0.1l-0.1,1.2
			c-0.2,0-0.5-0.1-0.8-0.1c-0.5,0-0.8,0.1-1.1,0.4c-0.3,0.3-0.4,0.7-0.4,1.2v0.9h1.8v1.1h-1.8v7.3H1047.8z"/>
		<path class="st1" d="M1052.2,6243.7c0-0.8,0.2-1.6,0.5-2.2c0.3-0.7,0.8-1.2,1.4-1.5c0.6-0.4,1.2-0.5,2-0.5c1.2,0,2.1,0.4,2.8,1.2
			s1.1,1.9,1.1,3.2v0.1c0,0.8-0.2,1.6-0.5,2.2c-0.3,0.7-0.8,1.2-1.4,1.5s-1.3,0.5-2,0.5c-1.1,0-2.1-0.4-2.8-1.2s-1.1-1.9-1.1-3.2
			V6243.7z M1053.7,6243.9c0,0.9,0.2,1.7,0.7,2.3c0.4,0.6,1,0.9,1.7,0.9c0.7,0,1.3-0.3,1.8-0.9c0.4-0.6,0.6-1.4,0.6-2.4
			c0-0.9-0.2-1.7-0.7-2.3c-0.4-0.6-1-0.9-1.8-0.9c-0.7,0-1.3,0.3-1.7,0.9S1053.7,6242.8,1053.7,6243.9z"/>
		<path class="st1" d="M1065.8,6240.8c-0.2,0-0.5-0.1-0.7-0.1c-0.9,0-1.6,0.4-1.9,1.2v6h-1.4v-8.5h1.4l0,1c0.5-0.8,1.1-1.1,2-1.1
			c0.3,0,0.5,0,0.6,0.1V6240.8z"/>
		<path class="st1" d="M1068.5,6239.5l0,0.9c0.6-0.7,1.5-1.1,2.5-1.1c1.2,0,2,0.5,2.4,1.4c0.3-0.4,0.6-0.7,1.1-1
			c0.5-0.2,1-0.4,1.6-0.4c1.9,0,2.8,1,2.8,2.9v5.7h-1.4v-5.6c0-0.6-0.1-1.1-0.4-1.4c-0.3-0.3-0.7-0.4-1.4-0.4c-0.5,0-1,0.2-1.3,0.5
			c-0.4,0.3-0.6,0.8-0.6,1.3v5.6h-1.5v-5.5c0-1.2-0.6-1.8-1.8-1.8c-0.9,0-1.6,0.4-1.9,1.2v6.2h-1.4v-8.5H1068.5z"/>
		<path class="st1" d="M1086.4,6248c-0.1-0.2-0.2-0.5-0.2-0.9c-0.7,0.7-1.5,1-2.4,1c-0.8,0-1.5-0.2-2.1-0.7
			c-0.5-0.5-0.8-1.1-0.8-1.8c0-0.9,0.3-1.6,1-2.1c0.7-0.5,1.6-0.7,2.8-0.7h1.4v-0.7c0-0.5-0.2-0.9-0.5-1.2c-0.3-0.3-0.7-0.4-1.3-0.4
			c-0.5,0-0.9,0.1-1.3,0.4c-0.3,0.3-0.5,0.6-0.5,0.9h-1.5c0-0.4,0.1-0.8,0.4-1.2c0.3-0.4,0.7-0.7,1.2-0.9c0.5-0.2,1.1-0.3,1.7-0.3
			c1,0,1.7,0.2,2.3,0.7c0.6,0.5,0.8,1.2,0.9,2v3.9c0,0.8,0.1,1.4,0.3,1.9v0.1H1086.4z M1084,6246.9c0.5,0,0.9-0.1,1.3-0.4
			s0.7-0.5,0.9-0.9v-1.7h-1.1c-1.8,0-2.7,0.5-2.7,1.6c0,0.5,0.2,0.8,0.5,1.1C1083.1,6246.8,1083.5,6246.9,1084,6246.9z"/>
		<path class="st1" d="M1091.9,6237.5v2h1.6v1.1h-1.6v5.2c0,0.3,0.1,0.6,0.2,0.8c0.1,0.2,0.4,0.3,0.7,0.3c0.2,0,0.4,0,0.7-0.1v1.2
			c-0.4,0.1-0.8,0.2-1.1,0.2c-0.6,0-1.1-0.2-1.5-0.6s-0.5-0.9-0.5-1.7v-5.2h-1.5v-1.1h1.5v-2H1091.9z"/>
		<path class="st1" d="M1095.1,6237.3c0-0.2,0.1-0.4,0.2-0.6c0.1-0.2,0.4-0.2,0.6-0.2s0.5,0.1,0.6,0.2c0.1,0.2,0.2,0.4,0.2,0.6
			s-0.1,0.4-0.2,0.6c-0.1,0.2-0.4,0.2-0.6,0.2s-0.5-0.1-0.6-0.2C1095.2,6237.7,1095.1,6237.5,1095.1,6237.3z M1096.7,6248h-1.4v-8.5
			h1.4V6248z"/>
		<path class="st1" d="M1101.8,6246l2.1-6.5h1.5l-3,8.5h-1.1l-3.1-8.5h1.5L1101.8,6246z"/>
		<path class="st1" d="M1106.2,6243.7c0-0.8,0.2-1.6,0.5-2.2c0.3-0.7,0.8-1.2,1.4-1.5c0.6-0.4,1.2-0.5,2-0.5c1.2,0,2.1,0.4,2.8,1.2
			s1.1,1.9,1.1,3.2v0.1c0,0.8-0.2,1.6-0.5,2.2c-0.3,0.7-0.8,1.2-1.4,1.5s-1.3,0.5-2,0.5c-1.1,0-2.1-0.4-2.8-1.2s-1.1-1.9-1.1-3.2
			V6243.7z M1107.7,6243.9c0,0.9,0.2,1.7,0.7,2.3c0.4,0.6,1,0.9,1.7,0.9c0.7,0,1.3-0.3,1.8-0.9c0.4-0.6,0.6-1.4,0.6-2.4
			c0-0.9-0.2-1.7-0.7-2.3c-0.4-0.6-1-0.9-1.8-0.9c-0.7,0-1.3,0.3-1.7,0.9S1107.7,6242.8,1107.7,6243.9z"/>
		<path class="st1" d="M1123.1,6247c0.5,0,1-0.2,1.4-0.5c0.4-0.3,0.6-0.7,0.6-1.2h1.4c0,0.5-0.2,0.9-0.5,1.4c-0.3,0.4-0.7,0.8-1.2,1
			c-0.5,0.3-1.1,0.4-1.6,0.4c-1.2,0-2.1-0.4-2.7-1.2s-1-1.8-1-3.2v-0.2c0-0.8,0.2-1.6,0.5-2.2c0.3-0.6,0.7-1.1,1.3-1.5
			c0.6-0.4,1.2-0.5,2-0.5c0.9,0,1.7,0.3,2.4,0.9c0.6,0.6,1,1.3,1,2.2h-1.4c0-0.5-0.2-1-0.6-1.3c-0.4-0.4-0.8-0.5-1.4-0.5
			c-0.7,0-1.3,0.3-1.7,0.8c-0.4,0.5-0.6,1.3-0.6,2.3v0.3c0,1,0.2,1.7,0.6,2.2C1121.8,6246.7,1122.4,6247,1123.1,6247z"/>
		<path class="st1" d="M1127.7,6243.7c0-0.8,0.2-1.6,0.5-2.2c0.3-0.7,0.8-1.2,1.4-1.5c0.6-0.4,1.2-0.5,2-0.5c1.2,0,2.1,0.4,2.8,1.2
			s1.1,1.9,1.1,3.2v0.1c0,0.8-0.2,1.6-0.5,2.2c-0.3,0.7-0.8,1.2-1.4,1.5s-1.3,0.5-2,0.5c-1.1,0-2.1-0.4-2.8-1.2s-1.1-1.9-1.1-3.2
			V6243.7z M1129.2,6243.9c0,0.9,0.2,1.7,0.7,2.3c0.4,0.6,1,0.9,1.7,0.9c0.7,0,1.3-0.3,1.8-0.9c0.4-0.6,0.6-1.4,0.6-2.4
			c0-0.9-0.2-1.7-0.7-2.3c-0.4-0.6-1-0.9-1.8-0.9c-0.7,0-1.3,0.3-1.7,0.9S1129.2,6242.8,1129.2,6243.9z"/>
		<path class="st1" d="M1138.6,6239.5l0,0.9c0.6-0.7,1.5-1.1,2.5-1.1c1.2,0,2,0.5,2.4,1.4c0.3-0.4,0.6-0.7,1.1-1
			c0.5-0.2,1-0.4,1.6-0.4c1.9,0,2.8,1,2.8,2.9v5.7h-1.4v-5.6c0-0.6-0.1-1.1-0.4-1.4c-0.3-0.3-0.7-0.4-1.4-0.4c-0.5,0-1,0.2-1.3,0.5
			c-0.4,0.3-0.6,0.8-0.6,1.3v5.6h-1.5v-5.5c0-1.2-0.6-1.8-1.8-1.8c-0.9,0-1.6,0.4-1.9,1.2v6.2h-1.4v-8.5H1138.6z"/>
		<path class="st1" d="M1158.4,6243.9c0,1.3-0.3,2.3-0.9,3.1c-0.6,0.8-1.4,1.2-2.4,1.2c-1,0-1.8-0.3-2.4-1v4.1h-1.4v-11.7h1.3
			l0.1,0.9c0.6-0.7,1.4-1.1,2.5-1.1c1,0,1.8,0.4,2.4,1.1c0.6,0.8,0.9,1.8,0.9,3.2V6243.9z M1156.9,6243.7c0-1-0.2-1.7-0.6-2.3
			s-1-0.8-1.7-0.8c-0.9,0-1.5,0.4-2,1.2v4c0.4,0.8,1.1,1.2,2,1.2c0.7,0,1.2-0.3,1.7-0.8C1156.7,6245.6,1156.9,6244.8,1156.9,6243.7z
			"/>
		<path class="st1" d="M1161.8,6248h-1.4v-12h1.4V6248z"/>
		<path class="st1" d="M1167.6,6248.2c-1.1,0-2.1-0.4-2.8-1.1s-1.1-1.8-1.1-3v-0.3c0-0.8,0.2-1.6,0.5-2.2s0.8-1.2,1.3-1.5
			c0.6-0.4,1.2-0.6,1.9-0.6c1.1,0,2,0.4,2.6,1.1s0.9,1.8,0.9,3.1v0.6h-5.7c0,0.8,0.3,1.5,0.7,2c0.5,0.5,1.1,0.8,1.8,0.8
			c0.5,0,0.9-0.1,1.3-0.3c0.4-0.2,0.7-0.5,0.9-0.8l0.9,0.7C1170.1,6247.6,1169,6248.2,1167.6,6248.2z M1167.4,6240.6
			c-0.6,0-1.1,0.2-1.5,0.6c-0.4,0.4-0.6,1-0.7,1.8h4.2v-0.1c0-0.7-0.2-1.3-0.6-1.7C1168.5,6240.8,1168,6240.6,1167.4,6240.6z"/>
		<path class="st1" d="M1174.5,6237.5v2h1.6v1.1h-1.6v5.2c0,0.3,0.1,0.6,0.2,0.8c0.1,0.2,0.4,0.3,0.7,0.3c0.2,0,0.4,0,0.7-0.1v1.2
			c-0.4,0.1-0.8,0.2-1.1,0.2c-0.6,0-1.1-0.2-1.5-0.6s-0.5-0.9-0.5-1.7v-5.2h-1.5v-1.1h1.5v-2H1174.5z"/>
		<path class="st1" d="M1177.3,6243.7c0-0.8,0.2-1.6,0.5-2.2c0.3-0.7,0.8-1.2,1.4-1.5c0.6-0.4,1.2-0.5,2-0.5c1.2,0,2.1,0.4,2.8,1.2
			s1.1,1.9,1.1,3.2v0.1c0,0.8-0.2,1.6-0.5,2.2c-0.3,0.7-0.8,1.2-1.4,1.5s-1.3,0.5-2,0.5c-1.1,0-2.1-0.4-2.8-1.2s-1.1-1.9-1.1-3.2
			V6243.7z M1178.7,6243.9c0,0.9,0.2,1.7,0.7,2.3c0.4,0.6,1,0.9,1.7,0.9c0.7,0,1.3-0.3,1.8-0.9c0.4-0.6,0.6-1.4,0.6-2.4
			c0-0.9-0.2-1.7-0.7-2.3c-0.4-0.6-1-0.9-1.8-0.9c-0.7,0-1.3,0.3-1.7,0.9S1178.7,6242.8,1178.7,6243.9z"/>
	</g>
	<g class="st0">
		<path class="st1" d="M952.1,6267.8h-3.8v-1.2h3.8V6267.8z"/>
		<path class="st1" d="M964,6267h-4.8v5h-1.5v-11.4h7v1.2h-5.5v3.9h4.8V6267z"/>
		<path class="st1" d="M966.3,6261.3c0-0.2,0.1-0.4,0.2-0.6c0.1-0.2,0.4-0.2,0.6-0.2s0.5,0.1,0.6,0.2c0.1,0.2,0.2,0.4,0.2,0.6
			s-0.1,0.4-0.2,0.6c-0.1,0.2-0.4,0.2-0.6,0.2s-0.5-0.1-0.6-0.2C966.4,6261.7,966.3,6261.5,966.3,6261.3z M967.9,6272h-1.4v-8.5h1.4
			V6272z"/>
		<path class="st1" d="M974.3,6264.8c-0.2,0-0.5-0.1-0.7-0.1c-0.9,0-1.6,0.4-1.9,1.2v6h-1.4v-8.5h1.4l0,1c0.5-0.8,1.1-1.1,2-1.1
			c0.3,0,0.5,0,0.6,0.1V6264.8z"/>
		<path class="st1" d="M977,6263.5l0,0.9c0.6-0.7,1.5-1.1,2.5-1.1c1.2,0,2,0.5,2.4,1.4c0.3-0.4,0.6-0.7,1.1-1c0.5-0.2,1-0.4,1.6-0.4
			c1.9,0,2.8,1,2.8,2.9v5.7H986v-5.6c0-0.6-0.1-1.1-0.4-1.4c-0.3-0.3-0.7-0.4-1.4-0.4c-0.5,0-1,0.2-1.3,0.5
			c-0.4,0.3-0.6,0.8-0.6,1.3v5.6h-1.5v-5.5c0-1.2-0.6-1.8-1.8-1.8c-0.9,0-1.6,0.4-1.9,1.2v6.2h-1.4v-8.5H977z"/>
		<path class="st1" d="M994.9,6272c-0.1-0.2-0.2-0.5-0.2-0.9c-0.7,0.7-1.5,1-2.4,1c-0.8,0-1.5-0.2-2.1-0.7c-0.5-0.5-0.8-1.1-0.8-1.8
			c0-0.9,0.3-1.6,1-2.1c0.7-0.5,1.6-0.7,2.8-0.7h1.4v-0.7c0-0.5-0.2-0.9-0.5-1.2c-0.3-0.3-0.7-0.4-1.3-0.4c-0.5,0-0.9,0.1-1.3,0.4
			c-0.3,0.3-0.5,0.6-0.5,0.9h-1.5c0-0.4,0.1-0.8,0.4-1.2c0.3-0.4,0.7-0.7,1.2-0.9c0.5-0.2,1.1-0.3,1.7-0.3c1,0,1.7,0.2,2.3,0.7
			c0.6,0.5,0.8,1.2,0.9,2v3.9c0,0.8,0.1,1.4,0.3,1.9v0.1H994.9z M992.5,6270.9c0.5,0,0.9-0.1,1.3-0.4s0.7-0.5,0.9-0.9v-1.7h-1.1
			c-1.8,0-2.7,0.5-2.7,1.6c0,0.5,0.2,0.8,0.5,1.1C991.6,6270.8,992,6270.9,992.5,6270.9z"/>
		<path class="st1" d="M1001.9,6267.7c0-1.3,0.3-2.3,0.9-3.1c0.6-0.8,1.4-1.2,2.4-1.2c1,0,1.8,0.3,2.4,1v-4.4h1.4v12h-1.3l-0.1-0.9
			c-0.6,0.7-1.4,1.1-2.4,1.1c-1,0-1.8-0.4-2.4-1.2s-0.9-1.8-0.9-3.1V6267.7z M1003.4,6267.9c0,1,0.2,1.7,0.6,2.2
			c0.4,0.5,0.9,0.8,1.6,0.8c0.9,0,1.6-0.4,2-1.2v-3.9c-0.4-0.8-1.1-1.2-2-1.2c-0.7,0-1.3,0.3-1.7,0.8
			C1003.6,6266,1003.4,6266.8,1003.4,6267.9z"/>
		<path class="st1" d="M1014.8,6272.2c-1.1,0-2.1-0.4-2.8-1.1s-1.1-1.8-1.1-3v-0.3c0-0.8,0.2-1.6,0.5-2.2s0.8-1.2,1.3-1.5
			c0.6-0.4,1.2-0.6,1.9-0.6c1.1,0,2,0.4,2.6,1.1s0.9,1.8,0.9,3.1v0.6h-5.7c0,0.8,0.3,1.5,0.7,2c0.5,0.5,1.1,0.8,1.8,0.8
			c0.5,0,0.9-0.1,1.3-0.3c0.4-0.2,0.7-0.5,0.9-0.8l0.9,0.7C1017.3,6271.6,1016.2,6272.2,1014.8,6272.2z M1014.6,6264.6
			c-0.6,0-1.1,0.2-1.5,0.6c-0.4,0.4-0.6,1-0.7,1.8h4.2v-0.1c0-0.7-0.2-1.3-0.6-1.7C1015.7,6264.8,1015.3,6264.6,1014.6,6264.6z"/>
		<path class="st1" d="M1026.5,6270l2.1-6.5h1.5l-3,8.5h-1.1l-3.1-8.5h1.5L1026.5,6270z"/>
		<path class="st1" d="M1036.6,6272c-0.1-0.2-0.2-0.5-0.2-0.9c-0.7,0.7-1.5,1-2.4,1c-0.8,0-1.5-0.2-2.1-0.7
			c-0.5-0.5-0.8-1.1-0.8-1.8c0-0.9,0.3-1.6,1-2.1c0.7-0.5,1.6-0.7,2.8-0.7h1.4v-0.7c0-0.5-0.2-0.9-0.5-1.2c-0.3-0.3-0.7-0.4-1.3-0.4
			c-0.5,0-0.9,0.1-1.3,0.4c-0.3,0.3-0.5,0.6-0.5,0.9h-1.5c0-0.4,0.1-0.8,0.4-1.2c0.3-0.4,0.7-0.7,1.2-0.9c0.5-0.2,1.1-0.3,1.7-0.3
			c1,0,1.7,0.2,2.3,0.7c0.6,0.5,0.8,1.2,0.9,2v3.9c0,0.8,0.1,1.4,0.3,1.9v0.1H1036.6z M1034.2,6270.9c0.5,0,0.9-0.1,1.3-0.4
			s0.7-0.5,0.9-0.9v-1.7h-1.1c-1.8,0-2.7,0.5-2.7,1.6c0,0.5,0.2,0.8,0.5,1.1C1033.3,6270.8,1033.7,6270.9,1034.2,6270.9z"/>
		<path class="st1" d="M1041.7,6272h-1.4v-12h1.4V6272z"/>
		<path class="st1" d="M1044,6261.3c0-0.2,0.1-0.4,0.2-0.6c0.1-0.2,0.4-0.2,0.6-0.2s0.5,0.1,0.6,0.2c0.1,0.2,0.2,0.4,0.2,0.6
			s-0.1,0.4-0.2,0.6c-0.1,0.2-0.4,0.2-0.6,0.2s-0.5-0.1-0.6-0.2C1044.1,6261.7,1044,6261.5,1044,6261.3z M1045.5,6272h-1.4v-8.5h1.4
			V6272z"/>
		<path class="st1" d="M1047.5,6267.7c0-1.3,0.3-2.3,0.9-3.1c0.6-0.8,1.4-1.2,2.4-1.2c1,0,1.8,0.3,2.4,1v-4.4h1.4v12h-1.3l-0.1-0.9
			c-0.6,0.7-1.4,1.1-2.4,1.1c-1,0-1.8-0.4-2.4-1.2s-0.9-1.8-0.9-3.1V6267.7z M1049,6267.9c0,1,0.2,1.7,0.6,2.2
			c0.4,0.5,0.9,0.8,1.6,0.8c0.9,0,1.6-0.4,2-1.2v-3.9c-0.4-0.8-1.1-1.2-2-1.2c-0.7,0-1.3,0.3-1.7,0.8
			C1049.2,6266,1049,6266.8,1049,6267.9z"/>
		<path class="st1" d="M1062.1,6272c-0.1-0.2-0.2-0.5-0.2-0.9c-0.7,0.7-1.5,1-2.4,1c-0.8,0-1.5-0.2-2.1-0.7
			c-0.5-0.5-0.8-1.1-0.8-1.8c0-0.9,0.3-1.6,1-2.1c0.7-0.5,1.6-0.7,2.8-0.7h1.4v-0.7c0-0.5-0.2-0.9-0.5-1.2c-0.3-0.3-0.7-0.4-1.3-0.4
			c-0.5,0-0.9,0.1-1.3,0.4c-0.3,0.3-0.5,0.6-0.5,0.9h-1.5c0-0.4,0.1-0.8,0.4-1.2c0.3-0.4,0.7-0.7,1.2-0.9c0.5-0.2,1.1-0.3,1.7-0.3
			c1,0,1.7,0.2,2.3,0.7c0.6,0.5,0.8,1.2,0.9,2v3.9c0,0.8,0.1,1.4,0.3,1.9v0.1H1062.1z M1059.7,6270.9c0.5,0,0.9-0.1,1.3-0.4
			s0.7-0.5,0.9-0.9v-1.7h-1.1c-1.8,0-2.7,0.5-2.7,1.6c0,0.5,0.2,0.8,0.5,1.1C1058.8,6270.8,1059.2,6270.9,1059.7,6270.9z"/>
		<path class="st1" d="M1069,6271c0.5,0,1-0.2,1.4-0.5c0.4-0.3,0.6-0.7,0.6-1.2h1.4c0,0.5-0.2,0.9-0.5,1.4c-0.3,0.4-0.7,0.8-1.2,1
			c-0.5,0.3-1.1,0.4-1.6,0.4c-1.2,0-2.1-0.4-2.7-1.2s-1-1.8-1-3.2v-0.2c0-0.8,0.2-1.6,0.5-2.2c0.3-0.6,0.7-1.1,1.3-1.5
			c0.6-0.4,1.2-0.5,2-0.5c0.9,0,1.7,0.3,2.4,0.9c0.6,0.6,1,1.3,1,2.2h-1.4c0-0.5-0.2-1-0.6-1.3c-0.4-0.4-0.8-0.5-1.4-0.5
			c-0.7,0-1.3,0.3-1.7,0.8c-0.4,0.5-0.6,1.3-0.6,2.3v0.3c0,1,0.2,1.7,0.6,2.2C1067.7,6270.7,1068.2,6271,1069,6271z"/>
		<path class="st1" d="M1074,6261.3c0-0.2,0.1-0.4,0.2-0.6c0.1-0.2,0.4-0.2,0.6-0.2s0.5,0.1,0.6,0.2c0.1,0.2,0.2,0.4,0.2,0.6
			s-0.1,0.4-0.2,0.6c-0.1,0.2-0.4,0.2-0.6,0.2s-0.5-0.1-0.6-0.2C1074,6261.7,1074,6261.5,1074,6261.3z M1075.5,6272h-1.4v-8.5h1.4
			V6272z"/>
		<path class="st1" d="M1077.5,6267.7c0-0.8,0.2-1.6,0.5-2.2c0.3-0.7,0.8-1.2,1.4-1.5c0.6-0.4,1.2-0.5,2-0.5c1.2,0,2.1,0.4,2.8,1.2
			s1.1,1.9,1.1,3.2v0.1c0,0.8-0.2,1.6-0.5,2.2c-0.3,0.7-0.8,1.2-1.4,1.5s-1.3,0.5-2,0.5c-1.1,0-2.1-0.4-2.8-1.2s-1.1-1.9-1.1-3.2
			V6267.7z M1078.9,6267.9c0,0.9,0.2,1.7,0.7,2.3c0.4,0.6,1,0.9,1.7,0.9c0.7,0,1.3-0.3,1.8-0.9c0.4-0.6,0.6-1.4,0.6-2.4
			c0-0.9-0.2-1.7-0.7-2.3c-0.4-0.6-1-0.9-1.8-0.9c-0.7,0-1.3,0.3-1.7,0.9S1078.9,6266.8,1078.9,6267.9z M1082,6260h1.8l-2.1,2.3
			l-1.2,0L1082,6260z"/>
		<path class="st1" d="M1088.3,6263.5l0,1.1c0.6-0.8,1.5-1.2,2.5-1.2c1.8,0,2.7,1,2.7,3v5.6h-1.4v-5.6c0-0.6-0.1-1.1-0.4-1.4
			s-0.7-0.4-1.3-0.4c-0.5,0-0.9,0.1-1.2,0.4c-0.4,0.2-0.6,0.6-0.8,1v6h-1.4v-8.5H1088.3z"/>
	</g>
	<path id="Rectngulo_5932" class="st2" d="M777,6039h129c7.7,0,14,6.3,14,14v22c0,7.7-6.3,14-14,14H777c-7.7,0-14-6.3-14-14v-22
		C763,6045.3,769.3,6039,777,6039z"/>
	<path id="Rectngulo_5933" class="st3" d="M777,6183h129c7.7,0,14,6.3,14,14v22c0,7.7-6.3,14-14,14H777c-7.7,0-14-6.3-14-14v-22
		C763,6189.3,769.3,6183,777,6183z"/>
	<path id="Rectngulo_5934" class="st4" d="M777,6325h129c7.7,0,14,6.3,14,14v22c0,7.7-6.3,14-14,14H777c-7.7,0-14-6.3-14-14v-22
		C763,6331.3,769.3,6325,777,6325z"/>
	<g class="st0">
		<path class="st1" d="M795.4,6063v4H793v-11.4h4.4c0.9,0,1.6,0.2,2.3,0.5s1.1,0.8,1.5,1.3c0.3,0.6,0.5,1.2,0.5,2
			c0,1.1-0.4,2-1.1,2.6c-0.8,0.6-1.8,1-3.2,1H795.4z M795.4,6061.1h2.1c0.6,0,1.1-0.1,1.4-0.4c0.3-0.3,0.5-0.7,0.5-1.2
			c0-0.6-0.2-1-0.5-1.4s-0.8-0.5-1.4-0.5h-2.1V6061.1z"/>
		<path class="st1" d="M807.9,6060.7c-0.3,0-0.6-0.1-0.8-0.1c-0.9,0-1.4,0.3-1.7,0.9v5.5h-2.3v-8.5h2.1l0.1,1
			c0.5-0.8,1.1-1.2,1.9-1.2c0.2,0,0.5,0,0.7,0.1L807.9,6060.7z"/>
		<path class="st1" d="M808.4,6062.7c0-0.8,0.2-1.6,0.5-2.2c0.3-0.7,0.8-1.2,1.4-1.5c0.6-0.4,1.3-0.5,2.1-0.5c1.1,0,2.1,0.3,2.8,1
			c0.7,0.7,1.1,1.6,1.2,2.8l0,0.6c0,1.3-0.4,2.3-1.1,3.1c-0.7,0.8-1.7,1.2-2.9,1.2s-2.2-0.4-2.9-1.2s-1.1-1.8-1.1-3.2V6062.7z
			 M810.6,6062.9c0,0.8,0.2,1.4,0.5,1.8c0.3,0.4,0.7,0.6,1.3,0.6c0.5,0,1-0.2,1.3-0.6c0.3-0.4,0.5-1.1,0.5-2c0-0.8-0.2-1.4-0.5-1.8
			c-0.3-0.4-0.7-0.6-1.3-0.6c-0.6,0-1,0.2-1.3,0.6C810.8,6061.3,810.6,6062,810.6,6062.9z"/>
		<path class="st1" d="M821.3,6065.3c0.4,0,0.8-0.1,1-0.3c0.3-0.2,0.4-0.5,0.4-0.9h2.1c0,0.6-0.2,1.1-0.5,1.6
			c-0.3,0.5-0.7,0.8-1.3,1.1c-0.5,0.3-1.1,0.4-1.8,0.4c-1.2,0-2.2-0.4-2.9-1.2c-0.7-0.8-1-1.8-1-3.2v-0.1c0-1.3,0.3-2.3,1-3.1
			c0.7-0.8,1.6-1.2,2.9-1.2c1.1,0,1.9,0.3,2.5,0.9c0.6,0.6,1,1.4,1,2.4h-2.1c0-0.4-0.1-0.8-0.4-1.1c-0.3-0.3-0.6-0.4-1-0.4
			c-0.5,0-0.9,0.2-1.2,0.6c-0.3,0.4-0.4,1-0.4,1.9v0.2c0,0.9,0.1,1.5,0.4,1.9S820.8,6065.3,821.3,6065.3z"/>
		<path class="st1" d="M830,6067.2c-1.2,0-2.2-0.4-3-1.1c-0.8-0.8-1.2-1.8-1.2-3v-0.2c0-0.8,0.2-1.6,0.5-2.3s0.8-1.2,1.4-1.5
			s1.3-0.5,2.1-0.5c1.2,0,2.1,0.4,2.7,1.1s1,1.8,1,3.1v0.9h-5.4c0.1,0.6,0.3,1,0.7,1.3s0.8,0.5,1.4,0.5c0.9,0,1.5-0.3,2-0.9l1.1,1.2
			c-0.3,0.5-0.8,0.9-1.4,1.1S830.7,6067.2,830,6067.2z M829.8,6060.2c-0.4,0-0.8,0.2-1.1,0.5c-0.3,0.3-0.5,0.7-0.5,1.3h3.1v-0.2
			c0-0.5-0.1-0.9-0.4-1.2C830.6,6060.3,830.2,6060.2,829.8,6060.2z"/>
		<path class="st1" d="M834.4,6062.7c0-1.3,0.3-2.4,0.9-3.1c0.6-0.8,1.4-1.2,2.4-1.2c0.8,0,1.5,0.3,2,0.9v-4.3h2.3v12h-2l-0.1-0.9
			c-0.6,0.7-1.3,1.1-2.2,1.1c-1,0-1.8-0.4-2.4-1.2S834.4,6064.1,834.4,6062.7z M836.7,6062.9c0,0.8,0.1,1.4,0.4,1.8
			c0.3,0.4,0.7,0.6,1.2,0.6c0.7,0,1.2-0.3,1.5-0.9v-3.4c-0.3-0.6-0.8-0.9-1.5-0.9C837.2,6060.2,836.7,6061.1,836.7,6062.9z"/>
		<path class="st1" d="M847.7,6067.2c-1.2,0-2.2-0.4-3-1.1c-0.8-0.8-1.2-1.8-1.2-3v-0.2c0-0.8,0.2-1.6,0.5-2.3s0.8-1.2,1.4-1.5
			s1.3-0.5,2.1-0.5c1.2,0,2.1,0.4,2.7,1.1s1,1.8,1,3.1v0.9h-5.4c0.1,0.6,0.3,1,0.7,1.3s0.8,0.5,1.4,0.5c0.9,0,1.5-0.3,2-0.9l1.1,1.2
			c-0.3,0.5-0.8,0.9-1.4,1.1S848.4,6067.2,847.7,6067.2z M847.4,6060.2c-0.4,0-0.8,0.2-1.1,0.5c-0.3,0.3-0.5,0.7-0.5,1.3h3.1v-0.2
			c0-0.5-0.1-0.9-0.4-1.2C848.3,6060.3,847.9,6060.2,847.4,6060.2z"/>
		<path class="st1" d="M854.5,6058.5l0.1,1c0.6-0.8,1.4-1.1,2.4-1.1c0.9,0,1.6,0.3,2,0.8s0.7,1.3,0.7,2.4v5.5h-2.3v-5.4
			c0-0.5-0.1-0.8-0.3-1c-0.2-0.2-0.6-0.3-1-0.3c-0.6,0-1.1,0.3-1.4,0.8v6h-2.3v-8.5H854.5z"/>
		<path class="st1" d="M864.9,6065.3c0.4,0,0.8-0.1,1-0.3c0.3-0.2,0.4-0.5,0.4-0.9h2.1c0,0.6-0.2,1.1-0.5,1.6
			c-0.3,0.5-0.7,0.8-1.3,1.1c-0.5,0.3-1.1,0.4-1.8,0.4c-1.2,0-2.2-0.4-2.9-1.2c-0.7-0.8-1-1.8-1-3.2v-0.1c0-1.3,0.3-2.3,1-3.1
			c0.7-0.8,1.6-1.2,2.9-1.2c1.1,0,1.9,0.3,2.5,0.9c0.6,0.6,1,1.4,1,2.4h-2.1c0-0.4-0.1-0.8-0.4-1.1c-0.3-0.3-0.6-0.4-1-0.4
			c-0.5,0-0.9,0.2-1.2,0.6c-0.3,0.4-0.4,1-0.4,1.9v0.2c0,0.9,0.1,1.5,0.4,1.9S864.4,6065.3,864.9,6065.3z"/>
		<path class="st1" d="M869.7,6056.4c0-0.3,0.1-0.6,0.3-0.8s0.5-0.3,0.9-0.3c0.4,0,0.7,0.1,0.9,0.3c0.2,0.2,0.3,0.5,0.3,0.8
			c0,0.3-0.1,0.6-0.3,0.8c-0.2,0.2-0.5,0.3-0.9,0.3c-0.4,0-0.7-0.1-0.9-0.3C869.8,6057,869.7,6056.7,869.7,6056.4z M872.1,6067h-2.3
			v-8.5h2.3V6067z"/>
		<path class="st1" d="M878.9,6067c-0.1-0.2-0.2-0.5-0.2-0.8c-0.5,0.6-1.3,0.9-2.1,0.9c-0.8,0-1.5-0.2-2.1-0.7
			c-0.5-0.5-0.8-1.1-0.8-1.8c0-0.9,0.3-1.6,1-2.1s1.6-0.7,2.9-0.7h1v-0.5c0-0.4-0.1-0.7-0.3-0.9c-0.2-0.2-0.5-0.4-0.9-0.4
			c-0.4,0-0.7,0.1-0.9,0.3c-0.2,0.2-0.3,0.4-0.3,0.8h-2.3c0-0.5,0.2-0.9,0.5-1.4c0.3-0.4,0.7-0.7,1.3-1c0.6-0.2,1.2-0.4,1.9-0.4
			c1,0,1.9,0.3,2.5,0.8c0.6,0.5,0.9,1.3,0.9,2.2v3.7c0,0.8,0.1,1.4,0.3,1.8v0.1H878.9z M877,6065.4c0.3,0,0.6-0.1,0.9-0.2
			s0.5-0.3,0.6-0.6v-1.5h-0.8c-1.1,0-1.7,0.4-1.8,1.2l0,0.1c0,0.3,0.1,0.5,0.3,0.7C876.4,6065.3,876.7,6065.4,877,6065.4z"/>
	</g>
	<g class="st0">
		<path class="st1" d="M799.9,6206.1h-4.5v3.1h5.3v1.9H793v-11.4h7.6v1.9h-5.3v2.7h4.5V6206.1z"/>
		<path class="st1" d="M806.4,6208.7c0-0.3-0.1-0.5-0.4-0.7s-0.7-0.3-1.3-0.4c-2-0.4-3-1.3-3-2.6c0-0.8,0.3-1.4,0.9-1.9
			c0.6-0.5,1.4-0.8,2.4-0.8c1.1,0,1.9,0.3,2.6,0.8c0.6,0.5,1,1.2,1,2h-2.3c0-0.3-0.1-0.6-0.3-0.8c-0.2-0.2-0.5-0.3-1-0.3
			c-0.4,0-0.7,0.1-0.9,0.3c-0.2,0.2-0.3,0.4-0.3,0.7c0,0.2,0.1,0.5,0.4,0.6c0.2,0.2,0.6,0.3,1.2,0.4s1,0.2,1.4,0.4
			c1.2,0.4,1.8,1.2,1.8,2.3c0,0.8-0.3,1.4-1,1.9c-0.7,0.5-1.5,0.7-2.6,0.7c-0.7,0-1.3-0.1-1.9-0.4c-0.5-0.3-1-0.6-1.3-1
			s-0.5-0.9-0.5-1.4h2.1c0,0.4,0.2,0.7,0.4,0.9c0.3,0.2,0.6,0.3,1.1,0.3c0.4,0,0.8-0.1,1-0.2
			C806.3,6209.1,806.4,6208.9,806.4,6208.7z"/>
		<path class="st1" d="M812.8,6200.5v2.1h1.4v1.7h-1.4v4.2c0,0.3,0.1,0.5,0.2,0.7c0.1,0.1,0.3,0.2,0.7,0.2c0.2,0,0.5,0,0.7-0.1v1.7
			c-0.4,0.1-0.9,0.2-1.4,0.2c-1.6,0-2.4-0.8-2.4-2.4v-4.6h-1.2v-1.7h1.2v-2.1H812.8z"/>
		<path class="st1" d="M820.2,6204.7c-0.3,0-0.6-0.1-0.8-0.1c-0.9,0-1.4,0.3-1.7,0.9v5.5h-2.3v-8.5h2.1l0.1,1
			c0.5-0.8,1.1-1.2,1.9-1.2c0.2,0,0.5,0,0.7,0.1L820.2,6204.7z"/>
		<path class="st1" d="M826.4,6210.1c-0.6,0.7-1.3,1-2.3,1c-0.9,0-1.6-0.3-2.1-0.8s-0.7-1.3-0.7-2.3v-5.5h2.3v5.5
			c0,0.9,0.4,1.3,1.2,1.3c0.8,0,1.3-0.3,1.6-0.8v-6h2.3v8.5h-2.1L826.4,6210.1z"/>
		<path class="st1" d="M833.8,6209.3c0.4,0,0.8-0.1,1-0.3c0.3-0.2,0.4-0.5,0.4-0.9h2.1c0,0.6-0.2,1.1-0.5,1.6
			c-0.3,0.5-0.7,0.8-1.3,1.1c-0.5,0.3-1.1,0.4-1.8,0.4c-1.2,0-2.2-0.4-2.9-1.2c-0.7-0.8-1-1.8-1-3.2v-0.1c0-1.3,0.3-2.3,1-3.1
			c0.7-0.8,1.6-1.2,2.9-1.2c1.1,0,1.9,0.3,2.5,0.9c0.6,0.6,1,1.4,1,2.4h-2.1c0-0.4-0.1-0.8-0.4-1.1c-0.3-0.3-0.6-0.4-1-0.4
			c-0.5,0-0.9,0.2-1.2,0.6c-0.3,0.4-0.4,1-0.4,1.9v0.2c0,0.9,0.1,1.5,0.4,1.9S833.3,6209.3,833.8,6209.3z"/>
		<path class="st1" d="M841.3,6200.5v2.1h1.4v1.7h-1.4v4.2c0,0.3,0.1,0.5,0.2,0.7c0.1,0.1,0.3,0.2,0.7,0.2c0.2,0,0.5,0,0.7-0.1v1.7
			c-0.4,0.1-0.9,0.2-1.4,0.2c-1.6,0-2.4-0.8-2.4-2.4v-4.6h-1.2v-1.7h1.2v-2.1H841.3z"/>
		<path class="st1" d="M849.1,6210.1c-0.6,0.7-1.3,1-2.3,1c-0.9,0-1.6-0.3-2.1-0.8s-0.7-1.3-0.7-2.3v-5.5h2.3v5.5
			c0,0.9,0.4,1.3,1.2,1.3c0.8,0,1.3-0.3,1.6-0.8v-6h2.3v8.5h-2.1L849.1,6210.1z"/>
		<path class="st1" d="M857.7,6204.7c-0.3,0-0.6-0.1-0.8-0.1c-0.9,0-1.4,0.3-1.7,0.9v5.5H853v-8.5h2.1l0.1,1
			c0.5-0.8,1.1-1.2,1.9-1.2c0.2,0,0.5,0,0.7,0.1L857.7,6204.7z"/>
		<path class="st1" d="M863.5,6211c-0.1-0.2-0.2-0.5-0.2-0.8c-0.5,0.6-1.3,0.9-2.1,0.9c-0.8,0-1.5-0.2-2.1-0.7
			c-0.5-0.5-0.8-1.1-0.8-1.8c0-0.9,0.3-1.6,1-2.1s1.6-0.7,2.9-0.7h1v-0.5c0-0.4-0.1-0.7-0.3-0.9c-0.2-0.2-0.5-0.4-0.9-0.4
			c-0.4,0-0.7,0.1-0.9,0.3c-0.2,0.2-0.3,0.4-0.3,0.8h-2.3c0-0.5,0.2-0.9,0.5-1.4c0.3-0.4,0.7-0.7,1.3-1c0.6-0.2,1.2-0.4,1.9-0.4
			c1,0,1.9,0.3,2.5,0.8c0.6,0.5,0.9,1.3,0.9,2.2v3.7c0,0.8,0.1,1.4,0.3,1.8v0.1H863.5z M861.6,6209.4c0.3,0,0.6-0.1,0.9-0.2
			s0.5-0.3,0.6-0.6v-1.5h-0.8c-1.1,0-1.7,0.4-1.8,1.2l0,0.1c0,0.3,0.1,0.5,0.3,0.7C861,6209.3,861.3,6209.4,861.6,6209.4z"/>
	</g>
	<g class="st0">
		<path class="st1" d="M799.9,6348.4h-4.5v4.6H793v-11.4h7.4v1.9h-5.1v2.9h4.5V6348.4z"/>
		<path class="st1" d="M806.5,6352.1c-0.6,0.7-1.3,1-2.3,1c-0.9,0-1.6-0.3-2.1-0.8s-0.7-1.3-0.7-2.3v-5.5h2.3v5.5
			c0,0.9,0.4,1.3,1.2,1.3c0.8,0,1.3-0.3,1.6-0.8v-6h2.3v8.5h-2.1L806.5,6352.1z"/>
		<path class="st1" d="M812.5,6344.5l0.1,1c0.6-0.8,1.4-1.1,2.4-1.1c0.9,0,1.6,0.3,2,0.8s0.7,1.3,0.7,2.4v5.5h-2.3v-5.4
			c0-0.5-0.1-0.8-0.3-1c-0.2-0.2-0.6-0.3-1-0.3c-0.6,0-1.1,0.3-1.4,0.8v6h-2.3v-8.5H812.5z"/>
		<path class="st1" d="M822.9,6351.3c0.4,0,0.8-0.1,1-0.3c0.3-0.2,0.4-0.5,0.4-0.9h2.1c0,0.6-0.2,1.1-0.5,1.6
			c-0.3,0.5-0.7,0.8-1.3,1.1c-0.5,0.3-1.1,0.4-1.8,0.4c-1.2,0-2.2-0.4-2.9-1.2c-0.7-0.8-1-1.8-1-3.2v-0.1c0-1.3,0.3-2.3,1-3.1
			c0.7-0.8,1.6-1.2,2.9-1.2c1.1,0,1.9,0.3,2.5,0.9c0.6,0.6,1,1.4,1,2.4h-2.1c0-0.4-0.1-0.8-0.4-1.1c-0.3-0.3-0.6-0.4-1-0.4
			c-0.5,0-0.9,0.2-1.2,0.6c-0.3,0.4-0.4,1-0.4,1.9v0.2c0,0.9,0.1,1.5,0.4,1.9S822.3,6351.3,822.9,6351.3z"/>
		<path class="st1" d="M827.7,6342.4c0-0.3,0.1-0.6,0.3-0.8s0.5-0.3,0.9-0.3c0.4,0,0.7,0.1,0.9,0.3c0.2,0.2,0.3,0.5,0.3,0.8
			c0,0.3-0.1,0.6-0.3,0.8c-0.2,0.2-0.5,0.3-0.9,0.3c-0.4,0-0.7-0.1-0.9-0.3C827.8,6343,827.7,6342.7,827.7,6342.4z M830.1,6353h-2.3
			v-8.5h2.3V6353z"/>
		<path class="st1" d="M831.6,6348.7c0-0.8,0.2-1.6,0.5-2.2c0.3-0.7,0.8-1.2,1.4-1.5c0.6-0.4,1.3-0.5,2.1-0.5c1.1,0,2.1,0.3,2.8,1
			c0.7,0.7,1.1,1.6,1.2,2.8l0,0.6c0,1.3-0.4,2.3-1.1,3.1c-0.7,0.8-1.7,1.2-2.9,1.2s-2.2-0.4-2.9-1.2s-1.1-1.8-1.1-3.2V6348.7z
			 M833.9,6348.9c0,0.8,0.2,1.4,0.5,1.8c0.3,0.4,0.7,0.6,1.3,0.6c0.5,0,1-0.2,1.3-0.6c0.3-0.4,0.5-1.1,0.5-2c0-0.8-0.2-1.4-0.5-1.8
			c-0.3-0.4-0.7-0.6-1.3-0.6c-0.6,0-1,0.2-1.3,0.6C834,6347.3,833.9,6348,833.9,6348.9z"/>
		<path class="st1" d="M843.1,6344.5l0.1,1c0.6-0.8,1.4-1.1,2.4-1.1c0.9,0,1.6,0.3,2,0.8s0.7,1.3,0.7,2.4v5.5H846v-5.4
			c0-0.5-0.1-0.8-0.3-1c-0.2-0.2-0.6-0.3-1-0.3c-0.6,0-1.1,0.3-1.4,0.8v6H841v-8.5H843.1z"/>
		<path class="st1" d="M853.9,6353.2c-1.2,0-2.2-0.4-3-1.1c-0.8-0.8-1.2-1.8-1.2-3v-0.2c0-0.8,0.2-1.6,0.5-2.3s0.8-1.2,1.4-1.5
			s1.3-0.5,2.1-0.5c1.2,0,2.1,0.4,2.7,1.1s1,1.8,1,3.1v0.9H852c0.1,0.6,0.3,1,0.7,1.3s0.8,0.5,1.4,0.5c0.9,0,1.5-0.3,2-0.9l1.1,1.2
			c-0.3,0.5-0.8,0.9-1.4,1.1S854.6,6353.2,853.9,6353.2z M853.6,6346.2c-0.4,0-0.8,0.2-1.1,0.5c-0.3,0.3-0.5,0.7-0.5,1.3h3.1v-0.2
			c0-0.5-0.1-0.9-0.4-1.2C854.5,6346.3,854.1,6346.2,853.6,6346.2z"/>
		<path class="st1" d="M863.2,6350.7c0-0.3-0.1-0.5-0.4-0.7s-0.7-0.3-1.3-0.4c-2-0.4-3-1.3-3-2.6c0-0.8,0.3-1.4,0.9-1.9
			c0.6-0.5,1.4-0.8,2.4-0.8c1.1,0,1.9,0.3,2.6,0.8c0.6,0.5,1,1.2,1,2h-2.3c0-0.3-0.1-0.6-0.3-0.8c-0.2-0.2-0.5-0.3-1-0.3
			c-0.4,0-0.7,0.1-0.9,0.3c-0.2,0.2-0.3,0.4-0.3,0.7c0,0.2,0.1,0.5,0.4,0.6c0.2,0.2,0.6,0.3,1.2,0.4s1,0.2,1.4,0.4
			c1.2,0.4,1.8,1.2,1.8,2.3c0,0.8-0.3,1.4-1,1.9c-0.7,0.5-1.5,0.7-2.6,0.7c-0.7,0-1.3-0.1-1.9-0.4c-0.5-0.3-1-0.6-1.3-1
			s-0.5-0.9-0.5-1.4h2.1c0,0.4,0.2,0.7,0.4,0.9c0.3,0.2,0.6,0.3,1.1,0.3c0.4,0,0.8-0.1,1-0.2
			C863.1,6351.1,863.2,6350.9,863.2,6350.7z"/>
	</g>
	<g id="Grupo_55762" transform="translate(-2374.111 5067.747)">
		<path id="Rectngulo_5932-2" class="st5" d="M2551.8,1228.8h172.4c10.3,0,18.7,6.3,18.7,14v22c0,7.7-8.4,14-18.7,14h-172.4
			c-10.3,0-18.7-6.3-18.7-14v-22C2533.1,1235.1,2541.5,1228.8,2551.8,1228.8z"/>
		<path id="Rectngulo_5932-3" class="st5" d="M2861.3,1228.8h109.9c6.6,0,11.9,6.3,11.9,14v22c0,7.7-5.3,14-11.9,14h-109.9
			c-6.6,0-11.9-6.3-11.9-14v-22C2849.4,1235.1,2854.7,1228.8,2861.3,1228.8z"/>
		<g id="Verificar_">
			<g class="st0">
				<path class="st6" d="M2605.5,1258l3.2-10.7h3.3l-5,14.2h-3.1l-4.9-14.2h3.3L2605.5,1258z"/>
				<path class="st6" d="M2617.6,1261.7c-1.5,0-2.8-0.5-3.8-1.4s-1.5-2.2-1.5-3.8v-0.3c0-1.1,0.2-2,0.6-2.8s1-1.5,1.7-1.9
					s1.6-0.7,2.6-0.7c1.4,0,2.6,0.5,3.4,1.4s1.2,2.2,1.2,3.9v1.2h-6.7c0.1,0.7,0.4,1.2,0.8,1.7s1,0.6,1.7,0.6c1.1,0,1.9-0.4,2.5-1.2
					l1.4,1.6c-0.4,0.6-1,1.1-1.7,1.4S2618.5,1261.7,2617.6,1261.7z M2617.3,1253c-0.6,0-1,0.2-1.4,0.6c-0.3,0.4-0.6,0.9-0.7,1.6h3.9
					v-0.2c0-0.6-0.2-1.1-0.5-1.5C2618.3,1253.2,2617.9,1253,2617.3,1253z"/>
				<path class="st6" d="M2629.5,1253.6c-0.4-0.1-0.7-0.1-1-0.1c-1.1,0-1.8,0.4-2.1,1.1v6.9h-2.8v-10.6h2.7l0.1,1.3
					c0.6-1,1.4-1.5,2.4-1.5c0.3,0,0.6,0,0.9,0.1L2629.5,1253.6z"/>
				<path class="st6" d="M2630.8,1248.2c0-0.4,0.1-0.8,0.4-1s0.7-0.4,1.2-0.4c0.5,0,0.9,0.1,1.2,0.4s0.4,0.6,0.4,1
					c0,0.4-0.1,0.8-0.4,1.1s-0.7,0.4-1.1,0.4s-0.9-0.1-1.1-0.4S2630.8,1248.6,2630.8,1248.2z M2633.8,1261.5h-2.8v-10.6h2.8V1261.5z
					"/>
				<path class="st6" d="M2636.9,1261.5v-8.5h-1.6v-2.1h1.6v-0.9c0-1.2,0.3-2.1,1-2.8s1.6-1,2.9-1c0.4,0,0.9,0.1,1.4,0.2l0,2.2
					c-0.2-0.1-0.5-0.1-0.9-0.1c-1.1,0-1.6,0.5-1.6,1.5v0.9h2.1v2.1h-2.1v8.5H2636.9z"/>
				<path class="st6" d="M2643.3,1248.2c0-0.4,0.1-0.8,0.4-1s0.7-0.4,1.2-0.4c0.5,0,0.9,0.1,1.2,0.4s0.4,0.6,0.4,1
					c0,0.4-0.1,0.8-0.4,1.1s-0.7,0.4-1.1,0.4s-0.9-0.1-1.1-0.4S2643.3,1248.6,2643.3,1248.2z M2646.3,1261.5h-2.8v-10.6h2.8V1261.5z
					"/>
				<path class="st6" d="M2653,1259.4c0.5,0,0.9-0.1,1.3-0.4s0.5-0.7,0.5-1.1h2.6c0,0.7-0.2,1.4-0.6,2s-0.9,1.1-1.6,1.4
					s-1.4,0.5-2.2,0.5c-1.5,0-2.7-0.5-3.6-1.4s-1.3-2.3-1.3-4v-0.2c0-1.6,0.4-2.9,1.3-3.9s2.1-1.5,3.6-1.5c1.3,0,2.4,0.4,3.2,1.1
					s1.2,1.8,1.2,3h-2.6c0-0.5-0.2-1-0.5-1.3s-0.8-0.5-1.3-0.5c-0.7,0-1.2,0.2-1.5,0.7s-0.5,1.3-0.5,2.3v0.3c0,1.1,0.2,1.9,0.5,2.3
					S2652.3,1259.4,2653,1259.4z"/>
				<path class="st6" d="M2665.2,1261.5c-0.1-0.3-0.2-0.6-0.3-0.9c-0.7,0.8-1.6,1.1-2.7,1.1c-1,0-1.9-0.3-2.6-0.9s-1-1.4-1-2.3
					c0-1.1,0.4-2,1.2-2.6s2-0.9,3.6-0.9h1.3v-0.6c0-0.5-0.1-0.9-0.4-1.2s-0.6-0.4-1.2-0.4c-0.5,0-0.8,0.1-1.1,0.3s-0.4,0.5-0.4,0.9
					h-2.8c0-0.6,0.2-1.2,0.6-1.7s0.9-0.9,1.6-1.2s1.5-0.4,2.3-0.4c1.3,0,2.3,0.3,3.1,1s1.1,1.6,1.1,2.8v4.6c0,1,0.1,1.8,0.4,2.3v0.2
					H2665.2z M2662.8,1259.5c0.4,0,0.8-0.1,1.2-0.3s0.6-0.4,0.8-0.7v-1.8h-1.1c-1.4,0-2.2,0.5-2.3,1.5l0,0.2c0,0.4,0.1,0.6,0.4,0.9
					S2662.4,1259.5,2662.8,1259.5z"/>
				<path class="st6" d="M2675.7,1253.6c-0.4-0.1-0.7-0.1-1-0.1c-1.1,0-1.8,0.4-2.1,1.1v6.9h-2.8v-10.6h2.7l0.1,1.3
					c0.6-1,1.4-1.5,2.4-1.5c0.3,0,0.6,0,0.9,0.1L2675.7,1253.6z"/>
			</g>
		</g>
		<g id="Identificar_">
			<g class="st0">
				<path class="st6" d="M2879.5,1261.7h-2.9v-14.2h2.9V1261.7z"/>
				<path class="st6" d="M2881.6,1256.3c0-1.6,0.4-3,1.1-3.9s1.7-1.5,3-1.5c1,0,1.9,0.4,2.5,1.2v-5.4h2.8v15h-2.5l-0.1-1.1
					c-0.7,0.9-1.6,1.3-2.7,1.3c-1.2,0-2.2-0.5-3-1.5S2881.6,1258.1,2881.6,1256.3z M2884.4,1256.5c0,1,0.2,1.8,0.5,2.3
					c0.3,0.5,0.8,0.8,1.5,0.8c0.9,0,1.5-0.4,1.8-1.1v-4.2c-0.4-0.7-1-1.1-1.8-1.1C2885.1,1253.2,2884.4,1254.3,2884.4,1256.5z"/>
				<path class="st6" d="M2898.2,1261.9c-1.5,0-2.8-0.5-3.8-1.4s-1.5-2.2-1.5-3.8v-0.3c0-1.1,0.2-2,0.6-2.8s1-1.5,1.7-1.9
					s1.6-0.7,2.6-0.7c1.4,0,2.6,0.5,3.4,1.4s1.2,2.2,1.2,3.9v1.2h-6.7c0.1,0.7,0.4,1.2,0.8,1.7s1,0.6,1.7,0.6c1.1,0,1.9-0.4,2.5-1.2
					l1.4,1.6c-0.4,0.6-1,1.1-1.7,1.4S2899.1,1261.9,2898.2,1261.9z M2897.9,1253.2c-0.6,0-1,0.2-1.4,0.6c-0.3,0.4-0.6,0.9-0.7,1.6
					h3.9v-0.2c0-0.6-0.2-1.1-0.5-1.5C2898.9,1253.4,2898.5,1253.2,2897.9,1253.2z"/>
				<path class="st6" d="M2906.7,1251.1l0.1,1.2c0.8-0.9,1.8-1.4,3-1.4c1.1,0,2,0.3,2.5,1s0.8,1.6,0.8,2.9v6.8h-2.8v-6.8
					c0-0.6-0.1-1-0.4-1.3s-0.7-0.4-1.3-0.4c-0.8,0-1.4,0.3-1.8,1v7.5h-2.8v-10.6H2906.7z"/>
				<path class="st6" d="M2918.7,1248.5v2.6h1.8v2.1h-1.8v5.3c0,0.4,0.1,0.7,0.2,0.8s0.4,0.3,0.9,0.3c0.3,0,0.6,0,0.8-0.1v2.1
					c-0.6,0.2-1.1,0.3-1.7,0.3c-2,0-3-1-3-3v-5.7h-1.5v-2.1h1.5v-2.6H2918.7z"/>
				<path class="st6" d="M2922.1,1248.4c0-0.4,0.1-0.8,0.4-1s0.7-0.4,1.2-0.4c0.5,0,0.9,0.1,1.2,0.4s0.4,0.6,0.4,1
					c0,0.4-0.1,0.8-0.4,1.1s-0.7,0.4-1.1,0.4s-0.9-0.1-1.1-0.4S2922.1,1248.8,2922.1,1248.4z M2925.1,1261.7h-2.8v-10.6h2.8V1261.7z
					"/>
				<path class="st6" d="M2928.2,1261.7v-8.5h-1.6v-2.1h1.6v-0.9c0-1.2,0.3-2.1,1-2.8s1.6-1,2.9-1c0.4,0,0.9,0.1,1.4,0.2l0,2.2
					c-0.2-0.1-0.5-0.1-0.9-0.1c-1.1,0-1.6,0.5-1.6,1.5v0.9h2.1v2.1h-2.1v8.5H2928.2z"/>
				<path class="st6" d="M2934.6,1248.4c0-0.4,0.1-0.8,0.4-1s0.7-0.4,1.2-0.4c0.5,0,0.9,0.1,1.2,0.4s0.4,0.6,0.4,1
					c0,0.4-0.1,0.8-0.4,1.1s-0.7,0.4-1.1,0.4s-0.9-0.1-1.1-0.4S2934.6,1248.8,2934.6,1248.4z M2937.6,1261.7h-2.8v-10.6h2.8V1261.7z
					"/>
				<path class="st6" d="M2944.3,1259.6c0.5,0,0.9-0.1,1.3-0.4s0.5-0.7,0.5-1.1h2.6c0,0.7-0.2,1.4-0.6,2s-0.9,1.1-1.6,1.4
					s-1.4,0.5-2.2,0.5c-1.5,0-2.7-0.5-3.6-1.4s-1.3-2.3-1.3-4v-0.2c0-1.6,0.4-2.9,1.3-3.9s2.1-1.5,3.6-1.5c1.3,0,2.4,0.4,3.2,1.1
					s1.2,1.8,1.2,3h-2.6c0-0.5-0.2-1-0.5-1.3s-0.8-0.5-1.3-0.5c-0.7,0-1.2,0.2-1.5,0.7s-0.5,1.3-0.5,2.3v0.3c0,1.1,0.2,1.9,0.5,2.3
					S2943.6,1259.6,2944.3,1259.6z"/>
				<path class="st6" d="M2956.4,1261.7c-0.1-0.3-0.2-0.6-0.3-0.9c-0.7,0.8-1.6,1.1-2.7,1.1c-1,0-1.9-0.3-2.6-0.9s-1-1.4-1-2.3
					c0-1.1,0.4-2,1.2-2.6s2-0.9,3.6-0.9h1.3v-0.6c0-0.5-0.1-0.9-0.4-1.2s-0.6-0.4-1.2-0.4c-0.5,0-0.8,0.1-1.1,0.3s-0.4,0.5-0.4,0.9
					h-2.8c0-0.6,0.2-1.2,0.6-1.7s0.9-0.9,1.6-1.2s1.5-0.4,2.3-0.4c1.3,0,2.3,0.3,3.1,1s1.1,1.6,1.1,2.8v4.6c0,1,0.1,1.8,0.4,2.3v0.2
					H2956.4z M2954.1,1259.7c0.4,0,0.8-0.1,1.2-0.3s0.6-0.4,0.8-0.7v-1.8h-1.1c-1.4,0-2.2,0.5-2.3,1.5l0,0.2c0,0.4,0.1,0.6,0.4,0.9
					S2953.7,1259.7,2954.1,1259.7z"/>
				<path class="st6" d="M2967,1253.8c-0.4-0.1-0.7-0.1-1-0.1c-1.1,0-1.8,0.4-2.1,1.1v6.9h-2.8v-10.6h2.7l0.1,1.3
					c0.6-1,1.4-1.5,2.4-1.5c0.3,0,0.6,0,0.9,0.1L2967,1253.8z"/>
			</g>
		</g>
		<g id="Grupo_55843">
			<g id="Grupo_55825">
				<g id="Grupo_55787">
					<path id="Rectngulo_5921" class="st7" d="M2873.4,1049.9h93c9.3,0,16.8,7.5,16.8,16.8v133.6c0,9.3-7.5,16.8-16.8,16.8h-93
						c-9.3,0-16.8-7.5-16.8-16.8v-133.6C2856.5,1057.4,2864.1,1049.9,2873.4,1049.9z"/>
				</g>
				<g id="Grupo_55788">
					<rect id="Rectngulo_5922" x="2864.9" y="1058.3" class="st8" width="110" height="150.3"/>
				</g>
				<g id="Grupo_55789">
					<path id="Trazado_103568" class="st9" d="M2946.3,1046.9H2928c-1.5,0-2.7-1.2-2.7-2.7c0,0,0,0,0,0l0,0c0-0.5,0.1-0.9,0.4-1.3
						c1.8-3.2,0.6-7.2-2.6-9s-7.2-0.6-9,2.6c-1.1,2-1.1,4.4,0,6.4c0.2,0.4,0.4,0.9,0.4,1.4c0,1.5-1.2,2.7-2.7,2.7l0,0h-18.3
						c-1.1,0-2.1,0.9-2.1,2.1v0l0,0v12.3h57.1v-12.3C2948.4,1047.8,2947.5,1046.9,2946.3,1046.9L2946.3,1046.9z M2919.9,1041.2
						c-1.1,0-2-0.9-2-2s0.9-2,2-2s2,0.9,2,2S2921,1041.2,2919.9,1041.2L2919.9,1041.2L2919.9,1041.2z"/>
				</g>
				<g id="Grupo_55790">
					<path id="Trazado_103569" class="st10" d="M2890.8,1093.6h-14.4v-14.4h14.4L2890.8,1093.6z M2879.3,1090.6h8.4v-8.4h-8.4
						V1090.6z"/>
				</g>
				<g id="Grupo_55791">
					<path id="Trazado_103570" class="st11" d="M2882.6,1090.1c-0.5,0-1-0.3-1.2-0.9c0-0.1-2.4-6.8-5.8-9.9
						c-0.5-0.5-0.6-1.3-0.1-1.8s1.3-0.6,1.8-0.1c2.1,2.2,3.8,4.7,5,7.5c1.6-4.1,4.2-7.9,7.5-10.9c0.5-0.5,1.4-0.4,1.8,0.2
						c0.4,0.5,0.4,1.3-0.1,1.8l0,0c-0.1,0.1-6,5.3-7.7,13C2883.7,1089.6,2883.2,1090,2882.6,1090.1L2882.6,1090.1z"/>
				</g>
				<g id="Grupo_55792">
					<path id="Trazado_103571" class="st10" d="M2890.8,1122.1h-14.4v-14.4h14.4L2890.8,1122.1z M2879.3,1119.1h8.4v-8.4h-8.4
						V1119.1z"/>
				</g>
				<g id="Grupo_55793">
					<path id="Trazado_103572" class="st11" d="M2882.6,1118.6c-0.5,0-1-0.3-1.2-0.9c0-0.1-2.4-6.8-5.8-9.9
						c-0.5-0.5-0.6-1.3-0.1-1.8s1.3-0.6,1.8-0.1l0,0l0,0c2.1,2.2,3.8,4.7,5,7.5c1.6-4.1,4.2-7.9,7.5-10.9c0.6-0.4,1.4-0.4,1.8,0.2
						c0.4,0.5,0.4,1.3-0.1,1.8c-0.1,0.1-6.1,5.3-7.7,13C2883.7,1118.1,2883.2,1118.5,2882.6,1118.6
						C2882.6,1118.6,2882.6,1118.6,2882.6,1118.6z"/>
				</g>
				<g id="Grupo_55794">
					<path id="Trazado_103573" class="st10" d="M2890.8,1150.6h-14.4v-14.4h14.4L2890.8,1150.6z M2879.3,1147.6h8.4v-8.4h-8.4
						V1147.6z"/>
				</g>
				<g id="Grupo_55795">
					<path id="Trazado_103574" class="st11" d="M2882.6,1147.1c-0.5,0-1-0.3-1.2-0.9c0-0.1-2.4-6.8-5.8-9.9
						c-0.5-0.5-0.6-1.3-0.1-1.8s1.3-0.6,1.8-0.1l0,0c2.1,2.2,3.8,4.7,5,7.5c1.6-4.1,4.2-7.9,7.5-10.9c0.5-0.5,1.4-0.4,1.8,0.2
						c0.4,0.5,0.4,1.3-0.1,1.8l0,0c-0.1,0.1-6,5.3-7.7,13C2883.7,1146.6,2883.2,1147,2882.6,1147.1L2882.6,1147.1z"/>
				</g>
				<g id="Grupo_55796">
					<path id="Trazado_103575" class="st10" d="M2890.8,1179.1h-14.4v-14.4h14.4L2890.8,1179.1z M2879.3,1176.1h8.4v-8.4h-8.4
						V1176.1z"/>
				</g>
				<g id="Grupo_55803">
					<g id="Grupo_55797">
						<path id="Trazado_103576" class="st12" d="M2931.6,1083.5H2900c-0.8,0-1.4-0.6-1.4-1.4l0,0c0-0.8,0.6-1.4,1.4-1.4c0,0,0,0,0,0
							h31.7c0.8,0,1.4,0.6,1.4,1.4v0l0,0C2933,1082.8,2932.4,1083.5,2931.6,1083.5z"/>
					</g>
					<g id="Grupo_55798">
						<path id="Trazado_103577" class="st13" d="M2959.9,1083.5h-19.5c-0.8,0-1.4-0.6-1.4-1.4l0,0c0-0.8,0.6-1.4,1.4-1.4
							c0,0,0,0,0,0h19.6c0.8,0,1.4,0.6,1.4,1.4v0l0,0C2961.3,1082.8,2960.7,1083.5,2959.9,1083.5
							C2959.9,1083.5,2959.9,1083.5,2959.9,1083.5z"/>
					</g>
					<g id="Grupo_55799">
						<path id="Trazado_103578" class="st13" d="M2954.6,1089.2H2900c-0.8,0-1.4-0.6-1.4-1.4l0,0c0-0.8,0.6-1.4,1.4-1.4h54.6
							c0.8,0,1.4,0.6,1.4,1.4c0,0,0,0,0,0l0,0C2956,1088.6,2955.3,1089.2,2954.6,1089.2C2954.6,1089.2,2954.6,1089.2,2954.6,1089.2z
							"/>
					</g>
					<g id="Grupo_55800">
						<path id="Trazado_103579" class="st13" d="M2913,1094.9h-13c-0.8,0-1.4-0.6-1.4-1.4l0,0c0-0.8,0.6-1.4,1.4-1.4h13
							c0.8,0,1.4,0.6,1.4,1.4l0,0C2914.4,1094.3,2913.7,1094.9,2913,1094.9C2913,1094.9,2913,1094.9,2913,1094.9z"/>
					</g>
					<g id="Grupo_55801">
						<path id="Trazado_103580" class="st13" d="M2930.9,1094.9h-13c-0.8,0-1.4-0.6-1.4-1.4l0,0l0,0c0-0.8,0.6-1.4,1.4-1.4h13
							c0.8,0,1.4,0.6,1.4,1.4l0,0C2932.3,1094.3,2931.7,1094.9,2930.9,1094.9C2930.9,1094.9,2930.9,1094.9,2930.9,1094.9z"/>
					</g>
					<g id="Grupo_55802">
						<path id="Trazado_103581" class="st13" d="M2959.9,1094.9h-23.6c-0.8,0-1.4-0.6-1.4-1.4c0,0,0,0,0,0l0,0
							c0-0.8,0.6-1.4,1.4-1.4h23.6c0.8,0,1.4,0.6,1.4,1.4l0,0C2961.3,1094.3,2960.7,1094.9,2959.9,1094.9
							C2959.9,1094.9,2959.9,1094.9,2959.9,1094.9z"/>
					</g>
				</g>
				<g id="Grupo_55808">
					<g id="Grupo_55804">
						<path id="Trazado_103582" class="st12" d="M2959.9,1112h-60c-0.8,0-1.4-0.6-1.4-1.4l0,0c0-0.8,0.6-1.4,1.4-1.4h60
							c0.8,0,1.4,0.6,1.4,1.4v0l0,0C2961.3,1111.4,2960.7,1112,2959.9,1112z"/>
					</g>
					<g id="Grupo_55805">
						<path id="Trazado_103583" class="st13" d="M2942.5,1117.7H2900c-0.8,0-1.4-0.6-1.4-1.4l0,0c0-0.8,0.6-1.4,1.4-1.4h42.5
							c0.8,0,1.4,0.6,1.4,1.4c0,0,0,0,0,0l0,0C2943.9,1117.1,2943.3,1117.7,2942.5,1117.7z"/>
					</g>
					<g id="Grupo_55806">
						<path id="Trazado_103584" class="st13" d="M2959.9,1117.7h-11.3c-0.8,0-1.4-0.6-1.4-1.4l0,0c0-0.8,0.6-1.4,1.4-1.4
							c0,0,0,0,0,0h11.3c0.8,0,1.4,0.6,1.4,1.4v0l0,0C2961.3,1117.1,2960.7,1117.7,2959.9,1117.7z"/>
					</g>
					<g id="Grupo_55807">
						<path id="Trazado_103585" class="st13" d="M2931.6,1123.4H2900c-0.8,0-1.4-0.6-1.4-1.4l0,0c0-0.8,0.6-1.4,1.4-1.4h31.7
							c0.8,0,1.4,0.6,1.4,1.4l0,0C2933,1122.8,2932.4,1123.4,2931.6,1123.4z"/>
					</g>
				</g>
				<g id="Grupo_55811">
					<g id="Grupo_55809">
						<path id="Trazado_103586" class="st9" d="M2918.9,1194.7h-40.1c-0.5,0-0.9-0.4-0.9-0.9l0,0c0-0.5,0.4-0.9,0.9-0.9h40.1
							c0.5,0,0.9,0.4,0.9,0.9l0,0C2919.9,1194.3,2919.4,1194.7,2918.9,1194.7z"/>
					</g>
					<g id="Grupo_55810">
						<path id="Trazado_103587" class="st9" d="M2907.3,1198.5h-28.5c-0.5,0-0.9-0.4-0.9-0.9l0,0c0-0.5,0.4-0.9,0.9-0.9h28.5
							c0.5,0,0.9,0.4,0.9,0.9l0,0C2908.2,1198.1,2907.8,1198.5,2907.3,1198.5z"/>
					</g>
				</g>
				<g id="Grupo_55816">
					<g id="Grupo_55812">
						<path id="Trazado_103588" class="st12" d="M2921.6,1140.5H2900c-0.8,0-1.4-0.6-1.4-1.4l0,0c0-0.8,0.6-1.4,1.4-1.4h21.6
							c0.8,0,1.4,0.6,1.4,1.4l0,0C2923,1139.9,2922.3,1140.5,2921.6,1140.5z"/>
					</g>
					<g id="Grupo_55813">
						<path id="Trazado_103589" class="st12" d="M2959.9,1140.5h-32.4c-0.8,0-1.4-0.6-1.4-1.4c0,0,0,0,0,0v0l0,0
							c0-0.8,0.6-1.4,1.4-1.4l0,0h32.4c0.8,0,1.4,0.6,1.4,1.4v0l0,0C2961.3,1139.9,2960.7,1140.5,2959.9,1140.5
							C2959.9,1140.5,2959.9,1140.5,2959.9,1140.5z"/>
					</g>
					<g id="Grupo_55814">
						<path id="Rectngulo_5923" class="st13" d="M2900,1143.4h31.7c0.8,0,1.4,0.6,1.4,1.4c0,0,0,0,0,0l0,0c0,0.8-0.6,1.4-1.4,1.4
							l0,0H2900c-0.8,0-1.4-0.6-1.4-1.4c0,0,0,0,0,0l0,0C2898.6,1144,2899.2,1143.4,2900,1143.4z"/>
					</g>
					<g id="Grupo_55815">
						<path id="Rectngulo_5924" class="st13" d="M2940.4,1143.4h19.5c0.8,0,1.4,0.6,1.4,1.4c0,0,0,0,0,0l0,0
							c0,0.8-0.6,1.4-1.4,1.4c0,0,0,0,0,0h-19.5c-0.8,0-1.4-0.6-1.4-1.4c0,0,0,0,0,0l0,0C2939,1144,2939.6,1143.4,2940.4,1143.4
							C2940.4,1143.4,2940.4,1143.4,2940.4,1143.4z"/>
					</g>
				</g>
				<g id="Grupo_55822">
					<g id="Grupo_55817">
						<path id="Trazado_103590" class="st12" d="M2943.3,1169H2900c-0.8,0-1.4-0.6-1.4-1.4l0,0c0-0.8,0.6-1.4,1.4-1.4h43.3
							c0.8,0,1.4,0.6,1.4,1.4l0,0C2944.7,1168.4,2944.1,1169,2943.3,1169z"/>
					</g>
					<g id="Grupo_55818">
						<path id="Trazado_103591" class="st13" d="M2922.8,1174.7H2900c-0.8,0-1.4-0.6-1.4-1.4l0,0c0-0.8,0.6-1.4,1.4-1.4h22.9
							c0.8,0,1.4,0.6,1.4,1.4c0,0,0,0,0,0l0,0C2924.2,1174.1,2923.6,1174.7,2922.8,1174.7
							C2922.8,1174.7,2922.8,1174.7,2922.8,1174.7z"/>
					</g>
					<g id="Grupo_55819">
						<path id="Trazado_103592" class="st13" d="M2959.9,1174.7h-31.2c-0.8,0-1.4-0.6-1.4-1.4l0,0c0-0.8,0.6-1.4,1.4-1.4
							c0,0,0,0,0,0h31.2c0.8,0,1.4,0.6,1.4,1.4v0l0,0C2961.3,1174.1,2960.7,1174.7,2959.9,1174.7
							C2959.9,1174.7,2959.9,1174.7,2959.9,1174.7z"/>
					</g>
					<g id="Grupo_55820">
						<path id="Trazado_103593" class="st13" d="M2941,1180.4h-41c-0.8,0-1.4-0.6-1.4-1.4l0,0c0-0.8,0.6-1.4,1.4-1.4h41
							c0.8,0,1.4,0.6,1.4,1.4c0,0,0,0,0,0l0,0C2942.4,1179.8,2941.8,1180.4,2941,1180.4C2941,1180.4,2941,1180.4,2941,1180.4
							L2941,1180.4z"/>
					</g>
					<g id="Grupo_55821">
						<path id="Trazado_103594" class="st13" d="M2959.9,1180.4H2947c-0.8,0-1.4-0.6-1.4-1.4l0,0c0-0.8,0.6-1.4,1.4-1.4h12.9
							c0.8,0,1.4,0.6,1.4,1.4l0,0C2961.3,1179.8,2960.7,1180.4,2959.9,1180.4C2959.9,1180.4,2959.9,1180.4,2959.9,1180.4
							L2959.9,1180.4z"/>
					</g>
				</g>
				<g id="Grupo_55824">
					<g id="Grupo_55823">
						<path id="Trazado_103595" class="st11" d="M2882.3,1170.7c-0.1-0.3-0.1-0.6-0.1-0.9c0-3.2,2.5-3.5,2.5-7.1
							c0-1-0.4-1.4-1.1-1.4s-1.1,0.4-1.1,1.4v1.6h-2.2v-1.4c0-2.3,1.1-3.7,3.4-3.7s3.4,1.3,3.4,3.7c0,3.8-2.7,4.4-2.7,7
							c0,0.3,0,0.5,0.1,0.8L2882.3,1170.7z M2884.4,1171.7v2.2h-2.2v-2.2L2884.4,1171.7z"/>
					</g>
				</g>
			</g>
			<g id="Grupo_55842">
				<path id="Trazado_103597" class="st14" d="M2666.2,1165.8l-32.7,1.5h-66.8v-135.1h101.1v100L2666.2,1165.8z"/>
				<g id="Grupo_55834" class="st15">
					<g id="Grupo_55826">
						<rect id="Rectngulo_5925" x="2578.3" y="1051.5" class="st16" width="11.4" height="11.4"/>
						<path id="Trazado_103598" class="st9" d="M2590.6,1063.8h-13.2v-13.2h13.2L2590.6,1063.8z M2579.1,1062.1h9.7v-9.7h-9.7
							V1062.1z"/>
					</g>
					<g id="Grupo_55827">
						<rect id="Rectngulo_5926" x="2578.3" y="1080" class="st16" width="11.4" height="11.4"/>
						<path id="Trazado_103599" class="st9" d="M2590.6,1092.3h-13.2v-13.2h13.2L2590.6,1092.3z M2579.1,1090.6h9.7v-9.7h-9.7
							V1090.6z"/>
					</g>
					<g id="Grupo_55828-2">
						<rect id="Rectngulo_5927" x="2578.3" y="1108.5" class="st16" width="11.4" height="11.4"/>
						<path id="Trazado_103600" class="st9" d="M2590.6,1120.8h-13.2v-13.2h13.2L2590.6,1120.8z M2579.1,1119.1h9.7v-9.7h-9.7
							V1119.1z"/>
					</g>
					<g id="Grupo_55829">
						<rect id="Rectngulo_5928" x="2578.3" y="1137" class="st16" width="11.4" height="11.4"/>
						<path id="Trazado_103601" class="st9" d="M2590.6,1149.3h-13.2v-13.2h13.2L2590.6,1149.3z M2579.1,1147.6h9.7v-9.7h-9.7
							V1147.6z"/>
					</g>
					<g id="Grupo_55830">
						<path id="Trazado_103602" class="st9" d="M2632.1,1054.3h-31.7c-0.8,0-1.4-0.6-1.4-1.4l0,0c0-0.8,0.6-1.4,1.4-1.4c0,0,0,0,0,0
							h31.7c0.8,0,1.4,0.6,1.4,1.4l0,0C2633.5,1053.7,2632.8,1054.3,2632.1,1054.3C2632.1,1054.3,2632.1,1054.3,2632.1,1054.3z"/>
						<path id="Trazado_103603" class="st9" d="M2660.4,1054.3h-19.5c-0.8,0-1.4-0.6-1.4-1.4l0,0c0-0.8,0.6-1.4,1.4-1.4l0,0h19.5
							c0.8,0,1.4,0.6,1.4,1.4l0,0C2661.8,1053.7,2661.1,1054.3,2660.4,1054.3z"/>
						<path id="Trazado_103604" class="st9" d="M2655,1060h-54.6c-0.8,0-1.4-0.6-1.4-1.4v0l0,0c0-0.8,0.6-1.4,1.4-1.4h54.6
							c0.8,0,1.4,0.6,1.4,1.4l0,0C2656.4,1059.4,2655.8,1060,2655,1060C2655,1060,2655,1060,2655,1060z"/>
						<path id="Trazado_103605" class="st9" d="M2613.4,1065.7h-13c-0.8,0-1.4-0.6-1.4-1.4v0l0,0c0-0.8,0.6-1.4,1.4-1.4h13
							c0.8,0,1.4,0.6,1.4,1.4l0,0C2614.8,1065.1,2614.2,1065.7,2613.4,1065.7z"/>
						<path id="Trazado_103606" class="st9" d="M2631.3,1065.7h-13c-0.8,0-1.4-0.6-1.4-1.4c0,0,0,0,0,0l0,0c0-0.8,0.6-1.4,1.4-1.4
							h13c0.8,0,1.4,0.6,1.4,1.4c0,0,0,0,0,0v0l0,0C2632.7,1065.1,2632.1,1065.7,2631.3,1065.7
							C2631.3,1065.7,2631.3,1065.7,2631.3,1065.7L2631.3,1065.7z"/>
						<path id="Trazado_103607" class="st9" d="M2660.4,1065.7h-23.6c-0.8,0-1.4-0.6-1.4-1.4l0,0c0-0.8,0.6-1.4,1.4-1.4h23.6
							c0.8,0,1.4,0.6,1.4,1.4l0,0C2661.8,1065.1,2661.2,1065.7,2660.4,1065.7C2660.4,1065.7,2660.4,1065.7,2660.4,1065.7z"/>
					</g>
					<g id="Grupo_55831">
						<path id="Trazado_103608" class="st9" d="M2660.4,1082.8h-60c-0.8,0-1.4-0.6-1.4-1.4l0,0c0-0.8,0.6-1.4,1.4-1.4h60
							c0.8,0,1.4,0.6,1.4,1.4l0,0C2661.8,1082.2,2661.2,1082.8,2660.4,1082.8C2660.4,1082.8,2660.4,1082.8,2660.4,1082.8z"/>
						<path id="Trazado_103609" class="st9" d="M2643,1088.5h-42.5c-0.8,0-1.4-0.6-1.4-1.4v0l0,0c0-0.8,0.6-1.4,1.4-1.4h42.5
							c0.8,0,1.4,0.6,1.4,1.4l0,0C2644.4,1087.9,2643.7,1088.5,2643,1088.5C2643,1088.5,2643,1088.5,2643,1088.5z"/>
						<path id="Trazado_103610" class="st9" d="M2660.4,1088.5h-11.3c-0.8,0-1.4-0.6-1.4-1.4l0,0c0-0.8,0.6-1.4,1.4-1.4h11.3
							c0.8,0,1.4,0.6,1.4,1.4l0,0C2661.8,1087.9,2661.1,1088.5,2660.4,1088.5z"/>
						<path id="Trazado_103611" class="st9" d="M2632.1,1094.2h-31.7c-0.8,0-1.4-0.6-1.4-1.4v0l0,0c0-0.8,0.6-1.4,1.4-1.4h31.7
							c0.8,0,1.4,0.6,1.4,1.4l0,0C2633.5,1093.6,2632.8,1094.2,2632.1,1094.2z"/>
					</g>
					<g id="Grupo_55832">
						<path id="Trazado_103612" class="st9" d="M2622,1111.3h-21.6c-0.8,0-1.4-0.6-1.4-1.4l0,0c0-0.8,0.6-1.4,1.4-1.4h21.6
							c0.8,0,1.4,0.6,1.4,1.4c0,0,0,0,0,0l0,0C2623.4,1110.7,2622.8,1111.3,2622,1111.3z"/>
						<path id="Trazado_103613" class="st9" d="M2660.4,1111.3H2628c-0.8,0-1.4-0.6-1.4-1.4l0,0c0-0.8,0.6-1.4,1.4-1.4c0,0,0,0,0,0
							h32.4c0.8,0,1.4,0.6,1.4,1.4v0l0,0C2661.8,1110.7,2661.1,1111.3,2660.4,1111.3z"/>
						<path id="Rectngulo_5929" class="st9" d="M2600.4,1114.2h31.7c0.8,0,1.4,0.6,1.4,1.4c0,0,0,0,0,0l0,0c0,0.8-0.6,1.4-1.4,1.4
							c0,0,0,0,0,0h-31.7c-0.8,0-1.4-0.6-1.4-1.4c0,0,0,0,0,0l0,0C2599,1114.9,2599.6,1114.2,2600.4,1114.2
							C2600.4,1114.2,2600.4,1114.2,2600.4,1114.2z"/>
						<path id="Rectngulo_5930" class="st9" d="M2640.8,1114.2h19.5c0.8,0,1.4,0.6,1.4,1.4c0,0,0,0,0,0l0,0c0,0.8-0.6,1.4-1.4,1.4
							c0,0,0,0,0,0h-19.5c-0.8,0-1.4-0.6-1.4-1.4c0,0,0,0,0,0l0,0C2639.4,1114.9,2640,1114.2,2640.8,1114.2
							C2640.8,1114.2,2640.8,1114.2,2640.8,1114.2z"/>
					</g>
					<g id="Grupo_55833">
						<path id="Trazado_103614" class="st9" d="M2643.7,1139.8h-43.3c-0.8,0-1.4-0.6-1.4-1.4l0,0c0-0.8,0.6-1.4,1.4-1.4h43.3
							c0.8,0,1.4,0.6,1.4,1.4c0,0,0,0,0,0l0,0C2645.1,1139.2,2644.5,1139.8,2643.7,1139.8L2643.7,1139.8z"/>
						<path id="Trazado_103615" class="st9" d="M2623.3,1145.6h-22.9c-0.8,0-1.4-0.6-1.4-1.4v0l0,0c0-0.8,0.6-1.4,1.4-1.4h22.9
							c0.8,0,1.4,0.6,1.4,1.4l0,0C2624.7,1144.9,2624,1145.6,2623.3,1145.6L2623.3,1145.6z"/>
						<path id="Trazado_103616" class="st9" d="M2660.4,1145.6h-31.2c-0.8,0-1.4-0.6-1.4-1.4l0,0l0,0c0-0.8,0.6-1.4,1.4-1.4h31.2
							c0.8,0,1.4,0.6,1.4,1.4l0,0C2661.8,1144.9,2661.1,1145.5,2660.4,1145.6z"/>
						<path id="Trazado_103617" class="st9" d="M2641.4,1151.3h-41c-0.8,0-1.4-0.6-1.4-1.4v0l0,0c0-0.8,0.6-1.4,1.4-1.4h41
							c0.8,0,1.4,0.6,1.4,1.4c0,0,0,0,0,0v0l0,0C2642.8,1150.6,2642.2,1151.3,2641.4,1151.3L2641.4,1151.3L2641.4,1151.3z"/>
						<path id="Trazado_103618" class="st9" d="M2660.4,1151.3h-12.9c-0.8,0-1.4-0.6-1.4-1.4l0,0c0-0.8,0.6-1.4,1.4-1.4h12.9
							c0.8,0,1.4,0.6,1.4,1.4l0,0C2661.8,1150.6,2661.2,1151.3,2660.4,1151.3C2660.4,1151.3,2660.4,1151.3,2660.4,1151.3
							L2660.4,1151.3z"/>
					</g>
				</g>
				<g id="Grupo_55837">
					<path id="Trazado_103619" class="st17" d="M2680.7,1142.2l1.4-2.6l-27.9-28.3l-6.3-3.4l9.3,17.1L2680.7,1142.2z"/>
					
						<rect id="Rectngulo_5931" x="2631.3" y="1094" transform="matrix(0.7071 -0.7071 0.7071 0.7071 -8.6348 2186.2615)" class="st18" width="6.9" height="19.2"/>
					<path id="Trazado_103620" class="st19" d="M2634.1,1111.6l25.1,25.1c2.4,2.4,6.3,2.4,8.7,0c0,0,0,0,0,0l0,0l0,0
						c2.4-2.4,2.4-6.3,0-8.7c0,0,0,0,0,0l0,0l-25.1-25.1L2634.1,1111.6z"/>
					<circle id="Elipse_4326" class="st20" cx="2610.9" cy="1080" r="23.6"/>
					<g id="Grupo_55836">
						<path id="Trazado_103621" class="st19" d="M2590.3,1059.1c-11.6,11.6-11.6,30.3,0,41.9s30.3,11.6,41.9,0
							c11.6-11.6,11.6-30.3,0-41.9C2620.6,1047.5,2601.8,1047.5,2590.3,1059.1C2590.3,1059.1,2590.3,1059.1,2590.3,1059.1z
							 M2595.1,1063.9c8.9-8.9,23.4-8.9,32.3,0c8.9,8.9,8.9,23.4,0,32.3c-8.9,8.9-23.4,8.9-32.3,0c0,0,0,0,0,0l0,0
							C2586.1,1087.3,2586.1,1072.8,2595.1,1063.9C2595.1,1063.9,2595.1,1063.9,2595.1,1063.9L2595.1,1063.9z"/>
						<g id="Grupo_55835">
							<path id="Trazado_103622" class="st8" d="M2596,1077.2c0.2-0.1,0.4-0.4,0.4-0.6c1.6-8,9.3-13.2,17.2-11.6
								c0.5,0.1,1-0.2,1.1-0.8s-0.2-1-0.8-1.1c-9-1.8-17.8,4.1-19.5,13.2c-0.1,0.5,0.2,1,0.8,1.1
								C2595.6,1077.4,2595.8,1077.4,2596,1077.2L2596,1077.2z"/>
						</g>
					</g>
				</g>
				<path id="Trazado_103623" class="st21" d="M2646.3,1124.6c2.4-3.3,7-4.2,10.1-2l22.1,17.9l-16.6-18.3l-14.1-14.2l29.3,1.6
					c2.7,0.1,5.2,1.5,6.8,3.6l23.9,31c5.5,8.2,13.9,13.9,23.6,15.8l3.5,1l0.2,18.9l-11.5,12.3l-19.8-11.4c-5.2-3-10-6.8-14.1-11.2
					c-5.2-5.5-12.7-11.7-16.9-15.1l-25.6-20.8C2644.6,1131.2,2644.2,1127.3,2646.3,1124.6z"/>
				<g id="Grupo_55839">
					<g id="Grupo_55838">
						<path id="Trazado_103624" class="st22" d="M2657.4,1133.9l0.9-1.2c1.4-1.7,1.2-4.2-0.4-5.7l-3.5-3.1c-1.9-1.7-4.8-1.6-6.5,0.3
							c0,0,0,0,0,0c-0.1,0.1-0.1,0.1-0.2,0.2l-1.1,1.4c-1.5,1.9-1.1,4.7,0.8,6.2c0.1,0.1,0.2,0.2,0.4,0.3l3.9,2.5
							C2653.6,1136,2656.1,1135.6,2657.4,1133.9z"/>
					</g>
				</g>
				<path id="Trazado_103625" class="st23" d="M2729.7,1157.7l-11.5-5.8l-20.5,29.7l15.2,8.5L2729.7,1157.7z"/>
				<path id="Trazado_103626" class="st24" d="M2735.4,1209.6l-26.7-13.8l22.2-41.1l4.6,2V1209.6z"/>
				<path id="Trazado_103627" class="st24" d="M2706.1,1182.3c0.7,0.6,1.8,0.6,2.4-0.1c0.6-0.7,0.6-1.8-0.1-2.4
					c-0.7-0.6-1.8-0.6-2.4,0.1C2705.4,1180.6,2705.5,1181.7,2706.1,1182.3C2706.1,1182.3,2706.1,1182.3,2706.1,1182.3z"/>
				<path id="Trazado_103628" class="st21" d="M2580,1114.1c-4.1-0.5-7.9,2.2-8.4,6l-3.7,27.1c0,0.1-0.1,0.2-0.2,0.2
					c-0.1,0-0.2-0.1-0.2-0.2l-0.7-23.2v-20.1l-18.9,22.5c-1.7,2.1-2.5,4.8-2.1,7.4l6.1,38.6c2.2,9.6,0.5,19.6-4.6,28l-5.3,8.7
					l13.3-0.8l22.8,0.3l3.4-14.3c1.4-5.9,1.9-12,1.5-18c-0.5-7.6,0.2-17.3,0.6-22.6l2.4-33C2586,1117.3,2583.4,1114.4,2580,1114.1z"
					/>
				<g id="Grupo_55841">
					<g id="Grupo_55840">
						<path id="Trazado_103629" class="st22" d="M2579.1,1128.5l-1.5-0.1c-2.2-0.2-3.9-2-3.8-4.2l0.1-4.6c0-2.5,2.1-4.6,4.6-4.5
							c0.1,0,0.2,0,0.3,0l1.8,0.2c2.4,0.2,4.2,2.4,4,4.8c0,0,0,0,0,0c0,0.2,0,0.3-0.1,0.5l-0.8,4.6
							C2583.3,1127.2,2581.3,1128.7,2579.1,1128.5z"/>
					</g>
				</g>
				<path id="Trazado_103630" class="st23" d="M2547,1197.5l3.7-12.4l35.7,5.4l-4.2,16.9L2547,1197.5z"/>
				<path id="Trazado_103631" class="st24" d="M2588.8,1209.6l0.3-1.3l-45.1-12.1l-5.1,13.4H2588.8z"/>
				<path id="Trazado_103632" class="st24" d="M2581.1,1197.2c0,0.9-0.8,1.7-1.7,1.7c-0.9,0-1.7-0.8-1.7-1.7s0.8-1.7,1.7-1.7l0,0
					l0,0C2580.3,1195.5,2581.1,1196.3,2581.1,1197.2z"/>
			</g>
		</g>
		<path id="Trazado_103507" class="st25" d="M3108.2,1283.4h-43.9c-6.8-0.1-13.4-2.8-18.3-7.6c-4.9-4.8-7.6-11.4-7.6-18.3v-235.3
			c0-14.3,11.6-25.8,25.8-25.8l0,0h46.1"/>
		<line id="Lnea_153" class="st25" x1="3110.5" y1="1142.4" x2="3038.5" y2="1142.4"/>
		<line id="Lnea_154" class="st25" x1="3031" y1="1142.4" x2="2991.2" y2="1142.4"/>
		<line id="Lnea_155" class="st25" x1="2847.5" y1="1142.4" x2="2743" y2="1142.4"/>
		<circle id="Elipse_4325" class="st26" cx="3110.5" cy="997.1" r="5.5"/>
		<circle id="Elipse_4326-2" class="st26" cx="3110.5" cy="1142.4" r="5.5"/>
		<circle id="Elipse_4327" class="st26" cx="3110.5" cy="1283.4" r="5.5"/>
		<path id="Trazado_103596" class="st27" d="M2802.6,1131.1l-7.5-6.6l9.4-8.4h-38.9v-9.5h38.4l0.1-0.4l-9.1-8.1l7.5-6.6l22.3,19.8
			L2802.6,1131.1z"/>
	</g>
</g>
</svg>
