<svg xmlns="http://www.w3.org/2000/svg" width="100.352" height="100" viewBox="0 0 100.352 100">
  <g id="Grupo_55774" data-name="Grupo 55774" transform="translate(-633 -3347)">
    <circle id="Elipse_1146" data-name="Elipse 1146" cx="50" cy="50" r="50" transform="translate(633 3347)" fill="#badb4c"/>
    <path id="Trazado_100194" data-name="Trazado 100194" d="M836.3,416.762l-22.841,7.786,1.035,19.663,1.566,16.477L837.429,479.6c15.588-5.259,27.175-21.482,29-38.359Z" transform="translate(-133.074 2962.098)" fill="#95af3d" opacity="0.3" style="mix-blend-mode: multiply;isolation: isolate"/>
    <g id="Grupo_54099" data-name="Grupo 54099" transform="translate(661.542 3366.467)">
      <path id="Trazado_100195" data-name="Trazado 100195" d="M848.974,410.251v51.922h-1.319V471.8h1.319v1.2h-39.36a6.308,6.308,0,0,1-1.89-.287c-2.586-.8-3.506-3.194-4.012-5.919l-.152-49.251c0-3.883,2.849-7.3,6.732-7.3Z" transform="translate(-803.56 -410.251)" fill="#263039"/>
      <path id="Trazado_100196" data-name="Trazado 100196" d="M846.026,460.914h-39.2V410.367l39.2-.057Z" transform="translate(-800.613 -410.197)" fill="#374049"/>
      <path id="Trazado_100197" data-name="Trazado 100197" d="M847.243,437.532v9.631h-37.7a4.812,4.812,0,0,1-3.782-1.269,4.687,4.687,0,0,1-1.481-3.22c0-.08-.006-.16-.006-.238v-.274c0-.1,0-.2.01-.295a4.543,4.543,0,0,1,2.179-3.643,7.493,7.493,0,0,1,1.079-.495,5.555,5.555,0,0,1,2-.2Z" transform="translate(-802.917 -385.61)" fill="#fff"/>
      <path id="Trazado_100198" data-name="Trazado 100198" d="M804.852,442.437a4.6,4.6,0,0,1,2.01-3.54,4.445,4.445,0,0,1,2.529-.794H848.9v-1.2H809.42a5.8,5.8,0,0,0-5.78,5.834v.274a5.956,5.956,0,0,0,4.012,5.645,5.553,5.553,0,0,0,1.768.287H848.9v-1.2H809.42a4.6,4.6,0,0,1-3.243-1.408,4.692,4.692,0,0,1-1.328-3.081c0-.08-.006-.16-.006-.238v-.274C804.843,442.633,804.847,442.532,804.852,442.437Z" transform="translate(-803.488 -386.181)" fill="#1b2630"/>
      <path id="Trazado_100199" data-name="Trazado 100199" d="M804.96,441.837a4.614,4.614,0,0,0,3.268,1.361h0A4.614,4.614,0,0,1,804.96,441.837Z" transform="translate(-802.295 -381.72)" fill="#720c14"/>
      <path id="Trazado_100200" data-name="Trazado 100200" d="M807.931,437.538l36.044,3.881v-3.866Z" transform="translate(-799.612 -385.603)" fill="#d0cdca"/>
    </g>
    <rect id="Rectángulo_5098" data-name="Rectángulo 5098" width="16.259" height="2.058" transform="translate(678.658 3382.471)" fill="#fff"/>
    <rect id="Rectángulo_5099" data-name="Rectángulo 5099" width="16.259" height="2.058" transform="translate(678.617 3386.656)" fill="#fff"/>
    <rect id="Rectángulo_5100" data-name="Rectángulo 5100" width="16.259" height="2.058" transform="translate(678.617 3390.841)" fill="#fff"/>
  </g>
</svg>
