<svg xmlns="http://www.w3.org/2000/svg" width="126" height="126" viewBox="0 0 126 126">
  <g id="Grupo_55774" data-name="Grupo 55774" transform="translate(-232 -8232)">
    <g id="Trazado_103508" data-name="Trazado 103508" transform="translate(232 8232)" fill="#cfe194">
      <path d="M 63 124.5 C 54.6968994140625 124.5 46.64294815063477 122.8741683959961 39.06188201904297 119.6676330566406 C 35.41808319091797 118.1264343261719 31.90351676940918 116.2187805175781 28.61581611633301 113.9976501464844 C 25.35896682739258 111.79736328125 22.29631614685059 109.2704315185547 19.5129337310791 106.4870681762695 C 16.72956657409668 103.7036819458008 14.20263290405273 100.6410369873047 12.00234985351563 97.38418579101563 C 9.781216621398926 94.09648132324219 7.873566627502441 90.58191680908203 6.332366466522217 86.93811798095703 C 3.12583327293396 79.35704803466797 1.5 71.3031005859375 1.5 63 C 1.5 54.6968994140625 3.12583327293396 46.64294815063477 6.332366466522217 39.06188201904297 C 7.873566627502441 35.41808319091797 9.781216621398926 31.90351676940918 12.00234985351563 28.61581611633301 C 14.20263290405273 25.35896682739258 16.72956657409668 22.29631614685059 19.5129337310791 19.5129337310791 C 22.29631614685059 16.72956657409668 25.35896682739258 14.20263290405273 28.61581611633301 12.00234985351563 C 31.90351676940918 9.781216621398926 35.41808319091797 7.873566627502441 39.06188201904297 6.332366466522217 C 46.64294815063477 3.12583327293396 54.6968994140625 1.5 63 1.5 C 71.3031005859375 1.5 79.35704803466797 3.12583327293396 86.93811798095703 6.332366466522217 C 90.58191680908203 7.873566627502441 94.09648132324219 9.781216621398926 97.38418579101563 12.00234985351563 C 100.6410369873047 14.20263290405273 103.7036819458008 16.72956657409668 106.4870681762695 19.5129337310791 C 109.2704315185547 22.29631614685059 111.79736328125 25.35896682739258 113.9976501464844 28.61581611633301 C 116.2187805175781 31.90351676940918 118.1264343261719 35.41808319091797 119.6676330566406 39.06188201904297 C 122.8741683959961 46.64294815063477 124.5 54.6968994140625 124.5 63 C 124.5 71.3031005859375 122.8741683959961 79.35704803466797 119.6676330566406 86.93811798095703 C 118.1264343261719 90.58191680908203 116.2187805175781 94.09648132324219 113.9976501464844 97.38418579101563 C 111.79736328125 100.6410369873047 109.2704315185547 103.7036819458008 106.4870681762695 106.4870681762695 C 103.7036819458008 109.2704315185547 100.6410369873047 111.79736328125 97.38418579101563 113.9976501464844 C 94.09648132324219 116.2187805175781 90.58191680908203 118.1264343261719 86.93811798095703 119.6676330566406 C 79.35704803466797 122.8741683959961 71.3031005859375 124.5 63 124.5 Z" stroke="none"/>
      <path d="M 63 3 C 54.89872741699219 3 47.0413818359375 4.585983276367188 39.64621734619141 7.713874816894531 C 36.09159851074219 9.217330932617188 32.6629638671875 11.07836151123047 29.45552825927734 13.24526977539063 C 26.27776336669922 15.39212799072266 23.28945159912109 17.85772705078125 20.57358551025391 20.57358551025391 C 17.85772705078125 23.28945159912109 15.39212799072266 26.27776336669922 13.24526977539063 29.45552825927734 C 11.07836151123047 32.6629638671875 9.217330932617188 36.09159851074219 7.713874816894531 39.64621734619141 C 4.585983276367188 47.0413818359375 3 54.89872741699219 3 63 C 3 71.10127258300781 4.585983276367188 78.9586181640625 7.713874816894531 86.35378265380859 C 9.217330932617188 89.90840148925781 11.07836151123047 93.3370361328125 13.24526977539063 96.54447174072266 C 15.39212799072266 99.72223663330078 17.85772705078125 102.7105407714844 20.57358551025391 105.4264221191406 C 23.28945159912109 108.1422729492188 26.27776336669922 110.6078720092773 29.45552825927734 112.7547302246094 C 32.6629638671875 114.9216384887695 36.09159851074219 116.7826690673828 39.64621734619141 118.2861251831055 C 47.0413818359375 121.4140167236328 54.89872741699219 123 63 123 C 71.10127258300781 123 78.9586181640625 121.4140167236328 86.35378265380859 118.2861251831055 C 89.90840148925781 116.7826690673828 93.3370361328125 114.9216384887695 96.54447174072266 112.7547302246094 C 99.72223663330078 110.6078720092773 102.7105407714844 108.1422729492188 105.4264221191406 105.4264221191406 C 108.1422729492188 102.7105407714844 110.6078720092773 99.72223663330078 112.7547302246094 96.54447174072266 C 114.9216384887695 93.3370361328125 116.7826690673828 89.90840148925781 118.2861251831055 86.35378265380859 C 121.4140167236328 78.9586181640625 123 71.10127258300781 123 63 C 123 54.89872741699219 121.4140167236328 47.0413818359375 118.2861251831055 39.64621734619141 C 116.7826690673828 36.09159851074219 114.9216384887695 32.6629638671875 112.7547302246094 29.45552825927734 C 110.6078720092773 26.27776336669922 108.1422729492188 23.28945159912109 105.4264221191406 20.57358551025391 C 102.7105407714844 17.85772705078125 99.72223663330078 15.39212799072266 96.54447174072266 13.24526977539063 C 93.3370361328125 11.07836151123047 89.90840148925781 9.217330932617188 86.35378265380859 7.713874816894531 C 78.9586181640625 4.585983276367188 71.10127258300781 3 63 3 M 63 0 C 97.7939453125 0 126 28.2060546875 126 63 C 126 97.7939453125 97.7939453125 126 63 126 C 28.2060546875 126 0 97.7939453125 0 63 C 0 28.2060546875 28.2060546875 0 63 0 Z" stroke="none" fill="#95af3d"/>
    </g>
    <g id="Grupo_54300" data-name="Grupo 54300" transform="translate(-1130.978 7746.5)">
      <path id="Trazado_100947" data-name="Trazado 100947" d="M1448.482,527.235l-27.673,9.432,1.253,23.824-6.5,12.857,34.284,30.021c18.886-6.37,32.925-26.026,35.132-46.473Z" fill="#95af3d" opacity="0.5"/>
      <path id="Trazado_100948" data-name="Trazado 100948" d="M1453.374,580.428h-47.559v3.82h1q22.773,0,45.545.019c.8,0,1.094-.193,1.032-1.016C1453.321,582.332,1453.374,581.405,1453.374,580.428Z" fill="#fff"/>
      <path id="Trazado_100949" data-name="Trazado 100949" d="M1407.067,517.982l1.638,1.614c-.347.348-.7.694-1.042,1.042-.89.893-.883,1.366.018,2.271,2.138,2.147,4.277,4.293,6.393,6.414a12.1,12.1,0,0,1,1.76-.563,3.106,3.106,0,0,1,3.2,4.516.862.862,0,0,0,.206,1.211c2.237,2.2,4.444,4.428,6.665,6.644.846.843,1.362.843,2.217-.01.4-.4.8-.8,1.2-1.2l1.634,1.611-1.124,1.125c1.194,1.205,2.4,2.466,3.662,3.674a1.018,1.018,0,0,0,1.509-.057q2.606-2.573,5.173-5.184a1.042,1.042,0,0,0-.036-1.569c-1.181-1.216-2.389-2.405-3.583-3.6l-1.163,1.166-1.63-1.607q.62-.62,1.239-1.239c.879-.882.868-1.373-.032-2.273q-9.078-9.081-18.157-18.158c-.941-.94-1.375-.942-2.325.005l-1.34,1.339-1.63-1.607,1.349-1.344c-.912-.9-1.855-1.829-2.791-2.762-1.45-1.446-2.893-2.9-4.345-4.342-.8-.794-1.307-.8-2.1-.015q-2.378,2.361-4.737,4.739c-.662.67-.695,1.238-.069,1.871,2.412,2.438,4.84,4.858,7.251,7.272Z" fill="#212513" opacity="0.8"/>
      <path id="Trazado_100950" data-name="Trazado 100950" d="M1416.218,529.654a2.253,2.253,0,1,0,2.234,2.205A2.207,2.207,0,0,0,1416.218,529.654Z" fill="#fff"/>
      <path id="Trazado_100951" data-name="Trazado 100951" d="M1405.657,578.483h47.661a29.271,29.271,0,0,0-11.2-9.8c.26-.172.438-.236.628-.345a25.737,25.737,0,0,0,7.749-6.757.663.663,0,0,1,.471-.3H1440.5c-.078,0-.122.121-.181.163-8.223,5.949-20.6,4.428-26.687-3.876a15.346,15.346,0,0,1,2.521-20.963c.379-.329.771-.643,1.335-1.113a4.173,4.173,0,0,0-1.058-.354,3.381,3.381,0,0,1-3.458-3.41,4.156,4.156,0,0,0-.514-1.249,21.9,21.9,0,0,0-9.372,20.314c1.029,8.418,5.87,14.127,13.191,18.158A30.887,30.887,0,0,0,1405.657,578.483Z" fill="#212513" opacity="0.8"/>
      <path id="Trazado_100952" data-name="Trazado 100952" d="M1458.182,557.6h-25.636a1.753,1.753,0,0,0,0,3.505h25.636a1.753,1.753,0,0,0,0-3.505Z" fill="#fff"/>
    </g>
  </g>
</svg>
